<svg width="20" height="22" viewBox="0 0 20 22" fill="none" xmlns="http://www.w3.org/2000/svg">
<rect x="2.64444" y="1.14444" width="14.7111" height="19.7111" rx="1.77778" stroke="white" stroke-width="0.711111"/>
<rect x="3.44444" y="1.94444" width="13.1111" height="18.1111" rx="0.977778" fill="white"/>
<rect x="3.44444" y="1.94444" width="13.1111" height="18.1111" rx="0.977778" stroke="black" stroke-width="0.888889"/>
<path d="M9.1457 13.676H9.6617C10.2537 13.676 10.6777 13.6 10.9337 13.448C11.1897 13.296 11.3177 13.052 11.3177 12.716C11.3177 12.38 11.1897 12.136 10.9337 11.984C10.6777 11.832 10.2537 11.756 9.6617 11.756H9.1457V13.676ZM9.1457 10.004H9.5777C10.3137 10.004 10.6817 9.712 10.6817 9.128C10.6817 8.544 10.3137 8.252 9.5777 8.252H9.1457V10.004ZM6.7937 6.452H10.2977C11.1297 6.452 11.7617 6.652 12.1937 7.052C12.6257 7.452 12.8417 8.028 12.8417 8.78C12.8417 9.236 12.7577 9.616 12.5897 9.92C12.4297 10.216 12.1817 10.468 11.8457 10.676C12.1817 10.74 12.4657 10.84 12.6977 10.976C12.9377 11.104 13.1297 11.264 13.2737 11.456C13.4257 11.648 13.5337 11.864 13.5977 12.104C13.6617 12.344 13.6937 12.6 13.6937 12.872C13.6937 13.296 13.6177 13.672 13.4657 14C13.3217 14.328 13.1137 14.604 12.8417 14.828C12.5777 15.052 12.2537 15.22 11.8697 15.332C11.4857 15.444 11.0537 15.5 10.5737 15.5H6.7937V6.452Z" fill="black"/>
</svg>
