<svg width="20" height="22" viewBox="0 0 20 22" fill="none" xmlns="http://www.w3.org/2000/svg">
<rect x="2.64444" y="1.14444" width="14.7111" height="19.7111" rx="1.77778" stroke="white" stroke-width="0.711111"/>
<rect x="3.44444" y="1.94444" width="13.1111" height="18.1111" rx="0.977778" fill="white"/>
<rect x="3.44444" y="1.94444" width="13.1111" height="18.1111" rx="0.977778" stroke="black" stroke-width="0.888889"/>
<path d="M13.462 9.476C12.918 8.812 12.246 8.48 11.446 8.48C11.094 8.48 10.766 8.544 10.462 8.672C10.166 8.8 9.91005 8.976 9.69405 9.2C9.47805 9.416 9.30605 9.676 9.17805 9.98C9.05805 10.284 8.99805 10.612 8.99805 10.964C8.99805 11.324 9.05805 11.656 9.17805 11.96C9.30605 12.264 9.47805 12.528 9.69405 12.752C9.91805 12.976 10.178 13.152 10.474 13.28C10.77 13.408 11.09 13.472 11.434 13.472C12.186 13.472 12.862 13.152 13.462 12.512V15.296L13.222 15.38C12.862 15.508 12.526 15.6 12.214 15.656C11.902 15.72 11.594 15.752 11.29 15.752C10.666 15.752 10.066 15.636 9.49005 15.404C8.92205 15.164 8.41805 14.832 7.97805 14.408C7.54605 13.976 7.19805 13.468 6.93405 12.884C6.67005 12.292 6.53805 11.648 6.53805 10.952C6.53805 10.256 6.66605 9.62 6.92205 9.044C7.18605 8.46 7.53405 7.96 7.96605 7.544C8.40605 7.12 8.91405 6.792 9.49005 6.56C10.066 6.32 10.67 6.2 11.302 6.2C11.662 6.2 12.014 6.24 12.358 6.32C12.71 6.392 13.078 6.508 13.462 6.668V9.476Z" fill="black"/>
</svg>
