<svg width="20" height="22" viewBox="0 0 20 22" fill="none" xmlns="http://www.w3.org/2000/svg">
<rect x="2.64444" y="1.14444" width="14.7111" height="19.7111" rx="1.77778" stroke="white" stroke-width="0.711111"/>
<rect x="3.44444" y="1.94444" width="13.1111" height="18.1111" rx="0.977778" fill="white"/>
<rect x="3.44444" y="1.94444" width="13.1111" height="18.1111" rx="0.977778" stroke="black" stroke-width="0.888889"/>
<path d="M8.5832 13.508H9.1232C9.5312 13.508 9.8952 13.444 10.2152 13.316C10.5352 13.188 10.8032 13.012 11.0192 12.788C11.2432 12.564 11.4112 12.3 11.5232 11.996C11.6432 11.684 11.7032 11.344 11.7032 10.976C11.7032 10.616 11.6432 10.28 11.5232 9.968C11.4032 9.656 11.2312 9.388 11.0072 9.164C10.7912 8.94 10.5232 8.764 10.2032 8.636C9.8832 8.508 9.5232 8.444 9.1232 8.444H8.5832V13.508ZM6.2312 6.452H9.7112C10.3272 6.452 10.9032 6.576 11.4392 6.824C11.9832 7.072 12.4552 7.404 12.8552 7.82C13.2632 8.228 13.5832 8.708 13.8152 9.26C14.0472 9.804 14.1632 10.376 14.1632 10.976C14.1632 11.568 14.0472 12.14 13.8152 12.692C13.5912 13.236 13.2752 13.716 12.8672 14.132C12.4672 14.548 11.9952 14.88 11.4512 15.128C10.9152 15.376 10.3352 15.5 9.7112 15.5H6.2312V6.452Z" fill="black"/>
</svg>
