<svg width="20" height="22" viewBox="0 0 20 22" fill="none" xmlns="http://www.w3.org/2000/svg">
<rect x="2.64444" y="1.14444" width="14.7111" height="19.7111" rx="1.77778" stroke="white" stroke-width="0.711111"/>
<rect x="3.44444" y="1.94444" width="13.1111" height="18.1111" rx="0.977778" fill="white"/>
<rect x="3.44444" y="1.94444" width="13.1111" height="18.1111" rx="0.977778" stroke="black" stroke-width="0.888889"/>
<path d="M10.0727 10.436H14.7407C14.7407 10.916 14.7207 11.352 14.6807 11.744C14.6407 12.136 14.5607 12.5 14.4407 12.836C14.2727 13.308 14.0447 13.728 13.7567 14.096C13.4687 14.456 13.1287 14.76 12.7367 15.008C12.3527 15.248 11.9287 15.432 11.4647 15.56C11.0007 15.688 10.5127 15.752 10.0007 15.752C9.2967 15.752 8.6527 15.636 8.0687 15.404C7.4927 15.172 6.9967 14.848 6.5807 14.432C6.1647 14.008 5.8407 13.504 5.6087 12.92C5.3767 12.328 5.2607 11.676 5.2607 10.964C5.2607 10.26 5.3727 9.616 5.5967 9.032C5.8287 8.44 6.1527 7.936 6.5687 7.52C6.9927 7.104 7.5007 6.78 8.0927 6.548C8.6847 6.316 9.3447 6.2 10.0727 6.2C11.0167 6.2 11.8447 6.404 12.5567 6.812C13.2687 7.22 13.8327 7.852 14.2487 8.708L12.0167 9.632C11.8087 9.136 11.5367 8.78 11.2007 8.564C10.8727 8.348 10.4967 8.24 10.0727 8.24C9.7207 8.24 9.4007 8.308 9.1127 8.444C8.8247 8.572 8.5767 8.76 8.3687 9.008C8.1687 9.248 8.0087 9.54 7.8887 9.884C7.7767 10.228 7.7207 10.612 7.7207 11.036C7.7207 11.42 7.7687 11.776 7.8647 12.104C7.9687 12.432 8.1207 12.716 8.3207 12.956C8.5207 13.196 8.7687 13.384 9.0647 13.52C9.3607 13.648 9.7047 13.712 10.0967 13.712C10.3287 13.712 10.5527 13.688 10.7687 13.64C10.9847 13.584 11.1767 13.5 11.3447 13.388C11.5207 13.268 11.6647 13.116 11.7767 12.932C11.8887 12.748 11.9647 12.524 12.0047 12.26H10.0727V10.436Z" fill="black"/>
</svg>
