<svg width="20" height="20" viewBox="0 0 20 20" fill="none" xmlns="http://www.w3.org/2000/svg">
<path d="M5.5575 3.5498C5.73117 3.54995 5.88931 3.65068 5.96375 3.80762L7.17078 6.35254L9.95007 6.72168C10.1217 6.74443 10.2655 6.86379 10.3192 7.02832C10.3729 7.19287 10.3271 7.37359 10.202 7.49316L8.16785 9.43555L8.67859 12.2129C8.70981 12.3833 8.64016 12.5565 8.49988 12.6582C8.35941 12.7599 8.17264 12.7724 8.02039 12.6895L5.55652 11.3438L3.09363 12.6895C2.9414 12.7723 2.75456 12.7598 2.61414 12.6582C2.47396 12.5565 2.40423 12.3833 2.43542 12.2129L2.94617 9.43555L0.911987 7.49316C0.78695 7.37359 0.741147 7.19282 0.7948 7.02832C0.848502 6.86376 0.992334 6.74444 1.16394 6.72168L3.94226 6.35254L5.15027 3.80762C5.22476 3.65057 5.38367 3.5498 5.5575 3.5498Z" stroke="#FCB912" stroke-width="0.900016" stroke-linejoin="round"/>
<path d="M14.4294 6.4082C14.6028 6.40831 14.761 6.50859 14.8357 6.66504L16.0466 9.20215L18.8357 9.57031C19.0075 9.59311 19.1513 9.7131 19.2048 9.87793C19.2583 10.0426 19.2121 10.2234 19.0867 10.3428L17.0457 12.2793L17.5583 15.0459C17.5897 15.2162 17.5207 15.3893 17.3806 15.4912C17.2403 15.5932 17.0536 15.6052 16.9011 15.5225L14.4285 14.1807L11.9568 15.5225C11.8044 15.6052 11.6186 15.5931 11.4783 15.4912C11.3381 15.3894 11.2682 15.2163 11.2996 15.0459L11.8113 12.2793L9.77222 10.3428C9.64656 10.2234 9.6005 10.0428 9.65405 9.87793C9.70765 9.71298 9.85124 9.59298 10.0232 9.57031L12.8123 9.20215L14.0232 6.66504L14.0544 6.6084C14.1371 6.48446 14.2777 6.4082 14.4294 6.4082Z" stroke="#FCB912" stroke-width="0.900016" stroke-linejoin="round"/>
</svg>
