<svg width="25" height="24" viewBox="0 0 25 24" fill="none" xmlns="http://www.w3.org/2000/svg">
<g clip-path="url(#clip0_144_6148)">
<path fill-rule="evenodd" clip-rule="evenodd" d="M11.3335 21.3348C11.3335 22.8078 10.1394 24.0019 8.66636 24.0019C7.19337 24.0019 5.99927 22.8078 5.99927 21.3348C5.99927 19.8618 7.19337 18.6677 8.66636 18.6677C10.1394 18.6677 11.3335 19.8618 11.3335 21.3348ZM22.0018 21.3348C22.0018 22.8078 20.8077 24.0019 19.3347 24.0019C17.8617 24.0019 16.6676 22.8078 16.6676 21.3348C16.6676 19.8618 17.8617 18.6677 19.3347 18.6677C20.8077 18.6677 22.0018 19.8618 22.0018 21.3348Z" fill="#8F8F94"/>
<path d="M1.99902 0.998108H2.47949C3.90971 0.998253 5.14138 2.00775 5.42188 3.41022L5.57812 4.1944L5.73926 4.99908H21.3311C22.8789 4.99924 23.9975 6.47835 23.5762 7.96783L22.2051 12.8165C21.8396 14.1084 20.66 15.001 19.3174 15.001H9.51953C8.08934 15.001 6.85784 13.9913 6.57715 12.5889L4.76758 3.54108C4.54945 2.45042 3.59172 1.66524 2.47949 1.6651H1.99902C1.81496 1.6651 1.66528 1.5161 1.66504 1.33209C1.66504 1.17082 1.77952 1.03595 1.93164 1.00494L1.99902 0.998108Z" stroke="#8F8F94" stroke-width="2" stroke-linecap="round"/>
</g>
<defs>
<clipPath id="clip0_144_6148">
<rect width="24" height="24" fill="white" transform="translate(0.666748)"/>
</clipPath>
</defs>
</svg>
