<svg width="25" height="24" viewBox="0 0 25 24" fill="none" xmlns="http://www.w3.org/2000/svg">
<g clip-path="url(#clip0_115_14278)">
<path fill-rule="evenodd" clip-rule="evenodd" d="M11.3341 21.3334C11.3341 22.8061 10.1402 24 8.6674 24C7.19464 24 6.00073 22.8061 6.00073 21.3334C6.00073 19.8606 7.19464 18.6667 8.6674 18.6667C10.1402 18.6667 11.3341 19.8606 11.3341 21.3334ZM22.0007 21.3334C22.0007 22.8061 20.8068 24 19.3341 24C17.8613 24 16.6674 22.8061 16.6674 21.3334C16.6674 19.8606 17.8613 18.6667 19.3341 18.6667C20.8068 18.6667 22.0007 19.8606 22.0007 21.3334Z" fill="#6865E7"/>
<path d="M2.00081 0C1.26443 0 0.66748 0.596954 0.66748 1.33333C0.66748 2.06971 1.26443 2.66667 2.00081 2.66667H2.48134C3.11691 2.66667 3.66413 3.11528 3.78878 3.73851L5.81234 13.8563C6.06163 15.1028 7.15607 16 8.42722 16H20.2749C21.5153 16 22.592 15.1447 22.8725 13.9363L24.6099 6.45226C24.9009 5.19836 23.9489 4 22.6617 4H6.56055L6.40366 3.21554C6.02972 1.34584 4.38806 0 2.48134 0H2.00081Z" fill="#6865E7"/>
</g>
<defs>
<clipPath id="clip0_115_14278">
<rect width="24" height="24" fill="white" transform="translate(0.666748)"/>
</clipPath>
</defs>
</svg>
