<svg width="25" height="24" viewBox="0 0 25 24" fill="none" xmlns="http://www.w3.org/2000/svg">
<g clip-path="url(#clip0_27_2085)">
<path fill-rule="evenodd" clip-rule="evenodd" d="M13.2934 0.565676C13.0829 0.509623 12.8587 0.53932 12.6701 0.648258C12.4815 0.757196 12.3437 0.936485 12.2871 1.14682L8.28764 16.0748C8.23165 16.2855 8.26158 16.5099 8.37087 16.6986C8.48015 16.8872 8.65985 17.0248 8.8705 17.0811L19.2985 19.8754C19.5092 19.9314 19.7336 19.9015 19.9222 19.7922C20.1109 19.6829 20.2485 19.5032 20.3048 19.2925L24.3076 4.36625C24.3356 4.26179 24.3427 4.15284 24.3286 4.04563C24.3144 3.93842 24.2793 3.83505 24.2252 3.74143C24.171 3.64782 24.099 3.56579 24.0131 3.50004C23.9273 3.43429 23.8293 3.38611 23.7248 3.35825L13.2934 0.565676ZM6.2185 15.5194L8.9545 5.31082L0.943644 7.45539C0.839153 7.48325 0.741178 7.53143 0.655321 7.59718C0.569464 7.66293 0.49741 7.74496 0.443278 7.83858C0.389145 7.93219 0.353997 8.03556 0.339843 8.14277C0.325688 8.24998 0.332805 8.35893 0.360787 8.46339L4.36364 23.3897C4.41993 23.6003 4.55751 23.78 4.74619 23.8893C4.93487 23.9986 5.1592 24.0285 5.36993 23.9725L15.7996 21.1782L15.8391 21.1662L8.31336 19.1502C7.55401 18.9465 6.90661 18.4497 6.51347 17.7688C6.12032 17.088 6.01361 16.2789 6.21679 15.5194" fill="#6865E7"/>
</g>
<defs>
<clipPath id="clip0_27_2085">
<rect width="24" height="24" fill="white" transform="translate(0.333252)"/>
</clipPath>
</defs>
</svg>
