<svg width="25" height="24" viewBox="0 0 25 24" fill="none" xmlns="http://www.w3.org/2000/svg">
<g clip-path="url(#clip0_248_3247)">
<path d="M11.555 1.469C11.6113 1.26096 11.7477 1.0837 11.9344 0.976052C12.1211 0.868406 12.3428 0.839157 12.551 0.894714L22.871 3.65814C23.0797 3.71364 23.2578 3.84974 23.3661 4.03652C23.4745 4.2233 23.5042 4.44546 23.4488 4.65414L19.4888 19.4279C19.4325 19.6363 19.2959 19.8138 19.1088 19.9215C18.9217 20.0292 18.6995 20.0582 18.491 20.0021L8.17104 17.2387C7.96268 17.1828 7.78501 17.0466 7.67702 16.8599C7.56903 16.6731 7.53954 16.4512 7.59504 16.2427L11.555 1.469Z" stroke="#8F8F94" stroke-width="2" stroke-linecap="round" stroke-linejoin="round"/>
<path d="M10.8042 4.3457L1.7939 6.76113C1.58555 6.81699 1.40787 6.95325 1.29988 7.13999C1.19189 7.32672 1.16241 7.54868 1.2179 7.75713L5.17447 22.5308C5.23069 22.7393 5.36736 22.9168 5.55445 23.0245C5.74154 23.1322 5.96373 23.1612 6.17219 23.1051L11.3322 21.7234" stroke="#8F8F94" stroke-width="2" stroke-linecap="round" stroke-linejoin="round"/>
</g>
<defs>
<clipPath id="clip0_248_3247">
<rect width="24" height="24" fill="white" transform="translate(0.333313)"/>
</clipPath>
</defs>
</svg>
