<svg width="22" height="20" viewBox="0 0 22 20" fill="none" xmlns="http://www.w3.org/2000/svg">
<mask id="path-1-outside-1_76_3517" maskUnits="userSpaceOnUse" x="0.555664" y="3" width="22" height="13" fill="black">
<rect fill="white" x="0.555664" y="3" width="22" height="13"/>
<path d="M3.62127 15H1.99059L5.65465 4.81818H7.42951L11.0936 15H9.46289L6.58434 6.66761H6.50479L3.62127 15ZM3.89471 11.0128H9.18448V12.3054H3.89471V11.0128ZM12.5639 15V4.81818H16.1932C16.982 4.81818 17.6366 4.95407 18.157 5.22585C18.6806 5.49763 19.0717 5.87382 19.3303 6.3544C19.5888 6.83168 19.718 7.38352 19.718 8.00994C19.718 8.63305 19.5871 9.18158 19.3253 9.65554C19.0668 10.1262 18.6757 10.4924 18.152 10.7543C17.6316 11.0161 16.977 11.147 16.1882 11.147H13.4389V9.82457H16.049C16.5462 9.82457 16.9505 9.75331 17.2621 9.6108C17.5769 9.46828 17.8073 9.26113 17.9531 8.98935C18.099 8.71757 18.1719 8.3911 18.1719 8.00994C18.1719 7.62547 18.0973 7.29238 17.9482 7.01065C17.8023 6.72893 17.572 6.51349 17.2571 6.36435C16.9455 6.21188 16.5362 6.13565 16.0291 6.13565H14.1001V15H12.5639ZM17.5902 10.4062L20.1058 15H18.3558L15.8899 10.4062H17.5902Z"/>
</mask>
<path d="M3.62127 15H1.99059L5.65465 4.81818H7.42951L11.0936 15H9.46289L6.58434 6.66761H6.50479L3.62127 15ZM3.89471 11.0128H9.18448V12.3054H3.89471V11.0128ZM12.5639 15V4.81818H16.1932C16.982 4.81818 17.6366 4.95407 18.157 5.22585C18.6806 5.49763 19.0717 5.87382 19.3303 6.3544C19.5888 6.83168 19.718 7.38352 19.718 8.00994C19.718 8.63305 19.5871 9.18158 19.3253 9.65554C19.0668 10.1262 18.6757 10.4924 18.152 10.7543C17.6316 11.0161 16.977 11.147 16.1882 11.147H13.4389V9.82457H16.049C16.5462 9.82457 16.9505 9.75331 17.2621 9.6108C17.5769 9.46828 17.8073 9.26113 17.9531 8.98935C18.099 8.71757 18.1719 8.3911 18.1719 8.00994C18.1719 7.62547 18.0973 7.29238 17.9482 7.01065C17.8023 6.72893 17.572 6.51349 17.2571 6.36435C16.9455 6.21188 16.5362 6.13565 16.0291 6.13565H14.1001V15H12.5639ZM17.5902 10.4062L20.1058 15H18.3558L15.8899 10.4062H17.5902Z" fill="black"/>
<path d="M3.62127 15V16H4.3334L4.56628 15.327L3.62127 15ZM1.99059 15L1.04966 14.6614L0.567946 16H1.99059V15ZM5.65465 4.81818V3.81818H4.95174L4.71372 4.47958L5.65465 4.81818ZM7.42951 4.81818L8.37044 4.47958L8.13243 3.81818H7.42951V4.81818ZM11.0936 15V16H12.5162L12.0345 14.6614L11.0936 15ZM9.46289 15L8.5177 15.3265L8.75036 16H9.46289V15ZM6.58434 6.66761L7.52953 6.34108L7.29687 5.66761H6.58434V6.66761ZM6.50479 6.66761V5.66761H5.79267L5.55978 6.34058L6.50479 6.66761ZM3.89471 11.0128V10.0128H2.89471V11.0128H3.89471ZM9.18448 11.0128H10.1845V10.0128H9.18448V11.0128ZM9.18448 12.3054V13.3054H10.1845V12.3054H9.18448ZM3.89471 12.3054H2.89471V13.3054H3.89471V12.3054ZM3.62127 15V14H1.99059V15V16H3.62127V15ZM1.99059 15L2.93152 15.3386L6.59558 5.15679L5.65465 4.81818L4.71372 4.47958L1.04966 14.6614L1.99059 15ZM5.65465 4.81818V5.81818H7.42951V4.81818V3.81818H5.65465V4.81818ZM7.42951 4.81818L6.48858 5.15679L10.1526 15.3386L11.0936 15L12.0345 14.6614L8.37044 4.47958L7.42951 4.81818ZM11.0936 15V14H9.46289V15V16H11.0936V15ZM9.46289 15L10.4081 14.6735L7.52953 6.34108L6.58434 6.66761L5.63915 6.99414L8.5177 15.3265L9.46289 15ZM6.58434 6.66761V5.66761H6.50479V6.66761V7.66761H6.58434V6.66761ZM6.50479 6.66761L5.55978 6.34058L2.67626 14.673L3.62127 15L4.56628 15.327L7.44981 6.99465L6.50479 6.66761ZM3.89471 11.0128V12.0128H9.18448V11.0128V10.0128H3.89471V11.0128ZM9.18448 11.0128H8.18448V12.3054H9.18448H10.1845V11.0128H9.18448ZM9.18448 12.3054V11.3054H3.89471V12.3054V13.3054H9.18448V12.3054ZM3.89471 12.3054H4.89471V11.0128H3.89471H2.89471V12.3054H3.89471ZM12.5639 15H11.5639V16H12.5639V15ZM12.5639 4.81818V3.81818H11.5639V4.81818H12.5639ZM18.157 5.22585L17.694 6.11224L17.6963 6.11344L18.157 5.22585ZM19.3303 6.3544L18.4496 6.82814L18.451 6.83069L19.3303 6.3544ZM19.3253 9.65554L18.45 9.17198L18.4488 9.17409L19.3253 9.65554ZM18.152 10.7543L17.7048 9.85983L17.7025 9.86097L18.152 10.7543ZM13.4389 11.147H12.4389V12.147H13.4389V11.147ZM13.4389 9.82457V8.82457H12.4389V9.82457H13.4389ZM17.2621 9.6108L16.8497 8.69977L16.8461 8.70143L17.2621 9.6108ZM17.9482 7.01065L17.06 7.47038L17.0644 7.47854L17.9482 7.01065ZM17.2571 6.36435L16.8175 7.26264L16.829 7.26809L17.2571 6.36435ZM14.1001 6.13565V5.13565H13.1001V6.13565H14.1001ZM14.1001 15V16H15.1001V15H14.1001ZM17.5902 10.4062L18.4673 9.92594L18.1827 9.40625H17.5902V10.4062ZM20.1058 15V16H21.7936L20.9829 14.5197L20.1058 15ZM18.3558 15L17.4747 15.473L17.7577 16H18.3558V15ZM15.8899 10.4062V9.40625H14.2182L15.0088 10.8792L15.8899 10.4062ZM12.5639 15H13.5639V4.81818H12.5639H11.5639V15H12.5639ZM12.5639 4.81818V5.81818H16.1932V4.81818V3.81818H12.5639V4.81818ZM16.1932 4.81818V5.81818C16.8738 5.81818 17.3571 5.93628 17.694 6.11224L18.157 5.22585L18.6199 4.33947C17.9161 3.97187 17.0902 3.81818 16.1932 3.81818V4.81818ZM18.157 5.22585L17.6963 6.11344C18.0568 6.3005 18.2941 6.53908 18.4496 6.82814L19.3303 6.3544L20.2109 5.88067C19.8494 5.20855 19.3045 4.69476 18.6176 4.33827L18.157 5.22585ZM19.3303 6.3544L18.451 6.83069C18.6188 7.14057 18.718 7.52403 18.718 8.00994H19.718H20.718C20.718 7.24301 20.5587 6.52278 20.2095 5.87812L19.3303 6.3544ZM19.718 8.00994H18.718C18.718 8.48967 18.6184 8.86708 18.45 9.17198L19.3253 9.65554L20.2006 10.1391C20.5558 9.49608 20.718 8.77643 20.718 8.00994H19.718ZM19.3253 9.65554L18.4488 9.17409C18.297 9.45052 18.0639 9.68025 17.7048 9.85983L18.152 10.7543L18.5992 11.6487C19.2874 11.3046 19.8366 10.8018 20.2018 10.137L19.3253 9.65554ZM18.152 10.7543L17.7025 9.86097C17.362 10.0323 16.8735 10.147 16.1882 10.147V11.147V12.147C17.0805 12.147 17.9013 11.9999 18.6015 11.6475L18.152 10.7543ZM16.1882 11.147V10.147H13.4389V11.147V12.147H16.1882V11.147ZM13.4389 11.147H14.4389V9.82457H13.4389H12.4389V11.147H13.4389ZM13.4389 9.82457V10.8246H16.049V9.82457V8.82457H13.4389V9.82457ZM16.049 9.82457V10.8246C16.63 10.8246 17.1908 10.7431 17.6781 10.5202L17.2621 9.6108L16.8461 8.70143C16.7102 8.76357 16.4623 8.82457 16.049 8.82457V9.82457ZM17.2621 9.6108L17.6744 10.5218C18.1641 10.3002 18.5721 9.95076 18.8343 9.46216L17.9531 8.98935L17.072 8.51653C17.0425 8.5715 16.9898 8.63636 16.8497 8.69977L17.2621 9.6108ZM17.9531 8.98935L18.8343 9.46216C19.0744 9.01459 19.1719 8.51775 19.1719 8.00994H18.1719H17.1719C17.1719 8.26445 17.1235 8.42054 17.072 8.51653L17.9531 8.98935ZM18.1719 8.00994H19.1719C19.1719 7.49573 19.0716 6.99549 18.8319 6.54277L17.9482 7.01065L17.0644 7.47854C17.123 7.58926 17.1719 7.75522 17.1719 8.00994H18.1719ZM17.9482 7.01065L18.8362 6.55095C18.5798 6.05558 18.1773 5.6937 17.6852 5.46061L17.2571 6.36435L16.829 7.26809C16.9667 7.33328 17.0248 7.40227 17.0601 7.47036L17.9482 7.01065ZM17.2571 6.36435L17.6967 5.46613C17.1999 5.22303 16.6236 5.13565 16.0291 5.13565V6.13565V7.13565C16.4488 7.13565 16.6912 7.20074 16.8175 7.26256L17.2571 6.36435ZM16.0291 6.13565V5.13565H14.1001V6.13565V7.13565H16.0291V6.13565ZM14.1001 6.13565H13.1001V15H14.1001H15.1001V6.13565H14.1001ZM14.1001 15V14H12.5639V15V16H14.1001V15ZM17.5902 10.4062L16.7131 10.8866L19.2287 15.4803L20.1058 15L20.9829 14.5197L18.4673 9.92594L17.5902 10.4062ZM20.1058 15V14H18.3558V15V16H20.1058V15ZM18.3558 15L19.2369 14.527L16.771 9.93329L15.8899 10.4062L15.0088 10.8792L17.4747 15.473L18.3558 15ZM15.8899 10.4062V11.4062H17.5902V10.4062V9.40625H15.8899V10.4062Z" fill="white" mask="url(#path-1-outside-1_76_3517)"/>
</svg>
