<svg width="20" height="21" viewBox="0 0 20 21" fill="none" xmlns="http://www.w3.org/2000/svg">
<mask id="path-1-outside-1_76_3497" maskUnits="userSpaceOnUse" x="1.33325" y="0.476562" width="18" height="20" fill="black">
<rect fill="white" x="1.33325" y="0.476562" width="18" height="20"/>
<path d="M16.7913 7.67969H14.3538C14.26 7.15885 14.0855 6.70052 13.8303 6.30469C13.5751 5.90885 13.2626 5.57292 12.8928 5.29687C12.523 5.02083 12.109 4.8125 11.6506 4.67187C11.1975 4.53125 10.7157 4.46094 10.2053 4.46094C9.28345 4.46094 8.45793 4.69271 7.72876 5.15625C7.0048 5.61979 6.43188 6.29948 6.01001 7.19531C5.59334 8.09115 5.38501 9.1849 5.38501 10.4766C5.38501 11.7786 5.59334 12.8776 6.01001 13.7734C6.43188 14.6693 7.00741 15.3464 7.73657 15.8047C8.46574 16.263 9.28605 16.4922 10.1975 16.4922C10.7027 16.4922 11.1819 16.4245 11.635 16.2891C12.0933 16.1484 12.5074 15.9427 12.8772 15.6719C13.247 15.401 13.5595 15.0703 13.8147 14.6797C14.0751 14.2839 14.2548 13.8307 14.3538 13.3203L16.7913 13.3281C16.6611 14.1146 16.4084 14.8385 16.0334 15.5C15.6637 16.1562 15.1871 16.724 14.6038 17.2031C14.0256 17.6771 13.3642 18.0443 12.6194 18.3047C11.8746 18.5651 11.0621 18.6953 10.1819 18.6953C8.79647 18.6953 7.56209 18.3672 6.47876 17.7109C5.39543 17.0495 4.54126 16.1042 3.91626 14.875C3.29647 13.6458 2.98657 12.1797 2.98657 10.4766C2.98657 8.76823 3.29907 7.30208 3.92407 6.07812C4.54907 4.84896 5.40324 3.90625 6.48657 3.25C7.56991 2.58854 8.80168 2.25781 10.1819 2.25781C11.0308 2.25781 11.8225 2.38021 12.5569 2.625C13.2965 2.86458 13.9605 3.21875 14.5491 3.6875C15.1376 4.15104 15.6246 4.71875 16.01 5.39062C16.3954 6.05729 16.6558 6.82031 16.7913 7.67969Z"/>
</mask>
<path d="M16.7913 7.67969H14.3538C14.26 7.15885 14.0855 6.70052 13.8303 6.30469C13.5751 5.90885 13.2626 5.57292 12.8928 5.29687C12.523 5.02083 12.109 4.8125 11.6506 4.67187C11.1975 4.53125 10.7157 4.46094 10.2053 4.46094C9.28345 4.46094 8.45793 4.69271 7.72876 5.15625C7.0048 5.61979 6.43188 6.29948 6.01001 7.19531C5.59334 8.09115 5.38501 9.1849 5.38501 10.4766C5.38501 11.7786 5.59334 12.8776 6.01001 13.7734C6.43188 14.6693 7.00741 15.3464 7.73657 15.8047C8.46574 16.263 9.28605 16.4922 10.1975 16.4922C10.7027 16.4922 11.1819 16.4245 11.635 16.2891C12.0933 16.1484 12.5074 15.9427 12.8772 15.6719C13.247 15.401 13.5595 15.0703 13.8147 14.6797C14.0751 14.2839 14.2548 13.8307 14.3538 13.3203L16.7913 13.3281C16.6611 14.1146 16.4084 14.8385 16.0334 15.5C15.6637 16.1562 15.1871 16.724 14.6038 17.2031C14.0256 17.6771 13.3642 18.0443 12.6194 18.3047C11.8746 18.5651 11.0621 18.6953 10.1819 18.6953C8.79647 18.6953 7.56209 18.3672 6.47876 17.7109C5.39543 17.0495 4.54126 16.1042 3.91626 14.875C3.29647 13.6458 2.98657 12.1797 2.98657 10.4766C2.98657 8.76823 3.29907 7.30208 3.92407 6.07812C4.54907 4.84896 5.40324 3.90625 6.48657 3.25C7.56991 2.58854 8.80168 2.25781 10.1819 2.25781C11.0308 2.25781 11.8225 2.38021 12.5569 2.625C13.2965 2.86458 13.9605 3.21875 14.5491 3.6875C15.1376 4.15104 15.6246 4.71875 16.01 5.39062C16.3954 6.05729 16.6558 6.82031 16.7913 7.67969Z" fill="black"/>
<path d="M16.7913 7.67969V9.10826H18.4626L18.2024 7.45732L16.7913 7.67969ZM14.3538 7.67969L12.9478 7.93276L13.1594 9.10826H14.3538V7.67969ZM12.8928 5.29687L13.7474 4.15209L13.7474 4.15208L12.8928 5.29687ZM11.6506 4.67187L11.2272 6.03626L11.2316 6.03761L11.6506 4.67187ZM7.72876 5.15625L6.96235 3.95066L6.95844 3.95316L7.72876 5.15625ZM6.01001 7.19531L4.71757 6.58666L4.71469 6.59284L6.01001 7.19531ZM6.01001 13.7734L4.71468 14.3759L4.71758 14.3821L6.01001 13.7734ZM7.73657 15.8047L6.97633 17.0142L6.97633 17.0142L7.73657 15.8047ZM11.635 16.2891L12.0441 17.6579L12.054 17.6548L11.635 16.2891ZM12.8772 15.6719L12.0331 14.5194L12.8772 15.6719ZM13.8147 14.6797L12.6212 13.8945L12.6187 13.8983L13.8147 14.6797ZM14.3538 13.3203L14.3583 11.8917L13.1763 11.888L12.9513 13.0484L14.3538 13.3203ZM16.7913 13.3281L18.2006 13.5615L18.4749 11.9049L16.7958 11.8996L16.7913 13.3281ZM16.0334 15.5L14.7907 14.7954L14.7889 14.7987L16.0334 15.5ZM14.6038 17.2031L15.5095 18.3079L15.5105 18.307L14.6038 17.2031ZM12.6194 18.3047L13.0909 19.6532L12.6194 18.3047ZM6.47876 17.7109L5.7343 18.9302L5.73859 18.9328L6.47876 17.7109ZM3.91626 14.875L2.64067 15.5182L2.64285 15.5225L3.91626 14.875ZM3.92407 6.07812L5.19637 6.72781L5.19748 6.72562L3.92407 6.07812ZM6.48657 3.25L7.22675 4.47188L7.23103 4.46926L6.48657 3.25ZM12.5569 2.625L12.1051 3.98031L12.1166 3.98404L12.5569 2.625ZM14.5491 3.6875L13.6591 4.80497L13.6652 4.80978L14.5491 3.6875ZM16.01 5.39062L14.7708 6.10147L14.7732 6.10563L16.01 5.39062ZM16.7913 7.67969V6.25112H14.3538V7.67969V9.10826H16.7913V7.67969ZM14.3538 7.67969L15.7597 7.42661C15.6367 6.74315 15.4002 6.10329 15.031 5.53058L13.8303 6.30469L12.6297 7.07879C12.7708 7.29775 12.8833 7.57456 12.9478 7.93276L14.3538 7.67969ZM13.8303 6.30469L15.031 5.53058C14.6854 4.99454 14.2566 4.53218 13.7474 4.15209L12.8928 5.29687L12.0383 6.44166C12.2687 6.61365 12.4649 6.82316 12.6297 7.07879L13.8303 6.30469ZM12.8928 5.29687L13.7474 4.15208C13.2411 3.77415 12.6786 3.49297 12.0697 3.30614L11.6506 4.67187L11.2316 6.03761C11.5393 6.13203 11.805 6.26752 12.0383 6.44166L12.8928 5.29687ZM11.6506 4.67187L12.0741 3.3075C11.4738 3.12122 10.8484 3.03237 10.2053 3.03237V4.46094V5.88951C10.583 5.88951 10.9212 5.94128 11.2272 6.03625L11.6506 4.67187ZM10.2053 4.46094V3.03237C9.03098 3.03237 7.93613 3.33162 6.96235 3.95067L7.72876 5.15625L8.49517 6.36184C8.97972 6.0538 9.53592 5.88951 10.2053 5.88951V4.46094ZM7.72876 5.15625L6.95844 3.95316C5.9752 4.58272 5.23628 5.48524 4.71758 6.58667L6.01001 7.19531L7.30244 7.80396C7.62749 7.11372 8.0344 6.65687 8.49908 6.35934L7.72876 5.15625ZM6.01001 7.19531L4.71469 6.59284C4.18763 7.72602 3.95644 9.03804 3.95644 10.4766H5.38501H6.81358C6.81358 9.33175 6.99905 8.45627 7.30533 7.79778L6.01001 7.19531ZM5.38501 10.4766H3.95644C3.95644 11.9236 4.18702 13.2414 4.71469 14.3759L6.01001 13.7734L7.30533 13.171C6.99967 12.5138 6.81358 11.6337 6.81358 10.4766H5.38501ZM6.01001 13.7734L4.71758 14.3821C5.23795 15.4871 5.98294 16.3898 6.97633 17.0142L7.73657 15.8047L8.49682 14.5952C8.03187 14.303 7.62582 13.8515 7.30244 13.1648L6.01001 13.7734ZM7.73657 15.8047L6.97633 17.0142C7.94673 17.6241 9.03347 17.9208 10.1975 17.9208V16.4922V15.0636C9.53863 15.0636 8.98475 14.9019 8.49682 14.5952L7.73657 15.8047ZM10.1975 16.4922V17.9208C10.8318 17.9208 11.4495 17.8355 12.0441 17.6578L11.635 16.2891L11.226 14.9203C10.9143 15.0134 10.5736 15.0636 10.1975 15.0636V16.4922ZM11.635 16.2891L12.054 17.6548C12.6579 17.4695 13.2169 17.1938 13.7213 16.8244L12.8772 15.6719L12.0331 14.5194C11.7979 14.6916 11.5288 14.8274 11.216 14.9233L11.635 16.2891ZM12.8772 15.6719L13.7213 16.8244C14.2323 16.4502 14.6632 15.9929 15.0106 15.461L13.8147 14.6797L12.6187 13.8983C12.4558 14.1477 12.2617 14.3519 12.0331 14.5194L12.8772 15.6719ZM13.8147 14.6797L15.0082 15.4649C15.3806 14.8987 15.6252 14.2678 15.7562 13.5922L14.3538 13.3203L12.9513 13.0484C12.8844 13.3936 12.7696 13.669 12.6212 13.8945L13.8147 14.6797ZM14.3538 13.3203L14.3492 14.7489L16.7867 14.7567L16.7913 13.3281L16.7958 11.8996L14.3583 11.8917L14.3538 13.3203ZM16.7913 13.3281L15.3819 13.0948C15.2777 13.7237 15.0789 14.287 14.7907 14.7954L16.0334 15.5L17.2762 16.2046C17.738 15.3901 18.0444 14.5055 18.2006 13.5615L16.7913 13.3281ZM16.0334 15.5L14.7889 14.7987C14.506 15.3007 14.1441 15.732 13.697 16.0992L14.6038 17.2031L15.5105 18.307C16.2301 17.716 16.8213 17.0118 17.278 16.2013L16.0334 15.5ZM14.6038 17.2031L13.6981 16.0984C13.2563 16.4605 12.7436 16.7479 12.1479 16.9562L12.6194 18.3047L13.0909 19.6532C13.9847 19.3407 14.795 18.8937 15.5095 18.3079L14.6038 17.2031ZM12.6194 18.3047L12.1479 16.9562C11.5711 17.1578 10.92 17.2667 10.1819 17.2667V18.6953V20.1239C11.2042 20.1239 12.1781 19.9724 13.0909 19.6532L12.6194 18.3047ZM10.1819 18.6953V17.2667C9.03214 17.2667 8.05836 16.9976 7.21893 16.4891L6.47876 17.7109L5.73859 18.9328C7.06582 19.7368 8.56079 20.1239 10.1819 20.1239V18.6953ZM6.47876 17.7109L7.22321 16.4917C6.38517 15.98 5.70546 15.2419 5.18967 14.2275L3.91626 14.875L2.64285 15.5225C3.37706 16.9664 4.40569 18.119 5.73431 18.9302L6.47876 17.7109ZM3.91626 14.875L5.19184 14.2318C4.69369 13.2439 4.41514 12.0083 4.41514 10.4766H2.98657H1.558C1.558 12.3511 1.89925 14.0478 2.64068 15.5182L3.91626 14.875ZM2.98657 10.4766H4.41514C4.41514 8.94029 4.69604 7.7076 5.19637 6.72781L3.92407 6.07812L2.65178 5.42844C1.9021 6.89656 1.558 8.59617 1.558 10.4766H2.98657ZM3.92407 6.07812L5.19748 6.72562C5.71286 5.71204 6.39131 4.97795 7.22674 4.47187L6.48657 3.25L5.7464 2.02813C4.41517 2.83455 3.38528 3.98588 2.65067 5.43063L3.92407 6.07812ZM6.48657 3.25L7.23103 4.46926C8.07071 3.95657 9.04058 3.68638 10.1819 3.68638V2.25781V0.829241C8.56277 0.829241 7.0691 1.22051 5.74212 2.03074L6.48657 3.25ZM10.1819 2.25781V3.68638C10.8921 3.68638 11.5298 3.78849 12.1051 3.98026L12.5569 2.625L13.0086 1.26974C12.1152 0.971929 11.1696 0.829241 10.1819 0.829241V2.25781ZM12.5569 2.625L12.1166 3.98404C12.6985 4.17254 13.2092 4.44664 13.6591 4.80495L14.5491 3.6875L15.4391 2.57005C14.7119 1.99086 13.8944 1.55663 12.9971 1.26596L12.5569 2.625ZM14.5491 3.6875L13.6652 4.80978C14.1052 5.15633 14.4733 5.58272 14.7708 6.10146L16.01 5.39062L17.2492 4.67979C16.7759 3.85478 16.1701 3.14576 15.433 2.56522L14.5491 3.6875ZM16.01 5.39062L14.7732 6.10563C15.0601 6.60177 15.2685 7.19386 15.3801 7.90205L16.7913 7.67969L18.2024 7.45732C18.0432 6.44676 17.7308 5.51281 17.2468 4.67562L16.01 5.39062Z" fill="white" mask="url(#path-1-outside-1_76_3497)"/>
</svg>
