<svg width="20" height="21" viewBox="0 0 20 21" fill="none" xmlns="http://www.w3.org/2000/svg">
<mask id="path-1-outside-1_76_3508" maskUnits="userSpaceOnUse" x="2.88892" y="0.0839844" width="17" height="20" fill="black">
<rect fill="white" x="2.88892" y="0.0839844" width="17" height="20"/>
<path d="M5.05688 18.084V2.08398H10.76C11.9996 2.08398 13.0282 2.29753 13.8459 2.72461C14.6689 3.15169 15.2834 3.74284 15.6897 4.49805C16.0959 5.24805 16.2991 6.11523 16.2991 7.09961C16.2991 8.07878 16.0933 8.94075 15.6819 9.68555C15.2756 10.4251 14.6611 11.0007 13.8381 11.4121C13.0204 11.8236 11.9918 12.0293 10.7522 12.0293H6.43188V9.95117H10.5334C11.3147 9.95117 11.9501 9.83919 12.4397 9.61523C12.9345 9.39128 13.2965 9.06575 13.5256 8.63867C13.7548 8.21159 13.8694 7.69857 13.8694 7.09961C13.8694 6.49544 13.7522 5.972 13.5178 5.5293C13.2887 5.08659 12.9267 4.74805 12.4319 4.51367C11.9423 4.27409 11.2991 4.1543 10.5022 4.1543H7.47095V18.084H5.05688ZM12.9553 10.8652L16.9084 18.084H14.1584L10.2834 10.8652H12.9553Z"/>
</mask>
<path d="M5.05688 18.084V2.08398H10.76C11.9996 2.08398 13.0282 2.29753 13.8459 2.72461C14.6689 3.15169 15.2834 3.74284 15.6897 4.49805C16.0959 5.24805 16.2991 6.11523 16.2991 7.09961C16.2991 8.07878 16.0933 8.94075 15.6819 9.68555C15.2756 10.4251 14.6611 11.0007 13.8381 11.4121C13.0204 11.8236 11.9918 12.0293 10.7522 12.0293H6.43188V9.95117H10.5334C11.3147 9.95117 11.9501 9.83919 12.4397 9.61523C12.9345 9.39128 13.2965 9.06575 13.5256 8.63867C13.7548 8.21159 13.8694 7.69857 13.8694 7.09961C13.8694 6.49544 13.7522 5.972 13.5178 5.5293C13.2887 5.08659 12.9267 4.74805 12.4319 4.51367C11.9423 4.27409 11.2991 4.1543 10.5022 4.1543H7.47095V18.084H5.05688ZM12.9553 10.8652L16.9084 18.084H14.1584L10.2834 10.8652H12.9553Z" fill="black"/>
<path d="M5.05688 18.084H3.39022V19.7507H5.05688V18.084ZM5.05688 2.08398V0.417317H3.39022V2.08398H5.05688ZM13.8459 2.72461L13.0744 4.20192L13.0782 4.20392L13.8459 2.72461ZM15.6897 4.49805L14.2219 5.28761L14.2242 5.29185L15.6897 4.49805ZM15.6819 9.68555L14.223 8.87961L14.2211 8.88314L15.6819 9.68555ZM13.8381 11.4121L13.0928 9.92139L13.089 9.9233L13.8381 11.4121ZM6.43189 12.0293H4.76522V13.696H6.43189V12.0293ZM6.43189 9.95117V8.2845H4.76522V9.95117H6.43189ZM12.4397 9.61523L11.7524 8.09685L11.7464 8.09962L12.4397 9.61523ZM13.5178 5.5293L12.0377 6.29547L12.0412 6.30231L12.0448 6.30911L13.5178 5.5293ZM12.4319 4.51367L11.6993 6.0107L11.7088 6.01536L11.7184 6.0199L12.4319 4.51367ZM7.47095 4.1543V2.48763H5.80428V4.1543H7.47095ZM7.47095 18.084V19.7507H9.13761V18.084H7.47095ZM12.9553 10.8652L14.4171 10.0647L13.9428 9.19857H12.9553V10.8652ZM16.9084 18.084V19.7507H19.7214L18.3703 17.2835L16.9084 18.084ZM14.1584 18.084L12.69 18.8723L13.1615 19.7507H14.1584V18.084ZM10.2834 10.8652V9.19857H7.49717L8.81498 11.6535L10.2834 10.8652ZM5.05688 18.084H6.72355V2.08398H5.05688H3.39022V18.084H5.05688ZM5.05688 2.08398V3.75065H10.76V2.08398V0.417317H5.05688V2.08398ZM10.76 2.08398V3.75065C11.8192 3.75065 12.5624 3.93453 13.0744 4.20191L13.8459 2.72461L14.6175 1.2473C13.4941 0.660519 12.18 0.417317 10.76 0.417317V2.08398ZM13.8459 2.72461L13.0782 4.20392C13.6291 4.48981 13.9874 4.85161 14.2219 5.28761L15.6897 4.49805L17.1575 3.70848C16.5795 2.63407 15.7087 1.81357 14.6137 1.2453L13.8459 2.72461ZM15.6897 4.49805L14.2242 5.29185C14.4793 5.76287 14.6324 6.34941 14.6324 7.09961H16.2991H17.9657C17.9657 5.88105 17.7125 4.73322 17.1552 3.70424L15.6897 4.49805ZM16.2991 7.09961H14.6324C14.6324 7.8398 14.4788 8.41659 14.223 8.87961L15.6819 9.68555L17.1407 10.4915C17.7079 9.46492 17.9657 8.31775 17.9657 7.09961H16.2991ZM15.6819 9.68555L14.2211 8.88314C13.9926 9.29902 13.6415 9.64703 13.0928 9.9214L13.8381 11.4121L14.5835 12.9028C15.6806 12.3543 16.5586 11.5512 17.1427 10.488L15.6819 9.68555ZM13.8381 11.4121L13.089 9.9233C12.571 10.1839 11.8193 10.3626 10.7522 10.3626V12.0293V13.696C12.1643 13.696 13.4698 13.4632 14.5873 12.9009L13.8381 11.4121ZM10.7522 12.0293V10.3626H6.43189V12.0293V13.696H10.7522V12.0293ZM6.43189 12.0293H8.09855V9.95117H6.43189H4.76522V12.0293H6.43189ZM6.43189 9.95117V11.6178H10.5334V9.95117V8.2845H6.43189V9.95117ZM10.5334 9.95117V11.6178C11.4545 11.6178 12.3506 11.4888 13.133 11.1309L12.4397 9.61523L11.7464 8.09962C11.5496 8.18962 11.1749 8.2845 10.5334 8.2845V9.95117ZM12.4397 9.61523L13.127 11.1336C13.913 10.7778 14.5712 10.2151 14.9942 9.4267L13.5256 8.63867L12.057 7.85064C12.0218 7.91637 11.956 8.00475 11.7524 8.09686L12.4397 9.61523ZM13.5256 8.63867L14.9942 9.4267C15.3806 8.70663 15.5361 7.90965 15.5361 7.09961H13.8694H12.2027C12.2027 7.48749 12.129 7.71655 12.057 7.85064L13.5256 8.63867ZM13.8694 7.09961H15.5361C15.5361 6.2792 15.3761 5.4772 14.9908 4.74948L13.5178 5.5293L12.0448 6.30911C12.1283 6.46681 12.2027 6.71168 12.2027 7.09961H13.8694ZM13.5178 5.5293L14.9979 4.76312C14.5845 3.96435 13.9355 3.38173 13.1454 3.00744L12.4319 4.51367L11.7184 6.0199C11.9178 6.11436 11.9929 6.20883 12.0377 6.29547L13.5178 5.5293ZM12.4319 4.51367L13.1645 3.01664C12.3662 2.626 11.4447 2.48763 10.5022 2.48763V4.1543V5.82096C11.1535 5.82096 11.5184 5.92218 11.6993 6.0107L12.4319 4.51367ZM10.5022 4.1543V2.48763H7.47095V4.1543V5.82096H10.5022V4.1543ZM7.47095 4.1543H5.80428V18.084H7.47095H9.13761V4.1543H7.47095ZM7.47095 18.084V16.4173H5.05688V18.084V19.7507H7.47095V18.084ZM12.9553 10.8652L11.4935 11.6658L15.4466 18.8845L16.9084 18.084L18.3703 17.2835L14.4171 10.0647L12.9553 10.8652ZM16.9084 18.084V16.4173H14.1584V18.084V19.7507H16.9084V18.084ZM14.1584 18.084L15.6269 17.2957L11.7519 10.077L10.2834 10.8652L8.81498 11.6535L12.69 18.8723L14.1584 18.084ZM10.2834 10.8652V12.5319H12.9553V10.8652V9.19857H10.2834V10.8652Z" fill="white" mask="url(#path-1-outside-1_76_3508)"/>
</svg>
