<svg width="20" height="20" viewBox="0 0 20 20" fill="none" xmlns="http://www.w3.org/2000/svg">
<mask id="path-1-outside-1_76_3446" maskUnits="userSpaceOnUse" x="1.5" y="0" width="17" height="20" fill="black">
<rect fill="white" x="1.5" width="17" height="20"/>
<path d="M13.4053 6.20312C13.3219 5.46354 12.9782 4.89062 12.374 4.48437C11.7699 4.07292 11.0094 3.86719 10.0928 3.86719C9.43652 3.86719 8.86882 3.97135 8.38965 4.17969C7.91048 4.38281 7.53809 4.66406 7.27246 5.02344C7.01204 5.3776 6.88184 5.78125 6.88184 6.23438C6.88184 6.61458 6.97038 6.94271 7.14746 7.21875C7.32975 7.49479 7.56673 7.72656 7.8584 7.91406C8.15527 8.09635 8.47298 8.25 8.81152 8.375C9.15007 8.49479 9.47559 8.59375 9.78809 8.67187L11.3506 9.07812C11.861 9.20312 12.3844 9.3724 12.9209 9.58594C13.4574 9.79948 13.9548 10.0807 14.4131 10.4297C14.8714 10.7786 15.2412 11.2109 15.5225 11.7266C15.8089 12.2422 15.9521 12.8594 15.9521 13.5781C15.9521 14.4844 15.7178 15.2891 15.249 15.9922C14.7855 16.6953 14.111 17.25 13.2256 17.6562C12.3454 18.0625 11.2803 18.2656 10.0303 18.2656C8.83236 18.2656 7.7959 18.0755 6.9209 17.6953C6.0459 17.3151 5.361 16.776 4.86621 16.0781C4.37142 15.375 4.09798 14.5417 4.0459 13.5781H6.46777C6.51465 14.1562 6.70215 14.638 7.03027 15.0234C7.36361 15.4036 7.78809 15.6875 8.30371 15.875C8.82454 16.0573 9.39486 16.1484 10.0146 16.1484C10.6969 16.1484 11.3037 16.0417 11.835 15.8281C12.3714 15.6094 12.7933 15.3073 13.1006 14.9219C13.4079 14.5312 13.5615 14.0755 13.5615 13.5547C13.5615 13.0807 13.4261 12.6927 13.1553 12.3906C12.8896 12.0885 12.5277 11.8385 12.0693 11.6406C11.6162 11.4427 11.1032 11.2682 10.5303 11.1172L8.63965 10.6016C7.3584 10.2526 6.34277 9.73958 5.59277 9.0625C4.84798 8.38542 4.47559 7.48958 4.47559 6.375C4.47559 5.45312 4.72559 4.64844 5.22559 3.96094C5.72559 3.27344 6.40267 2.73958 7.25684 2.35938C8.111 1.97396 9.07454 1.78125 10.1475 1.78125C11.2308 1.78125 12.1865 1.97135 13.0146 2.35156C13.848 2.73177 14.5042 3.25521 14.9834 3.92187C15.4626 4.58333 15.7126 5.34375 15.7334 6.20312H13.4053Z"/>
</mask>
<path d="M13.4053 6.20312C13.3219 5.46354 12.9782 4.89062 12.374 4.48437C11.7699 4.07292 11.0094 3.86719 10.0928 3.86719C9.43652 3.86719 8.86882 3.97135 8.38965 4.17969C7.91048 4.38281 7.53809 4.66406 7.27246 5.02344C7.01204 5.3776 6.88184 5.78125 6.88184 6.23438C6.88184 6.61458 6.97038 6.94271 7.14746 7.21875C7.32975 7.49479 7.56673 7.72656 7.8584 7.91406C8.15527 8.09635 8.47298 8.25 8.81152 8.375C9.15007 8.49479 9.47559 8.59375 9.78809 8.67187L11.3506 9.07812C11.861 9.20312 12.3844 9.3724 12.9209 9.58594C13.4574 9.79948 13.9548 10.0807 14.4131 10.4297C14.8714 10.7786 15.2412 11.2109 15.5225 11.7266C15.8089 12.2422 15.9521 12.8594 15.9521 13.5781C15.9521 14.4844 15.7178 15.2891 15.249 15.9922C14.7855 16.6953 14.111 17.25 13.2256 17.6562C12.3454 18.0625 11.2803 18.2656 10.0303 18.2656C8.83236 18.2656 7.7959 18.0755 6.9209 17.6953C6.0459 17.3151 5.361 16.776 4.86621 16.0781C4.37142 15.375 4.09798 14.5417 4.0459 13.5781H6.46777C6.51465 14.1562 6.70215 14.638 7.03027 15.0234C7.36361 15.4036 7.78809 15.6875 8.30371 15.875C8.82454 16.0573 9.39486 16.1484 10.0146 16.1484C10.6969 16.1484 11.3037 16.0417 11.835 15.8281C12.3714 15.6094 12.7933 15.3073 13.1006 14.9219C13.4079 14.5312 13.5615 14.0755 13.5615 13.5547C13.5615 13.0807 13.4261 12.6927 13.1553 12.3906C12.8896 12.0885 12.5277 11.8385 12.0693 11.6406C11.6162 11.4427 11.1032 11.2682 10.5303 11.1172L8.63965 10.6016C7.3584 10.2526 6.34277 9.73958 5.59277 9.0625C4.84798 8.38542 4.47559 7.48958 4.47559 6.375C4.47559 5.45312 4.72559 4.64844 5.22559 3.96094C5.72559 3.27344 6.40267 2.73958 7.25684 2.35938C8.111 1.97396 9.07454 1.78125 10.1475 1.78125C11.2308 1.78125 12.1865 1.97135 13.0146 2.35156C13.848 2.73177 14.5042 3.25521 14.9834 3.92187C15.4626 4.58333 15.7126 5.34375 15.7334 6.20312H13.4053Z" fill="black"/>
<path d="M13.4053 6.20312L11.7491 6.38974L11.9159 7.86979H13.4053V6.20312ZM12.374 4.48437L11.4359 5.86195L11.444 5.86744L12.374 4.48437ZM8.38965 4.17969L9.04014 5.71417L9.04718 5.71119L9.05419 5.70814L8.38965 4.17969ZM7.27246 5.02344L5.93216 4.03278L5.92971 4.03612L7.27246 5.02344ZM7.14746 7.21875L5.74464 8.11867L5.7506 8.12797L5.75669 8.13719L7.14746 7.21875ZM7.8584 7.91406L6.95714 9.31603L6.97162 9.32534L6.98629 9.33435L7.8584 7.91406ZM8.81152 8.375L8.23423 9.93849L8.24487 9.94242L8.25556 9.9462L8.81152 8.375ZM9.78809 8.67188L10.2075 7.05884L10.1999 7.05687L10.1923 7.05497L9.78809 8.67188ZM11.3506 9.07812L10.9312 10.6912L10.9426 10.6941L10.9541 10.697L11.3506 9.07812ZM15.5225 11.7266L14.0593 12.5247L14.0655 12.536L15.5225 11.7266ZM15.249 15.9922L13.8623 15.0677L13.8575 15.0748L15.249 15.9922ZM13.2256 17.6562L12.5305 16.1414L12.5272 16.143L13.2256 17.6562ZM6.9209 17.6953L7.58511 16.1667L6.9209 17.6953ZM4.86621 16.0781L3.50319 17.0373L3.50657 17.0421L4.86621 16.0781ZM4.0459 13.5781V11.9115H2.28671L2.38166 13.6681L4.0459 13.5781ZM6.46777 13.5781L8.12899 13.4434L8.00477 11.9115H6.46777V13.5781ZM7.03027 15.0234L5.76122 16.1038L5.76907 16.1131L5.77704 16.1222L7.03027 15.0234ZM8.30371 15.875L7.73414 17.4413L7.74361 17.4448L7.75313 17.4481L8.30371 15.875ZM11.835 15.8281L12.4566 17.3746L12.4643 17.3714L11.835 15.8281ZM13.1006 14.9219L14.4038 15.9609L14.4105 15.9523L13.1006 14.9219ZM13.1553 12.3906L11.9037 13.4912L11.909 13.4972L11.9143 13.5032L13.1553 12.3906ZM12.0693 11.6406L11.4022 13.168L11.4086 13.1707L12.0693 11.6406ZM10.5303 11.1172L10.0917 12.7252L10.1054 12.7288L10.5303 11.1172ZM8.63965 10.6016L9.07818 8.99362L9.07762 8.99347L8.63965 10.6016ZM5.59277 9.0625L4.47165 10.2957L4.47594 10.2996L5.59277 9.0625ZM5.22559 3.96094L3.87769 2.98065L3.87769 2.98065L5.22559 3.96094ZM7.25684 2.35938L7.9346 3.88203L7.94232 3.87855L7.25684 2.35938ZM13.0146 2.35156L12.3192 3.86622L12.3228 3.86786L13.0146 2.35156ZM14.9834 3.92187L13.63 4.89461L13.6337 4.89963L14.9834 3.92187ZM15.7334 6.20312V7.86979H17.441L17.3996 6.16273L15.7334 6.20312ZM13.4053 6.20312L15.0615 6.01651C14.9248 4.80333 14.3244 3.78741 13.304 3.1013L12.374 4.48437L11.444 5.86744C11.632 5.99384 11.7191 6.12375 11.7491 6.38974L13.4053 6.20312ZM12.374 4.48437L13.3122 3.10683C12.3685 2.46412 11.2588 2.20052 10.0928 2.20052V3.86719V5.53385C10.7601 5.53385 11.1713 5.68172 11.4359 5.86192L12.374 4.48437ZM10.0928 3.86719V2.20052C9.26446 2.20052 8.46029 2.33159 7.72511 2.65124L8.38965 4.17969L9.05419 5.70814C9.27734 5.61111 9.60858 5.53385 10.0928 5.53385V3.86719ZM8.38965 4.17969L7.73916 2.6452C7.03129 2.94528 6.40232 3.3967 5.93217 4.03279L7.27246 5.02344L8.61275 6.01409C8.67386 5.93142 8.78968 5.82034 9.04014 5.71417L8.38965 4.17969ZM7.27246 5.02344L5.92971 4.03612C5.45203 4.68576 5.21517 5.43775 5.21517 6.23438H6.88184H8.5485C8.5485 6.12475 8.57205 6.06945 8.61521 6.01076L7.27246 5.02344ZM6.88184 6.23438H5.21517C5.21517 6.8817 5.36924 7.5335 5.74464 8.11867L7.14746 7.21875L8.55028 6.31883C8.55728 6.32973 8.55876 6.33663 8.55735 6.33142C8.5555 6.32455 8.5485 6.29496 8.5485 6.23438H6.88184ZM7.14746 7.21875L5.75669 8.13719C6.07288 8.61599 6.48003 9.00932 6.95714 9.31603L7.8584 7.91406L8.75966 6.5121C8.65343 6.44381 8.58663 6.37359 8.53824 6.30031L7.14746 7.21875ZM7.8584 7.91406L6.98629 9.33435C7.37978 9.57596 7.79664 9.77692 8.23423 9.93849L8.81152 8.375L9.38881 6.81151C9.14933 6.72308 8.93076 6.61674 8.7305 6.49378L7.8584 7.91406ZM8.81152 8.375L8.25556 9.9462C8.63836 10.0817 9.01466 10.1965 9.38386 10.2888L9.78809 8.67188L10.1923 7.05497C9.93651 6.99102 9.66177 6.90793 9.36749 6.8038L8.81152 8.375ZM9.78809 8.67188L9.3687 10.2849L10.9312 10.6912L11.3506 9.07812L11.77 7.46509L10.2075 7.05884L9.78809 8.67188ZM11.3506 9.07812L10.9541 10.697C11.3828 10.8019 11.8327 10.9466 12.3045 11.1344L12.9209 9.58594L13.5373 8.03744C12.9362 7.79815 12.3392 7.60432 11.747 7.4593L11.3506 9.07812ZM12.9209 9.58594L12.3045 11.1344C12.7007 11.2922 13.0658 11.4987 13.4035 11.7558L14.4131 10.4297L15.4227 9.10362C14.8437 8.6628 14.214 8.3068 13.5373 8.03744L12.9209 9.58594ZM14.4131 10.4297L13.4035 11.7558C13.6714 11.9598 13.8881 12.2108 14.0593 12.5246L15.5225 11.7266L16.9856 10.9285C16.5943 10.2111 16.0714 9.59753 15.4227 9.10362L14.4131 10.4297ZM15.5225 11.7266L14.0655 12.536C14.1874 12.7553 14.2855 13.0812 14.2855 13.5781H15.9521H17.6188C17.6188 12.6376 17.4304 11.7291 16.9794 10.9172L15.5225 11.7266ZM15.9521 13.5781H14.2855C14.2855 14.1803 14.1351 14.6584 13.8623 15.0677L15.249 15.9922L16.6358 16.9167C17.3004 15.9197 17.6188 14.7884 17.6188 13.5781H15.9521ZM15.249 15.9922L13.8575 15.0748C13.5912 15.4789 13.1778 15.8445 12.5305 16.1414L13.2256 17.6562L13.9206 19.1711C15.0442 18.6555 15.9798 17.9118 16.6405 16.9095L15.249 15.9922ZM13.2256 17.6562L12.5272 16.143C11.9196 16.4234 11.1062 16.599 10.0303 16.599V18.2656V19.9323C11.4543 19.9323 12.7711 19.7016 13.924 19.1695L13.2256 17.6562ZM10.0303 18.2656V16.599C9.0044 16.599 8.20426 16.4358 7.58511 16.1667L6.9209 17.6953L6.25669 19.2239C7.38753 19.7153 8.66031 19.9323 10.0303 19.9323V18.2656ZM6.9209 17.6953L7.58511 16.1667C6.95609 15.8934 6.52499 15.5361 6.22585 15.1142L4.86621 16.0781L3.50657 17.0421C4.19701 18.0159 5.1357 18.7368 6.25669 19.2239L6.9209 17.6953ZM4.86621 16.0781L6.22922 15.119C5.93578 14.702 5.74746 14.1788 5.71014 13.4882L4.0459 13.5781L2.38166 13.6681C2.4485 14.9046 2.80706 16.048 3.5032 17.0373L4.86621 16.0781ZM4.0459 13.5781V15.2448H6.46777V13.5781V11.9115H4.0459V13.5781ZM6.46777 13.5781L4.80656 13.7128C4.87742 14.5867 5.17431 15.4145 5.76122 16.1038L7.03027 15.0234L8.29933 13.943C8.22998 13.8616 8.15188 13.7258 8.12899 13.4434L6.46777 13.5781ZM7.03027 15.0234L5.77704 16.1222C6.31079 16.731 6.97794 17.1663 7.73414 17.4413L8.30371 15.875L8.87328 14.3087C8.59823 14.2087 8.41642 14.0763 8.2835 13.9247L7.03027 15.0234ZM8.30371 15.875L7.75313 17.4481C8.47129 17.6995 9.23024 17.8151 10.0146 17.8151V16.1484V14.4818C9.55947 14.4818 9.1778 14.4151 8.85429 14.3019L8.30371 15.875ZM10.0146 16.1484V17.8151C10.87 17.8151 11.6937 17.6812 12.4566 17.3745L11.835 15.8281L11.2134 14.2817C10.9137 14.4022 10.5239 14.4818 10.0146 14.4818V16.1484ZM11.835 15.8281L12.4643 17.3714C13.2183 17.064 13.8898 16.6055 14.4038 15.9609L13.1006 14.9219L11.7974 13.8829C11.6968 14.0091 11.5246 14.1548 11.2057 14.2848L11.835 15.8281ZM13.1006 14.9219L14.4105 15.9523C14.9605 15.2531 15.2282 14.43 15.2282 13.5547H13.5615H11.8949C11.8949 13.721 11.8552 13.8094 11.7907 13.8914L13.1006 14.9219ZM13.5615 13.5547H15.2282C15.2282 12.7434 14.9865 11.9364 14.3962 11.2781L13.1553 12.3906L11.9143 13.5032C11.9092 13.4975 11.9028 13.4891 11.8967 13.4788C11.8907 13.4686 11.8875 13.4607 11.8864 13.4574C11.8838 13.4501 11.8949 13.4765 11.8949 13.5547H13.5615ZM13.1553 12.3906L14.4069 11.2901C13.9441 10.7638 13.3615 10.3832 12.7301 10.1105L12.0693 11.6406L11.4086 13.1707C11.6939 13.2939 11.8352 13.4133 11.9037 13.4912L13.1553 12.3906ZM12.0693 11.6406L12.7364 10.1133C12.1913 9.87518 11.5952 9.67432 10.9552 9.50559L10.5303 11.1172L10.1054 12.7288C10.6112 12.8621 11.0411 13.0102 11.4022 13.168L12.0693 11.6406ZM10.5303 11.1172L10.9688 9.50925L9.07818 8.99362L8.63965 10.6016L8.20112 12.2095L10.0917 12.7251L10.5303 11.1172ZM8.63965 10.6016L9.07762 8.99347C7.97241 8.69246 7.21437 8.28107 6.70961 7.82539L5.59277 9.0625L4.47594 10.2996C5.47118 11.1981 6.74439 11.8128 8.20167 12.2097L8.63965 10.6016ZM5.59277 9.0625L6.71389 7.82927C6.35603 7.50393 6.14225 7.07613 6.14225 6.375H4.47559H2.80892C2.80892 7.90303 3.33994 9.2669 4.47165 10.2957L5.59277 9.0625ZM4.47559 6.375H6.14225C6.14225 5.77396 6.29839 5.31947 6.57348 4.94122L5.22559 3.96094L3.87769 2.98065C3.15278 3.97741 2.80892 5.13229 2.80892 6.375H4.47559ZM5.22559 3.96094L6.57348 4.94122C6.88472 4.51327 7.32012 4.15553 7.93459 3.88201L7.25684 2.35938L6.57908 0.836739C5.48522 1.32364 4.56645 2.0336 3.87769 2.98065L5.22559 3.96094ZM7.25684 2.35938L7.94232 3.87855C8.55193 3.60348 9.27675 3.44792 10.1475 3.44792V1.78125V0.114583C8.87234 0.114583 7.67007 0.344436 6.57135 0.8402L7.25684 2.35938ZM10.1475 1.78125V3.44792C11.0355 3.44792 11.7466 3.60329 12.3192 3.86622L13.0146 2.35156L13.7101 0.836906C12.6265 0.339414 11.4261 0.114583 10.1475 0.114583V1.78125ZM13.0146 2.35156L12.3228 3.86786C12.9233 4.14183 13.3393 4.49003 13.63 4.8946L14.9834 3.92187L16.3368 2.94915C15.6692 2.02038 14.7727 1.32171 13.7065 0.83526L13.0146 2.35156ZM14.9834 3.92187L13.6337 4.89963C13.9042 5.27309 14.0541 5.70271 14.0672 6.24352L15.7334 6.20312L17.3996 6.16273C17.371 4.98479 17.0209 3.89358 16.3331 2.94412L14.9834 3.92187ZM15.7334 6.20312V4.53646H13.4053V6.20312V7.86979H15.7334V6.20312Z" fill="white" mask="url(#path-1-outside-1_76_3446)"/>
</svg>
