<svg width="21" height="20" viewBox="0 0 21 20" fill="none" xmlns="http://www.w3.org/2000/svg">
<mask id="path-1-outside-1_76_3520" maskUnits="userSpaceOnUse" x="0.555664" y="3" width="20" height="14" fill="black">
<rect fill="white" x="0.555664" y="3" width="20" height="14"/>
<path d="M7.71094 7.4929C7.65791 7.02225 7.43916 6.65767 7.05469 6.39915C6.67022 6.13731 6.18632 6.00639 5.60298 6.00639C5.18537 6.00639 4.8241 6.07268 4.51918 6.20526C4.21425 6.33452 3.97727 6.51349 3.80824 6.74219C3.64252 6.96757 3.55966 7.22443 3.55966 7.51278C3.55966 7.75473 3.616 7.96354 3.72869 8.1392C3.8447 8.31487 3.9955 8.46236 4.18111 8.58168C4.37003 8.69768 4.57221 8.79545 4.78764 8.875C5.00308 8.95123 5.21023 9.0142 5.40909 9.06392L6.40341 9.32244C6.72822 9.40199 7.06132 9.50971 7.4027 9.6456C7.74408 9.78149 8.06061 9.96046 8.35227 10.1825C8.64394 10.4046 8.87926 10.6797 9.05824 11.0078C9.24053 11.3359 9.33168 11.7287 9.33168 12.1861C9.33168 12.7628 9.18253 13.2749 8.88423 13.7223C8.58925 14.1697 8.16004 14.5227 7.59659 14.7812C7.03646 15.0398 6.35866 15.169 5.56321 15.169C4.8009 15.169 4.14134 15.0481 3.58452 14.8061C3.0277 14.5642 2.59186 14.2211 2.27699 13.777C1.96212 13.3295 1.78812 12.7992 1.75497 12.1861H3.29616C3.32599 12.554 3.44531 12.8606 3.65412 13.1058C3.86624 13.3478 4.13636 13.5284 4.46449 13.6477C4.79593 13.7637 5.15885 13.8217 5.55327 13.8217C5.98745 13.8217 6.37358 13.7538 6.71165 13.6179C7.05303 13.4787 7.3215 13.2865 7.51705 13.0412C7.71259 12.7926 7.81037 12.5026 7.81037 12.1712C7.81037 11.8696 7.7242 11.6226 7.55185 11.4304C7.38281 11.2382 7.15246 11.0791 6.8608 10.9531C6.57244 10.8272 6.24598 10.7161 5.88139 10.62L4.67827 10.2919C3.86293 10.0698 3.21662 9.74337 2.73935 9.3125C2.26539 8.88163 2.02841 8.31155 2.02841 7.60227C2.02841 7.01562 2.1875 6.50355 2.50568 6.06605C2.82386 5.62855 3.25473 5.28883 3.7983 5.04688C4.34186 4.80161 4.95502 4.67898 5.63778 4.67898C6.32718 4.67898 6.93537 4.79995 7.46236 5.0419C7.99266 5.28385 8.41027 5.61695 8.7152 6.04119C9.02012 6.46212 9.17921 6.94602 9.19247 7.4929H7.71094ZM11.1674 15V4.81818H14.7967C15.5855 4.81818 16.2401 4.95407 16.7605 5.22585C17.2842 5.49763 17.6752 5.87382 17.9338 6.3544C18.1923 6.83168 18.3216 7.38352 18.3216 8.00994C18.3216 8.63305 18.1906 9.18158 17.9288 9.65554C17.6703 10.1262 17.2792 10.4924 16.7555 10.7543C16.2351 11.0161 15.5806 11.147 14.7917 11.147H12.0424V9.82457H14.6525C15.1497 9.82457 15.554 9.75331 15.8656 9.6108C16.1805 9.46828 16.4108 9.26113 16.5566 8.98935C16.7025 8.71757 16.7754 8.3911 16.7754 8.00994C16.7754 7.62547 16.7008 7.29238 16.5517 7.01065C16.4058 6.72893 16.1755 6.51349 15.8606 6.36435C15.5491 6.21188 15.1397 6.13565 14.6326 6.13565H12.7037V15H11.1674ZM16.1937 10.4062L18.7093 15H16.9593L14.4934 10.4062H16.1937Z"/>
</mask>
<path d="M7.71094 7.4929C7.65791 7.02225 7.43916 6.65767 7.05469 6.39915C6.67022 6.13731 6.18632 6.00639 5.60298 6.00639C5.18537 6.00639 4.8241 6.07268 4.51918 6.20526C4.21425 6.33452 3.97727 6.51349 3.80824 6.74219C3.64252 6.96757 3.55966 7.22443 3.55966 7.51278C3.55966 7.75473 3.616 7.96354 3.72869 8.1392C3.8447 8.31487 3.9955 8.46236 4.18111 8.58168C4.37003 8.69768 4.57221 8.79545 4.78764 8.875C5.00308 8.95123 5.21023 9.0142 5.40909 9.06392L6.40341 9.32244C6.72822 9.40199 7.06132 9.50971 7.4027 9.6456C7.74408 9.78149 8.06061 9.96046 8.35227 10.1825C8.64394 10.4046 8.87926 10.6797 9.05824 11.0078C9.24053 11.3359 9.33168 11.7287 9.33168 12.1861C9.33168 12.7628 9.18253 13.2749 8.88423 13.7223C8.58925 14.1697 8.16004 14.5227 7.59659 14.7812C7.03646 15.0398 6.35866 15.169 5.56321 15.169C4.8009 15.169 4.14134 15.0481 3.58452 14.8061C3.0277 14.5642 2.59186 14.2211 2.27699 13.777C1.96212 13.3295 1.78812 12.7992 1.75497 12.1861H3.29616C3.32599 12.554 3.44531 12.8606 3.65412 13.1058C3.86624 13.3478 4.13636 13.5284 4.46449 13.6477C4.79593 13.7637 5.15885 13.8217 5.55327 13.8217C5.98745 13.8217 6.37358 13.7538 6.71165 13.6179C7.05303 13.4787 7.3215 13.2865 7.51705 13.0412C7.71259 12.7926 7.81037 12.5026 7.81037 12.1712C7.81037 11.8696 7.7242 11.6226 7.55185 11.4304C7.38281 11.2382 7.15246 11.0791 6.8608 10.9531C6.57244 10.8272 6.24598 10.7161 5.88139 10.62L4.67827 10.2919C3.86293 10.0698 3.21662 9.74337 2.73935 9.3125C2.26539 8.88163 2.02841 8.31155 2.02841 7.60227C2.02841 7.01562 2.1875 6.50355 2.50568 6.06605C2.82386 5.62855 3.25473 5.28883 3.7983 5.04688C4.34186 4.80161 4.95502 4.67898 5.63778 4.67898C6.32718 4.67898 6.93537 4.79995 7.46236 5.0419C7.99266 5.28385 8.41027 5.61695 8.7152 6.04119C9.02012 6.46212 9.17921 6.94602 9.19247 7.4929H7.71094ZM11.1674 15V4.81818H14.7967C15.5855 4.81818 16.2401 4.95407 16.7605 5.22585C17.2842 5.49763 17.6752 5.87382 17.9338 6.3544C18.1923 6.83168 18.3216 7.38352 18.3216 8.00994C18.3216 8.63305 18.1906 9.18158 17.9288 9.65554C17.6703 10.1262 17.2792 10.4924 16.7555 10.7543C16.2351 11.0161 15.5806 11.147 14.7917 11.147H12.0424V9.82457H14.6525C15.1497 9.82457 15.554 9.75331 15.8656 9.6108C16.1805 9.46828 16.4108 9.26113 16.5566 8.98935C16.7025 8.71757 16.7754 8.3911 16.7754 8.00994C16.7754 7.62547 16.7008 7.29238 16.5517 7.01065C16.4058 6.72893 16.1755 6.51349 15.8606 6.36435C15.5491 6.21188 15.1397 6.13565 14.6326 6.13565H12.7037V15H11.1674ZM16.1937 10.4062L18.7093 15H16.9593L14.4934 10.4062H16.1937Z" fill="black"/>
<path d="M7.71094 7.4929L6.71723 7.60486L6.81729 8.4929H7.71094V7.4929ZM7.05469 6.39915L6.49178 7.22569L6.49669 7.22899L7.05469 6.39915ZM4.51918 6.20526L4.90949 7.12598L4.9179 7.12233L4.51918 6.20526ZM3.80824 6.74219L3.00406 6.1478L3.00259 6.1498L3.80824 6.74219ZM3.72869 8.1392L2.88692 8.67921L2.89423 8.69027L3.72869 8.1392ZM4.18111 8.58168L3.64035 9.42285L3.64904 9.42844L3.65785 9.43385L4.18111 8.58168ZM4.78764 8.875L4.44124 9.81318L4.45406 9.81772L4.78764 8.875ZM5.40909 9.06392L5.66074 8.09606L5.65163 8.09378L5.40909 9.06392ZM6.40341 9.32244L6.15178 10.2903L6.15865 10.2921L6.16554 10.2937L6.40341 9.32244ZM9.05824 11.0078L8.18032 11.4867L8.18408 11.4935L9.05824 11.0078ZM8.88423 13.7223L8.05217 13.1676L8.04934 13.1719L8.88423 13.7223ZM7.59659 14.7812L7.17957 13.8724L7.17753 13.8733L7.59659 14.7812ZM3.58452 14.8061L3.98304 13.889L3.58452 14.8061ZM2.27699 13.777L1.45918 14.3525L1.4612 14.3553L2.27699 13.777ZM1.75497 12.1861V11.1861H0.699458L0.756429 12.2401L1.75497 12.1861ZM3.29616 12.1861L4.29289 12.1053L4.21837 11.1861H3.29616V12.1861ZM3.65412 13.1058L2.89269 13.7541L2.89739 13.7596L2.90218 13.7651L3.65412 13.1058ZM4.46449 13.6477L4.12272 14.5876L4.13414 14.5916L4.46449 13.6477ZM6.71165 13.6179L7.08461 14.5458L7.08923 14.5439L6.71165 13.6179ZM7.51705 13.0412L8.29896 13.6646L8.303 13.6595L7.51705 13.0412ZM7.55185 11.4304L6.80084 12.0908L6.80728 12.0979L7.55185 11.4304ZM6.8608 10.9531L6.46053 11.8695L6.46436 11.8712L6.8608 10.9531ZM5.88139 10.62L5.61827 11.5848L5.62647 11.587L5.88139 10.62ZM4.67827 10.2919L4.94138 9.32714L4.94105 9.32705L4.67827 10.2919ZM2.73935 9.3125L2.06667 10.0524L2.06924 10.0548L2.73935 9.3125ZM2.50568 6.06605L1.69695 5.47788L1.69695 5.47788L2.50568 6.06605ZM3.7983 5.04688L4.20496 5.96047L4.20958 5.95838L3.7983 5.04688ZM7.46236 5.0419L7.04511 5.9507L7.04727 5.95168L7.46236 5.0419ZM8.7152 6.04119L7.90318 6.62483L7.90536 6.62785L8.7152 6.04119ZM9.19247 7.4929V8.4929H10.217L10.1922 7.46866L9.19247 7.4929ZM7.71094 7.4929L8.70465 7.38093C8.6196 6.62613 8.24687 5.99574 7.61269 5.5693L7.05469 6.39915L6.49669 7.22899C6.63144 7.3196 6.69621 7.41838 6.71723 7.60486L7.71094 7.4929ZM7.05469 6.39915L7.61758 5.57262C7.02938 5.17203 6.33595 5.00639 5.60298 5.00639V6.00639V7.00639C6.03668 7.00639 6.31106 7.10259 6.49179 7.22568L7.05469 6.39915ZM5.60298 6.00639V5.00639C5.08213 5.00639 4.57898 5.08882 4.12045 5.28818L4.51918 6.20526L4.9179 7.12233C5.06922 7.05654 5.2886 7.00639 5.60298 7.00639V6.00639ZM4.51918 6.20526L4.12888 5.28456C3.68674 5.472 3.29581 5.75308 3.00406 6.1478L3.80824 6.74219L4.61242 7.33658C4.65873 7.27391 4.74177 7.19704 4.90947 7.12595L4.51918 6.20526ZM3.80824 6.74219L3.00259 6.1498C2.70651 6.55246 2.55966 7.01833 2.55966 7.51278H3.55966H4.55966C4.55966 7.43053 4.57853 7.38267 4.61389 7.33458L3.80824 6.74219ZM3.55966 7.51278H2.55966C2.55966 7.915 2.65532 8.31801 2.887 8.67916L3.72869 8.1392L4.57039 7.59925C4.57039 7.59925 4.57039 7.59925 4.57039 7.59926C4.5704 7.59927 4.57041 7.59928 4.57041 7.59929C4.57043 7.59932 4.57044 7.59934 4.57044 7.59934C4.57044 7.59933 4.57042 7.5993 4.57038 7.59922C4.57034 7.59913 4.57027 7.59899 4.57017 7.59877C4.56986 7.59805 4.56877 7.59547 4.56739 7.59033C4.56466 7.58024 4.55966 7.55605 4.55966 7.51278H3.55966ZM3.72869 8.1392L2.89423 8.69027C3.09057 8.98759 3.34348 9.23201 3.64035 9.42285L4.18111 8.58168L4.72187 7.7405C4.64752 7.6927 4.59882 7.64215 4.56316 7.58814L3.72869 8.1392ZM4.18111 8.58168L3.65785 9.43385C3.90473 9.58545 4.1664 9.71161 4.44127 9.8131L4.78764 8.875L5.13402 7.9369C4.97801 7.8793 4.83532 7.80991 4.70437 7.7295L4.18111 8.58168ZM4.78764 8.875L4.45406 9.81772C4.69605 9.90335 4.93367 9.97584 5.16656 10.0341L5.40909 9.06392L5.65163 8.09378C5.48678 8.05257 5.3101 7.99911 5.12122 7.93228L4.78764 8.875ZM5.40909 9.06392L5.15746 10.0317L6.15178 10.2903L6.40341 9.32244L6.65504 8.35462L5.66073 8.0961L5.40909 9.06392ZM6.40341 9.32244L6.16554 10.2937C6.4413 10.3613 6.73029 10.4543 7.03286 10.5747L7.4027 9.6456L7.77253 8.7165C7.39234 8.56516 7.01514 8.4427 6.64128 8.35115L6.40341 9.32244ZM7.4027 9.6456L7.03286 10.5747C7.29011 10.6771 7.52723 10.8112 7.7465 10.9782L8.35227 10.1825L8.95804 9.38689C8.59398 9.10971 8.19806 8.88588 7.77253 8.7165L7.4027 9.6456ZM8.35227 10.1825L7.7465 10.9782C7.92394 11.1133 8.06741 11.2796 8.18034 11.4867L9.05824 11.0078L9.93613 10.529C9.69111 10.0798 9.36394 9.69592 8.95804 9.38689L8.35227 10.1825ZM9.05824 11.0078L8.18408 11.4935C8.26761 11.6438 8.33168 11.8618 8.33168 12.1861H9.33168H10.3317C10.3317 11.5956 10.2134 11.0281 9.9324 10.5222L9.05824 11.0078ZM9.33168 12.1861H8.33168C8.33168 12.5804 8.23293 12.8965 8.05218 13.1676L8.88423 13.7223L9.71628 14.277C10.1321 13.6532 10.3317 12.9452 10.3317 12.1861H9.33168ZM8.88423 13.7223L8.04934 13.1719C7.87267 13.4399 7.6001 13.6794 7.17957 13.8724L7.59659 14.7812L8.01361 15.6901C8.71997 15.3661 9.30584 14.8996 9.71913 14.2727L8.88423 13.7223ZM7.59659 14.7812L7.17753 13.8733C6.78101 14.0563 6.25425 14.169 5.56321 14.169V15.169V16.169C6.46308 16.169 7.29191 16.0232 8.01565 15.6892L7.59659 14.7812ZM5.56321 15.169V14.169C4.90413 14.169 4.38635 14.0642 3.98304 13.889L3.58452 14.8061L3.18599 15.7233C3.89632 16.0319 4.69767 16.169 5.56321 16.169V15.169ZM3.58452 14.8061L3.98304 13.889C3.57382 13.7111 3.29025 13.4772 3.09277 13.1986L2.27699 13.777L1.4612 14.3553C1.89346 14.9651 2.48158 15.4172 3.18599 15.7233L3.58452 14.8061ZM2.27699 13.777L3.09479 13.2015C2.90074 12.9257 2.77781 12.5815 2.75351 12.1321L1.75497 12.1861L0.756429 12.2401C0.798426 13.017 1.02351 13.7334 1.45918 14.3525L2.27699 13.777ZM1.75497 12.1861V13.1861H3.29616V12.1861V11.1861H1.75497V12.1861ZM3.29616 12.1861L2.29944 12.2669C2.34365 12.8123 2.52861 13.3264 2.89269 13.7541L3.65412 13.1058L4.41555 12.4576C4.36201 12.3947 4.30833 12.2957 4.29289 12.1053L3.29616 12.1861ZM3.65412 13.1058L2.90218 13.7651C3.23455 14.1442 3.65028 14.4157 4.12275 14.5875L4.46449 13.6477L4.80623 12.7079C4.62245 12.6411 4.49793 12.5514 4.40606 12.4466L3.65412 13.1058ZM4.46449 13.6477L4.13414 14.5916C4.58397 14.749 5.06009 14.8217 5.55327 14.8217V13.8217V12.8217C5.25762 12.8217 5.00788 12.7784 4.79484 12.7039L4.46449 13.6477ZM5.55327 13.8217V14.8217C6.09127 14.8217 6.60759 14.7375 7.08461 14.5457L6.71165 13.6179L6.33869 12.69C6.13957 12.7701 5.88364 12.8217 5.55327 12.8217V13.8217ZM6.71165 13.6179L7.08923 14.5439C7.56114 14.3514 7.97939 14.0654 8.29894 13.6646L7.51705 13.0412L6.73515 12.4178C6.6636 12.5075 6.54492 12.6059 6.33407 12.6919L6.71165 13.6179ZM7.51705 13.0412L8.303 13.6595C8.6442 13.2258 8.81037 12.7153 8.81037 12.1712H7.81037H6.81037C6.81037 12.2899 6.78099 12.3595 6.73109 12.4229L7.51705 13.0412ZM7.81037 12.1712H8.81037C8.81037 11.6672 8.66042 11.1689 8.29642 10.7629L7.55185 11.4304L6.80728 12.0979C6.80667 12.0973 6.80497 12.0952 6.80318 12.0921C6.80142 12.0891 6.80105 12.0877 6.80158 12.0893C6.80252 12.092 6.81037 12.1157 6.81037 12.1712H7.81037ZM7.55185 11.4304L8.30282 10.7701C8.01549 10.4433 7.65274 10.2059 7.25723 10.0351L6.8608 10.9531L6.46436 11.8712C6.65218 11.9523 6.75013 12.033 6.80088 12.0907L7.55185 11.4304ZM6.8608 10.9531L7.26106 10.0367C6.91749 9.88666 6.54117 9.7598 6.13632 9.65307L5.88139 10.62L5.62647 11.587C5.95078 11.6725 6.2274 11.7677 6.46053 11.8695L6.8608 10.9531ZM5.88139 10.62L6.14451 9.65526L4.94138 9.32714L4.67827 10.2919L4.41515 11.2567L5.61827 11.5848L5.88139 10.62ZM4.67827 10.2919L4.94105 9.32705C4.23133 9.13375 3.73958 8.86826 3.40945 8.57023L2.73935 9.3125L2.06924 10.0548C2.69366 10.6185 3.49452 11.0059 4.41548 11.2568L4.67827 10.2919ZM2.73935 9.3125L3.41202 8.57256C3.17022 8.35274 3.02841 8.06348 3.02841 7.60227H2.02841H1.02841C1.02841 8.55962 1.36056 9.41052 2.06667 10.0524L2.73935 9.3125ZM2.02841 7.60227H3.02841C3.02841 7.20812 3.13118 6.90617 3.31442 6.65422L2.50568 6.06605L1.69695 5.47788C1.24382 6.10093 1.02841 6.82312 1.02841 7.60227H2.02841ZM2.50568 6.06605L3.31442 6.65422C3.51934 6.37245 3.8052 6.13839 4.20495 5.96046L3.7983 5.04688L3.39164 4.13329C2.70427 4.43926 2.12838 4.88465 1.69695 5.47788L2.50568 6.06605ZM3.7983 5.04688L4.20958 5.95838C4.60641 5.77932 5.07634 5.67898 5.63778 5.67898V4.67898V3.67898C4.8337 3.67898 4.0773 3.8239 3.38701 4.13537L3.7983 5.04688ZM5.63778 4.67898V5.67898C6.21 5.67898 6.6714 5.77912 7.04511 5.9507L7.46236 5.0419L7.8796 4.13311C7.19934 3.82079 6.44436 3.67898 5.63778 3.67898V4.67898ZM7.46236 5.0419L7.04727 5.95168C7.43786 6.12989 7.71129 6.35785 7.90318 6.62483L8.7152 6.04119L9.52721 5.45756C9.10926 4.87606 8.54747 4.43782 7.87745 4.13212L7.46236 5.0419ZM8.7152 6.04119L7.90536 6.62785C8.08511 6.87597 8.18414 7.1614 8.19277 7.51713L9.19247 7.4929L10.1922 7.46866C10.1743 6.73065 9.95514 6.04827 9.52504 5.45454L8.7152 6.04119ZM9.19247 7.4929V6.4929H7.71094V7.4929V8.4929H9.19247V7.4929ZM11.1674 15H10.1674V16H11.1674V15ZM11.1674 4.81818V3.81818H10.1674V4.81818H11.1674ZM16.7605 5.22585L16.2975 6.11224L16.2998 6.11344L16.7605 5.22585ZM17.9338 6.3544L17.0531 6.82814L17.0545 6.83069L17.9338 6.3544ZM17.9288 9.65554L17.0535 9.17198L17.0523 9.17409L17.9288 9.65554ZM16.7555 10.7543L16.3083 9.85983L16.306 9.86097L16.7555 10.7543ZM12.0424 11.147H11.0424V12.147H12.0424V11.147ZM12.0424 9.82457V8.82457H11.0424V9.82457H12.0424ZM15.8656 9.6108L15.4532 8.69977L15.4496 8.70143L15.8656 9.6108ZM16.5517 7.01065L15.6636 7.47038L15.6679 7.47854L16.5517 7.01065ZM15.8606 6.36435L15.421 7.26264L15.4325 7.26809L15.8606 6.36435ZM12.7037 6.13565V5.13565H11.7037V6.13565H12.7037ZM12.7037 15V16H13.7037V15H12.7037ZM16.1937 10.4062L17.0708 9.92594L16.7862 9.40625H16.1937V10.4062ZM18.7093 15V16H20.3971L19.5864 14.5197L18.7093 15ZM16.9593 15L16.0783 15.473L16.3612 16H16.9593V15ZM14.4934 10.4062V9.40625H12.8217L13.6123 10.8792L14.4934 10.4062ZM11.1674 15H12.1674V4.81818H11.1674H10.1674V15H11.1674ZM11.1674 4.81818V5.81818H14.7967V4.81818V3.81818H11.1674V4.81818ZM14.7967 4.81818V5.81818C15.4773 5.81818 15.9606 5.93628 16.2975 6.11224L16.7605 5.22585L17.2234 4.33947C16.5196 3.97187 15.6937 3.81818 14.7967 3.81818V4.81818ZM16.7605 5.22585L16.2998 6.11344C16.6603 6.3005 16.8976 6.53908 17.0531 6.82814L17.9338 6.3544L18.8144 5.88067C18.4529 5.20855 17.908 4.69476 17.2211 4.33827L16.7605 5.22585ZM17.9338 6.3544L17.0545 6.83069C17.2223 7.14057 17.3216 7.52403 17.3216 8.00994H18.3216H19.3216C19.3216 7.24301 19.1623 6.52278 18.8131 5.87812L17.9338 6.3544ZM18.3216 8.00994H17.3216C17.3216 8.48967 17.2219 8.86708 17.0535 9.17198L17.9288 9.65554L18.8041 10.1391C19.1593 9.49608 19.3216 8.77643 19.3216 8.00994H18.3216ZM17.9288 9.65554L17.0523 9.17409C16.9005 9.45052 16.6675 9.68025 16.3083 9.85983L16.7555 10.7543L17.2027 11.6487C17.8909 11.3046 18.4401 10.8018 18.8053 10.137L17.9288 9.65554ZM16.7555 10.7543L16.306 9.86097C15.9655 10.0323 15.477 10.147 14.7917 10.147V11.147V12.147C15.6841 12.147 16.5048 11.9999 17.205 11.6475L16.7555 10.7543ZM14.7917 11.147V10.147H12.0424V11.147V12.147H14.7917V11.147ZM12.0424 11.147H13.0424V9.82457H12.0424H11.0424V11.147H12.0424ZM12.0424 9.82457V10.8246H14.6525V9.82457V8.82457H12.0424V9.82457ZM14.6525 9.82457V10.8246C15.2335 10.8246 15.7943 10.7431 16.2816 10.5202L15.8656 9.6108L15.4496 8.70143C15.3137 8.76357 15.0658 8.82457 14.6525 8.82457V9.82457ZM15.8656 9.6108L16.2779 10.5218C16.7676 10.3002 17.1756 9.95076 17.4378 9.46216L16.5566 8.98935L15.6755 8.51653C15.646 8.5715 15.5933 8.63636 15.4532 8.69977L15.8656 9.6108ZM16.5566 8.98935L17.4378 9.46216C17.678 9.01459 17.7754 8.51775 17.7754 8.00994H16.7754H15.7754C15.7754 8.26445 15.727 8.42054 15.6755 8.51653L16.5566 8.98935ZM16.7754 8.00994H17.7754C17.7754 7.49573 17.6751 6.99549 17.4355 6.54277L16.5517 7.01065L15.6679 7.47854C15.7265 7.58926 15.7754 7.75522 15.7754 8.00994H16.7754ZM16.5517 7.01065L17.4397 6.55095C17.1833 6.05558 16.7808 5.6937 16.2887 5.46061L15.8606 6.36435L15.4325 7.26809C15.5702 7.33328 15.6284 7.40227 15.6636 7.47036L16.5517 7.01065ZM15.8606 6.36435L16.3002 5.46613C15.8034 5.22303 15.2271 5.13565 14.6326 5.13565V6.13565V7.13565C15.0524 7.13565 15.2947 7.20074 15.4211 7.26256L15.8606 6.36435ZM14.6326 6.13565V5.13565H12.7037V6.13565V7.13565H14.6326V6.13565ZM12.7037 6.13565H11.7037V15H12.7037H13.7037V6.13565H12.7037ZM12.7037 15V14H11.1674V15V16H12.7037V15ZM16.1937 10.4062L15.3166 10.8866L17.8322 15.4803L18.7093 15L19.5864 14.5197L17.0708 9.92594L16.1937 10.4062ZM18.7093 15V14H16.9593V15V16H18.7093V15ZM16.9593 15L17.8404 14.527L15.3745 9.93329L14.4934 10.4062L13.6123 10.8792L16.0783 15.473L16.9593 15ZM14.4934 10.4062V11.4062H16.1937V10.4062V9.40625H14.4934V10.4062Z" fill="white" mask="url(#path-1-outside-1_76_3520)"/>
</svg>
