<svg width="20" height="20" viewBox="0 0 20 20" fill="none" xmlns="http://www.w3.org/2000/svg">
<mask id="path-1-outside-1_76_3500" maskUnits="userSpaceOnUse" x="1.33325" y="-0.523438" width="17" height="20" fill="black">
<rect fill="white" x="1.33325" y="-0.523438" width="17" height="20"/>
<path d="M13.7698 1.47656H16.1917V12C16.1917 13.1198 15.9286 14.112 15.4026 14.9766C14.8765 15.8359 14.137 16.513 13.1838 17.0078C12.2307 17.4974 11.1135 17.7422 9.83228 17.7422C8.55623 17.7422 7.44165 17.4974 6.48853 17.0078C5.5354 16.513 4.79582 15.8359 4.26978 14.9766C3.74373 14.112 3.48071 13.1198 3.48071 12V1.47656H5.89478V11.8047C5.89478 12.5286 6.05363 13.1719 6.37134 13.7344C6.69425 14.2969 7.14998 14.7396 7.73853 15.0625C8.32707 15.3802 9.02498 15.5391 9.83228 15.5391C10.6448 15.5391 11.3453 15.3802 11.9338 15.0625C12.5276 14.7396 12.9807 14.2969 13.2932 13.7344C13.6109 13.1719 13.7698 12.5286 13.7698 11.8047V1.47656Z"/>
</mask>
<path d="M13.7698 1.47656H16.1917V12C16.1917 13.1198 15.9286 14.112 15.4026 14.9766C14.8765 15.8359 14.137 16.513 13.1838 17.0078C12.2307 17.4974 11.1135 17.7422 9.83228 17.7422C8.55623 17.7422 7.44165 17.4974 6.48853 17.0078C5.5354 16.513 4.79582 15.8359 4.26978 14.9766C3.74373 14.112 3.48071 13.1198 3.48071 12V1.47656H5.89478V11.8047C5.89478 12.5286 6.05363 13.1719 6.37134 13.7344C6.69425 14.2969 7.14998 14.7396 7.73853 15.0625C8.32707 15.3802 9.02498 15.5391 9.83228 15.5391C10.6448 15.5391 11.3453 15.3802 11.9338 15.0625C12.5276 14.7396 12.9807 14.2969 13.2932 13.7344C13.6109 13.1719 13.7698 12.5286 13.7698 11.8047V1.47656Z" fill="black"/>
<path d="M13.7698 1.47656V0.0479907H12.3412V1.47656H13.7698ZM16.1917 1.47656H17.6202V0.0479907H16.1917V1.47656ZM15.4026 14.9766L16.621 15.7224L16.623 15.7191L15.4026 14.9766ZM13.1838 17.0078L13.8366 18.2786L13.842 18.2757L13.1838 17.0078ZM6.48853 17.0078L5.83032 18.2757L5.8358 18.2785L6.48853 17.0078ZM4.26978 14.9766L3.04935 15.7191L3.05135 15.7224L4.26978 14.9766ZM3.48071 1.47656V0.0479907H2.05214V1.47656H3.48071ZM5.89478 1.47656H7.32335V0.0479907H5.89478V1.47656ZM6.37134 13.7344L5.12743 14.437L5.13241 14.4456L6.37134 13.7344ZM7.73853 15.0625L7.05133 16.315L7.05991 16.3196L7.73853 15.0625ZM11.9338 15.0625L12.6125 16.3196L12.6164 16.3175L11.9338 15.0625ZM13.2932 13.7344L12.0493 13.0318L12.0444 13.0406L13.2932 13.7344ZM13.7698 1.47656V2.90513H16.1917V1.47656V0.0479907H13.7698V1.47656ZM16.1917 1.47656H14.7631V12H16.1917H17.6202V1.47656H16.1917ZM16.1917 12H14.7631C14.7631 12.8866 14.5579 13.6165 14.1822 14.234L15.4026 14.9766L16.623 15.7191C17.2994 14.6074 17.6202 13.353 17.6202 12H16.1917ZM15.4026 14.9766L14.1842 14.2307C13.8029 14.8536 13.2638 15.3567 12.5256 15.7399L13.1838 17.0078L13.842 18.2757C15.0101 17.6693 15.9502 16.8182 16.621 15.7224L15.4026 14.9766ZM13.1838 17.0078L12.5311 15.7371C11.8158 16.1045 10.9306 16.3136 9.83228 16.3136V17.7422V19.1708C11.2964 19.1708 12.6456 18.8903 13.8366 18.2785L13.1838 17.0078ZM9.83228 17.7422V16.3136C8.74019 16.3136 7.85732 16.1049 7.14125 15.7371L6.48853 17.0078L5.8358 18.2785C7.02598 18.8899 8.37228 19.1708 9.83228 19.1708V17.7422ZM6.48853 17.0078L7.14673 15.7399C6.40858 15.3567 5.86949 14.8536 5.4882 14.2307L4.26978 14.9766L3.05135 15.7224C3.72214 16.8182 4.66222 17.6693 5.83032 18.2757L6.48853 17.0078ZM4.26978 14.9766L5.4902 14.234C5.1145 13.6165 4.90928 12.8866 4.90928 12H3.48071H2.05214C2.05214 13.353 2.37297 14.6074 3.04935 15.7191L4.26978 14.9766ZM3.48071 12H4.90928V1.47656H3.48071H2.05214V12H3.48071ZM3.48071 1.47656V2.90513H5.89478V1.47656V0.0479907H3.48071V1.47656ZM5.89478 1.47656H4.4662V11.8047H5.89478H7.32335V1.47656H5.89478ZM5.89478 11.8047H4.4662C4.4662 12.7445 4.67461 13.6352 5.12746 14.4369L6.37134 13.7344L7.61521 13.0318C7.43265 12.7086 7.32335 12.3127 7.32335 11.8047H5.89478ZM6.37134 13.7344L5.13241 14.4456C5.59074 15.244 6.24111 15.8704 7.05135 16.3149L7.73853 15.0625L8.4257 13.8101C8.05886 13.6088 7.79777 13.3497 7.61027 13.0231L6.37134 13.7344ZM7.73853 15.0625L7.05991 16.3196C7.89599 16.7709 8.8368 16.9676 9.83228 16.9676V15.5391V14.1105C9.21317 14.1105 8.75815 13.9895 8.41714 13.8054L7.73853 15.0625ZM9.83228 15.5391V16.9676C10.8312 16.9676 11.7751 16.7716 12.6124 16.3196L11.9338 15.0625L11.2552 13.8054C10.9155 13.9888 10.4583 14.1105 9.83228 14.1105V15.5391ZM11.9338 15.0625L12.6164 16.3175C13.4357 15.8719 14.091 15.2399 14.542 14.4282L13.2932 13.7344L12.0444 13.0406C11.8704 13.3539 11.6195 13.6073 11.2513 13.8075L11.9338 15.0625ZM13.2932 13.7344L14.5371 14.4369C14.9899 13.6352 15.1983 12.7445 15.1983 11.8047H13.7698H12.3412C12.3412 12.3127 12.2319 12.7086 12.0493 13.0318L13.2932 13.7344ZM13.7698 11.8047H15.1983V1.47656H13.7698H12.3412V11.8047H13.7698Z" fill="white" mask="url(#path-1-outside-1_76_3500)"/>
</svg>
