<svg width="390" height="426" viewBox="0 0 390 426" fill="none" xmlns="http://www.w3.org/2000/svg">
<path d="M0 20C0 8.95431 8.95431 0 20 0H370C381.046 0 390 8.95431 390 20V426H0V20Z" fill="#2B2B2B"/>
<rect x="177" y="5" width="36" height="5" rx="2.5" fill="#C7C7C7" fill-opacity="0.4"/>
<path d="M26.917 38.3164C25.6924 38.3164 24.6348 38.0498 23.7441 37.5166C22.8535 36.9775 22.165 36.21 21.6787 35.2139C21.1982 34.2178 20.958 33.0342 20.958 31.6631V31.6455C20.958 30.2744 21.1982 29.0938 21.6787 28.1035C22.165 27.1074 22.8506 26.3428 23.7354 25.8096C24.626 25.2705 25.6836 25.001 26.9082 25.001C27.916 25.001 28.8184 25.1973 29.6152 25.5898C30.418 25.9824 31.0654 26.5244 31.5576 27.2158C32.0498 27.9072 32.3369 28.6982 32.4189 29.5889V29.7031H29.835L29.8262 29.6416C29.7383 29.1611 29.5596 28.7422 29.29 28.3848C29.0205 28.0273 28.6836 27.749 28.2793 27.5498C27.875 27.3506 27.418 27.251 26.9082 27.251C26.2461 27.251 25.6719 27.4297 25.1855 27.7871C24.7051 28.1387 24.333 28.6426 24.0693 29.2988C23.8057 29.9551 23.6738 30.7373 23.6738 31.6455V31.6631C23.6738 32.5654 23.8057 33.3477 24.0693 34.0098C24.333 34.6719 24.7051 35.1816 25.1855 35.5391C25.6719 35.8906 26.249 36.0664 26.917 36.0664C27.4268 36.0664 27.8838 35.9756 28.2881 35.7939C28.6924 35.6064 29.0264 35.3457 29.29 35.0117C29.5537 34.6719 29.7324 34.2764 29.8262 33.8252L29.8438 33.7461H32.4277L32.4189 33.8516C32.3311 34.7363 32.0439 35.5156 31.5576 36.1895C31.0713 36.8574 30.4297 37.3789 29.6328 37.7539C28.8418 38.1289 27.9365 38.3164 26.917 38.3164ZM37.2354 38.1494C36.6201 38.1494 36.0723 38.0322 35.5918 37.7979C35.1172 37.5576 34.7451 37.2207 34.4756 36.7871C34.2061 36.3477 34.0713 35.835 34.0713 35.249V35.2314C34.0713 34.6514 34.2148 34.1533 34.502 33.7373C34.7949 33.3213 35.2197 32.9961 35.7764 32.7617C36.3389 32.5215 37.0215 32.3779 37.8242 32.3311L41.4277 32.1201V33.6846L38.2109 33.8955C37.6602 33.9248 37.25 34.042 36.9805 34.2471C36.7109 34.4521 36.5762 34.7305 36.5762 35.082V35.0996C36.5762 35.4629 36.7168 35.75 36.998 35.9609C37.2793 36.1719 37.6426 36.2773 38.0879 36.2773C38.4863 36.2773 38.8408 36.1982 39.1514 36.04C39.4619 35.8818 39.708 35.668 39.8896 35.3984C40.0713 35.1289 40.1621 34.8242 40.1621 34.4844V31.4082C40.1621 30.9863 40.0215 30.6611 39.7402 30.4326C39.4648 30.2041 39.0635 30.0898 38.5361 30.0898C38.0732 30.0898 37.6953 30.1719 37.4023 30.3359C37.1152 30.4941 36.9219 30.7168 36.8223 31.0039L36.8135 31.0391H34.4404L34.4492 30.9512C34.5137 30.3828 34.7246 29.8877 35.082 29.4658C35.4453 29.0439 35.9316 28.7158 36.541 28.4814C37.1562 28.2471 37.8682 28.1299 38.6768 28.1299C39.5322 28.1299 40.2588 28.2588 40.8564 28.5166C41.4541 28.7744 41.9082 29.1494 42.2188 29.6416C42.5352 30.1279 42.6934 30.7139 42.6934 31.3994V38H40.1621V36.7168H40.0039C39.8398 37.0156 39.6201 37.2734 39.3447 37.4902C39.0752 37.7012 38.7588 37.8652 38.3955 37.9824C38.0381 38.0938 37.6514 38.1494 37.2354 38.1494ZM45.1719 38V28.332H47.7383V29.8525H47.8877C48.0459 29.3193 48.333 28.9092 48.749 28.6221C49.1709 28.3291 49.6924 28.1826 50.3135 28.1826C50.4893 28.1826 50.6592 28.1943 50.8232 28.2178C50.9932 28.2354 51.1396 28.2617 51.2627 28.2969V30.5381C51.0752 30.4912 50.8848 30.4561 50.6914 30.4326C50.498 30.4092 50.2988 30.3975 50.0938 30.3975C49.6133 30.3975 49.1943 30.4854 48.8369 30.6611C48.4854 30.8369 48.2129 31.0889 48.0195 31.417C47.832 31.7451 47.7383 32.1377 47.7383 32.5947V38H45.1719ZM56.1582 38.1582C55.3555 38.1582 54.6611 37.959 54.0752 37.5605C53.4893 37.1562 53.0352 36.582 52.7129 35.8379C52.3965 35.0938 52.2383 34.2061 52.2383 33.1748V33.1572C52.2383 32.1201 52.3936 31.2295 52.7041 30.4854C53.0205 29.7412 53.4717 29.1729 54.0576 28.7803C54.6436 28.3818 55.3438 28.1826 56.1582 28.1826C56.6035 28.1826 57.0137 28.2529 57.3887 28.3936C57.7695 28.5283 58.1006 28.7217 58.3818 28.9736C58.6689 29.2256 58.8945 29.5303 59.0586 29.8877H59.208V24.6582H61.7744V38H59.208V36.4971H59.0586C58.8887 36.8428 58.6631 37.1387 58.3818 37.3848C58.1064 37.6309 57.7812 37.8213 57.4062 37.9561C57.0312 38.0908 56.6152 38.1582 56.1582 38.1582ZM57.0371 36.0312C57.4883 36.0312 57.8779 35.917 58.2061 35.6885C58.5342 35.46 58.7861 35.1318 58.9619 34.7041C59.1436 34.2764 59.2344 33.7695 59.2344 33.1836V33.166C59.2344 32.5684 59.1436 32.0586 58.9619 31.6367C58.7861 31.209 58.5342 30.8809 58.2061 30.6523C57.8779 30.4238 57.4883 30.3096 57.0371 30.3096C56.5859 30.3096 56.1963 30.4238 55.8682 30.6523C55.54 30.8809 55.2881 31.209 55.1123 31.6367C54.9365 32.0586 54.8486 32.5654 54.8486 33.1572V33.1748C54.8486 33.7666 54.9365 34.2764 55.1123 34.7041C55.2881 35.1318 55.54 35.46 55.8682 35.6885C56.1963 35.917 56.5859 36.0312 57.0371 36.0312ZM69.2451 38V25.3174H71.46L78.0078 34.3789L76.1357 33.4033H77.4453V25.3174H79.9941V38H77.7793L71.2227 28.9033L73.0947 29.8789H71.7852V38H69.2451ZM85.3994 38.1494C84.7842 38.1494 84.2363 38.0322 83.7559 37.7979C83.2812 37.5576 82.9092 37.2207 82.6396 36.7871C82.3701 36.3477 82.2354 35.835 82.2354 35.249V35.2314C82.2354 34.6514 82.3789 34.1533 82.666 33.7373C82.959 33.3213 83.3838 32.9961 83.9404 32.7617C84.5029 32.5215 85.1855 32.3779 85.9883 32.3311L89.5918 32.1201V33.6846L86.375 33.8955C85.8242 33.9248 85.4141 34.042 85.1445 34.2471C84.875 34.4521 84.7402 34.7305 84.7402 35.082V35.0996C84.7402 35.4629 84.8809 35.75 85.1621 35.9609C85.4434 36.1719 85.8066 36.2773 86.252 36.2773C86.6504 36.2773 87.0049 36.1982 87.3154 36.04C87.626 35.8818 87.8721 35.668 88.0537 35.3984C88.2354 35.1289 88.3262 34.8242 88.3262 34.4844V31.4082C88.3262 30.9863 88.1855 30.6611 87.9043 30.4326C87.6289 30.2041 87.2275 30.0898 86.7002 30.0898C86.2373 30.0898 85.8594 30.1719 85.5664 30.3359C85.2793 30.4941 85.0859 30.7168 84.9863 31.0039L84.9775 31.0391H82.6045L82.6133 30.9512C82.6777 30.3828 82.8887 29.8877 83.2461 29.4658C83.6094 29.0439 84.0957 28.7158 84.7051 28.4814C85.3203 28.2471 86.0322 28.1299 86.8408 28.1299C87.6963 28.1299 88.4229 28.2588 89.0205 28.5166C89.6182 28.7744 90.0723 29.1494 90.3828 29.6416C90.6992 30.1279 90.8574 30.7139 90.8574 31.3994V38H88.3262V36.7168H88.168C88.0039 37.0156 87.7842 37.2734 87.5088 37.4902C87.2393 37.7012 86.9229 37.8652 86.5596 37.9824C86.2021 38.0938 85.8154 38.1494 85.3994 38.1494ZM93.3359 38V28.332H95.9023V29.8525H96.0518C96.2568 29.3076 96.5938 28.8857 97.0625 28.5869C97.5371 28.2822 98.0938 28.1299 98.7324 28.1299C99.1719 28.1299 99.5674 28.2031 99.9189 28.3496C100.276 28.4902 100.581 28.6924 100.833 28.9561C101.091 29.2197 101.284 29.542 101.413 29.9229H101.562C101.715 29.5596 101.932 29.2461 102.213 28.9824C102.5 28.7129 102.837 28.5049 103.224 28.3584C103.616 28.2061 104.035 28.1299 104.48 28.1299C105.125 28.1299 105.682 28.2617 106.15 28.5254C106.619 28.7891 106.979 29.1641 107.231 29.6504C107.489 30.1309 107.618 30.7051 107.618 31.373V38H105.052V32.0146C105.052 31.6221 104.993 31.2969 104.876 31.0391C104.759 30.7754 104.58 30.5791 104.34 30.4502C104.105 30.3213 103.81 30.2568 103.452 30.2568C103.106 30.2568 102.805 30.3359 102.547 30.4941C102.295 30.6465 102.099 30.8604 101.958 31.1357C101.817 31.4053 101.747 31.7158 101.747 32.0674V38H99.1895V31.8916C99.1895 31.5459 99.125 31.2529 98.9961 31.0127C98.873 30.7666 98.6914 30.5791 98.4512 30.4502C98.2168 30.3213 97.9326 30.2568 97.5986 30.2568C97.2646 30.2568 96.9688 30.3389 96.7109 30.5029C96.459 30.667 96.2598 30.8955 96.1133 31.1885C95.9727 31.4756 95.9023 31.8037 95.9023 32.1729V38H93.3359ZM114.324 38.2021C113.346 38.2021 112.502 38 111.793 37.5957C111.09 37.1914 110.548 36.6143 110.167 35.8643C109.786 35.1084 109.596 34.2148 109.596 33.1836V33.1748C109.596 32.1494 109.783 31.2588 110.158 30.5029C110.539 29.7471 111.075 29.1641 111.767 28.7539C112.464 28.3379 113.281 28.1299 114.219 28.1299C115.156 28.1299 115.968 28.332 116.653 28.7363C117.339 29.1348 117.866 29.6973 118.235 30.4238C118.604 31.1504 118.789 32.0029 118.789 32.9814V33.7812H110.879V32.1729H117.559L116.354 33.6934V32.665C116.354 32.085 116.267 31.6016 116.091 31.2148C115.915 30.8281 115.669 30.5381 115.353 30.3447C115.042 30.1455 114.679 30.0459 114.263 30.0459C113.847 30.0459 113.48 30.1484 113.164 30.3535C112.848 30.5527 112.596 30.8486 112.408 31.2412C112.227 31.6279 112.136 32.1025 112.136 32.665V33.7021C112.136 34.2412 112.227 34.7041 112.408 35.0908C112.59 35.4775 112.848 35.7734 113.182 35.9785C113.516 36.1836 113.914 36.2861 114.377 36.2861C114.752 36.2861 115.071 36.2305 115.335 36.1191C115.599 36.0078 115.81 35.8789 115.968 35.7324C116.132 35.5801 116.243 35.4424 116.302 35.3193L116.328 35.2666L118.71 35.2578L118.692 35.3545C118.616 35.6592 118.479 35.9785 118.279 36.3125C118.08 36.6406 117.805 36.9482 117.453 37.2354C117.107 37.5225 116.674 37.7568 116.152 37.9385C115.637 38.1143 115.027 38.2021 114.324 38.2021Z" fill="white"/>
<path d="M25.0703 55.2344C24.2734 55.2344 23.5729 55.1016 22.9688 54.8359C22.3698 54.5703 21.8906 54.2057 21.5312 53.7422C21.1719 53.2786 20.9635 52.7474 20.9062 52.1484L20.8984 52.0625H21.9609L21.9688 52.1484C22.0104 52.5599 22.1719 52.9245 22.4531 53.2422C22.7344 53.5599 23.1042 53.8073 23.5625 53.9844C24.026 54.1615 24.5469 54.25 25.125 54.25C25.6927 54.25 26.1953 54.1562 26.6328 53.9688C27.0703 53.776 27.4141 53.5156 27.6641 53.1875C27.9141 52.8542 28.0391 52.4766 28.0391 52.0547V52.0469C28.0391 51.5208 27.8438 51.0807 27.4531 50.7266C27.0625 50.3672 26.4323 50.0885 25.5625 49.8906L24.4062 49.6328C23.2708 49.3776 22.4505 49.0052 21.9453 48.5156C21.4401 48.0208 21.1875 47.3854 21.1875 46.6094V46.6016C21.1875 46.0026 21.3516 45.4714 21.6797 45.0078C22.0078 44.5391 22.4609 44.1693 23.0391 43.8984C23.6224 43.6276 24.2891 43.4922 25.0391 43.4922C25.7734 43.4922 26.4219 43.6224 26.9844 43.8828C27.5521 44.1432 28.0026 44.4922 28.3359 44.9297C28.6745 45.362 28.8646 45.849 28.9062 46.3906L28.9141 46.4844H27.8516L27.8359 46.3984C27.7839 46.0339 27.6354 45.7083 27.3906 45.4219C27.1458 45.1302 26.8203 44.8984 26.4141 44.7266C26.013 44.5547 25.5443 44.4714 25.0078 44.4766C24.487 44.4766 24.0208 44.5651 23.6094 44.7422C23.1979 44.9141 22.8698 45.1589 22.625 45.4766C22.3854 45.7891 22.2656 46.1562 22.2656 46.5781V46.5859C22.2656 47.0807 22.4531 47.4922 22.8281 47.8203C23.2031 48.1484 23.8177 48.4089 24.6719 48.6016L25.8281 48.8672C26.6146 49.0443 27.2474 49.2708 27.7266 49.5469C28.2109 49.8229 28.5651 50.1562 28.7891 50.5469C29.013 50.9375 29.125 51.3932 29.125 51.9141V51.9219C29.125 52.5885 28.9557 53.1693 28.6172 53.6641C28.2786 54.1589 27.8047 54.5443 27.1953 54.8203C26.5859 55.0964 25.8776 55.2344 25.0703 55.2344ZM34.7422 55.1406C33.9557 55.1406 33.276 54.9635 32.7031 54.6094C32.1354 54.2552 31.6979 53.7552 31.3906 53.1094C31.0833 52.4635 30.9297 51.7005 30.9297 50.8203V50.8047C30.9297 49.9297 31.0833 49.1667 31.3906 48.5156C31.6979 47.8594 32.1302 47.3516 32.6875 46.9922C33.25 46.6276 33.9062 46.4453 34.6562 46.4453C35.4115 46.4453 36.0599 46.6224 36.6016 46.9766C37.1484 47.3255 37.5677 47.8151 37.8594 48.4453C38.1562 49.0703 38.3047 49.7969 38.3047 50.625V51.0625H31.4609V50.2188H37.7812L37.2734 50.9766V50.5859C37.2734 49.8828 37.1615 49.2943 36.9375 48.8203C36.7188 48.3411 36.4115 47.9792 36.0156 47.7344C35.625 47.4896 35.1719 47.3672 34.6562 47.3672C34.1354 47.3672 33.6745 47.4922 33.2734 47.7422C32.8724 47.9922 32.5547 48.3594 32.3203 48.8438C32.0911 49.3229 31.9766 49.9036 31.9766 50.5859V50.9766C31.9766 51.6484 32.0911 52.2266 32.3203 52.7109C32.5495 53.1953 32.8724 53.5677 33.2891 53.8281C33.7057 54.0885 34.1979 54.2188 34.7656 54.2188C35.1719 54.2188 35.5339 54.1615 35.8516 54.0469C36.1745 53.9323 36.4427 53.7812 36.6562 53.5938C36.8698 53.401 37.0234 53.1979 37.1172 52.9844L37.1406 52.9219H38.1797L38.1562 52.9844C38.0729 53.2708 37.9349 53.5443 37.7422 53.8047C37.5547 54.0599 37.3151 54.2891 37.0234 54.4922C36.7318 54.6901 36.3932 54.849 36.0078 54.9688C35.6276 55.0833 35.2057 55.1406 34.7422 55.1406ZM43.2969 55.0547C42.5 55.0547 41.9219 54.888 41.5625 54.5547C41.2083 54.2214 41.0312 53.6719 41.0312 52.9062V47.4453H39.6797V46.5859H41.0312V44.3984H42.0938V46.5859H44.0234V47.4453H42.0938V52.6719C42.0938 53.1927 42.1953 53.5677 42.3984 53.7969C42.6016 54.026 42.9401 54.1406 43.4141 54.1406C43.5339 54.1406 43.638 54.138 43.7266 54.1328C43.8151 54.1276 43.9141 54.1198 44.0234 54.1094V54.9922C43.9036 55.0078 43.7839 55.0208 43.6641 55.0312C43.5495 55.0469 43.4271 55.0547 43.2969 55.0547ZM50.6172 55V43.7266H51.6719L58.5156 53.4844L57.7812 53.0938H58.3438V43.7266H59.3906V55H58.3672L51.4922 45.2344L52.2344 45.625H51.6719V55H50.6172ZM64.4844 55.1406C63.9427 55.1406 63.4609 55.0417 63.0391 54.8438C62.6172 54.6406 62.2839 54.3542 62.0391 53.9844C61.7943 53.6146 61.6719 53.1797 61.6719 52.6797V52.6641C61.6719 52.1797 61.7891 51.763 62.0234 51.4141C62.2578 51.0599 62.6016 50.7839 63.0547 50.5859C63.5078 50.3828 64.0573 50.2604 64.7031 50.2188L67.8438 50.0156V50.8516L64.8438 51.0547C64.125 51.1016 63.5911 51.2604 63.2422 51.5312C62.8984 51.7969 62.7266 52.1693 62.7266 52.6484V52.6641C62.7266 53.1484 62.9089 53.5339 63.2734 53.8203C63.638 54.1016 64.1068 54.2422 64.6797 54.2422C65.1849 54.2422 65.6354 54.138 66.0312 53.9297C66.4323 53.7161 66.75 53.4297 66.9844 53.0703C67.2188 52.7109 67.3359 52.3099 67.3359 51.8672V49.2578C67.3359 48.638 67.1536 48.1667 66.7891 47.8438C66.4245 47.5208 65.901 47.3594 65.2188 47.3594C64.6458 47.3594 64.1693 47.4714 63.7891 47.6953C63.4089 47.9193 63.1615 48.2422 63.0469 48.6641L63.0391 48.6797H62.0078L62.0156 48.6484C62.0885 48.1953 62.2708 47.8047 62.5625 47.4766C62.8542 47.1484 63.2292 46.8958 63.6875 46.7188C64.1458 46.5365 64.6667 46.4453 65.25 46.4453C65.9115 46.4453 66.474 46.5573 66.9375 46.7812C67.401 47 67.7526 47.3177 67.9922 47.7344C68.237 48.151 68.3594 48.6562 68.3594 49.25V55H67.3359V53.5469H67.2344C67.0677 53.8802 66.849 54.1667 66.5781 54.4062C66.3073 54.6406 65.9948 54.8229 65.6406 54.9531C65.2865 55.0781 64.901 55.1406 64.4844 55.1406ZM70.9609 55V46.5859H71.9922V48.0781H72.0859C72.2682 47.5677 72.5651 47.1693 72.9766 46.8828C73.3932 46.5911 73.888 46.4453 74.4609 46.4453C74.8568 46.4453 75.2109 46.513 75.5234 46.6484C75.8411 46.7839 76.112 46.9766 76.3359 47.2266C76.5599 47.4766 76.7318 47.7708 76.8516 48.1094H76.9453C77.0911 47.7708 77.2917 47.4766 77.5469 47.2266C77.8073 46.9766 78.1094 46.7839 78.4531 46.6484C78.8021 46.513 79.1771 46.4453 79.5781 46.4453C80.1406 46.4453 80.6198 46.5547 81.0156 46.7734C81.4115 46.9922 81.7135 47.3099 81.9219 47.7266C82.1302 48.1432 82.2344 48.6484 82.2344 49.2422V55H81.2109V49.4766C81.2109 49.0182 81.138 48.6328 80.9922 48.3203C80.8464 48.0026 80.6302 47.763 80.3438 47.6016C80.0573 47.4401 79.7005 47.3594 79.2734 47.3594C78.8411 47.3594 78.4609 47.4609 78.1328 47.6641C77.8099 47.8672 77.5573 48.1432 77.375 48.4922C77.1979 48.8359 77.1094 49.2266 77.1094 49.6641V55H76.0781V49.3672C76.0781 48.9609 75.9974 48.6094 75.8359 48.3125C75.6797 48.0104 75.4557 47.776 75.1641 47.6094C74.8776 47.4427 74.5391 47.3594 74.1484 47.3594C73.7422 47.3594 73.375 47.4714 73.0469 47.6953C72.724 47.9141 72.4661 48.2109 72.2734 48.5859C72.0859 48.9609 71.9922 49.3802 71.9922 49.8438V55H70.9609ZM88.1953 55.1406C87.4089 55.1406 86.7292 54.9635 86.1562 54.6094C85.5885 54.2552 85.151 53.7552 84.8438 53.1094C84.5365 52.4635 84.3828 51.7005 84.3828 50.8203V50.8047C84.3828 49.9297 84.5365 49.1667 84.8438 48.5156C85.151 47.8594 85.5833 47.3516 86.1406 46.9922C86.7031 46.6276 87.3594 46.4453 88.1094 46.4453C88.8646 46.4453 89.513 46.6224 90.0547 46.9766C90.6016 47.3255 91.0208 47.8151 91.3125 48.4453C91.6094 49.0703 91.7578 49.7969 91.7578 50.625V51.0625H84.9141V50.2188H91.2344L90.7266 50.9766V50.5859C90.7266 49.8828 90.6146 49.2943 90.3906 48.8203C90.1719 48.3411 89.8646 47.9792 89.4688 47.7344C89.0781 47.4896 88.625 47.3672 88.1094 47.3672C87.5885 47.3672 87.1276 47.4922 86.7266 47.7422C86.3255 47.9922 86.0078 48.3594 85.7734 48.8438C85.5443 49.3229 85.4297 49.9036 85.4297 50.5859V50.9766C85.4297 51.6484 85.5443 52.2266 85.7734 52.7109C86.0026 53.1953 86.3255 53.5677 86.7422 53.8281C87.1589 54.0885 87.651 54.2188 88.2188 54.2188C88.625 54.2188 88.987 54.1615 89.3047 54.0469C89.6276 53.9323 89.8958 53.7812 90.1094 53.5938C90.3229 53.401 90.4766 53.1979 90.5703 52.9844L90.5938 52.9219H91.6328L91.6094 52.9844C91.526 53.2708 91.388 53.5443 91.1953 53.8047C91.0078 54.0599 90.7682 54.2891 90.4766 54.4922C90.1849 54.6901 89.8464 54.849 89.4609 54.9688C89.0807 55.0833 88.6589 55.1406 88.1953 55.1406Z" fill="white"/>
<path d="M25 72.2344C24.1719 72.2344 23.4635 71.9974 22.875 71.5234C22.2865 71.0443 21.8333 70.3672 21.5156 69.4922C21.1979 68.612 21.0391 67.5729 21.0391 66.375V66.3516C21.0391 65.1484 21.1979 64.1094 21.5156 63.2344C21.8333 62.3594 22.2865 61.6849 22.875 61.2109C23.4635 60.7318 24.1719 60.4922 25 60.4922C25.8281 60.4922 26.5365 60.7318 27.125 61.2109C27.7188 61.6849 28.1745 62.362 28.4922 63.2422C28.8151 64.1172 28.9766 65.1536 28.9766 66.3516V66.375C28.9766 67.5781 28.8151 68.6172 28.4922 69.4922C28.1745 70.3672 27.7188 71.0443 27.125 71.5234C26.5365 71.9974 25.8281 72.2344 25 72.2344ZM25 71.2969C25.6094 71.2969 26.1302 71.0964 26.5625 70.6953C26.9948 70.2943 27.3255 69.7266 27.5547 68.9922C27.7891 68.2526 27.9062 67.3802 27.9062 66.375V66.3516C27.9062 65.3411 27.7891 64.4688 27.5547 63.7344C27.3255 63 26.9948 62.4349 26.5625 62.0391C26.1302 61.638 25.6094 61.4375 25 61.4375C24.3958 61.4375 23.8776 61.638 23.4453 62.0391C23.013 62.4349 22.6823 63.0026 22.4531 63.7422C22.224 64.4766 22.1094 65.3464 22.1094 66.3516V66.375C22.1094 67.3802 22.224 68.2526 22.4531 68.9922C22.6823 69.7266 23.013 70.2943 23.4453 70.6953C23.8776 71.0964 24.3958 71.2969 25 71.2969ZM35.0156 72.2344C34.1875 72.2344 33.4792 71.9974 32.8906 71.5234C32.3021 71.0443 31.849 70.3672 31.5312 69.4922C31.2135 68.612 31.0547 67.5729 31.0547 66.375V66.3516C31.0547 65.1484 31.2135 64.1094 31.5312 63.2344C31.849 62.3594 32.3021 61.6849 32.8906 61.2109C33.4792 60.7318 34.1875 60.4922 35.0156 60.4922C35.8438 60.4922 36.5521 60.7318 37.1406 61.2109C37.7344 61.6849 38.1901 62.362 38.5078 63.2422C38.8307 64.1172 38.9922 65.1536 38.9922 66.3516V66.375C38.9922 67.5781 38.8307 68.6172 38.5078 69.4922C38.1901 70.3672 37.7344 71.0443 37.1406 71.5234C36.5521 71.9974 35.8438 72.2344 35.0156 72.2344ZM35.0156 71.2969C35.625 71.2969 36.1458 71.0964 36.5781 70.6953C37.0104 70.2943 37.3411 69.7266 37.5703 68.9922C37.8047 68.2526 37.9219 67.3802 37.9219 66.375V66.3516C37.9219 65.3411 37.8047 64.4688 37.5703 63.7344C37.3411 63 37.0104 62.4349 36.5781 62.0391C36.1458 61.638 35.625 61.4375 35.0156 61.4375C34.4115 61.4375 33.8932 61.638 33.4609 62.0391C33.0286 62.4349 32.6979 63.0026 32.4688 63.7422C32.2396 64.4766 32.125 65.3464 32.125 66.3516V66.375C32.125 67.3802 32.2396 68.2526 32.4688 68.9922C32.6979 69.7266 33.0286 70.2943 33.4609 70.6953C33.8932 71.0964 34.4115 71.2969 35.0156 71.2969ZM44.0312 72V61.9141H43.9375L41.0234 63.9375V62.8125L44.0312 60.7266H45.0938V72H44.0312ZM51.8047 60.2344L48.1172 74.7891H47.125L50.8203 60.2344H51.8047ZM56.8594 72.2344C56.0312 72.2344 55.3229 71.9974 54.7344 71.5234C54.1458 71.0443 53.6927 70.3672 53.375 69.4922C53.0573 68.612 52.8984 67.5729 52.8984 66.375V66.3516C52.8984 65.1484 53.0573 64.1094 53.375 63.2344C53.6927 62.3594 54.1458 61.6849 54.7344 61.2109C55.3229 60.7318 56.0312 60.4922 56.8594 60.4922C57.6875 60.4922 58.3958 60.7318 58.9844 61.2109C59.5781 61.6849 60.0339 62.362 60.3516 63.2422C60.6745 64.1172 60.8359 65.1536 60.8359 66.3516V66.375C60.8359 67.5781 60.6745 68.6172 60.3516 69.4922C60.0339 70.3672 59.5781 71.0443 58.9844 71.5234C58.3958 71.9974 57.6875 72.2344 56.8594 72.2344ZM56.8594 71.2969C57.4688 71.2969 57.9896 71.0964 58.4219 70.6953C58.8542 70.2943 59.1849 69.7266 59.4141 68.9922C59.6484 68.2526 59.7656 67.3802 59.7656 66.375V66.3516C59.7656 65.3411 59.6484 64.4688 59.4141 63.7344C59.1849 63 58.8542 62.4349 58.4219 62.0391C57.9896 61.638 57.4688 61.4375 56.8594 61.4375C56.2552 61.4375 55.737 61.638 55.3047 62.0391C54.8724 62.4349 54.5417 63.0026 54.3125 63.7422C54.0833 64.4766 53.9688 65.3464 53.9688 66.3516V66.375C53.9688 67.3802 54.0833 68.2526 54.3125 68.9922C54.5417 69.7266 54.8724 70.2943 55.3047 70.6953C55.737 71.0964 56.2552 71.2969 56.8594 71.2969ZM66.875 72.2344C66.0469 72.2344 65.3385 71.9974 64.75 71.5234C64.1615 71.0443 63.7083 70.3672 63.3906 69.4922C63.0729 68.612 62.9141 67.5729 62.9141 66.375V66.3516C62.9141 65.1484 63.0729 64.1094 63.3906 63.2344C63.7083 62.3594 64.1615 61.6849 64.75 61.2109C65.3385 60.7318 66.0469 60.4922 66.875 60.4922C67.7031 60.4922 68.4115 60.7318 69 61.2109C69.5938 61.6849 70.0495 62.362 70.3672 63.2422C70.6901 64.1172 70.8516 65.1536 70.8516 66.3516V66.375C70.8516 67.5781 70.6901 68.6172 70.3672 69.4922C70.0495 70.3672 69.5938 71.0443 69 71.5234C68.4115 71.9974 67.7031 72.2344 66.875 72.2344ZM66.875 71.2969C67.4844 71.2969 68.0052 71.0964 68.4375 70.6953C68.8698 70.2943 69.2005 69.7266 69.4297 68.9922C69.6641 68.2526 69.7812 67.3802 69.7812 66.375V66.3516C69.7812 65.3411 69.6641 64.4688 69.4297 63.7344C69.2005 63 68.8698 62.4349 68.4375 62.0391C68.0052 61.638 67.4844 61.4375 66.875 61.4375C66.2708 61.4375 65.7526 61.638 65.3203 62.0391C64.888 62.4349 64.5573 63.0026 64.3281 63.7422C64.099 64.4766 63.9844 65.3464 63.9844 66.3516V66.375C63.9844 67.3802 64.099 68.2526 64.3281 68.9922C64.5573 69.7266 64.888 70.2943 65.3203 70.6953C65.7526 71.0964 66.2708 71.2969 66.875 71.2969ZM75.8906 72V61.9141H75.7969L72.8828 63.9375V62.8125L75.8906 60.7266H76.9531V72H75.8906Z" fill="white"/>
<path d="M20.375 98L22.3496 89.5449H24.0078V91.3027H23.4277L22.1504 98H20.375ZM21.623 96.2012L21.9102 94.9062H24.9805L25.2617 96.2012H21.623ZM24.7461 98L23.4688 91.3027V89.5449H24.5469L26.5215 98H24.7461ZM29.3164 98.082C28.8711 98.082 28.4922 97.959 28.1797 97.7129C27.8672 97.4668 27.6289 97.0996 27.4648 96.6113C27.3008 96.1191 27.2188 95.5059 27.2188 94.7715V94.7598C27.2188 94.0254 27.3008 93.4141 27.4648 92.9258C27.6289 92.4336 27.8652 92.0645 28.1738 91.8184C28.4863 91.5723 28.8633 91.4492 29.3047 91.4492C29.5742 91.4492 29.8105 91.4961 30.0137 91.5898C30.2207 91.6797 30.3945 91.8027 30.5352 91.959C30.6758 92.1152 30.7871 92.2852 30.8691 92.4688H30.9102V89.2695H32.5801V98H30.9102V97.0684H30.8691C30.7832 97.2754 30.668 97.4551 30.5234 97.6074C30.3828 97.7598 30.2109 97.877 30.0078 97.959C29.8047 98.041 29.5742 98.082 29.3164 98.082ZM29.9199 96.6934C30.1309 96.6934 30.3105 96.623 30.459 96.4824C30.6074 96.3418 30.7207 96.1309 30.7988 95.8496C30.877 95.5645 30.916 95.209 30.916 94.7832V94.7715C30.916 94.3418 30.877 93.9844 30.7988 93.6992C30.7207 93.4102 30.6074 93.1953 30.459 93.0547C30.3105 92.9102 30.1328 92.8379 29.9258 92.8379C29.707 92.8379 29.5234 92.9102 29.375 93.0547C29.2266 93.1953 29.1133 93.4102 29.0352 93.6992C28.957 93.9844 28.918 94.3398 28.918 94.7656V94.7773C28.918 95.1992 28.957 95.5527 29.0352 95.8379C29.1133 96.123 29.2266 96.3379 29.375 96.4824C29.5234 96.623 29.7051 96.6934 29.9199 96.6934ZM35.9844 98.082C35.5391 98.082 35.1602 97.959 34.8477 97.7129C34.5352 97.4668 34.2969 97.0996 34.1328 96.6113C33.9688 96.1191 33.8867 95.5059 33.8867 94.7715V94.7598C33.8867 94.0254 33.9688 93.4141 34.1328 92.9258C34.2969 92.4336 34.5332 92.0645 34.8418 91.8184C35.1543 91.5723 35.5312 91.4492 35.9727 91.4492C36.2422 91.4492 36.4785 91.4961 36.6816 91.5898C36.8887 91.6797 37.0625 91.8027 37.2031 91.959C37.3438 92.1152 37.4551 92.2852 37.5371 92.4688H37.5781V89.2695H39.248V98H37.5781V97.0684H37.5371C37.4512 97.2754 37.3359 97.4551 37.1914 97.6074C37.0508 97.7598 36.8789 97.877 36.6758 97.959C36.4727 98.041 36.2422 98.082 35.9844 98.082ZM36.5879 96.6934C36.7988 96.6934 36.9785 96.623 37.127 96.4824C37.2754 96.3418 37.3887 96.1309 37.4668 95.8496C37.5449 95.5645 37.584 95.209 37.584 94.7832V94.7715C37.584 94.3418 37.5449 93.9844 37.4668 93.6992C37.3887 93.4102 37.2754 93.1953 37.127 93.0547C36.9785 92.9102 36.8008 92.8379 36.5938 92.8379C36.375 92.8379 36.1914 92.9102 36.043 93.0547C35.8945 93.1953 35.7812 93.4102 35.7031 93.6992C35.625 93.9844 35.5859 94.3398 35.5859 94.7656V94.7773C35.5859 95.1992 35.625 95.5527 35.7031 95.8379C35.7812 96.123 35.8945 96.3379 36.043 96.4824C36.1914 96.623 36.373 96.6934 36.5879 96.6934ZM45.2656 98.0879C44.5938 98.0879 44.0898 97.9453 43.7539 97.6602C43.418 97.375 43.25 96.9141 43.25 96.2773V92.8145H42.4941V91.5547H43.25V89.9785H44.9375V91.5547H45.9863V92.8145H44.9375V96.1016C44.9375 96.3633 44.9941 96.5508 45.1074 96.6641C45.2246 96.7734 45.416 96.8281 45.6816 96.8281C45.748 96.8281 45.8066 96.8262 45.8574 96.8223C45.9082 96.8184 45.959 96.8125 46.0098 96.8047V98.0117C45.9121 98.0352 45.7988 98.0527 45.6699 98.0645C45.5449 98.0801 45.4102 98.0879 45.2656 98.0879ZM49.502 98.123C48.9277 98.123 48.4395 97.998 48.0371 97.748C47.6348 97.4941 47.3281 97.1191 47.1172 96.623C46.9102 96.127 46.8066 95.5137 46.8066 94.7832V94.7715C46.8066 94.0527 46.9121 93.4473 47.123 92.9551C47.3379 92.459 47.6465 92.084 48.0488 91.8301C48.4512 91.5723 48.9355 91.4434 49.502 91.4434C50.0723 91.4434 50.5566 91.5723 50.9551 91.8301C51.3574 92.084 51.6641 92.459 51.875 92.9551C52.0898 93.4473 52.1973 94.0527 52.1973 94.7715V94.7832C52.1973 95.5137 52.0918 96.127 51.8809 96.623C51.6738 97.1191 51.3691 97.4941 50.9668 97.748C50.5645 97.998 50.0762 98.123 49.502 98.123ZM49.502 96.8164C49.7207 96.8164 49.9023 96.7441 50.0469 96.5996C50.1953 96.4551 50.3066 96.2324 50.3809 95.9316C50.459 95.6309 50.498 95.25 50.498 94.7891V94.7715C50.498 94.3145 50.459 93.9375 50.3809 93.6406C50.3066 93.3438 50.1953 93.123 50.0469 92.9785C49.8984 92.8301 49.7168 92.7559 49.502 92.7559C49.2832 92.7559 49.0996 92.8301 48.9512 92.9785C48.8027 93.123 48.6914 93.3438 48.6172 93.6406C48.5469 93.9375 48.5117 94.3145 48.5117 94.7715V94.7891C48.5117 95.25 48.5469 95.6309 48.6172 95.9316C48.6914 96.2324 48.8027 96.4551 48.9512 96.5996C49.0996 96.7441 49.2832 96.8164 49.502 96.8164ZM56.6504 98.082C56.3848 98.082 56.1621 97.9922 55.9824 97.8125C55.8027 97.6289 55.7129 97.4062 55.7129 97.1445C55.7129 96.8867 55.8027 96.666 55.9824 96.4824C56.1621 96.2988 56.3848 96.207 56.6504 96.207C56.9121 96.207 57.1328 96.2988 57.3125 96.4824C57.4961 96.666 57.5879 96.8867 57.5879 97.1445C57.5879 97.4062 57.4961 97.6289 57.3125 97.8125C57.1328 97.9922 56.9121 98.082 56.6504 98.082ZM56.6504 93.8809C56.3848 93.8809 56.1621 93.7891 55.9824 93.6055C55.8027 93.4219 55.7129 93.2012 55.7129 92.9434C55.7129 92.6816 55.8027 92.4609 55.9824 92.2812C56.1621 92.0977 56.3848 92.0059 56.6504 92.0059C56.9121 92.0059 57.1328 92.0977 57.3125 92.2812C57.4961 92.4609 57.5879 92.6816 57.5879 92.9434C57.5879 93.2012 57.4961 93.4219 57.3125 93.6055C57.1328 93.7891 56.9121 93.8809 56.6504 93.8809Z" fill="white"/>
<path d="M67.9922 98H66.3398L68.1387 89.5449H70.1719L71.2617 95.252H71.3672L74.9414 89.5449H77.0977L75.2988 98H73.6523L74.8652 92.3516H74.7715L71.4902 97.543H70.3125L69.2988 92.3516H69.2051L67.9922 98ZM77.5371 100.361C77.3926 100.361 77.25 100.355 77.1094 100.344C76.9688 100.336 76.8477 100.328 76.7461 100.32L77.0273 98.9551C77.0859 98.9629 77.1562 98.9707 77.2383 98.9785C77.3203 98.9863 77.4102 98.9902 77.5078 98.9902C77.793 98.9902 78.0391 98.9336 78.2461 98.8203C78.4531 98.7109 78.6191 98.5293 78.7441 98.2754C78.7598 98.248 78.7734 98.2188 78.7852 98.1875C78.8008 98.1602 78.8145 98.1309 78.8262 98.0996C78.8418 98.0723 78.8574 98.0449 78.873 98.0176L78.0293 91.5371H79.7695L80.1445 96.3535H80.25L82.623 91.5371H84.4512L80.7598 98.2344C80.4824 98.7617 80.1895 99.1797 79.8809 99.4883C79.5723 99.8008 79.2285 100.023 78.8496 100.156C78.4707 100.293 78.0332 100.361 77.5371 100.361ZM89.3262 89.5449H92.4141C92.9727 89.5449 93.459 89.6465 93.873 89.8496C94.2871 90.0527 94.6094 90.3398 94.8398 90.7109C95.0703 91.082 95.1855 91.5176 95.1855 92.0176C95.1855 92.709 95.0293 93.3066 94.7168 93.8105C94.4082 94.3105 93.9785 94.6973 93.4277 94.9707C92.8809 95.2402 92.248 95.375 91.5293 95.375H89.877L89.3086 98H87.5332L89.3262 89.5449ZM90.8086 90.998L90.1641 93.9395H91.5059C91.8848 93.9395 92.2148 93.8672 92.4961 93.7227C92.7773 93.5781 92.9961 93.375 93.1523 93.1133C93.3086 92.8477 93.3867 92.5391 93.3867 92.1875C93.3867 91.7969 93.2637 91.502 93.0176 91.3027C92.7715 91.0996 92.4297 90.998 91.9922 90.998H90.8086ZM97.4004 94.0801H100.207C100.211 94.0605 100.215 94.0293 100.219 93.9863C100.223 93.9395 100.225 93.8965 100.225 93.8574C100.225 93.6426 100.176 93.4492 100.078 93.2773C99.9844 93.1016 99.8477 92.9629 99.668 92.8613C99.4922 92.7598 99.2793 92.709 99.0293 92.709C98.7676 92.709 98.5273 92.7676 98.3086 92.8848C98.0898 92.998 97.9023 93.1582 97.7461 93.3652C97.5898 93.5684 97.4746 93.8066 97.4004 94.0801ZM98.4609 98.1406C97.9062 98.1406 97.4121 98.0312 96.9785 97.8125C96.5488 97.5938 96.2109 97.2773 95.9648 96.8633C95.7227 96.4453 95.6016 95.9453 95.6016 95.3633C95.6016 94.7734 95.6855 94.2363 95.8535 93.752C96.0215 93.2637 96.2617 92.8438 96.5742 92.4922C96.8867 92.1406 97.2559 91.8711 97.6816 91.6836C98.1113 91.4922 98.584 91.3965 99.0996 91.3965C99.6152 91.3965 100.078 91.5078 100.488 91.7305C100.898 91.9492 101.223 92.2617 101.461 92.668C101.703 93.0742 101.824 93.5527 101.824 94.1035C101.824 94.2324 101.814 94.4023 101.795 94.6133C101.775 94.8242 101.752 95.0059 101.725 95.1582H97.2129C97.2129 95.1895 97.2109 95.2207 97.207 95.252C97.207 95.2793 97.207 95.3086 97.207 95.3398C97.207 95.6719 97.2695 95.9473 97.3945 96.166C97.5195 96.3809 97.6855 96.543 97.8926 96.6523C98.0996 96.7578 98.3242 96.8105 98.5664 96.8105C98.8945 96.8105 99.1641 96.75 99.375 96.6289C99.5898 96.5078 99.7461 96.3457 99.8438 96.1426H101.484C101.387 96.5371 101.199 96.8848 100.922 97.1855C100.648 97.4863 100.303 97.7207 99.8848 97.8887C99.4668 98.0566 98.9922 98.1406 98.4609 98.1406ZM102.51 98L103.887 91.5371H105.545L105.363 92.4277H105.469C105.645 92.1074 105.869 91.8613 106.143 91.6895C106.42 91.5176 106.73 91.4316 107.074 91.4316C107.238 91.4316 107.393 91.4434 107.537 91.4668C107.686 91.4902 107.809 91.5254 107.906 91.5723L107.566 93.1426C107.438 93.0918 107.279 93.0508 107.092 93.0195C106.908 92.9883 106.738 92.9727 106.582 92.9727C106.301 92.9727 106.053 93.0273 105.838 93.1367C105.623 93.2422 105.445 93.4043 105.305 93.623C105.164 93.8379 105.059 94.1094 104.988 94.4375L104.221 98H102.51ZM108.545 93.4883C108.545 93.0664 108.658 92.6992 108.885 92.3867C109.111 92.0703 109.426 91.8262 109.828 91.6543C110.23 91.4824 110.695 91.3965 111.223 91.3965C111.746 91.3965 112.203 91.4766 112.594 91.6367C112.984 91.7969 113.291 92.0215 113.514 92.3105C113.74 92.5957 113.867 92.9316 113.895 93.3184H112.33C112.303 93.1816 112.238 93.0645 112.137 92.9668C112.039 92.8652 111.912 92.7871 111.756 92.7324C111.6 92.6738 111.422 92.6445 111.223 92.6445C111.02 92.6445 110.84 92.6738 110.684 92.7324C110.531 92.7871 110.41 92.8652 110.32 92.9668C110.234 93.0645 110.191 93.1797 110.191 93.3125C110.191 93.457 110.248 93.5801 110.361 93.6816C110.479 93.7793 110.66 93.8691 110.906 93.9512L111.955 94.3203C112.479 94.5 112.857 94.7246 113.092 94.9941C113.33 95.2637 113.449 95.6055 113.449 96.0195C113.449 96.4414 113.33 96.8125 113.092 97.1328C112.857 97.4492 112.527 97.6973 112.102 97.877C111.68 98.0527 111.189 98.1406 110.631 98.1406C110.08 98.1406 109.594 98.0566 109.172 97.8887C108.75 97.7207 108.418 97.4863 108.176 97.1855C107.934 96.8848 107.805 96.5352 107.789 96.1367H109.436C109.482 96.3555 109.613 96.5371 109.828 96.6816C110.043 96.8223 110.312 96.8926 110.637 96.8926C110.859 96.8926 111.053 96.8652 111.217 96.8105C111.381 96.752 111.508 96.6719 111.598 96.5703C111.691 96.4688 111.738 96.3477 111.738 96.207C111.738 96.0742 111.689 95.959 111.592 95.8613C111.498 95.7598 111.326 95.668 111.076 95.5859L110.068 95.2344C109.557 95.0586 109.174 94.8301 108.92 94.5488C108.67 94.2637 108.545 93.9102 108.545 93.4883ZM117.826 96.7402C118.146 96.7402 118.438 96.6309 118.699 96.4121C118.965 96.1895 119.176 95.8965 119.332 95.5332C119.492 95.166 119.572 94.7617 119.572 94.3203C119.572 93.8398 119.469 93.4648 119.262 93.1953C119.055 92.9258 118.766 92.791 118.395 92.791C118.055 92.791 117.75 92.9004 117.48 93.1191C117.215 93.334 117.004 93.6289 116.848 94.0039C116.691 94.375 116.613 94.7949 116.613 95.2637C116.613 95.7207 116.723 96.082 116.941 96.3477C117.16 96.6094 117.455 96.7402 117.826 96.7402ZM118.488 91.3965C119.066 91.3965 119.57 91.5137 120 91.748C120.43 91.9824 120.764 92.3125 121.002 92.7383C121.24 93.1602 121.359 93.6562 121.359 94.2266C121.359 94.7852 121.268 95.3027 121.084 95.7793C120.904 96.2559 120.65 96.6719 120.322 97.0273C119.994 97.3789 119.609 97.6523 119.168 97.8477C118.727 98.043 118.246 98.1406 117.727 98.1406C117.148 98.1406 116.643 98.0234 116.209 97.7891C115.775 97.5547 115.438 97.2246 115.195 96.7988C114.957 96.373 114.838 95.8789 114.838 95.3164C114.838 94.75 114.928 94.2285 115.107 93.752C115.291 93.2754 115.547 92.8613 115.875 92.5098C116.203 92.1543 116.588 91.8809 117.029 91.6895C117.475 91.4941 117.961 91.3965 118.488 91.3965ZM122.057 98L123.434 91.5371H125.092L124.869 92.5625H124.975C125.182 92.2305 125.449 91.959 125.777 91.748C126.105 91.5371 126.5 91.4316 126.961 91.4316C127.363 91.4316 127.707 91.5156 127.992 91.6836C128.281 91.8516 128.502 92.0781 128.654 92.3633C128.811 92.6445 128.889 92.9648 128.889 93.3242C128.889 93.4375 128.881 93.5605 128.865 93.6934C128.854 93.8223 128.832 93.9551 128.801 94.0918L127.975 98H126.27L127.043 94.373C127.062 94.2793 127.076 94.1934 127.084 94.1152C127.096 94.0332 127.102 93.9551 127.102 93.8809C127.102 93.584 127.01 93.3418 126.826 93.1543C126.646 92.9629 126.389 92.8672 126.053 92.8672C125.799 92.8672 125.57 92.9258 125.367 93.043C125.168 93.1562 125.002 93.3125 124.869 93.5117C124.736 93.7109 124.641 93.9375 124.582 94.1914L123.768 98H122.057ZM132.328 96.8164C132.57 96.8164 132.797 96.7695 133.008 96.6758C133.219 96.582 133.395 96.4551 133.535 96.2949C133.68 96.1309 133.775 95.9453 133.822 95.7383L133.945 95.1816L132.609 95.2285C132.223 95.2441 131.918 95.3301 131.695 95.4863C131.473 95.6387 131.361 95.8398 131.361 96.0898C131.361 96.3047 131.451 96.4805 131.631 96.6172C131.811 96.75 132.043 96.8164 132.328 96.8164ZM131.607 98.0996C131.244 98.0996 130.918 98.0234 130.629 97.8711C130.34 97.7148 130.109 97.5039 129.938 97.2383C129.77 96.9727 129.686 96.6719 129.686 96.3359C129.686 95.6797 129.938 95.1602 130.441 94.7773C130.949 94.3945 131.656 94.1875 132.562 94.1562L134.168 94.1035L134.256 93.7051C134.268 93.6465 134.275 93.6016 134.279 93.5703C134.283 93.5352 134.285 93.502 134.285 93.4707C134.285 93.2441 134.189 93.0664 133.998 92.9375C133.807 92.8086 133.547 92.7441 133.219 92.7441C133.035 92.7441 132.867 92.7676 132.715 92.8145C132.566 92.8574 132.439 92.9219 132.334 93.0078C132.232 93.0898 132.152 93.1934 132.094 93.3184H130.482C130.576 92.9238 130.754 92.584 131.016 92.2988C131.281 92.0098 131.613 91.7871 132.012 91.6309C132.41 91.4746 132.854 91.3965 133.342 91.3965C133.869 91.3965 134.328 91.4766 134.719 91.6367C135.113 91.793 135.42 92.0137 135.639 92.2988C135.857 92.584 135.967 92.918 135.967 93.3008C135.967 93.3828 135.963 93.4707 135.955 93.5645C135.947 93.6582 135.934 93.7441 135.914 93.8223L135.029 98H133.371L133.541 97.2031H133.436C133.314 97.3867 133.158 97.5449 132.967 97.6777C132.775 97.8105 132.564 97.9141 132.334 97.9883C132.104 98.0625 131.861 98.0996 131.607 98.0996ZM136.682 98L138.58 89.0703H140.297L138.398 98H136.682ZM150.193 92.5449C150.193 92.5332 150.193 92.5234 150.193 92.5156C150.193 92.5039 150.193 92.4844 150.193 92.457C150.182 92.1445 150.098 91.873 149.941 91.6426C149.789 91.4082 149.582 91.2266 149.32 91.0977C149.059 90.9648 148.754 90.8984 148.406 90.8984C148.023 90.8984 147.666 90.9902 147.334 91.1738C147.006 91.3574 146.717 91.6152 146.467 91.9473C146.221 92.2754 146.027 92.6621 145.887 93.1074C145.75 93.5488 145.682 94.0293 145.682 94.5488C145.682 94.9824 145.756 95.3555 145.904 95.668C146.057 95.9805 146.27 96.2227 146.543 96.3945C146.82 96.5664 147.148 96.6523 147.527 96.6523C147.848 96.6523 148.146 96.5957 148.424 96.4824C148.705 96.3652 148.947 96.2051 149.15 96.002C149.354 95.7949 149.5 95.5547 149.59 95.2812H151.342C151.217 95.875 150.971 96.3926 150.604 96.834C150.24 97.2715 149.781 97.6113 149.227 97.8535C148.676 98.0957 148.059 98.2168 147.375 98.2168C146.668 98.2168 146.051 98.0723 145.523 97.7832C145 97.4902 144.594 97.0781 144.305 96.5469C144.016 96.0117 143.871 95.3867 143.871 94.6719C143.871 93.8906 143.986 93.1738 144.217 92.5215C144.447 91.8691 144.77 91.3047 145.184 90.8281C145.598 90.3516 146.088 89.9824 146.654 89.7207C147.225 89.459 147.846 89.3281 148.518 89.3281C149.166 89.3281 149.746 89.459 150.258 89.7207C150.773 89.9785 151.18 90.332 151.477 90.7812C151.777 91.2266 151.928 91.7285 151.928 92.2871C151.928 92.3301 151.926 92.373 151.922 92.416C151.922 92.4551 151.92 92.498 151.916 92.5449H150.193ZM155.584 96.7402C155.904 96.7402 156.195 96.6309 156.457 96.4121C156.723 96.1895 156.934 95.8965 157.09 95.5332C157.25 95.166 157.33 94.7617 157.33 94.3203C157.33 93.8398 157.227 93.4648 157.02 93.1953C156.812 92.9258 156.523 92.791 156.152 92.791C155.812 92.791 155.508 92.9004 155.238 93.1191C154.973 93.334 154.762 93.6289 154.605 94.0039C154.449 94.375 154.371 94.7949 154.371 95.2637C154.371 95.7207 154.48 96.082 154.699 96.3477C154.918 96.6094 155.213 96.7402 155.584 96.7402ZM156.246 91.3965C156.824 91.3965 157.328 91.5137 157.758 91.748C158.188 91.9824 158.521 92.3125 158.76 92.7383C158.998 93.1602 159.117 93.6562 159.117 94.2266C159.117 94.7852 159.025 95.3027 158.842 95.7793C158.662 96.2559 158.408 96.6719 158.08 97.0273C157.752 97.3789 157.367 97.6523 156.926 97.8477C156.484 98.043 156.004 98.1406 155.484 98.1406C154.906 98.1406 154.4 98.0234 153.967 97.7891C153.533 97.5547 153.195 97.2246 152.953 96.7988C152.715 96.373 152.596 95.8789 152.596 95.3164C152.596 94.75 152.686 94.2285 152.865 93.752C153.049 93.2754 153.305 92.8613 153.633 92.5098C153.961 92.1543 154.346 91.8809 154.787 91.6895C155.232 91.4941 155.719 91.3965 156.246 91.3965ZM159.861 98L161.76 89.0703H163.477L161.578 98H159.861ZM163.342 98L165.24 89.0703H166.957L165.059 98H163.342ZM168.979 94.0801H171.785C171.789 94.0605 171.793 94.0293 171.797 93.9863C171.801 93.9395 171.803 93.8965 171.803 93.8574C171.803 93.6426 171.754 93.4492 171.656 93.2773C171.562 93.1016 171.426 92.9629 171.246 92.8613C171.07 92.7598 170.857 92.709 170.607 92.709C170.346 92.709 170.105 92.7676 169.887 92.8848C169.668 92.998 169.48 93.1582 169.324 93.3652C169.168 93.5684 169.053 93.8066 168.979 94.0801ZM170.039 98.1406C169.484 98.1406 168.99 98.0312 168.557 97.8125C168.127 97.5938 167.789 97.2773 167.543 96.8633C167.301 96.4453 167.18 95.9453 167.18 95.3633C167.18 94.7734 167.264 94.2363 167.432 93.752C167.6 93.2637 167.84 92.8438 168.152 92.4922C168.465 92.1406 168.834 91.8711 169.26 91.6836C169.689 91.4922 170.162 91.3965 170.678 91.3965C171.193 91.3965 171.656 91.5078 172.066 91.7305C172.477 91.9492 172.801 92.2617 173.039 92.668C173.281 93.0742 173.402 93.5527 173.402 94.1035C173.402 94.2324 173.393 94.4023 173.373 94.6133C173.354 94.8242 173.33 95.0059 173.303 95.1582H168.791C168.791 95.1895 168.789 95.2207 168.785 95.252C168.785 95.2793 168.785 95.3086 168.785 95.3398C168.785 95.6719 168.848 95.9473 168.973 96.166C169.098 96.3809 169.264 96.543 169.471 96.6523C169.678 96.7578 169.902 96.8105 170.145 96.8105C170.473 96.8105 170.742 96.75 170.953 96.6289C171.168 96.5078 171.324 96.3457 171.422 96.1426H173.062C172.965 96.5371 172.777 96.8848 172.5 97.1855C172.227 97.4863 171.881 97.7207 171.463 97.8887C171.045 98.0566 170.57 98.1406 170.039 98.1406ZM178.066 91.3965C178.594 91.3965 179.049 91.498 179.432 91.7012C179.818 91.9043 180.123 92.166 180.346 92.4863C180.568 92.8066 180.695 93.1484 180.727 93.5117C180.73 93.5508 180.732 93.5918 180.732 93.6348C180.736 93.6777 180.738 93.7207 180.738 93.7637H179.121C179.105 93.4629 178.988 93.2266 178.77 93.0547C178.551 92.8828 178.279 92.7969 177.955 92.7969C177.697 92.7969 177.461 92.8613 177.246 92.9902C177.031 93.1152 176.846 93.291 176.689 93.5176C176.533 93.7441 176.412 94.0078 176.326 94.3086C176.244 94.6094 176.203 94.9355 176.203 95.2871C176.203 95.6113 176.258 95.8809 176.367 96.0957C176.477 96.3105 176.623 96.4707 176.807 96.5762C176.99 96.6777 177.195 96.7285 177.422 96.7285C177.742 96.7285 178.018 96.6504 178.248 96.4941C178.479 96.3379 178.643 96.1113 178.74 95.8145H180.375C180.301 96.2441 180.131 96.6367 179.865 96.9922C179.6 97.3438 179.25 97.623 178.816 97.8301C178.387 98.0371 177.889 98.1406 177.322 98.1406C176.748 98.1406 176.25 98.0293 175.828 97.8066C175.406 97.5801 175.078 97.2637 174.844 96.8574C174.613 96.4473 174.498 95.9668 174.498 95.416C174.498 94.6504 174.646 93.9648 174.943 93.3594C175.244 92.75 175.662 92.2715 176.197 91.9238C176.736 91.5723 177.359 91.3965 178.066 91.3965ZM183.926 98.0234C183.379 98.0234 182.936 97.9043 182.596 97.666C182.26 97.4238 182.092 97.084 182.092 96.6465C182.092 96.5645 182.098 96.4766 182.109 96.3828C182.121 96.2852 182.137 96.1875 182.156 96.0898L182.836 92.9434H181.799L182.08 91.6016H183.111L183.451 90.002H185.162L184.822 91.6016H186.199L185.912 92.9434H184.547L183.938 95.75C183.926 95.8242 183.914 95.8945 183.902 95.9609C183.895 96.0234 183.891 96.0781 183.891 96.125C183.891 96.3242 183.951 96.4707 184.072 96.5645C184.197 96.6543 184.375 96.6992 184.605 96.6992C184.672 96.6992 184.734 96.6973 184.793 96.6934C184.852 96.6895 184.908 96.6855 184.963 96.6816C185.018 96.6777 185.068 96.6719 185.115 96.6641L184.852 97.9473C184.758 97.9707 184.629 97.9883 184.465 98C184.301 98.0156 184.121 98.0234 183.926 98.0234ZM186.275 98L187.646 91.5371H189.352L187.98 98H186.275ZM188.906 90.5703C188.645 90.5703 188.418 90.4746 188.227 90.2832C188.035 90.0918 187.939 89.8613 187.939 89.5918C187.939 89.3223 188.035 89.0938 188.227 88.9062C188.418 88.7148 188.645 88.6191 188.906 88.6191C189.172 88.6191 189.398 88.7148 189.586 88.9062C189.773 89.0938 189.867 89.3223 189.867 89.5918C189.867 89.8613 189.773 90.0918 189.586 90.2832C189.398 90.4746 189.172 90.5703 188.906 90.5703ZM193.107 96.7402C193.428 96.7402 193.719 96.6309 193.98 96.4121C194.246 96.1895 194.457 95.8965 194.613 95.5332C194.773 95.166 194.854 94.7617 194.854 94.3203C194.854 93.8398 194.75 93.4648 194.543 93.1953C194.336 92.9258 194.047 92.791 193.676 92.791C193.336 92.791 193.031 92.9004 192.762 93.1191C192.496 93.334 192.285 93.6289 192.129 94.0039C191.973 94.375 191.895 94.7949 191.895 95.2637C191.895 95.7207 192.004 96.082 192.223 96.3477C192.441 96.6094 192.736 96.7402 193.107 96.7402ZM193.77 91.3965C194.348 91.3965 194.852 91.5137 195.281 91.748C195.711 91.9824 196.045 92.3125 196.283 92.7383C196.521 93.1602 196.641 93.6562 196.641 94.2266C196.641 94.7852 196.549 95.3027 196.365 95.7793C196.186 96.2559 195.932 96.6719 195.604 97.0273C195.275 97.3789 194.891 97.6523 194.449 97.8477C194.008 98.043 193.527 98.1406 193.008 98.1406C192.43 98.1406 191.924 98.0234 191.49 97.7891C191.057 97.5547 190.719 97.2246 190.477 96.7988C190.238 96.373 190.119 95.8789 190.119 95.3164C190.119 94.75 190.209 94.2285 190.389 93.752C190.572 93.2754 190.828 92.8613 191.156 92.5098C191.484 92.1543 191.869 91.8809 192.311 91.6895C192.756 91.4941 193.242 91.3965 193.77 91.3965ZM197.338 98L198.715 91.5371H200.373L200.15 92.5625H200.256C200.463 92.2305 200.73 91.959 201.059 91.748C201.387 91.5371 201.781 91.4316 202.242 91.4316C202.645 91.4316 202.988 91.5156 203.273 91.6836C203.562 91.8516 203.783 92.0781 203.936 92.3633C204.092 92.6445 204.17 92.9648 204.17 93.3242C204.17 93.4375 204.162 93.5605 204.146 93.6934C204.135 93.8223 204.113 93.9551 204.082 94.0918L203.256 98H201.551L202.324 94.373C202.344 94.2793 202.357 94.1934 202.365 94.1152C202.377 94.0332 202.383 93.9551 202.383 93.8809C202.383 93.584 202.291 93.3418 202.107 93.1543C201.928 92.9629 201.67 92.8672 201.334 92.8672C201.08 92.8672 200.852 92.9258 200.648 93.043C200.449 93.1562 200.283 93.3125 200.15 93.5117C200.018 93.7109 199.922 93.9375 199.863 94.1914L199.049 98H197.338Z" fill="#605DEC"/>
<path d="M219.92 92.2256L216.66 95.4856C216.275 95.8706 215.645 95.8706 215.26 95.4856L212 92.2256" stroke="white" stroke-width="1.5" stroke-miterlimit="10" stroke-linecap="round" stroke-linejoin="round"/>
<path d="M24.6289 128.199C23.8203 128.199 23.127 128.02 22.5488 127.66C21.9707 127.297 21.5254 126.783 21.2129 126.119C20.9043 125.455 20.75 124.674 20.75 123.775V123.764C20.75 122.857 20.9062 122.074 21.2188 121.414C21.5352 120.754 21.9824 120.244 22.5605 119.885C23.1426 119.525 23.832 119.346 24.6289 119.346C25.4297 119.346 26.1191 119.525 26.6973 119.885C27.2793 120.244 27.7266 120.756 28.0391 121.42C28.3516 122.08 28.5078 122.861 28.5078 123.764V123.775C28.5078 124.674 28.3516 125.455 28.0391 126.119C27.7305 126.779 27.2852 127.291 26.7031 127.654C26.125 128.018 25.4336 128.199 24.6289 128.199ZM24.6289 127.227C25.207 127.227 25.7051 127.084 26.123 126.799C26.541 126.514 26.8633 126.113 27.0898 125.598C27.3164 125.078 27.4297 124.471 27.4297 123.775V123.764C27.4297 123.061 27.3164 122.451 27.0898 121.936C26.8633 121.42 26.541 121.021 26.123 120.74C25.7051 120.459 25.207 120.318 24.6289 120.318C24.0547 120.318 23.5586 120.459 23.1406 120.74C22.7227 121.021 22.3984 121.42 22.168 121.936C21.9414 122.451 21.8281 123.061 21.8281 123.764V123.775C21.8281 124.471 21.9395 125.078 22.1621 125.598C22.3848 126.113 22.7051 126.514 23.123 126.799C23.541 127.084 24.043 127.227 24.6289 127.227ZM26.9258 128.955L24.4707 125.58H25.6543L28.1094 128.955H26.9258ZM32.3223 128.111C31.8457 128.111 31.4453 128.021 31.1211 127.842C30.7969 127.658 30.5527 127.393 30.3887 127.045C30.2285 126.693 30.1484 126.27 30.1484 125.773V121.684H31.168V125.527C31.168 126.094 31.2773 126.516 31.4961 126.793C31.7188 127.07 32.082 127.209 32.5859 127.209C32.8633 127.209 33.1074 127.168 33.3184 127.086C33.5332 127.004 33.7129 126.887 33.8574 126.734C34.002 126.578 34.1094 126.391 34.1797 126.172C34.2539 125.949 34.291 125.699 34.291 125.422V121.684H35.3105V128H34.291V127.057H34.1973C34.0957 127.279 33.957 127.471 33.7812 127.631C33.6055 127.787 33.3945 127.906 33.1484 127.988C32.9062 128.07 32.6309 128.111 32.3223 128.111ZM38.9492 128.111C38.5508 128.111 38.1914 128.035 37.8711 127.883C37.5547 127.73 37.3027 127.514 37.1152 127.232C36.9316 126.951 36.8398 126.619 36.8398 126.236V126.225C36.8398 125.85 36.9297 125.529 37.1094 125.264C37.2891 124.994 37.5508 124.783 37.8945 124.631C38.2383 124.479 38.6543 124.389 39.1426 124.361L41.4629 124.221V125.035L39.2656 125.176C38.7852 125.203 38.4336 125.303 38.2109 125.475C37.9922 125.646 37.8828 125.889 37.8828 126.201V126.213C37.8828 126.533 38.0039 126.783 38.2461 126.963C38.4883 127.139 38.793 127.227 39.1602 127.227C39.5078 127.227 39.8164 127.158 40.0859 127.021C40.3555 126.881 40.5664 126.691 40.7188 126.453C40.875 126.215 40.9531 125.945 40.9531 125.645V123.676C40.9531 123.285 40.834 122.988 40.5957 122.785C40.3613 122.578 40.0078 122.475 39.5352 122.475C39.1562 122.475 38.8457 122.543 38.6035 122.68C38.3613 122.812 38.1992 123.002 38.1172 123.248L38.1113 123.266H37.0918L37.0977 123.23C37.1523 122.898 37.2891 122.609 37.5078 122.363C37.7305 122.113 38.0176 121.92 38.3691 121.783C38.7207 121.643 39.1211 121.572 39.5703 121.572C40.0859 121.572 40.5215 121.656 40.877 121.824C41.2363 121.992 41.5078 122.234 41.6914 122.551C41.8789 122.863 41.9727 123.238 41.9727 123.676V128H40.9531V127.068H40.8594C40.7266 127.291 40.5645 127.48 40.373 127.637C40.1855 127.793 39.9727 127.912 39.7344 127.994C39.4961 128.072 39.2344 128.111 38.9492 128.111ZM43.8359 128V121.684H44.8555V122.633H44.9492C45.1094 122.297 45.3398 122.037 45.6406 121.854C45.9414 121.666 46.3242 121.572 46.7891 121.572C47.5 121.572 48.0449 121.775 48.4238 122.182C48.8066 122.584 48.998 123.16 48.998 123.91V128H47.9785V124.156C47.9785 123.586 47.8574 123.164 47.6152 122.891C47.377 122.613 47.0059 122.475 46.502 122.475C46.166 122.475 45.875 122.547 45.6289 122.691C45.3828 122.836 45.1914 123.041 45.0547 123.307C44.9219 123.572 44.8555 123.891 44.8555 124.262V128H43.8359ZM53.0879 128.047C52.4395 128.047 51.9688 127.916 51.6758 127.654C51.3867 127.393 51.2422 126.961 51.2422 126.359V122.527H50.2461V121.684H51.2422V120.049H52.2969V121.684H53.6797V122.527H52.2969V126.102C52.2969 126.473 52.3672 126.74 52.5078 126.904C52.6484 127.064 52.8828 127.145 53.2109 127.145C53.3008 127.145 53.377 127.143 53.4395 127.139C53.5059 127.135 53.5859 127.129 53.6797 127.121V127.988C53.582 128.004 53.4844 128.018 53.3867 128.029C53.2891 128.041 53.1895 128.047 53.0879 128.047ZM55.2266 128V121.684H56.2461V128H55.2266ZM55.7422 120.465C55.5508 120.465 55.3848 120.396 55.2441 120.26C55.1074 120.119 55.0391 119.953 55.0391 119.762C55.0391 119.566 55.1074 119.4 55.2441 119.264C55.3848 119.127 55.5508 119.059 55.7422 119.059C55.9375 119.059 56.1035 119.127 56.2402 119.264C56.377 119.4 56.4453 119.566 56.4453 119.762C56.4453 119.953 56.377 120.119 56.2402 120.26C56.1035 120.396 55.9375 120.465 55.7422 120.465ZM60.4121 128.047C59.7637 128.047 59.293 127.916 59 127.654C58.7109 127.393 58.5664 126.961 58.5664 126.359V122.527H57.5703V121.684H58.5664V120.049H59.6211V121.684H61.0039V122.527H59.6211V126.102C59.6211 126.473 59.6914 126.74 59.832 126.904C59.9727 127.064 60.207 127.145 60.5352 127.145C60.625 127.145 60.7012 127.143 60.7637 127.139C60.8301 127.135 60.9102 127.129 61.0039 127.121V127.988C60.9062 128.004 60.8086 128.018 60.7109 128.029C60.6133 128.041 60.5137 128.047 60.4121 128.047ZM63.0664 130.215C63 130.215 62.9258 130.211 62.8438 130.203C62.7617 130.199 62.6855 130.191 62.6152 130.18V129.342C62.6777 129.354 62.7461 129.361 62.8203 129.365C62.8945 129.369 62.9668 129.371 63.0371 129.371C63.3262 129.371 63.5625 129.297 63.7461 129.148C63.9336 129 64.084 128.744 64.1973 128.381L64.3145 128.006L61.9766 121.684H63.0664L65.0117 127.52L64.6074 126.881H65.0879L64.6836 127.52L66.623 121.684H67.6953L65.2285 128.387C65.0566 128.859 64.875 129.229 64.6836 129.494C64.4922 129.76 64.2676 129.945 64.0098 130.051C63.7559 130.16 63.4414 130.215 63.0664 130.215Z" fill="#D3D0FB"/>
<g filter="url(#filter0_d_214_4624)">
<path d="M20 140C20 135.582 23.5817 132 28 132H76V188H28C23.5817 188 20 184.418 20 180V140Z" fill="#747480" fill-opacity="0.08"/>
<path d="M42.04 161.086C41.8574 161.086 41.6859 161.039 41.5254 160.945C41.3649 160.845 41.2349 160.715 41.1353 160.555C41.0356 160.389 40.9858 160.209 40.9858 160.015C40.9858 159.821 41.0356 159.644 41.1353 159.484C41.2349 159.323 41.3649 159.196 41.5254 159.102C41.6859 159.002 41.8574 158.953 42.04 158.953H53.9517C54.1398 158.953 54.3141 159.002 54.4746 159.102C54.6351 159.196 54.7624 159.323 54.8564 159.484C54.9561 159.644 55.0059 159.821 55.0059 160.015C55.0059 160.209 54.9561 160.389 54.8564 160.555C54.7624 160.715 54.6351 160.845 54.4746 160.945C54.3141 161.039 54.1398 161.086 53.9517 161.086H42.04Z" fill="#6865E7"/>
<rect width="56" height="56" transform="translate(76 132)" fill="#212121"/>
<path d="M103.992 166.299C103.04 166.299 102.224 166.044 101.543 165.535C100.868 165.026 100.348 164.301 99.9824 163.36C99.6172 162.42 99.4346 161.305 99.4346 160.015V159.999C99.4346 158.709 99.6172 157.597 99.9824 156.662C100.348 155.721 100.868 154.996 101.543 154.487C102.224 153.978 103.04 153.723 103.992 153.723C104.944 153.723 105.76 153.978 106.44 154.487C107.121 154.996 107.644 155.721 108.009 156.662C108.375 157.597 108.557 158.709 108.557 159.999V160.015C108.557 161.305 108.375 162.42 108.009 163.36C107.644 164.301 107.121 165.026 106.44 165.535C105.76 166.044 104.944 166.299 103.992 166.299ZM103.992 164.564C104.501 164.564 104.935 164.381 105.295 164.016C105.655 163.651 105.929 163.131 106.117 162.456C106.31 161.775 106.407 160.961 106.407 160.015V159.999C106.407 159.052 106.31 158.242 106.117 157.566C105.929 156.886 105.655 156.366 105.295 156.006C104.935 155.641 104.501 155.458 103.992 155.458C103.483 155.458 103.048 155.641 102.688 156.006C102.334 156.366 102.06 156.886 101.867 157.566C101.679 158.242 101.584 159.052 101.584 159.999V160.015C101.584 160.961 101.679 161.775 101.867 162.456C102.06 163.131 102.334 163.651 102.688 164.016C103.048 164.381 103.483 164.564 103.992 164.564Z" fill="white"/>
<path d="M132 132H180C184.418 132 188 135.582 188 140V180C188 184.418 184.418 188 180 188H132V132Z" fill="#747480" fill-opacity="0.08"/>
<path d="M152.978 160.007C152.978 159.714 153.083 159.462 153.293 159.251C153.503 159.041 153.755 158.936 154.048 158.936H158.938V154.055C158.938 153.762 159.04 153.51 159.245 153.3C159.449 153.09 159.701 152.984 160 152.984C160.293 152.984 160.545 153.09 160.755 153.3C160.966 153.51 161.071 153.762 161.071 154.055V158.936H165.96C166.248 158.936 166.497 159.041 166.707 159.251C166.917 159.462 167.022 159.714 167.022 160.007C167.022 160.306 166.917 160.56 166.707 160.771C166.497 160.975 166.248 161.078 165.96 161.078H161.071V165.967C161.071 166.255 160.966 166.504 160.755 166.714C160.545 166.924 160.293 167.029 160 167.029C159.701 167.029 159.449 166.924 159.245 166.714C159.04 166.504 158.938 166.255 158.938 165.967V161.078H154.048C153.755 161.078 153.503 160.975 153.293 160.771C153.083 160.56 152.978 160.306 152.978 160.007Z" fill="#6865E7"/>
</g>
<path d="M23.5215 215L20.4043 206.545H21.5117L23.9961 213.635H24.0898L26.5742 206.545H27.6816L24.5645 215H23.5215ZM30.1836 215.111C29.7852 215.111 29.4258 215.035 29.1055 214.883C28.7891 214.73 28.5371 214.514 28.3496 214.232C28.166 213.951 28.0742 213.619 28.0742 213.236V213.225C28.0742 212.85 28.1641 212.529 28.3438 212.264C28.5234 211.994 28.7852 211.783 29.1289 211.631C29.4727 211.479 29.8887 211.389 30.377 211.361L32.6973 211.221V212.035L30.5 212.176C30.0195 212.203 29.668 212.303 29.4453 212.475C29.2266 212.646 29.1172 212.889 29.1172 213.201V213.213C29.1172 213.533 29.2383 213.783 29.4805 213.963C29.7227 214.139 30.0273 214.227 30.3945 214.227C30.7422 214.227 31.0508 214.158 31.3203 214.021C31.5898 213.881 31.8008 213.691 31.9531 213.453C32.1094 213.215 32.1875 212.945 32.1875 212.645V210.676C32.1875 210.285 32.0684 209.988 31.8301 209.785C31.5957 209.578 31.2422 209.475 30.7695 209.475C30.3906 209.475 30.0801 209.543 29.8379 209.68C29.5957 209.812 29.4336 210.002 29.3516 210.248L29.3457 210.266H28.3262L28.332 210.23C28.3867 209.898 28.5234 209.609 28.7422 209.363C28.9648 209.113 29.252 208.92 29.6035 208.783C29.9551 208.643 30.3555 208.572 30.8047 208.572C31.3203 208.572 31.7559 208.656 32.1113 208.824C32.4707 208.992 32.7422 209.234 32.9258 209.551C33.1133 209.863 33.207 210.238 33.207 210.676V215H32.1875V214.068H32.0938C31.9609 214.291 31.7988 214.48 31.6074 214.637C31.4199 214.793 31.207 214.912 30.9688 214.994C30.7305 215.072 30.4688 215.111 30.1836 215.111ZM35.0703 215V208.684H36.0898V209.621H36.1836C36.3047 209.289 36.5098 209.031 36.7988 208.848C37.0879 208.664 37.4453 208.572 37.8711 208.572C37.9688 208.572 38.0645 208.578 38.1582 208.59C38.2559 208.598 38.3301 208.605 38.3809 208.613V209.604C38.2754 209.584 38.1719 209.57 38.0703 209.562C37.9727 209.551 37.8672 209.545 37.7539 209.545C37.4297 209.545 37.1426 209.609 36.8926 209.738C36.6426 209.867 36.4453 210.047 36.3008 210.277C36.1602 210.508 36.0898 210.777 36.0898 211.086V215H35.0703ZM39.6641 215V208.684H40.6836V215H39.6641ZM40.1797 207.465C39.9883 207.465 39.8223 207.396 39.6816 207.26C39.5449 207.119 39.4766 206.953 39.4766 206.762C39.4766 206.566 39.5449 206.4 39.6816 206.264C39.8223 206.127 39.9883 206.059 40.1797 206.059C40.375 206.059 40.541 206.127 40.6777 206.264C40.8145 206.4 40.8828 206.566 40.8828 206.762C40.8828 206.953 40.8145 207.119 40.6777 207.26C40.541 207.396 40.375 207.465 40.1797 207.465ZM44.3398 215.111C43.9414 215.111 43.582 215.035 43.2617 214.883C42.9453 214.73 42.6934 214.514 42.5059 214.232C42.3223 213.951 42.2305 213.619 42.2305 213.236V213.225C42.2305 212.85 42.3203 212.529 42.5 212.264C42.6797 211.994 42.9414 211.783 43.2852 211.631C43.6289 211.479 44.0449 211.389 44.5332 211.361L46.8535 211.221V212.035L44.6562 212.176C44.1758 212.203 43.8242 212.303 43.6016 212.475C43.3828 212.646 43.2734 212.889 43.2734 213.201V213.213C43.2734 213.533 43.3945 213.783 43.6367 213.963C43.8789 214.139 44.1836 214.227 44.5508 214.227C44.8984 214.227 45.207 214.158 45.4766 214.021C45.7461 213.881 45.957 213.691 46.1094 213.453C46.2656 213.215 46.3438 212.945 46.3438 212.645V210.676C46.3438 210.285 46.2246 209.988 45.9863 209.785C45.752 209.578 45.3984 209.475 44.9258 209.475C44.5469 209.475 44.2363 209.543 43.9941 209.68C43.752 209.812 43.5898 210.002 43.5078 210.248L43.502 210.266H42.4824L42.4883 210.23C42.543 209.898 42.6797 209.609 42.8984 209.363C43.1211 209.113 43.4082 208.92 43.7598 208.783C44.1113 208.643 44.5117 208.572 44.9609 208.572C45.4766 208.572 45.9121 208.656 46.2676 208.824C46.627 208.992 46.8984 209.234 47.082 209.551C47.2695 209.863 47.3633 210.238 47.3633 210.676V215H46.3438V214.068H46.25C46.1172 214.291 45.9551 214.48 45.7637 214.637C45.5762 214.793 45.3633 214.912 45.125 214.994C44.8867 215.072 44.625 215.111 44.3398 215.111ZM49.2266 215V208.684H50.2461V209.633H50.3398C50.5 209.297 50.7305 209.037 51.0312 208.854C51.332 208.666 51.7148 208.572 52.1797 208.572C52.8906 208.572 53.4355 208.775 53.8145 209.182C54.1973 209.584 54.3887 210.16 54.3887 210.91V215H53.3691V211.156C53.3691 210.586 53.248 210.164 53.0059 209.891C52.7676 209.613 52.3965 209.475 51.8926 209.475C51.5566 209.475 51.2656 209.547 51.0195 209.691C50.7734 209.836 50.582 210.041 50.4453 210.307C50.3125 210.572 50.2461 210.891 50.2461 211.262V215H49.2266ZM58.4785 215.047C57.8301 215.047 57.3594 214.916 57.0664 214.654C56.7773 214.393 56.6328 213.961 56.6328 213.359V209.527H55.6367V208.684H56.6328V207.049H57.6875V208.684H59.0703V209.527H57.6875V213.102C57.6875 213.473 57.7578 213.74 57.8984 213.904C58.0391 214.064 58.2734 214.145 58.6016 214.145C58.6914 214.145 58.7676 214.143 58.8301 214.139C58.8965 214.135 58.9766 214.129 59.0703 214.121V214.988C58.9727 215.004 58.875 215.018 58.7773 215.029C58.6797 215.041 58.5801 215.047 58.4785 215.047Z" fill="#D3D0FB"/>
<g filter="url(#filter1_d_214_4624)">
<rect x="20" y="219" width="172" height="56" rx="4" fill="#212121" shape-rendering="crispEdges"/>
<rect x="20.5" y="219.5" width="171" height="55" rx="3.5" stroke="#313132" shape-rendering="crispEdges"/>
<path d="M41.3906 252.5V241.227H43.1406L49.1875 249.703L47.7969 248.992H48.8047V241.227H50.7422V252.5H49L42.9531 244.016L44.3438 244.727H43.3359V252.5H41.3906ZM57.0156 252.672C56.1667 252.672 55.4349 252.495 54.8203 252.141C54.2057 251.781 53.7318 251.271 53.3984 250.609C53.0703 249.948 52.9062 249.156 52.9062 248.234V248.219C52.9062 247.307 53.0729 246.521 53.4062 245.859C53.7396 245.193 54.2109 244.682 54.8203 244.328C55.4349 243.974 56.1667 243.797 57.0156 243.797C57.8646 243.797 58.5938 243.974 59.2031 244.328C59.8177 244.682 60.2917 245.19 60.625 245.852C60.9583 246.513 61.125 247.302 61.125 248.219V248.234C61.125 249.156 60.9583 249.948 60.625 250.609C60.2969 251.271 59.8255 251.781 59.2109 252.141C58.6016 252.495 57.8698 252.672 57.0156 252.672ZM57.0156 251.094C57.4635 251.094 57.8438 250.982 58.1562 250.758C58.474 250.529 58.7161 250.203 58.8828 249.781C59.0495 249.354 59.1328 248.841 59.1328 248.242V248.227C59.1328 247.622 59.0495 247.109 58.8828 246.688C58.7161 246.26 58.474 245.935 58.1562 245.711C57.8438 245.482 57.4635 245.367 57.0156 245.367C56.5677 245.367 56.1849 245.482 55.8672 245.711C55.5495 245.935 55.3073 246.26 55.1406 246.688C54.974 247.109 54.8906 247.622 54.8906 248.227V248.242C54.8906 248.841 54.974 249.354 55.1406 249.781C55.3073 250.208 55.5469 250.534 55.8594 250.758C56.1771 250.982 56.5625 251.094 57.0156 251.094ZM63.0781 252.5V243.961H65.0234V245.273H65.1562C65.3021 244.815 65.5625 244.458 65.9375 244.203C66.3177 243.948 66.7891 243.82 67.3516 243.82C67.4974 243.82 67.6406 243.831 67.7812 243.852C67.9271 243.867 68.0469 243.888 68.1406 243.914V245.656C67.9844 245.62 67.8255 245.594 67.6641 245.578C67.5078 245.557 67.3438 245.547 67.1719 245.547C66.7396 245.547 66.362 245.628 66.0391 245.789C65.7161 245.951 65.4661 246.182 65.2891 246.484C65.112 246.781 65.0234 247.133 65.0234 247.539V252.5H63.0781ZM69.8281 252.5V243.961H71.7734V245.289H71.9062C72.0885 244.815 72.3828 244.448 72.7891 244.188C73.2005 243.927 73.6875 243.797 74.25 243.797C74.6354 243.797 74.9818 243.859 75.2891 243.984C75.6016 244.109 75.8698 244.286 76.0938 244.516C76.3177 244.745 76.4896 245.018 76.6094 245.336H76.75C76.8906 245.029 77.0859 244.76 77.3359 244.531C77.5911 244.297 77.888 244.117 78.2266 243.992C78.5703 243.862 78.9401 243.797 79.3359 243.797C79.9089 243.797 80.3984 243.911 80.8047 244.141C81.2161 244.365 81.5312 244.688 81.75 245.109C81.974 245.531 82.0859 246.036 82.0859 246.625V252.5H80.1406V247.102C80.1406 246.727 80.0833 246.417 79.9688 246.172C79.8594 245.927 79.6901 245.742 79.4609 245.617C79.2318 245.492 78.9427 245.43 78.5938 245.43C78.2552 245.43 77.9609 245.508 77.7109 245.664C77.4609 245.815 77.2656 246.021 77.125 246.281C76.9896 246.542 76.9219 246.836 76.9219 247.164V252.5H74.9766V246.961C74.9766 246.643 74.9141 246.37 74.7891 246.141C74.6693 245.911 74.4922 245.737 74.2578 245.617C74.0286 245.492 73.7552 245.43 73.4375 245.43C73.1198 245.43 72.8333 245.513 72.5781 245.68C72.3281 245.841 72.1302 246.065 71.9844 246.352C71.8438 246.633 71.7734 246.951 71.7734 247.305V252.5H69.8281ZM86.7031 252.641C86.1667 252.641 85.6849 252.536 85.2578 252.328C84.8359 252.12 84.5026 251.826 84.2578 251.445C84.0182 251.06 83.8984 250.607 83.8984 250.086V250.07C83.8984 249.565 84.0234 249.13 84.2734 248.766C84.5234 248.396 84.8906 248.107 85.375 247.898C85.8594 247.69 86.4479 247.568 87.1406 247.531L90.2969 247.336V248.617L87.4141 248.805C86.8672 248.836 86.4635 248.951 86.2031 249.148C85.9427 249.346 85.8125 249.622 85.8125 249.977V249.992C85.8125 250.357 85.9505 250.641 86.2266 250.844C86.5078 251.047 86.8646 251.148 87.2969 251.148C87.6875 251.148 88.0365 251.07 88.3438 250.914C88.651 250.758 88.8932 250.547 89.0703 250.281C89.2474 250.01 89.3359 249.706 89.3359 249.367V246.664C89.3359 246.237 89.2005 245.911 88.9297 245.688C88.6589 245.458 88.2578 245.344 87.7266 245.344C87.2839 245.344 86.9219 245.422 86.6406 245.578C86.3594 245.729 86.1693 245.945 86.0703 246.227L86.0625 246.258H84.2266L84.2344 246.188C84.2969 245.708 84.4844 245.289 84.7969 244.93C85.1094 244.57 85.5234 244.292 86.0391 244.094C86.5547 243.896 87.1484 243.797 87.8203 243.797C88.5599 243.797 89.1849 243.911 89.6953 244.141C90.2057 244.365 90.5938 244.693 90.8594 245.125C91.125 245.552 91.2578 246.065 91.2578 246.664V252.5H89.3359V251.328H89.2031C89.0469 251.599 88.8438 251.833 88.5938 252.031C88.349 252.229 88.0677 252.38 87.75 252.484C87.4323 252.589 87.0833 252.641 86.7031 252.641ZM93.6719 252.5V240.656H95.6172V252.5H93.6719Z" fill="white"/>
<g clip-path="url(#clip0_214_4624)">
<path fill-rule="evenodd" clip-rule="evenodd" d="M160.707 250.707C160.52 250.895 160.265 251 160 251C159.735 251 159.481 250.895 159.293 250.707L153.636 245.05C153.541 244.958 153.464 244.848 153.412 244.726C153.36 244.604 153.332 244.473 153.331 244.34C153.33 244.207 153.355 244.075 153.405 243.952C153.456 243.829 153.53 243.718 153.624 243.624C153.718 243.53 153.829 243.456 153.952 243.406C154.075 243.355 154.207 243.33 154.34 243.331C154.472 243.332 154.603 243.36 154.726 243.412C154.848 243.465 154.958 243.541 155.05 243.636L160 248.586L164.95 243.636C165.139 243.454 165.391 243.353 165.654 243.356C165.916 243.358 166.167 243.463 166.352 243.649C166.537 243.834 166.642 244.085 166.645 244.347C166.647 244.609 166.546 244.862 166.364 245.05L160.707 250.707Z" fill="#6865E7"/>
</g>
</g>
<path d="M202.482 215.199C201.717 215.199 201.055 215.02 200.496 214.66C199.938 214.301 199.506 213.791 199.201 213.131C198.9 212.471 198.75 211.688 198.75 210.781V210.77C198.75 209.859 198.9 209.074 199.201 208.414C199.506 207.754 199.936 207.244 200.49 206.885C201.049 206.525 201.711 206.346 202.477 206.346C203.07 206.346 203.609 206.463 204.094 206.697C204.582 206.928 204.984 207.25 205.301 207.664C205.617 208.074 205.816 208.549 205.898 209.088L205.893 209.1H204.832L204.826 209.088C204.732 208.725 204.574 208.412 204.352 208.15C204.129 207.885 203.857 207.68 203.537 207.535C203.221 207.391 202.867 207.318 202.477 207.318C201.938 207.318 201.469 207.459 201.07 207.74C200.676 208.021 200.371 208.42 200.156 208.936C199.941 209.451 199.834 210.062 199.834 210.77V210.781C199.834 211.484 199.941 212.094 200.156 212.609C200.371 213.125 200.676 213.523 201.07 213.805C201.469 214.086 201.939 214.227 202.482 214.227C202.877 214.227 203.234 214.164 203.555 214.039C203.875 213.91 204.145 213.729 204.363 213.494C204.582 213.256 204.734 212.975 204.82 212.65L204.832 212.639H205.898V212.65C205.805 213.166 205.602 213.615 205.289 213.998C204.977 214.377 204.58 214.672 204.1 214.883C203.623 215.094 203.084 215.199 202.482 215.199ZM210.135 215.111C209.537 215.111 209.02 214.98 208.582 214.719C208.148 214.453 207.812 214.076 207.574 213.588C207.34 213.1 207.223 212.52 207.223 211.848V211.836C207.223 211.16 207.34 210.578 207.574 210.09C207.812 209.602 208.148 209.227 208.582 208.965C209.02 208.703 209.537 208.572 210.135 208.572C210.736 208.572 211.254 208.703 211.688 208.965C212.121 209.227 212.455 209.602 212.689 210.09C212.928 210.578 213.047 211.16 213.047 211.836V211.848C213.047 212.52 212.928 213.1 212.689 213.588C212.455 214.076 212.121 214.453 211.688 214.719C211.254 214.98 210.736 215.111 210.135 215.111ZM210.135 214.209C210.533 214.209 210.871 214.115 211.148 213.928C211.426 213.74 211.637 213.471 211.781 213.119C211.93 212.768 212.004 212.344 212.004 211.848V211.836C212.004 211.336 211.93 210.91 211.781 210.559C211.637 210.207 211.426 209.939 211.148 209.756C210.871 209.568 210.533 209.475 210.135 209.475C209.736 209.475 209.398 209.568 209.121 209.756C208.844 209.939 208.631 210.207 208.482 210.559C208.338 210.91 208.266 211.336 208.266 211.836V211.848C208.266 212.344 208.338 212.768 208.482 213.119C208.631 213.471 208.844 213.74 209.121 213.928C209.398 214.115 209.736 214.209 210.135 214.209ZM214.629 215V208.684H215.648V209.633H215.742C215.902 209.297 216.133 209.037 216.434 208.854C216.734 208.666 217.117 208.572 217.582 208.572C218.293 208.572 218.838 208.775 219.217 209.182C219.6 209.584 219.791 210.16 219.791 210.91V215H218.771V211.156C218.771 210.586 218.65 210.164 218.408 209.891C218.17 209.613 217.799 209.475 217.295 209.475C216.959 209.475 216.668 209.547 216.422 209.691C216.176 209.836 215.984 210.041 215.848 210.307C215.715 210.572 215.648 210.891 215.648 211.262V215H214.629ZM223.969 215.111C223.438 215.111 222.973 214.977 222.574 214.707C222.176 214.438 221.867 214.059 221.648 213.57C221.43 213.078 221.32 212.504 221.32 211.848V211.836C221.32 211.176 221.43 210.602 221.648 210.113C221.867 209.625 222.174 209.246 222.568 208.977C222.967 208.707 223.434 208.572 223.969 208.572C224.258 208.572 224.529 208.619 224.783 208.713C225.041 208.803 225.27 208.93 225.469 209.094C225.668 209.258 225.824 209.453 225.938 209.68H226.031V206.176H227.051V215H226.031V213.992H225.938C225.809 214.227 225.646 214.428 225.451 214.596C225.256 214.76 225.033 214.887 224.783 214.977C224.533 215.066 224.262 215.111 223.969 215.111ZM224.203 214.209C224.586 214.209 224.916 214.113 225.193 213.922C225.471 213.73 225.684 213.459 225.832 213.107C225.98 212.752 226.055 212.332 226.055 211.848V211.836C226.055 211.348 225.98 210.928 225.832 210.576C225.684 210.225 225.471 209.953 225.193 209.762C224.916 209.57 224.586 209.475 224.203 209.475C223.82 209.475 223.49 209.57 223.213 209.762C222.939 209.949 222.729 210.219 222.58 210.57C222.436 210.922 222.363 211.344 222.363 211.836V211.848C222.363 212.336 222.436 212.758 222.58 213.113C222.729 213.465 222.939 213.736 223.213 213.928C223.49 214.115 223.82 214.209 224.203 214.209ZM229.031 215V208.684H230.051V215H229.031ZM229.547 207.465C229.355 207.465 229.189 207.396 229.049 207.26C228.912 207.119 228.844 206.953 228.844 206.762C228.844 206.566 228.912 206.4 229.049 206.264C229.189 206.127 229.355 206.059 229.547 206.059C229.742 206.059 229.908 206.127 230.045 206.264C230.182 206.4 230.25 206.566 230.25 206.762C230.25 206.953 230.182 207.119 230.045 207.26C229.908 207.396 229.742 207.465 229.547 207.465ZM234.217 215.047C233.568 215.047 233.098 214.916 232.805 214.654C232.516 214.393 232.371 213.961 232.371 213.359V209.527H231.375V208.684H232.371V207.049H233.426V208.684H234.809V209.527H233.426V213.102C233.426 213.473 233.496 213.74 233.637 213.904C233.777 214.064 234.012 214.145 234.34 214.145C234.43 214.145 234.506 214.143 234.568 214.139C234.635 214.135 234.715 214.129 234.809 214.121V214.988C234.711 215.004 234.613 215.018 234.516 215.029C234.418 215.041 234.318 215.047 234.217 215.047ZM236.355 215V208.684H237.375V215H236.355ZM236.871 207.465C236.68 207.465 236.514 207.396 236.373 207.26C236.236 207.119 236.168 206.953 236.168 206.762C236.168 206.566 236.236 206.4 236.373 206.264C236.514 206.127 236.68 206.059 236.871 206.059C237.066 206.059 237.232 206.127 237.369 206.264C237.506 206.4 237.574 206.566 237.574 206.762C237.574 206.953 237.506 207.119 237.369 207.26C237.232 207.396 237.066 207.465 236.871 207.465ZM241.893 215.111C241.295 215.111 240.777 214.98 240.34 214.719C239.906 214.453 239.57 214.076 239.332 213.588C239.098 213.1 238.98 212.52 238.98 211.848V211.836C238.98 211.16 239.098 210.578 239.332 210.09C239.57 209.602 239.906 209.227 240.34 208.965C240.777 208.703 241.295 208.572 241.893 208.572C242.494 208.572 243.012 208.703 243.445 208.965C243.879 209.227 244.213 209.602 244.447 210.09C244.686 210.578 244.805 211.16 244.805 211.836V211.848C244.805 212.52 244.686 213.1 244.447 213.588C244.213 214.076 243.879 214.453 243.445 214.719C243.012 214.98 242.494 215.111 241.893 215.111ZM241.893 214.209C242.291 214.209 242.629 214.115 242.906 213.928C243.184 213.74 243.395 213.471 243.539 213.119C243.688 212.768 243.762 212.344 243.762 211.848V211.836C243.762 211.336 243.688 210.91 243.539 210.559C243.395 210.207 243.184 209.939 242.906 209.756C242.629 209.568 242.291 209.475 241.893 209.475C241.494 209.475 241.156 209.568 240.879 209.756C240.602 209.939 240.389 210.207 240.24 210.559C240.096 210.91 240.023 211.336 240.023 211.836V211.848C240.023 212.344 240.096 212.768 240.24 213.119C240.389 213.471 240.602 213.74 240.879 213.928C241.156 214.115 241.494 214.209 241.893 214.209ZM246.387 215V208.684H247.406V209.633H247.5C247.66 209.297 247.891 209.037 248.191 208.854C248.492 208.666 248.875 208.572 249.34 208.572C250.051 208.572 250.596 208.775 250.975 209.182C251.357 209.584 251.549 210.16 251.549 210.91V215H250.529V211.156C250.529 210.586 250.408 210.164 250.166 209.891C249.928 209.613 249.557 209.475 249.053 209.475C248.717 209.475 248.426 209.547 248.18 209.691C247.934 209.836 247.742 210.041 247.605 210.307C247.473 210.572 247.406 210.891 247.406 211.262V215H246.387Z" fill="#D3D0FB"/>
<g filter="url(#filter2_d_214_4624)">
<rect x="198" y="219" width="172" height="56" rx="4" fill="#212121" shape-rendering="crispEdges"/>
<rect x="198.5" y="219.5" width="171" height="55" rx="3.5" stroke="#313132" shape-rendering="crispEdges"/>
<path d="M219.391 253V241.727H221.703L225.094 250.406H225.227L228.609 241.727H230.922V253H229.109V244.984H228.125L230.125 242.039L225.844 253H224.469L220.195 242.039L222.195 244.984H221.203V253H219.391ZM233.523 253V244.461H235.461V253H233.523ZM234.5 243.031C234.182 243.031 233.909 242.919 233.68 242.695C233.451 242.471 233.336 242.203 233.336 241.891C233.336 241.568 233.451 241.297 233.68 241.078C233.909 240.854 234.182 240.742 234.5 240.742C234.818 240.742 235.089 240.854 235.312 241.078C235.542 241.297 235.656 241.568 235.656 241.891C235.656 242.203 235.542 242.471 235.312 242.695C235.089 242.919 234.818 243.031 234.5 243.031ZM237.859 253V244.461H239.805V245.773H239.938C240.141 245.31 240.448 244.948 240.859 244.688C241.271 244.427 241.784 244.297 242.398 244.297C243.352 244.297 244.081 244.573 244.586 245.125C245.091 245.677 245.344 246.461 245.344 247.477V253H243.398V247.93C243.398 247.263 243.258 246.763 242.977 246.43C242.701 246.096 242.268 245.93 241.68 245.93C241.294 245.93 240.961 246.016 240.68 246.188C240.398 246.359 240.182 246.602 240.031 246.914C239.88 247.227 239.805 247.596 239.805 248.023V253H237.859ZM251 253.039C250.021 253.039 249.315 252.859 248.883 252.5C248.451 252.141 248.234 251.552 248.234 250.734V245.969H246.906V244.461H248.234V242.367H250.211V244.461H252.008V245.969H250.211V250.273C250.211 250.695 250.299 251.005 250.477 251.203C250.659 251.396 250.951 251.492 251.352 251.492C251.492 251.492 251.607 251.49 251.695 251.484C251.789 251.474 251.893 251.464 252.008 251.453V252.953C251.872 252.979 251.716 253 251.539 253.016C251.367 253.031 251.188 253.039 251 253.039Z" fill="white"/>
<g clip-path="url(#clip1_214_4624)">
<path fill-rule="evenodd" clip-rule="evenodd" d="M338.707 250.707C338.52 250.895 338.265 251 338 251C337.735 251 337.481 250.895 337.293 250.707L331.636 245.05C331.541 244.958 331.464 244.848 331.412 244.726C331.36 244.604 331.332 244.473 331.331 244.34C331.33 244.207 331.355 244.075 331.405 243.952C331.456 243.829 331.53 243.718 331.624 243.624C331.718 243.53 331.829 243.456 331.952 243.406C332.075 243.355 332.207 243.33 332.34 243.331C332.472 243.332 332.603 243.36 332.726 243.412C332.848 243.465 332.958 243.541 333.05 243.636L338 248.586L342.95 243.636C343.139 243.454 343.391 243.353 343.654 243.356C343.916 243.358 344.167 243.463 344.352 243.649C344.537 243.834 344.642 244.085 344.645 244.347C344.647 244.609 344.546 244.862 344.364 245.05L338.707 250.707Z" fill="#6865E7"/>
</g>
</g>
<g filter="url(#filter3_d_214_4624)">
<rect x="20" y="290" width="48" height="24" rx="12" fill="#1C1C1C" shape-rendering="crispEdges"/>
<rect x="20.5" y="290.5" width="47" height="23" rx="11.5" stroke="#313132" shape-rendering="crispEdges"/>
<circle cx="32" cy="302" r="8" fill="white"/>
</g>
<path d="M84.1094 308.266C83.3281 308.266 82.6224 308.128 81.9922 307.852C81.3672 307.576 80.8307 307.18 80.3828 306.664C79.9401 306.148 79.599 305.529 79.3594 304.805C79.1198 304.081 79 303.268 79 302.367V302.352C79 301.164 79.2109 300.13 79.6328 299.25C80.0547 298.365 80.6484 297.68 81.4141 297.195C82.1849 296.706 83.0833 296.461 84.1094 296.461C84.9427 296.461 85.6849 296.609 86.3359 296.906C86.9922 297.198 87.5312 297.609 87.9531 298.141C88.3802 298.672 88.6667 299.294 88.8125 300.008L88.8281 300.086H87.4062L87.3828 300.008C87.1536 299.279 86.7604 298.721 86.2031 298.336C85.6458 297.951 84.9479 297.758 84.1094 297.758C83.3646 297.758 82.7161 297.948 82.1641 298.328C81.6172 298.703 81.1927 299.234 80.8906 299.922C80.5885 300.609 80.4375 301.419 80.4375 302.352V302.367C80.4375 303.076 80.5208 303.714 80.6875 304.281C80.8594 304.849 81.1042 305.333 81.4219 305.734C81.7448 306.13 82.1328 306.435 82.5859 306.648C83.0391 306.862 83.5495 306.969 84.1172 306.969C84.7891 306.969 85.3776 306.836 85.8828 306.57C86.3932 306.299 86.7891 305.924 87.0703 305.445C87.3516 304.966 87.4922 304.409 87.4922 303.773V303.5H84.3281V302.266H88.8984V303.641C88.8984 304.333 88.7839 304.964 88.5547 305.531C88.3307 306.099 88.0078 306.589 87.5859 307C87.1641 307.406 86.6589 307.719 86.0703 307.938C85.4818 308.156 84.8281 308.266 84.1094 308.266ZM91.2188 308V299.578H92.5781V300.828H92.7031C92.8646 300.385 93.138 300.042 93.5234 299.797C93.9089 299.552 94.3854 299.43 94.9531 299.43C95.0833 299.43 95.2109 299.438 95.3359 299.453C95.4661 299.464 95.5651 299.474 95.6328 299.484V300.805C95.4922 300.779 95.3542 300.76 95.2188 300.75C95.0885 300.734 94.9479 300.727 94.7969 300.727C94.3646 300.727 93.9818 300.812 93.6484 300.984C93.3151 301.156 93.0521 301.396 92.8594 301.703C92.6719 302.01 92.5781 302.37 92.5781 302.781V308H91.2188ZM99.625 308.148C99.0938 308.148 98.6146 308.047 98.1875 307.844C97.7656 307.641 97.4297 307.352 97.1797 306.977C96.9349 306.602 96.8125 306.159 96.8125 305.648V305.633C96.8125 305.133 96.9323 304.706 97.1719 304.352C97.4115 303.992 97.7604 303.711 98.2188 303.508C98.6771 303.305 99.2318 303.185 99.8828 303.148L102.977 302.961V304.047L100.047 304.234C99.4062 304.271 98.9375 304.404 98.6406 304.633C98.349 304.862 98.2031 305.185 98.2031 305.602V305.617C98.2031 306.044 98.3646 306.378 98.6875 306.617C99.0104 306.852 99.4167 306.969 99.9062 306.969C100.37 306.969 100.781 306.878 101.141 306.695C101.5 306.508 101.781 306.255 101.984 305.938C102.193 305.62 102.297 305.26 102.297 304.859V302.234C102.297 301.714 102.138 301.318 101.82 301.047C101.508 300.771 101.036 300.633 100.406 300.633C99.901 300.633 99.487 300.724 99.1641 300.906C98.8411 301.083 98.625 301.336 98.5156 301.664L98.5078 301.688H97.1484L97.1562 301.641C97.2292 301.198 97.4115 300.812 97.7031 300.484C98 300.151 98.3828 299.893 98.8516 299.711C99.3203 299.523 99.8542 299.43 100.453 299.43C101.141 299.43 101.721 299.542 102.195 299.766C102.674 299.99 103.036 300.312 103.281 300.734C103.531 301.151 103.656 301.651 103.656 302.234V308H102.297V306.758H102.172C101.995 307.055 101.779 307.307 101.523 307.516C101.273 307.724 100.99 307.883 100.672 307.992C100.354 308.096 100.005 308.148 99.625 308.148ZM109.25 308.148C108.542 308.148 107.922 307.969 107.391 307.609C106.859 307.25 106.448 306.745 106.156 306.094C105.865 305.438 105.719 304.672 105.719 303.797V303.781C105.719 302.901 105.865 302.135 106.156 301.484C106.448 300.833 106.857 300.328 107.383 299.969C107.914 299.609 108.536 299.43 109.25 299.43C109.635 299.43 109.997 299.492 110.336 299.617C110.68 299.737 110.984 299.906 111.25 300.125C111.516 300.344 111.724 300.604 111.875 300.906H112V296.234H113.359V308H112V306.656H111.875C111.703 306.969 111.487 307.237 111.227 307.461C110.966 307.68 110.669 307.849 110.336 307.969C110.003 308.089 109.641 308.148 109.25 308.148ZM109.562 306.945C110.073 306.945 110.513 306.818 110.883 306.562C111.253 306.307 111.536 305.945 111.734 305.477C111.932 305.003 112.031 304.443 112.031 303.797V303.781C112.031 303.13 111.932 302.57 111.734 302.102C111.536 301.633 111.253 301.271 110.883 301.016C110.513 300.76 110.073 300.633 109.562 300.633C109.052 300.633 108.612 300.76 108.242 301.016C107.878 301.266 107.596 301.625 107.398 302.094C107.206 302.562 107.109 303.125 107.109 303.781V303.797C107.109 304.448 107.206 305.01 107.398 305.484C107.596 305.953 107.878 306.315 108.242 306.57C108.612 306.82 109.052 306.945 109.562 306.945ZM119.406 308.148C118.604 308.148 117.914 307.971 117.336 307.617C116.763 307.263 116.32 306.763 116.008 306.117C115.701 305.466 115.547 304.701 115.547 303.82V303.812C115.547 302.943 115.701 302.18 116.008 301.523C116.32 300.867 116.76 300.354 117.328 299.984C117.896 299.615 118.56 299.43 119.32 299.43C120.086 299.43 120.742 299.607 121.289 299.961C121.841 300.315 122.263 300.81 122.555 301.445C122.852 302.076 123 302.81 123 303.648V304.18H116.25V303.094H122.305L121.633 304.086V303.547C121.633 302.885 121.534 302.341 121.336 301.914C121.138 301.487 120.865 301.169 120.516 300.961C120.167 300.747 119.766 300.641 119.312 300.641C118.859 300.641 118.453 300.753 118.094 300.977C117.74 301.195 117.458 301.521 117.25 301.953C117.042 302.385 116.938 302.917 116.938 303.547V304.086C116.938 304.685 117.039 305.198 117.242 305.625C117.445 306.047 117.734 306.372 118.109 306.602C118.484 306.826 118.927 306.938 119.438 306.938C119.818 306.938 120.148 306.885 120.43 306.781C120.711 306.677 120.943 306.544 121.125 306.383C121.307 306.221 121.435 306.057 121.508 305.891L121.539 305.82H122.898L122.883 305.883C122.81 306.169 122.68 306.448 122.492 306.719C122.31 306.984 122.073 307.227 121.781 307.445C121.49 307.659 121.143 307.831 120.742 307.961C120.346 308.086 119.901 308.148 119.406 308.148ZM128.219 308.148C127.51 308.148 126.891 307.969 126.359 307.609C125.828 307.25 125.417 306.745 125.125 306.094C124.833 305.438 124.688 304.672 124.688 303.797V303.781C124.688 302.901 124.833 302.135 125.125 301.484C125.417 300.833 125.826 300.328 126.352 299.969C126.883 299.609 127.505 299.43 128.219 299.43C128.604 299.43 128.966 299.492 129.305 299.617C129.648 299.737 129.953 299.906 130.219 300.125C130.484 300.344 130.693 300.604 130.844 300.906H130.969V296.234H132.328V308H130.969V306.656H130.844C130.672 306.969 130.456 307.237 130.195 307.461C129.935 307.68 129.638 307.849 129.305 307.969C128.971 308.089 128.609 308.148 128.219 308.148ZM128.531 306.945C129.042 306.945 129.482 306.818 129.852 306.562C130.221 306.307 130.505 305.945 130.703 305.477C130.901 305.003 131 304.443 131 303.797V303.781C131 303.13 130.901 302.57 130.703 302.102C130.505 301.633 130.221 301.271 129.852 301.016C129.482 300.76 129.042 300.633 128.531 300.633C128.021 300.633 127.581 300.76 127.211 301.016C126.846 301.266 126.565 301.625 126.367 302.094C126.174 302.562 126.078 303.125 126.078 303.781V303.797C126.078 304.448 126.174 305.01 126.367 305.484C126.565 305.953 126.846 306.315 127.211 306.57C127.581 306.82 128.021 306.945 128.531 306.945ZM142.883 308.148C142.096 308.148 141.414 307.969 140.836 307.609C140.258 307.25 139.81 306.742 139.492 306.086C139.174 305.43 139.016 304.656 139.016 303.766V303.75C139.016 302.875 139.172 302.115 139.484 301.469C139.802 300.823 140.25 300.323 140.828 299.969C141.406 299.609 142.089 299.43 142.875 299.43C143.557 299.43 144.146 299.549 144.641 299.789C145.135 300.029 145.531 300.352 145.828 300.758C146.125 301.159 146.315 301.609 146.398 302.109L146.406 302.156H145.055L145.047 302.133C144.943 301.716 144.706 301.362 144.336 301.07C143.966 300.779 143.479 300.633 142.875 300.633C142.37 300.633 141.932 300.76 141.562 301.016C141.193 301.271 140.906 301.633 140.703 302.102C140.505 302.565 140.406 303.115 140.406 303.75V303.766C140.406 304.411 140.508 304.974 140.711 305.453C140.914 305.927 141.201 306.294 141.57 306.555C141.94 306.815 142.375 306.945 142.875 306.945C143.443 306.945 143.906 306.823 144.266 306.578C144.625 306.333 144.883 305.977 145.039 305.508L145.055 305.461L146.398 305.453L146.383 305.539C146.268 306.044 146.065 306.495 145.773 306.891C145.482 307.281 145.096 307.589 144.617 307.812C144.138 308.036 143.56 308.148 142.883 308.148ZM150.703 308.148C150.172 308.148 149.693 308.047 149.266 307.844C148.844 307.641 148.508 307.352 148.258 306.977C148.013 306.602 147.891 306.159 147.891 305.648V305.633C147.891 305.133 148.01 304.706 148.25 304.352C148.49 303.992 148.839 303.711 149.297 303.508C149.755 303.305 150.31 303.185 150.961 303.148L154.055 302.961V304.047L151.125 304.234C150.484 304.271 150.016 304.404 149.719 304.633C149.427 304.862 149.281 305.185 149.281 305.602V305.617C149.281 306.044 149.443 306.378 149.766 306.617C150.089 306.852 150.495 306.969 150.984 306.969C151.448 306.969 151.859 306.878 152.219 306.695C152.578 306.508 152.859 306.255 153.062 305.938C153.271 305.62 153.375 305.26 153.375 304.859V302.234C153.375 301.714 153.216 301.318 152.898 301.047C152.586 300.771 152.115 300.633 151.484 300.633C150.979 300.633 150.565 300.724 150.242 300.906C149.919 301.083 149.703 301.336 149.594 301.664L149.586 301.688H148.227L148.234 301.641C148.307 301.198 148.49 300.812 148.781 300.484C149.078 300.151 149.461 299.893 149.93 299.711C150.398 299.523 150.932 299.43 151.531 299.43C152.219 299.43 152.799 299.542 153.273 299.766C153.753 299.99 154.115 300.312 154.359 300.734C154.609 301.151 154.734 301.651 154.734 302.234V308H153.375V306.758H153.25C153.073 307.055 152.857 307.307 152.602 307.516C152.352 307.724 152.068 307.883 151.75 307.992C151.432 308.096 151.083 308.148 150.703 308.148ZM157.219 308V299.578H158.578V300.828H158.703C158.865 300.385 159.138 300.042 159.523 299.797C159.909 299.552 160.385 299.43 160.953 299.43C161.083 299.43 161.211 299.438 161.336 299.453C161.466 299.464 161.565 299.474 161.633 299.484V300.805C161.492 300.779 161.354 300.76 161.219 300.75C161.089 300.734 160.948 300.727 160.797 300.727C160.365 300.727 159.982 300.812 159.648 300.984C159.315 301.156 159.052 301.396 158.859 301.703C158.672 302.01 158.578 302.37 158.578 302.781V308H157.219ZM166.188 308.148C165.479 308.148 164.859 307.969 164.328 307.609C163.797 307.25 163.385 306.745 163.094 306.094C162.802 305.438 162.656 304.672 162.656 303.797V303.781C162.656 302.901 162.802 302.135 163.094 301.484C163.385 300.833 163.794 300.328 164.32 299.969C164.852 299.609 165.474 299.43 166.188 299.43C166.573 299.43 166.935 299.492 167.273 299.617C167.617 299.737 167.922 299.906 168.188 300.125C168.453 300.344 168.661 300.604 168.812 300.906H168.938V296.234H170.297V308H168.938V306.656H168.812C168.641 306.969 168.424 307.237 168.164 307.461C167.904 307.68 167.607 307.849 167.273 307.969C166.94 308.089 166.578 308.148 166.188 308.148ZM166.5 306.945C167.01 306.945 167.451 306.818 167.82 306.562C168.19 306.307 168.474 305.945 168.672 305.477C168.87 305.003 168.969 304.443 168.969 303.797V303.781C168.969 303.13 168.87 302.57 168.672 302.102C168.474 301.633 168.19 301.271 167.82 301.016C167.451 300.76 167.01 300.633 166.5 300.633C165.99 300.633 165.549 300.76 165.18 301.016C164.815 301.266 164.534 301.625 164.336 302.094C164.143 302.562 164.047 303.125 164.047 303.781V303.797C164.047 304.448 164.143 305.01 164.336 305.484C164.534 305.953 164.815 306.315 165.18 306.57C165.549 306.82 165.99 306.945 166.5 306.945Z" fill="#D3D0FB"/>
<g filter="url(#filter4_dd_214_4624)">
<rect x="25" y="329" width="340" height="48" rx="4" fill="#605DEC"/>
<rect x="25" y="329" width="340" height="48" rx="4" fill="url(#paint0_linear_214_4624)" fill-opacity="0.12"/>
<rect x="25.5" y="329.5" width="339" height="47" rx="3.5" stroke="url(#paint1_linear_214_4624)" stroke-opacity="0.12"/>
<path d="M174.5 347.75V358.25M169.25 353H179.75" stroke="white" stroke-width="1.5" stroke-linecap="round" stroke-linejoin="round"/>
<path d="M196.148 359H193.898L197.994 347.364H200.597L204.699 359H202.449L199.341 349.75H199.25L196.148 359ZM196.222 354.438H202.358V356.131H196.222V354.438ZM208.954 359.153C208.268 359.153 207.654 358.977 207.113 358.625C206.571 358.273 206.143 357.761 205.829 357.091C205.514 356.42 205.357 355.606 205.357 354.648C205.357 353.678 205.516 352.86 205.834 352.193C206.156 351.523 206.59 351.017 207.135 350.676C207.681 350.331 208.289 350.159 208.959 350.159C209.471 350.159 209.891 350.246 210.221 350.42C210.55 350.591 210.812 350.797 211.005 351.04C211.198 351.278 211.348 351.504 211.454 351.716H211.539V347.364H213.601V359H211.579V357.625H211.454C211.348 357.837 211.194 358.062 210.993 358.301C210.793 358.536 210.527 358.737 210.198 358.903C209.868 359.07 209.454 359.153 208.954 359.153ZM209.527 357.466C209.963 357.466 210.334 357.348 210.641 357.114C210.948 356.875 211.181 356.544 211.34 356.119C211.499 355.695 211.579 355.201 211.579 354.636C211.579 354.072 211.499 353.581 211.34 353.165C211.185 352.748 210.954 352.424 210.647 352.193C210.344 351.962 209.971 351.847 209.527 351.847C209.069 351.847 208.687 351.966 208.38 352.205C208.073 352.443 207.842 352.773 207.687 353.193C207.531 353.614 207.454 354.095 207.454 354.636C207.454 355.182 207.531 355.669 207.687 356.097C207.846 356.521 208.079 356.856 208.385 357.102C208.696 357.345 209.077 357.466 209.527 357.466ZM218.872 359.153C218.186 359.153 217.572 358.977 217.031 358.625C216.489 358.273 216.061 357.761 215.747 357.091C215.432 356.42 215.275 355.606 215.275 354.648C215.275 353.678 215.434 352.86 215.752 352.193C216.074 351.523 216.508 351.017 217.054 350.676C217.599 350.331 218.207 350.159 218.877 350.159C219.389 350.159 219.809 350.246 220.139 350.42C220.468 350.591 220.73 350.797 220.923 351.04C221.116 351.278 221.266 351.504 221.372 351.716H221.457V347.364H223.519V359H221.497V357.625H221.372C221.266 357.837 221.112 358.062 220.911 358.301C220.711 358.536 220.446 358.737 220.116 358.903C219.786 359.07 219.372 359.153 218.872 359.153ZM219.446 357.466C219.881 357.466 220.252 357.348 220.559 357.114C220.866 356.875 221.099 356.544 221.258 356.119C221.417 355.695 221.497 355.201 221.497 354.636C221.497 354.072 221.417 353.581 221.258 353.165C221.103 352.748 220.872 352.424 220.565 352.193C220.262 351.962 219.889 351.847 219.446 351.847C218.987 351.847 218.605 351.966 218.298 352.205C217.991 352.443 217.76 352.773 217.605 353.193C217.449 353.614 217.372 354.095 217.372 354.636C217.372 355.182 217.449 355.669 217.605 356.097C217.764 356.521 217.997 356.856 218.304 357.102C218.614 357.345 218.995 357.466 219.446 357.466Z" fill="white"/>
</g>
<defs>
<filter id="filter0_d_214_4624" x="16" y="132" width="358" height="64" filterUnits="userSpaceOnUse" color-interpolation-filters="sRGB">
<feFlood flood-opacity="0" result="BackgroundImageFix"/>
<feColorMatrix in="SourceAlpha" type="matrix" values="0 0 0 0 0 0 0 0 0 0 0 0 0 0 0 0 0 0 127 0" result="hardAlpha"/>
<feOffset dy="4"/>
<feGaussianBlur stdDeviation="2"/>
<feComposite in2="hardAlpha" operator="out"/>
<feColorMatrix type="matrix" values="0 0 0 0 0 0 0 0 0 0 0 0 0 0 0 0 0 0 0.25 0"/>
<feBlend mode="normal" in2="BackgroundImageFix" result="effect1_dropShadow_214_4624"/>
<feBlend mode="normal" in="SourceGraphic" in2="effect1_dropShadow_214_4624" result="shape"/>
</filter>
<filter id="filter1_d_214_4624" x="16" y="219" width="180" height="64" filterUnits="userSpaceOnUse" color-interpolation-filters="sRGB">
<feFlood flood-opacity="0" result="BackgroundImageFix"/>
<feColorMatrix in="SourceAlpha" type="matrix" values="0 0 0 0 0 0 0 0 0 0 0 0 0 0 0 0 0 0 127 0" result="hardAlpha"/>
<feOffset dy="4"/>
<feGaussianBlur stdDeviation="2"/>
<feComposite in2="hardAlpha" operator="out"/>
<feColorMatrix type="matrix" values="0 0 0 0 0 0 0 0 0 0 0 0 0 0 0 0 0 0 0.25 0"/>
<feBlend mode="normal" in2="BackgroundImageFix" result="effect1_dropShadow_214_4624"/>
<feBlend mode="normal" in="SourceGraphic" in2="effect1_dropShadow_214_4624" result="shape"/>
</filter>
<filter id="filter2_d_214_4624" x="194" y="219" width="180" height="64" filterUnits="userSpaceOnUse" color-interpolation-filters="sRGB">
<feFlood flood-opacity="0" result="BackgroundImageFix"/>
<feColorMatrix in="SourceAlpha" type="matrix" values="0 0 0 0 0 0 0 0 0 0 0 0 0 0 0 0 0 0 127 0" result="hardAlpha"/>
<feOffset dy="4"/>
<feGaussianBlur stdDeviation="2"/>
<feComposite in2="hardAlpha" operator="out"/>
<feColorMatrix type="matrix" values="0 0 0 0 0 0 0 0 0 0 0 0 0 0 0 0 0 0 0.25 0"/>
<feBlend mode="normal" in2="BackgroundImageFix" result="effect1_dropShadow_214_4624"/>
<feBlend mode="normal" in="SourceGraphic" in2="effect1_dropShadow_214_4624" result="shape"/>
</filter>
<filter id="filter3_d_214_4624" x="16" y="290" width="56" height="32" filterUnits="userSpaceOnUse" color-interpolation-filters="sRGB">
<feFlood flood-opacity="0" result="BackgroundImageFix"/>
<feColorMatrix in="SourceAlpha" type="matrix" values="0 0 0 0 0 0 0 0 0 0 0 0 0 0 0 0 0 0 127 0" result="hardAlpha"/>
<feOffset dy="4"/>
<feGaussianBlur stdDeviation="2"/>
<feComposite in2="hardAlpha" operator="out"/>
<feColorMatrix type="matrix" values="0 0 0 0 0 0 0 0 0 0 0 0 0 0 0 0 0 0 0.25 0"/>
<feBlend mode="normal" in2="BackgroundImageFix" result="effect1_dropShadow_214_4624"/>
<feBlend mode="normal" in="SourceGraphic" in2="effect1_dropShadow_214_4624" result="shape"/>
</filter>
<filter id="filter4_dd_214_4624" x="23" y="328" width="344" height="52" filterUnits="userSpaceOnUse" color-interpolation-filters="sRGB">
<feFlood flood-opacity="0" result="BackgroundImageFix"/>
<feColorMatrix in="SourceAlpha" type="matrix" values="0 0 0 0 0 0 0 0 0 0 0 0 0 0 0 0 0 0 127 0" result="hardAlpha"/>
<feMorphology radius="1" operator="dilate" in="SourceAlpha" result="effect1_dropShadow_214_4624"/>
<feOffset/>
<feComposite in2="hardAlpha" operator="out"/>
<feColorMatrix type="matrix" values="0 0 0 0 0.215686 0 0 0 0 0.364706 0 0 0 0 0.984314 0 0 0 1 0"/>
<feBlend mode="normal" in2="BackgroundImageFix" result="effect1_dropShadow_214_4624"/>
<feColorMatrix in="SourceAlpha" type="matrix" values="0 0 0 0 0 0 0 0 0 0 0 0 0 0 0 0 0 0 127 0" result="hardAlpha"/>
<feOffset dy="1"/>
<feGaussianBlur stdDeviation="1"/>
<feComposite in2="hardAlpha" operator="out"/>
<feColorMatrix type="matrix" values="0 0 0 0 0.145098 0 0 0 0 0.243137 0 0 0 0 0.654902 0 0 0 0.48 0"/>
<feBlend mode="normal" in2="effect1_dropShadow_214_4624" result="effect2_dropShadow_214_4624"/>
<feBlend mode="normal" in="SourceGraphic" in2="effect2_dropShadow_214_4624" result="shape"/>
</filter>
<linearGradient id="paint0_linear_214_4624" x1="195" y1="329" x2="195" y2="377" gradientUnits="userSpaceOnUse">
<stop stop-color="white"/>
<stop offset="1" stop-color="white" stop-opacity="0"/>
</linearGradient>
<linearGradient id="paint1_linear_214_4624" x1="195" y1="329" x2="195" y2="377" gradientUnits="userSpaceOnUse">
<stop stop-color="white"/>
<stop offset="1" stop-color="white" stop-opacity="0"/>
</linearGradient>
<clipPath id="clip0_214_4624">
<rect width="24" height="24" fill="white" transform="translate(148 235)"/>
</clipPath>
<clipPath id="clip1_214_4624">
<rect width="24" height="24" fill="white" transform="translate(326 235)"/>
</clipPath>
</defs>
</svg>
