<svg width="350" height="14" viewBox="0 0 350 14" fill="none" xmlns="http://www.w3.org/2000/svg">
<path d="M0.375 11L2.34961 2.54492H4.00781V4.30273H3.42773L2.15039 11H0.375ZM1.62305 9.20117L1.91016 7.90625H4.98047L5.26172 9.20117H1.62305ZM4.74609 11L3.46875 4.30273V2.54492H4.54688L6.52148 11H4.74609ZM9.31641 11.082C8.87109 11.082 8.49219 10.959 8.17969 10.7129C7.86719 10.4668 7.62891 10.0996 7.46484 9.61133C7.30078 9.11914 7.21875 8.50586 7.21875 7.77148V7.75977C7.21875 7.02539 7.30078 6.41406 7.46484 5.92578C7.62891 5.43359 7.86523 5.06445 8.17383 4.81836C8.48633 4.57227 8.86328 4.44922 9.30469 4.44922C9.57422 4.44922 9.81055 4.49609 10.0137 4.58984C10.2207 4.67969 10.3945 4.80273 10.5352 4.95898C10.6758 5.11523 10.7871 5.28516 10.8691 5.46875H10.9102V2.26953H12.5801V11H10.9102V10.0684H10.8691C10.7832 10.2754 10.668 10.4551 10.5234 10.6074C10.3828 10.7598 10.2109 10.877 10.0078 10.959C9.80469 11.041 9.57422 11.082 9.31641 11.082ZM9.91992 9.69336C10.1309 9.69336 10.3105 9.62305 10.459 9.48242C10.6074 9.3418 10.7207 9.13086 10.7988 8.84961C10.877 8.56445 10.916 8.20898 10.916 7.7832V7.77148C10.916 7.3418 10.877 6.98438 10.7988 6.69922C10.7207 6.41016 10.6074 6.19531 10.459 6.05469C10.3105 5.91016 10.1328 5.83789 9.92578 5.83789C9.70703 5.83789 9.52344 5.91016 9.375 6.05469C9.22656 6.19531 9.11328 6.41016 9.03516 6.69922C8.95703 6.98438 8.91797 7.33984 8.91797 7.76562V7.77734C8.91797 8.19922 8.95703 8.55273 9.03516 8.83789C9.11328 9.12305 9.22656 9.33789 9.375 9.48242C9.52344 9.62305 9.70508 9.69336 9.91992 9.69336ZM15.9844 11.082C15.5391 11.082 15.1602 10.959 14.8477 10.7129C14.5352 10.4668 14.2969 10.0996 14.1328 9.61133C13.9688 9.11914 13.8867 8.50586 13.8867 7.77148V7.75977C13.8867 7.02539 13.9688 6.41406 14.1328 5.92578C14.2969 5.43359 14.5332 5.06445 14.8418 4.81836C15.1543 4.57227 15.5312 4.44922 15.9727 4.44922C16.2422 4.44922 16.4785 4.49609 16.6816 4.58984C16.8887 4.67969 17.0625 4.80273 17.2031 4.95898C17.3438 5.11523 17.4551 5.28516 17.5371 5.46875H17.5781V2.26953H19.248V11H17.5781V10.0684H17.5371C17.4512 10.2754 17.3359 10.4551 17.1914 10.6074C17.0508 10.7598 16.8789 10.877 16.6758 10.959C16.4727 11.041 16.2422 11.082 15.9844 11.082ZM16.5879 9.69336C16.7988 9.69336 16.9785 9.62305 17.127 9.48242C17.2754 9.3418 17.3887 9.13086 17.4668 8.84961C17.5449 8.56445 17.584 8.20898 17.584 7.7832V7.77148C17.584 7.3418 17.5449 6.98438 17.4668 6.69922C17.3887 6.41016 17.2754 6.19531 17.127 6.05469C16.9785 5.91016 16.8008 5.83789 16.5938 5.83789C16.375 5.83789 16.1914 5.91016 16.043 6.05469C15.8945 6.19531 15.7812 6.41016 15.7031 6.69922C15.625 6.98438 15.5859 7.33984 15.5859 7.76562V7.77734C15.5859 8.19922 15.625 8.55273 15.7031 8.83789C15.7812 9.12305 15.8945 9.33789 16.043 9.48242C16.1914 9.62305 16.373 9.69336 16.5879 9.69336ZM25.2656 11.0879C24.5938 11.0879 24.0898 10.9453 23.7539 10.6602C23.418 10.375 23.25 9.91406 23.25 9.27734V5.81445H22.4941V4.55469H23.25V2.97852H24.9375V4.55469H25.9863V5.81445H24.9375V9.10156C24.9375 9.36328 24.9941 9.55078 25.1074 9.66406C25.2246 9.77344 25.416 9.82812 25.6816 9.82812C25.748 9.82812 25.8066 9.82617 25.8574 9.82227C25.9082 9.81836 25.959 9.8125 26.0098 9.80469V11.0117C25.9121 11.0352 25.7988 11.0527 25.6699 11.0645C25.5449 11.0801 25.4102 11.0879 25.2656 11.0879ZM29.502 11.123C28.9277 11.123 28.4395 10.998 28.0371 10.748C27.6348 10.4941 27.3281 10.1191 27.1172 9.62305C26.9102 9.12695 26.8066 8.51367 26.8066 7.7832V7.77148C26.8066 7.05273 26.9121 6.44727 27.123 5.95508C27.3379 5.45898 27.6465 5.08398 28.0488 4.83008C28.4512 4.57227 28.9355 4.44336 29.502 4.44336C30.0723 4.44336 30.5566 4.57227 30.9551 4.83008C31.3574 5.08398 31.6641 5.45898 31.875 5.95508C32.0898 6.44727 32.1973 7.05273 32.1973 7.77148V7.7832C32.1973 8.51367 32.0918 9.12695 31.8809 9.62305C31.6738 10.1191 31.3691 10.4941 30.9668 10.748C30.5645 10.998 30.0762 11.123 29.502 11.123ZM29.502 9.81641C29.7207 9.81641 29.9023 9.74414 30.0469 9.59961C30.1953 9.45508 30.3066 9.23242 30.3809 8.93164C30.459 8.63086 30.498 8.25 30.498 7.78906V7.77148C30.498 7.31445 30.459 6.9375 30.3809 6.64062C30.3066 6.34375 30.1953 6.12305 30.0469 5.97852C29.8984 5.83008 29.7168 5.75586 29.502 5.75586C29.2832 5.75586 29.0996 5.83008 28.9512 5.97852C28.8027 6.12305 28.6914 6.34375 28.6172 6.64062C28.5469 6.9375 28.5117 7.31445 28.5117 7.77148V7.78906C28.5117 8.25 28.5469 8.63086 28.6172 8.93164C28.6914 9.23242 28.8027 9.45508 28.9512 9.59961C29.0996 9.74414 29.2832 9.81641 29.502 9.81641ZM36.6504 11.082C36.3848 11.082 36.1621 10.9922 35.9824 10.8125C35.8027 10.6289 35.7129 10.4062 35.7129 10.1445C35.7129 9.88672 35.8027 9.66602 35.9824 9.48242C36.1621 9.29883 36.3848 9.20703 36.6504 9.20703C36.9121 9.20703 37.1328 9.29883 37.3125 9.48242C37.4961 9.66602 37.5879 9.88672 37.5879 10.1445C37.5879 10.4062 37.4961 10.6289 37.3125 10.8125C37.1328 10.9922 36.9121 11.082 36.6504 11.082ZM36.6504 6.88086C36.3848 6.88086 36.1621 6.78906 35.9824 6.60547C35.8027 6.42188 35.7129 6.20117 35.7129 5.94336C35.7129 5.68164 35.8027 5.46094 35.9824 5.28125C36.1621 5.09766 36.3848 5.00586 36.6504 5.00586C36.9121 5.00586 37.1328 5.09766 37.3125 5.28125C37.4961 5.46094 37.5879 5.68164 37.5879 5.94336C37.5879 6.20117 37.4961 6.42188 37.3125 6.60547C37.1328 6.78906 36.9121 6.88086 36.6504 6.88086Z" fill="white"/>
<path d="M47.9922 11H46.3398L48.1387 2.54492H50.1719L51.2617 8.25195H51.3672L54.9414 2.54492H57.0977L55.2988 11H53.6523L54.8652 5.35156H54.7715L51.4902 10.543H50.3125L49.2988 5.35156H49.2051L47.9922 11ZM57.5371 13.3613C57.3926 13.3613 57.25 13.3555 57.1094 13.3438C56.9688 13.3359 56.8477 13.3281 56.7461 13.3203L57.0273 11.9551C57.0859 11.9629 57.1562 11.9707 57.2383 11.9785C57.3203 11.9863 57.4102 11.9902 57.5078 11.9902C57.793 11.9902 58.0391 11.9336 58.2461 11.8203C58.4531 11.7109 58.6191 11.5293 58.7441 11.2754C58.7598 11.248 58.7734 11.2188 58.7852 11.1875C58.8008 11.1602 58.8145 11.1309 58.8262 11.0996C58.8418 11.0723 58.8574 11.0449 58.873 11.0176L58.0293 4.53711H59.7695L60.1445 9.35352H60.25L62.623 4.53711H64.4512L60.7598 11.2344C60.4824 11.7617 60.1895 12.1797 59.8809 12.4883C59.5723 12.8008 59.2285 13.0234 58.8496 13.1562C58.4707 13.293 58.0332 13.3613 57.5371 13.3613ZM69.3262 2.54492H72.4141C72.9727 2.54492 73.459 2.64648 73.873 2.84961C74.2871 3.05273 74.6094 3.33984 74.8398 3.71094C75.0703 4.08203 75.1855 4.51758 75.1855 5.01758C75.1855 5.70898 75.0293 6.30664 74.7168 6.81055C74.4082 7.31055 73.9785 7.69727 73.4277 7.9707C72.8809 8.24023 72.248 8.375 71.5293 8.375H69.877L69.3086 11H67.5332L69.3262 2.54492ZM70.8086 3.99805L70.1641 6.93945H71.5059C71.8848 6.93945 72.2148 6.86719 72.4961 6.72266C72.7773 6.57812 72.9961 6.375 73.1523 6.11328C73.3086 5.84766 73.3867 5.53906 73.3867 5.1875C73.3867 4.79688 73.2637 4.50195 73.0176 4.30273C72.7715 4.09961 72.4297 3.99805 71.9922 3.99805H70.8086ZM77.4004 7.08008H80.207C80.2109 7.06055 80.2148 7.0293 80.2188 6.98633C80.2227 6.93945 80.2246 6.89648 80.2246 6.85742C80.2246 6.64258 80.1758 6.44922 80.0781 6.27734C79.9844 6.10156 79.8477 5.96289 79.668 5.86133C79.4922 5.75977 79.2793 5.70898 79.0293 5.70898C78.7676 5.70898 78.5273 5.76758 78.3086 5.88477C78.0898 5.99805 77.9023 6.1582 77.7461 6.36523C77.5898 6.56836 77.4746 6.80664 77.4004 7.08008ZM78.4609 11.1406C77.9062 11.1406 77.4121 11.0312 76.9785 10.8125C76.5488 10.5938 76.2109 10.2773 75.9648 9.86328C75.7227 9.44531 75.6016 8.94531 75.6016 8.36328C75.6016 7.77344 75.6855 7.23633 75.8535 6.75195C76.0215 6.26367 76.2617 5.84375 76.5742 5.49219C76.8867 5.14062 77.2559 4.87109 77.6816 4.68359C78.1113 4.49219 78.584 4.39648 79.0996 4.39648C79.6152 4.39648 80.0781 4.50781 80.4883 4.73047C80.8984 4.94922 81.2227 5.26172 81.4609 5.66797C81.7031 6.07422 81.8242 6.55273 81.8242 7.10352C81.8242 7.23242 81.8145 7.40234 81.7949 7.61328C81.7754 7.82422 81.752 8.00586 81.7246 8.1582H77.2129C77.2129 8.18945 77.2109 8.2207 77.207 8.25195C77.207 8.2793 77.207 8.30859 77.207 8.33984C77.207 8.67188 77.2695 8.94727 77.3945 9.16602C77.5195 9.38086 77.6855 9.54297 77.8926 9.65234C78.0996 9.75781 78.3242 9.81055 78.5664 9.81055C78.8945 9.81055 79.1641 9.75 79.375 9.62891C79.5898 9.50781 79.7461 9.3457 79.8438 9.14258H81.4844C81.3867 9.53711 81.1992 9.88477 80.9219 10.1855C80.6484 10.4863 80.3027 10.7207 79.8848 10.8887C79.4668 11.0566 78.9922 11.1406 78.4609 11.1406ZM82.5098 11L83.8867 4.53711H85.5449L85.3633 5.42773H85.4688C85.6445 5.10742 85.8691 4.86133 86.1426 4.68945C86.4199 4.51758 86.7305 4.43164 87.0742 4.43164C87.2383 4.43164 87.3926 4.44336 87.5371 4.4668C87.6855 4.49023 87.8086 4.52539 87.9062 4.57227L87.5664 6.14258C87.4375 6.0918 87.2793 6.05078 87.0918 6.01953C86.9082 5.98828 86.7383 5.97266 86.582 5.97266C86.3008 5.97266 86.0527 6.02734 85.8379 6.13672C85.623 6.24219 85.4453 6.4043 85.3047 6.62305C85.1641 6.83789 85.0586 7.10938 84.9883 7.4375L84.2207 11H82.5098ZM88.5449 6.48828C88.5449 6.06641 88.6582 5.69922 88.8848 5.38672C89.1113 5.07031 89.4258 4.82617 89.8281 4.6543C90.2305 4.48242 90.6953 4.39648 91.2227 4.39648C91.7461 4.39648 92.2031 4.47656 92.5938 4.63672C92.9844 4.79688 93.291 5.02148 93.5137 5.31055C93.7402 5.5957 93.8672 5.93164 93.8945 6.31836H92.3301C92.3027 6.18164 92.2383 6.06445 92.1367 5.9668C92.0391 5.86523 91.9121 5.78711 91.7559 5.73242C91.5996 5.67383 91.4219 5.64453 91.2227 5.64453C91.0195 5.64453 90.8398 5.67383 90.6836 5.73242C90.5312 5.78711 90.4102 5.86523 90.3203 5.9668C90.2344 6.06445 90.1914 6.17969 90.1914 6.3125C90.1914 6.45703 90.248 6.58008 90.3613 6.68164C90.4785 6.7793 90.6602 6.86914 90.9062 6.95117L91.9551 7.32031C92.4785 7.5 92.8574 7.72461 93.0918 7.99414C93.3301 8.26367 93.4492 8.60547 93.4492 9.01953C93.4492 9.44141 93.3301 9.8125 93.0918 10.1328C92.8574 10.4492 92.5273 10.6973 92.1016 10.877C91.6797 11.0527 91.1895 11.1406 90.6309 11.1406C90.0801 11.1406 89.5938 11.0566 89.1719 10.8887C88.75 10.7207 88.418 10.4863 88.1758 10.1855C87.9336 9.88477 87.8047 9.53516 87.7891 9.13672H89.4355C89.4824 9.35547 89.6133 9.53711 89.8281 9.68164C90.043 9.82227 90.3125 9.89258 90.6367 9.89258C90.8594 9.89258 91.0527 9.86523 91.2168 9.81055C91.3809 9.75195 91.5078 9.67188 91.5977 9.57031C91.6914 9.46875 91.7383 9.34766 91.7383 9.20703C91.7383 9.07422 91.6895 8.95898 91.5918 8.86133C91.498 8.75977 91.3262 8.66797 91.0762 8.58594L90.0684 8.23438C89.5566 8.05859 89.1738 7.83008 88.9199 7.54883C88.6699 7.26367 88.5449 6.91016 88.5449 6.48828ZM97.8262 9.74023C98.1465 9.74023 98.4375 9.63086 98.6992 9.41211C98.9648 9.18945 99.1758 8.89648 99.332 8.5332C99.4922 8.16602 99.5723 7.76172 99.5723 7.32031C99.5723 6.83984 99.4688 6.46484 99.2617 6.19531C99.0547 5.92578 98.7656 5.79102 98.3945 5.79102C98.0547 5.79102 97.75 5.90039 97.4805 6.11914C97.2148 6.33398 97.0039 6.62891 96.8477 7.00391C96.6914 7.375 96.6133 7.79492 96.6133 8.26367C96.6133 8.7207 96.7227 9.08203 96.9414 9.34766C97.1602 9.60938 97.4551 9.74023 97.8262 9.74023ZM98.4883 4.39648C99.0664 4.39648 99.5703 4.51367 100 4.74805C100.43 4.98242 100.764 5.3125 101.002 5.73828C101.24 6.16016 101.359 6.65625 101.359 7.22656C101.359 7.78516 101.268 8.30273 101.084 8.7793C100.904 9.25586 100.65 9.67188 100.322 10.0273C99.9941 10.3789 99.6094 10.6523 99.168 10.8477C98.7266 11.043 98.2461 11.1406 97.7266 11.1406C97.1484 11.1406 96.6426 11.0234 96.209 10.7891C95.7754 10.5547 95.4375 10.2246 95.1953 9.79883C94.957 9.37305 94.8379 8.87891 94.8379 8.31641C94.8379 7.75 94.9277 7.22852 95.1074 6.75195C95.291 6.27539 95.5469 5.86133 95.875 5.50977C96.2031 5.1543 96.5879 4.88086 97.0293 4.68945C97.4746 4.49414 97.9609 4.39648 98.4883 4.39648ZM102.057 11L103.434 4.53711H105.092L104.869 5.5625H104.975C105.182 5.23047 105.449 4.95898 105.777 4.74805C106.105 4.53711 106.5 4.43164 106.961 4.43164C107.363 4.43164 107.707 4.51562 107.992 4.68359C108.281 4.85156 108.502 5.07812 108.654 5.36328C108.811 5.64453 108.889 5.96484 108.889 6.32422C108.889 6.4375 108.881 6.56055 108.865 6.69336C108.854 6.82227 108.832 6.95508 108.801 7.0918L107.975 11H106.27L107.043 7.37305C107.062 7.2793 107.076 7.19336 107.084 7.11523C107.096 7.0332 107.102 6.95508 107.102 6.88086C107.102 6.58398 107.01 6.3418 106.826 6.1543C106.646 5.96289 106.389 5.86719 106.053 5.86719C105.799 5.86719 105.57 5.92578 105.367 6.04297C105.168 6.15625 105.002 6.3125 104.869 6.51172C104.736 6.71094 104.641 6.9375 104.582 7.19141L103.768 11H102.057ZM112.328 9.81641C112.57 9.81641 112.797 9.76953 113.008 9.67578C113.219 9.58203 113.395 9.45508 113.535 9.29492C113.68 9.13086 113.775 8.94531 113.822 8.73828L113.945 8.18164L112.609 8.22852C112.223 8.24414 111.918 8.33008 111.695 8.48633C111.473 8.63867 111.361 8.83984 111.361 9.08984C111.361 9.30469 111.451 9.48047 111.631 9.61719C111.811 9.75 112.043 9.81641 112.328 9.81641ZM111.607 11.0996C111.244 11.0996 110.918 11.0234 110.629 10.8711C110.34 10.7148 110.109 10.5039 109.938 10.2383C109.77 9.97266 109.686 9.67188 109.686 9.33594C109.686 8.67969 109.938 8.16016 110.441 7.77734C110.949 7.39453 111.656 7.1875 112.562 7.15625L114.168 7.10352L114.256 6.70508C114.268 6.64648 114.275 6.60156 114.279 6.57031C114.283 6.53516 114.285 6.50195 114.285 6.4707C114.285 6.24414 114.189 6.06641 113.998 5.9375C113.807 5.80859 113.547 5.74414 113.219 5.74414C113.035 5.74414 112.867 5.76758 112.715 5.81445C112.566 5.85742 112.439 5.92188 112.334 6.00781C112.232 6.08984 112.152 6.19336 112.094 6.31836H110.482C110.576 5.92383 110.754 5.58398 111.016 5.29883C111.281 5.00977 111.613 4.78711 112.012 4.63086C112.41 4.47461 112.854 4.39648 113.342 4.39648C113.869 4.39648 114.328 4.47656 114.719 4.63672C115.113 4.79297 115.42 5.01367 115.639 5.29883C115.857 5.58398 115.967 5.91797 115.967 6.30078C115.967 6.38281 115.963 6.4707 115.955 6.56445C115.947 6.6582 115.934 6.74414 115.914 6.82227L115.029 11H113.371L113.541 10.2031H113.436C113.314 10.3867 113.158 10.5449 112.967 10.6777C112.775 10.8105 112.564 10.9141 112.334 10.9883C112.104 11.0625 111.861 11.0996 111.607 11.0996ZM116.682 11L118.58 2.07031H120.297L118.398 11H116.682ZM130.193 5.54492C130.193 5.5332 130.193 5.52344 130.193 5.51562C130.193 5.50391 130.193 5.48438 130.193 5.45703C130.182 5.14453 130.098 4.87305 129.941 4.64258C129.789 4.4082 129.582 4.22656 129.32 4.09766C129.059 3.96484 128.754 3.89844 128.406 3.89844C128.023 3.89844 127.666 3.99023 127.334 4.17383C127.006 4.35742 126.717 4.61523 126.467 4.94727C126.221 5.27539 126.027 5.66211 125.887 6.10742C125.75 6.54883 125.682 7.0293 125.682 7.54883C125.682 7.98242 125.756 8.35547 125.904 8.66797C126.057 8.98047 126.27 9.22266 126.543 9.39453C126.82 9.56641 127.148 9.65234 127.527 9.65234C127.848 9.65234 128.146 9.5957 128.424 9.48242C128.705 9.36523 128.947 9.20508 129.15 9.00195C129.354 8.79492 129.5 8.55469 129.59 8.28125H131.342C131.217 8.875 130.971 9.39258 130.604 9.83398C130.24 10.2715 129.781 10.6113 129.227 10.8535C128.676 11.0957 128.059 11.2168 127.375 11.2168C126.668 11.2168 126.051 11.0723 125.523 10.7832C125 10.4902 124.594 10.0781 124.305 9.54688C124.016 9.01172 123.871 8.38672 123.871 7.67188C123.871 6.89062 123.986 6.17383 124.217 5.52148C124.447 4.86914 124.77 4.30469 125.184 3.82812C125.598 3.35156 126.088 2.98242 126.654 2.7207C127.225 2.45898 127.846 2.32812 128.518 2.32812C129.166 2.32812 129.746 2.45898 130.258 2.7207C130.773 2.97852 131.18 3.33203 131.477 3.78125C131.777 4.22656 131.928 4.72852 131.928 5.28711C131.928 5.33008 131.926 5.37305 131.922 5.41602C131.922 5.45508 131.92 5.49805 131.916 5.54492H130.193ZM135.584 9.74023C135.904 9.74023 136.195 9.63086 136.457 9.41211C136.723 9.18945 136.934 8.89648 137.09 8.5332C137.25 8.16602 137.33 7.76172 137.33 7.32031C137.33 6.83984 137.227 6.46484 137.02 6.19531C136.812 5.92578 136.523 5.79102 136.152 5.79102C135.812 5.79102 135.508 5.90039 135.238 6.11914C134.973 6.33398 134.762 6.62891 134.605 7.00391C134.449 7.375 134.371 7.79492 134.371 8.26367C134.371 8.7207 134.48 9.08203 134.699 9.34766C134.918 9.60938 135.213 9.74023 135.584 9.74023ZM136.246 4.39648C136.824 4.39648 137.328 4.51367 137.758 4.74805C138.188 4.98242 138.521 5.3125 138.76 5.73828C138.998 6.16016 139.117 6.65625 139.117 7.22656C139.117 7.78516 139.025 8.30273 138.842 8.7793C138.662 9.25586 138.408 9.67188 138.08 10.0273C137.752 10.3789 137.367 10.6523 136.926 10.8477C136.484 11.043 136.004 11.1406 135.484 11.1406C134.906 11.1406 134.4 11.0234 133.967 10.7891C133.533 10.5547 133.195 10.2246 132.953 9.79883C132.715 9.37305 132.596 8.87891 132.596 8.31641C132.596 7.75 132.686 7.22852 132.865 6.75195C133.049 6.27539 133.305 5.86133 133.633 5.50977C133.961 5.1543 134.346 4.88086 134.787 4.68945C135.232 4.49414 135.719 4.39648 136.246 4.39648ZM139.861 11L141.76 2.07031H143.477L141.578 11H139.861ZM143.342 11L145.24 2.07031H146.957L145.059 11H143.342ZM148.979 7.08008H151.785C151.789 7.06055 151.793 7.0293 151.797 6.98633C151.801 6.93945 151.803 6.89648 151.803 6.85742C151.803 6.64258 151.754 6.44922 151.656 6.27734C151.562 6.10156 151.426 5.96289 151.246 5.86133C151.07 5.75977 150.857 5.70898 150.607 5.70898C150.346 5.70898 150.105 5.76758 149.887 5.88477C149.668 5.99805 149.48 6.1582 149.324 6.36523C149.168 6.56836 149.053 6.80664 148.979 7.08008ZM150.039 11.1406C149.484 11.1406 148.99 11.0312 148.557 10.8125C148.127 10.5938 147.789 10.2773 147.543 9.86328C147.301 9.44531 147.18 8.94531 147.18 8.36328C147.18 7.77344 147.264 7.23633 147.432 6.75195C147.6 6.26367 147.84 5.84375 148.152 5.49219C148.465 5.14062 148.834 4.87109 149.26 4.68359C149.689 4.49219 150.162 4.39648 150.678 4.39648C151.193 4.39648 151.656 4.50781 152.066 4.73047C152.477 4.94922 152.801 5.26172 153.039 5.66797C153.281 6.07422 153.402 6.55273 153.402 7.10352C153.402 7.23242 153.393 7.40234 153.373 7.61328C153.354 7.82422 153.33 8.00586 153.303 8.1582H148.791C148.791 8.18945 148.789 8.2207 148.785 8.25195C148.785 8.2793 148.785 8.30859 148.785 8.33984C148.785 8.67188 148.848 8.94727 148.973 9.16602C149.098 9.38086 149.264 9.54297 149.471 9.65234C149.678 9.75781 149.902 9.81055 150.145 9.81055C150.473 9.81055 150.742 9.75 150.953 9.62891C151.168 9.50781 151.324 9.3457 151.422 9.14258H153.062C152.965 9.53711 152.777 9.88477 152.5 10.1855C152.227 10.4863 151.881 10.7207 151.463 10.8887C151.045 11.0566 150.57 11.1406 150.039 11.1406ZM158.066 4.39648C158.594 4.39648 159.049 4.49805 159.432 4.70117C159.818 4.9043 160.123 5.16602 160.346 5.48633C160.568 5.80664 160.695 6.14844 160.727 6.51172C160.73 6.55078 160.732 6.5918 160.732 6.63477C160.736 6.67773 160.738 6.7207 160.738 6.76367H159.121C159.105 6.46289 158.988 6.22656 158.77 6.05469C158.551 5.88281 158.279 5.79688 157.955 5.79688C157.697 5.79688 157.461 5.86133 157.246 5.99023C157.031 6.11523 156.846 6.29102 156.689 6.51758C156.533 6.74414 156.412 7.00781 156.326 7.30859C156.244 7.60938 156.203 7.93555 156.203 8.28711C156.203 8.61133 156.258 8.88086 156.367 9.0957C156.477 9.31055 156.623 9.4707 156.807 9.57617C156.99 9.67773 157.195 9.72852 157.422 9.72852C157.742 9.72852 158.018 9.65039 158.248 9.49414C158.479 9.33789 158.643 9.11133 158.74 8.81445H160.375C160.301 9.24414 160.131 9.63672 159.865 9.99219C159.6 10.3438 159.25 10.623 158.816 10.8301C158.387 11.0371 157.889 11.1406 157.322 11.1406C156.748 11.1406 156.25 11.0293 155.828 10.8066C155.406 10.5801 155.078 10.2637 154.844 9.85742C154.613 9.44727 154.498 8.9668 154.498 8.41602C154.498 7.65039 154.646 6.96484 154.943 6.35938C155.244 5.75 155.662 5.27148 156.197 4.92383C156.736 4.57227 157.359 4.39648 158.066 4.39648ZM163.926 11.0234C163.379 11.0234 162.936 10.9043 162.596 10.666C162.26 10.4238 162.092 10.084 162.092 9.64648C162.092 9.56445 162.098 9.47656 162.109 9.38281C162.121 9.28516 162.137 9.1875 162.156 9.08984L162.836 5.94336H161.799L162.08 4.60156H163.111L163.451 3.00195H165.162L164.822 4.60156H166.199L165.912 5.94336H164.547L163.938 8.75C163.926 8.82422 163.914 8.89453 163.902 8.96094C163.895 9.02344 163.891 9.07812 163.891 9.125C163.891 9.32422 163.951 9.4707 164.072 9.56445C164.197 9.6543 164.375 9.69922 164.605 9.69922C164.672 9.69922 164.734 9.69727 164.793 9.69336C164.852 9.68945 164.908 9.68555 164.963 9.68164C165.018 9.67773 165.068 9.67188 165.115 9.66406L164.852 10.9473C164.758 10.9707 164.629 10.9883 164.465 11C164.301 11.0156 164.121 11.0234 163.926 11.0234ZM166.275 11L167.646 4.53711H169.352L167.98 11H166.275ZM168.906 3.57031C168.645 3.57031 168.418 3.47461 168.227 3.2832C168.035 3.0918 167.939 2.86133 167.939 2.5918C167.939 2.32227 168.035 2.09375 168.227 1.90625C168.418 1.71484 168.645 1.61914 168.906 1.61914C169.172 1.61914 169.398 1.71484 169.586 1.90625C169.773 2.09375 169.867 2.32227 169.867 2.5918C169.867 2.86133 169.773 3.0918 169.586 3.2832C169.398 3.47461 169.172 3.57031 168.906 3.57031ZM173.107 9.74023C173.428 9.74023 173.719 9.63086 173.98 9.41211C174.246 9.18945 174.457 8.89648 174.613 8.5332C174.773 8.16602 174.854 7.76172 174.854 7.32031C174.854 6.83984 174.75 6.46484 174.543 6.19531C174.336 5.92578 174.047 5.79102 173.676 5.79102C173.336 5.79102 173.031 5.90039 172.762 6.11914C172.496 6.33398 172.285 6.62891 172.129 7.00391C171.973 7.375 171.895 7.79492 171.895 8.26367C171.895 8.7207 172.004 9.08203 172.223 9.34766C172.441 9.60938 172.736 9.74023 173.107 9.74023ZM173.77 4.39648C174.348 4.39648 174.852 4.51367 175.281 4.74805C175.711 4.98242 176.045 5.3125 176.283 5.73828C176.521 6.16016 176.641 6.65625 176.641 7.22656C176.641 7.78516 176.549 8.30273 176.365 8.7793C176.186 9.25586 175.932 9.67188 175.604 10.0273C175.275 10.3789 174.891 10.6523 174.449 10.8477C174.008 11.043 173.527 11.1406 173.008 11.1406C172.43 11.1406 171.924 11.0234 171.49 10.7891C171.057 10.5547 170.719 10.2246 170.477 9.79883C170.238 9.37305 170.119 8.87891 170.119 8.31641C170.119 7.75 170.209 7.22852 170.389 6.75195C170.572 6.27539 170.828 5.86133 171.156 5.50977C171.484 5.1543 171.869 4.88086 172.311 4.68945C172.756 4.49414 173.242 4.39648 173.77 4.39648ZM177.338 11L178.715 4.53711H180.373L180.15 5.5625H180.256C180.463 5.23047 180.73 4.95898 181.059 4.74805C181.387 4.53711 181.781 4.43164 182.242 4.43164C182.645 4.43164 182.988 4.51562 183.273 4.68359C183.562 4.85156 183.783 5.07812 183.936 5.36328C184.092 5.64453 184.17 5.96484 184.17 6.32422C184.17 6.4375 184.162 6.56055 184.146 6.69336C184.135 6.82227 184.113 6.95508 184.082 7.0918L183.256 11H181.551L182.324 7.37305C182.344 7.2793 182.357 7.19336 182.365 7.11523C182.377 7.0332 182.383 6.95508 182.383 6.88086C182.383 6.58398 182.291 6.3418 182.107 6.1543C181.928 5.96289 181.67 5.86719 181.334 5.86719C181.08 5.86719 180.852 5.92578 180.648 6.04297C180.449 6.15625 180.283 6.3125 180.15 6.51172C180.018 6.71094 179.922 6.9375 179.863 7.19141L179.049 11H177.338Z" fill="#605DEC"/>
<path d="M199.92 5.22559L196.66 8.48559C196.275 8.87059 195.645 8.87059 195.26 8.48559L192 5.22559" stroke="white" stroke-width="1.5" stroke-miterlimit="10" stroke-linecap="round" stroke-linejoin="round"/>
</svg>
