<svg width="18" height="19" viewBox="0 0 18 19" fill="none" xmlns="http://www.w3.org/2000/svg">
<g clip-path="url(#clip0_174_4721)">
<path fill-rule="evenodd" clip-rule="evenodd" d="M13.1966 16.2305C13.6783 16.1069 14.0911 15.797 14.3443 15.369C14.5975 14.941 14.6702 14.43 14.5466 13.9483L13.8686 11.3075C13.6101 11.3292 13.3499 11.297 13.1045 11.213C12.859 11.129 12.6337 10.9949 12.4427 10.8193C12.2518 10.6437 12.0993 10.4304 11.995 10.1929C11.8908 9.95531 11.8369 9.69872 11.8369 9.43929V8.38554H10.7839C10.2866 8.38554 9.80967 8.188 9.45804 7.83637C9.10641 7.48474 8.90887 7.00782 8.90887 6.51054C8.90887 6.01326 9.10641 5.53635 9.45804 5.18472C9.80967 4.83309 10.2866 4.63554 10.7839 4.63554H11.8376V3.58179C11.8376 3.52779 11.8399 3.47404 11.8444 3.42054L11.7131 2.90904C11.6519 2.67047 11.5443 2.44629 11.3964 2.24931C11.2485 2.05234 11.0633 1.88643 10.8513 1.76106C10.6393 1.63569 10.4047 1.55332 10.1608 1.51866C9.91696 1.484 9.66866 1.49772 9.43012 1.55904L1.40887 3.61854C0.927202 3.74217 0.514375 4.05207 0.261201 4.48008C0.00802749 4.90808 -0.0647544 5.41913 0.0588665 5.90079L2.89312 16.9408C3.01691 17.4223 3.32688 17.835 3.75486 18.088C4.18285 18.341 4.6938 18.4137 5.17537 18.29L13.1966 16.2305ZM13.7126 10.1893C13.5137 10.1893 13.3229 10.1103 13.1823 9.96962C13.0416 9.82897 12.9626 9.6382 12.9626 9.43929V7.25979H10.7839C10.585 7.25979 10.3942 7.18077 10.2535 7.04012C10.1129 6.89947 10.0339 6.7087 10.0339 6.50979C10.0339 6.31088 10.1129 6.12011 10.2535 5.97946C10.3942 5.83881 10.585 5.75979 10.7839 5.75979H12.9626V3.58179C12.9626 3.38288 13.0416 3.19211 13.1823 3.05146C13.3229 2.91081 13.5137 2.83179 13.7126 2.83179C13.9115 2.83179 14.1023 2.91081 14.2429 3.05146C14.3836 3.19211 14.4626 3.38288 14.4626 3.58179V5.75979H16.6406C16.7391 5.75979 16.8366 5.77919 16.9276 5.81688C17.0186 5.85457 17.1013 5.90982 17.1709 5.97946C17.2406 6.04911 17.2958 6.13179 17.3335 6.22278C17.3712 6.31377 17.3906 6.4113 17.3906 6.50979C17.3906 6.60828 17.3712 6.70581 17.3335 6.7968C17.2958 6.8878 17.2406 6.97048 17.1709 7.04012C17.1013 7.10977 17.0186 7.16501 16.9276 7.2027C16.8366 7.24039 16.7391 7.25979 16.6406 7.25979H14.4626V9.43929C14.4626 9.6382 14.3836 9.82897 14.2429 9.96962C14.1023 10.1103 13.9115 10.1893 13.7126 10.1893Z" fill="#8F8F94"/>
</g>
<defs>
<clipPath id="clip0_174_4721">
<rect width="18" height="18" fill="white" transform="translate(0 0.5)"/>
</clipPath>
</defs>
</svg>
