<svg width="20" height="21" viewBox="0 0 20 21" fill="none" xmlns="http://www.w3.org/2000/svg">
<path d="M5.78906 3.5C6.4419 3.5 7.05189 3.82597 7.41406 4.36914L7.55664 4.58301C7.91874 5.12607 8.52797 5.45202 9.18066 5.45215H14.71C15.7016 5.45215 16.5181 6.19206 16.6436 7.14941C16.4633 7.06946 16.2705 7.01775 16.0723 6.99805L15.8887 6.98828C15.457 6.98833 15.0402 7.13812 14.709 7.40918L14.5723 7.5332C14.2232 7.88223 14.0266 8.35599 14.0264 8.84961V10.1299H12.7451C12.3131 10.1301 11.8967 10.2802 11.5654 10.5518L11.4287 10.6748C11.0797 11.0238 10.8839 11.4976 10.8838 11.9912C10.8838 12.4849 11.0797 12.9594 11.4287 13.3086C11.7777 13.6575 12.2516 13.8543 12.7451 13.8545H14.0264V15.1348C14.0264 15.6286 14.2231 16.102 14.5723 16.4512C14.9214 16.8003 15.3949 16.997 15.8887 16.9971C16.0425 16.997 16.194 16.9754 16.3408 16.9385C15.9917 17.4688 15.3923 17.8193 14.71 17.8193H1.95215C0.87386 17.8192 6.45562e-05 16.9455 0 15.8672V5.45215C0.000245953 4.374 0.873972 3.50014 1.95215 3.5H5.78906Z" fill="#8F8F94"/>
<path d="M15.3194 15.7041C15.4704 15.855 15.6751 15.9398 15.8885 15.9398C16.1019 15.9398 16.3066 15.855 16.4575 15.7041C16.6085 15.5532 16.6933 15.3485 16.6933 15.1351V12.7967H19.0303C19.136 12.7967 19.2406 12.7759 19.3382 12.7355C19.4359 12.695 19.5246 12.6357 19.5993 12.561C19.6741 12.4863 19.7333 12.3976 19.7738 12.3C19.8142 12.2023 19.835 12.0977 19.835 11.992C19.835 11.8864 19.8142 11.7817 19.7738 11.6841C19.7333 11.5865 19.6741 11.4978 19.5993 11.423C19.5246 11.3483 19.4359 11.289 19.3382 11.2486C19.2406 11.2082 19.136 11.1874 19.0303 11.1874H16.6933V8.85057C16.6933 8.63716 16.6085 8.43249 16.4575 8.28158C16.3066 8.13068 16.1019 8.0459 15.8885 8.0459C15.6751 8.0459 15.4704 8.13068 15.3194 8.28158C15.1685 8.43249 15.0837 8.63716 15.0837 8.85057V11.1874H12.7459C12.5325 11.1874 12.3278 11.2721 12.1769 11.423C12.0259 11.5739 11.9412 11.7786 11.9412 11.992C11.9412 12.2054 12.0259 12.4101 12.1769 12.561C12.3278 12.7119 12.5325 12.7967 12.7459 12.7967H15.0837V15.1351C15.0837 15.3485 15.1685 15.5532 15.3194 15.7041Z" fill="#8F8F94"/>
</svg>
