<svg width="18" height="19" viewBox="0 0 18 19" fill="none" xmlns="http://www.w3.org/2000/svg">
<path d="M0.770508 2.52832C0.913728 2.49654 1.06232 2.49735 1.20508 2.53125L6.63477 3.95898V15.4082L0.735352 13.8438C0.525235 13.7886 0.339176 13.6629 0.206055 13.4873C0.0730819 13.3117 0.000256855 13.0954 0 12.873V3.51758C-0.00171881 3.36349 0.0316497 3.21022 0.0966797 3.07129C0.161807 2.9325 0.257644 2.81069 0.375977 2.71582C0.492253 2.62435 0.627289 2.56019 0.770508 2.52832ZM13.6133 2.53125C13.7583 2.49306 13.9102 2.48953 14.0566 2.52148C14.2032 2.55349 14.3407 2.62028 14.458 2.71582C14.5773 2.80754 14.6744 2.92633 14.7422 3.0625C14.8099 3.19867 14.8472 3.34911 14.8496 3.50195V9.18555C14.6362 9.06404 14.3989 8.98739 14.1523 8.96289L13.9785 8.9541C13.57 8.95412 13.1756 9.09598 12.8623 9.35254L12.7334 9.46973C12.4032 9.79987 12.2169 10.2479 12.2168 10.7148V11.9248H11.0059C10.5971 11.9249 10.203 12.0673 9.88965 12.3242L9.76074 12.4404C9.43061 12.7705 9.24528 13.2187 9.24512 13.6855C9.24512 14.1526 9.43054 14.6014 9.76074 14.9316C9.77835 14.9492 9.79814 14.9647 9.81641 14.9814L8.19922 15.4082V3.95898L13.6133 2.53125Z" fill="#8F8F94"/>
<path d="M13.44 17.1965C13.5827 17.3393 13.7763 17.4194 13.9782 17.4194C14.18 17.4194 14.3736 17.3393 14.5163 17.1965C14.659 17.0538 14.7392 16.8603 14.7392 16.6584V14.447H16.9494C17.0493 14.447 17.1483 14.4273 17.2406 14.3891C17.333 14.3508 17.4169 14.2948 17.4875 14.2241C17.5582 14.1534 17.6143 14.0696 17.6525 13.9772C17.6908 13.8849 17.7104 13.7859 17.7104 13.686C17.7104 13.5861 17.6908 13.4871 17.6525 13.3948C17.6143 13.3025 17.5582 13.2186 17.4875 13.1479C17.4169 13.0772 17.333 13.0212 17.2406 12.9829C17.1483 12.9447 17.0493 12.925 16.9494 12.925H14.7392V10.7151C14.7392 10.5133 14.659 10.3197 14.5163 10.177C14.3736 10.0343 14.18 9.9541 13.9782 9.9541C13.7763 9.9541 13.5827 10.0343 13.44 10.177C13.2973 10.3197 13.2171 10.5133 13.2171 10.7151V12.925H11.0062C10.8043 12.925 10.6108 13.0052 10.468 13.1479C10.3253 13.2906 10.2451 13.4842 10.2451 13.686C10.2451 13.8878 10.3253 14.0814 10.468 14.2241C10.6108 14.3668 10.8043 14.447 11.0062 14.447H13.2171V16.6584C13.2171 16.8603 13.2973 17.0538 13.44 17.1965Z" fill="#8F8F94"/>
</svg>
