<svg width="17" height="18" viewBox="0 0 17 18" fill="none" xmlns="http://www.w3.org/2000/svg">
<g clip-path="url(#clip0_282_6491)">
<path d="M4.95841 17.2635C4.56883 17.2635 4.23544 17.1249 3.95825 16.8477C3.68105 16.5705 3.54222 16.2369 3.54175 15.8468V3.09684C3.54175 2.70726 3.68058 2.37387 3.95825 2.09668C4.23591 1.81948 4.5693 1.68065 4.95841 1.68018H12.0417C12.4313 1.68018 12.765 1.81901 13.0426 2.09668C13.3203 2.37434 13.4589 2.70773 13.4584 3.09684C13.4584 7.48453 13.4584 11.189 13.4584 15.8468C13.4584 16.2364 13.3198 16.5701 13.0426 16.8477C12.7654 17.1254 12.4318 17.264 12.0417 17.2635H4.95841ZM7.79175 12.6593H9.20841V8.76351H7.79175V12.6593ZM8.50008 7.34684C8.70078 7.34684 8.86912 7.27884 9.00512 7.14284C9.14112 7.00684 9.20889 6.83873 9.20841 6.63851C9.20794 6.43829 9.13994 6.27018 9.00441 6.13418C8.86889 5.99818 8.70078 5.93018 8.50008 5.93018C8.29939 5.93018 8.13128 5.99818 7.99575 6.13418C7.86022 6.27018 7.79222 6.43829 7.79175 6.63851C7.79128 6.83873 7.85928 7.00708 7.99575 7.14355C8.13222 7.28002 8.30033 7.34779 8.50008 7.34684Z" fill="white"/>
</g>
<defs>
<clipPath id="clip0_282_6491">
<rect width="17" height="17" fill="white" transform="translate(0 0.51709)"/>
</clipPath>
</defs>
</svg>
