<svg width="20" height="22" viewBox="0 0 20 22" fill="none" xmlns="http://www.w3.org/2000/svg">
<rect x="2.64444" y="1.14444" width="14.7111" height="19.7111" rx="1.77778" stroke="white" stroke-width="0.711111"/>
<rect x="3.44444" y="1.94444" width="13.1111" height="18.1111" rx="0.977778" fill="white"/>
<rect x="3.44444" y="1.94444" width="13.1111" height="18.1111" rx="0.977778" stroke="black" stroke-width="0.888889"/>
<path d="M10.6619 10.304H9.49788L9.34188 11.456H10.5059L10.6619 10.304ZM13.5419 11.456V13.016H12.1019L11.7779 15.5H9.98988L10.3139 13.016H9.14988L8.82588 15.5H7.04988L7.38588 13.016H6.13788V11.456H7.57788L7.72188 10.304H6.49788V8.756H7.92588L8.22588 6.452H9.98988L9.68988 8.756H10.8539L11.1659 6.452H12.9419L12.6419 8.756H13.8659V10.304H12.4499L12.2939 11.456H13.5419Z" fill="black"/>
</svg>
