<svg width="18" height="18" viewBox="0 0 18 18" fill="none" xmlns="http://www.w3.org/2000/svg">
<rect x="2.91999" y="0.68" width="12.16" height="16.64" rx="1.6" stroke="white" stroke-width="0.64"/>
<rect x="3.63999" y="1.67539" width="10.72" height="14.6494" rx="0.88" fill="white"/>
<rect x="3.63999" y="1.67539" width="10.72" height="14.6494" rx="0.88" stroke="black" stroke-width="0.8"/>
<path fill-rule="evenodd" clip-rule="evenodd" d="M11.4131 9.50015C11.405 9.37243 11.3826 9.24604 11.3462 9.12336C11.3104 9.00228 11.2616 8.88553 11.2017 8.77234C11.1418 8.65912 11.0707 8.54954 10.99 8.4428C10.9094 8.33605 10.8193 8.23221 10.7214 8.1305C10.6236 8.02881 10.5179 7.92928 10.4062 7.83123C10.2945 7.73317 10.1767 7.63657 10.0546 7.54072C9.93252 7.44488 9.80606 7.34978 9.67699 7.25473C9.54791 7.15968 9.41617 7.06465 9.28356 6.96897L9.22268 6.92499L9.09973 6.83602C9.058 6.80575 9.01631 6.77544 8.97465 6.74506C8.93197 6.71391 8.88935 6.68267 8.84679 6.65134C8.82519 6.63546 8.80345 6.61942 8.78157 6.60322C8.70859 6.55178 8.63845 6.49641 8.57147 6.43736C8.51126 6.38436 8.45423 6.32783 8.40069 6.26809C8.35263 6.21448 8.30809 6.15783 8.26733 6.09848C8.23077 6.04529 8.19805 5.98956 8.16942 5.93172C8.14372 5.87991 8.12218 5.82613 8.10501 5.7709C8.08957 5.7214 8.07858 5.67063 8.07217 5.61918C8.06637 5.57291 8.06529 5.52618 8.06895 5.47969C8.07225 5.4375 8.08046 5.39584 8.09341 5.35556C8.10602 5.31681 8.12303 5.27963 8.14412 5.24476C8.16547 5.20961 8.19064 5.17693 8.21919 5.14732C8.24918 5.11624 8.28217 5.08822 8.31768 5.06365C8.356 5.03714 8.39651 5.01393 8.43876 4.99427C8.485 4.97273 8.5327 4.95447 8.5815 4.93961C8.63518 4.92325 8.68977 4.91007 8.74501 4.90014C8.8057 4.88918 8.8669 4.88125 8.92838 4.87636C8.99568 4.87096 9.06318 4.8684 9.13071 4.8687C9.25172 4.87267 9.35779 4.88892 9.45075 4.91433C9.54372 4.93973 9.62356 4.97429 9.69215 5.0149C9.756 5.05248 9.81448 5.09852 9.86602 5.15175C9.91106 5.19845 9.95046 5.25028 9.9834 5.30618C10.0121 5.35492 10.0362 5.40624 10.0554 5.45947C10.0711 5.50302 10.0837 5.54765 10.0931 5.593C10.1012 5.63213 10.1054 5.66483 10.1076 5.68803C10.1098 5.71123 10.11 5.72588 10.11 5.72588H11.1432C11.1432 5.63763 11.1348 5.54268 11.1173 5.44395C11.0987 5.3404 11.0718 5.23854 11.0366 5.1394C10.9988 5.03252 10.952 4.92904 10.8967 4.83008C10.8382 4.72524 10.7701 4.62606 10.6932 4.53383C10.612 4.43637 10.5211 4.34744 10.4218 4.26844C10.3154 4.18395 10.2001 4.11131 10.0779 4.0518C9.95076 3.98966 9.81078 3.93864 9.6573 3.90168C9.50376 3.86473 9.33674 3.84182 9.15543 3.83596C9.14881 3.83596 9.14219 3.83591 9.13557 3.83579L9.12901 3.83569C9.12681 3.83569 9.12463 3.83567 9.12245 3.83562C9.12027 3.83554 9.11809 3.83548 9.11591 3.83545H9.10295C8.97758 3.83545 8.85628 3.84242 8.73951 3.85608C8.62622 3.86914 8.51389 3.88946 8.40321 3.91691C8.29888 3.94278 8.19651 3.976 8.09687 4.01632C8.00225 4.05458 7.91077 4.10017 7.82325 4.15266C7.73918 4.2031 7.65951 4.26053 7.5851 4.32436C7.51244 4.38669 7.44553 4.45542 7.38517 4.52972C7.32499 4.60383 7.2718 4.68334 7.22626 4.76724C7.1798 4.85286 7.14126 4.94255 7.11113 5.03519C7.08946 5.10173 7.07225 5.16964 7.05962 5.23847C7.04713 5.30689 7.03911 5.37605 7.03562 5.44552C7.03215 5.51532 7.03305 5.58526 7.03834 5.65495C7.04361 5.72498 7.05323 5.79516 7.06701 5.86529C7.08103 5.9362 7.09901 6.00628 7.12087 6.07518C7.14326 6.14583 7.16937 6.21525 7.19909 6.28315C7.22965 6.35301 7.26364 6.42132 7.30092 6.48783C7.33937 6.55637 7.38098 6.6231 7.42561 6.68779C7.35312 6.76312 7.28315 6.84082 7.2158 6.92078C7.15301 6.9953 7.09309 7.0722 7.03618 7.1513C6.983 7.22518 6.93311 7.30138 6.88664 7.37966C6.84304 7.45312 6.80314 7.52872 6.76708 7.60616C6.73301 7.67942 6.70308 7.75454 6.67743 7.83116C6.65293 7.90446 6.63294 7.97919 6.61759 8.05494C6.60269 8.12851 6.59262 8.20297 6.58744 8.27786C6.58235 8.35187 6.58219 8.42615 6.58696 8.50019C6.59504 8.6279 6.61749 8.7543 6.65389 8.87698C6.68971 8.99804 6.73844 9.11479 6.79837 9.228C6.85831 9.34121 6.92941 9.45079 7.01003 9.55754C7.09067 9.66426 7.18075 9.76813 7.27864 9.86981C7.3765 9.97152 7.48215 10.0711 7.59387 10.1691C7.70558 10.2672 7.82332 10.3638 7.94544 10.4596C8.06754 10.5555 8.194 10.6506 8.32308 10.7456C8.45215 10.8407 8.58389 10.9357 8.7165 11.0313L8.77738 11.0753L8.90033 11.1643C8.94207 11.1946 8.98376 11.2249 9.02541 11.2553C9.0681 11.2864 9.11072 11.3176 9.15328 11.349C9.17488 11.3649 9.19662 11.3809 9.21849 11.3971C9.29147 11.4486 9.36161 11.5039 9.4286 11.563C9.48881 11.616 9.54583 11.6725 9.59937 11.7322C9.64743 11.7859 9.69198 11.8425 9.73273 11.9019C9.7693 11.955 9.80201 12.0108 9.83064 12.0686C9.85635 12.1204 9.87789 12.1742 9.89506 12.2294C9.91049 12.2789 9.92148 12.3297 9.9279 12.3812C9.93378 12.4299 9.93475 12.4765 9.93112 12.5206C9.92781 12.5628 9.9196 12.6045 9.90666 12.6448C9.89403 12.6836 9.87698 12.7208 9.85585 12.7557C9.83442 12.791 9.80916 12.8238 9.78054 12.8536C9.75048 12.8848 9.71738 12.913 9.68173 12.9378C9.64333 12.9644 9.60273 12.9878 9.56036 13.0076C9.51409 13.0293 9.46635 13.0476 9.41748 13.0625C9.36383 13.0789 9.30924 13.092 9.25402 13.1019C9.19343 13.1127 9.13234 13.1205 9.07096 13.1251C9.00677 13.1301 8.93957 13.1323 8.86936 13.1316C8.7484 13.1277 8.6424 13.1114 8.54948 13.086C8.45656 13.0606 8.37677 13.026 8.30821 12.9854C8.24439 12.9478 8.18594 12.9018 8.13443 12.8486C8.08941 12.8019 8.05003 12.7501 8.0171 12.6942C7.98839 12.6454 7.96431 12.5941 7.94515 12.5408C7.92941 12.4973 7.91681 12.4527 7.90745 12.4073C7.90092 12.3759 7.89609 12.3442 7.89297 12.3123C7.89168 12.2997 7.89089 12.2871 7.89059 12.2745H6.85736C6.85736 12.3627 6.86574 12.4577 6.88328 12.5564C6.90182 12.6599 6.9288 12.7618 6.96397 12.8609C7.00175 12.9678 7.04855 13.0713 7.10384 13.1702C7.16232 13.2751 7.23042 13.3743 7.30726 13.4665C7.38846 13.564 7.4794 13.6529 7.57866 13.7319C7.68503 13.8164 7.8003 13.889 7.92241 13.9485C8.04955 14.0107 8.1895 14.0617 8.34296 14.0987C8.4964 14.1356 8.6634 14.1585 8.84463 14.1644C8.85125 14.1644 8.85787 14.1644 8.86449 14.1645L8.87105 14.1646L8.87762 14.1647C8.8798 14.1647 8.88198 14.1649 8.88416 14.1649H8.89711C9.02248 14.1649 9.14378 14.1579 9.26056 14.1443C9.37384 14.1312 9.48617 14.1109 9.59685 14.0834C9.70119 14.0576 9.80356 14.0243 9.90319 13.984C9.99781 13.9458 10.0893 13.9002 10.1768 13.8477C10.2609 13.7972 10.3406 13.7398 10.415 13.676C10.4876 13.6136 10.5545 13.5449 10.6149 13.4706C10.6751 13.3965 10.7283 13.317 10.7738 13.2331C10.8203 13.1475 10.8588 13.0578 10.8889 12.9651C10.9106 12.8986 10.9278 12.8307 10.9404 12.7619C10.9529 12.6934 10.961 12.6243 10.9644 12.5548C10.968 12.4853 10.967 12.4154 10.9617 12.3454C10.9563 12.2748 10.9468 12.2045 10.9331 12.135C10.919 12.0641 10.9011 11.9941 10.8792 11.9252C10.8568 11.8545 10.8307 11.7851 10.801 11.7172C10.7704 11.6473 10.7364 11.579 10.6991 11.5125C10.6607 11.444 10.6191 11.3772 10.5745 11.3125C10.6469 11.2372 10.7169 11.1595 10.7843 11.0796C10.8492 11.0023 10.909 10.9255 10.9639 10.849C11.0188 10.7726 11.0686 10.6964 11.1134 10.6207C11.157 10.5472 11.1969 10.4716 11.233 10.3942C11.2671 10.3209 11.297 10.2458 11.3226 10.1692C11.3471 10.0959 11.3671 10.0211 11.3825 9.94537C11.3974 9.87181 11.4074 9.79735 11.4126 9.72248C11.4177 9.6483 11.4179 9.57418 11.4131 9.50015ZM9.3209 10.1933C9.10649 10.0387 8.89505 9.88618 8.69798 9.7357C8.5009 9.58522 8.31814 9.43679 8.16109 9.29033C8.00402 9.14385 7.87265 8.99937 7.7783 8.85676C7.68395 8.71414 7.62661 8.57347 7.61767 8.43461C7.61324 8.36438 7.62174 8.29042 7.64271 8.21288C7.66368 8.13537 7.69715 8.05426 7.74268 7.96984C7.7882 7.8854 7.84577 7.79762 7.91495 7.70671C7.98417 7.61577 8.06498 7.52174 8.15698 7.42475C8.15864 7.42595 8.16175 7.42843 8.16175 7.42843L8.1663 7.43223L8.17085 7.43604C8.17241 7.4373 8.17401 7.43852 8.17565 7.43969C8.21778 7.47111 8.25992 7.50228 8.30206 7.53319C8.34421 7.56413 8.38631 7.59487 8.42835 7.62543C8.47039 7.65596 8.51232 7.68636 8.55415 7.71661L8.67916 7.80699C8.89358 7.96161 9.10501 8.11415 9.30209 8.26461C9.49916 8.41509 9.68193 8.56354 9.83897 8.71C9.99602 8.85647 10.1274 9.00097 10.2218 9.14356C10.3161 9.28617 10.3735 9.42687 10.3824 9.56572C10.3868 9.63595 10.3783 9.70991 10.3574 9.78743C10.3364 9.86497 10.3029 9.94605 10.2574 10.0305C10.2119 10.1149 10.1543 10.2027 10.0851 10.2936C10.0159 10.3845 9.93509 10.4786 9.84306 10.5756C9.84144 10.5744 9.83984 10.5732 9.83829 10.5719L9.83377 10.5681L9.82921 10.5643C9.82765 10.563 9.82605 10.5618 9.82442 10.5606C9.78239 10.5293 9.74026 10.4981 9.69801 10.4671C9.65585 10.4362 9.61376 10.4054 9.57172 10.3749C9.52982 10.3445 9.48788 10.3141 9.44591 10.2837C9.4041 10.2535 9.36243 10.2233 9.3209 10.1933Z" fill="black"/>
</svg>
