<svg width="18" height="18" viewBox="0 0 18 18" fill="none" xmlns="http://www.w3.org/2000/svg">
<path d="M2.81323 15.8688L3.88255 15.8005C3.72751 15.4742 3.66843 15.1112 3.71181 14.749L5.1725 2.51504C5.21632 2.14227 5.36763 1.78459 5.60907 1.48291L2.33347 1.69211C1.77683 1.72818 1.33859 2.18948 1.35649 2.72297L1.77032 14.968C1.7887 15.5013 2.25509 15.9042 2.81323 15.8688Z" fill="white"/>
<path fill-rule="evenodd" clip-rule="evenodd" d="M7.38552 1.7101L15.7488 2.3517C16.3027 2.39425 16.7009 2.86052 16.6375 3.39272L15.1765 15.6261C15.1127 16.1587 14.6117 16.5569 14.0584 16.5148L5.69509 15.8742C5.14135 15.8315 4.74311 15.3651 4.80642 14.8322L6.26736 2.59877C6.33053 2.06629 6.83205 1.66788 7.38552 1.7101ZM13.3806 8.22572C12.8381 6.6817 11.1464 5.86978 9.60232 6.41225C8.05818 6.95476 7.24635 8.64641 7.78884 10.1906C8.33137 11.7347 10.023 12.5465 11.5672 12.004C13.1112 11.4615 13.9231 9.76981 13.3806 8.22572Z" fill="white"/>
</svg>
