<?xml version="1.0" encoding="UTF-8" standalone="no"?>
<!DOCTYPE svg PUBLIC "-//W3C//DTD SVG 1.1//EN" "http://www.w3.org/Graphics/SVG/1.1/DTD/svg11.dtd">
<svg width="100%" height="100%" viewBox="0 0 1048 318" version="1.1" xmlns="http://www.w3.org/2000/svg" xmlns:xlink="http://www.w3.org/1999/xlink" xml:space="preserve" xmlns:serif="http://www.serif.com/" style="fill-rule:evenodd;clip-rule:evenodd;stroke-linejoin:round;stroke-miterlimit:2;">
    <g transform="matrix(1,0,0,1,-249.835417,-2717.699344)">
        <g>
            <g transform="matrix(0.773965,0,0,0.773965,-205.556669,1083.891841)">
                <g transform="matrix(198.238582,0,0,198.238582,1947.114121,2464)">
                </g>
                <text x="812px" y="2464px" style="font-family:'MetroGate-Regular', 'Metro Gate';font-size:198.239px;fill:rgb(30,56,107);">C<tspan x="974.556px 1123.235px 1242.178px 1390.857px 1555.395px 1661.651px 1810.329px " y="2464px 2464px 2464px 2464px 2464px 2464px 2464px ">ardStax</tspan></text>
            </g>
            <g transform="matrix(1,0,0,1,-299,-82)">
                <path d="M606.167,3085.176C603.783,3086.318 600.962,3086.047 598.838,3084.473C596.715,3082.898 595.635,3080.279 596.034,3077.665L601.25,3043.474C602.249,3036.92 607.975,3032.138 614.602,3032.322L704.182,3034.811C704.943,3034.832 705.59,3035.371 705.748,3036.116C705.906,3036.86 705.534,3037.616 704.847,3037.945L606.167,3085.176ZM716.826,3066.175L676.833,3115.767C675.675,3117.203 673.822,3117.889 672.007,3117.554C670.193,3117.218 668.708,3115.915 668.14,3114.159L662.161,3095.679C660.928,3091.87 662.741,3087.742 666.38,3086.072L714.957,3063.774C715.617,3063.471 716.398,3063.662 716.843,3064.234C717.289,3064.807 717.282,3065.611 716.826,3066.175ZM737.762,3086.951L730.922,3114.314C730.539,3115.842 729.351,3117.039 727.825,3117.431C726.299,3117.823 724.681,3117.349 723.609,3116.194L719.906,3112.207C717.69,3109.82 717.645,3106.14 719.804,3103.7L735.619,3085.822C736,3085.392 736.625,3085.277 737.134,3085.545C737.642,3085.813 737.902,3086.393 737.762,3086.951ZM597.574,2946.143L708.011,3000.097C708.88,3000.521 709.342,3001.489 709.127,3002.432C708.912,3003.375 708.076,3004.045 707.108,3004.051L557.672,3004.905C554.411,3004.923 551.409,3003.135 549.872,3000.259C548.336,2997.384 548.518,2993.894 550.346,2991.194L577.155,2951.589C581.655,2944.941 590.361,2942.619 597.574,2946.143ZM632.025,2857.231L719.879,2962.655C720.524,2963.429 720.546,2964.546 719.933,2965.345C719.32,2966.145 718.235,2966.412 717.32,2965.99L571.515,2898.63C568.317,2897.152 566.209,2894.016 566.049,2890.497C565.889,2886.979 567.703,2883.664 570.754,2881.903L617.849,2854.707C622.559,2851.987 628.544,2853.052 632.025,2857.231ZM648.413,2821.78C645.82,2818.729 645.145,2814.486 646.663,2810.78C648.182,2807.075 651.641,2804.525 655.63,2804.172L705.663,2799.739C710.488,2799.311 714.926,2802.402 716.198,2807.076L751.718,2937.613C751.956,2938.489 751.555,2939.413 750.751,2939.837C749.948,2940.26 748.959,2940.069 748.371,2939.377L648.413,2821.78Z" style="fill:url(#_Linear1);"/>
            </g>
        </g>
    </g>
    <defs>
        <linearGradient id="_Linear1" x1="0" y1="0" x2="1" y2="0" gradientUnits="userSpaceOnUse" gradientTransform="matrix(108,364,-364,108,631,2788)"><stop offset="0" style="stop-color:rgb(61,126,245);stop-opacity:1"/><stop offset="1" style="stop-color:rgb(16,23,41);stop-opacity:1"/></linearGradient>
    </defs>
</svg>
