<svg width="46" height="28" viewBox="0 0 46 28" fill="none" xmlns="http://www.w3.org/2000/svg">
<rect width="46" height="28" rx="2" fill="#605DEC"/>
<rect width="46" height="28" rx="2" fill="url(#paint0_linear_222_12256)" fill-opacity="0.12"/>
<path d="M7.22266 18.1289C6.66016 18.1289 6.18359 17.9648 5.79297 17.6367C5.40234 17.3086 5.10547 16.8223 4.90234 16.1777C4.69922 15.5332 4.59766 14.7344 4.59766 13.7812V13.7637C4.59766 12.8145 4.69922 12.0176 4.90234 11.373C5.10547 10.7285 5.40234 10.2422 5.79297 9.91406C6.18359 9.58203 6.66016 9.41602 7.22266 9.41602C7.79688 9.41602 8.27734 9.58203 8.66406 9.91406C9.05469 10.2422 9.34961 10.7285 9.54883 11.373C9.75195 12.0176 9.85352 12.8145 9.85352 13.7637V13.7812C9.85352 14.7344 9.75391 15.5332 9.55469 16.1777C9.35547 16.8223 9.06055 17.3086 8.66992 17.6367C8.2793 17.9648 7.79688 18.1289 7.22266 18.1289ZM7.22266 16.9043C7.46484 16.9043 7.66797 16.793 7.83203 16.5703C7.99609 16.3438 8.12109 16 8.20703 15.5391C8.29297 15.0781 8.33594 14.4922 8.33594 13.7812V13.7695C8.33594 13.0586 8.29297 12.4727 8.20703 12.0117C8.12109 11.5469 7.99609 11.2031 7.83203 10.9805C7.66797 10.7539 7.46484 10.6406 7.22266 10.6406C6.98438 10.6406 6.78125 10.7539 6.61328 10.9805C6.44922 11.2031 6.32422 11.5469 6.23828 12.0117C6.15625 12.4727 6.11523 13.0586 6.11523 13.7695V13.7812C6.11523 14.4922 6.15625 15.0781 6.23828 15.5391C6.32422 16 6.44922 16.3438 6.61328 16.5703C6.78125 16.793 6.98438 16.9043 7.22266 16.9043ZM13.668 18.1289C13.1055 18.1289 12.6289 17.9648 12.2383 17.6367C11.8477 17.3086 11.5508 16.8223 11.3477 16.1777C11.1445 15.5332 11.043 14.7344 11.043 13.7812V13.7637C11.043 12.8145 11.1445 12.0176 11.3477 11.373C11.5508 10.7285 11.8477 10.2422 12.2383 9.91406C12.6289 9.58203 13.1055 9.41602 13.668 9.41602C14.2422 9.41602 14.7227 9.58203 15.1094 9.91406C15.5 10.2422 15.7949 10.7285 15.9941 11.373C16.1973 12.0176 16.2988 12.8145 16.2988 13.7637V13.7812C16.2988 14.7344 16.1992 15.5332 16 16.1777C15.8008 16.8223 15.5059 17.3086 15.1152 17.6367C14.7246 17.9648 14.2422 18.1289 13.668 18.1289ZM13.668 16.9043C13.9102 16.9043 14.1133 16.793 14.2773 16.5703C14.4414 16.3438 14.5664 16 14.6523 15.5391C14.7383 15.0781 14.7812 14.4922 14.7812 13.7812V13.7695C14.7812 13.0586 14.7383 12.4727 14.6523 12.0117C14.5664 11.5469 14.4414 11.2031 14.2773 10.9805C14.1133 10.7539 13.9102 10.6406 13.668 10.6406C13.4297 10.6406 13.2266 10.7539 13.0586 10.9805C12.8945 11.2031 12.7695 11.5469 12.6836 12.0117C12.6016 12.4727 12.5605 13.0586 12.5605 13.7695V13.7812C12.5605 14.4922 12.6016 15.0781 12.6836 15.5391C12.7695 16 12.8945 16.3438 13.0586 16.5703C13.2266 16.793 13.4297 16.9043 13.668 16.9043ZM19.0234 18V11.0449H18.9824L17.4121 12.2812V10.8281L19.0234 9.54492H20.5117V18H19.0234ZM24.3613 9.46289L22.8555 20.0625H21.5547L23.0605 9.46289H24.3613ZM27.5898 18.1289C27.0273 18.1289 26.5508 17.9648 26.1602 17.6367C25.7695 17.3086 25.4727 16.8223 25.2695 16.1777C25.0664 15.5332 24.9648 14.7344 24.9648 13.7812V13.7637C24.9648 12.8145 25.0664 12.0176 25.2695 11.373C25.4727 10.7285 25.7695 10.2422 26.1602 9.91406C26.5508 9.58203 27.0273 9.41602 27.5898 9.41602C28.1641 9.41602 28.6445 9.58203 29.0312 9.91406C29.4219 10.2422 29.7168 10.7285 29.916 11.373C30.1191 12.0176 30.2207 12.8145 30.2207 13.7637V13.7812C30.2207 14.7344 30.1211 15.5332 29.9219 16.1777C29.7227 16.8223 29.4277 17.3086 29.0371 17.6367C28.6465 17.9648 28.1641 18.1289 27.5898 18.1289ZM27.5898 16.9043C27.832 16.9043 28.0352 16.793 28.1992 16.5703C28.3633 16.3438 28.4883 16 28.5742 15.5391C28.6602 15.0781 28.7031 14.4922 28.7031 13.7812V13.7695C28.7031 13.0586 28.6602 12.4727 28.5742 12.0117C28.4883 11.5469 28.3633 11.2031 28.1992 10.9805C28.0352 10.7539 27.832 10.6406 27.5898 10.6406C27.3516 10.6406 27.1484 10.7539 26.9805 10.9805C26.8164 11.2031 26.6914 11.5469 26.6055 12.0117C26.5234 12.4727 26.4824 13.0586 26.4824 13.7695V13.7812C26.4824 14.4922 26.5234 15.0781 26.6055 15.5391C26.6914 16 26.8164 16.3438 26.9805 16.5703C27.1484 16.793 27.3516 16.9043 27.5898 16.9043ZM34.0352 18.1289C33.4727 18.1289 32.9961 17.9648 32.6055 17.6367C32.2148 17.3086 31.918 16.8223 31.7148 16.1777C31.5117 15.5332 31.4102 14.7344 31.4102 13.7812V13.7637C31.4102 12.8145 31.5117 12.0176 31.7148 11.373C31.918 10.7285 32.2148 10.2422 32.6055 9.91406C32.9961 9.58203 33.4727 9.41602 34.0352 9.41602C34.6094 9.41602 35.0898 9.58203 35.4766 9.91406C35.8672 10.2422 36.1621 10.7285 36.3613 11.373C36.5645 12.0176 36.666 12.8145 36.666 13.7637V13.7812C36.666 14.7344 36.5664 15.5332 36.3672 16.1777C36.168 16.8223 35.873 17.3086 35.4824 17.6367C35.0918 17.9648 34.6094 18.1289 34.0352 18.1289ZM34.0352 16.9043C34.2773 16.9043 34.4805 16.793 34.6445 16.5703C34.8086 16.3438 34.9336 16 35.0195 15.5391C35.1055 15.0781 35.1484 14.4922 35.1484 13.7812V13.7695C35.1484 13.0586 35.1055 12.4727 35.0195 12.0117C34.9336 11.5469 34.8086 11.2031 34.6445 10.9805C34.4805 10.7539 34.2773 10.6406 34.0352 10.6406C33.7969 10.6406 33.5938 10.7539 33.4258 10.9805C33.2617 11.2031 33.1367 11.5469 33.0508 12.0117C32.9688 12.4727 32.9277 13.0586 32.9277 13.7695V13.7812C32.9277 14.4922 32.9688 15.0781 33.0508 15.5391C33.1367 16 33.2617 16.3438 33.4258 16.5703C33.5938 16.793 33.7969 16.9043 34.0352 16.9043ZM39.3906 18V11.0449H39.3496L37.7793 12.2812V10.8281L39.3906 9.54492H40.8789V18H39.3906Z" fill="white"/>
<defs>
<linearGradient id="paint0_linear_222_12256" x1="23" y1="0" x2="23" y2="28" gradientUnits="userSpaceOnUse">
<stop stop-color="white"/>
<stop offset="1" stop-color="white" stop-opacity="0"/>
</linearGradient>
</defs>
</svg>
