<svg width="20" height="20" viewBox="0 0 20 20" fill="none" xmlns="http://www.w3.org/2000/svg">
<g clip-path="url(#clip0_108_10685)">
<path d="M15.105 19.0527L10.4474 16.8878C10.1388 16.7443 10.0046 16.3774 10.1481 16.0684L13.444 8.97766C13.5872 8.66891 13.9545 8.53493 14.2629 8.67817L18.9207 10.8436C19.2293 10.987 19.3632 11.3539 19.2197 11.6625L15.924 18.7532C15.7804 19.062 15.4133 19.196 15.105 19.0527ZM3.86524 18.2791L0.773053 11.0973C0.638366 10.7845 0.783014 10.4214 1.09532 10.287L2.62641 9.6279L4.5395 16.8171C4.72286 17.5041 5.42837 17.9139 6.11606 17.7308L7.64075 17.3251L4.67563 18.6019C4.36286 18.7364 3.99993 18.5919 3.86524 18.2791ZM5.18907 16.644L3.17821 9.08743C3.09071 8.75852 3.2868 8.42032 3.61532 8.33305L4.94473 7.97946L4.78466 9.1695C4.69005 9.87403 5.18403 10.5231 5.88954 10.6182L9.00782 11.0384L7.73841 15.3145C7.60774 15.7551 7.72395 16.2109 8.00661 16.5325L5.94333 17.0813C5.61442 17.1688 5.27657 16.9731 5.18907 16.644ZM9.42454 16.458L8.79876 16.2721C8.47219 16.1748 8.28626 15.832 8.38298 15.5054L10.6084 8.0093C10.7054 7.68274 11.049 7.4968 11.3749 7.59329L13.2918 8.16294C13.0929 8.29413 12.9344 8.47837 12.8343 8.69458L9.53825 15.7856C9.44059 15.9955 9.40141 16.2277 9.42454 16.458ZM9.20161 10.3865L5.9795 9.95227C5.64227 9.90672 5.40512 9.59602 5.45067 9.2586L6.49481 1.50899C6.54012 1.17177 6.85126 0.934851 7.18778 0.980164L12.2787 1.66622C12.6157 1.71177 12.8526 2.02266 12.8073 2.35966L12.1649 7.12735L11.566 6.94954C10.8837 6.74653 10.1666 7.13641 9.9643 7.81798L9.20161 10.3865Z" fill="white"/>
</g>
<defs>
<clipPath id="clip0_108_10685">
<rect width="20" height="20" fill="white"/>
</clipPath>
</defs>
</svg>
