<svg width="18" height="18" viewBox="0 0 18 18" fill="none" xmlns="http://www.w3.org/2000/svg">
<rect width="18" height="18" rx="9" fill="#6865E7"/>
<path d="M7.37994 12.81C7.18104 12.81 6.99031 12.7309 6.84969 12.5903L3.96969 9.71025C3.89806 9.64107 3.84092 9.55831 3.80161 9.46681C3.76231 9.3753 3.74162 9.27689 3.74075 9.1773C3.73989 9.07772 3.75886 8.97896 3.79657 8.88679C3.83428 8.79461 3.88997 8.71088 3.96039 8.64046C4.03081 8.57004 4.11455 8.51435 4.20672 8.47664C4.2989 8.43893 4.39766 8.41995 4.49724 8.42081C4.59682 8.42168 4.69524 8.44237 4.78674 8.48168C4.87825 8.52098 4.961 8.57812 5.03019 8.64975L7.37994 10.9995L12.9697 5.40975C13.1111 5.27313 13.3006 5.19754 13.4972 5.19925C13.6939 5.20096 13.882 5.27983 14.0211 5.41889C14.1601 5.55794 14.239 5.74605 14.2407 5.9427C14.2424 6.13935 14.1668 6.3288 14.0302 6.47025L7.91019 12.5903C7.76957 12.7309 7.57884 12.81 7.37994 12.81Z" fill="white"/>
</svg>
