<svg width="18" height="18" viewBox="0 0 18 18" fill="none" xmlns="http://www.w3.org/2000/svg">
<g clip-path="url(#clip0_254_5450)">
<path d="M9 0C13.9706 0 18 4.02944 18 9C18 13.9706 13.9706 18 9 18C4.02944 18 0 13.9706 0 9C0 4.02944 4.02944 0 9 0ZM8.99805 1.68359C8.99463 1.68736 8.99472 1.68738 8.99316 1.68945C8.98113 1.70616 8.97455 1.72199 8.9668 1.74316C8.80982 2.34218 8.72409 2.96066 8.56348 3.56055C8.36271 4.25808 8.05219 5.50313 7.38867 5.93164C6.26488 6.56649 4.01491 5.73093 2.7627 5.42285C2.67048 5.39709 2.50008 5.38624 2.61621 5.52344C3.55879 6.45113 5.00111 7.42301 5.58594 8.5918C5.82304 9.09267 5.71169 9.56683 5.40137 9.99121C4.66528 10.9965 3.60342 11.8081 2.59863 12.5322C2.56582 12.5661 2.54099 12.5953 2.55762 12.6299C2.57094 12.6538 2.61736 12.6625 2.67188 12.6582C2.69758 12.6563 2.72408 12.6521 2.75098 12.6465C3.75112 12.4554 4.71587 11.9891 5.78125 11.9072C5.96627 11.8925 6.1748 11.8836 6.36328 11.8848C7.33136 11.8793 7.76301 12.2415 8.15527 13.2383C8.55439 14.2028 8.74447 15.2423 8.96289 16.2588C9.03661 16.4498 9.13963 16.2037 9.16211 16.1025C9.27562 15.695 9.32965 15.2296 9.43262 14.7979C9.65432 13.9821 9.97116 12.5886 10.6777 12.1055C11.8825 11.4349 14.0009 12.3275 15.3379 12.6084C15.3763 12.616 15.4049 12.6173 15.4141 12.6074C15.4248 12.5968 15.4105 12.5723 15.3799 12.5381C15.3671 12.5239 15.3522 12.5073 15.3359 12.4912C14.5788 11.7488 13.641 11.1859 12.9756 10.3428C12.5757 9.86549 12.3185 9.43815 12.3604 9.0498C12.3901 8.7059 12.5864 8.3993 12.8105 8.08984C13.502 7.13188 14.5544 6.45733 15.3428 5.62207C15.4215 5.54379 15.531 5.39764 15.3467 5.41113H15.3447C14.7396 5.53938 14.1534 5.75984 13.5479 5.88965C13.2893 5.94676 13.0475 5.99802 12.7832 6.04492C12.0192 6.16551 11.1901 6.27866 10.6201 5.86621C10.1004 5.4671 9.79179 4.51289 9.59863 3.81055C9.41557 3.1502 9.27122 2.39868 9.09473 1.78906C9.08607 1.75964 9.07474 1.72874 9.06055 1.70312C9.04997 1.68558 9.04142 1.67393 9.02344 1.6709C9.01513 1.67073 9.00601 1.67477 8.99805 1.68359Z" fill="white"/>
</g>
<defs>
<clipPath id="clip0_254_5450">
<rect width="18" height="18" fill="white"/>
</clipPath>
</defs>
</svg>
