<svg width="28" height="28" viewBox="0 0 28 28" fill="none" xmlns="http://www.w3.org/2000/svg">
<path d="M10.25 2C9.52065 2 8.82118 2.28973 8.30546 2.80546C7.78973 3.32118 7.5 4.02065 7.5 4.75V20.75C7.5 21.4793 7.78973 22.1788 8.30546 22.6945C8.82118 23.2103 9.52065 23.5 10.25 23.5H20.25C20.9793 23.5 21.6788 23.2103 22.1945 22.6945C22.7103 22.1788 23 21.4793 23 20.75V4.75C23 4.02065 22.7103 3.32118 22.1945 2.80546C21.6788 2.28973 20.9793 2 20.25 2H10.25ZM6.5 4.8C6.04844 5.03044 5.66937 5.38121 5.40466 5.81357C5.13995 6.24593 4.99991 6.74304 5 7.25V20.75C5 23.65 7.35 26 10.25 26H17.75C18.257 26.0001 18.7541 25.8601 19.1864 25.5953C19.6188 25.3306 19.9696 24.9516 20.2 24.5H10.25C9.25544 24.5 8.30161 24.1049 7.59835 23.4017C6.89509 22.6984 6.5 21.7446 6.5 20.75V4.8Z" fill="white"/>
</svg>
