<svg width="20" height="20" viewBox="0 0 20 20" fill="none" xmlns="http://www.w3.org/2000/svg">
<path d="M10.6251 1.66699C9.92929 1.66718 9.26027 1.93515 8.75674 2.41533L3.08007 7.82949C2.89893 8.00229 2.75422 8.20961 2.65449 8.43922C2.55476 8.66884 2.50201 8.9161 2.49937 9.16643C2.49673 9.41676 2.54425 9.66508 2.63911 9.89675C2.73398 10.1284 2.87428 10.3387 3.05174 10.5153L8.26507 15.7045C8.61516 16.0531 9.08867 16.2494 9.5827 16.2508C10.0767 16.2522 10.5513 16.0586 10.9034 15.712L16.6909 10.0162C17.2084 9.50783 17.4992 8.81199 17.4992 8.08616V3.95866C17.4992 3.35102 17.2579 2.76825 16.8283 2.3385C16.3987 1.90875 15.816 1.66721 15.2084 1.66699H10.6251ZM13.5417 6.45866C13.2655 6.45866 13.0005 6.34891 12.8052 6.15356C12.6098 5.95821 12.5001 5.69326 12.5001 5.41699C12.5001 5.14072 12.6098 4.87577 12.8052 4.68042C13.0005 4.48507 13.2655 4.37533 13.5417 4.37533C13.818 4.37533 14.083 4.48507 14.2783 4.68042C14.4737 4.87577 14.5834 5.14072 14.5834 5.41699C14.5834 5.69326 14.4737 5.95821 14.2783 6.15356C14.083 6.34891 13.818 6.45866 13.5417 6.45866ZM16.0467 11.8195L17.2759 10.6103C17.3131 10.5731 17.3498 10.5353 17.3859 10.497C17.5175 10.9026 17.5334 11.3369 17.4316 11.751C17.3299 12.1652 17.1147 12.5427 16.8101 12.8412L12.3651 17.1987C11.6228 17.9262 10.6242 18.3326 9.58484 18.3301C8.5455 18.3276 7.54884 17.9164 6.81007 17.1853L3.18007 13.5937C2.87769 13.2947 2.66446 12.9175 2.56424 12.5042C2.46401 12.0909 2.48075 11.6579 2.61257 11.2537L3.97007 12.6037C3.99674 12.6392 4.02646 12.6728 4.05924 12.7045L6.06841 14.6928L7.67757 16.2945C8.18321 16.7986 8.86744 17.0826 9.58142 17.0848C10.2954 17.087 10.9814 16.8071 11.4901 16.3062L15.9351 11.9487C15.9767 11.9081 16.014 11.865 16.0467 11.8195Z" fill="#8F8F94"/>
</svg>
