<svg width="20" height="20" viewBox="0 0 20 20" fill="none" xmlns="http://www.w3.org/2000/svg">
<path d="M8.18188 3.18164L10.9094 6.36328L8.18188 10.4541L10.4543 13.6367L8.63599 15.4541L9.64185 17.9688H5.2981C4.81414 17.9685 4.42212 17.5758 4.42212 17.0918V2.90723C4.42212 2.42322 4.81414 2.03049 5.2981 2.03027H8.67505L8.18188 3.18164ZM14.7024 2.03027C15.1865 2.03034 15.5793 2.42312 15.5793 2.90723V17.0918C15.5793 17.5759 15.1865 17.9687 14.7024 17.9688H10.0481L9.54517 15.4541L11.3635 13.6367L9.09106 10.4541L13.1819 6.36328L10.0002 2.72754L10.3489 2.03027H14.7024Z" fill="white"/>
<path d="M8.96143 1.36328H5.20654C4.45372 1.36345 3.84253 1.97473 3.84229 2.72754V17.2725C3.84233 18.0254 4.4536 18.6366 5.20654 18.6367H9.90967L10.2729 19.5459H5.20654C3.95152 19.5457 2.93413 18.5275 2.93408 17.2725V2.72754C2.93432 1.47265 3.95164 0.455246 5.20654 0.455078H9.3501L8.96143 1.36328ZM14.7935 0.455078C16.0484 0.455248 17.0657 1.47266 17.0659 2.72754V17.2725C17.0659 18.5275 16.0485 19.5457 14.7935 19.5459H10.3638L10.1821 18.6367H14.7935C15.5464 18.6365 16.1567 18.0254 16.1567 17.2725V2.72754C16.1565 1.97473 15.5463 1.36345 14.7935 1.36328H10.6812L11.1362 0.455078H14.7935Z" fill="white"/>
</svg>
