<svg width="31" height="15" viewBox="0 0 31 15" fill="none" xmlns="http://www.w3.org/2000/svg">
<g clip-path="url(#clip0_126_15345)">
<mask id="mask0_126_15345" style="mask-type:luminance" maskUnits="userSpaceOnUse" x="0" y="0" width="31" height="15">
<path d="M30.1399 0.464661H0.139893V14.4647H30.1399V0.464661Z" fill="white"/>
</mask>
<g mask="url(#mask0_126_15345)">
<path d="M13.0206 3.01389C13.5007 2.82038 14.0471 2.71942 14.668 2.71942V5.41174C14.403 5.3781 14.1796 5.36125 14.0057 5.36125C13.3766 5.36125 12.8799 5.53793 12.5239 5.88289C12.168 6.22785 11.9858 6.75789 11.9858 7.47301V11.4021H9.03882V5.72301C9.03882 4.14971 10.2971 2.87086 11.8451 2.87086V3.89731C12.1514 3.50187 12.5405 3.21581 13.0206 3.01389Z" fill="#F3BF27"/>
<path d="M15.8767 2.87088C17.4992 2.87088 18.8237 4.20862 18.8237 5.86607V11.4021H15.8767V2.87088Z" fill="#F3BF27"/>
<path d="M28.0951 3.26625C28.7159 3.62803 29.2126 4.14125 29.5852 4.80591C29.9494 5.47057 30.1315 6.24463 30.1315 7.12803C30.1315 8.01143 29.9494 8.78549 29.5852 9.45012C29.2209 10.1148 28.7242 10.628 28.0951 10.9898C27.4659 11.3516 26.7789 11.5367 26.009 11.5367C25.0239 11.5367 24.2457 11.2338 23.6663 10.6364V14.4477H20.7192V5.72299C20.7192 4.14966 21.9775 2.87082 23.5255 2.87082V3.72057C24.0719 3.05591 24.8997 2.72778 26.009 2.72778C26.7789 2.72778 27.4742 2.90447 28.0951 3.26625ZM26.6629 8.62561C26.9941 8.26385 27.1596 7.76746 27.1596 7.13643C27.1596 6.50541 26.9941 6.00901 26.6629 5.64725C26.3318 5.28549 25.9097 5.10038 25.3881 5.10038C24.8749 5.10038 24.4444 5.28549 24.1133 5.64725C23.7821 6.00901 23.6166 6.50541 23.6166 7.13643C23.6166 7.76746 23.7821 8.26385 24.1133 8.62561C24.4444 8.98742 24.8666 9.1725 25.3881 9.1725C25.9097 9.1725 26.3318 8.98742 26.6629 8.62561Z" fill="#F3BF27"/>
<path fill-rule="evenodd" clip-rule="evenodd" d="M7.25078 0.775935C7.22595 0.456224 6.82856 0.346849 6.65475 0.607666C5.90143 1.76031 4.32858 3.83843 2.2756 4.36007C-0.654867 5.10887 -0.406522 9.81198 2.03553 11.0656C3.78222 11.9574 7.3087 11.4021 7.49083 8.14612C7.57363 6.5644 7.36667 2.65214 7.25078 0.775935ZM3.55044 5.20986C3.56699 5.13416 3.47593 5.07526 3.40971 5.12574C3.13653 5.34449 2.59845 5.73994 2.03554 5.71469C1.22428 5.68105 0.975933 6.84207 1.52229 7.33006C1.91137 7.67502 2.85507 7.80121 3.11997 7.01875C3.24208 6.64649 3.44423 5.70471 3.54538 5.23342L3.55044 5.20986Z" fill="#F3BF27"/>
</g>
</g>
<defs>
<clipPath id="clip0_126_15345">
<rect width="30" height="14" fill="white" transform="translate(0.139893 0.464661)"/>
</clipPath>
</defs>
</svg>
