<svg width="28" height="28" viewBox="0 0 28 28" fill="none" xmlns="http://www.w3.org/2000/svg">
<path d="M24.3309 5.65419L22.8691 5.04328V14.8942L25.52 8.50146C25.9673 7.38874 25.4546 6.11237 24.3309 5.65419ZM3.0582 9.69055L8.46911 22.7269C8.62844 23.1236 8.90022 23.465 9.25103 23.7092C9.60184 23.9534 10.0164 24.0897 10.4437 24.1015C10.7273 24.1015 11.0218 24.0469 11.3055 23.9269L19.3455 20.5996C20.1637 20.2615 20.6655 19.4542 20.6873 18.6469C20.6982 18.3633 20.6437 18.0469 20.5455 17.7633L15.0909 4.72692C14.9372 4.32732 14.6666 3.9834 14.3143 3.74011C13.962 3.49682 13.5445 3.36548 13.1164 3.36328C12.8327 3.36328 12.5491 3.42874 12.2764 3.52692L4.24729 6.85419C3.71358 7.07275 3.2885 7.49431 3.06552 8.02619C2.84254 8.55807 2.83991 9.15673 3.0582 9.69055ZM20.6764 5.5451C20.6764 4.96645 20.4465 4.41149 20.0373 4.00232C19.6282 3.59315 19.0732 3.36328 18.4946 3.36328H16.9127L20.6764 12.4615" fill="white"/>
</svg>
