<svg width="31" height="13" viewBox="0 0 31 13" fill="none" xmlns="http://www.w3.org/2000/svg">
<g clip-path="url(#clip0_123_15309)">
<path d="M19.1321 6.82871C17.769 6.8733 16.922 7.11883 16.922 8.01505C16.922 8.59524 17.3854 9.22423 18.5619 9.22423C20.1392 9.22423 20.9812 8.36607 20.9812 6.95858L20.9813 6.80377C20.4283 6.80377 19.7463 6.80859 19.1321 6.82871ZM22.4847 8.68829C22.4847 9.12496 22.4973 9.55601 22.5355 9.94416H21.1371C21.0998 9.62455 21.0862 9.30697 21.0862 8.99894C20.3301 9.92658 19.4308 10.1933 18.1833 10.1933C16.333 10.1933 15.3423 9.2171 15.3423 8.088C15.3423 6.45271 16.6898 5.87613 19.029 5.82264C19.6687 5.80806 20.3872 5.8059 20.9812 5.8059L20.9812 5.64612C20.9812 4.55135 20.2778 4.10122 19.0591 4.10122C18.1544 4.10122 17.4876 4.47494 17.4188 5.12071H15.8393C16.0065 3.51058 17.7013 3.10336 19.1915 3.10336C20.9767 3.10336 22.4847 3.73736 22.4847 5.62208L22.4847 8.68829Z" fill="#FFBC13"/>
<path d="M6.12898 6.03019C6.07065 4.62651 5.0556 4.10122 3.97074 4.10122C2.80091 4.10122 1.86694 4.69209 1.70333 6.03019H6.12898ZM1.67092 7.02806C1.75205 8.39002 2.69302 9.19552 3.98685 9.19552C4.88326 9.19552 5.68064 8.83096 5.94763 8.03789H7.49816C7.1966 9.64706 5.48355 10.1933 4.00907 10.1933C1.32809 10.1933 0.139893 8.71953 0.139893 6.73209C0.139893 4.54426 1.36886 3.10336 4.03354 3.10336C6.1545 3.10336 7.70853 4.21126 7.70853 6.62941V7.02806H1.67092Z" fill="#F12C2D"/>
<path d="M11.5648 9.16703C12.962 9.16703 13.918 8.16326 13.918 6.6485C13.918 5.13388 12.962 4.12997 11.5648 4.12997C10.1755 4.12997 9.21148 5.13388 9.21148 6.6485C9.21148 8.16326 10.1755 9.16703 11.5648 9.16703ZM7.7084 0.464661H9.21148L9.21133 4.2339C9.94803 3.35775 10.963 3.10336 11.962 3.10336C13.6371 3.10336 15.4976 4.23157 15.4976 6.66754C15.4976 8.70738 14.0179 10.1933 11.9341 10.1933C10.8434 10.1933 9.81671 9.80271 9.18353 9.02896C9.18353 9.33801 9.16624 9.6495 9.13238 9.94416H7.65723C7.68288 9.46777 7.70839 8.87462 7.70839 8.39466L7.7084 0.464661Z" fill="#0968F6"/>
<path d="M30.1398 3.35297L25.4914 12.4647H23.8083L25.1446 9.93456L21.6465 3.35297H23.4053L25.9794 8.49523L28.5463 3.35297H30.1398Z" fill="#93C822"/>
</g>
<defs>
<clipPath id="clip0_123_15309">
<rect width="30" height="12" fill="white" transform="translate(0.139893 0.464661)"/>
</clipPath>
</defs>
</svg>
