<svg width="32" height="32" viewBox="0 0 32 32" fill="none" xmlns="http://www.w3.org/2000/svg">
<rect width="32" height="32" rx="16" fill="#2B2B2B"/>
<rect x="0.5" y="0.5" width="31" height="31" rx="15.5" stroke="white" stroke-opacity="0.4"/>
<path d="M21.4721 8L24.0001 10.528L22.0729 12.456L19.545 9.928L21.4721 8ZM12.2133 19.7871H14.7412L20.8815 13.6466L18.3535 11.1187L12.2133 17.2591V19.7871Z" fill="white"/>
<path d="M21.4822 22.3145H12.3463C12.3244 22.3145 12.3017 22.323 12.2798 22.323C12.2519 22.323 12.2241 22.3154 12.1955 22.3145H9.68527V10.5173H15.4548L17.1401 8.83203H9.68527C8.75584 8.83203 8 9.58705 8 10.5173V22.3145C8 23.2448 8.75584 23.9999 9.68527 23.9999H21.4822C21.9291 23.9999 22.3578 23.8223 22.6738 23.5062C22.9899 23.1902 23.1675 22.7615 23.1675 22.3145V15.0104L21.4822 16.6957V22.3145Z" fill="white"/>
</svg>
