<svg width="20" height="20" viewBox="0 0 20 20" fill="none" xmlns="http://www.w3.org/2000/svg">
<g clip-path="url(#clip0_189_4809)">
<path d="M18.5499 2.79167C18.4717 2.7002 18.3745 2.62676 18.2652 2.57641C18.1559 2.52606 18.0369 2.49999 17.9166 2.5H10.4166C10.2983 2.50015 10.1813 2.52549 10.0736 2.57435C9.96579 2.6232 9.86966 2.69444 9.79157 2.78333C9.71329 2.8725 9.65495 2.97736 9.62046 3.0909C9.58596 3.20443 9.57612 3.32402 9.59157 3.44167L10.4249 9.69167C10.4391 9.8011 10.4748 9.90666 10.5298 10.0023C10.5848 10.098 10.6581 10.1819 10.7456 10.2492C10.833 10.3165 10.9329 10.366 11.0394 10.3947C11.146 10.4234 11.2571 10.4309 11.3666 10.4167C11.476 10.4024 11.5816 10.3668 11.6772 10.3118C11.7729 10.2568 11.8568 10.1834 11.9241 10.096C11.9914 10.0085 12.0409 9.9087 12.0696 9.80215C12.0983 9.6956 12.1058 9.58443 12.0916 9.475L11.4166 4.4C11.4119 4.37154 11.4139 4.34236 11.4226 4.31485C11.4313 4.28734 11.4464 4.26226 11.4666 4.24167C11.4841 4.22043 11.5056 4.20287 11.5299 4.19C11.5542 4.17712 11.5808 4.16919 11.6082 4.16667H16.6666C16.6971 4.16496 16.7276 4.17093 16.7553 4.18403C16.7829 4.19713 16.8069 4.21694 16.8249 4.24167C16.8453 4.26389 16.8603 4.29042 16.869 4.31928C16.8776 4.34814 16.8797 4.37858 16.8749 4.40833L15.9666 9.88333C15.9301 10.1043 15.9829 10.3308 16.1134 10.5129C16.2439 10.6949 16.4414 10.8177 16.6624 10.8542C16.7718 10.8722 16.8838 10.8685 16.9918 10.8434C17.0998 10.8182 17.2018 10.7719 17.2919 10.7073C17.474 10.5768 17.5968 10.3793 17.6332 10.1583L18.7499 3.49167C18.7717 3.36746 18.765 3.23992 18.7304 3.11867C18.6957 2.99742 18.634 2.88561 18.5499 2.79167Z" fill="#8F8F94"/>
<path d="M15.8333 11.6667H10.8333C10.7946 11.6681 10.7563 11.6577 10.7235 11.6369C10.6908 11.6161 10.6652 11.5858 10.65 11.5501L9.85 10.0001C9.81975 9.93703 9.77413 9.88262 9.71734 9.84184C9.66054 9.80107 9.5944 9.77524 9.525 9.76674C9.45496 9.75867 9.38401 9.76816 9.31854 9.79434C9.25308 9.82053 9.19516 9.86259 9.15 9.91673L7.58333 11.8417C7.45444 11.9783 7.27899 12.0616 7.09167 12.0751H6.25833C6.20221 12.0739 6.14644 12.0842 6.09436 12.1051C6.04228 12.1261 5.99498 12.1573 5.95529 12.197C5.91559 12.2367 5.88433 12.284 5.86337 12.3361C5.84242 12.3882 5.8322 12.4439 5.83333 12.5001V17.5001C5.83197 17.565 5.84644 17.6293 5.87547 17.6873C5.90451 17.7454 5.94725 17.7955 6 17.8334C7.91667 19.2751 9.4 20.0001 10.4167 20.0001H15.0417C15.4045 20.0615 15.777 19.9792 16.0803 19.7708C16.3836 19.5624 16.5939 19.2441 16.6667 18.8834C17.0727 16.9145 17.351 14.9215 17.5 12.9167C17.5 12.2917 16.925 11.6667 15.8333 11.6667ZM4.025 11.2501H1.45833C1.40308 11.2501 1.35009 11.272 1.31102 11.3111C1.27195 11.3502 1.25 11.4031 1.25 11.4584V18.9584C1.25 19.0137 1.27195 19.0666 1.31102 19.1057C1.35009 19.1448 1.40308 19.1667 1.45833 19.1667H4.025C4.09469 19.1749 4.16533 19.1684 4.23231 19.1474C4.2993 19.1265 4.36113 19.0918 4.4138 19.0454C4.46646 18.999 4.50877 18.9421 4.53798 18.8783C4.56719 18.8145 4.58264 18.7452 4.58333 18.6751V11.7417C4.58264 11.6716 4.56719 11.6023 4.53798 11.5385C4.50877 11.4747 4.46646 11.4178 4.4138 11.3714C4.36113 11.325 4.2993 11.2903 4.23231 11.2694C4.16533 11.2484 4.09469 11.2419 4.025 11.2501ZM12.9167 7.50007C12.9167 7.83159 13.0484 8.14953 13.2828 8.38395C13.5172 8.61837 13.8351 8.75007 14.1667 8.75007C14.4982 8.75007 14.8161 8.61837 15.0505 8.38395C15.285 8.14953 15.4167 7.83159 15.4167 7.50007C15.4167 7.16855 15.285 6.85061 15.0505 6.61618C14.8161 6.38176 14.4982 6.25007 14.1667 6.25007C13.8351 6.25007 13.5172 6.38176 13.2828 6.61618C13.0484 6.85061 12.9167 7.16855 12.9167 7.50007ZM8.33333 9.16673C8.45495 9.1683 8.57543 9.14323 8.68633 9.09328C8.79722 9.04333 8.89584 8.96971 8.97526 8.87759C9.05467 8.78547 9.11296 8.67708 9.14602 8.56003C9.17909 8.44299 9.18614 8.32013 9.16667 8.20007L8.10833 1.9084C8.08781 1.85474 8.08781 1.7954 8.10833 1.74174C8.13376 1.70784 8.16892 1.68249 8.20912 1.66909C8.24932 1.65569 8.29265 1.65487 8.33333 1.66674H15C15.221 1.66674 15.433 1.57894 15.5893 1.42266C15.7455 1.26638 15.8333 1.05442 15.8333 0.833403C15.8333 0.612389 15.7455 0.400427 15.5893 0.244147C15.433 0.0878667 15.221 6.93105e-05 15 6.93105e-05H7.08333C6.96172 -0.00149923 6.84123 0.0235724 6.73034 0.0735241C6.61944 0.123476 6.52083 0.197096 6.44141 0.289217C6.362 0.381338 6.30371 0.489725 6.27064 0.60677C6.23758 0.723814 6.23053 0.846678 6.25 0.966736L7.5 8.46673C7.53194 8.66392 7.63366 8.84307 7.78661 8.97156C7.93957 9.10004 8.13359 9.16931 8.33333 9.16673Z" fill="#8F8F94"/>
</g>
<defs>
<clipPath id="clip0_189_4809">
<rect width="20" height="20" fill="white"/>
</clipPath>
</defs>
</svg>
