<svg width="20" height="20" viewBox="0 0 20 20" fill="none" xmlns="http://www.w3.org/2000/svg">
<path d="M17.5868 5.71C17.8073 5.69387 17.676 5.86931 17.5818 5.96283C16.6394 6.96129 15.3815 7.76734 14.555 8.91249C14.2871 9.28242 14.0529 9.64882 14.0173 10.0599C13.9672 10.5242 14.2742 11.035 14.7524 11.6056C15.5479 12.6136 16.6686 13.2866 17.5738 14.1742C17.5932 14.1934 17.6114 14.2123 17.6267 14.2292C17.6636 14.2704 17.6803 14.3004 17.6671 14.313C17.6561 14.3248 17.6218 14.3227 17.5756 14.3136C15.9774 13.9778 13.4454 12.9109 12.0052 13.7126C11.1605 14.2902 10.7821 15.9564 10.5171 16.9314C10.394 17.4476 10.3288 18.0033 10.1931 18.4906C10.1662 18.6116 10.0435 18.906 9.95536 18.6768C9.69426 17.4617 9.46751 16.2201 8.99041 15.0671C8.52139 13.875 8.00519 13.4422 6.84742 13.4488C6.62211 13.4474 6.37364 13.4579 6.15247 13.4755C4.87884 13.5734 3.72583 14.1303 2.53019 14.3587C2.49771 14.3656 2.46585 14.3716 2.43482 14.3738C2.36965 14.379 2.31482 14.368 2.29889 14.3395C2.27882 14.2979 2.30882 14.2629 2.34833 14.2222C3.54955 13.3565 4.81863 12.3868 5.69855 11.185C6.0695 10.6777 6.20274 10.1108 5.9193 9.51207C5.22021 8.11492 3.49555 6.95384 2.36882 5.8449C2.22958 5.68062 2.43357 5.69387 2.54385 5.72469C4.04072 6.09296 6.73011 7.09101 8.07346 6.33213C8.86669 5.81986 9.23806 4.33169 9.47806 3.49791C9.67005 2.78082 9.77226 2.0418 9.95991 1.32574C9.96922 1.3003 9.9777 1.28168 9.99219 1.26161C9.99405 1.25913 9.99384 1.25933 9.99798 1.25478C10.0075 1.24423 10.0174 1.23906 10.0274 1.23926C10.0493 1.24278 10.0598 1.25664 10.0727 1.27795C10.0896 1.30857 10.1025 1.3454 10.1128 1.38057C10.3238 2.10945 10.4966 3.00799 10.7155 3.79749C10.9464 4.63706 11.3151 5.77662 11.9364 6.25372C12.6179 6.74716 13.6091 6.61164 14.5227 6.46744C14.8386 6.41137 15.1273 6.35096 15.4364 6.28268C16.1603 6.12751 16.8606 5.86393 17.5839 5.71062L17.5876 5.71021L17.5868 5.71Z" fill="white"/>
<path d="M1.63889 10.1152C1.12069 10.2604 0.602539 10.4057 0.0843418 10.5509C0.0737185 10.5539 0.0652566 10.5418 0.071695 10.5329C0.639882 9.74298 1.20807 8.95303 1.77626 8.16314C1.78394 8.15242 1.80072 8.1607 1.7969 8.1733L1.36406 9.61288C1.36144 9.62166 1.36949 9.62994 1.37832 9.6275L2.84769 9.22561C2.85781 9.22285 2.86618 9.23379 2.86085 9.24281C2.31703 10.1627 1.77322 11.0825 1.22936 12.0023C1.22256 12.0139 1.20485 12.0067 1.20793 11.9937C1.35638 11.3722 1.50483 10.7506 1.65328 10.1291C1.65535 10.1204 1.64735 10.1127 1.63875 10.1151L1.63889 10.1152Z" fill="#F3E30C"/>
<path d="M6.89015 2.79721C6.93954 2.84207 6.96275 2.90165 6.96776 2.96542C6.98406 3.12885 6.98499 3.39415 6.97583 3.58232C6.97049 3.69771 6.92395 3.83352 6.80391 3.87468C6.65222 3.92891 6.45529 3.84784 6.32423 3.95635C6.23073 4.03822 6.25623 4.17432 6.22625 4.27738C6.21111 4.31988 6.17223 4.31831 6.135 4.31775C5.85859 4.30698 5.16175 4.35775 4.9594 4.30067C4.92602 4.2693 4.92094 4.09728 4.95731 4.06147C4.99701 4.01657 5.06116 4.01037 5.11024 3.97542C5.20863 3.91546 5.21244 3.79143 5.22175 3.68833C5.22814 3.6089 5.2564 3.52677 5.32937 3.48651C5.43214 3.42491 5.56802 3.46648 5.66925 3.41164C5.82719 3.32578 5.78727 3.12512 5.80091 2.97507C5.81736 2.77067 5.95545 2.72073 6.13859 2.71396C6.29963 2.70365 6.47839 2.70428 6.62455 2.71094C6.71681 2.71553 6.81932 2.7297 6.88959 2.79676L6.89012 2.79725L6.89015 2.79721Z" fill="#E05B28"/>
<path d="M4.42029 2.72193C4.45341 2.71404 4.48631 2.71049 4.52003 2.7078C4.66746 2.6964 4.88039 2.69472 5.04495 2.69741C5.11635 2.69853 5.18648 2.70044 5.2572 2.70354C5.32199 2.7069 5.37735 2.70787 5.43798 2.72268C5.50284 2.7386 5.56561 2.77266 5.60759 2.82562C5.68841 2.9279 5.69368 3.11327 5.60972 3.21517C5.47903 3.36387 5.28969 3.27363 5.17429 3.36495C5.10674 3.41852 5.08865 3.51575 5.08139 3.59821C5.07444 3.68026 5.05601 3.76923 4.98981 3.82429C4.89512 3.90129 4.76955 3.89348 4.65127 3.89658C4.58657 3.8967 4.51771 3.89565 4.45502 3.88944C4.42089 3.88582 4.38878 3.87995 4.35741 3.8678C4.2385 3.82287 4.20325 3.70699 4.19697 3.59088C4.18602 3.42899 4.18661 3.22108 4.19334 3.06363C4.19719 2.89758 4.24246 2.76462 4.41962 2.72208L4.42025 2.72193H4.42029Z" fill="#E05B28"/>
<path d="M5.7714 1.28896C5.87772 1.26421 6.00463 1.27337 6.10982 1.28672C6.14586 1.29258 6.1841 1.3041 6.20878 1.33157C6.24257 1.36806 6.24754 1.43104 6.24758 1.48196C6.23509 1.80612 6.30062 2.15574 6.24724 2.4712C6.20754 2.61377 6.08018 2.60323 5.95506 2.60487C5.88082 2.60338 5.77996 2.61067 5.72628 2.57594C5.67144 2.54222 5.64752 2.47071 5.63926 2.40919C5.61638 2.18191 5.61918 1.92361 5.62472 1.67734C5.62703 1.61492 5.62913 1.55518 5.63522 1.49366C5.6427 1.40316 5.67429 1.31415 5.77081 1.28915L5.77144 1.28896H5.7714Z" fill="#E05B28"/>
<path d="M5.03922 1.28971C5.14583 1.26482 5.27312 1.27483 5.37869 1.28796C5.41469 1.29375 5.45289 1.30511 5.47749 1.33263C5.49696 1.35397 5.50717 1.38399 5.51195 1.41815C5.51495 1.43916 5.51581 1.46122 5.51588 1.48316C5.50837 1.78482 5.55341 2.11362 5.52747 2.40871C5.50511 2.63639 5.33495 2.60365 5.15675 2.6051C4.9504 2.60548 4.91201 2.51771 4.90229 2.33178C4.88853 2.08675 4.88603 1.80542 4.90049 1.54984C4.90659 1.44488 4.91926 1.3207 5.03858 1.28986L5.03922 1.28967V1.28971Z" fill="#E05B28"/>
<path d="M6.57758 1.45664C6.6704 1.45575 6.82168 1.44337 6.89252 1.50617C6.94104 1.5477 6.95918 1.61581 6.96418 1.6779C6.98243 1.89658 6.94389 2.16486 6.95204 2.39251C6.95196 2.41318 6.9511 2.43363 6.94781 2.45359C6.93166 2.55628 6.85559 2.60468 6.75189 2.60386C6.70266 2.60584 6.64049 2.60595 6.58707 2.6048C6.50229 2.60177 6.43997 2.60296 6.3885 2.5482C6.35381 2.51168 6.34143 2.46163 6.33762 2.41296C6.32398 2.23308 6.32345 1.92525 6.33392 1.70683C6.3374 1.53002 6.39758 1.46341 6.57683 1.45672H6.57758V1.45664Z" fill="#E05B28"/>
<path d="M4.76162 2.55676C4.71459 2.59867 4.64929 2.60334 4.58607 2.60562C4.5374 2.60712 4.4838 2.60727 4.43397 2.60555C4.33322 2.60461 4.23752 2.57882 4.21337 2.47509C4.20676 2.45135 4.20313 2.42645 4.20059 2.4016C4.18414 2.17982 4.18579 1.90697 4.19842 1.68807C4.20571 1.57073 4.23468 1.47904 4.36959 1.4704C4.42862 1.46349 4.50275 1.46076 4.56581 1.46095C4.64394 1.46192 4.72252 1.46162 4.77358 1.51945C4.80098 1.54946 4.81452 1.59036 4.8199 1.62946C4.83601 1.81068 4.83291 2.02693 4.82951 2.24516C4.82816 2.29248 4.8264 2.33809 4.82323 2.38466C4.81863 2.45116 4.81373 2.51221 4.76211 2.55632L4.76162 2.55673V2.55676Z" fill="#E05B28"/>
<path d="M15.4847 16.5038C15.4811 16.5003 15.4852 16.4969 15.4882 16.4935C15.5098 16.475 15.5459 16.4453 15.5685 16.4266C15.7901 16.2264 16.1136 15.8917 15.892 15.594C15.8788 15.5781 15.858 15.5459 15.8408 15.5732C15.7288 15.7893 15.478 15.9315 15.2345 15.934C15.2051 15.9324 15.1792 15.9201 15.1812 15.8872C15.2413 15.3917 15.126 14.7385 14.5937 14.5616C14.5827 14.5575 14.5544 14.5487 14.5606 14.5658C14.6411 14.6979 14.7245 14.8459 14.6402 14.9844C14.4904 15.2063 14.2245 15.2879 14.0814 15.5375C14.0184 15.6428 13.9868 15.7657 14.0059 15.887C14.0131 15.9371 14.0284 15.9886 14.0497 16.0397C14.0559 16.0542 14.0603 16.0709 14.0364 16.0567C13.7828 15.9021 13.7742 15.6357 13.8673 15.3736C13.8693 15.3643 13.8808 15.3424 13.8703 15.3391C13.3776 15.6377 13.4253 16.2134 13.7529 16.631C13.7817 16.6677 13.7533 16.6684 13.7231 16.6581C13.5897 16.6151 13.5072 16.5469 13.4001 16.4623C13.3868 16.4538 13.3616 16.4251 13.35 16.4399C13.3457 16.4494 13.349 16.4603 13.3513 16.4704C13.4653 16.8831 13.7695 17.2318 14.1799 17.3656C15.0495 17.6502 15.9545 17.1502 16.1399 16.2579C16.1423 16.2435 16.1413 16.2348 16.1304 16.2376C15.9301 16.3497 15.728 16.5506 15.4849 16.5039L15.4847 16.5038L15.4847 16.5038ZM15.1287 16.8574C15.1734 17.0428 15.3497 17.1544 15.1254 17.2951C14.8727 17.4391 14.281 17.4427 14.1407 17.1433C14.0828 17.0105 14.2403 16.9679 14.2513 16.8463C14.2575 16.7895 14.2204 16.7459 14.1835 16.7073C14.1642 16.6867 14.1442 16.6665 14.1862 16.668C14.2904 16.6697 14.3839 16.723 14.404 16.8245C14.4183 16.8623 14.4618 16.8208 14.4767 16.8016C14.5811 16.6576 14.4572 16.5815 14.3824 16.4705C14.3644 16.4421 14.3529 16.4117 14.3589 16.3792C14.3881 16.2565 14.6332 16.1171 14.7632 16.1133C14.7779 16.1182 14.7626 16.1387 14.7558 16.1507C14.7191 16.2112 14.6552 16.2753 14.6809 16.3469C14.6918 16.3731 14.7175 16.3957 14.7399 16.4152C14.8415 16.4934 14.8737 16.5713 14.8877 16.6963C14.8905 16.7143 14.8905 16.7342 14.9101 16.7122C14.9372 16.6843 14.9632 16.6505 14.9967 16.629C15.0614 16.5843 15.1368 16.552 15.2158 16.5442C15.2273 16.5431 15.2462 16.5424 15.2329 16.5593C15.1483 16.6474 15.1024 16.7325 15.1286 16.8567L15.1287 16.8574V16.8574Z" fill="#EB4629"/>
<path d="M15.5004 2.23765C15.4526 2.1673 15.378 2.05104 15.3331 1.99841C15.3189 1.98217 15.3017 1.96932 15.2801 1.96249C15.2549 1.9545 15.2252 1.96189 15.201 1.96756C14.9091 2.04698 14.579 2.23215 14.3112 2.39869C14.2421 2.44236 14.1768 2.48585 14.1179 2.52748C13.5322 2.91943 12.9662 3.8216 13.6859 4.36205C13.8209 4.45863 14.0315 4.50349 14.1538 4.61512C14.1791 4.63827 14.2006 4.66421 14.2165 4.69443C14.2321 4.72329 14.2411 4.75673 14.2454 4.78975C14.2575 4.88594 14.2411 4.97317 14.3358 5.01949C14.3952 5.04856 14.4402 5.05013 14.515 5.06488C14.5657 5.07289 14.6113 5.08021 14.6558 5.08067C14.7763 5.07387 14.6313 4.75438 14.6928 4.68494C14.6972 4.67983 14.7016 4.67776 14.7074 4.67605C14.7928 4.65108 15.1299 4.61554 15.2517 4.58542C15.5699 4.50482 15.9738 4.35186 16.1025 4.02386C16.2804 3.48877 15.7997 2.68009 15.5007 2.23807L15.5004 2.23761V2.23765ZM15.6064 3.95092C15.2949 3.89724 14.9329 3.94952 14.6613 4.11872C14.6157 4.14715 14.564 4.18277 14.5225 4.21603C14.5099 4.22636 14.5013 4.2348 14.4946 4.24478C14.4436 4.3208 14.4553 4.51585 14.4494 4.64019C14.4487 4.65178 14.4487 4.6654 14.4439 4.67412C14.436 4.68886 14.4186 4.69307 14.4088 4.66922C14.387 4.61792 14.3493 4.53976 14.337 4.48027C14.3243 4.41591 14.3274 4.35025 14.3242 4.28568C14.3219 4.23918 14.3153 4.19107 14.297 4.14799C14.208 3.94409 13.8642 3.79467 13.643 3.78175C13.6397 3.78067 13.6431 3.7786 13.6531 3.77499C13.6551 3.77429 13.6573 3.77352 13.6597 3.77268C13.6953 3.7619 13.7344 3.74383 13.7711 3.74197C13.9217 3.73224 14.0714 3.75181 14.2038 3.8251C14.3679 3.90862 14.3226 3.90361 14.3538 3.78259C14.3701 3.70951 14.4066 3.61913 14.3826 3.5464C14.3479 3.46461 14.2257 3.37986 14.1441 3.33357C14.1191 3.31981 14.1067 3.31837 14.0794 3.3092C14.0068 3.28595 13.8762 3.24536 13.8318 3.23052C13.8176 3.22558 13.8588 3.21872 13.8634 3.217C14.0753 3.16763 14.2625 3.21266 14.4408 3.33105C14.4504 3.33595 14.4596 3.33728 14.4679 3.33298C14.4778 3.32835 14.4871 3.31368 14.4929 3.30227C14.6244 3.05358 14.417 2.88403 14.1895 2.79739C14.1794 2.79274 14.1748 2.78801 14.178 2.78356C14.2587 2.7385 14.3807 2.77764 14.4613 2.81515C14.5139 2.83756 14.5629 2.88529 14.6137 2.90644C14.6402 2.91806 14.6618 2.9127 14.6799 2.89061C14.706 2.85766 14.7249 2.82026 14.747 2.7844C14.8105 2.66888 14.8809 2.55735 14.9596 2.4515C14.9642 2.44512 14.9691 2.4384 14.9744 2.43301C14.9803 2.42709 14.9856 2.42411 14.9887 2.42545C14.992 2.42667 14.9928 2.43238 14.9911 2.44043C14.9857 2.46151 14.9734 2.48098 14.9653 2.50136C14.9417 2.55973 14.9178 2.61804 14.8956 2.67694C14.8699 2.74781 14.8468 2.81966 14.8246 2.89166C14.8222 2.89961 14.8174 2.91582 14.8249 2.91967C14.8303 2.92363 14.8447 2.91901 14.8527 2.91645C15.03 2.86109 15.2281 2.80548 15.4099 2.86452C15.425 2.86988 15.4436 2.87622 15.4552 2.88063C15.4637 2.88392 15.4678 2.88627 15.467 2.88791C15.171 2.92752 14.7141 2.99962 14.6677 3.34331C14.6647 3.36313 14.6644 3.38701 14.6915 3.37587C14.9778 3.242 15.2815 3.23451 15.5677 3.37328C15.5825 3.38053 15.6057 3.39352 15.5991 3.40101C15.5957 3.40312 15.5902 3.40301 15.5854 3.40277C15.5729 3.40186 15.5586 3.39898 15.5457 3.39737C15.3383 3.36761 15.1544 3.37591 14.953 3.44058C14.87 3.46625 14.7736 3.49868 14.6941 3.549C14.6498 3.57739 14.6126 3.60926 14.5865 3.65342C14.577 3.66984 14.572 3.68346 14.565 3.70496C14.5496 3.75332 14.5299 3.83267 14.5261 3.89181C14.5245 3.92875 14.5246 3.98457 14.5705 3.96657C14.6381 3.947 14.7686 3.8908 14.8534 3.87549C15.0578 3.8395 15.4307 3.81957 15.6018 3.93702C15.6083 3.9429 15.6106 3.94826 15.6066 3.95078L15.6064 3.95092H15.6064Z" fill="#1EA34A"/>
<path d="M6.85018 16.1493C6.55347 15.6628 6.04472 15.29 5.44502 15.3638C5.1913 15.3893 4.94565 15.4941 4.75804 15.6468C4.54022 15.821 4.37694 16.0512 4.24166 16.2962C4.22823 16.3205 4.21389 16.3474 4.20357 16.372C4.18983 16.4049 4.18555 16.4299 4.19072 16.4559C4.19943 16.4973 4.23194 16.5426 4.25843 16.5826C4.92059 17.5899 6.08756 17.7185 6.84511 16.6999C6.90055 16.6276 6.94517 16.5579 6.96987 16.4988C7.01775 16.3855 6.9079 16.2451 6.85051 16.1498L6.85021 16.1494L6.85018 16.1493ZM5.52045 15.9873C5.77973 15.9447 5.96537 16.1965 5.85783 16.4366C5.83888 16.4808 5.8085 16.5227 5.77256 16.5524C5.66177 16.6459 5.49171 16.6437 5.37867 16.5554C5.33195 16.5192 5.29428 16.4684 5.27365 16.4043C5.27061 16.3947 5.27718 16.3956 5.28489 16.3977C5.43976 16.4361 5.55408 16.3529 5.58382 16.237C5.60335 16.1621 5.58619 16.0718 5.52321 15.9943C5.52115 15.9916 5.5199 15.9893 5.52036 15.9877L5.52045 15.9874V15.9873ZM6.68926 16.4403C6.1646 17.3232 5.15278 17.3617 4.54548 16.5289C4.52236 16.4972 4.5058 16.4737 4.49748 16.4534C4.48894 16.4309 4.49271 16.4083 4.50128 16.3807C4.52148 16.3206 4.56626 16.2557 4.60411 16.2032C4.74431 16.0042 4.95331 15.7989 5.1882 15.7308C5.15812 15.7602 5.10742 15.8082 5.07552 15.8392C4.58697 16.3616 5.13409 17.2254 5.81327 16.9774C6.17231 16.8566 6.35015 16.451 6.23753 16.0986C6.1947 15.9598 6.10858 15.8309 5.98002 15.7355C5.97631 15.7325 5.97509 15.7304 5.97755 15.7296C5.99563 15.7276 6.01404 15.7325 6.0319 15.7382C6.04487 15.7426 6.05772 15.7482 6.07036 15.7547C6.28204 15.8661 6.4617 16.0393 6.59594 16.2366C6.62963 16.287 6.70053 16.3827 6.68942 16.44L6.68933 16.4403H6.68926Z" fill="#91549F"/>
<path d="M19.4968 8.8129C19.6244 8.74584 19.7839 8.68653 19.9139 8.62247C19.9254 8.61608 19.931 8.61128 19.9305 8.60789C19.9302 8.6059 19.9279 8.60436 19.9237 8.60318C19.8968 8.59784 19.8615 8.60001 19.8308 8.60024C19.5717 8.60639 19.3138 8.64977 19.0603 8.70165C18.4066 8.8469 17.6492 9.10062 17.2898 9.70143C17.1984 9.85989 17.1451 10.0467 17.1394 10.235C17.079 11.252 18.4242 11.7675 19.2847 11.4969C19.3973 11.4618 19.511 11.4084 19.6036 11.3345C19.9579 11.0537 19.8587 10.5758 19.6085 10.2503C19.4423 10.0219 19.1912 9.77052 19.1096 9.53558C18.9977 9.23124 19.2085 8.99603 19.4962 8.8133L19.4968 8.81299V8.8129ZM18.7041 11.3313C18.6126 11.4186 18.3496 11.3531 18.2356 11.3192C18.1412 11.2891 18.0537 11.2387 17.9723 11.1808C17.8989 11.1245 17.8184 11.0628 17.8325 10.9694C17.8737 10.8108 18.1521 10.8749 18.3003 10.9156C18.4386 10.9495 18.8479 11.1742 18.7046 11.3308L18.7041 11.3313V11.3313Z" fill="#2A8CC9"/>
</svg>
