<svg width="31" height="13" viewBox="0 0 31 13" fill="none" xmlns="http://www.w3.org/2000/svg">
<g clip-path="url(#clip0_126_15703)">
<mask id="mask0_126_15703" style="mask-type:luminance" maskUnits="userSpaceOnUse" x="0" y="0" width="31" height="13">
<path d="M30.1355 0.464661H0.139893V12.3901H30.1355V0.464661Z" fill="white"/>
</mask>
<g mask="url(#mask0_126_15703)">
<path d="M11.0508 11.4312C10.8833 11.4973 10.7176 11.5303 10.5537 11.5303C10.3263 11.5303 10.131 11.493 9.96889 11.4184C9.80627 11.3438 9.67256 11.2465 9.56735 11.1267C9.46215 11.0068 9.3841 10.8686 9.33396 10.7127C9.28373 10.5567 9.25833 10.3977 9.25833 10.235C9.25833 10.0724 9.28373 9.91145 9.33396 9.75249C9.3841 9.59345 9.46215 9.45224 9.56735 9.32869C9.67256 9.20514 9.80744 9.10542 9.97131 9.02903C10.1353 8.95255 10.3294 8.91464 10.5537 8.91464C10.7176 8.91464 10.8785 8.94461 11.0357 9.00334C11.193 9.06266 11.335 9.15494 11.4626 9.28035L11.8394 8.91464C11.6586 8.73178 11.4596 8.59663 11.2419 8.50856C11.0242 8.42049 10.795 8.37646 10.5537 8.37646C10.2392 8.37646 9.96529 8.42967 9.73248 8.53669C9.49967 8.64311 9.3073 8.78376 9.15496 8.95804C9.00253 9.13238 8.8888 9.33114 8.81326 9.55492C8.73763 9.77818 8.7002 10.0069 8.7002 10.2405C8.7002 10.4741 8.73705 10.7004 8.81084 10.9188C8.88462 11.1371 8.99769 11.3315 9.14944 11.5028C9.30187 11.674 9.49415 11.8098 9.72705 11.9113C9.95986 12.0128 10.235 12.0636 10.5531 12.0636C10.804 12.0636 11.0418 12.0214 11.2661 11.9364C11.4904 11.852 11.6931 11.718 11.8738 11.5352L11.4874 11.1444C11.3635 11.2697 11.2177 11.3651 11.0508 11.4312Z" fill="white"/>
<path d="M14.1893 9.81612C14.0757 9.69925 13.9402 9.60697 13.7824 9.53902C13.6251 9.47116 13.451 9.43753 13.2598 9.43753C13.0687 9.43753 12.8946 9.47116 12.7374 9.53902C12.5801 9.60697 12.4453 9.69925 12.3334 9.81612C12.2209 9.93291 12.1351 10.0711 12.0746 10.2301C12.0141 10.3891 11.9839 10.5604 11.9839 10.7432C11.9839 10.926 12.0141 11.1022 12.0746 11.2612C12.1351 11.4202 12.2203 11.5584 12.3304 11.6753C12.4411 11.7921 12.5747 11.8832 12.732 11.9492C12.8892 12.0152 13.0651 12.0483 13.2593 12.0483C13.4534 12.0483 13.63 12.0152 13.7891 11.9492C13.9481 11.8832 14.0836 11.7921 14.196 11.6753C14.3079 11.5584 14.3944 11.4202 14.4548 11.2612C14.5153 11.1022 14.5456 10.9298 14.5456 10.7432C14.5456 10.5567 14.5148 10.3898 14.4524 10.2301C14.3902 10.0711 14.3025 9.93291 14.1888 9.81612H14.1893ZM13.9705 11.0606C13.9354 11.1603 13.8852 11.2472 13.8199 11.3199C13.7546 11.3927 13.6748 11.4514 13.5816 11.4949C13.4879 11.5389 13.3809 11.5609 13.2605 11.5609C13.1401 11.5609 13.0379 11.5389 12.9442 11.4949C12.8505 11.4508 12.7712 11.3927 12.7059 11.3199C12.6406 11.2472 12.5904 11.1609 12.5553 11.0606C12.5203 10.9609 12.5027 10.8551 12.5027 10.7432C12.5027 10.6313 12.5203 10.5267 12.5553 10.4283C12.5904 10.3298 12.6406 10.243 12.7059 10.1665C12.7712 10.0901 12.8505 10.0301 12.9442 9.98607C13.0379 9.94204 13.1432 9.92007 13.2605 9.92007C13.3778 9.92007 13.4782 9.94204 13.5719 9.98607C13.6656 10.0301 13.7461 10.0901 13.8132 10.1665C13.8803 10.243 13.9317 10.3298 13.9687 10.4283C14.0055 10.5267 14.0236 10.6313 14.0236 10.7432C14.0236 10.8551 14.0062 10.9609 13.9711 11.0606H13.9705Z" fill="white"/>
<path d="M15.4792 8.4425H14.9622V11.992H15.4792V8.4425Z" fill="white"/>
<path d="M16.5895 8.4425H16.0725V11.992H16.5895V8.4425Z" fill="white"/>
<path d="M19.2686 9.80879C19.156 9.68338 19.0194 9.58983 18.8567 9.52679C18.6941 9.46442 18.5126 9.43265 18.3118 9.43265C18.111 9.43265 17.9412 9.4651 17.782 9.52924C17.623 9.59346 17.4864 9.68338 17.3727 9.79839C17.259 9.91332 17.1701 10.0516 17.1066 10.2124C17.0431 10.3732 17.011 10.5487 17.011 10.7384C17.011 10.9383 17.0431 11.1199 17.1066 11.2845C17.1701 11.449 17.2596 11.5884 17.3751 11.7034C17.4906 11.8184 17.6303 11.9077 17.7942 11.9701C17.958 12.0324 18.1425 12.0642 18.3463 12.0642C18.44 12.0642 18.5374 12.0557 18.6378 12.0385C18.7382 12.0214 18.8343 11.9951 18.9262 11.9597C19.0181 11.9242 19.1065 11.8795 19.19 11.8251C19.2734 11.7713 19.3471 11.7083 19.4107 11.6374L19.0745 11.3071C18.9976 11.3952 18.8906 11.4618 18.7533 11.5077C18.616 11.5535 18.4836 11.5762 18.3566 11.5762C18.1256 11.5762 17.9387 11.5193 17.7966 11.4061C17.6544 11.293 17.5716 11.1395 17.5481 10.9463H19.5571C19.5806 10.6925 19.5661 10.4705 19.5141 10.2809C19.462 10.0913 19.3804 9.93411 19.2679 9.80879H19.2686ZM17.5589 10.5047C17.5989 10.3017 17.6895 10.15 17.8298 10.0503C17.9707 9.95068 18.1364 9.90048 18.327 9.90048C18.538 9.90048 18.7085 9.95068 18.8391 10.0503C18.9698 10.15 19.0435 10.3017 19.0599 10.5047H17.5583H17.5589Z" fill="white"/>
<path d="M21.4028 11.5021C21.3006 11.5376 21.196 11.5554 21.089 11.5554C20.982 11.5554 20.8804 11.5382 20.7855 11.5046C20.6899 11.4709 20.6064 11.419 20.5344 11.3499C20.4625 11.2808 20.4057 11.1958 20.3639 11.0961C20.3222 10.9964 20.301 10.8802 20.301 10.7481C20.301 10.6227 20.321 10.5102 20.3615 10.4106C20.4014 10.3108 20.4576 10.2252 20.5296 10.1542C20.6016 10.0833 20.6863 10.0283 20.783 9.9892C20.8804 9.94999 20.9838 9.93047 21.0945 9.93047C21.1918 9.93047 21.2892 9.94821 21.3884 9.98362C21.4869 10.0191 21.5764 10.0724 21.6569 10.1438L21.9835 9.80388C21.8498 9.67179 21.7095 9.57697 21.5644 9.51951C21.4186 9.46196 21.2608 9.43323 21.0896 9.43323C20.9088 9.43323 20.7395 9.46137 20.5822 9.51706C20.425 9.57266 20.2865 9.65582 20.168 9.76593C20.0488 9.87604 19.9551 10.013 19.8868 10.1775C19.8179 10.342 19.7839 10.5322 19.7839 10.7487C19.7839 10.9653 19.8184 11.156 19.8868 11.3199C19.9551 11.4845 20.0488 11.6215 20.168 11.7315C20.2865 11.8416 20.4256 11.9247 20.5847 11.9804C20.7437 12.036 20.9118 12.0642 21.0896 12.0642C21.2674 12.0642 21.4368 12.0349 21.5891 11.9755C21.7415 11.9162 21.8879 11.8153 22.0288 11.6734L21.6774 11.323C21.597 11.4074 21.5057 11.4679 21.4035 11.5034L21.4028 11.5021Z" fill="white"/>
<path d="M23.6289 11.4643C23.5248 11.5217 23.4196 11.5505 23.3126 11.5505C23.1922 11.5505 23.1021 11.515 23.0441 11.4441C22.9854 11.3732 22.9564 11.2716 22.9564 11.1395V9.94634H23.6845V9.4944H22.9613V8.76846L22.4387 8.82412V11.1401C22.4387 11.438 22.5113 11.6617 22.6571 11.8104C22.8028 11.9596 23.0108 12.0305 23.2823 12.0239C23.3695 12.0239 23.4523 12.0146 23.5309 11.9957C23.6096 11.9774 23.6924 11.9492 23.7794 11.9119L23.6289 11.4648V11.4643Z" fill="white"/>
<path d="M23.5272 3.00082C23.5181 3.59465 24.4217 3.59465 24.4217 3.00082C24.4217 2.40699 23.5272 2.40699 23.5272 3.00082Z" fill="white"/>
<path d="M16.5285 3.86984C16.2128 3.86984 15.9406 3.97625 15.6776 4.20681V3.94996C15.6776 3.93222 15.66 3.90593 15.6335 3.90593H14.9404C14.9229 3.90593 14.8962 3.92366 14.8962 3.94996V6.90198C14.8962 6.91971 14.9138 6.94601 14.9404 6.94601H15.6594C15.677 6.94601 15.7036 6.92827 15.7036 6.90198V5.28867C15.7036 4.93396 15.9933 4.6239 16.335 4.6239H16.3525C16.8085 4.6239 16.9663 4.97861 16.9663 5.31558V6.90259C16.9663 6.92033 16.9839 6.94662 17.0104 6.94662H17.7295C17.7471 6.94662 17.7736 6.92889 17.7736 6.90259V5.30702C17.7652 4.44716 17.2651 3.87107 16.5285 3.87107V3.86984Z" fill="white"/>
<path d="M10.9847 4.2154H9.66881C9.64224 4.2154 9.61616 4.19766 9.61616 4.16219V3.26686C9.61616 3.24056 9.63371 3.21366 9.66881 3.21366H11.4667C11.5018 3.21366 11.5194 3.18736 11.5194 3.16045V2.45103C11.5194 2.42473 11.5018 2.39783 11.4667 2.39783H8.86148C8.83483 2.39783 8.80884 2.41557 8.80884 2.45103V6.88365C8.80884 6.90995 8.82639 6.93686 8.86148 6.93686H9.56302C9.58959 6.93686 9.61558 6.91912 9.61558 6.88365V5.07525C9.61558 5.04896 9.63313 5.02205 9.66823 5.02205H10.9841C11.0108 5.02205 11.0368 5.00431 11.0368 4.96884V4.25086C11.0277 4.23313 11.0101 4.2154 10.9841 4.2154H10.9847Z" fill="white"/>
<path d="M20.2823 5.90819C20.142 6.06781 19.9049 6.16505 19.6684 6.16505C19.2125 6.16505 18.9052 5.84581 18.9052 5.36696C18.9052 4.8881 19.2125 4.57804 19.6684 4.57804C20.2212 4.57804 20.4576 4.97678 20.4576 5.3584C20.4576 5.57122 20.3959 5.7663 20.2823 5.90819ZM21.1948 3.89615H20.4757C20.4583 3.89615 20.4316 3.91388 20.4316 3.94017L20.4407 4.07288C20.2036 3.8778 19.9055 3.8515 19.6164 3.8515H19.5989C18.6869 3.8515 18.0991 4.44533 18.0991 5.37613C18.0991 5.85499 18.2394 6.25372 18.52 6.52831C18.783 6.78517 19.1429 6.91849 19.5813 6.91849H19.6254C19.8801 6.90993 20.1782 6.90076 20.4322 6.6702V6.89158C20.4322 6.90932 20.4497 6.93562 20.4764 6.93562H21.1954C21.2129 6.93562 21.2396 6.91788 21.2396 6.89158V3.93957C21.2305 3.91327 21.2129 3.89553 21.1954 3.89553L21.1948 3.89615Z" fill="white"/>
<path d="M13.5023 5.90821C13.3705 6.06782 13.134 6.16507 12.8885 6.16507C12.4325 6.16507 12.1253 5.84582 12.1253 5.36697C12.1253 4.88811 12.4325 4.57806 12.8885 4.57806C13.4412 4.57806 13.6777 4.9768 13.6777 5.35841C13.6777 5.57124 13.6251 5.76632 13.5023 5.90821ZM14.4234 3.89616H13.7043C13.6868 3.89616 13.6602 3.91389 13.6602 3.94019L13.6511 4.06434C13.4141 3.86926 13.1159 3.84296 12.8268 3.84296H12.8093C11.9058 3.84296 11.318 4.44596 11.327 5.37676C11.327 5.85561 11.4673 6.25435 11.7479 6.52895C12.011 6.7858 12.3708 6.91912 12.8093 6.91912H12.8534C13.108 6.91056 13.4062 6.90138 13.6602 6.67082V6.89222C13.6602 6.90995 13.6777 6.93624 13.7043 6.93624H14.4234C14.4409 6.93624 14.4675 6.91851 14.4675 6.89222V3.94019C14.4675 3.91389 14.4409 3.89616 14.4234 3.89616Z" fill="white"/>
<path d="M28.8692 5.01961C28.4132 4.99331 28.4132 4.83369 28.4132 4.77131C28.4132 4.57622 28.7289 4.54993 28.8606 4.54993C29.1153 4.54993 29.3167 4.61169 29.4745 4.75357C29.492 4.77131 29.5186 4.77131 29.5271 4.7444L29.9396 4.26554C29.9571 4.24781 29.9571 4.22151 29.9305 4.21234C29.6323 3.95548 29.3076 3.85764 28.8431 3.85764C28.545 3.85764 28.2553 3.93713 28.0364 4.06128C27.7557 4.22947 27.6155 4.48693 27.6155 4.78843C27.6155 5.32905 28.0364 5.65747 28.8171 5.71923C29.2556 5.74553 29.3081 5.86968 29.3081 5.98526C29.3081 6.14488 29.0886 6.23356 28.8873 6.23356H28.8698C28.5275 6.22438 28.2033 6.10085 27.9838 5.89659C27.9662 5.87885 27.9311 5.87885 27.9221 5.90576L27.5538 6.41091C27.5363 6.42864 27.5447 6.45494 27.5629 6.46412C27.9928 6.89833 28.4573 6.96071 28.8612 6.96071C29.4316 6.96071 29.8525 6.73933 30.0363 6.35771C30.0889 6.23356 30.1156 6.10941 30.1156 5.9767C30.1156 5.19635 29.4491 5.05507 28.8703 5.01961H28.8692Z" fill="white"/>
<path d="M26.317 4.6233C26.4924 4.6233 26.6678 4.68506 26.8081 4.80921C26.8256 4.82694 26.8523 4.82694 26.8607 4.80921L27.3258 4.31262C27.3433 4.29488 27.3433 4.26859 27.3258 4.25942C27.0276 3.96708 26.7204 3.8515 26.2995 3.8515C25.361 3.8515 24.7556 4.46306 24.7556 5.4116C24.7556 6.36014 25.361 6.9717 26.2995 6.9717C26.7204 6.9717 27.0186 6.84755 27.3258 6.56379C27.3433 6.54605 27.3433 6.51975 27.3258 6.51058L26.8607 5.9877C26.8432 5.96996 26.8166 5.96996 26.8081 5.9877C26.6678 6.11185 26.4924 6.17361 26.317 6.17361C25.8786 6.17361 25.5714 5.85437 25.5714 5.40243C25.5714 4.95048 25.8786 4.62207 26.317 4.62207V4.6233Z" fill="white"/>
<path d="M24.3172 3.89615H23.5891C23.5716 3.89615 23.5449 3.91388 23.5449 3.94018V6.90076C23.554 6.91849 23.5625 6.94479 23.5891 6.94479H24.3081C24.3257 6.94479 24.3523 6.92706 24.3523 6.90076V3.94018C24.3614 3.91388 24.3348 3.89615 24.3172 3.89615Z" fill="white"/>
<path d="M23.124 3.90531H22.466V3.26685C22.466 3.24911 22.4485 3.22281 22.4219 3.22281H21.7028C21.6853 3.22281 21.6587 3.24055 21.6587 3.26685V5.86415C21.6587 6.55583 22.0445 6.9454 22.72 6.9454H23.1233C23.1409 6.9454 23.1675 6.92767 23.1675 6.90137V6.2366C23.1675 6.21886 23.15 6.19256 23.1233 6.19256H22.7726C22.5621 6.184 22.4654 6.07759 22.4654 5.85559V4.7297H23.1233C23.1409 4.7297 23.1675 4.71197 23.1675 4.68567V3.94996C23.1584 3.92366 23.1409 3.90593 23.1233 3.90593L23.124 3.90531Z" fill="white"/>
<path d="M1.57308 1.405C1.06448 1.36097 0.388974 1.21909 0.2396 1.18362C0.160378 1.17444 0.116836 1.25456 0.151912 1.30776C0.441587 1.75115 1.29186 3.07213 1.2834 3.07213C1.30094 3.08986 1.31 3.08986 1.32754 3.09843C3.09039 3.4886 5.09877 1.86612 6.82715 2.74372C6.84468 2.76146 6.87976 2.74372 6.89729 2.72598L7.65142 1.54689C7.66895 1.52059 7.66895 1.48512 7.64295 1.46738C5.70473 -0.0664205 4.25756 1.55606 1.57368 1.40562L1.57308 1.405Z" fill="white"/>
<path d="M6.39707 3.43477C5.08113 2.97365 3.85348 3.86043 1.97634 3.90445C1.92372 3.90445 1.87958 3.95766 1.91466 4.0286L3.9321 7.19345C3.95871 7.24666 4.02886 7.21118 4.01979 7.16715L3.58135 5.16367C3.57228 5.14593 3.59042 5.12819 3.59889 5.11963C3.77426 5.06643 4.92329 4.67625 5.46696 4.93372C5.4845 4.94228 5.49357 4.93372 5.51111 4.91599L6.4146 3.48859C6.43214 3.4623 6.4146 3.44456 6.39707 3.43539V3.43477Z" fill="white"/>
</g>
</g>
<defs>
<clipPath id="clip0_126_15703">
<rect width="30" height="12" fill="white" transform="translate(0.139893 0.464661)"/>
</clipPath>
</defs>
</svg>
