<svg width="28" height="28" viewBox="0 0 28 28" fill="none" xmlns="http://www.w3.org/2000/svg">
<rect x="0.5" y="0.5" width="27" height="27" rx="13.5" fill="#202020" fill-opacity="0.65"/>
<rect x="0.5" y="0.5" width="27" height="27" rx="13.5" stroke="#605DEC"/>
<path d="M11.3307 6C10.854 6 10.4356 6.31395 10.3039 6.76988L8.04116 14.6427C7.99568 14.8008 7.98777 14.9672 8.01803 15.1289C8.0483 15.2906 8.11592 15.4431 8.21557 15.5743C8.31522 15.7056 8.44417 15.812 8.59226 15.8853C8.74036 15.9585 8.90354 15.9966 9.06894 15.9964H10.3431L9.16649 20.6757C8.901 21.7306 10.2134 22.4524 10.9727 21.6706L19.6977 12.8139L19.7018 12.8099C20.3454 12.143 19.8828 10.9992 18.9304 10.9992H16.3519L17.621 7.40578L17.6231 7.39778C17.6766 7.23812 17.6912 7.06808 17.6657 6.90169C17.6402 6.73531 17.5752 6.57734 17.4762 6.44082C17.3772 6.30429 17.247 6.19312 17.0963 6.11648C16.9455 6.03984 16.7786 5.99991 16.6094 6H11.3307Z" fill="#605DEC"/>
</svg>
