<svg width="28" height="28" viewBox="0 0 28 28" fill="none" xmlns="http://www.w3.org/2000/svg">
<rect x="0.5" y="0.5" width="27" height="27" rx="13.5" fill="#202020" fill-opacity="0.65"/>
<rect x="0.5" y="0.5" width="27" height="27" rx="13.5" stroke="white"/>
<path d="M10.2977 6.81624C10.3716 6.58025 10.5235 6.37331 10.7308 6.22623C10.9381 6.07916 11.1898 5.99981 11.4482 6H16.7342C16.928 6.00007 17.1189 6.04488 17.2906 6.13058C17.4622 6.21629 17.6095 6.34035 17.7199 6.49215C17.8303 6.64395 17.9004 6.81896 17.9243 7.00222C17.9482 7.18548 17.9252 7.37153 17.8571 7.54445L16.6658 10.5728H19.1012C19.2704 10.573 19.4362 10.6186 19.5794 10.7045C19.7226 10.7903 19.8375 10.9129 19.9109 11.0582C19.9843 11.2035 20.0133 11.3655 19.9944 11.5257C19.9755 11.686 19.9096 11.8379 19.8043 11.964L11.8777 21.4525C10.8532 22.6792 8.80403 21.6674 9.26472 20.163L10.8004 15.1455H8.90121C8.76098 15.1457 8.62264 15.1147 8.49722 15.0549C8.37181 14.9952 8.2628 14.9083 8.17888 14.8012C8.09497 14.6941 8.03848 14.5699 8.01391 14.4383C7.98935 14.3068 7.99739 14.1716 8.03741 14.0435L10.2977 6.81624ZM16.7354 7.14319H11.4482L9.30311 14.0023H11.6006C11.6937 14.0023 11.7856 14.023 11.8688 14.0627C11.9521 14.1024 12.0246 14.16 12.0805 14.231C12.1363 14.302 12.1741 14.3844 12.1908 14.4717C12.2074 14.559 12.2025 14.6488 12.1764 14.734L10.4165 20.4831C10.3926 20.5479 10.3952 20.6189 10.4237 20.682C10.4543 20.7408 10.5045 20.7882 10.5664 20.8169C10.6348 20.8512 10.7056 20.8592 10.7632 20.8501C10.8342 20.8363 10.8972 20.7975 10.9395 20.7415L18.4786 11.716H15.7996C15.7026 11.716 15.6071 11.6936 15.5212 11.6507C15.4353 11.6078 15.3616 11.5457 15.3064 11.4697C15.2512 11.3937 15.2162 11.3062 15.2043 11.2144C15.1924 11.1227 15.204 11.0297 15.2381 10.9432L16.7354 7.14319Z" fill="white"/>
</svg>
