<svg width="18" height="18" viewBox="0 0 18 18" fill="none" xmlns="http://www.w3.org/2000/svg">
<path d="M6.74891 11.8128C6.50657 11.8133 6.27011 11.7382 6.07248 11.5979C5.87485 11.4577 5.72591 11.2593 5.64641 11.0303L5.20148 9.66288C5.09654 9.34383 4.9179 9.054 4.68004 8.81688C4.44252 8.57834 4.15266 8.39846 3.83348 8.29151L2.48291 7.8522C2.31052 7.79433 2.15402 7.697 2.02589 7.56796C1.89776 7.43892 1.80153 7.28174 1.74488 7.10895C1.68823 6.93615 1.67272 6.75251 1.69958 6.57266C1.72644 6.39281 1.79493 6.22171 1.8996 6.07301C2.0391 5.87388 2.2371 5.72313 2.4666 5.64213L3.83854 5.19776C4.14647 5.08905 4.42583 4.91211 4.65572 4.68018C4.88561 4.44825 5.06006 4.16733 5.16604 3.85845L5.61491 2.47807C5.69366 2.24351 5.84554 2.04045 6.04804 1.89813C6.24641 1.76097 6.48186 1.6875 6.72304 1.6875C6.96421 1.6875 7.19967 1.76097 7.39804 1.89813C7.59491 2.03707 7.74341 2.23338 7.82329 2.46063L8.27048 3.83313C8.3764 4.15128 8.55512 4.4403 8.79242 4.67721C9.02971 4.91411 9.31903 5.09236 9.63735 5.19776L10.9902 5.63651C11.2354 5.7147 11.4486 5.86995 11.5988 6.0792C11.7382 6.27595 11.813 6.51112 11.813 6.75223C11.813 6.99334 11.7382 7.22851 11.5988 7.42526C11.4599 7.62213 11.2635 7.7712 11.0363 7.8522L9.6621 8.29882C9.34477 8.40406 9.05655 8.58227 8.8206 8.81913C8.58379 9.05707 8.40435 9.34676 8.29804 9.66513L7.85929 11.0163C7.77644 11.2487 7.626 11.451 7.42729 11.5973C7.22929 11.7379 6.99191 11.8139 6.74891 11.8128ZM13.221 16.8753C13.0185 16.876 12.8207 16.8136 12.6554 16.6966C12.49 16.5796 12.3653 16.414 12.2985 16.2228L11.9903 15.28C11.9274 15.0863 11.8197 14.9101 11.6759 14.7659C11.5312 14.6218 11.3553 14.5131 11.1617 14.4481L10.2319 14.1471C10.0348 14.0799 9.86401 13.9519 9.74423 13.7815C9.65619 13.6583 9.59809 13.5162 9.57454 13.3667C9.55099 13.2171 9.56264 13.064 9.60855 12.9197C9.65447 12.7754 9.7334 12.6438 9.83907 12.5353C9.94473 12.4269 10.0742 12.3445 10.2173 12.2948L11.1629 11.9866C11.3521 11.9199 11.5234 11.8107 11.6638 11.6673C11.8041 11.5239 11.9097 11.3503 11.9723 11.1597L12.2732 10.2316C12.3211 10.0864 12.4024 9.95444 12.5106 9.84649C12.6189 9.73853 12.751 9.65757 12.8964 9.61014C13.0417 9.56272 13.1962 9.55016 13.3473 9.57349C13.4984 9.59683 13.6418 9.65539 13.7661 9.74445C13.932 9.86088 14.0569 10.0268 14.1227 10.2181L14.4299 11.1608C14.4946 11.3533 14.6033 11.5281 14.7471 11.6714C14.891 11.8147 15.0662 11.9226 15.259 11.9866L16.1899 12.2903C16.3861 12.3512 16.558 12.4725 16.6811 12.637C16.8042 12.8015 16.8722 13.0006 16.8753 13.206C16.8784 13.4114 16.8165 13.6125 16.6985 13.7806C16.5804 13.9488 16.4123 14.0753 16.218 14.1421L15.277 14.4492C15.084 14.5126 14.9086 14.6205 14.7651 14.7642C14.6216 14.9086 14.5132 15.0842 14.4484 15.2772L14.1458 16.2053C14.0781 16.4021 13.9502 16.5725 13.7802 16.6924C13.6171 16.8096 13.4218 16.8735 13.221 16.8753Z" fill="white"/>
</svg>
