<svg width="18" height="18" viewBox="0 0 18 18" fill="none" xmlns="http://www.w3.org/2000/svg">
<path d="M0.657 2.50083C0.739514 2.37658 0.867999 2.29019 1.0142 2.26065C1.1604 2.23112 1.31235 2.26086 1.43662 2.34333L3.12412 3.46946C3.24349 3.5541 3.32518 3.68192 3.35185 3.82579C3.37852 3.96967 3.34807 4.11828 3.26697 4.24008C3.18587 4.36187 3.0605 4.44727 2.91747 4.47815C2.77443 4.50903 2.625 4.48295 2.50088 4.40546L0.813375 3.28046C0.689306 3.19777 0.603142 3.0692 0.57382 2.92301C0.544498 2.77682 0.574416 2.62497 0.657 2.50083ZM9 2.24996C7.65734 2.24996 6.36967 2.78333 5.42027 3.73273C4.47087 4.68213 3.9375 5.9698 3.9375 7.31246V10.0136L2.853 12.7282C2.8188 12.8136 2.80604 12.906 2.81583 12.9974C2.82563 13.0888 2.85769 13.1764 2.9092 13.2526C2.96072 13.3288 3.03011 13.3911 3.11132 13.4343C3.19252 13.4774 3.28306 13.4999 3.375 13.5H6.75C6.75 14.7465 7.7535 15.75 9 15.75C10.2465 15.75 11.25 14.7465 11.25 13.5H14.625C14.7168 13.4999 14.8072 13.4773 14.8883 13.4342C14.9693 13.3912 15.0386 13.3289 15.0901 13.2529C15.1416 13.1769 15.1737 13.0895 15.1836 12.9982C15.1935 12.9069 15.181 12.8146 15.147 12.7293L14.0625 10.0125V7.31246C14.0625 5.9698 13.5291 4.68213 12.5797 3.73273C11.6303 2.78333 10.3427 2.24996 9 2.24996ZM10.125 13.5C10.125 14.1255 9.6255 14.625 9 14.625C8.3745 14.625 7.875 14.1255 7.875 13.5H10.125ZM5.0625 7.31246C5.0625 6.26817 5.47734 5.26665 6.21577 4.52823C6.95419 3.7898 7.95571 3.37496 9 3.37496C10.0443 3.37496 11.0458 3.7898 11.7842 4.52823C12.5227 5.26665 12.9375 6.26817 12.9375 7.31246V10.1227C12.9377 10.194 12.9514 10.2647 12.978 10.3308L13.7948 12.375H4.20525L5.022 10.3308C5.04857 10.2647 5.06232 10.194 5.0625 10.1227V7.31246ZM16.5634 2.34446C16.6875 2.26696 16.8369 2.24089 16.98 2.27177C17.123 2.30265 17.2484 2.38804 17.3295 2.50984C17.4106 2.63164 17.441 2.78025 17.4143 2.92412C17.3877 3.068 17.306 3.19582 17.1866 3.28046L15.4991 4.40546C15.375 4.48295 15.2256 4.50903 15.0825 4.47815C14.9395 4.44727 14.8141 4.36187 14.733 4.24008C14.6519 4.11828 14.6215 3.96967 14.6482 3.82579C14.6748 3.68192 14.7565 3.5541 14.8759 3.46946L16.5634 2.34446ZM0 7.31246C0 7.16327 0.0592632 7.0202 0.164752 6.91471C0.270242 6.80922 0.413316 6.74996 0.5625 6.74996H2.25C2.39918 6.74996 2.54226 6.80922 2.64775 6.91471C2.75324 7.0202 2.8125 7.16327 2.8125 7.31246C2.8125 7.46164 2.75324 7.60472 2.64775 7.71021C2.54226 7.8157 2.39918 7.87496 2.25 7.87496H0.5625C0.413316 7.87496 0.270242 7.8157 0.164752 7.71021C0.0592632 7.60472 0 7.46164 0 7.31246ZM17.4375 6.74996C17.5867 6.74996 17.7298 6.80922 17.8352 6.91471C17.9407 7.0202 18 7.16327 18 7.31246C18 7.46164 17.9407 7.60472 17.8352 7.71021C17.7298 7.8157 17.5867 7.87496 17.4375 7.87496H15.75C15.6008 7.87496 15.4577 7.8157 15.3523 7.71021C15.2468 7.60472 15.1875 7.46164 15.1875 7.31246C15.1875 7.16327 15.2468 7.0202 15.3523 6.91471C15.4577 6.80922 15.6008 6.74996 15.75 6.74996H17.4375Z" fill="#9CA3AF"/>
</svg>
