<svg width="18" height="18" viewBox="0 0 18 18" fill="none" xmlns="http://www.w3.org/2000/svg">
<path d="M8.55 13.7998H0.675C0.495979 13.7998 0.32429 13.7287 0.197703 13.6021C0.0711159 13.4755 0 13.3038 0 13.1248V5.4748C0 5.29578 0.0711159 5.12409 0.197703 4.99751C0.32429 4.87092 0.495979 4.7998 0.675 4.7998H8.55V13.7998ZM5.15625 11.7598C5.19975 11.9001 5.328 11.9998 5.4795 11.9998H6.12C6.17377 11.9998 6.22676 11.9869 6.27454 11.9622C6.32233 11.9376 6.36353 11.9018 6.39471 11.858C6.4259 11.8142 6.44616 11.7636 6.45382 11.7104C6.46148 11.6572 6.45632 11.6029 6.43875 11.5521L6.4395 11.5543L4.827 6.7993C4.80442 6.73245 4.76145 6.67436 4.70414 6.63319C4.64683 6.59203 4.57806 6.56986 4.5075 6.5698H3.59325C3.52318 6.5698 3.45485 6.5916 3.39773 6.63219C3.34061 6.67278 3.29754 6.73013 3.2745 6.7963L3.27375 6.79855L1.65825 11.5536C1.64081 11.6044 1.63577 11.6587 1.64354 11.7118C1.65131 11.765 1.67167 11.8156 1.70292 11.8593C1.73417 11.903 1.77542 11.9387 1.82322 11.9632C1.87102 11.9878 1.924 12.0006 1.97775 12.0006H2.61975C2.69255 12.0004 2.76336 11.9768 2.82162 11.9331C2.87988 11.8895 2.92245 11.8281 2.943 11.7583L2.94375 11.7561L3.20025 10.8613H4.89375L5.157 11.7576L5.15625 11.7598ZM4.0575 7.8103C4.0575 7.8103 4.1775 8.4028 4.278 8.74405L4.5825 9.80005H3.51L3.82125 8.74405C3.9195 8.4028 4.04175 7.8103 4.04175 7.8103H4.0575ZM17.325 13.7998H9.45V4.7998H17.325C17.504 4.7998 17.6757 4.87092 17.8023 4.99751C17.9289 5.12409 18 5.29578 18 5.4748V13.1248C18 13.3038 17.9289 13.4755 17.8023 13.6021C17.6757 13.7287 17.504 13.7998 17.325 13.7998ZM16.3125 7.3873H14.5125V6.93655C14.5125 6.84704 14.4769 6.7612 14.4136 6.69791C14.3504 6.63461 14.2645 6.59905 14.175 6.59905H13.7242C13.6347 6.59905 13.5489 6.63461 13.4856 6.69791C13.4223 6.7612 13.3868 6.84704 13.3868 6.93655V7.3873H11.5868C11.4972 7.3873 11.4114 7.42286 11.3481 7.48616C11.2848 7.54945 11.2492 7.63529 11.2492 7.7248V8.1763C11.2492 8.3623 11.4 8.5138 11.5868 8.5138H14.7975C14.5863 8.9636 14.3008 9.3746 13.953 9.72955L13.9537 9.7288C13.7811 9.54938 13.6215 9.35789 13.476 9.1558L13.4655 9.14005C13.4166 9.06958 13.3427 9.02035 13.2589 9.00238C13.175 8.98441 13.0875 8.99904 13.014 9.0433L13.0155 9.04255L12.8107 9.16255L12.6307 9.27205C12.5911 9.29578 12.5568 9.32738 12.5299 9.3649C12.503 9.40242 12.484 9.44507 12.4743 9.49021C12.4645 9.53534 12.4641 9.582 12.4731 9.6273C12.4821 9.6726 12.5002 9.71557 12.5265 9.75355L12.5258 9.7528C12.7155 10.0221 12.909 10.2583 13.119 10.4796L13.116 10.4766C12.906 10.6386 12.6668 10.8051 12.4193 10.9603L12.3818 10.9821C12.3059 11.0275 12.2509 11.1009 12.2286 11.1864C12.2063 11.272 12.2185 11.3629 12.2625 11.4396L12.2618 11.4381L12.4852 11.8281C12.5078 11.8674 12.538 11.9019 12.5741 11.9293C12.6102 11.9567 12.6515 11.9766 12.6954 11.9877C12.7394 11.9989 12.7851 12.001 12.8299 11.9941C12.8748 11.9871 12.9177 11.9712 12.9562 11.9473L12.9548 11.9481C13.335 11.7141 13.6597 11.4838 13.9695 11.2356L13.95 11.2506C14.2403 11.4853 14.565 11.7156 14.904 11.9263L14.9453 11.9503C14.9837 11.974 15.0265 11.9898 15.0711 11.9966C15.1157 12.0035 15.1613 12.0014 15.2051 11.9903C15.2488 11.9793 15.2899 11.9595 15.326 11.9323C15.362 11.9051 15.3922 11.8709 15.4147 11.8318L15.4155 11.8303L15.639 11.4403C15.6822 11.3645 15.6945 11.2749 15.6731 11.1903C15.6517 11.1057 15.5983 11.0327 15.5242 10.9866L15.5228 10.9858C15.2631 10.8247 15.0117 10.6505 14.7698 10.4638L14.79 10.4788C15.3282 9.93477 15.7351 9.27499 15.9795 8.5498L15.99 8.51455H16.3125C16.402 8.51455 16.4879 8.479 16.5511 8.4157C16.6144 8.35241 16.65 8.26657 16.65 8.17705V7.72555C16.6494 7.63643 16.6136 7.55117 16.5504 7.48836C16.4871 7.42555 16.4016 7.3903 16.3125 7.3903V7.3873Z" fill="white"/>
</svg>
