<svg width="32" height="32" viewBox="0 0 32 32" fill="none" xmlns="http://www.w3.org/2000/svg">
<rect width="32" height="32" rx="16" fill="#2B2B2B"/>
<rect x="0.5" y="0.5" width="31" height="31" rx="15.5" stroke="white" stroke-opacity="0.4"/>
<path d="M19.721 13.7672C19.721 14.162 19.5642 14.5406 19.2851 14.8197C19.0059 15.0989 18.6273 15.2557 18.2326 15.2557C17.8378 15.2557 17.4592 15.0989 17.1801 14.8197C16.901 14.5406 16.7441 14.162 16.7441 13.7672C16.7441 13.3725 16.901 12.9939 17.1801 12.7148C17.4592 12.4356 17.8378 12.2788 18.2326 12.2788C18.6273 12.2788 19.0059 12.4356 19.2851 12.7148C19.5642 12.9939 19.721 13.3725 19.721 13.7672Z" fill="white"/>
<path fill-rule="evenodd" clip-rule="evenodd" d="M16 7.99951C11.5815 7.99951 7.99963 11.5814 7.99963 15.9998C7.99963 20.4183 11.5815 24.0002 16 24.0002C20.4184 24.0002 24.0003 20.4183 24.0003 15.9998C24.0003 11.5814 20.4184 7.99951 16 7.99951ZM15.3912 18.5019L12.1985 15.3092C11.8914 15.0024 11.4792 14.8237 11.0454 14.8093C10.6115 14.795 10.1884 14.946 9.86166 15.2318L9.1167 15.8971C9.13301 14.8221 9.40088 13.7659 9.89884 12.813C10.3968 11.8602 11.111 11.0372 11.9843 10.4101C12.8576 9.78294 13.8656 9.36904 14.9276 9.20157C15.9896 9.03409 17.076 9.11769 18.0999 9.44566C19.1238 9.77363 20.0566 10.3369 20.8237 11.0902C21.5907 11.8436 22.1706 12.7661 22.5169 13.7839C22.8633 14.8017 22.9664 15.8865 22.8181 16.9514C22.6697 18.0162 22.274 19.0315 21.6627 19.9159L20.2986 18.6783C19.923 18.3403 19.4438 18.1397 18.9395 18.1093C18.4351 18.0789 17.9354 18.2204 17.5219 18.5108L17.2994 18.6671C17.0127 18.8685 16.6642 18.9624 16.3152 18.9322C15.9661 18.902 15.6389 18.7496 15.3912 18.5019Z" fill="white"/>
</svg>
