<svg width="22" height="22" viewBox="0 0 22 22" fill="none" xmlns="http://www.w3.org/2000/svg">
<path d="M16.2734 0.5C17.6538 0.500372 18.7734 1.61952 18.7734 3V19C18.7734 20.3805 17.6538 21.4996 16.2734 21.5H5.72754C4.34683 21.5 3.22754 20.3807 3.22754 19V3C3.22754 1.61929 4.34683 0.5 5.72754 0.5H10.2861L9.85742 1.5H5.72754C4.89911 1.5 4.22754 2.17157 4.22754 3V19C4.22754 19.8284 4.89911 20.5 5.72754 20.5H16.2734C17.1015 20.4996 17.7734 19.8282 17.7734 19V3C17.7734 2.1718 17.1015 1.50037 16.2734 1.5H11.75L12.25 0.5H16.2734Z" fill="white"/>
<path d="M16.1729 2.2334C16.7051 2.23361 17.1365 2.66503 17.1367 3.19727V18.8018C17.1366 19.3341 16.7052 19.7654 16.1729 19.7656H5.82812C5.2957 19.7655 4.86435 19.3342 4.86426 18.8018V3.19727C4.86448 2.66496 5.29578 2.23349 5.82812 2.2334H9.54297L9 3.5L12 7L9 11.5L14.5 7L11 3L11.3828 2.2334H16.1729Z" fill="white"/>
</svg>
