<svg width="390" height="95" viewBox="0 0 390 95" fill="none" xmlns="http://www.w3.org/2000/svg">
<g filter="url(#filter0_ddddd_20_3250)">
<g opacity="0.55">
<circle opacity="0.6" cx="91" cy="28" r="24" fill="#4E4BC5"/>
</g>
<rect x="19" y="1" width="352" height="73" rx="16" fill="#2B2B2B" fill-opacity="0.2"/>
<path d="M99.04 22.8202L93.28 18.7902C91.71 17.6902 89.3 17.7502 87.79 18.9202L82.78 22.8302C81.78 23.6102 80.99 25.2102 80.99 26.4702V33.3702C80.99 35.9202 83.06 38.0002 85.61 38.0002H96.39C98.94 38.0002 101.01 35.9302 101.01 33.3802V26.6002C101.01 25.2502 100.14 23.5902 99.04 22.8202ZM91.75 34.0002C91.75 34.4102 91.41 34.7502 91 34.7502C90.59 34.7502 90.25 34.4102 90.25 34.0002V31.0002C90.25 30.5902 90.59 30.2502 91 30.2502C91.41 30.2502 91.75 30.5902 91.75 31.0002V34.0002Z" fill="#6865E7"/>
<path d="M76.4883 56V48.2495H77.4551V51.6011H81.709V48.2495H82.6758V56H81.709V52.4712H77.4551V56H76.4883ZM86.9136 56.1021C86.3657 56.1021 85.8913 55.9821 85.4902 55.7422C85.0928 55.4987 84.7848 55.1532 84.5664 54.7056C84.3516 54.258 84.2441 53.7262 84.2441 53.1104V53.0996C84.2441 52.4801 84.3516 51.9466 84.5664 51.499C84.7848 51.0514 85.0928 50.7077 85.4902 50.4678C85.8913 50.2279 86.3657 50.1079 86.9136 50.1079C87.465 50.1079 87.9395 50.2279 88.3369 50.4678C88.7344 50.7077 89.0405 51.0514 89.2554 51.499C89.4738 51.9466 89.583 52.4801 89.583 53.0996V53.1104C89.583 53.7262 89.4738 54.258 89.2554 54.7056C89.0405 55.1532 88.7344 55.4987 88.3369 55.7422C87.9395 55.9821 87.465 56.1021 86.9136 56.1021ZM86.9136 55.2749C87.2788 55.2749 87.5885 55.189 87.8428 55.0171C88.097 54.8452 88.2904 54.5981 88.4229 54.2759C88.5589 53.9536 88.627 53.5651 88.627 53.1104V53.0996C88.627 52.6413 88.5589 52.251 88.4229 51.9287C88.2904 51.6064 88.097 51.3612 87.8428 51.1929C87.5885 51.021 87.2788 50.9351 86.9136 50.9351C86.5483 50.9351 86.2386 51.021 85.9844 51.1929C85.7301 51.3612 85.535 51.6064 85.3989 51.9287C85.2664 52.251 85.2002 52.6413 85.2002 53.0996V53.1104C85.2002 53.5651 85.2664 53.9536 85.3989 54.2759C85.535 54.5981 85.7301 54.8452 85.9844 55.0171C86.2386 55.189 86.5483 55.2749 86.9136 55.2749ZM91.0332 56V50.21H91.9678V51.0908H92.0537C92.1826 50.7793 92.3796 50.5376 92.6445 50.3657C92.9131 50.1938 93.2371 50.1079 93.6167 50.1079C93.8781 50.1079 94.1126 50.1509 94.3203 50.2368C94.528 50.3228 94.707 50.4427 94.8574 50.5967C95.0078 50.7471 95.1278 50.9225 95.2173 51.123H95.3032C95.4071 50.9189 95.5467 50.7417 95.7222 50.5913C95.8976 50.4373 96.0999 50.3192 96.3291 50.2368C96.5618 50.1509 96.8107 50.1079 97.0757 50.1079C97.4696 50.1079 97.8026 50.1813 98.0747 50.3281C98.3504 50.4749 98.5599 50.6898 98.7031 50.9727C98.8464 51.252 98.918 51.5939 98.918 51.9985V56H97.9834V52.2134C97.9834 51.9269 97.9386 51.6906 97.8491 51.5044C97.7632 51.3146 97.6307 51.1732 97.4517 51.0801C97.2726 50.9834 97.047 50.9351 96.7749 50.9351C96.5063 50.9351 96.2718 50.9959 96.0713 51.1177C95.8708 51.2394 95.715 51.4023 95.604 51.6064C95.493 51.807 95.4375 52.0308 95.4375 52.2778V56H94.5029V52.0684C94.5029 51.8392 94.4528 51.6405 94.3525 51.4722C94.2559 51.3003 94.1162 51.1678 93.9336 51.0747C93.7546 50.9816 93.5433 50.9351 93.2998 50.9351C93.0492 50.9351 92.8218 51.0013 92.6177 51.1338C92.4172 51.2663 92.2578 51.4453 92.1396 51.6709C92.0251 51.8929 91.9678 52.14 91.9678 52.4121V56H91.0332ZM102.968 56.1021C102.416 56.1021 101.942 55.9803 101.544 55.7368C101.151 55.4933 100.846 55.1496 100.631 54.7056C100.42 54.258 100.314 53.7316 100.314 53.1265V53.1211C100.314 52.5231 100.42 51.9985 100.631 51.5474C100.846 51.0962 101.149 50.7435 101.539 50.4893C101.929 50.235 102.386 50.1079 102.909 50.1079C103.435 50.1079 103.886 50.2297 104.262 50.4731C104.642 50.7166 104.932 51.0568 105.132 51.4937C105.336 51.9269 105.438 52.4318 105.438 53.0083V53.3735H100.798V52.627H104.96L104.499 53.3091V52.9385C104.499 52.4837 104.431 52.1095 104.294 51.8159C104.158 51.5223 103.97 51.3039 103.73 51.1606C103.491 51.0138 103.215 50.9404 102.903 50.9404C102.592 50.9404 102.312 51.0174 102.065 51.1714C101.822 51.3218 101.629 51.5456 101.485 51.8428C101.342 52.14 101.271 52.5052 101.271 52.9385V53.3091C101.271 53.7209 101.34 54.0736 101.48 54.3672C101.62 54.6572 101.818 54.881 102.076 55.0386C102.334 55.1925 102.638 55.2695 102.989 55.2695C103.251 55.2695 103.478 55.2337 103.671 55.1621C103.865 55.0905 104.024 54.9992 104.149 54.8882C104.275 54.7772 104.362 54.6644 104.413 54.5498L104.434 54.5015H105.369L105.358 54.5444C105.308 54.7414 105.218 54.9329 105.089 55.1191C104.964 55.3018 104.801 55.4683 104.601 55.6187C104.4 55.7655 104.162 55.8836 103.886 55.9731C103.614 56.0591 103.308 56.1021 102.968 56.1021Z" fill="white"/>
<path d="M118.928 69.4517C121.177 69.4517 123 71.275 123 73.5239H59C59.0001 71.275 60.8233 69.4517 63.0723 69.4517H84L90.1387 66.3267C90.9937 65.8914 92.0063 65.8914 92.8613 66.3267L99 69.4517H118.928Z" fill="#6865E7"/>
<g clip-path="url(#clip0_20_3250)">
<path d="M159.555 28.469C159.611 28.261 159.748 28.0837 159.934 27.9761C160.121 27.8684 160.343 27.8392 160.551 27.8947L170.871 30.6581C171.08 30.7136 171.258 30.8497 171.366 31.0365C171.474 31.2233 171.504 31.4455 171.449 31.6541L167.489 46.4279C167.433 46.6363 167.296 46.8138 167.109 46.9215C166.922 47.0292 166.699 47.0582 166.491 47.0021L156.171 44.2387C155.963 44.1828 155.785 44.0466 155.677 43.8599C155.569 43.6731 155.54 43.4512 155.595 43.2427L159.555 28.469Z" stroke="#8F8F94" stroke-width="2" stroke-linecap="round" stroke-linejoin="round"/>
<path d="M158.804 31.3457L149.794 33.7611C149.586 33.817 149.408 33.9533 149.3 34.14C149.192 34.3267 149.162 34.5487 149.218 34.7571L153.174 49.5308C153.231 49.7393 153.367 49.9168 153.554 50.0245C153.742 50.1322 153.964 50.1612 154.172 50.1051L159.332 48.7234" stroke="#8F8F94" stroke-width="2" stroke-linecap="round" stroke-linejoin="round"/>
</g>
<g clip-path="url(#clip1_20_3250)">
<path fill-rule="evenodd" clip-rule="evenodd" d="M228.333 48.3351C228.333 49.8081 227.139 51.0022 225.666 51.0022C224.193 51.0022 222.999 49.8081 222.999 48.3351C222.999 46.8621 224.193 45.668 225.666 45.668C227.139 45.668 228.333 46.8621 228.333 48.3351ZM239.002 48.3351C239.002 49.8081 237.808 51.0022 236.335 51.0022C234.862 51.0022 233.668 49.8081 233.668 48.3351C233.668 46.8621 234.862 45.668 236.335 45.668C237.808 45.668 239.002 46.8621 239.002 48.3351Z" fill="#8F8F94"/>
<path fill-rule="evenodd" clip-rule="evenodd" d="M217.665 28.3316C217.665 27.5951 218.262 26.998 218.999 26.998H219.479C221.386 26.998 223.028 28.3441 223.402 30.2141L223.559 30.9987H238.331C240.542 30.9987 242.141 33.1122 241.539 35.24L240.167 40.0888C239.68 41.8114 238.108 43.0006 236.318 43.0006H226.519C224.612 43.0006 222.97 41.6545 222.596 39.7846L220.787 30.7372C220.662 30.1138 220.115 29.6651 219.479 29.6651H218.999C218.262 29.6651 217.665 29.0681 217.665 28.3316ZM224.092 33.6658L225.212 39.2615C225.336 39.8848 225.884 40.3335 226.519 40.3335H236.318C236.914 40.3335 237.438 39.9371 237.601 39.3629L238.972 34.514C239.093 34.0885 238.773 33.6658 238.331 33.6658H224.092Z" fill="#8F8F94"/>
</g>
<path d="M299 39C301.761 39 304 36.7614 304 34C304 31.2386 301.761 29 299 29C296.239 29 294 31.2386 294 34C294 36.7614 296.239 39 299 39Z" stroke="#8F8F94" stroke-width="2" stroke-linecap="round" stroke-linejoin="round"/>
<path d="M307.59 49C307.59 45.13 303.74 42 299 42C294.26 42 290.41 45.13 290.41 49" stroke="#8F8F94" stroke-width="2" stroke-linecap="round" stroke-linejoin="round"/>
</g>
<defs>
<filter id="filter0_ddddd_20_3250" x="-7" y="0" width="404" height="105" filterUnits="userSpaceOnUse" color-interpolation-filters="sRGB">
<feFlood flood-opacity="0" result="BackgroundImageFix"/>
<feColorMatrix in="SourceAlpha" type="matrix" values="0 0 0 0 0 0 0 0 0 0 0 0 0 0 0 0 0 0 127 0" result="hardAlpha"/>
<feOffset dy="1"/>
<feGaussianBlur stdDeviation="1"/>
<feColorMatrix type="matrix" values="0 0 0 0 0 0 0 0 0 0 0 0 0 0 0 0 0 0 0.29 0"/>
<feBlend mode="normal" in2="BackgroundImageFix" result="effect1_dropShadow_20_3250"/>
<feColorMatrix in="SourceAlpha" type="matrix" values="0 0 0 0 0 0 0 0 0 0 0 0 0 0 0 0 0 0 127 0" result="hardAlpha"/>
<feOffset dy="4"/>
<feGaussianBlur stdDeviation="2"/>
<feColorMatrix type="matrix" values="0 0 0 0 0 0 0 0 0 0 0 0 0 0 0 0 0 0 0.25 0"/>
<feBlend mode="normal" in2="effect1_dropShadow_20_3250" result="effect2_dropShadow_20_3250"/>
<feColorMatrix in="SourceAlpha" type="matrix" values="0 0 0 0 0 0 0 0 0 0 0 0 0 0 0 0 0 0 127 0" result="hardAlpha"/>
<feOffset dy="9"/>
<feGaussianBlur stdDeviation="2.5"/>
<feColorMatrix type="matrix" values="0 0 0 0 0 0 0 0 0 0 0 0 0 0 0 0 0 0 0.15 0"/>
<feBlend mode="normal" in2="effect2_dropShadow_20_3250" result="effect3_dropShadow_20_3250"/>
<feColorMatrix in="SourceAlpha" type="matrix" values="0 0 0 0 0 0 0 0 0 0 0 0 0 0 0 0 0 0 127 0" result="hardAlpha"/>
<feOffset dy="16"/>
<feGaussianBlur stdDeviation="3"/>
<feColorMatrix type="matrix" values="0 0 0 0 0 0 0 0 0 0 0 0 0 0 0 0 0 0 0.04 0"/>
<feBlend mode="normal" in2="effect3_dropShadow_20_3250" result="effect4_dropShadow_20_3250"/>
<feColorMatrix in="SourceAlpha" type="matrix" values="0 0 0 0 0 0 0 0 0 0 0 0 0 0 0 0 0 0 127 0" result="hardAlpha"/>
<feOffset dy="24"/>
<feGaussianBlur stdDeviation="3.5"/>
<feColorMatrix type="matrix" values="0 0 0 0 0 0 0 0 0 0 0 0 0 0 0 0 0 0 0.01 0"/>
<feBlend mode="normal" in2="effect4_dropShadow_20_3250" result="effect5_dropShadow_20_3250"/>
<feBlend mode="normal" in="SourceGraphic" in2="effect5_dropShadow_20_3250" result="shape"/>
</filter>
<clipPath id="clip0_20_3250">
<rect width="24" height="24" fill="white" transform="translate(148.333 27)"/>
</clipPath>
<clipPath id="clip1_20_3250">
<rect width="24" height="24" fill="white" transform="translate(217.667 27)"/>
</clipPath>
</defs>
</svg>
