<svg width="20" height="21" viewBox="0 0 20 21" fill="none" xmlns="http://www.w3.org/2000/svg">
<path d="M9.58325 1.66699H2.49992C1.57944 1.66699 0.833252 2.41319 0.833252 3.33366V18.3337C0.833252 19.2541 1.57944 20.0003 2.49992 20.0003H12.4999C13.4204 20.0003 14.1666 19.2541 14.1666 18.3337V7.91699" stroke="white" stroke-width="0.833333" stroke-linecap="round"/>
<path fill-rule="evenodd" clip-rule="evenodd" d="M9.28801 2.97754H2.78657C2.3527 2.97754 2.00098 3.32926 2.00098 3.76313V17.9037C2.00098 18.3376 2.3527 18.6893 2.78657 18.6893H12.2137C12.6475 18.6893 12.9993 18.3376 12.9993 17.9038L13 7.68954C12.6855 7.68983 12.3786 7.59144 12.1223 7.40876L12.0982 7.39044L12.0709 7.3681C11.9685 7.28821 11.8772 7.19586 11.799 7.09364C11.7027 6.96792 11.626 6.82724 11.5731 6.6761L11.5677 6.65999L11.2923 5.81533C11.265 5.73334 11.219 5.65863 11.158 5.59745C11.0978 5.53694 11.0241 5.49072 10.9432 5.46319L10.1077 5.19238L10.1001 5.18931C9.80202 5.089 9.54272 4.89846 9.35821 4.64385C9.17409 4.38934 9.07359 4.08352 9.07128 3.76927C9.06937 3.48982 9.14417 3.21575 9.28801 2.97754Z" fill="white"/>
<path d="M12.887 6.52251C13.0172 6.61536 13.1731 6.6652 13.333 6.66505C13.4929 6.6649 13.6487 6.61477 13.7787 6.52167C13.9086 6.42455 14.0074 6.29161 14.0629 6.13917L14.352 5.25001C14.4214 5.04052 14.5388 4.85013 14.6947 4.69402C14.8507 4.53791 15.041 4.4204 15.2504 4.35084L16.1554 4.05667C16.3072 4.00224 16.438 3.90148 16.5294 3.76865C16.6208 3.63581 16.6681 3.47761 16.6647 3.31641C16.6613 3.15521 16.6073 2.99916 16.5104 2.8703C16.4135 2.74145 16.2785 2.64631 16.1245 2.59834L15.2337 2.31001C15.0241 2.24076 14.8335 2.12347 14.6773 1.96749C14.521 1.81152 14.4034 1.62119 14.3337 1.41167L14.0395 0.50834C13.9862 0.359167 13.8879 0.230198 13.7582 0.139169C13.6285 0.048141 13.4738 -0.000475237 13.3154 6.9459e-06C13.1547 -0.000676947 12.9978 0.049157 12.867 0.142467C12.7361 0.235777 12.6379 0.367845 12.5862 0.520007L12.2895 1.42834C12.2199 1.63164 12.1051 1.81655 11.9539 1.96924C11.8027 2.12192 11.6188 2.23841 11.4162 2.31001L10.5129 2.60251C10.362 2.65584 10.2315 2.75492 10.1395 2.88594C10.0476 3.01696 9.99883 3.1734 10 3.33345C10.0012 3.4935 10.0523 3.6492 10.1462 3.77884C10.2401 3.90847 10.372 4.0056 10.5237 4.05667L11.4129 4.34584C11.6228 4.41598 11.8135 4.53405 11.9699 4.69071C12.1262 4.84736 12.244 5.03828 12.3137 5.24834L12.607 6.14834C12.6595 6.29834 12.7579 6.42917 12.8879 6.52167M17.1129 9.87251C17.2258 9.95281 17.361 9.99591 17.4995 9.99584C17.6395 9.99443 17.7755 9.94957 17.8888 9.86746C18.0021 9.78534 18.0871 9.67004 18.132 9.53751L18.3387 8.90251C18.3829 8.77084 18.4579 8.65001 18.5554 8.55167C18.6529 8.45334 18.7737 8.37917 18.9054 8.33584L19.5487 8.12584C19.6818 8.08021 19.797 7.99367 19.8779 7.87859C19.9588 7.76351 20.0012 7.62579 19.9991 7.48514C19.9969 7.34448 19.9504 7.20811 19.8661 7.09553C19.7817 6.98294 19.6639 6.89992 19.5295 6.85834L18.8929 6.65084C18.7613 6.60675 18.6416 6.5328 18.5433 6.43478C18.445 6.33677 18.3707 6.21734 18.3262 6.08584L18.1162 5.44084C18.071 5.30838 17.9853 5.1935 17.8712 5.11247C17.7571 5.03145 17.6204 4.98839 17.4804 4.9894C17.3405 4.99042 17.2044 5.03545 17.0914 5.11812C16.9785 5.20079 16.8945 5.3169 16.8512 5.45001L16.6454 6.08501C16.6029 6.21555 16.5309 6.33453 16.4349 6.43268C16.339 6.53082 16.2216 6.60548 16.092 6.65084L15.4454 6.86167C15.3475 6.89571 15.2589 6.95209 15.1866 7.02635C15.1143 7.10061 15.0603 7.1907 15.029 7.28947C14.9976 7.38823 14.9896 7.49296 15.0058 7.59532C15.022 7.69769 15.0618 7.79488 15.122 7.87917C15.2045 7.99584 15.3212 8.08334 15.4554 8.12917L16.0912 8.33501C16.2233 8.37952 16.3432 8.4541 16.4416 8.55287C16.5399 8.65164 16.6139 8.7719 16.6579 8.90417L16.8687 9.54917C16.9144 9.67956 16.9994 9.79254 17.112 9.87251" fill="white"/>
</svg>
