<svg width="20" height="20" viewBox="0 0 20 20" fill="none" xmlns="http://www.w3.org/2000/svg">
<path d="M3.3272 17.2265V16.2625C3.32739 15.9739 3.55694 15.7396 3.84002 15.7396C4.12314 15.7396 4.35265 15.9738 4.35284 16.2625V17.2265C4.35331 17.5365 4.6267 17.8433 5.03193 17.8434H6.02351C6.30674 17.8433 6.5363 18.0775 6.53633 18.3662C6.53626 18.6549 6.30667 18.8891 6.02351 18.8891H5.03193C4.1227 18.8891 3.32767 18.1757 3.3272 17.2265ZM10.9855 17.8434C11.2687 17.8433 11.4982 18.0775 11.4983 18.3662C11.4979 18.6546 11.2684 18.8891 10.9855 18.8891H9.00028C8.71759 18.8887 8.48774 18.6545 8.48745 18.3662C8.48742 18.0777 8.71738 17.8438 9.00028 17.8434H10.9855ZM15.6329 17.2245V16.2604C15.6334 15.9721 15.8628 15.7376 16.1457 15.7376C16.4285 15.7376 16.658 15.9721 16.6585 16.2604V17.2245C16.6582 18.1729 15.8643 18.8864 14.9558 18.8871H13.9622C13.6792 18.8869 13.4494 18.6528 13.4494 18.3642C13.4498 18.0759 13.6794 17.8415 13.9622 17.8413H14.9538C15.3585 17.8412 15.6328 17.5345 15.6329 17.2245ZM3.3272 13.3724V11.4463C3.32716 11.1575 3.5568 10.9235 3.84002 10.9234C4.12289 10.9238 4.3528 11.1578 4.35284 11.4463V13.3724C4.35288 13.661 4.1231 13.895 3.84002 13.8952C3.5568 13.8953 3.32724 13.6611 3.3272 13.3724ZM15.6329 13.3703V11.4443C15.6329 11.1558 15.8609 10.9219 16.1437 10.9214C16.4269 10.9213 16.6585 11.1555 16.6585 11.4443V13.3703C16.6586 13.6589 16.4287 13.8928 16.1457 13.8932C15.8625 13.8932 15.6329 13.6591 15.6329 13.3703ZM3.3252 8.55618V6.62808C3.32548 6.33976 3.55523 6.10552 3.83802 6.1052C4.12109 6.10516 4.35055 6.33951 4.35084 6.62808V8.55618C4.35046 8.84459 4.12098 9.07901 3.83802 9.07906C3.55544 9.07858 3.32558 8.84434 3.3252 8.55618ZM15.6309 8.55414V6.62808C15.6308 6.33933 15.8605 6.1053 16.1437 6.1052C16.4269 6.10515 16.6565 6.3393 16.6565 6.62808V8.55414C16.6565 8.84282 16.4269 9.07696 16.1437 9.07701C15.8608 9.07674 15.6309 8.8427 15.6309 8.55414ZM3.3252 3.73796V2.77595C3.32434 1.82689 4.11968 1.11188 5.02792 1.11133H6.02151C6.30426 1.11164 6.53398 1.34592 6.53433 1.6342C6.53435 1.9228 6.30449 2.15677 6.02151 2.15708H5.02792C4.62344 2.15762 4.35088 2.46546 4.35084 2.77391V3.73796C4.35088 4.02674 4.12124 4.26079 3.83802 4.26084C3.5549 4.26076 3.32524 4.02666 3.3252 3.73796ZM15.6309 2.77391C15.6309 2.50347 15.4217 2.2345 15.098 2.17138L14.9518 2.15708H13.9602C13.677 2.1571 13.4474 1.92298 13.4474 1.6342C13.4474 1.34548 13.677 1.11135 13.9602 1.11133H14.9518C15.8612 1.11129 16.6566 1.82523 16.6565 2.77391V3.73592C16.6566 4.02462 16.4268 4.25861 16.1437 4.2588C15.8608 4.25885 15.6314 4.02631 15.6309 3.73796V2.77391ZM10.9834 1.11133C11.2663 1.1117 11.4961 1.34579 11.4963 1.6342C11.4963 1.92276 11.2664 2.15671 10.9834 2.15708H8.99827C8.71505 2.1571 8.48547 1.92298 8.48545 1.6342C8.48568 1.34565 8.71521 1.11135 8.99827 1.11133H10.9834Z" fill="white"/>
</svg>
