<svg width="20" height="20" viewBox="0 0 20 20" fill="none" xmlns="http://www.w3.org/2000/svg">
<path d="M14.7024 2.03027C15.1865 2.03034 15.5793 2.42312 15.5793 2.90723V17.0918C15.5793 17.5759 15.1865 17.9687 14.7024 17.9688H5.2981C4.81414 17.9685 4.42212 17.5758 4.42212 17.0918V2.90723C4.42212 2.42322 4.81414 2.03049 5.2981 2.03027H8.59106L8.18188 3.03027L10.9094 6.36328L10.0002 3.03027L10.4094 2.03027H14.7024Z" fill="white"/>
<path d="M14.7935 0.455078C16.0485 0.455248 17.0659 1.47245 17.0659 2.72754V17.2725C17.0659 18.5275 16.0485 19.5457 14.7935 19.5459H5.20654C3.9515 19.5458 2.93413 18.5275 2.93408 17.2725V2.72754C2.93408 1.47243 3.95147 0.455222 5.20654 0.455078H9.17334L8.8335 1.36328H5.20654C4.45355 1.36343 3.84229 1.97451 3.84229 2.72754V17.2725C3.84233 18.0254 4.45358 18.6366 5.20654 18.6367H14.7935C15.5464 18.6365 16.1567 18.0254 16.1567 17.2725V2.72754C16.1567 1.97453 15.5464 1.36345 14.7935 1.36328H10.7124L11.0532 0.455078H14.7935Z" fill="white"/>
</svg>
