<svg width="28" height="28" viewBox="0 0 28 28" fill="none" xmlns="http://www.w3.org/2000/svg">
<path d="M25.6666 13.764V16.333C25.6666 20.7325 25.6666 22.9328 24.2993 24.299C22.932 25.6652 20.7328 25.6663 16.3333 25.6663H11.6666C7.26715 25.6663 5.06681 25.6663 3.70065 24.299C2.56315 23.1627 2.37181 21.45 2.34031 18.3747H12.4763L9.83965 20.2915C9.65183 20.428 9.52591 20.6334 9.48959 20.8627C9.45327 21.092 9.50953 21.3264 9.64598 21.5142C9.78243 21.702 9.98791 21.8279 10.2172 21.8642C10.4465 21.9006 10.6808 21.8443 10.8686 21.7078L15.6811 18.2078C15.7927 18.1267 15.8835 18.0202 15.9462 17.8973C16.0088 17.7743 16.0414 17.6383 16.0414 17.5003C16.0414 17.3623 16.0088 17.2262 15.9462 17.1032C15.8835 16.9803 15.7927 16.8739 15.6811 16.7927L10.8686 13.2927C10.7759 13.2227 10.6701 13.1719 10.5575 13.1432C10.4449 13.1145 10.3277 13.1086 10.2127 13.1257C10.0978 13.1428 9.98739 13.1826 9.88801 13.2429C9.78863 13.3031 9.70225 13.3826 9.63391 13.4766C9.56556 13.5705 9.51663 13.6772 9.48996 13.7903C9.46329 13.9034 9.45941 14.0207 9.47857 14.1353C9.49772 14.25 9.53951 14.3596 9.60151 14.4579C9.6635 14.5562 9.74446 14.6412 9.83965 14.7078L12.4763 16.6247H2.33331V8.10801C2.33331 7.07784 2.33331 6.56334 2.41498 6.13401C2.58907 5.21215 3.03697 4.36417 3.70024 3.7007C4.36351 3.03722 5.21135 2.58906 6.13315 2.41467C6.56365 2.33301 7.07931 2.33301 8.10831 2.33301C8.55865 2.33301 8.78498 2.33301 9.00198 2.35284C9.93653 2.44061 10.8229 2.80817 11.5453 3.40751C11.7133 3.54634 11.872 3.70501 12.1916 4.02467L12.8333 4.66634C13.7853 5.61834 14.2613 6.09434 14.8306 6.41051C15.1449 6.58629 15.4746 6.72318 15.82 6.82118C16.4476 6.99967 17.1208 6.99967 18.466 6.99967H18.9023C21.973 6.99967 23.5095 6.99967 24.507 7.89801C24.5988 7.97967 24.6863 8.06679 24.7695 8.15934C25.6666 9.15684 25.6666 10.6933 25.6666 13.764Z" fill="white"/>
</svg>
