<svg width="20" height="20" viewBox="0 0 20 20" fill="none" xmlns="http://www.w3.org/2000/svg">
<path d="M8.95831 9.99967C8.95831 9.72341 9.06806 9.45846 9.26341 9.2631C9.45876 9.06775 9.72371 8.95801 9.99998 8.95801C10.2762 8.95801 10.5412 9.06775 10.7365 9.2631C10.9319 9.45846 11.0416 9.72341 11.0416 9.99967C11.0416 10.2759 10.9319 10.5409 10.7365 10.7362C10.5412 10.9316 10.2762 11.0413 9.99998 11.0413C9.72371 11.0413 9.45876 10.9316 9.26341 10.7362C9.06806 10.5409 8.95831 10.2759 8.95831 9.99967Z" fill="white"/>
<path d="M7.79415 9.375C7.93035 8.89507 8.21938 8.47266 8.6174 8.17188C9.01541 7.87109 9.50068 7.70835 9.99957 7.70835C10.4985 7.70835 10.9837 7.87109 11.3817 8.17188C11.7798 8.47266 12.0688 8.89507 12.205 9.375H18.1008C17.7817 5.18 14.2766 1.875 9.99998 1.875C5.72248 1.875 2.21748 5.18 1.89832 9.375H7.79415ZM12.205 10.625C12.0688 11.1049 11.7798 11.5273 11.3817 11.8281C10.9837 12.1289 10.4985 12.2916 9.99957 12.2916C9.50068 12.2916 9.01541 12.1289 8.6174 11.8281C8.21938 11.5273 7.93035 11.1049 7.79415 10.625H1.89832C2.21748 14.82 5.72332 18.125 9.99998 18.125C14.2766 18.125 17.7825 14.82 18.1008 10.625H12.205Z" fill="white"/>
</svg>
