<svg width="18" height="19" viewBox="0 0 18 19" fill="none" xmlns="http://www.w3.org/2000/svg">
<path d="M8.625 1.50049H2.25C1.42157 1.50049 0.75 2.17206 0.75 3.00049V16.5005C0.75 17.3289 1.42157 18.0005 2.25 18.0005H11.25C12.0784 18.0005 12.75 17.3289 12.75 16.5005V7.12549" stroke="white" stroke-width="0.75" stroke-linecap="round"/>
<path fill-rule="evenodd" clip-rule="evenodd" d="M8.35936 2.67969H2.50806C2.11757 2.67969 1.80103 2.99624 1.80103 3.38672V16.1133C1.80103 16.5038 2.11757 16.8203 2.50806 16.8203H10.9925C11.3829 16.8203 11.6995 16.5038 11.6995 16.1133L11.7001 6.92049C11.4171 6.92075 11.1409 6.8322 10.9103 6.66778L10.8885 6.6513L10.864 6.63119C10.7718 6.55929 10.6897 6.47618 10.6192 6.38418C10.5326 6.27103 10.4635 6.14441 10.4159 6.00839L10.4111 5.99389L10.1632 5.2337C10.1387 5.1599 10.0972 5.09267 10.0424 5.03761C9.98815 4.98315 9.92187 4.94155 9.84902 4.91678L9.09711 4.67304L9.09021 4.67028C8.82197 4.58001 8.58859 4.40851 8.42253 4.17937C8.25682 3.95031 8.16637 3.67507 8.1643 3.39224C8.16258 3.14074 8.2299 2.89408 8.35936 2.67969Z" fill="white"/>
<path d="M11.5983 5.87026C11.7155 5.95382 11.8558 5.99868 11.9997 5.99854C12.1436 5.99841 12.2839 5.95329 12.4008 5.86951C12.5178 5.78209 12.6067 5.66245 12.6566 5.52526L12.9168 4.72501C12.9793 4.53647 13.0849 4.36512 13.2252 4.22462C13.3656 4.08412 13.5369 3.97836 13.7253 3.91576L14.5398 3.65101C14.6764 3.60201 14.7942 3.51133 14.8764 3.39178C14.9587 3.27223 15.0013 3.12985 14.9982 2.98477C14.9952 2.83969 14.9466 2.69924 14.8593 2.58327C14.7721 2.46731 14.6506 2.38168 14.5121 2.33851L13.7103 2.07901C13.5217 2.01668 13.3502 1.91112 13.2095 1.77074C13.0689 1.63037 12.963 1.45907 12.9003 1.27051L12.6356 0.457506C12.5875 0.32325 12.4991 0.207178 12.3824 0.125253C12.2657 0.0433269 12.1264 -0.000427713 11.9838 6.25131e-06C11.8392 -0.000609252 11.698 0.0442413 11.5803 0.12822C11.4625 0.212199 11.3741 0.33106 11.3276 0.468006L11.0606 1.28551C10.9979 1.46848 10.8946 1.6349 10.7585 1.77231C10.6224 1.90973 10.457 2.01457 10.2746 2.07901L9.46159 2.34226C9.32578 2.39025 9.20831 2.47943 9.12557 2.59735C9.04284 2.71527 8.99895 2.85606 9.00002 3.00011C9.00109 3.14415 9.04708 3.28428 9.13156 3.40095C9.21605 3.51763 9.33483 3.60504 9.47134 3.65101L10.2716 3.91126C10.4605 3.97438 10.6322 4.08065 10.7729 4.22164C10.9136 4.36262 11.0196 4.53445 11.0823 4.72351L11.3463 5.53351C11.3936 5.66851 11.4821 5.78626 11.5991 5.86951M15.4016 8.88526C15.5032 8.95752 15.6249 8.99632 15.7496 8.99626C15.8755 8.99499 15.998 8.95461 16.0999 8.88071C16.2019 8.80681 16.2784 8.70304 16.3188 8.58376L16.5048 8.01226C16.5446 7.89376 16.6121 7.78501 16.6998 7.69651C16.7876 7.60801 16.8963 7.54126 17.0148 7.50226L17.5938 7.31326C17.7136 7.27219 17.8173 7.1943 17.8901 7.09073C17.9629 6.98716 18.0011 6.86321 17.9992 6.73662C17.9973 6.61004 17.9553 6.4873 17.8794 6.38597C17.8035 6.28465 17.6975 6.20993 17.5766 6.17251L17.0036 5.98576C16.8851 5.94607 16.7774 5.87952 16.689 5.7913C16.6005 5.70309 16.5336 5.59561 16.4936 5.47726L16.3046 4.89676C16.2639 4.77754 16.1868 4.67415 16.0841 4.60122C15.9814 4.5283 15.8583 4.48955 15.7324 4.49046C15.6064 4.49138 15.4839 4.53191 15.3823 4.60631C15.2807 4.68071 15.205 4.78521 15.1661 4.90501L14.9808 5.47651C14.9426 5.594 14.8778 5.70108 14.7914 5.78941C14.7051 5.87774 14.5995 5.94493 14.4828 5.98576L13.9008 6.17551C13.8127 6.20614 13.733 6.25688 13.6679 6.32372C13.6029 6.39055 13.5543 6.47163 13.5261 6.56052C13.4978 6.64941 13.4907 6.74366 13.5052 6.83579C13.5198 6.92792 13.5556 7.01539 13.6098 7.09126C13.6841 7.19626 13.7891 7.27501 13.9098 7.31626L14.4821 7.50151C14.601 7.54157 14.7089 7.60869 14.7974 7.69759C14.8859 7.78648 14.9526 7.89471 14.9921 8.01376L15.1818 8.59426C15.2229 8.7116 15.2995 8.81329 15.4008 8.88526" fill="white"/>
</svg>
