<svg width="20" height="20" viewBox="0 0 20 20" fill="none" xmlns="http://www.w3.org/2000/svg">
<path fill-rule="evenodd" clip-rule="evenodd" d="M13.4239 18.8875L2.67414 18.8891C1.96206 18.8891 1.38345 18.3471 1.38318 17.6776L1.38074 2.32335C1.3802 1.65495 1.95908 1.11241 2.67061 1.11187L13.4212 1.11133C14.1333 1.11133 14.7114 1.65386 14.7114 2.32172L14.7141 10.0002C14.4048 9.99967 14.0969 10.0317 13.7958 10.0952C13.5286 10.1516 13.2666 10.2324 13.013 10.3377C12.4734 10.5612 11.9838 10.8889 11.5714 11.3018C11.3425 11.5302 11.1399 11.7824 10.9665 12.0537C10.8268 12.2724 10.7064 12.5029 10.6068 12.7433C10.5566 12.8643 10.5121 12.9869 10.4731 13.1111C10.4416 13.2115 10.4137 13.3129 10.3893 13.4155C10.3738 13.4811 10.3597 13.5468 10.3472 13.613C10.3271 13.7193 10.3109 13.8262 10.2987 13.9336C10.2791 14.1029 10.2694 14.2732 10.2696 14.4447C10.2694 14.7089 10.2927 14.972 10.3391 15.2313C10.395 15.5444 10.4847 15.8509 10.6068 16.1461C10.6554 16.2632 10.7088 16.3783 10.7671 16.4906C10.8718 16.6924 10.992 16.8861 11.1263 17.0689C11.2608 17.2523 11.4095 17.4259 11.5714 17.5876C11.7429 17.759 11.9276 17.9158 12.1237 18.0569C12.3228 18.2001 12.5339 18.3265 12.7544 18.4345C12.8391 18.4762 12.9253 18.5153 13.013 18.5517C13.1493 18.6083 13.288 18.6579 13.4287 18.7004C13.5508 18.7372 13.5515 18.8875 13.4239 18.8875Z" fill="white"/>
<path d="M14.7139 10.8486C15.1913 10.8481 15.6644 10.9413 16.1055 11.124C16.5465 11.3067 16.947 11.5751 17.2842 11.9131C17.6223 12.2503 17.8905 12.6516 18.0732 13.0928C18.2559 13.5338 18.3492 14.007 18.3486 14.4844C18.3492 14.9618 18.2559 15.4349 18.0732 15.876C17.8905 16.317 17.6222 16.7175 17.2842 17.0547C16.947 17.3927 16.5465 17.661 16.1055 17.8438C15.6644 18.0264 15.1913 18.1197 14.7139 18.1191C14.2365 18.1197 13.7633 18.0264 13.3223 17.8438C12.8811 17.661 12.4798 17.3928 12.1426 17.0547C11.8046 16.7175 11.5362 16.317 11.3535 15.876C11.1708 15.4349 11.0776 14.9618 11.0781 14.4844C11.0775 14.007 11.1709 13.5338 11.3535 13.0928C11.5363 12.6516 11.8045 12.2503 12.1426 11.9131C12.4798 11.575 12.8811 11.3068 13.3223 11.124C13.7633 10.9414 14.2365 10.848 14.7139 10.8486ZM16.7969 13.1279C16.6505 12.9819 16.413 12.982 16.2666 13.1279L14.3496 15.0439L13.5254 14.2188C13.379 14.0724 13.1406 14.0725 12.9941 14.2188C12.8479 14.3651 12.8481 14.6026 12.9941 14.749L14.085 15.8398C14.2314 15.9861 14.4688 15.9862 14.6152 15.8398L16.7969 13.6592C16.9431 13.5128 16.9431 13.2743 16.7969 13.1279Z" fill="#36BF76"/>
</svg>
