<svg width="22" height="20" viewBox="0 0 22 20" fill="none" xmlns="http://www.w3.org/2000/svg">
<path d="M20.9921 2.5752L21.6156 2.51679L21.5665 1.99321L21.0423 1.951L20.9921 2.5752ZM18.8397 7.01855L18.3805 6.59278V6.59278L18.8397 7.01855ZM16.3378 9.16113L15.9791 8.64783L15.3814 9.06552L15.8845 9.59325L16.3378 9.16113ZM17.6483 12.2637L18.2745 12.2637V12.2637H17.6483ZM11.1727 17.4072V18.0334H11.1728L11.1727 17.4072ZM4.69617 12.2637H4.06995L4.06995 12.2637L4.69617 12.2637ZM5.80652 9.38086L6.28295 9.78727L6.70271 9.29518L6.19732 8.89154L5.80652 9.38086ZM3.23816 6.94922L2.77104 7.36629L2.77105 7.36631L3.23816 6.94922ZM0.961792 2.5752L0.912204 1.95094L0.355697 1.99515L0.335962 2.55306L0.961792 2.5752ZM4.43445 3.80566L4.79923 3.29665L4.79922 3.29665L4.43445 3.80566ZM7.80652 7.86621L7.25335 8.15973L7.53619 8.69278L8.07935 8.42987L7.80652 7.86621ZM11.1727 7.11914L11.1728 6.49292H11.1727V7.11914ZM14.1864 7.70996L13.9447 8.28764L14.4533 8.5005L14.7288 8.02289L14.1864 7.70996ZM17.66 3.69922L17.2918 3.19271L17.2918 3.19273L17.66 3.69922ZM20.9921 2.5752L20.3686 2.6336C20.4205 3.18748 20.1102 4.72728 18.3805 6.59278L18.8397 7.01855L19.2989 7.44433C21.1782 5.41745 21.7116 3.54172 21.6156 2.51679L20.9921 2.5752ZM18.8397 7.01855L18.3805 6.59278C17.7695 7.25177 16.9827 7.94647 15.9791 8.64783L16.3378 9.16113L16.6965 9.67443C17.7662 8.92683 18.6219 8.17452 19.2989 7.44433L18.8397 7.01855ZM16.3378 9.16113L15.8845 9.59325C16.6124 10.3567 17.0221 11.2817 17.0221 12.2637H17.6483H18.2745C18.2745 10.9149 17.7079 9.69067 16.791 8.72901L16.3378 9.16113ZM17.6483 12.2637L17.0221 12.2636C17.0219 14.6319 14.5455 16.7808 11.1727 16.781L11.1727 17.4072L11.1728 18.0334C14.9529 18.0333 18.2742 15.5772 18.2745 12.2637L17.6483 12.2637ZM11.1727 17.4072V16.781C7.79965 16.781 5.3226 14.6319 5.32239 12.2636L4.69617 12.2637L4.06995 12.2637C4.07025 15.5774 7.39244 18.0334 11.1727 18.0334V17.4072ZM4.69617 12.2637H5.32239C5.32239 11.3624 5.66611 10.5104 6.28295 9.78727L5.80652 9.38086L5.33009 8.97445C4.54422 9.89572 4.06995 11.029 4.06995 12.2637H4.69617ZM5.80652 9.38086L6.19732 8.89154C5.50145 8.33579 4.55961 7.48893 3.70527 6.53213L3.23816 6.94922L2.77105 7.36631C3.67939 8.38359 4.67427 9.27801 5.41572 9.87018L5.80652 9.38086ZM3.23816 6.94922L3.70528 6.53214C3.09903 5.85315 2.54973 5.13398 2.16078 4.43726C1.76647 3.73095 1.56964 3.1056 1.58762 2.59733L0.961792 2.5752L0.335962 2.55306C0.306342 3.39043 0.623517 4.253 1.0672 5.04776C1.51624 5.85211 2.12892 6.64713 2.77104 7.36629L3.23816 6.94922ZM0.961792 2.5752L1.01138 3.19945C1.56544 3.15544 2.73489 3.35814 4.06968 4.31468L4.43445 3.80566L4.79922 3.29665C3.27092 2.20144 1.81382 1.87932 0.912204 1.95094L0.961792 2.5752ZM4.43445 3.80566L4.06967 4.31467C5.11102 5.06095 6.24851 6.26602 7.25335 8.15973L7.80652 7.86621L8.35969 7.57269C7.27298 5.52468 6.01228 4.16598 4.79923 3.29665L4.43445 3.80566ZM7.80652 7.86621L8.07935 8.42987C8.97235 7.99763 10.0317 7.74536 11.1727 7.74536V7.11914V6.49292C9.84877 6.49292 8.60221 6.78535 7.53369 7.30255L7.80652 7.86621ZM11.1727 7.11914L11.1727 7.74536C12.1792 7.74541 13.1221 7.94342 13.9447 8.28764L14.1864 7.70996L14.4282 7.13228C13.4502 6.72301 12.3427 6.49298 11.1728 6.49292L11.1727 7.11914ZM14.1864 7.70996L14.7288 8.02289C15.3921 6.87314 16.5914 5.25049 18.0283 4.20571L17.66 3.69922L17.2918 3.19273C15.661 4.37847 14.3559 6.16294 13.644 7.39703L14.1864 7.70996ZM17.66 3.69922L18.0283 4.20572C18.9781 3.51515 19.9691 3.12106 20.9418 3.1994L20.9921 2.5752L21.0423 1.951C19.6584 1.83953 18.3724 2.40704 17.2918 3.19271L17.66 3.69922Z" fill="white"/>
<path d="M20.9919 2.5752C21.0659 3.3646 20.6441 5.07236 18.8396 7.01855C18.1957 7.713 17.375 8.43681 16.3386 9.16113C17.1607 10.0236 17.6492 11.0985 17.6492 12.2637C17.6489 15.1046 14.7492 17.4071 11.1726 17.4072C7.59593 17.4072 4.69632 15.1047 4.69604 12.2637C4.69604 11.1957 5.10508 10.203 5.8064 9.38086C5.08778 8.80692 4.12027 7.93615 3.23901 6.94922C1.99056 5.55101 0.914083 3.92091 0.96167 2.5752C1.68946 2.51734 3.00274 2.77979 4.43433 3.80566C5.5616 4.6135 6.76154 5.89514 7.80737 7.86621C8.78798 7.39169 9.94039 7.11914 11.1726 7.11914C12.2612 7.11918 13.2868 7.33301 14.1873 7.70996C14.8749 6.51805 16.1262 4.81438 17.6599 3.69922C18.6752 2.96102 19.8136 2.48029 20.9919 2.5752Z" fill="#FFB82E"/>
<path d="M20.9919 2.5752L21.3037 2.54599L21.2792 2.2842L21.0171 2.2631L20.9919 2.5752ZM18.8396 7.01855L19.0692 7.23144L19.0692 7.23144L18.8396 7.01855ZM16.3386 9.16113L16.1593 8.90449L15.8605 9.11331L16.112 9.37717L16.3386 9.16113ZM17.6492 12.2637L17.9623 12.2637V12.2637H17.6492ZM11.1726 17.4072V17.7203H11.1726L11.1726 17.4072ZM4.69604 12.2637H4.38293V12.2637L4.69604 12.2637ZM5.8064 9.38086L6.04462 9.58406L6.25449 9.33802L6.0018 9.1362L5.8064 9.38086ZM3.23901 6.94922L3.00546 7.15776L3.00546 7.15776L3.23901 6.94922ZM0.96167 2.5752L0.936858 2.26307L0.658619 2.28519L0.648755 2.56413L0.96167 2.5752ZM4.43433 3.80566L4.61671 3.55116L4.61671 3.55115L4.43433 3.80566ZM7.80737 7.86621L7.53078 8.01297L7.67219 8.27947L7.94376 8.14806L7.80737 7.86621ZM11.1726 7.11914L11.1726 6.80603H11.1726V7.11914ZM14.1873 7.70996L14.0663 7.99879L14.3207 8.10525L14.4585 7.86643L14.1873 7.70996ZM17.6599 3.69922L17.4758 3.44597L17.4758 3.44597L17.6599 3.69922ZM20.9919 2.5752L20.6802 2.6044C20.7431 3.27604 20.3771 4.89982 18.61 6.80567L18.8396 7.01855L19.0692 7.23144C20.9111 5.2449 21.3887 3.45316 21.3037 2.54599L20.9919 2.5752ZM18.8396 7.01855L18.61 6.80567C17.9825 7.48239 17.179 8.19179 16.1593 8.90449L16.3386 9.16113L16.518 9.41778C17.571 8.68183 18.4089 7.94361 19.0692 7.23144L18.8396 7.01855ZM16.3386 9.16113L16.112 9.37717C16.8869 10.1901 17.3361 11.1902 17.3361 12.2637H17.6492H17.9623C17.9623 11.0067 17.4346 9.8571 16.5653 8.9451L16.3386 9.16113ZM17.6492 12.2637L17.3361 12.2636C17.3358 14.8682 14.6474 17.094 11.1726 17.0941L11.1726 17.4072L11.1726 17.7203C14.8509 17.7202 17.962 15.341 17.9623 12.2637L17.6492 12.2637ZM11.1726 17.4072V17.0941C7.69773 17.0941 5.00941 14.8683 5.00916 12.2636L4.69604 12.2637L4.38293 12.2637C4.38323 15.341 7.49412 17.7203 11.1726 17.7203V17.4072ZM4.69604 12.2637H5.00916C5.00916 11.2791 5.38555 10.3567 6.04462 9.58406L5.8064 9.38086L5.56818 9.17766C4.82461 10.0494 4.38293 11.1124 4.38293 12.2637H4.69604ZM5.8064 9.38086L6.0018 9.1362C5.29468 8.57144 4.34039 7.71257 3.47257 6.74067L3.23901 6.94922L3.00546 7.15776C3.90015 8.15974 4.88089 9.0424 5.611 9.62552L5.8064 9.38086ZM3.23901 6.94922L3.47257 6.74068C2.85728 6.05159 2.29189 5.31345 1.88768 4.58983C1.4808 3.86141 1.2537 3.17679 1.27459 2.58626L0.96167 2.5752L0.648755 2.56413C0.62205 3.31932 0.909403 4.12261 1.34097 4.89522C1.77522 5.67262 2.37229 6.44865 3.00546 7.15776L3.23901 6.94922ZM0.96167 2.5752L0.986482 2.88732C1.62736 2.83637 2.86872 3.06896 4.25194 4.06017L4.43433 3.80566L4.61671 3.55115C3.13676 2.49062 1.75156 2.1983 0.936858 2.26307L0.96167 2.5752ZM4.43433 3.80566L4.25194 4.06017C5.33636 4.8373 6.50547 6.08056 7.53078 8.01297L7.80737 7.86621L8.08396 7.71946C7.01761 5.70972 5.78684 4.38971 4.61671 3.55116L4.43433 3.80566ZM7.80737 7.86621L7.94376 8.14806C8.88056 7.69474 9.98617 7.43225 11.1726 7.43225V7.11914V6.80603C9.8946 6.80603 8.69541 7.08865 7.67099 7.58436L7.80737 7.86621ZM11.1726 7.11914L11.1726 7.43225C12.2204 7.43229 13.2048 7.63813 14.0663 7.99879L14.1873 7.70996L14.3082 7.42114C13.3687 7.02788 12.302 6.80607 11.1726 6.80603L11.1726 7.11914ZM14.1873 7.70996L14.4585 7.86643C15.134 6.69551 16.3588 5.03235 17.844 3.95246L17.6599 3.69922L17.4758 3.44597C15.8935 4.59642 14.6158 6.3406 13.916 7.55349L14.1873 7.70996ZM17.6599 3.69922L17.844 3.95247C18.8266 3.23805 19.8913 2.80067 20.9668 2.8873L20.9919 2.5752L21.0171 2.2631C19.7359 2.15991 18.5238 2.68399 17.4758 3.44597L17.6599 3.69922Z" fill="black"/>
<path fill-rule="evenodd" clip-rule="evenodd" d="M3.23821 6.9492C1.98973 5.55096 0.913718 3.92065 0.961363 2.57492C1.68917 2.51707 3.0025 2.77948 4.43413 3.80542C4.00638 4.56002 3.46502 5.73436 3.23821 6.9492Z" fill="#D9D9D9"/>
<path fill-rule="evenodd" clip-rule="evenodd" d="M3.23821 6.9492C1.98973 5.55096 0.913718 3.92065 0.961363 2.57492C1.68917 2.51707 3.0025 2.77948 4.43413 3.80542C4.00638 4.56002 3.46502 5.73436 3.23821 6.9492Z" fill="black"/>
<path fill-rule="evenodd" clip-rule="evenodd" d="M3.23821 6.9492C1.98973 5.55096 0.913718 3.92065 0.961363 2.57492C1.68917 2.51707 3.0025 2.77948 4.43413 3.80542C4.00638 4.56002 3.46502 5.73436 3.23821 6.9492Z" stroke="black" stroke-width="0.626222"/>
<path fill-rule="evenodd" clip-rule="evenodd" d="M18.8396 7.01776C18.5238 5.89573 18.0631 4.67059 17.6597 3.69863C18.675 2.9604 19.8132 2.47951 20.9916 2.57442C21.0656 3.36377 20.6442 5.07147 18.8396 7.01776Z" fill="black" stroke="black" stroke-width="0.626222"/>
</svg>
