<svg width="18" height="18" viewBox="0 0 18 18" fill="none" xmlns="http://www.w3.org/2000/svg">
<g clip-path="url(#clip0_254_5505)">
<path fill-rule="evenodd" clip-rule="evenodd" d="M7.5 9C7.5 8.175 8.175 7.5 9 7.5C9.825 7.5 10.5 8.175 10.5 9C10.5 9.825 9.825 10.5 9 10.5C8.175 10.5 7.5 9.825 7.5 9ZM9 15.75C5.25 15.75 2.25 12.75 2.25 9H6C6 10.65 7.35 12 9 12C10.65 12 12 10.65 12 9H15.75C15.75 12.75 12.75 15.75 9 15.75ZM17.25 9C17.25 4.425 13.575 0.75 9 0.75C4.425 0.75 0.75 4.425 0.75 9C0.75 13.575 4.425 17.25 9 17.25C13.575 17.25 17.25 13.575 17.25 9Z" fill="white"/>
</g>
<defs>
<clipPath id="clip0_254_5505">
<rect width="18" height="18" fill="white"/>
</clipPath>
</defs>
</svg>
