<svg width="20" height="20" viewBox="0 0 20 20" fill="none" xmlns="http://www.w3.org/2000/svg">
<path d="M0.400241 13H7.60045C7.67334 12.9998 7.7448 12.9796 7.80712 12.9417C7.86944 12.9039 7.92027 12.8497 7.95413 12.785C7.988 12.7203 8.00361 12.6476 7.9993 12.5747C7.99498 12.5018 7.97091 12.4315 7.92965 12.3713L4.32955 7.16199C4.18035 6.946 3.82114 6.946 3.67153 7.16199L0.0714315 12.3713C0.0297603 12.4314 0.00532331 12.5017 0.000775592 12.5748C-0.00377212 12.6478 0.0117434 12.7207 0.0456364 12.7855C0.0795294 12.8503 0.130504 12.9045 0.193021 12.9424C0.255538 12.9802 0.327207 13.0001 0.400241 13Z" fill="white"/>
<path d="M15.555 2C15.7908 2 16.0171 2.09363 16.1839 2.26032C16.3508 2.42701 16.4447 2.65313 16.445 2.889V4.37H16.744C17.172 4.3696 17.5959 4.45369 17.9914 4.61742C18.3869 4.78116 18.7461 5.02134 19.0486 5.32419C19.3511 5.62704 19.5908 5.98661 19.7541 6.38229C19.9173 6.77796 20.0009 7.20197 20 7.63C20 7.86578 19.9063 8.0919 19.7396 8.25862C19.5729 8.42534 19.3467 8.519 19.111 8.519C18.8752 8.519 18.6491 8.42534 18.4824 8.25862C18.3156 8.0919 18.222 7.86578 18.222 7.63C18.222 6.807 17.562 6.148 16.744 6.148H14.068C13.417 6.148 12.888 6.678 12.888 7.324C12.888 7.809 12.997 8.006 13.074 8.101C13.164 8.211 13.329 8.323 13.689 8.445L17.989 9.87C18.469 10.033 19.007 10.28 19.409 10.771C19.825 11.277 19.999 11.919 19.999 12.676C19.9982 13.4596 19.6864 14.2108 19.1322 14.7646C18.5779 15.3185 17.8265 15.6297 17.043 15.63H16.444V17.111C16.444 17.3468 16.3503 17.5729 16.1836 17.7396C16.0169 17.9063 15.7907 18 15.555 18C15.3192 18 15.0931 17.9063 14.9264 17.7396C14.7596 17.5729 14.666 17.3468 14.666 17.111V15.63H14.366C13.938 15.6303 13.5142 15.5461 13.1189 15.3823C12.7235 15.2185 12.3644 14.9783 12.062 14.6755C11.7596 14.3726 11.52 14.0131 11.3568 13.6175C11.1936 13.2219 11.11 12.7979 11.111 12.37C11.111 12.1342 11.2046 11.9081 11.3714 11.7414C11.5381 11.5747 11.7642 11.481 12 11.481C12.2357 11.481 12.4619 11.5747 12.6286 11.7414C12.7953 11.9081 12.889 12.1342 12.889 12.37C12.889 13.193 13.548 13.852 14.367 13.852H17.043C17.693 13.852 18.222 13.322 18.222 12.676C18.222 12.191 18.114 11.994 18.036 11.899C17.946 11.789 17.781 11.677 17.421 11.555L13.122 10.13C12.642 9.967 12.103 9.72 11.701 9.229C11.285 8.723 11.111 8.081 11.111 7.324C11.1118 6.54028 11.4237 5.78892 11.9781 5.23502C12.5326 4.68113 13.2842 4.37 14.068 4.37H14.666V2.89C14.6662 2.65413 14.7601 2.42801 14.927 2.26132C15.0939 2.09463 15.3201 2.001 15.556 2.001" fill="white"/>
</svg>
