<svg width="20" height="20" viewBox="0 0 20 20" fill="none" xmlns="http://www.w3.org/2000/svg">
<g clip-path="url(#clip0_189_4845)">
<path d="M10 0.916016C11.0348 0.916016 12.0284 1.09144 12.9551 1.41016C12.8274 1.78586 12.7578 2.18853 12.7578 2.60742C12.7578 4.66111 14.4229 6.32617 16.4766 6.32617C17.0692 6.32616 17.6288 6.18605 18.126 5.93945C18.7378 7.16152 19.084 8.54032 19.084 10C19.0837 15.0167 15.0167 19.083 10 19.083C4.98332 19.083 0.91626 15.0166 0.916016 10C0.916016 4.98316 4.98317 0.916065 10 0.916016ZM9.56055 3.66211V4.94043C8.06185 5.1748 6.9737 6.16511 6.97363 7.54004C6.97363 10.703 11.5669 10.4964 11.5674 12.2012C11.5674 12.9305 10.9625 13.3574 10.165 13.3574C8.73087 13.3574 7.93333 11.9869 7.92285 11.9688L6.67285 13.0137C6.67285 13.0137 7.55258 14.6634 9.56055 14.9385V16.2041H10.7842V14.9248C12.3654 14.6904 13.3828 13.509 13.3828 12.1465C13.3828 8.83211 8.78906 9.25797 8.78906 7.51172C8.78929 6.93441 9.39395 6.52249 10.2188 6.52246C10.8656 6.52246 11.4434 6.82457 11.4434 7.27832V7.71875H13.0664V6.81055C13.0662 5.62773 11.829 5.078 10.7842 4.94043V3.66211H9.56055Z" fill="#8F8F94"/>
<circle cx="16.4766" cy="2.60742" r="2.60742" fill="#8F8F94"/>
</g>
<defs>
<clipPath id="clip0_189_4845">
<rect width="20" height="20" fill="white"/>
</clipPath>
</defs>
</svg>
