<svg width="18" height="18" viewBox="0 0 18 18" fill="none" xmlns="http://www.w3.org/2000/svg">
<path d="M8.80061 12.0746L13.0659 13.9503C13.3482 14.0744 13.6844 13.9583 13.8159 13.6908L16.834 7.54751C16.9654 7.28018 16.8427 6.96233 16.5601 6.83803L12.2947 4.96199C12.0123 4.83789 11.676 4.95397 11.5448 5.22146L8.5266 11.3647C8.39517 11.6324 8.51809 11.9503 8.80061 12.0746Z" fill="white"/>
<path d="M7.2909 11.5412L7.86396 11.7023C7.84278 11.5027 7.87866 11.3015 7.9681 11.1197L10.9865 4.9762C11.0781 4.78888 11.2233 4.62927 11.4054 4.5156L9.64998 4.02207C9.35157 3.93848 9.03692 4.09957 8.94806 4.3825L6.91015 10.8769C6.82158 11.1599 6.99185 11.4569 7.2909 11.5412Z" fill="white"/>
<path d="M10.8729 1.04467C10.7999 0.989714 10.7078 0.984794 10.6318 1.05615L10.0526 1.5994L9.47348 1.05615C9.39391 0.981284 9.2903 0.981284 9.21073 1.05615L8.63158 1.5994L8.05243 1.05615C7.97286 0.981284 7.86924 0.981284 7.78968 1.05615L7.21053 1.5994L6.63137 1.05615C6.55181 0.981284 6.44819 0.981284 6.36863 1.05615L5.78947 1.5994L5.21032 1.05615C5.13076 0.981284 5.02714 0.981284 4.94757 1.05615L4.36842 1.5994L3.78927 1.05615C3.7097 0.981284 3.60609 0.981284 3.52652 1.05615L2.94737 1.5994C2.94737 1.5994 2.37018 1.05799 2.36822 1.05615C2.21532 0.912735 2 1.07646 2 1.33347V3H11C11 3 11 1.34383 11 1.33351C11 1.20467 10.946 1.09964 10.8729 1.04467Z" fill="white"/>
<path d="M2 16.6665C2 16.9292 2.21237 17.0889 2.36822 16.9439L2.94737 16.4006L3.52652 16.9439C3.60609 17.0187 3.7097 17.0187 3.78927 16.9439L4.36842 16.4006L4.94757 16.9439C5.02714 17.0187 5.13076 17.0187 5.21032 16.9439L5.78947 16.4006L6.36863 16.9439C6.44819 17.0187 6.55181 17.0187 6.63137 16.9439L7.21053 16.4006L7.78968 16.9439C7.86924 17.0187 7.97286 17.0187 8.05243 16.9439L8.63158 16.4006L9.21073 16.9439C9.2903 17.0187 9.39391 17.0187 9.47348 16.9439L10.0526 16.4006C10.0526 16.4006 10.6289 16.9411 10.6318 16.9438C10.7802 17.0831 11 16.935 11 16.6665V15H2C2 15 2 16.6623 2 16.6665Z" fill="white"/>
<path fill-rule="evenodd" clip-rule="evenodd" d="M2.06939 4.79609C2.02498 4.70105 2 4.57233 2 4.43768V3.42383H11V3.88253L9.78479 3.54054C9.24689 3.38993 8.64735 3.67259 8.47131 4.23292L6.43323 10.728C6.2538 11.3015 6.60831 11.8685 7.15588 12.023L7.72913 12.1841L8.31506 12.3482C8.39757 12.4227 8.4928 12.4859 8.59924 12.5327L11 13.5886V14.5762H2V13.5624C2 13.4624 2.01388 13.3643 2.03978 13.2812L2.47368 11.8881V5.66143L2.06939 4.79609Z" fill="white"/>
</svg>
