<svg width="20" height="28" viewBox="0 0 20 28" fill="none" xmlns="http://www.w3.org/2000/svg">
<path d="M8.7998 7.80469C8.7998 7.55969 8.7998 7.43894 8.8138 7.33744C8.85835 7.01668 9.00636 6.71922 9.23534 6.49023C9.46433 6.26124 9.76179 6.11323 10.0826 6.06869C10.1823 6.05469 10.3048 6.05469 10.5498 6.05469C10.7948 6.05469 10.9156 6.05469 11.0171 6.06869C11.3378 6.11323 11.6353 6.26124 11.8643 6.49023C12.0933 6.71922 12.2413 7.01668 12.2858 7.33744C12.2998 7.43719 12.2998 7.55969 12.2998 7.80469C12.2998 8.04969 12.2998 8.17044 12.2858 8.27194C12.2413 8.5927 12.0933 8.89016 11.8643 9.11915C11.6353 9.34814 11.3378 9.49614 11.0171 9.54069C10.9173 9.55469 10.7948 9.55469 10.5498 9.55469C10.3048 9.55469 10.1841 9.55469 10.0826 9.54069C9.76179 9.49614 9.46433 9.34814 9.23534 9.11915C9.00636 8.89016 8.85835 8.5927 8.8138 8.27194C8.7998 8.17219 8.7998 8.04969 8.7998 7.80469ZM8.7998 14.8047C8.7998 14.5597 8.7998 14.4389 8.8138 14.3374C8.85835 14.0167 9.00636 13.7192 9.23534 13.4902C9.46433 13.2612 9.76179 13.1132 10.0826 13.0687C10.1823 13.0547 10.3048 13.0547 10.5498 13.0547C10.7948 13.0547 10.9156 13.0547 11.0171 13.0687C11.3378 13.1132 11.6353 13.2612 11.8643 13.4902C12.0933 13.7192 12.2413 14.0167 12.2858 14.3374C12.2998 14.4372 12.2998 14.5597 12.2998 14.8047C12.2998 15.0497 12.2998 15.1704 12.2858 15.2719C12.2413 15.5927 12.0933 15.8902 11.8643 16.1191C11.6353 16.3481 11.3378 16.4961 11.0171 16.5407C10.9173 16.5547 10.7948 16.5547 10.5498 16.5547C10.3048 16.5547 10.1841 16.5547 10.0826 16.5407C9.76179 16.4961 9.46433 16.3481 9.23534 16.1191C9.00636 15.8902 8.85835 15.5927 8.8138 15.2719C8.7998 15.1722 8.7998 15.0497 8.7998 14.8047ZM8.7998 21.8047C8.7998 21.5614 8.7998 21.4389 8.8138 21.3374C8.85861 21.0172 9.00652 20.7204 9.23513 20.4918C9.46374 20.2631 9.76062 20.1152 10.0808 20.0704C10.1841 20.0564 10.3048 20.0564 10.5481 20.0564C10.7913 20.0564 10.9156 20.0564 11.0153 20.0704C11.3355 20.1152 11.6324 20.2631 11.861 20.4918C12.0896 20.7204 12.2375 21.0172 12.2823 21.3374C12.2963 21.4389 12.2963 21.5614 12.2963 21.8047C12.2963 22.0479 12.2963 22.1704 12.2823 22.2719C12.2375 22.5921 12.0896 22.889 11.861 23.1176C11.6324 23.3462 11.3355 23.4941 11.0153 23.5389C10.9138 23.5529 10.7913 23.5529 10.5481 23.5529C10.3048 23.5529 10.1823 23.5529 10.0808 23.5389C9.76062 23.4941 9.46374 23.3462 9.23513 23.1176C9.00652 22.889 8.85861 22.5921 8.8138 22.2719C8.7998 22.1704 8.7998 22.0479 8.7998 21.8047Z" fill="#605DEC"/>
</svg>
