<svg width="20" height="20" viewBox="0 0 20 20" fill="none" xmlns="http://www.w3.org/2000/svg">
<path d="M3.90975 6.18914C3.94597 6.11322 4.05403 6.11322 4.09025 6.18914L5.12869 8.36534C5.14326 8.39589 5.17231 8.417 5.20587 8.42142L7.59646 8.73654C7.67985 8.74754 7.71324 8.8503 7.65224 8.90821L5.90343 10.5683C5.87888 10.5916 5.86779 10.6258 5.87395 10.659L6.31298 13.03C6.3283 13.1127 6.24088 13.1762 6.16695 13.1361L4.0477 11.9859C4.01795 11.9697 3.98205 11.9697 3.9523 11.9859L1.83305 13.1361C1.75912 13.1762 1.6717 13.1127 1.68702 13.03L2.12605 10.659C2.13221 10.6258 2.12112 10.5916 2.09657 10.5683L0.347764 8.90821C0.286761 8.8503 0.320152 8.74754 0.403543 8.73654L2.79413 8.42142C2.82769 8.417 2.85674 8.39589 2.87131 8.36534L3.90975 6.18914Z" fill="white"/>
<path d="M9.16669 10H10.8334" stroke="white" stroke-width="1.66667" stroke-linecap="round" stroke-linejoin="round"/>
<circle cx="16.1454" cy="10" r="3" fill="white"/>
</svg>
