<svg width="20" height="20" viewBox="0 0 20 20" fill="none" xmlns="http://www.w3.org/2000/svg">
<circle cx="4.14539" cy="10" r="3" fill="white"/>
<path d="M9.16669 10H10.8334" stroke="white" stroke-width="1.66667" stroke-linecap="round" stroke-linejoin="round"/>
<path d="M15.9097 6.18914C15.946 6.11322 16.054 6.11322 16.0903 6.18914L17.1287 8.36534C17.1433 8.39589 17.1723 8.417 17.2059 8.42142L19.5965 8.73654C19.6798 8.74754 19.7132 8.8503 19.6522 8.90821L17.9034 10.5683C17.8789 10.5916 17.8678 10.6258 17.874 10.659L18.313 13.03C18.3283 13.1127 18.2409 13.1762 18.167 13.1361L16.0477 11.9859C16.018 11.9697 15.982 11.9697 15.9523 11.9859L13.833 13.1361C13.7591 13.1762 13.6717 13.1127 13.687 13.03L14.126 10.659C14.1322 10.6258 14.1211 10.5916 14.0966 10.5683L12.3478 8.90821C12.2868 8.8503 12.3202 8.74754 12.4035 8.73654L14.7941 8.42142C14.8277 8.417 14.8567 8.39589 14.8713 8.36534L15.9097 6.18914Z" fill="white"/>
</svg>
