<svg width="89" height="88" viewBox="0 0 89 88" fill="none" xmlns="http://www.w3.org/2000/svg">
<g filter="url(#filter0_d_82_4945)">
<rect x="6" width="77" height="77" rx="38.5" fill="#2B2B2B" shape-rendering="crispEdges"/>
<rect x="6" width="77" height="77" rx="38.5" fill="url(#paint0_linear_82_4945)" shape-rendering="crispEdges"/>
<rect x="6.6875" y="0.6875" width="75.625" height="75.625" rx="37.8125" stroke="url(#paint1_linear_82_4945)" stroke-width="1.375" shape-rendering="crispEdges"/>
<path d="M33.5 42.625C33.8368 42.625 34.1618 42.7487 34.4135 42.9725C34.6652 43.1963 34.826 43.5047 34.8654 43.8391L34.875 44V48.125H40.375C40.7255 48.1254 41.0625 48.2596 41.3174 48.5002C41.5722 48.7407 41.7256 49.0696 41.7461 49.4194C41.7667 49.7693 41.6528 50.1138 41.4279 50.3825C41.2029 50.6513 40.8839 50.824 40.5359 50.8654L40.375 50.875H34.875C34.1812 50.8752 33.513 50.6132 33.0042 50.1414C32.4955 49.6697 32.1839 49.0231 32.1319 48.3312L32.125 48.125V44C32.125 43.6353 32.2699 43.2856 32.5277 43.0277C32.7856 42.7699 33.1353 42.625 33.5 42.625ZM55.5 42.625C55.8647 42.625 56.2144 42.7699 56.4723 43.0277C56.7301 43.2856 56.875 43.6353 56.875 44V48.125C56.875 48.8543 56.5853 49.5538 56.0695 50.0695C55.5538 50.5853 54.8543 50.875 54.125 50.875H48.625C48.2603 50.875 47.9106 50.7301 47.6527 50.4723C47.3949 50.2144 47.25 49.8647 47.25 49.5C47.25 49.1353 47.3949 48.7856 47.6527 48.5277C47.9106 48.2699 48.2603 48.125 48.625 48.125H54.125V44C54.125 43.6353 54.2699 43.2856 54.5277 43.0277C54.7856 42.7699 55.1353 42.625 55.5 42.625ZM55.5 37.125C55.8505 37.1254 56.1875 37.2596 56.4424 37.5002C56.6972 37.7407 56.8506 38.0696 56.8711 38.4194C56.8916 38.7693 56.7778 39.1138 56.5529 39.3825C56.3279 39.6513 56.0089 39.824 55.6609 39.8654L55.5 39.875H33.5C33.1495 39.8746 32.8125 39.7404 32.5576 39.4998C32.3028 39.2593 32.1494 38.9304 32.1289 38.5806C32.1083 38.2307 32.2222 37.8862 32.4471 37.6175C32.6721 37.3487 32.9911 37.176 33.3391 37.1346L33.5 37.125H55.5ZM40.375 26.125C40.7397 26.125 41.0894 26.2699 41.3473 26.5277C41.6051 26.7856 41.75 27.1353 41.75 27.5C41.75 27.8647 41.6051 28.2144 41.3473 28.4723C41.0894 28.7301 40.7397 28.875 40.375 28.875H34.875V33C34.875 33.3647 34.7301 33.7144 34.4723 33.9723C34.2144 34.2301 33.8647 34.375 33.5 34.375C33.1353 34.375 32.7856 34.2301 32.5277 33.9723C32.2699 33.7144 32.125 33.3647 32.125 33V28.875C32.125 28.1457 32.4147 27.4462 32.9305 26.9305C33.4462 26.4147 34.1457 26.125 34.875 26.125H40.375ZM54.125 26.125C54.8543 26.125 55.5538 26.4147 56.0695 26.9305C56.5853 27.4462 56.875 28.1457 56.875 28.875V33C56.875 33.3647 56.7301 33.7144 56.4723 33.9723C56.2144 34.2301 55.8647 34.375 55.5 34.375C55.1353 34.375 54.7856 34.2301 54.5277 33.9723C54.2699 33.7144 54.125 33.3647 54.125 33V28.875H48.625C48.2603 28.875 47.9106 28.7301 47.6527 28.4723C47.3949 28.2144 47.25 27.8647 47.25 27.5C47.25 27.1353 47.3949 26.7856 47.6527 26.5277C47.9106 26.2699 48.2603 26.125 48.625 26.125H54.125Z" fill="white"/>
</g>
<defs>
<filter id="filter0_d_82_4945" x="0.5" y="0" width="88" height="88" filterUnits="userSpaceOnUse" color-interpolation-filters="sRGB">
<feFlood flood-opacity="0" result="BackgroundImageFix"/>
<feColorMatrix in="SourceAlpha" type="matrix" values="0 0 0 0 0 0 0 0 0 0 0 0 0 0 0 0 0 0 127 0" result="hardAlpha"/>
<feOffset dy="5.5"/>
<feGaussianBlur stdDeviation="2.75"/>
<feComposite in2="hardAlpha" operator="out"/>
<feColorMatrix type="matrix" values="0 0 0 0 0 0 0 0 0 0 0 0 0 0 0 0 0 0 0.25 0"/>
<feBlend mode="normal" in2="BackgroundImageFix" result="effect1_dropShadow_82_4945"/>
<feBlend mode="normal" in="SourceGraphic" in2="effect1_dropShadow_82_4945" result="shape"/>
</filter>
<linearGradient id="paint0_linear_82_4945" x1="44.5" y1="0" x2="44.5" y2="77" gradientUnits="userSpaceOnUse">
<stop stop-color="#FFFBFB" stop-opacity="0.2"/>
<stop offset="0.836648" stop-color="#605DEC" stop-opacity="0.2"/>
</linearGradient>
<linearGradient id="paint1_linear_82_4945" x1="44.5" y1="0" x2="44.5" y2="77" gradientUnits="userSpaceOnUse">
<stop stop-color="#605DEC"/>
<stop offset="1" stop-color="#373586"/>
</linearGradient>
</defs>
</svg>
