<svg width="20" height="20" viewBox="0 0 20 20" fill="none" xmlns="http://www.w3.org/2000/svg">
<path d="M14.3033 1.16097C14.2221 1.0999 14.1198 1.09443 14.0353 1.17371L13.3918 1.77732L12.7483 1.17371C12.6599 1.09053 12.5448 1.09053 12.4564 1.17371L11.8129 1.77732L11.1694 1.17371C11.081 1.09053 10.9658 1.09053 10.8774 1.17371L10.2339 1.77732L9.59043 1.17371C9.50202 1.09053 9.38689 1.09053 9.29849 1.17371L8.65498 1.77732L8.01148 1.17371C7.92308 1.09053 7.80795 1.09053 7.71954 1.17371L7.07604 1.77732L6.43253 1.17371C6.34413 1.09053 6.229 1.09053 6.14059 1.17371L5.49709 1.77732C5.49709 1.77732 4.85577 1.17576 4.85359 1.17372C4.68371 1.01437 4.44446 1.19629 4.44446 1.48185V3.33355H14.4445C14.4445 3.33355 14.4445 1.49336 14.4445 1.4819C14.4445 1.33874 14.3844 1.22204 14.3033 1.16097Z" fill="white"/>
<path d="M4.44446 18.5187C4.44446 18.8105 4.68042 18.988 4.85359 18.8268L5.49709 18.2232L6.14059 18.8268C6.229 18.91 6.34413 18.91 6.43253 18.8268L7.07604 18.2232L7.71954 18.8268C7.80795 18.91 7.92308 18.91 8.01148 18.8268L8.65498 18.2232L9.29849 18.8268C9.38689 18.91 9.50202 18.91 9.59043 18.8268L10.2339 18.2232L10.8774 18.8268C10.9658 18.91 11.081 18.91 11.1694 18.8268L11.8129 18.2232L12.4564 18.8268C12.5448 18.91 12.6599 18.91 12.7483 18.8268L13.3918 18.2232C13.3918 18.2232 14.0321 18.8238 14.0353 18.8268C14.2002 18.9815 14.4445 18.817 14.4445 18.5187V16.667H4.44446C4.44446 16.667 4.44446 18.514 4.44446 18.5187Z" fill="white"/>
<path d="M4.44446 4.93021C4.44446 5.07983 4.47221 5.22284 4.52156 5.32845L4.97077 6.28994V13.2085L4.48866 14.7563C4.45988 14.8487 4.44446 14.9576 4.44446 15.0687V16.1952H14.4445V15.0687C14.4445 14.9576 14.429 14.8487 14.4003 14.7563L13.9181 13.2085V6.28994L14.3674 5.32845C14.4167 5.22284 14.4445 5.07983 14.4445 4.93021V3.80371H4.44446V4.93021Z" fill="white"/>
</svg>
