<svg width="391" height="64" viewBox="0 0 391 64" fill="none" xmlns="http://www.w3.org/2000/svg">
<g filter="url(#filter0_d_34_9646)">
<rect x="53.5" y="8" width="312" height="40" rx="3.5" fill="#2B2B2B"/>
<rect x="53.5" y="8" width="312" height="40" rx="3.5" stroke="#383838"/>
<path d="M96 35C100.418 35 104 31.4183 104 27C104 22.5817 100.418 19 96 19C91.5817 19 88 22.5817 88 27C88 31.4183 91.5817 35 96 35Z" stroke="white" stroke-width="2" stroke-linecap="round" stroke-linejoin="round"/>
<path d="M106 37.0004L101.65 32.6504" stroke="white" stroke-width="2" stroke-linecap="round" stroke-linejoin="round"/>
<path d="M124.133 34.2656C123.31 34.2656 122.591 34.1328 121.977 33.8672C121.367 33.5964 120.883 33.2266 120.523 32.7578C120.169 32.2839 119.964 31.7422 119.906 31.1328L119.898 31.0469H121.305L121.312 31.1328C121.349 31.5078 121.492 31.8333 121.742 32.1094C121.997 32.3802 122.336 32.5911 122.758 32.7422C123.185 32.8932 123.669 32.9688 124.211 32.9688C124.721 32.9688 125.174 32.888 125.57 32.7266C125.971 32.5599 126.286 32.3307 126.516 32.0391C126.745 31.7474 126.859 31.4115 126.859 31.0312V31.0234C126.859 30.5547 126.688 30.1615 126.344 29.8438C126 29.5208 125.44 29.2734 124.664 29.1016L123.414 28.8281C122.284 28.5781 121.461 28.1927 120.945 27.6719C120.435 27.1458 120.18 26.474 120.18 25.6562V25.6484C120.185 25.0234 120.354 24.4714 120.688 23.9922C121.026 23.513 121.492 23.138 122.086 22.8672C122.685 22.5964 123.372 22.4609 124.148 22.4609C124.898 22.4609 125.562 22.5964 126.141 22.8672C126.719 23.1328 127.177 23.4922 127.516 23.9453C127.859 24.3984 128.049 24.9062 128.086 25.4688L128.094 25.5781H126.688L126.672 25.4766C126.62 25.1432 126.484 24.849 126.266 24.5938C126.047 24.3333 125.755 24.1276 125.391 23.9766C125.026 23.8255 124.599 23.7526 124.109 23.7578C123.641 23.7578 123.219 23.8307 122.844 23.9766C122.469 24.1224 122.169 24.3333 121.945 24.6094C121.727 24.8802 121.617 25.2135 121.617 25.6094V25.6172C121.617 26.0651 121.784 26.4427 122.117 26.75C122.451 27.0573 123 27.2943 123.766 27.4609L125.016 27.7422C125.802 27.9141 126.435 28.138 126.914 28.4141C127.393 28.6901 127.742 29.0286 127.961 29.4297C128.185 29.8255 128.297 30.2943 128.297 30.8359V30.8438C128.297 31.5469 128.125 32.1536 127.781 32.6641C127.438 33.1745 126.953 33.5703 126.328 33.8516C125.703 34.1276 124.971 34.2656 124.133 34.2656ZM133.906 34.1484C133.104 34.1484 132.414 33.9714 131.836 33.6172C131.263 33.263 130.82 32.763 130.508 32.1172C130.201 31.4661 130.047 30.7005 130.047 29.8203V29.8125C130.047 28.9427 130.201 28.1797 130.508 27.5234C130.82 26.8672 131.26 26.3542 131.828 25.9844C132.396 25.6146 133.06 25.4297 133.82 25.4297C134.586 25.4297 135.242 25.6068 135.789 25.9609C136.341 26.3151 136.763 26.8099 137.055 27.4453C137.352 28.0755 137.5 28.8099 137.5 29.6484V30.1797H130.75V29.0938H136.805L136.133 30.0859V29.5469C136.133 28.8854 136.034 28.3411 135.836 27.9141C135.638 27.487 135.365 27.1693 135.016 26.9609C134.667 26.7474 134.266 26.6406 133.812 26.6406C133.359 26.6406 132.953 26.7526 132.594 26.9766C132.24 27.1953 131.958 27.5208 131.75 27.9531C131.542 28.3854 131.438 28.9167 131.438 29.5469V30.0859C131.438 30.6849 131.539 31.1979 131.742 31.625C131.945 32.0469 132.234 32.3724 132.609 32.6016C132.984 32.8255 133.427 32.9375 133.938 32.9375C134.318 32.9375 134.648 32.8854 134.93 32.7812C135.211 32.6771 135.443 32.5443 135.625 32.3828C135.807 32.2214 135.935 32.0573 136.008 31.8906L136.039 31.8203H137.398L137.383 31.8828C137.31 32.1693 137.18 32.4479 136.992 32.7188C136.81 32.9844 136.573 33.2266 136.281 33.4453C135.99 33.6589 135.643 33.8307 135.242 33.9609C134.846 34.0859 134.401 34.1484 133.906 34.1484ZM141.922 34.1484C141.391 34.1484 140.911 34.0469 140.484 33.8438C140.062 33.6406 139.727 33.3516 139.477 32.9766C139.232 32.6016 139.109 32.1589 139.109 31.6484V31.6328C139.109 31.1328 139.229 30.7057 139.469 30.3516C139.708 29.9922 140.057 29.7109 140.516 29.5078C140.974 29.3047 141.529 29.1849 142.18 29.1484L145.273 28.9609V30.0469L142.344 30.2344C141.703 30.2708 141.234 30.4036 140.938 30.6328C140.646 30.862 140.5 31.1849 140.5 31.6016V31.6172C140.5 32.0443 140.661 32.3776 140.984 32.6172C141.307 32.8516 141.714 32.9688 142.203 32.9688C142.667 32.9688 143.078 32.8776 143.438 32.6953C143.797 32.5078 144.078 32.2552 144.281 31.9375C144.49 31.6198 144.594 31.2604 144.594 30.8594V28.2344C144.594 27.7135 144.435 27.3177 144.117 27.0469C143.805 26.7708 143.333 26.6328 142.703 26.6328C142.198 26.6328 141.784 26.724 141.461 26.9062C141.138 27.0833 140.922 27.3359 140.812 27.6641L140.805 27.6875H139.445L139.453 27.6406C139.526 27.1979 139.708 26.8125 140 26.4844C140.297 26.151 140.68 25.8932 141.148 25.7109C141.617 25.5234 142.151 25.4297 142.75 25.4297C143.438 25.4297 144.018 25.5417 144.492 25.7656C144.971 25.9896 145.333 26.3125 145.578 26.7344C145.828 27.151 145.953 27.651 145.953 28.2344V34H144.594V32.7578H144.469C144.292 33.0547 144.076 33.3073 143.82 33.5156C143.57 33.724 143.286 33.8828 142.969 33.9922C142.651 34.0964 142.302 34.1484 141.922 34.1484ZM148.438 34V25.5781H149.797V26.8281H149.922C150.083 26.3854 150.357 26.0417 150.742 25.7969C151.128 25.5521 151.604 25.4297 152.172 25.4297C152.302 25.4297 152.43 25.4375 152.555 25.4531C152.685 25.4635 152.784 25.474 152.852 25.4844V26.8047C152.711 26.7786 152.573 26.7604 152.438 26.75C152.307 26.7344 152.167 26.7266 152.016 26.7266C151.583 26.7266 151.201 26.8125 150.867 26.9844C150.534 27.1562 150.271 27.3958 150.078 27.7031C149.891 28.0104 149.797 28.3698 149.797 28.7812V34H148.438ZM157.742 34.1484C156.956 34.1484 156.273 33.9688 155.695 33.6094C155.117 33.25 154.669 32.7422 154.352 32.0859C154.034 31.4297 153.875 30.6562 153.875 29.7656V29.75C153.875 28.875 154.031 28.1146 154.344 27.4688C154.661 26.8229 155.109 26.3229 155.688 25.9688C156.266 25.6094 156.948 25.4297 157.734 25.4297C158.417 25.4297 159.005 25.5495 159.5 25.7891C159.995 26.0286 160.391 26.3516 160.688 26.7578C160.984 27.1589 161.174 27.6094 161.258 28.1094L161.266 28.1562H159.914L159.906 28.1328C159.802 27.7161 159.565 27.362 159.195 27.0703C158.826 26.7786 158.339 26.6328 157.734 26.6328C157.229 26.6328 156.792 26.7604 156.422 27.0156C156.052 27.2708 155.766 27.6328 155.562 28.1016C155.365 28.5651 155.266 29.1146 155.266 29.75V29.7656C155.266 30.4115 155.367 30.974 155.57 31.4531C155.773 31.9271 156.06 32.2943 156.43 32.5547C156.799 32.8151 157.234 32.9453 157.734 32.9453C158.302 32.9453 158.766 32.8229 159.125 32.5781C159.484 32.3333 159.742 31.9766 159.898 31.5078L159.914 31.4609L161.258 31.4531L161.242 31.5391C161.128 32.0443 160.924 32.4948 160.633 32.8906C160.341 33.2812 159.956 33.5885 159.477 33.8125C158.997 34.0365 158.419 34.1484 157.742 34.1484ZM163.328 34V22.2344H164.688V26.8438H164.812C165.026 26.3958 165.333 26.0495 165.734 25.8047C166.135 25.5547 166.646 25.4297 167.266 25.4297C167.896 25.4297 168.43 25.5521 168.867 25.7969C169.305 26.0365 169.638 26.388 169.867 26.8516C170.096 27.3151 170.211 27.8802 170.211 28.5469V34H168.852V28.875C168.852 28.1146 168.69 27.5521 168.367 27.1875C168.049 26.8177 167.555 26.6328 166.883 26.6328C166.435 26.6328 166.047 26.7292 165.719 26.9219C165.391 27.1146 165.135 27.388 164.953 27.7422C164.776 28.0964 164.688 28.5208 164.688 29.0156V34H163.328Z" fill="white"/>
<path d="M346 28L341 23M346 28L351 33M346 28L351 23M346 28L341 33" stroke="white" stroke-width="2" stroke-linecap="round" stroke-linejoin="round"/>
<g filter="url(#filter1_d_34_9646)">
<rect x="25" width="56" height="56" rx="28" fill="#2B2B2B" shape-rendering="crispEdges"/>
<rect x="25" width="56" height="56" rx="28" fill="url(#paint0_linear_34_9646)" shape-rendering="crispEdges"/>
<rect x="25.5" y="0.5" width="55" height="55" rx="27.5" stroke="url(#paint1_linear_34_9646)" shape-rendering="crispEdges"/>
<path d="M45 31C45.2449 31 45.4813 31.09 45.6644 31.2527C45.8474 31.4155 45.9643 31.6397 45.993 31.883L46 32V35H50C50.2549 35.0003 50.5 35.0979 50.6854 35.2728C50.8707 35.4478 50.9822 35.687 50.9972 35.9414C51.0121 36.1958 50.9293 36.4464 50.7657 36.6418C50.6021 36.8373 50.3701 36.9629 50.117 36.993L50 37H46C45.4954 37.0002 45.0094 36.8096 44.6395 36.4665C44.2695 36.1234 44.0428 35.6532 44.005 35.15L44 35V32C44 31.7348 44.1054 31.4804 44.2929 31.2929C44.4804 31.1054 44.7348 31 45 31ZM61 31C61.2652 31 61.5196 31.1054 61.7071 31.2929C61.8946 31.4804 62 31.7348 62 32V35C62 35.5304 61.7893 36.0391 61.4142 36.4142C61.0391 36.7893 60.5304 37 60 37H56C55.7348 37 55.4804 36.8946 55.2929 36.7071C55.1054 36.5196 55 36.2652 55 36C55 35.7348 55.1054 35.4804 55.2929 35.2929C55.4804 35.1054 55.7348 35 56 35H60V32C60 31.7348 60.1054 31.4804 60.2929 31.2929C60.4804 31.1054 60.7348 31 61 31ZM61 27C61.2549 27.0003 61.5 27.0979 61.6854 27.2728C61.8707 27.4478 61.9822 27.687 61.9972 27.9414C62.0121 28.1958 61.9293 28.4464 61.7657 28.6418C61.6021 28.8373 61.3701 28.9629 61.117 28.993L61 29H45C44.7451 28.9997 44.5 28.9021 44.3146 28.7272C44.1293 28.5522 44.0178 28.313 44.0028 28.0586C43.9879 27.8042 44.0707 27.5536 44.2343 27.3582C44.3979 27.1627 44.6299 27.0371 44.883 27.007L45 27H61ZM50 19C50.2652 19 50.5196 19.1054 50.7071 19.2929C50.8946 19.4804 51 19.7348 51 20C51 20.2652 50.8946 20.5196 50.7071 20.7071C50.5196 20.8946 50.2652 21 50 21H46V24C46 24.2652 45.8946 24.5196 45.7071 24.7071C45.5196 24.8946 45.2652 25 45 25C44.7348 25 44.4804 24.8946 44.2929 24.7071C44.1054 24.5196 44 24.2652 44 24V21C44 20.4696 44.2107 19.9609 44.5858 19.5858C44.9609 19.2107 45.4696 19 46 19H50ZM60 19C60.5304 19 61.0391 19.2107 61.4142 19.5858C61.7893 19.9609 62 20.4696 62 21V24C62 24.2652 61.8946 24.5196 61.7071 24.7071C61.5196 24.8946 61.2652 25 61 25C60.7348 25 60.4804 24.8946 60.2929 24.7071C60.1054 24.5196 60 24.2652 60 24V21H56C55.7348 21 55.4804 20.8946 55.2929 20.7071C55.1054 20.5196 55 20.2652 55 20C55 19.7348 55.1054 19.4804 55.2929 19.2929C55.4804 19.1054 55.7348 19 56 19H60Z" fill="white"/>
</g>
</g>
<defs>
<filter id="filter0_d_34_9646" x="-4" y="0" width="399" height="64" filterUnits="userSpaceOnUse" color-interpolation-filters="sRGB">
<feFlood flood-opacity="0" result="BackgroundImageFix"/>
<feColorMatrix in="SourceAlpha" type="matrix" values="0 0 0 0 0 0 0 0 0 0 0 0 0 0 0 0 0 0 127 0" result="hardAlpha"/>
<feOffset dy="4"/>
<feGaussianBlur stdDeviation="2"/>
<feComposite in2="hardAlpha" operator="out"/>
<feColorMatrix type="matrix" values="0 0 0 0 0 0 0 0 0 0 0 0 0 0 0 0 0 0 0.25 0"/>
<feBlend mode="normal" in2="BackgroundImageFix" result="effect1_dropShadow_34_9646"/>
<feBlend mode="normal" in="SourceGraphic" in2="effect1_dropShadow_34_9646" result="shape"/>
</filter>
<filter id="filter1_d_34_9646" x="21" y="0" width="64" height="64" filterUnits="userSpaceOnUse" color-interpolation-filters="sRGB">
<feFlood flood-opacity="0" result="BackgroundImageFix"/>
<feColorMatrix in="SourceAlpha" type="matrix" values="0 0 0 0 0 0 0 0 0 0 0 0 0 0 0 0 0 0 127 0" result="hardAlpha"/>
<feOffset dy="4"/>
<feGaussianBlur stdDeviation="2"/>
<feComposite in2="hardAlpha" operator="out"/>
<feColorMatrix type="matrix" values="0 0 0 0 0 0 0 0 0 0 0 0 0 0 0 0 0 0 0.25 0"/>
<feBlend mode="normal" in2="BackgroundImageFix" result="effect1_dropShadow_34_9646"/>
<feBlend mode="normal" in="SourceGraphic" in2="effect1_dropShadow_34_9646" result="shape"/>
</filter>
<linearGradient id="paint0_linear_34_9646" x1="53" y1="0" x2="53" y2="56" gradientUnits="userSpaceOnUse">
<stop stop-color="#FFFBFB" stop-opacity="0.2"/>
<stop offset="0.836648" stop-color="#605DEC" stop-opacity="0.2"/>
</linearGradient>
<linearGradient id="paint1_linear_34_9646" x1="53" y1="0" x2="53" y2="56" gradientUnits="userSpaceOnUse">
<stop stop-color="#605DEC"/>
<stop offset="1" stop-color="#373586"/>
</linearGradient>
</defs>
</svg>
