<svg width="18" height="19" viewBox="0 0 18 19" fill="none" xmlns="http://www.w3.org/2000/svg">
<path d="M15.5 2.5C16.325 2.5 17 3.175 17 4V13C17 13.825 16.325 14.5 15.5 14.5H10.9248L8.15039 17.2754C8.00039 17.4254 7.775 17.5 7.625 17.5H7.25C6.8 17.5 6.5 17.2 6.5 16.75V14.5H3.5C2.675 14.5 2 13.825 2 13V4C2 3.175 2.675 2.5 3.5 2.5H15.5ZM9.5 10.0859C9.03379 10.0859 8.65052 10.4405 8.60449 10.8945L8.59961 10.9863L8.60449 11.0781C8.65071 11.532 9.03392 11.8867 9.5 11.8867C9.99709 11.8866 10.3993 11.4834 10.3994 10.9863C10.3994 10.5203 10.0457 10.137 9.5918 10.0908L9.5 10.0859ZM9.5 4.69238C9.31692 4.69242 9.13589 4.73269 8.96973 4.80957C8.80344 4.88657 8.65566 4.99894 8.53711 5.13867C8.41861 5.27839 8.33206 5.44257 8.2832 5.61914C8.24663 5.75152 8.2318 5.88876 8.23926 6.02539L8.25391 6.16211L8.73047 9.02246C8.79314 9.3985 9.1188 9.67469 9.5 9.6748C9.88116 9.67464 10.2069 9.39847 10.2695 9.02246L10.7461 6.16211C10.776 5.9814 10.7656 5.79568 10.7168 5.61914C10.6802 5.48681 10.6225 5.36128 10.5459 5.24805L10.4629 5.13867L10.3691 5.03906C10.2698 4.94481 10.1551 4.86737 10.0303 4.80957C9.8641 4.73265 9.68311 4.69243 9.5 4.69238Z" fill="#8F8F94"/>
</svg>
