<svg width="20" height="21" viewBox="0 0 20 21" fill="none" xmlns="http://www.w3.org/2000/svg">
<path d="M10.6251 2.16699C9.92929 2.16718 9.26027 2.43515 8.75674 2.91533L3.08007 8.32949C2.89893 8.50229 2.75422 8.70961 2.65449 8.93922C2.55476 9.16884 2.50201 9.4161 2.49937 9.66643C2.49673 9.91676 2.54425 10.1651 2.63911 10.3968C2.73398 10.6284 2.87428 10.8387 3.05174 11.0153L8.26507 16.2045C8.61516 16.5531 9.08867 16.7494 9.5827 16.7508C10.0767 16.7522 10.5513 16.5586 10.9034 16.212L16.6909 10.5162C17.2084 10.0078 17.4992 9.31199 17.4992 8.58616V4.45866C17.4992 3.85102 17.2579 3.26825 16.8283 2.8385C16.3987 2.40875 15.816 2.16721 15.2084 2.16699H10.6251ZM13.5417 6.95866C13.2655 6.95866 13.0005 6.84891 12.8052 6.65356C12.6098 6.45821 12.5001 6.19326 12.5001 5.91699C12.5001 5.64072 12.6098 5.37577 12.8052 5.18042C13.0005 4.98507 13.2655 4.87533 13.5417 4.87533C13.818 4.87533 14.083 4.98507 14.2783 5.18042C14.4737 5.37577 14.5834 5.64072 14.5834 5.91699C14.5834 6.19326 14.4737 6.45821 14.2783 6.65356C14.083 6.84891 13.818 6.95866 13.5417 6.95866ZM16.0467 12.3195L17.2759 11.1103C17.3131 11.0731 17.3498 11.0353 17.3859 10.997C17.5175 11.4026 17.5334 11.8369 17.4316 12.251C17.3299 12.6652 17.1147 13.0427 16.8101 13.3412L12.3651 17.6987C11.6228 18.4262 10.6242 18.8326 9.58484 18.8301C8.5455 18.8276 7.54884 18.4164 6.81007 17.6853L3.18007 14.0937C2.87769 13.7947 2.66446 13.4175 2.56424 13.0042C2.46401 12.5909 2.48075 12.1579 2.61257 11.7537L3.97007 13.1037C3.99674 13.1392 4.02646 13.1728 4.05924 13.2045L6.06841 15.1928L7.67757 16.7945C8.18321 17.2986 8.86744 17.5826 9.58142 17.5848C10.2954 17.587 10.9814 17.3071 11.4901 16.8062L15.9351 12.4487C15.9767 12.4081 16.014 12.365 16.0467 12.3195Z" fill="#8F8F94"/>
</svg>
