<svg width="354" height="80" viewBox="0 0 354 80" fill="none" xmlns="http://www.w3.org/2000/svg">
<path d="M8.62891 12.1992C7.82031 12.1992 7.12695 12.0195 6.54883 11.6602C5.9707 11.2969 5.52539 10.7832 5.21289 10.1191C4.9043 9.45508 4.75 8.67383 4.75 7.77539V7.76367C4.75 6.85742 4.90625 6.07422 5.21875 5.41406C5.53516 4.75391 5.98242 4.24414 6.56055 3.88477C7.14258 3.52539 7.83203 3.3457 8.62891 3.3457C9.42969 3.3457 10.1191 3.52539 10.6973 3.88477C11.2793 4.24414 11.7266 4.75586 12.0391 5.41992C12.3516 6.08008 12.5078 6.86133 12.5078 7.76367V7.77539C12.5078 8.67383 12.3516 9.45508 12.0391 10.1191C11.7305 10.7793 11.2852 11.291 10.7031 11.6543C10.125 12.0176 9.43359 12.1992 8.62891 12.1992ZM8.62891 11.2266C9.20703 11.2266 9.70508 11.084 10.123 10.7988C10.541 10.5137 10.8633 10.1133 11.0898 9.59766C11.3164 9.07812 11.4297 8.4707 11.4297 7.77539V7.76367C11.4297 7.06055 11.3164 6.45117 11.0898 5.93555C10.8633 5.41992 10.541 5.02148 10.123 4.74023C9.70508 4.45898 9.20703 4.31836 8.62891 4.31836C8.05469 4.31836 7.55859 4.45898 7.14062 4.74023C6.72266 5.02148 6.39844 5.41992 6.16797 5.93555C5.94141 6.45117 5.82812 7.06055 5.82812 7.76367V7.77539C5.82812 8.4707 5.93945 9.07812 6.16211 9.59766C6.38477 10.1133 6.70508 10.5137 7.12305 10.7988C7.54102 11.084 8.04297 11.2266 8.62891 11.2266ZM10.9258 12.9551L8.4707 9.58008H9.6543L12.1094 12.9551H10.9258ZM16.3223 12.1113C15.8457 12.1113 15.4453 12.0215 15.1211 11.8418C14.7969 11.6582 14.5527 11.3926 14.3887 11.0449C14.2285 10.6934 14.1484 10.2695 14.1484 9.77344V5.68359H15.168V9.52734C15.168 10.0938 15.2773 10.5156 15.4961 10.793C15.7188 11.0703 16.082 11.209 16.5859 11.209C16.8633 11.209 17.1074 11.168 17.3184 11.0859C17.5332 11.0039 17.7129 10.8867 17.8574 10.7344C18.002 10.5781 18.1094 10.3906 18.1797 10.1719C18.2539 9.94922 18.291 9.69922 18.291 9.42188V5.68359H19.3105V12H18.291V11.0566H18.1973C18.0957 11.2793 17.957 11.4707 17.7812 11.6309C17.6055 11.7871 17.3945 11.9062 17.1484 11.9883C16.9062 12.0703 16.6309 12.1113 16.3223 12.1113ZM22.9492 12.1113C22.5508 12.1113 22.1914 12.0352 21.8711 11.8828C21.5547 11.7305 21.3027 11.5137 21.1152 11.2324C20.9316 10.9512 20.8398 10.6191 20.8398 10.2363V10.2246C20.8398 9.84961 20.9297 9.5293 21.1094 9.26367C21.2891 8.99414 21.5508 8.7832 21.8945 8.63086C22.2383 8.47852 22.6543 8.38867 23.1426 8.36133L25.4629 8.2207V9.03516L23.2656 9.17578C22.7852 9.20312 22.4336 9.30273 22.2109 9.47461C21.9922 9.64648 21.8828 9.88867 21.8828 10.2012V10.2129C21.8828 10.5332 22.0039 10.7832 22.2461 10.9629C22.4883 11.1387 22.793 11.2266 23.1602 11.2266C23.5078 11.2266 23.8164 11.1582 24.0859 11.0215C24.3555 10.8809 24.5664 10.6914 24.7188 10.4531C24.875 10.2148 24.9531 9.94531 24.9531 9.64453V7.67578C24.9531 7.28516 24.834 6.98828 24.5957 6.78516C24.3613 6.57812 24.0078 6.47461 23.5352 6.47461C23.1562 6.47461 22.8457 6.54297 22.6035 6.67969C22.3613 6.8125 22.1992 7.00195 22.1172 7.24805L22.1113 7.26562H21.0918L21.0977 7.23047C21.1523 6.89844 21.2891 6.60938 21.5078 6.36328C21.7305 6.11328 22.0176 5.91992 22.3691 5.7832C22.7207 5.64258 23.1211 5.57227 23.5703 5.57227C24.0859 5.57227 24.5215 5.65625 24.877 5.82422C25.2363 5.99219 25.5078 6.23438 25.6914 6.55078C25.8789 6.86328 25.9727 7.23828 25.9727 7.67578V12H24.9531V11.0684H24.8594C24.7266 11.291 24.5645 11.4805 24.373 11.6367C24.1855 11.793 23.9727 11.9121 23.7344 11.9941C23.4961 12.0723 23.2344 12.1113 22.9492 12.1113ZM27.8359 12V5.68359H28.8555V6.63281H28.9492C29.1094 6.29688 29.3398 6.03711 29.6406 5.85352C29.9414 5.66602 30.3242 5.57227 30.7891 5.57227C31.5 5.57227 32.0449 5.77539 32.4238 6.18164C32.8066 6.58398 32.998 7.16016 32.998 7.91016V12H31.9785V8.15625C31.9785 7.58594 31.8574 7.16406 31.6152 6.89062C31.377 6.61328 31.0059 6.47461 30.502 6.47461C30.166 6.47461 29.875 6.54688 29.6289 6.69141C29.3828 6.83594 29.1914 7.04102 29.0547 7.30664C28.9219 7.57227 28.8555 7.89062 28.8555 8.26172V12H27.8359ZM37.0879 12.0469C36.4395 12.0469 35.9688 11.916 35.6758 11.6543C35.3867 11.3926 35.2422 10.9609 35.2422 10.3594V6.52734H34.2461V5.68359H35.2422V4.04883H36.2969V5.68359H37.6797V6.52734H36.2969V10.1016C36.2969 10.4727 36.3672 10.7402 36.5078 10.9043C36.6484 11.0645 36.8828 11.1445 37.2109 11.1445C37.3008 11.1445 37.377 11.1426 37.4395 11.1387C37.5059 11.1348 37.5859 11.1289 37.6797 11.1211V11.9883C37.582 12.0039 37.4844 12.0176 37.3867 12.0293C37.2891 12.041 37.1895 12.0469 37.0879 12.0469ZM39.2266 12V5.68359H40.2461V12H39.2266ZM39.7422 4.46484C39.5508 4.46484 39.3848 4.39648 39.2441 4.25977C39.1074 4.11914 39.0391 3.95313 39.0391 3.76172C39.0391 3.56641 39.1074 3.40039 39.2441 3.26367C39.3848 3.12695 39.5508 3.05859 39.7422 3.05859C39.9375 3.05859 40.1035 3.12695 40.2402 3.26367C40.377 3.40039 40.4453 3.56641 40.4453 3.76172C40.4453 3.95313 40.377 4.11914 40.2402 4.25977C40.1035 4.39648 39.9375 4.46484 39.7422 4.46484ZM44.4121 12.0469C43.7637 12.0469 43.293 11.916 43 11.6543C42.7109 11.3926 42.5664 10.9609 42.5664 10.3594V6.52734H41.5703V5.68359H42.5664V4.04883H43.6211V5.68359H45.0039V6.52734H43.6211V10.1016C43.6211 10.4727 43.6914 10.7402 43.832 10.9043C43.9727 11.0645 44.207 11.1445 44.5352 11.1445C44.625 11.1445 44.7012 11.1426 44.7637 11.1387C44.8301 11.1348 44.9102 11.1289 45.0039 11.1211V11.9883C44.9062 12.0039 44.8086 12.0176 44.7109 12.0293C44.6133 12.041 44.5137 12.0469 44.4121 12.0469ZM47.0664 14.2148C47 14.2148 46.9258 14.2109 46.8438 14.2031C46.7617 14.1992 46.6855 14.1914 46.6152 14.1797V13.3418C46.6777 13.3535 46.7461 13.3613 46.8203 13.3652C46.8945 13.3691 46.9668 13.3711 47.0371 13.3711C47.3262 13.3711 47.5625 13.2969 47.7461 13.1484C47.9336 13 48.084 12.7441 48.1973 12.3809L48.3145 12.0059L45.9766 5.68359H47.0664L49.0117 11.5195L48.6074 10.8809H49.0879L48.6836 11.5195L50.623 5.68359H51.6953L49.2285 12.3867C49.0566 12.8594 48.875 13.2285 48.6836 13.4941C48.4922 13.7598 48.2676 13.9453 48.0098 14.0508C47.7559 14.1602 47.4414 14.2148 47.0664 14.2148Z" fill="#D3D0FB"/>
<g filter="url(#filter0_d_214_4891)">
<path d="M4 24C4 19.5817 7.58172 16 12 16H60V72H12C7.58172 72 4 68.4183 4 64V24Z" fill="#747480" fill-opacity="0.08"/>
<path d="M26.04 45.0859C25.8574 45.0859 25.6859 45.0389 25.5254 44.9448C25.3649 44.8452 25.2349 44.7152 25.1353 44.5547C25.0356 44.3887 24.9858 44.2088 24.9858 44.0151C24.9858 43.8215 25.0356 43.6444 25.1353 43.4839C25.2349 43.3234 25.3649 43.1961 25.5254 43.1021C25.6859 43.0024 25.8574 42.9526 26.04 42.9526H37.9517C38.1398 42.9526 38.3141 43.0024 38.4746 43.1021C38.6351 43.1961 38.7624 43.3234 38.8564 43.4839C38.9561 43.6444 39.0059 43.8215 39.0059 44.0151C39.0059 44.2088 38.9561 44.3887 38.8564 44.5547C38.7624 44.7152 38.6351 44.8452 38.4746 44.9448C38.3141 45.0389 38.1398 45.0859 37.9517 45.0859H26.04Z" fill="#F4F3FE" fill-opacity="0.4"/>
<rect width="56" height="56" transform="translate(60 16)" fill="#212121"/>
<path d="M87.9917 50V40.1304H87.8423L84.8623 42.2305V40.2217L87.9917 38.022H90.125V50H87.9917Z" fill="white"/>
<path d="M116 16H164C168.418 16 172 19.5817 172 24V64C172 68.4183 168.418 72 164 72H116V16Z" fill="#747480" fill-opacity="0.08"/>
<path d="M136.978 44.0068C136.978 43.7135 137.083 43.4618 137.293 43.2515C137.503 43.0412 137.755 42.936 138.048 42.936H142.938V38.0552C142.938 37.7619 143.04 37.5101 143.245 37.2998C143.449 37.0895 143.701 36.9844 144 36.9844C144.293 36.9844 144.545 37.0895 144.755 37.2998C144.966 37.5101 145.071 37.7619 145.071 38.0552V42.936H149.96C150.248 42.936 150.497 43.0412 150.707 43.2515C150.917 43.4618 151.022 43.7135 151.022 44.0068C151.022 44.3057 150.917 44.5602 150.707 44.7705C150.497 44.9753 150.248 45.0776 149.96 45.0776H145.071V49.9668C145.071 50.2546 144.966 50.5036 144.755 50.7139C144.545 50.9242 144.293 51.0293 144 51.0293C143.701 51.0293 143.449 50.9242 143.245 50.7139C143.04 50.5036 142.938 50.2546 142.938 49.9668V45.0776H138.048C137.755 45.0776 137.503 44.9753 137.293 44.7705C137.083 44.5602 136.978 44.3057 136.978 44.0068Z" fill="#F4F3FE" fill-opacity="0.4"/>
</g>
<defs>
<filter id="filter0_d_214_4891" x="0" y="16" width="358" height="64" filterUnits="userSpaceOnUse" color-interpolation-filters="sRGB">
<feFlood flood-opacity="0" result="BackgroundImageFix"/>
<feColorMatrix in="SourceAlpha" type="matrix" values="0 0 0 0 0 0 0 0 0 0 0 0 0 0 0 0 0 0 127 0" result="hardAlpha"/>
<feOffset dy="4"/>
<feGaussianBlur stdDeviation="2"/>
<feComposite in2="hardAlpha" operator="out"/>
<feColorMatrix type="matrix" values="0 0 0 0 0 0 0 0 0 0 0 0 0 0 0 0 0 0 0.25 0"/>
<feBlend mode="normal" in2="BackgroundImageFix" result="effect1_dropShadow_214_4891"/>
<feBlend mode="normal" in="SourceGraphic" in2="effect1_dropShadow_214_4891" result="shape"/>
</filter>
</defs>
</svg>
