<svg width="31" height="13" viewBox="0 0 31 13" fill="none" xmlns="http://www.w3.org/2000/svg">
<g clip-path="url(#clip0_126_15650)">
<path d="M2.33348 8.97872H3.35898V9.79241H2.33348V12.4465H1.18029V9.79241H0.154785V8.97872H2.33348ZM5.88106 11.5199L5.87982 11.5188C5.7014 11.5234 5.47851 11.5268 5.21349 11.5268C5.09297 11.5268 5.00008 11.5029 4.93518 11.4539C4.87008 11.4049 4.82435 11.3183 4.80016 11.193C4.77488 11.0676 4.76286 10.8876 4.76286 10.6528C4.76286 10.4181 4.77488 10.2379 4.80016 10.1127C4.82544 9.98726 4.87008 9.89955 4.93518 9.85177C5.00027 9.8028 5.09424 9.77891 5.21349 9.77891C5.38345 9.77891 5.52926 9.77891 5.64975 9.78112C5.77023 9.78336 5.88357 9.78336 5.98956 9.78336C6.09555 9.78336 6.21136 9.78557 6.33544 9.78796L6.42098 8.99371C6.3005 8.96063 6.1848 8.9345 6.07274 8.91626C5.96068 8.898 5.83784 8.88315 5.70405 8.8741C5.56904 8.86388 5.40641 8.85926 5.21488 8.85926C4.81125 8.85926 4.48705 8.91744 4.24244 9.03245C3.99784 9.14747 3.82194 9.33666 3.71346 9.5977C3.60498 9.8586 3.55191 10.2108 3.55191 10.653C3.55191 11.0952 3.60607 11.4472 3.71346 11.7083C3.82194 11.9691 3.99784 12.1584 4.24244 12.2735C4.48705 12.3887 4.81125 12.4469 5.21488 12.4469C5.50162 12.4469 5.74151 12.4344 5.93428 12.4093C6.12705 12.3841 6.31623 12.3409 6.50076 12.2815L6.41522 11.4873C6.23806 11.5043 6.05978 11.5146 5.8814 11.5204L5.88106 11.5199ZM13.549 9.39128C13.6418 9.56223 13.6875 9.80487 13.6875 10.1103C13.6875 10.4157 13.6442 10.6528 13.5575 10.8214C13.4708 10.99 13.3285 11.1098 13.1297 11.1782C12.9308 11.2466 12.6633 11.2807 12.3271 11.2807C12.1499 11.2807 11.9729 11.2717 11.7956 11.2534C11.7872 11.2522 11.7775 11.25 11.7691 11.25V12.4465H10.6159V8.97993C10.7785 8.96284 10.9317 8.95141 11.0751 8.94461C11.2185 8.93777 11.3751 8.93435 11.5451 8.93215C11.7151 8.9299 11.9223 8.9299 12.1669 8.9299C12.5562 8.9299 12.8611 8.96405 13.0804 9.03245H13.0816C13.3009 9.10086 13.4576 9.22047 13.5491 9.39142L13.549 9.39128ZM12.5319 10.1127C12.5319 10.0021 12.5223 9.91661 12.5005 9.85622C12.4788 9.79583 12.4402 9.75488 12.3838 9.73319C12.3271 9.71154 12.2451 9.70011 12.139 9.70011H11.7667V10.5138H12.139C12.2451 10.5138 12.3269 10.5024 12.3838 10.4807C12.4404 10.459 12.479 10.4181 12.5005 10.3599V10.3611C12.5211 10.3029 12.5319 10.2232 12.5319 10.1127ZM15.2505 11.4732C15.2096 11.4401 15.1891 11.3957 15.1891 11.3422V8.92057H14.0359V11.6191C14.0359 12.1831 14.5468 12.3998 15.0758 12.4374C15.447 12.4636 15.6469 12.4259 16.0181 12.4179C16.3145 12.4111 16.3965 11.7477 16.47 11.5232H15.412C15.3446 11.5232 15.2903 11.5061 15.2505 11.473V11.4732ZM19.4549 9.2601L20.4058 12.4465H19.2321L19.0489 11.6977H18.039L17.8559 12.4465H16.6821L17.633 9.2601C17.657 9.1724 17.7053 9.10399 17.7765 9.05382C17.8475 9.00365 17.9296 8.97858 18.0211 8.97858H19.0682C19.161 8.97858 19.2418 9.00365 19.3129 9.05382H19.3116C19.3826 9.10399 19.4297 9.17343 19.455 9.2601H19.4549ZM18.8621 10.9332L18.68 10.1889C18.6657 10.1251 18.6535 10.0591 18.6427 9.99067C18.632 9.92227 18.6236 9.85622 18.6162 9.79241H18.4728C18.4656 9.85622 18.4572 9.92227 18.4462 9.99067C18.4353 10.0591 18.4235 10.1251 18.4089 10.1889L18.2269 10.9332H18.8621ZM21.7953 10.5571H21.7254C21.7108 10.4796 21.1517 8.97872 21.1517 8.97872H19.9672L21.1842 11.3742V12.4467H22.3374V11.364L23.5485 8.97872H22.3639C22.3639 8.97872 21.8096 10.4796 21.7951 10.5571H21.7953ZM25.0452 9.77414H26.3901L26.4432 9.005C26.266 8.98111 26.0696 8.96508 25.8539 8.95707C25.6382 8.94906 25.4176 8.9434 25.1923 8.94222C24.9669 8.94105 24.7488 8.94002 24.5356 8.94002C24.2836 8.94002 24.0776 9.01287 23.9162 9.15876C23.7548 9.30461 23.674 9.49486 23.674 9.72845V11.6578C23.674 11.8926 23.7547 12.0828 23.9162 12.2275C24.0776 12.3734 24.2838 12.4464 24.5356 12.4464C24.7477 12.4464 24.967 12.4464 25.1923 12.4442C25.4176 12.4419 25.6382 12.4362 25.8539 12.4271C26.0696 12.4167 26.266 12.4019 26.4432 12.3814L26.3901 11.6122H25.0452C24.9778 11.6122 24.9247 11.5952 24.886 11.5621C24.8475 11.529 24.8282 11.4846 24.8282 11.4311V11.0141H26.1996V10.2903H24.8282V9.95418C24.8282 9.90059 24.8475 9.85725 24.886 9.82314V9.82431C24.9246 9.79123 24.9776 9.77414 25.0452 9.77414ZM30.1173 12.4465H28.9111L28.6724 11.4164C28.6507 11.3184 28.6182 11.2546 28.5736 11.2249C28.529 11.1942 28.4567 11.1794 28.3579 11.1794C28.2277 11.1782 28.1096 11.1759 28.0023 11.1759V12.4455H26.8707V8.97872C27.0335 8.96166 27.1865 8.95023 27.3299 8.9434C27.4733 8.9366 27.6299 8.93318 27.8022 8.93094C27.9733 8.92873 28.1818 8.92873 28.4266 8.92873C28.7881 8.92873 29.0821 8.96063 29.3086 9.02444C29.5351 9.08708 29.7027 9.1954 29.8111 9.34809C29.9183 9.50081 29.9725 9.71272 29.9725 9.98398C29.9725 10.1207 29.9508 10.2495 29.9063 10.3681C29.8617 10.4866 29.7858 10.5847 29.6773 10.6622C29.5688 10.7397 29.4194 10.7876 29.2278 10.8081V10.8378C29.2952 10.8446 29.3687 10.864 29.4507 10.8959C29.5326 10.9278 29.6085 10.9814 29.6797 11.0566C29.7496 11.1319 29.7989 11.2401 29.8279 11.3803L29.8303 11.3815L30.1172 12.447L30.1173 12.4465ZM28.8135 10.0545C28.8135 9.95759 28.8015 9.88353 28.7785 9.83336C28.7545 9.78201 28.7135 9.7479 28.6532 9.72742C28.593 9.70798 28.5074 9.69772 28.3977 9.69772H27.9989V10.4099H28.3977C28.5073 10.4099 28.5928 10.4008 28.6532 10.3802C28.7135 10.3598 28.7556 10.3244 28.7785 10.2719V10.2731C28.8015 10.2207 28.8135 10.1511 28.8135 10.0543V10.0545ZM10.0157 10.2265V10.2253H8.5057V10.949H8.91544V11.4858H8.91061C8.85754 11.4961 8.79855 11.5029 8.73218 11.5087C8.66709 11.5133 8.59484 11.5167 8.51649 11.5167C8.39596 11.5167 8.30199 11.4928 8.23443 11.4438C8.16698 11.3949 8.11877 11.3082 8.09098 11.1829C8.06211 11.0575 8.04885 10.8775 8.04885 10.6427C8.04885 10.4648 8.05728 10.3191 8.07286 10.2027C8.08847 10.0876 8.11626 9.99648 8.1548 9.93146C8.19338 9.86647 8.24645 9.82089 8.31387 9.79582C8.38132 9.77076 8.46574 9.75829 8.56937 9.75829C8.73563 9.75829 8.88514 9.75829 9.01533 9.7605C9.14675 9.76275 9.27319 9.76275 9.39495 9.76275C9.51671 9.76275 9.64548 9.76495 9.7805 9.76734L9.86604 8.98331C9.73832 8.94682 9.61177 8.91833 9.48641 8.89786C9.36106 8.87738 9.22372 8.86253 9.07668 8.85231C8.92964 8.84206 8.75859 8.83746 8.56454 8.83746C8.14282 8.83746 7.80533 8.89561 7.55233 9.01063C7.2993 9.12578 7.11604 9.31604 7.00522 9.57812C6.89316 9.84137 6.83772 10.1958 6.83772 10.6414C6.83772 11.0871 6.8799 11.4266 6.9654 11.6921C7.05095 11.9565 7.18349 12.149 7.36424 12.2676C7.54499 12.3862 7.77522 12.4465 8.05477 12.4465C8.25005 12.4465 8.4211 12.4169 8.5705 12.3587C8.71986 12.3005 8.84286 12.2288 8.93915 12.1456C8.99098 12.1012 9.1705 12.377 9.1705 12.377H10.0201L10.0153 11.0026V10.2265H10.0157Z" fill="white"/>
<path d="M18.6654 0.488342H11.6066C11.2445 0.488342 10.9474 0.75294 10.9175 1.08996C10.9157 1.10851 10.9148 1.12721 10.9148 1.1462V7.96402H19.3573V1.1462C19.3573 0.782917 19.0475 0.488342 18.6654 0.488342ZM17.4503 3.73267L15.1178 6.95876C15.0092 7.10892 14.7616 7.03593 14.7616 6.85354V5.17899H14.339V5.18016H12.8502C12.7059 5.18016 12.6115 5.03666 12.6746 4.91335L14.2854 1.76429C14.318 1.70033 14.3862 1.65981 14.461 1.65981H16.2503C16.3945 1.65981 16.4889 1.80332 16.4258 1.92664L15.6507 3.44181H17.2892C17.4464 3.44181 17.5391 3.60935 17.4501 3.73252L17.4503 3.73267Z" fill="#0968F6"/>
<path d="M6.09942 4.42508C6.09942 4.42508 3.89481 5.57338 3.89309 5.57427C3.61073 5.72133 3.45854 6.0683 3.56671 6.36007C3.61994 6.50357 3.76963 6.59929 3.8842 6.6996C4.24069 7.0117 4.59736 7.32377 4.95387 7.63585C5.01912 7.693 5.08451 7.75011 5.14975 7.80726C5.26496 7.90818 5.4159 7.96412 5.5726 7.96412H7.16676L6.09942 4.42522V4.42508Z" fill="#3CC14E"/>
<path d="M10.2918 1.87186L9.05386 2.20932L6.97165 2.77695C6.61966 2.87296 6.41019 3.21147 6.48588 3.54685C6.48917 3.56139 6.49277 3.57608 6.49726 3.59063L6.66071 4.13275L7.81622 7.96399H10.2919C10.2919 7.96175 10.2918 7.95968 10.2918 7.95747V1.87186Z" fill="#FFBD14"/>
<path d="M26.3791 5.57427C26.3772 5.57338 24.1728 4.42508 24.1728 4.42508L23.1055 7.96398H24.6996C24.8563 7.96398 25.0072 7.90803 25.1224 7.80712C25.1877 7.74997 25.2531 7.69285 25.3183 7.6357C25.6748 7.32363 26.0315 7.01152 26.388 6.69945C26.5026 6.59914 26.6523 6.50343 26.7055 6.35993C26.8137 6.0683 26.6613 5.72119 26.3791 5.57412V5.57427Z" fill="#FF8806"/>
<path d="M25.7227 6.02295H25.7239C24.8105 5.74823 24.8551 7.21846 23.6116 7.25941C23.5692 7.26059 23.5391 7.29933 23.5513 7.33807C23.5597 7.36314 23.5791 7.38362 23.6044 7.3928C24.9914 7.93181 25.0807 6.35802 25.7253 6.13928C25.7843 6.11881 25.7831 6.04132 25.7228 6.02309L25.7227 6.02295Z" fill="#FFC382"/>
<path d="M25.1016 5.56137V5.56255C25.1643 5.5409 25.1631 5.46003 25.0992 5.44059C24.3331 5.21309 24.2103 6.1492 23.5293 6.55951L23.3967 6.99878C24.3694 7.02637 24.5158 5.76292 25.1016 5.56137Z" fill="#FFC382"/>
<path d="M6.15016 5.66121C5.92492 5.59341 5.68986 5.57468 5.45604 5.56877C5.31743 5.56521 5.06878 5.58746 4.89803 5.60616C4.7978 5.6167 4.72601 5.70216 4.73724 5.79684C4.75833 5.9653 4.79421 6.21684 4.83747 6.34681C4.95125 6.68384 5.15166 7.03362 5.4214 7.28399C5.66271 7.50864 6.03747 7.68999 6.38758 7.66535C6.41241 7.663 6.43455 7.66179 6.4544 7.66179C6.64121 7.65246 6.76608 7.47228 6.69571 7.30727C6.50762 6.86623 6.07087 6.49879 5.76402 6.28225C5.72076 6.25184 5.76028 6.18743 5.80975 6.20851C6.17968 6.36301 6.68353 6.65119 6.89754 7.06998L6.51619 5.80546C6.40132 5.74596 6.27237 5.7007 6.15001 5.66327V5.66092L6.15016 5.66121Z" fill="#A6F0A5"/>
<path d="M23.7749 3.59063C23.7793 3.57608 23.7828 3.56154 23.7863 3.54685C23.8621 3.21147 23.6525 2.87296 23.3006 2.77695L21.2183 2.20932L19.9804 1.87186V7.95747C19.9804 7.95968 19.9804 7.96175 19.9802 7.96399H22.456L23.6115 4.13275L23.7749 3.59063Z" fill="#F02D2D"/>
<path d="M20.7981 4.86043C20.8147 4.85406 20.8321 4.84843 20.85 4.84413C20.8957 4.83316 20.9433 4.83195 20.9823 4.85509C21.0479 4.89384 21.0708 4.98777 21.0418 5.05322C20.8468 5.49337 21.3716 6.16327 21.0658 6.85122C21.0182 6.95837 20.9476 7.05412 20.8648 7.13826C20.788 7.21543 20.8793 7.33649 20.9817 7.29273C21.4532 7.08884 21.9224 6.78104 22.1222 6.33049C22.2758 5.98487 22.2819 5.63791 22.227 5.3003C22.2051 5.1666 22.0307 5.1114 21.9309 5.20815C21.9149 5.22314 21.8973 5.23621 21.8822 5.25074C21.6922 5.43223 21.5897 5.21499 21.6641 5.08245C21.7214 4.9799 21.781 4.86578 21.8274 4.76102C22.0893 4.16995 22.0101 3.65707 21.87 3.29408C21.87 3.29408 21.8664 3.28711 21.8652 3.2837C21.8627 3.27791 21.8603 3.27212 21.8578 3.26633C21.8346 3.20994 21.8054 3.1442 21.7834 3.10161C21.7334 3.00366 21.592 2.98986 21.5166 3.07964C21.5141 3.08306 21.4948 3.11422 21.4922 3.12223C21.4862 3.13722 21.4801 3.15103 21.4727 3.16601C21.1815 3.7513 20.5529 3.86082 19.9802 4.14189V5.27136C19.9824 5.28325 19.9824 5.29511 19.9802 5.30803V6.08387C20.0275 5.81734 20.0386 5.75264 20.1385 5.53404C20.2649 5.25711 20.4963 4.97634 20.7981 4.86043Z" fill="#FFA0A0"/>
<path d="M9.90727 3.48966C9.90727 3.48966 9.46536 3.06701 9.46427 3.06597C9.43352 3.03659 9.37873 3.01997 9.33644 3.03199C9.28633 3.04609 9.26839 3.09566 9.24981 3.13721C9.22592 3.19048 9.20753 3.24583 9.1855 3.2997C9.14992 3.38652 9.11401 3.47333 9.07843 3.56029L9.03925 3.65601C8.97652 3.80961 8.82071 3.91052 8.64745 3.91007L8.01625 3.90829C7.97146 3.90874 7.9282 3.92996 7.90322 3.96528C7.87843 4.00164 7.87356 4.04629 7.89232 4.08564L8.1458 4.62802C8.21667 4.77971 8.18124 4.95733 8.05682 5.07384L7.60918 5.49291C7.57622 5.52364 7.56326 5.5668 7.57247 5.60942C7.58183 5.65201 7.61386 5.68627 7.65565 5.7014L8.2424 5.91569C8.40491 5.97505 8.51183 6.12375 8.5109 6.28922L8.5076 6.88374C8.5079 6.92615 8.53022 6.96699 8.56753 6.99056C8.60595 7.01403 8.65307 7.01834 8.69476 7.00068L9.27198 6.75818C9.43056 6.69156 9.61599 6.72478 9.7382 6.84172C9.83498 6.9342 9.93161 7.02678 10.0284 7.11925C10.0629 7.15219 10.0974 7.18513 10.1319 7.21821C10.1684 7.2531 10.2057 7.29331 10.2596 7.30117C10.2701 7.30267 10.2811 7.30267 10.2919 7.30117V6.07924C10.2424 6.10342 10.1909 6.12347 10.1375 6.13757C10.0012 6.17378 9.84374 6.1824 9.70356 6.16769C9.68045 6.16531 9.65738 6.16206 9.63442 6.1579C9.05266 6.05403 8.67105 5.52439 8.78109 4.97382C8.82633 4.7472 8.95479 4.53943 9.13977 4.39044C9.2203 4.3256 9.31082 4.27201 9.40745 4.23181C9.59288 4.15507 9.81345 4.1383 10.011 4.17348C10.1111 4.19129 10.2051 4.22202 10.2917 4.26297V3.59814C10.1543 3.62604 10.009 3.58701 9.90727 3.48966Z" fill="#FFE58A"/>
<path d="M9.77309 4.36214C9.65991 4.36705 9.55361 4.3939 9.45713 4.43606L9.45669 4.43531C9.45028 4.43841 9.44388 4.44155 9.43747 4.44479C9.4356 4.44568 9.43373 4.44642 9.43185 4.44731C9.152 4.59067 8.96717 4.87636 8.98122 5.19794L8.9817 5.19897C9.002 5.64493 9.40032 5.98965 9.87219 5.968C9.98534 5.96309 10.0917 5.93624 10.1881 5.89408L10.1886 5.89483C10.195 5.89169 10.2014 5.8886 10.2078 5.88532C10.2096 5.88443 10.2115 5.88368 10.2134 5.88279C10.2404 5.86869 10.2666 5.85356 10.2917 5.83711V4.49987C10.1447 4.40533 9.96492 4.35338 9.77309 4.36228V4.36214Z" fill="#FFE58A"/>
<path d="M17.4504 3.73262L15.118 6.95868C15.0093 7.10888 14.7618 7.03585 14.7618 6.85346V5.17891H14.3391V5.18012H12.8503C12.7061 5.18012 12.6116 5.03662 12.6747 4.91327L14.2855 1.76423C14.3181 1.70027 14.3864 1.65976 14.4611 1.65976H16.2504C16.3946 1.65976 16.489 1.80326 16.426 1.92658L15.6508 3.44175H17.2893C17.4465 3.44175 17.5392 3.6093 17.4502 3.73247L17.4504 3.73262Z" fill="white"/>
</g>
<defs>
<clipPath id="clip0_126_15650">
<rect width="30" height="12" fill="white" transform="translate(0.139893 0.464661)"/>
</clipPath>
</defs>
</svg>
