<svg width="21" height="21" viewBox="0 0 21 21" fill="none" xmlns="http://www.w3.org/2000/svg">
<path d="M19.1125 2.41699L10.5657 19.4717L10.2727 20.0576L10.1008 19.4258L8.44946 13.3467C8.40045 13.3513 8.34328 13.357 8.28247 13.3652C8.19382 13.3773 8.1046 13.3904 8.02271 13.4023C7.94751 13.4133 7.86824 13.4241 7.81567 13.4268C5.78226 13.5262 3.70928 12.7278 2.42505 11.1064L2.24048 10.873L2.5022 10.7314L4.93188 9.41699L5.0813 9.33691L5.21118 9.44531C7.5125 11.3652 11.0135 9.54434 10.6907 6.56934L10.6721 6.40137L10.8215 6.32129L18.7717 2.08398L19.4641 1.71484L19.1125 2.41699Z" fill="white" stroke="#F93232" stroke-width="0.5"/>
<path d="M4.78101 0.925781C7.42348 -0.213598 10.5508 0.502573 12.3855 2.71582L12.5808 2.95215L12.3093 3.0957L9.84839 4.40137L9.70093 4.47949L9.57202 4.37402C7.24996 2.46224 3.83418 4.243 4.0564 7.23047L4.06909 7.39551L3.92163 7.47168L1.43628 8.75L1.16089 8.8916L1.08081 8.59277C0.249687 5.48743 1.84499 2.19201 4.78003 0.925781H4.78101Z" fill="#F93232" stroke="white" stroke-width="0.5"/>
<path d="M7.18188 5.23045C4.86616 5.49909 5.50113 9.11152 7.78258 8.54903C9.83557 8.04288 9.26757 4.9882 7.18188 5.23045Z" fill="white" stroke="white" stroke-width="0.5"/>
</svg>
