<svg width="20" height="20" viewBox="0 0 20 20" fill="none" xmlns="http://www.w3.org/2000/svg">
<g clip-path="url(#clip0_76_3649)">
<path d="M9.66542 7.4597C13.4435 7.2272 15.9575 11.3078 13.9322 14.5709C12.1958 17.3684 8.2224 17.4873 6.28259 14.838C4.15651 11.9344 6.10352 7.67884 9.66535 7.45963L9.66542 7.4597ZM11.4472 14.6203C11.2687 14.612 11.0339 14.6371 10.8729 14.5518C10.7338 14.4782 10.6911 14.3331 10.6726 14.1849L10.6614 8.9931C10.6417 8.93702 10.5964 8.89941 10.5363 8.89814C10.2379 9.02601 9.94698 9.16859 9.6436 9.2858C9.30059 9.4183 8.9484 9.52314 8.60136 9.64397L8.63781 10.0002C8.81835 9.97129 9.21816 9.77035 9.36543 9.92843C9.4461 10.0149 9.43925 10.1803 9.45719 10.2909C9.40442 11.5403 9.525 12.845 9.45719 14.0879C9.4526 14.1722 9.44009 14.3032 9.40711 14.3787C9.28484 14.6585 8.87239 14.6127 8.62354 14.6204V14.9758H11.4471V14.6204L11.4472 14.6203Z" fill="white"/>
<path d="M17.4804 10.9144L17.4811 10.9511L18.7613 10.6883L19 11.7763L15.2026 12.5873L15.012 11.6067L16.2331 10.6255L14.8506 10.9087L14.6248 9.82413L18.3986 9.00586L18.6118 10.0281L17.4804 10.9144Z" fill="white"/>
<path d="M4.30076 5.8393C5.4986 5.73695 6.85906 7.13139 6.52375 8.34784C6.39469 8.81604 5.76766 9.45256 5.42613 9.81564C5.38954 9.85459 5.35069 9.89233 5.31107 9.92815L2.44154 7.33276C2.43886 7.31655 2.47665 7.27205 2.48929 7.25649C2.62576 7.08803 2.7943 6.90727 2.94101 6.74471C3.33205 6.31148 3.67358 5.89297 4.30076 5.83937V5.8393ZM4.20137 6.91914C4.10347 6.9335 3.97413 7.01823 3.94298 7.11475L5.36948 8.40783C5.77917 8.039 5.29037 7.54514 4.99553 7.29196C4.79669 7.12122 4.47629 6.87877 4.20137 6.91914Z" fill="white"/>
<path d="M15.2138 5.52697C16.3646 5.42469 17.1052 6.55407 16.6776 7.61224C16.2117 8.76522 14.5086 9.85295 13.487 8.69307C12.4408 7.50533 13.9062 5.64326 15.2138 5.52697ZM15.354 6.62075C15.2355 6.6415 15.1056 6.74364 15.0122 6.81671C14.7809 6.99775 14.231 7.47491 14.214 7.77643C14.2041 7.9532 14.3812 8.11953 14.5567 8.09231C14.8676 8.04412 15.6257 7.30503 15.6987 6.99612C15.7519 6.77115 15.5772 6.58158 15.354 6.62068V6.62075Z" fill="white"/>
<path d="M2.34011 9.75958L2.1638 10.9963L2.59532 11.0664L2.76484 9.91489L3.73899 10.0713L3.55583 11.2222C3.66595 11.2366 3.77911 11.2653 3.88916 11.2776C3.96128 11.2856 4.03863 11.3186 4.06038 11.2267L4.24721 10.0143L5.20568 10.1721L4.82671 12.61L1 12.0044L1.37324 9.62965L1.44416 9.61621L2.34004 9.75958H2.34011Z" fill="white"/>
<path d="M11.0781 3.25L11.1226 4.22898L10.3531 4.25734L10.3192 4.28072L10.4147 7.16954L9.25912 7.21411L9.15734 4.33837C9.13551 4.26367 8.98421 4.31349 8.92784 4.31477C8.73684 4.31918 8.54619 4.32309 8.3554 4.32849L8.32715 3.34745L11.0781 3.25Z" fill="white"/>
<path d="M8.52398 7.36947L7.46578 7.83376L5.90112 4.30359L5.91299 4.26443L6.93962 3.80469L6.96476 3.8162L8.52398 7.36947Z" fill="white"/>
<path d="M13.494 3.97313L12.2448 7.65455L11.1509 7.29162L12.3941 3.60352L13.494 3.97313Z" fill="white"/>
</g>
<defs>
<clipPath id="clip0_76_3649">
<rect width="18" height="13.5" fill="white" transform="translate(1 3.25)"/>
</clipPath>
</defs>
</svg>
