<svg width="20" height="20" viewBox="0 0 20 20" fill="none" xmlns="http://www.w3.org/2000/svg">
<path d="M18.3333 8.41629C18.4167 7.99962 18.0833 7.49962 17.6667 7.49962L12.9167 6.83296L10.75 2.49962C10.6667 2.33296 10.5833 2.24962 10.4167 2.16629C9.99999 1.91629 9.49999 2.08296 9.24999 2.49962L7.16666 6.83296L2.41666 7.49962C2.16666 7.49962 1.99999 7.58296 1.91666 7.74962C1.58332 8.08296 1.58332 8.58296 1.91666 8.91629L5.33332 12.2496L4.49999 16.9996C4.49999 17.1663 4.49999 17.333 4.58332 17.4996C4.83332 17.9163 5.33332 18.083 5.74999 17.833L9.99999 15.583L14.25 17.833C14.3333 17.9163 14.5 17.9163 14.6667 17.9163H14.8333C15.25 17.833 15.5833 17.4163 15.5 16.9163L14.6667 12.1663L18.0833 8.83296C18.25 8.74962 18.3333 8.58296 18.3333 8.41629Z" fill="#FFB82E"/>
</svg>
