<svg width="24" height="24" viewBox="0 0 24 24" fill="none" xmlns="http://www.w3.org/2000/svg">
<path d="M20.9861 10.2077C21.0761 9.73608 20.7163 9.17009 20.2667 9.17009L15.1406 8.41545L12.8024 3.51028C12.7125 3.32162 12.6226 3.22729 12.4427 3.13296C11.9931 2.84997 11.4535 3.03863 11.1837 3.51028L8.93542 8.41545L3.80938 9.17009C3.53958 9.17009 3.35972 9.26442 3.26979 9.45309C2.91007 9.83041 2.91007 10.3964 3.26979 10.7737L6.95695 14.5469L6.05764 19.9237C6.05764 20.1124 6.05764 20.3011 6.14757 20.4897C6.41736 20.9614 6.95695 21.15 7.4066 20.867L11.9931 18.3201L16.5795 20.867C16.6695 20.9614 16.8493 20.9614 17.0292 20.9614H17.209C17.6587 20.867 18.0184 20.3954 17.9285 19.8294L17.0292 14.4526L20.7163 10.6794C20.8962 10.585 20.9861 10.3964 20.9861 10.2077Z" fill="#605DEC" stroke="#605DEC" stroke-width="2"/>
</svg>
