<svg width="20" height="21" viewBox="0 0 20 21" fill="none" xmlns="http://www.w3.org/2000/svg">
<g clip-path="url(#clip0_74_8705)">
<path d="M10 20.7285C15.5228 20.7285 20 16.2514 20 10.7285C20 5.20567 15.5228 0.728516 10 0.728516C4.47715 0.728516 0 5.20567 0 10.7285C0 16.2514 4.47715 20.7285 10 20.7285Z" fill="#EFECE1"/>
<path d="M17.0521 6.74054C17.2571 6.72554 17.135 6.88862 17.0475 6.97554C16.1715 7.90362 15.0023 8.65285 14.234 9.71727C13.985 10.0611 13.7673 10.4017 13.7342 10.7838C13.6877 11.2154 13.973 11.6902 14.4175 12.2205C15.1569 13.1575 16.1986 13.783 17.04 14.608C17.058 14.6259 17.075 14.6434 17.0892 14.6592C17.1234 14.6975 17.139 14.7254 17.1267 14.7371C17.1165 14.748 17.0846 14.7461 17.0417 14.7377C15.5561 14.4255 13.2027 13.4338 11.864 14.179C11.0788 14.7159 10.7271 16.2646 10.4807 17.1709C10.3663 17.6507 10.3057 18.1673 10.1796 18.6202C10.1546 18.7327 10.0405 19.0063 9.95862 18.7932C9.71593 17.6638 9.50516 16.5098 9.0617 15.438C8.62574 14.33 8.14593 13.9277 7.06978 13.9338C6.86035 13.9325 6.62939 13.9423 6.42382 13.9586C5.23997 14.0496 4.16824 14.5673 3.05689 14.7796C3.0267 14.7859 2.99709 14.7915 2.96824 14.7936C2.90766 14.7984 2.8567 14.7882 2.84189 14.7617C2.82324 14.723 2.85112 14.6905 2.88785 14.6527C4.00439 13.848 5.18401 12.9467 6.00189 11.8296C6.3467 11.358 6.47055 10.8311 6.20709 10.2746C5.55728 8.97593 3.9542 7.8967 2.90689 6.86593C2.77747 6.71324 2.96709 6.72554 3.06959 6.7542C4.46093 7.0965 6.96074 8.0242 8.20939 7.31881C8.9467 6.84266 9.29189 5.45939 9.51497 4.68439C9.69343 4.01785 9.78843 3.33093 9.96285 2.66535C9.97151 2.6417 9.97939 2.62439 9.99285 2.60574C9.99459 2.60343 9.99439 2.60362 9.99824 2.59939C10.0071 2.58958 10.0163 2.58477 10.0255 2.58497C10.0459 2.58824 10.0557 2.60112 10.0677 2.62093C10.0834 2.64939 10.0954 2.68362 10.105 2.71631C10.3011 3.39381 10.4617 4.22901 10.6652 4.96285C10.8798 5.74324 11.2225 6.80247 11.8 7.24593C12.4334 7.70458 13.3548 7.57862 14.204 7.44458C14.4977 7.39247 14.7659 7.33631 15.0532 7.27285C15.7261 7.12862 16.3771 6.88362 17.0494 6.74112L17.0529 6.74074L17.0521 6.74054Z" fill="#0B0C0C"/>
<path d="M16.9946 6.7667C17.0657 6.74959 17.16 6.64189 17.2898 6.69362C17.2959 6.78228 17.178 6.79959 17.1421 6.84055L16.9944 6.7667H16.9946Z" fill="#534641"/>
<path d="M3.04561 6.76656L2.89792 6.8404C2.86581 6.80944 2.71984 6.75309 2.75023 6.69271C2.76581 6.64136 2.791 6.64425 2.82408 6.69271C2.96331 6.69098 2.98658 6.75194 3.04542 6.76656H3.04561Z" fill="#4D4541"/>
<path d="M10.0569 2.63284H9.98305C9.9969 2.57822 9.94767 2.48457 10.02 2.48438C10.0938 2.48418 10.0423 2.58861 10.0569 2.63284Z" fill="#615954"/>
</g>
<defs>
<clipPath id="clip0_74_8705">
<rect width="20" height="20" fill="white" transform="translate(0 0.728516)"/>
</clipPath>
</defs>
</svg>
