<svg width="20" height="21" viewBox="0 0 20 21" fill="none" xmlns="http://www.w3.org/2000/svg">
<g clip-path="url(#clip0_74_8732)">
<path d="M10 20.7285C15.5228 20.7285 20 16.2514 20 10.7285C20 5.20567 15.5228 0.728516 10 0.728516C4.47715 0.728516 0 5.20567 0 10.7285C0 16.2514 4.47715 20.7285 10 20.7285Z" fill="#CF569F"/>
<path d="M9.97159 17.2113C9.98755 17.2557 10.0512 17.2532 10.0633 17.2076C10.2564 16.4836 10.6229 15.4205 11.3572 14.3172C13.087 11.7184 15.1704 11.4313 16.075 9.27454C16.3833 8.53974 16.652 7.35608 16.1958 5.56685C16.1833 5.51801 16.245 5.48551 16.2785 5.52339C17.532 6.93416 18.0089 8.84858 17.8295 10.7203C17.5725 13.3995 16.0331 15.1165 15.2981 15.7888C14.9287 16.1269 12.9797 17.8451 10.0064 17.8632C9.71966 17.8649 5.54313 17.8192 3.31524 14.3351C1.65678 11.7417 1.75216 8.29704 3.55332 5.60435C3.58313 5.55974 3.65293 5.59051 3.64005 5.64281C3.19928 7.42685 3.46851 8.61358 3.78447 9.36012C4.64216 11.387 6.49639 11.7113 8.34851 14.1807C9.21101 15.3305 9.69639 16.4436 9.97139 17.2113H9.97159Z" fill="#0E0F0F"/>
<path d="M11.0656 5.37862C10.4288 4.73747 10.1521 4.03901 10.031 3.6292C10.0173 3.58324 9.9525 3.58324 9.93885 3.6292C9.81769 4.03901 9.54096 4.73747 8.90423 5.37862C8.22192 6.06574 7.46981 6.34112 7.07 6.45227C7.03039 6.46324 7.02212 6.51612 7.05654 6.53862C7.51692 6.83958 8.10731 7.30689 8.64519 8.00381C9.52289 9.14131 9.82596 10.3271 9.93731 11.0786C9.94539 11.1332 10.0242 11.1332 10.0323 11.0786C10.1438 10.3269 10.4467 9.14112 11.3244 8.00381C11.8623 7.30689 12.4527 6.83958 12.9131 6.53862C12.9475 6.51612 12.9394 6.46324 12.8996 6.45227C12.4998 6.34112 11.7477 6.06574 11.0654 5.37862H11.0656Z" fill="#0E0F0F"/>
</g>
<defs>
<clipPath id="clip0_74_8732">
<rect width="20" height="20" fill="white" transform="translate(0 0.728516)"/>
</clipPath>
</defs>
</svg>
