<svg width="20" height="21" viewBox="0 0 20 21" fill="none" xmlns="http://www.w3.org/2000/svg">
<g clip-path="url(#clip0_74_8740)">
<path d="M10 20.7285C15.5228 20.7285 20 16.2514 20 10.7285C20 5.20567 15.5228 0.728516 10 0.728516C4.47715 0.728516 0 5.20567 0 10.7285C0 16.2514 4.47715 20.7285 10 20.7285Z" fill="#E05B28"/>
<path d="M16.7137 10.7072C16.9677 10.938 17.0871 11.2446 17.1129 11.5726C17.1968 12.4134 17.2016 13.7782 17.1544 14.7463C17.1269 15.3399 16.8875 16.0386 16.27 16.2503C15.4896 16.5294 14.4766 16.1122 13.8023 16.6705C13.3214 17.0917 13.4525 17.7919 13.2983 18.3221C13.2204 18.5407 13.0204 18.5326 12.8289 18.5297C11.4069 18.4744 7.82214 18.7355 6.78118 18.4419C6.60945 18.2805 6.58329 17.3955 6.77041 17.2113C6.97464 16.9803 7.30464 16.9484 7.55714 16.7686C8.06329 16.4601 8.08291 15.8221 8.13079 15.2917C8.16368 14.883 8.30906 14.4605 8.68445 14.2534C9.2131 13.9365 9.91214 14.1503 10.4329 13.8682C11.2454 13.4265 11.04 12.3942 11.1102 11.6222C11.1948 10.5707 11.9052 10.3138 12.8473 10.279C13.6758 10.2259 14.5954 10.2292 15.3473 10.2634C15.8219 10.2871 16.3493 10.3599 16.7108 10.7049L16.7135 10.7074L16.7137 10.7072Z" fill="black"/>
<path d="M4.00809 10.3262C4.17847 10.2857 4.3477 10.2674 4.52116 10.2536C5.27963 10.1949 6.37501 10.1862 7.22155 10.2001C7.58886 10.2059 7.94963 10.2157 8.31347 10.2316C8.64674 10.2489 8.93155 10.2539 9.24347 10.3301C9.57713 10.412 9.90001 10.5872 10.116 10.8597C10.5317 11.3859 10.5589 12.3395 10.1269 12.8637C9.45463 13.6287 8.48059 13.1645 7.88693 13.6343C7.53943 13.9099 7.44636 14.4101 7.40905 14.8343C7.37328 15.2564 7.27847 15.7141 6.93789 15.9974C6.45078 16.3936 5.80482 16.3534 5.19636 16.3693C4.86347 16.3699 4.50924 16.3645 4.18674 16.3326C4.01116 16.3139 3.84597 16.2837 3.68463 16.2212C3.0729 15.9901 2.89155 15.3939 2.85924 14.7966C2.8029 13.9637 2.80597 12.8941 2.84059 12.0841C2.8604 11.2299 3.09328 10.5459 4.00463 10.327L4.0079 10.3262H4.00809Z" fill="black"/>
<path d="M10.9588 2.95192C11.5058 2.82461 12.1586 2.87172 12.6998 2.94038C12.8852 2.97057 13.0819 3.0298 13.2088 3.17115C13.3827 3.35884 13.4083 3.68288 13.4084 3.9448C13.3442 5.61249 13.6813 7.41115 13.4067 9.03403C13.2025 9.76749 12.5473 9.71326 11.9036 9.72172C11.5217 9.71403 11.0029 9.75153 10.7267 9.57288C10.4446 9.39942 10.3215 9.03153 10.279 8.71499C10.1613 7.54576 10.1758 6.21692 10.2042 4.94999C10.2161 4.62884 10.2269 4.32153 10.2583 4.00499C10.2967 3.53942 10.4592 3.08153 10.9558 2.95288L10.959 2.95192H10.9588Z" fill="black"/>
<path d="M7.19227 2.95273C7.74073 2.82465 8.39554 2.87619 8.93861 2.94369C9.1238 2.97349 9.32034 3.03196 9.44688 3.17349C9.54707 3.2833 9.59957 3.43773 9.62419 3.61349C9.63957 3.72157 9.644 3.83503 9.64438 3.94792C9.60573 5.49984 9.83746 7.19138 9.704 8.70946C9.589 9.8808 8.71361 9.71234 7.79688 9.71984C6.73534 9.72176 6.53784 9.27023 6.48784 8.31369C6.41707 7.05311 6.40419 5.6058 6.47861 4.29099C6.50996 3.75099 6.57515 3.11215 7.189 2.95349L7.19227 2.95253V2.95273Z" fill="black"/>
<path d="M15.1058 3.81079C15.5833 3.80618 16.3615 3.74252 16.7259 4.0656C16.9756 4.27925 17.0688 4.62964 17.0946 4.94906C17.1884 6.07406 16.9902 7.45425 17.0321 8.62541C17.0317 8.73175 17.0273 8.83695 17.0104 8.93964C16.9273 9.46791 16.5359 9.71695 16.0025 9.71272C15.7492 9.72291 15.4294 9.72348 15.1546 9.71752C14.7184 9.70195 14.3979 9.7081 14.1331 9.42637C13.9546 9.23848 13.8909 8.98098 13.8713 8.7306C13.8011 7.80522 13.7984 6.22156 13.8523 5.09791C13.8702 4.18829 14.1798 3.8456 15.1019 3.81118H15.1058V3.81079Z" fill="black"/>
<path d="M5.76364 9.47153C5.52171 9.68711 5.18575 9.71115 4.86056 9.72288C4.61018 9.73057 4.33441 9.73134 4.07806 9.72249C3.55979 9.71768 3.06748 9.58499 2.94325 9.05134C2.90921 8.92922 2.89056 8.80115 2.87748 8.67326C2.79287 7.5323 2.80133 6.12865 2.86633 5.00249C2.90383 4.39884 3.05287 3.92711 3.74691 3.88268C4.05056 3.84711 4.43191 3.83307 4.75633 3.83403C5.15825 3.83903 5.56248 3.83749 5.82518 4.13499C5.96614 4.28941 6.03575 4.4998 6.06344 4.70095C6.14633 5.63326 6.13037 6.74576 6.11287 7.86845C6.10594 8.11192 6.09691 8.34653 6.08056 8.58615C6.05691 8.92826 6.03171 9.2423 5.76614 9.46922L5.76364 9.47134V9.47153Z" fill="black"/>
</g>
<defs>
<clipPath id="clip0_74_8740">
<rect width="20" height="20" fill="white" transform="translate(0 0.728516)"/>
</clipPath>
</defs>
</svg>
