<svg width="20" height="21" viewBox="0 0 20 21" fill="none" xmlns="http://www.w3.org/2000/svg">
<g clip-path="url(#clip0_74_8752)">
<path d="M10 20.7285C15.5228 20.7285 20 16.2514 20 10.7285C20 5.20567 15.5228 0.728516 10 0.728516C4.47715 0.728516 0 5.20567 0 10.7285C0 16.2514 4.47715 20.7285 10 20.7285Z" fill="#EB4629"/>
<path d="M14.3252 13.6826C14.3041 13.6622 14.3283 13.6422 14.3458 13.6224C14.4718 13.5145 14.6827 13.3408 14.8144 13.2318C16.1085 12.0629 17.9973 10.1081 16.7037 8.36986C16.6262 8.27697 16.505 8.0889 16.4046 8.24813C15.7506 9.51044 14.2858 10.3408 12.8639 10.3552C12.6925 10.3458 12.541 10.2739 12.5529 10.0818C12.9037 7.18851 12.2304 3.37409 9.12233 2.34121C9.05771 2.31717 8.8929 2.26621 8.92906 2.36582C9.39925 3.13717 9.88579 4.0012 9.39367 4.81005C8.51887 6.10582 6.96656 6.58236 6.1306 8.03967C5.76271 8.65486 5.5781 9.37274 5.68964 10.0808C5.73194 10.3733 5.82117 10.6741 5.9456 10.9726C5.98194 11.0572 6.00752 11.1545 5.8679 11.0718C4.38694 10.1691 4.33714 8.61351 4.88021 7.08313C4.89214 7.02851 4.95925 6.90082 4.8981 6.88121C2.02098 8.62486 2.29944 11.9868 4.21252 14.4251C4.38079 14.6399 4.21502 14.6435 4.03867 14.5837C3.25925 14.3322 2.77752 13.9345 2.15214 13.4404C2.07444 13.3908 1.92752 13.2227 1.85964 13.3095C1.83483 13.3651 1.85367 13.4285 1.86733 13.4876C2.5329 15.8972 4.30925 17.9333 6.7056 18.7147C11.7839 20.377 17.0687 17.4572 18.151 12.2466C18.1648 12.1627 18.1591 12.112 18.0956 12.1283C16.926 12.7826 15.746 13.956 14.3262 13.6833L14.325 13.6824L14.3252 13.6826ZM12.2464 15.7476C12.5073 16.8297 13.5368 17.4818 12.2268 18.3031C10.7512 19.1443 7.29637 19.1651 6.47694 17.417C6.13867 16.6412 7.05848 16.3924 7.12271 15.6826C7.15906 15.3506 6.94214 15.096 6.72714 14.871C6.61425 14.7504 6.49714 14.6327 6.7429 14.6412C7.35117 14.6514 7.89714 14.9626 8.01464 15.5554C8.09771 15.776 8.35175 15.5333 8.43925 15.4214C9.04867 14.5804 8.32502 14.136 7.8881 13.4881C7.78348 13.322 7.71637 13.1445 7.75098 12.9547C7.92156 12.2383 9.35271 11.4243 10.1121 11.4022C10.1977 11.431 10.1085 11.5504 10.0687 11.6208C9.85444 11.9741 9.48137 12.3485 9.63117 12.7666C9.69521 12.9195 9.8454 13.0514 9.97579 13.1651C10.5691 13.6216 10.7571 14.0768 10.8391 14.8064C10.8554 14.9118 10.8556 15.0277 10.9698 14.8997C11.1283 14.7364 11.2798 14.5391 11.4752 14.4137C11.8531 14.1524 12.2933 13.9641 12.755 13.9183C12.8219 13.9122 12.9321 13.9079 12.855 14.0066C12.361 14.5212 12.0925 15.0179 12.2456 15.7431L12.2464 15.7472V15.7476Z" fill="#110D0C"/>
</g>
<defs>
<clipPath id="clip0_74_8752">
<rect width="20" height="20" fill="white" transform="translate(0 0.728516)"/>
</clipPath>
</defs>
</svg>
