<svg width="20" height="21" viewBox="0 0 20 21" fill="none" xmlns="http://www.w3.org/2000/svg">
<g clip-path="url(#clip0_74_8758)">
<path d="M20 10.7356C20.0279 16.1897 15.5307 20.6913 10.1269 20.7268C4.35027 20.8292 -0.374579 15.8712 0.0234369 10.0902C0.230713 6.38791 2.63977 2.99471 6.04732 1.55133C12.56 -1.28682 20.03 3.56861 19.9998 10.7315V10.7356H20Z" fill="#1EA34A"/>
<path d="M14.1515 3.69844C13.8892 3.31232 13.4796 2.67423 13.2327 2.38536C13.1549 2.29618 13.0603 2.22565 12.9416 2.18817C12.8036 2.14435 12.6403 2.1849 12.5077 2.21604C10.9046 2.65194 9.09204 3.66826 7.6215 4.58234C7.24213 4.82201 6.88373 5.06072 6.56031 5.28924C3.34408 7.44047 0.23648 12.3922 4.18837 15.3585C4.9296 15.8886 6.08558 16.1348 6.75721 16.7475C6.89603 16.8746 7.01409 17.017 7.10158 17.1828C7.18714 17.3412 7.23694 17.5248 7.26059 17.706C7.32673 18.234 7.23675 18.7127 7.75686 18.967C8.08277 19.1265 8.32985 19.1352 8.74094 19.2161C9.01897 19.2601 9.26951 19.3002 9.51371 19.3027C10.1753 19.2655 9.3793 17.5119 9.71694 17.1308C9.74117 17.1027 9.76521 17.0914 9.79712 17.0819C10.2659 16.9449 12.1172 16.7498 12.7857 16.5845C14.5331 16.1421 16.7512 15.3026 17.4579 13.5023C18.4344 10.5654 15.795 6.12682 14.1532 3.70075L14.1515 3.69825V3.69844ZM14.7339 13.102C13.0232 12.8073 11.0356 13.0943 9.54428 14.023C9.29393 14.179 9.00974 14.3745 8.78209 14.5571C8.71287 14.6138 8.66576 14.6601 8.62865 14.7149C8.34869 15.1321 8.41311 16.2026 8.38042 16.8851C8.37677 16.9487 8.37677 17.0235 8.35023 17.0714C8.30678 17.1523 8.21121 17.1753 8.15757 17.0445C8.03778 16.7629 7.8307 16.3339 7.7634 16.0074C7.69379 15.6541 7.71071 15.2938 7.69322 14.9393C7.68033 14.6841 7.64419 14.42 7.54362 14.1836C7.05524 13.0645 5.16707 12.2444 3.95245 12.1735C3.93456 12.1675 3.95302 12.1562 4.00821 12.1364C4.01897 12.1325 4.03128 12.1283 4.04435 12.1237C4.23952 12.0645 4.45429 11.9653 4.65599 11.9551C5.48279 11.9017 6.30497 12.0091 7.03197 12.4114C7.93299 12.8698 7.68418 12.8423 7.8555 12.1781C7.9451 11.777 8.14526 11.2809 8.01374 10.8817C7.823 10.4328 7.15215 9.96765 6.70433 9.71356C6.56685 9.63803 6.49879 9.63015 6.34862 9.5798C5.95002 9.45218 5.23302 9.22943 4.98921 9.14793C4.91153 9.12084 5.13746 9.08317 5.16264 9.07375C6.3265 8.80275 7.35423 9.04992 8.33331 9.69973C8.3858 9.72663 8.43637 9.73394 8.48194 9.7103C8.53655 9.68493 8.58731 9.6044 8.61942 9.54174C9.34123 8.17677 8.20256 7.24617 6.95314 6.77068C6.89815 6.74511 6.87257 6.71917 6.89026 6.69476C7.33346 6.4474 8.00336 6.66228 8.44579 6.86812C8.7344 6.99112 9.00398 7.25309 9.28278 7.36917C9.42795 7.43298 9.54659 7.40357 9.64618 7.2823C9.78924 7.10144 9.89307 6.89618 10.0148 6.69937C10.3636 6.06532 10.7499 5.45318 11.1821 4.87217C11.2073 4.83719 11.2344 4.80029 11.2634 4.77069C11.2955 4.73821 11.325 4.72188 11.3419 4.72918C11.3598 4.73591 11.3642 4.76724 11.3548 4.81144C11.3253 4.92714 11.2577 5.034 11.2131 5.14586C11.0837 5.46625 10.9523 5.78625 10.8304 6.10952C10.6897 6.49853 10.5626 6.89291 10.4407 7.28806C10.4278 7.33169 10.4013 7.42068 10.4422 7.44182C10.472 7.46354 10.5509 7.43817 10.5953 7.42414C11.5686 7.12028 12.6565 6.81507 13.6546 7.13911C13.7373 7.16852 13.8396 7.20331 13.9032 7.22752C13.9499 7.24559 13.9728 7.25847 13.968 7.2675C12.3427 7.48487 9.83385 7.8806 9.57908 9.767C9.56274 9.87578 9.56081 10.0069 9.71002 9.94574C11.2817 9.21098 12.9495 9.16985 14.521 9.93151C14.6023 9.9713 14.73 10.0426 14.6935 10.0837C14.6746 10.0953 14.6445 10.0947 14.6183 10.0933C14.5497 10.0883 14.4712 10.0726 14.4001 10.0637C13.2612 9.90038 12.2517 9.94593 11.146 10.3009C10.6903 10.4418 10.1607 10.6198 9.72406 10.8959C9.48102 11.0518 9.27643 11.2267 9.13338 11.4691C9.08108 11.5592 9.05358 11.634 9.01551 11.752C8.93072 12.0174 8.82227 12.4529 8.80189 12.7775C8.79266 12.9803 8.79324 13.2867 9.04532 13.1879C9.41641 13.0804 10.1332 12.772 10.5987 12.688C11.7214 12.4904 13.7688 12.381 14.7081 13.0257C14.7442 13.058 14.7567 13.0874 14.7348 13.1012L14.7335 13.102H14.7339Z" fill="black"/>
</g>
<defs>
<clipPath id="clip0_74_8758">
<rect width="20" height="20" fill="white" transform="translate(0 0.728516)"/>
</clipPath>
</defs>
</svg>
