<svg width="24" height="24" viewBox="0 0 24 24" fill="none" xmlns="http://www.w3.org/2000/svg">
<path d="M4 16H7M4 4H18M4 10H10" stroke="#FAFAFA" stroke-width="1.5" stroke-linecap="round"/>
<path d="M15.9166 10C15.9166 9.58579 15.5809 9.25 15.1666 9.25C14.7524 9.25 14.4166 9.58579 14.4166 10H15.1666H15.9166ZM14.4166 20C14.4166 20.4142 14.7524 20.75 15.1666 20.75C15.5809 20.75 15.9166 20.4142 15.9166 20H15.1666H14.4166ZM19.866 17.1946C20.1576 16.9004 20.1554 16.4256 19.8612 16.134C19.567 15.8424 19.0922 15.8445 18.8006 16.1387L19.3333 16.6667L19.866 17.1946ZM17.8772 18.1358L17.3445 17.6079L17.8772 18.1358ZM12.4561 18.1358L12.9888 17.6079L12.4561 18.1358ZM11.5327 16.1387C11.2411 15.8445 10.7662 15.8424 10.472 16.134C10.1778 16.4256 10.1757 16.9004 10.4673 17.1946L11 16.6667L11.5327 16.1387ZM15.4278 19.9834L15.5226 20.7274L15.5226 20.7274L15.4278 19.9834ZM14.9055 19.9834L14.8107 20.7274L14.8107 20.7274L14.9055 19.9834ZM15.1666 10H14.4166V20H15.1666H15.9166V10H15.1666ZM19.3333 16.6667L18.8006 16.1387L17.3445 17.6079L17.8772 18.1358L18.4099 18.6638L19.866 17.1946L19.3333 16.6667ZM12.4561 18.1358L12.9888 17.6079L11.5327 16.1387L11 16.6667L10.4673 17.1946L11.9234 18.6638L12.4561 18.1358ZM17.8772 18.1358L17.3445 17.6079C16.7515 18.2062 16.3506 18.6091 16.0128 18.8804C15.6868 19.1421 15.4932 19.219 15.3329 19.2394L15.4278 19.9834L15.5226 20.7274C16.0699 20.6576 16.5205 20.3965 16.952 20.0499C17.3718 19.7128 17.8417 19.2371 18.4099 18.6638L17.8772 18.1358ZM12.4561 18.1358L11.9234 18.6638C12.4916 19.2371 12.9615 19.7128 13.3813 20.0499C13.8128 20.3965 14.2634 20.6576 14.8107 20.7274L14.9055 19.9834L15.0004 19.2394C14.8401 19.219 14.6465 19.1421 14.3205 18.8804C13.9827 18.6091 13.5818 18.2062 12.9888 17.6079L12.4561 18.1358ZM15.4278 19.9834L15.3329 19.2394C15.2225 19.2535 15.1108 19.2535 15.0004 19.2394L14.9055 19.9834L14.8107 20.7274C15.0471 20.7575 15.2862 20.7575 15.5226 20.7274L15.4278 19.9834Z" fill="#FAFAFA"/>
</svg>
