<svg width="24" height="24" viewBox="0 0 24 24" fill="none" xmlns="http://www.w3.org/2000/svg">
<path d="M18.9166 13C18.9166 13.4142 18.5809 13.75 18.1666 13.75C17.7524 13.75 17.4166 13.4142 17.4166 13H18.1666H18.9166ZM17.4166 3C17.4166 2.58579 17.7524 2.25 18.1666 2.25C18.5809 2.25 18.9166 2.58579 18.9166 3H18.1666H17.4166ZM22.866 5.80536C23.1576 6.09955 23.1554 6.57442 22.8612 6.86601C22.567 7.15759 22.0922 7.15547 21.8006 6.86127L22.3333 6.33332L22.866 5.80536ZM20.8772 4.86418L20.3445 5.39214L20.8772 4.86418ZM15.4561 4.86418L15.9888 5.39214L15.4561 4.86418ZM14.5327 6.86127C14.2411 7.15547 13.7662 7.15759 13.472 6.86601C13.1778 6.57442 13.1757 6.09955 13.4673 5.80536L14 6.33332L14.5327 6.86127ZM18.4278 3.01657L18.5226 2.27259L18.5226 2.27259L18.4278 3.01657ZM17.9055 3.01658L17.8107 2.27259L17.8107 2.27259L17.9055 3.01658ZM18.1666 13H17.4166V3H18.1666H18.9166V13H18.1666ZM22.3333 6.33332L21.8006 6.86127L20.3445 5.39214L20.8772 4.86418L21.4099 4.33622L22.866 5.80536L22.3333 6.33332ZM15.4561 4.86418L15.9888 5.39214L14.5327 6.86127L14 6.33332L13.4673 5.80536L14.9234 4.33622L15.4561 4.86418ZM20.8772 4.86418L20.3445 5.39214C19.7515 4.79381 19.3506 4.39088 19.0128 4.11962C18.6868 3.85786 18.4932 3.78099 18.3329 3.76056L18.4278 3.01657L18.5226 2.27259C19.0699 2.34236 19.5205 2.60349 19.952 2.95008C20.3718 3.28717 20.8417 3.76295 21.4099 4.33622L20.8772 4.86418ZM15.4561 4.86418L14.9234 4.33622C15.4916 3.76295 15.9615 3.28717 16.3813 2.95008C16.8128 2.60349 17.2634 2.34236 17.8107 2.27259L17.9055 3.01658L18.0004 3.76056C17.8401 3.78099 17.6465 3.85786 17.3205 4.11962C16.9827 4.39088 16.5818 4.79381 15.9888 5.39214L15.4561 4.86418ZM18.4278 3.01657L18.3329 3.76056C18.2225 3.74648 18.1108 3.74648 18.0004 3.76056L17.9055 3.01658L17.8107 2.27259C18.0471 2.24247 18.2862 2.24247 18.5226 2.27259L18.4278 3.01657Z" fill="#FAFAFA"/>
<path d="M4.95229 19.2766L5.39313 18.6699L4.95229 19.2766ZM4.30703 18.6314L4.9138 18.1905L4.30703 18.6314ZM13.693 18.6314L13.0862 18.1905L13.693 18.6314ZM13.0477 19.2766L13.4885 19.8834L13.0477 19.2766ZM13.0477 9.89069L13.4885 9.28393L13.0477 9.89069ZM13.693 10.536L13.0862 10.9768L13.0862 10.9768L13.693 10.536ZM4.95229 9.89069L5.39313 10.4975L5.39313 10.4975L4.95229 9.89069ZM4.30703 10.536L4.9138 10.9768L4.9138 10.9768L4.30703 10.536ZM13.2104 16.3696L13.0931 15.6288L13.0931 15.6288L13.2104 16.3696ZM10.7859 18.7941L10.0451 18.6767L10.0451 18.6767L10.7859 18.7941ZM7.25 14.417C6.83579 14.417 6.5 14.7528 6.5 15.167C6.5 15.5812 6.83579 15.917 7.25 15.917V15.167V14.417ZM10.75 15.917C11.1642 15.917 11.5 15.5812 11.5 15.167C11.5 14.7528 11.1642 14.417 10.75 14.417V15.167V15.917ZM10 9.91699C10 10.3312 10.3358 10.667 10.75 10.667C11.1642 10.667 11.5 10.3312 11.5 9.91699H10.75H10ZM11.5 8.16699C11.5 7.75278 11.1642 7.41699 10.75 7.41699C10.3358 7.41699 10 7.75278 10 8.16699H10.75H11.5ZM6.5 9.91699C6.5 10.3312 6.83579 10.667 7.25 10.667C7.66421 10.667 8 10.3312 8 9.91699H7.25H6.5ZM8 8.16699C8 7.75278 7.66421 7.41699 7.25 7.41699C6.83579 7.41699 6.5 7.75278 6.5 8.16699H7.25H8ZM14.2331 16.3337L14.9827 16.3593L14.2331 16.3337ZM3.76687 12.8337L3.01731 12.808L3.76687 12.8337ZM14.2331 12.8337L14.9827 12.808L14.2331 12.8337ZM9 19.8337V19.0837C7.88962 19.0837 7.11708 19.0826 6.52419 19.0184C5.94533 18.9557 5.62732 18.84 5.39313 18.6699L4.95229 19.2766L4.51145 19.8834C5.04396 20.2703 5.65613 20.4331 6.36262 20.5097C7.05507 20.5847 7.92303 20.5837 9 20.5837V19.8337ZM3.75 14.5837H3C3 15.6606 2.99897 16.5286 3.07399 17.221C3.15054 17.9275 3.31338 18.5397 3.70027 19.0722L4.30703 18.6314L4.9138 18.1905C4.74365 17.9563 4.62798 17.6383 4.56527 17.0595C4.50103 16.4666 4.5 15.694 4.5 14.5837H3.75ZM4.95229 19.2766L5.39313 18.6699C5.20919 18.5362 5.04744 18.3745 4.9138 18.1905L4.30703 18.6314L3.70027 19.0722C3.92643 19.3835 4.20017 19.6572 4.51145 19.8834L4.95229 19.2766ZM13.693 18.6314L13.0862 18.1905C12.9526 18.3745 12.7908 18.5362 12.6069 18.6699L13.0477 19.2766L13.4885 19.8834C13.7998 19.6572 14.0736 19.3835 14.2997 19.0722L13.693 18.6314ZM13.0477 9.89069L12.6069 10.4975C12.7908 10.6311 12.9526 10.7929 13.0862 10.9768L13.693 10.536L14.2997 10.0951C14.0736 9.78383 13.7998 9.51009 13.4885 9.28393L13.0477 9.89069ZM4.95229 9.89069L4.51145 9.28393C4.20017 9.51009 3.92643 9.78383 3.70027 10.0951L4.30703 10.536L4.9138 10.9768C5.04744 10.7929 5.20919 10.6311 5.39313 10.4975L4.95229 9.89069ZM13.2104 16.3696L13.0931 15.6288C11.5241 15.8773 10.2936 17.1078 10.0451 18.6767L10.7859 18.7941L11.5267 18.9114C11.6735 17.9843 12.4006 17.2572 13.3277 17.1103L13.2104 16.3696ZM7.25 15.167V15.917H10.75V15.167V14.417H7.25V15.167ZM14.2331 16.3337L14.2331 15.5837C13.7299 15.5837 13.3902 15.5817 13.0931 15.6288L13.2104 16.3696L13.3277 17.1103C13.4793 17.0863 13.6749 17.0837 14.2331 17.0837L14.2331 16.3337ZM14.25 14.5837H13.5C13.5 15.2697 13.4999 15.831 13.4836 16.308L14.2331 16.3337L14.9827 16.3593C15.0001 15.8512 15 15.2614 15 14.5837H14.25ZM14.2331 16.3337L13.4836 16.308C13.4466 17.3862 13.325 17.8619 13.0862 18.1905L13.693 18.6314L14.2997 19.0722C14.8277 18.3455 14.9451 17.456 14.9827 16.3593L14.2331 16.3337ZM10.75 19.8168L11.5 19.8168C11.5 19.2586 11.5027 19.063 11.5267 18.9114L10.7859 18.7941L10.0451 18.6767C9.99809 18.9738 10 19.3136 10 19.8168L10.75 19.8168ZM9 19.8337V20.5837C9.67772 20.5837 10.2676 20.5838 10.7757 20.5663L10.75 19.8168L10.7243 19.0672C10.2474 19.0836 9.68602 19.0837 9 19.0837V19.8337ZM10.75 19.8168L10.7757 20.5663C11.8724 20.5288 12.7618 20.4114 13.4885 19.8834L13.0477 19.2766L12.6069 18.6699C12.2782 18.9086 11.8025 19.0303 10.7243 19.0672L10.75 19.8168ZM3.75 14.5837H4.5C4.5 13.8976 4.50009 13.3363 4.51644 12.8593L3.76687 12.8337L3.01731 12.808C2.99991 13.3161 3 13.9059 3 14.5837H3.75ZM3.76687 12.8337L4.51644 12.8593C4.55338 11.7812 4.67503 11.3054 4.9138 10.9768L4.30703 10.536L3.70027 10.0951C3.17226 10.8219 3.05489 11.7113 3.01731 12.808L3.76687 12.8337ZM3.76687 12.8337V13.5837H14.2331V12.8337V12.0837H3.76687V12.8337ZM14.25 14.5837H15C15 13.9059 15.0001 13.3161 14.9827 12.808L14.2331 12.8337L13.4836 12.8593C13.4999 13.3363 13.5 13.8976 13.5 14.5837H14.25ZM14.2331 12.8337L14.9827 12.808C14.9451 11.7113 14.8277 10.8219 14.2997 10.0951L13.693 10.536L13.0862 10.9768C13.325 11.3054 13.4466 11.7812 13.4836 12.8593L14.2331 12.8337ZM10.75 9.91699H11.5V9.35053H10.75H10V9.91699H10.75ZM10.75 9.35053H11.5V8.16699H10.75H10V9.35053H10.75ZM9 9.33366V10.0837C9.68602 10.0837 10.2474 10.0838 10.7243 10.1001L10.75 9.35053L10.7757 8.60097C10.2676 8.58356 9.67772 8.58366 9 8.58366V9.33366ZM10.75 9.35053L10.7243 10.1001C11.8025 10.137 12.2782 10.2587 12.6069 10.4975L13.0477 9.89069L13.4885 9.28393C12.7618 8.75592 11.8724 8.63855 10.7757 8.60097L10.75 9.35053ZM7.25 9.91699H8V9.35053H7.25H6.5V9.91699H7.25ZM7.25 9.35053H8V8.16699H7.25H6.5V9.35053H7.25ZM9 9.33366V8.58366C8.32228 8.58366 7.73243 8.58356 7.22432 8.60097L7.25 9.35053L7.27568 10.1001C7.75264 10.0838 8.31398 10.0837 9 10.0837V9.33366ZM7.25 9.35053L7.22432 8.60097C6.12762 8.63855 5.2382 8.75592 4.51145 9.28393L4.95229 9.89069L5.39313 10.4975C5.72176 10.2587 6.1975 10.137 7.27568 10.1001L7.25 9.35053Z" fill="#FAFAFA"/>
</svg>
