<svg width="24" height="24" viewBox="0 0 24 24" fill="none" xmlns="http://www.w3.org/2000/svg">
<path d="M18.9166 11C18.9166 10.5858 18.5809 10.25 18.1666 10.25C17.7524 10.25 17.4166 10.5858 17.4166 11H18.1666H18.9166ZM17.4166 21C17.4166 21.4142 17.7524 21.75 18.1666 21.75C18.5809 21.75 18.9166 21.4142 18.9166 21H18.1666H17.4166ZM22.866 18.1946C23.1576 17.9004 23.1554 17.4256 22.8612 17.134C22.567 16.8424 22.0922 16.8445 21.8006 17.1387L22.3333 17.6667L22.866 18.1946ZM20.8772 19.1358L20.3445 18.6079L20.8772 19.1358ZM15.4561 19.1358L15.9888 18.6079L15.4561 19.1358ZM14.5327 17.1387C14.2411 16.8445 13.7662 16.8424 13.472 17.134C13.1778 17.4256 13.1757 17.9004 13.4673 18.1946L14 17.6667L14.5327 17.1387ZM18.4278 20.9834L18.5226 21.7274L18.5226 21.7274L18.4278 20.9834ZM17.9055 20.9834L17.8107 21.7274L17.8107 21.7274L17.9055 20.9834ZM18.1666 11H17.4166V21H18.1666H18.9166V11H18.1666ZM22.3333 17.6667L21.8006 17.1387L20.3445 18.6079L20.8772 19.1358L21.4099 19.6638L22.866 18.1946L22.3333 17.6667ZM15.4561 19.1358L15.9888 18.6079L14.5327 17.1387L14 17.6667L13.4673 18.1946L14.9234 19.6638L15.4561 19.1358ZM20.8772 19.1358L20.3445 18.6079C19.7515 19.2062 19.3506 19.6091 19.0128 19.8804C18.6868 20.1421 18.4932 20.219 18.3329 20.2394L18.4278 20.9834L18.5226 21.7274C19.0699 21.6576 19.5205 21.3965 19.952 21.0499C20.3718 20.7128 20.8417 20.2371 21.4099 19.6638L20.8772 19.1358ZM15.4561 19.1358L14.9234 19.6638C15.4916 20.2371 15.9615 20.7128 16.3813 21.0499C16.8128 21.3965 17.2634 21.6576 17.8107 21.7274L17.9055 20.9834L18.0004 20.2394C17.8401 20.219 17.6465 20.1421 17.3205 19.8804C16.9827 19.6091 16.5818 19.2062 15.9888 18.6079L15.4561 19.1358ZM18.4278 20.9834L18.3329 20.2394C18.2225 20.2535 18.1108 20.2535 18.0004 20.2394L17.9055 20.9834L17.8107 21.7274C18.0471 21.7575 18.2862 21.7575 18.5226 21.7274L18.4278 20.9834Z" fill="#FAFAFA"/>
<path d="M4.95229 15.2766L5.39313 14.6699L4.95229 15.2766ZM4.30703 14.6314L4.9138 14.1905L4.30703 14.6314ZM13.693 14.6314L13.0862 14.1905L13.693 14.6314ZM13.0477 15.2766L13.4885 15.8834L13.0477 15.2766ZM13.0477 5.89069L13.4885 5.28393L13.0477 5.89069ZM13.693 6.53595L13.0862 6.97679L13.0862 6.97679L13.693 6.53595ZM4.95229 5.89069L5.39313 6.49746L5.39313 6.49746L4.95229 5.89069ZM4.30703 6.53595L4.9138 6.97679L4.9138 6.97679L4.30703 6.53595ZM13.2104 12.3696L13.0931 11.6288L13.0931 11.6288L13.2104 12.3696ZM10.7859 14.7941L10.0451 14.6767L10.0451 14.6767L10.7859 14.7941ZM7.25 10.417C6.83579 10.417 6.5 10.7528 6.5 11.167C6.5 11.5812 6.83579 11.917 7.25 11.917V11.167V10.417ZM10.75 11.917C11.1642 11.917 11.5 11.5812 11.5 11.167C11.5 10.7528 11.1642 10.417 10.75 10.417V11.167V11.917ZM10 5.91699C10 6.33121 10.3358 6.66699 10.75 6.66699C11.1642 6.66699 11.5 6.33121 11.5 5.91699H10.75H10ZM11.5 4.16699C11.5 3.75278 11.1642 3.41699 10.75 3.41699C10.3358 3.41699 10 3.75278 10 4.16699H10.75H11.5ZM6.5 5.91699C6.5 6.33121 6.83579 6.66699 7.25 6.66699C7.66421 6.66699 8 6.33121 8 5.91699H7.25H6.5ZM8 4.16699C8 3.75278 7.66421 3.41699 7.25 3.41699C6.83579 3.41699 6.5 3.75278 6.5 4.16699H7.25H8ZM14.2331 12.3337L14.9827 12.3593L14.2331 12.3337ZM3.76687 8.83366L3.01731 8.80798L3.76687 8.83366ZM14.2331 8.83366L14.9827 8.80798L14.2331 8.83366ZM9 15.8337V15.0837C7.88962 15.0837 7.11708 15.0826 6.52419 15.0184C5.94533 14.9557 5.62732 14.84 5.39313 14.6699L4.95229 15.2766L4.51145 15.8834C5.04396 16.2703 5.65613 16.4331 6.36262 16.5097C7.05507 16.5847 7.92303 16.5837 9 16.5837V15.8337ZM3.75 10.5837H3C3 11.6606 2.99897 12.5286 3.07399 13.221C3.15054 13.9275 3.31338 14.5397 3.70027 15.0722L4.30703 14.6314L4.9138 14.1905C4.74365 13.9563 4.62798 13.6383 4.56527 13.0595C4.50103 12.4666 4.5 11.694 4.5 10.5837H3.75ZM4.95229 15.2766L5.39313 14.6699C5.20919 14.5362 5.04744 14.3745 4.9138 14.1905L4.30703 14.6314L3.70027 15.0722C3.92643 15.3835 4.20017 15.6572 4.51145 15.8834L4.95229 15.2766ZM13.693 14.6314L13.0862 14.1905C12.9526 14.3745 12.7908 14.5362 12.6069 14.6699L13.0477 15.2766L13.4885 15.8834C13.7998 15.6572 14.0736 15.3835 14.2997 15.0722L13.693 14.6314ZM13.0477 5.89069L12.6069 6.49746C12.7908 6.6311 12.9526 6.79285 13.0862 6.97679L13.693 6.53595L14.2997 6.09511C14.0736 5.78383 13.7998 5.51009 13.4885 5.28393L13.0477 5.89069ZM4.95229 5.89069L4.51145 5.28393C4.20017 5.51009 3.92643 5.78383 3.70027 6.09511L4.30703 6.53595L4.9138 6.97679C5.04744 6.79285 5.20919 6.63109 5.39313 6.49746L4.95229 5.89069ZM13.2104 12.3696L13.0931 11.6288C11.5241 11.8773 10.2936 13.1078 10.0451 14.6767L10.7859 14.7941L11.5267 14.9114C11.6735 13.9843 12.4006 13.2572 13.3277 13.1103L13.2104 12.3696ZM7.25 11.167V11.917H10.75V11.167V10.417H7.25V11.167ZM14.2331 12.3337L14.2331 11.5837C13.7299 11.5837 13.3902 11.5817 13.0931 11.6288L13.2104 12.3696L13.3277 13.1103C13.4793 13.0863 13.6749 13.0837 14.2331 13.0837L14.2331 12.3337ZM14.25 10.5837H13.5C13.5 11.2697 13.4999 11.831 13.4836 12.308L14.2331 12.3337L14.9827 12.3593C15.0001 11.8512 15 11.2614 15 10.5837H14.25ZM14.2331 12.3337L13.4836 12.308C13.4466 13.3862 13.325 13.8619 13.0862 14.1905L13.693 14.6314L14.2997 15.0722C14.8277 14.3455 14.9451 13.456 14.9827 12.3593L14.2331 12.3337ZM10.75 15.8168L11.5 15.8168C11.5 15.2586 11.5027 15.063 11.5267 14.9114L10.7859 14.7941L10.0451 14.6767C9.99809 14.9738 10 15.3136 10 15.8168L10.75 15.8168ZM9 15.8337V16.5837C9.67772 16.5837 10.2676 16.5838 10.7757 16.5663L10.75 15.8168L10.7243 15.0672C10.2474 15.0836 9.68602 15.0837 9 15.0837V15.8337ZM10.75 15.8168L10.7757 16.5663C11.8724 16.5288 12.7618 16.4114 13.4885 15.8834L13.0477 15.2766L12.6069 14.6699C12.2782 14.9086 11.8025 15.0303 10.7243 15.0672L10.75 15.8168ZM3.75 10.5837H4.5C4.5 9.89763 4.50009 9.3363 4.51644 8.85934L3.76687 8.83366L3.01731 8.80798C2.99991 9.31609 3 9.90594 3 10.5837H3.75ZM3.76687 8.83366L4.51644 8.85934C4.55338 7.78116 4.67503 7.30542 4.9138 6.97679L4.30703 6.53595L3.70027 6.09511C3.17226 6.82185 3.05489 7.71128 3.01731 8.80798L3.76687 8.83366ZM3.76687 8.83366V9.58366H14.2331V8.83366V8.08366H3.76687V8.83366ZM14.25 10.5837H15C15 9.90594 15.0001 9.31609 14.9827 8.80798L14.2331 8.83366L13.4836 8.85934C13.4999 9.3363 13.5 9.89764 13.5 10.5837H14.25ZM14.2331 8.83366L14.9827 8.80798C14.9451 7.71128 14.8277 6.82185 14.2997 6.09511L13.693 6.53595L13.0862 6.97679C13.325 7.30542 13.4466 7.78116 13.4836 8.85934L14.2331 8.83366ZM10.75 5.91699H11.5V5.35053H10.75H10V5.91699H10.75ZM10.75 5.35053H11.5V4.16699H10.75H10V5.35053H10.75ZM9 5.33366V6.08366C9.68602 6.08366 10.2474 6.08375 10.7243 6.10009L10.75 5.35053L10.7757 4.60097C10.2676 4.58356 9.67772 4.58366 9 4.58366V5.33366ZM10.75 5.35053L10.7243 6.10009C11.8025 6.13703 12.2782 6.25869 12.6069 6.49746L13.0477 5.89069L13.4885 5.28393C12.7618 4.75592 11.8724 4.63855 10.7757 4.60097L10.75 5.35053ZM7.25 5.91699H8V5.35053H7.25H6.5V5.91699H7.25ZM7.25 5.35053H8V4.16699H7.25H6.5V5.35053H7.25ZM9 5.33366V4.58366C8.32228 4.58366 7.73243 4.58356 7.22432 4.60097L7.25 5.35053L7.27568 6.10009C7.75264 6.08375 8.31398 6.08366 9 6.08366V5.33366ZM7.25 5.35053L7.22432 4.60097C6.12762 4.63855 5.2382 4.75592 4.51145 5.28393L4.95229 5.89069L5.39313 6.49746C5.72176 6.25869 6.1975 6.13703 7.27568 6.10009L7.25 5.35053Z" fill="#FAFAFA"/>
</svg>
