<svg width="24" height="24" viewBox="0 0 24 24" fill="none" xmlns="http://www.w3.org/2000/svg">
<path d="M16.9166 11C16.9166 10.5858 16.5809 10.25 16.1666 10.25C15.7524 10.25 15.4166 10.5858 15.4166 11H16.1666H16.9166ZM15.4166 21C15.4166 21.4142 15.7524 21.75 16.1666 21.75C16.5809 21.75 16.9166 21.4142 16.9166 21H16.1666H15.4166ZM20.866 18.1946C21.1576 17.9004 21.1554 17.4256 20.8612 17.134C20.567 16.8424 20.0922 16.8445 19.8006 17.1387L20.3333 17.6667L20.866 18.1946ZM18.8772 19.1358L18.3445 18.6079L18.8772 19.1358ZM13.4561 19.1358L13.9888 18.6079L13.4561 19.1358ZM12.5327 17.1387C12.2411 16.8445 11.7662 16.8424 11.472 17.134C11.1778 17.4256 11.1757 17.9004 11.4673 18.1946L12 17.6667L12.5327 17.1387ZM16.4278 20.9834L16.5226 21.7274L16.5226 21.7274L16.4278 20.9834ZM15.9055 20.9834L15.8107 21.7274L15.8107 21.7274L15.9055 20.9834ZM16.1666 11H15.4166V21H16.1666H16.9166V11H16.1666ZM20.3333 17.6667L19.8006 17.1387L18.3445 18.6079L18.8772 19.1358L19.4099 19.6638L20.866 18.1946L20.3333 17.6667ZM13.4561 19.1358L13.9888 18.6079L12.5327 17.1387L12 17.6667L11.4673 18.1946L12.9234 19.6638L13.4561 19.1358ZM18.8772 19.1358L18.3445 18.6079C17.7515 19.2062 17.3506 19.6091 17.0128 19.8804C16.6868 20.1421 16.4932 20.219 16.3329 20.2394L16.4278 20.9834L16.5226 21.7274C17.0699 21.6576 17.5205 21.3965 17.952 21.0499C18.3718 20.7128 18.8417 20.2371 19.4099 19.6638L18.8772 19.1358ZM13.4561 19.1358L12.9234 19.6638C13.4916 20.2371 13.9615 20.7128 14.3813 21.0499C14.8128 21.3965 15.2634 21.6576 15.8107 21.7274L15.9055 20.9834L16.0004 20.2394C15.8401 20.219 15.6465 20.1421 15.3205 19.8804C14.9827 19.6091 14.5818 19.2062 13.9888 18.6079L13.4561 19.1358ZM16.4278 20.9834L16.3329 20.2394C16.2225 20.2535 16.1108 20.2535 16.0004 20.2394L15.9055 20.9834L15.8107 21.7274C16.0471 21.7575 16.2862 21.7575 16.5226 21.7274L16.4278 20.9834Z" fill="#FAFAFA"/>
<path d="M5.01562 14.5547C5.01562 14.4349 5.03385 14.3281 5.07031 14.2344C5.10677 14.1354 5.14583 14.0391 5.1875 13.9453C5.25 13.6953 5.3099 13.4583 5.36719 13.2344C5.42969 13.0052 5.48958 12.7786 5.54688 12.5547C5.33854 12.5547 5.14062 12.5547 4.95312 12.5547C4.77083 12.5495 4.625 12.5469 4.51562 12.5469C4.42188 12.5469 4.32812 12.5339 4.23438 12.5078C4.14583 12.4818 4.0651 12.4323 3.99219 12.3594C3.91927 12.2865 3.85938 12.1849 3.8125 12.0547C3.76562 11.9245 3.74219 11.7552 3.74219 11.5469C3.74219 11.4219 3.76562 11.3177 3.8125 11.2344C3.85938 11.151 3.91667 11.0833 3.98438 11.0312C4.05729 10.974 4.13542 10.9323 4.21875 10.9062C4.30729 10.875 4.39062 10.8542 4.46875 10.8438C4.54688 10.8385 4.72135 10.8333 4.99219 10.8281C5.26302 10.8229 5.59375 10.8177 5.98438 10.8125C6.08854 10.3906 6.1849 9.9974 6.27344 9.63281C6.36719 9.26823 6.45052 8.92188 6.52344 8.59375C6.26302 8.59375 6.03385 8.59375 5.83594 8.59375C5.63802 8.59375 5.46875 8.59115 5.32812 8.58594C5.23438 8.58594 5.14062 8.57292 5.04688 8.54688C4.95833 8.52083 4.875 8.47135 4.79688 8.39844C4.72396 8.32031 4.66406 8.21615 4.61719 8.08594C4.57552 7.95573 4.55469 7.78646 4.55469 7.57812C4.55469 7.42188 4.57812 7.29688 4.625 7.20312C4.67188 7.10938 4.74219 7.03906 4.83594 6.99219C4.92969 6.9401 5.04427 6.90625 5.17969 6.89062C5.32031 6.875 5.48177 6.86719 5.66406 6.86719H6.91406C7.07552 6.13281 7.1875 5.59375 7.25 5.25C7.3125 4.90104 7.34635 4.71875 7.35156 4.70312C7.3724 4.56771 7.40365 4.42448 7.44531 4.27344C7.49219 4.1224 7.55208 3.98438 7.625 3.85938C7.69792 3.72917 7.78646 3.6224 7.89062 3.53906C8 3.45573 8.1276 3.41406 8.27344 3.41406C8.3776 3.41406 8.48177 3.42448 8.58594 3.44531C8.6901 3.46615 8.78385 3.5026 8.86719 3.55469C8.95573 3.60677 9.02604 3.68229 9.07812 3.78125C9.13542 3.875 9.16406 3.99479 9.16406 4.14062C9.16406 4.20312 9.15104 4.29427 9.125 4.41406C9.09896 4.52865 9.06771 4.64844 9.03125 4.77344C9 4.89323 8.96615 5.00521 8.92969 5.10938C8.89323 5.20833 8.86719 5.27604 8.85156 5.3125C8.78906 5.57292 8.72656 5.83073 8.66406 6.08594C8.60156 6.34115 8.54167 6.59896 8.48438 6.85938C8.71875 6.85938 8.95052 6.85938 9.17969 6.85938C9.40885 6.85938 9.63542 6.85677 9.85938 6.85156C9.98438 6.85156 10.125 6.85156 10.2812 6.85156C10.4375 6.85156 10.6042 6.84896 10.7812 6.84375C10.9167 6.11458 11.0078 5.58073 11.0547 5.24219C11.1016 4.89844 11.1276 4.71875 11.1328 4.70312C11.1536 4.56771 11.1849 4.42448 11.2266 4.27344C11.2734 4.1224 11.3333 3.98438 11.4062 3.85938C11.4844 3.72917 11.5755 3.6224 11.6797 3.53906C11.7839 3.45573 11.9089 3.41406 12.0547 3.41406C12.1536 3.41406 12.2552 3.42448 12.3594 3.44531C12.4688 3.46615 12.5651 3.5026 12.6484 3.55469C12.737 3.60677 12.8073 3.68229 12.8594 3.78125C12.9167 3.875 12.9453 3.99479 12.9453 4.14062C12.9453 4.20312 12.9323 4.29427 12.9062 4.41406C12.8802 4.52865 12.849 4.64844 12.8125 4.77344C12.7812 4.89323 12.7474 5.00521 12.7109 5.10938C12.6797 5.20833 12.6562 5.27604 12.6406 5.3125V5.30469C12.5781 5.58073 12.5182 5.84635 12.4609 6.10156C12.4036 6.35156 12.349 6.59635 12.2969 6.83594H12.9922C13.0807 6.83594 13.1693 6.82292 13.2578 6.79688C13.3464 6.76562 13.4401 6.75 13.5391 6.75C13.6172 6.75 13.7031 6.76302 13.7969 6.78906C13.8906 6.8151 13.9766 6.86458 14.0547 6.9375C14.138 7.00521 14.2083 7.09896 14.2656 7.21875C14.3229 7.33333 14.3516 7.47917 14.3516 7.65625C14.3516 7.94792 14.2839 8.17708 14.1484 8.34375C14.013 8.51042 13.8281 8.59375 13.5938 8.59375H11.9062C11.8177 9.02604 11.7344 9.42448 11.6562 9.78906C11.5781 10.1484 11.5078 10.4844 11.4453 10.7969H12.1797C12.2734 10.7969 12.3646 10.7812 12.4531 10.75C12.5417 10.7188 12.6354 10.7031 12.7344 10.7031C12.8073 10.7031 12.8906 10.7188 12.9844 10.75C13.0781 10.776 13.1641 10.8255 13.2422 10.8984C13.3255 10.9661 13.3958 11.0573 13.4531 11.1719C13.5104 11.2865 13.5391 11.4323 13.5391 11.6094C13.5391 11.901 13.4714 12.1328 13.3359 12.3047C13.2005 12.4714 13.0156 12.5547 12.7812 12.5547H11.0938C11.0156 12.9714 10.9453 13.3333 10.8828 13.6406C10.8255 13.9479 10.763 14.2422 10.6953 14.5234C10.6693 14.6172 10.6406 14.7135 10.6094 14.8125C10.5833 14.9062 10.5417 14.9896 10.4844 15.0625C10.4323 15.1354 10.362 15.1953 10.2734 15.2422C10.1849 15.2891 10.0703 15.3125 9.92969 15.3125C9.60677 15.3125 9.36458 15.2422 9.20312 15.1016C9.04688 14.9609 8.96354 14.7812 8.95312 14.5625V14.5547C8.95312 14.4297 8.97135 14.3203 9.00781 14.2266C9.04427 14.1328 9.08333 14.0391 9.125 13.9453L9.48438 12.5547H7.20312C7.13021 12.8724 7.05729 13.1901 6.98438 13.5078C6.91667 13.8203 6.84635 14.1354 6.77344 14.4531C6.7526 14.5469 6.72656 14.6458 6.69531 14.75C6.66406 14.849 6.61979 14.9401 6.5625 15.0234C6.50521 15.1068 6.42969 15.1745 6.33594 15.2266C6.2474 15.2839 6.13542 15.3125 6 15.3125C5.67188 15.3125 5.42708 15.2422 5.26562 15.1016C5.10938 14.9609 5.02604 14.7812 5.01562 14.5625V14.5547ZM7.59375 10.8047C7.98958 10.8047 8.38021 10.8047 8.76562 10.8047C9.15625 10.7995 9.53906 10.7969 9.91406 10.7969C10.0182 10.3802 10.1094 9.99219 10.1875 9.63281C10.2708 9.26823 10.349 8.92188 10.4219 8.59375H8.08594L7.59375 10.8047Z" fill="#FAFAFA"/>
</svg>
