<svg width="24" height="24" viewBox="0 0 24 24" fill="none" xmlns="http://www.w3.org/2000/svg">
<path d="M16.9166 13C16.9166 13.4142 16.5809 13.75 16.1666 13.75C15.7524 13.75 15.4166 13.4142 15.4166 13H16.1666H16.9166ZM15.4166 3C15.4166 2.58579 15.7524 2.25 16.1666 2.25C16.5809 2.25 16.9166 2.58579 16.9166 3H16.1666H15.4166ZM20.866 5.80536C21.1576 6.09955 21.1554 6.57442 20.8612 6.86601C20.567 7.15759 20.0922 7.15547 19.8006 6.86127L20.3333 6.33332L20.866 5.80536ZM18.8772 4.86418L18.3445 5.39214L18.8772 4.86418ZM13.4561 4.86418L13.9888 5.39214L13.4561 4.86418ZM12.5327 6.86127C12.2411 7.15547 11.7662 7.15759 11.472 6.86601C11.1778 6.57442 11.1757 6.09955 11.4673 5.80536L12 6.33332L12.5327 6.86127ZM16.4278 3.01657L16.5226 2.27259L16.5226 2.27259L16.4278 3.01657ZM15.9055 3.01658L15.8107 2.27259L15.8107 2.27259L15.9055 3.01658ZM16.1666 13H15.4166V3H16.1666H16.9166V13H16.1666ZM20.3333 6.33332L19.8006 6.86127L18.3445 5.39214L18.8772 4.86418L19.4099 4.33622L20.866 5.80536L20.3333 6.33332ZM13.4561 4.86418L13.9888 5.39214L12.5327 6.86127L12 6.33332L11.4673 5.80536L12.9234 4.33622L13.4561 4.86418ZM18.8772 4.86418L18.3445 5.39214C17.7515 4.79381 17.3506 4.39088 17.0128 4.11962C16.6868 3.85786 16.4932 3.78099 16.3329 3.76056L16.4278 3.01657L16.5226 2.27259C17.0699 2.34236 17.5205 2.60349 17.952 2.95008C18.3718 3.28717 18.8417 3.76295 19.4099 4.33622L18.8772 4.86418ZM13.4561 4.86418L12.9234 4.33622C13.4916 3.76295 13.9615 3.28717 14.3813 2.95008C14.8128 2.60349 15.2634 2.34236 15.8107 2.27259L15.9055 3.01658L16.0004 3.76056C15.8401 3.78099 15.6465 3.85786 15.3205 4.11962C14.9827 4.39088 14.5818 4.79381 13.9888 5.39214L13.4561 4.86418ZM16.4278 3.01657L16.3329 3.76056C16.2225 3.74648 16.1108 3.74648 16.0004 3.76056L15.9055 3.01658L15.8107 2.27259C16.0471 2.24247 16.2862 2.24247 16.5226 2.27259L16.4278 3.01657Z" fill="#FAFAFA"/>
<path d="M5.01562 20.5547C5.01562 20.4349 5.03385 20.3281 5.07031 20.2344C5.10677 20.1354 5.14583 20.0391 5.1875 19.9453C5.25 19.6953 5.3099 19.4583 5.36719 19.2344C5.42969 19.0052 5.48958 18.7786 5.54688 18.5547C5.33854 18.5547 5.14062 18.5547 4.95312 18.5547C4.77083 18.5495 4.625 18.5469 4.51562 18.5469C4.42188 18.5469 4.32812 18.5339 4.23438 18.5078C4.14583 18.4818 4.0651 18.4323 3.99219 18.3594C3.91927 18.2865 3.85938 18.1849 3.8125 18.0547C3.76562 17.9245 3.74219 17.7552 3.74219 17.5469C3.74219 17.4219 3.76562 17.3177 3.8125 17.2344C3.85938 17.151 3.91667 17.0833 3.98438 17.0312C4.05729 16.974 4.13542 16.9323 4.21875 16.9062C4.30729 16.875 4.39062 16.8542 4.46875 16.8438C4.54688 16.8385 4.72135 16.8333 4.99219 16.8281C5.26302 16.8229 5.59375 16.8177 5.98438 16.8125C6.08854 16.3906 6.1849 15.9974 6.27344 15.6328C6.36719 15.2682 6.45052 14.9219 6.52344 14.5938C6.26302 14.5938 6.03385 14.5938 5.83594 14.5938C5.63802 14.5938 5.46875 14.5911 5.32812 14.5859C5.23438 14.5859 5.14062 14.5729 5.04688 14.5469C4.95833 14.5208 4.875 14.4714 4.79688 14.3984C4.72396 14.3203 4.66406 14.2161 4.61719 14.0859C4.57552 13.9557 4.55469 13.7865 4.55469 13.5781C4.55469 13.4219 4.57812 13.2969 4.625 13.2031C4.67188 13.1094 4.74219 13.0391 4.83594 12.9922C4.92969 12.9401 5.04427 12.9062 5.17969 12.8906C5.32031 12.875 5.48177 12.8672 5.66406 12.8672H6.91406C7.07552 12.1328 7.1875 11.5938 7.25 11.25C7.3125 10.901 7.34635 10.7188 7.35156 10.7031C7.3724 10.5677 7.40365 10.4245 7.44531 10.2734C7.49219 10.1224 7.55208 9.98438 7.625 9.85938C7.69792 9.72917 7.78646 9.6224 7.89062 9.53906C8 9.45573 8.1276 9.41406 8.27344 9.41406C8.3776 9.41406 8.48177 9.42448 8.58594 9.44531C8.6901 9.46615 8.78385 9.5026 8.86719 9.55469C8.95573 9.60677 9.02604 9.68229 9.07812 9.78125C9.13542 9.875 9.16406 9.99479 9.16406 10.1406C9.16406 10.2031 9.15104 10.2943 9.125 10.4141C9.09896 10.5286 9.06771 10.6484 9.03125 10.7734C9 10.8932 8.96615 11.0052 8.92969 11.1094C8.89323 11.2083 8.86719 11.276 8.85156 11.3125C8.78906 11.5729 8.72656 11.8307 8.66406 12.0859C8.60156 12.3411 8.54167 12.599 8.48438 12.8594C8.71875 12.8594 8.95052 12.8594 9.17969 12.8594C9.40885 12.8594 9.63542 12.8568 9.85938 12.8516C9.98438 12.8516 10.125 12.8516 10.2812 12.8516C10.4375 12.8516 10.6042 12.849 10.7812 12.8438C10.9167 12.1146 11.0078 11.5807 11.0547 11.2422C11.1016 10.8984 11.1276 10.7188 11.1328 10.7031C11.1536 10.5677 11.1849 10.4245 11.2266 10.2734C11.2734 10.1224 11.3333 9.98438 11.4062 9.85938C11.4844 9.72917 11.5755 9.6224 11.6797 9.53906C11.7839 9.45573 11.9089 9.41406 12.0547 9.41406C12.1536 9.41406 12.2552 9.42448 12.3594 9.44531C12.4688 9.46615 12.5651 9.5026 12.6484 9.55469C12.737 9.60677 12.8073 9.68229 12.8594 9.78125C12.9167 9.875 12.9453 9.99479 12.9453 10.1406C12.9453 10.2031 12.9323 10.2943 12.9062 10.4141C12.8802 10.5286 12.849 10.6484 12.8125 10.7734C12.7812 10.8932 12.7474 11.0052 12.7109 11.1094C12.6797 11.2083 12.6562 11.276 12.6406 11.3125V11.3047C12.5781 11.5807 12.5182 11.8464 12.4609 12.1016C12.4036 12.3516 12.349 12.5964 12.2969 12.8359H12.9922C13.0807 12.8359 13.1693 12.8229 13.2578 12.7969C13.3464 12.7656 13.4401 12.75 13.5391 12.75C13.6172 12.75 13.7031 12.763 13.7969 12.7891C13.8906 12.8151 13.9766 12.8646 14.0547 12.9375C14.138 13.0052 14.2083 13.099 14.2656 13.2188C14.3229 13.3333 14.3516 13.4792 14.3516 13.6562C14.3516 13.9479 14.2839 14.1771 14.1484 14.3438C14.013 14.5104 13.8281 14.5938 13.5938 14.5938H11.9062C11.8177 15.026 11.7344 15.4245 11.6562 15.7891C11.5781 16.1484 11.5078 16.4844 11.4453 16.7969H12.1797C12.2734 16.7969 12.3646 16.7812 12.4531 16.75C12.5417 16.7188 12.6354 16.7031 12.7344 16.7031C12.8073 16.7031 12.8906 16.7188 12.9844 16.75C13.0781 16.776 13.1641 16.8255 13.2422 16.8984C13.3255 16.9661 13.3958 17.0573 13.4531 17.1719C13.5104 17.2865 13.5391 17.4323 13.5391 17.6094C13.5391 17.901 13.4714 18.1328 13.3359 18.3047C13.2005 18.4714 13.0156 18.5547 12.7812 18.5547H11.0938C11.0156 18.9714 10.9453 19.3333 10.8828 19.6406C10.8255 19.9479 10.763 20.2422 10.6953 20.5234C10.6693 20.6172 10.6406 20.7135 10.6094 20.8125C10.5833 20.9062 10.5417 20.9896 10.4844 21.0625C10.4323 21.1354 10.362 21.1953 10.2734 21.2422C10.1849 21.2891 10.0703 21.3125 9.92969 21.3125C9.60677 21.3125 9.36458 21.2422 9.20312 21.1016C9.04688 20.9609 8.96354 20.7812 8.95312 20.5625V20.5547C8.95312 20.4297 8.97135 20.3203 9.00781 20.2266C9.04427 20.1328 9.08333 20.0391 9.125 19.9453L9.48438 18.5547H7.20312C7.13021 18.8724 7.05729 19.1901 6.98438 19.5078C6.91667 19.8203 6.84635 20.1354 6.77344 20.4531C6.7526 20.5469 6.72656 20.6458 6.69531 20.75C6.66406 20.849 6.61979 20.9401 6.5625 21.0234C6.50521 21.1068 6.42969 21.1745 6.33594 21.2266C6.2474 21.2839 6.13542 21.3125 6 21.3125C5.67188 21.3125 5.42708 21.2422 5.26562 21.1016C5.10938 20.9609 5.02604 20.7812 5.01562 20.5625V20.5547ZM7.59375 16.8047C7.98958 16.8047 8.38021 16.8047 8.76562 16.8047C9.15625 16.7995 9.53906 16.7969 9.91406 16.7969C10.0182 16.3802 10.1094 15.9922 10.1875 15.6328C10.2708 15.2682 10.349 14.9219 10.4219 14.5938H8.08594L7.59375 16.8047Z" fill="#FAFAFA"/>
</svg>
