<svg width="24" height="24" viewBox="0 0 24 24" fill="none" xmlns="http://www.w3.org/2000/svg">
<path d="M17.3314 13.5879C17.3314 14.0021 16.9956 14.3379 16.5814 14.3379C16.1672 14.3379 15.8314 14.0021 15.8314 13.5879H16.5814H17.3314ZM15.8314 2.99966C15.8314 2.58544 16.1672 2.24966 16.5814 2.24966C16.9956 2.24966 17.3314 2.58544 17.3314 2.99966H16.5814H15.8314ZM21.6855 5.99113C21.9826 6.27978 21.9894 6.7546 21.7008 7.05168C21.4121 7.34877 20.9373 7.35561 20.6402 7.06696L21.1629 6.52905L21.6855 5.99113ZM19.5618 4.9735L19.0392 5.51141L19.5618 4.9735ZM13.601 4.9735L14.1237 5.51141L14.1237 5.51141L13.601 4.9735ZM12.5226 7.06696C12.2256 7.35561 11.7507 7.34877 11.4621 7.05168C11.1734 6.7546 11.1803 6.27978 11.4774 5.99113L12 6.52905L12.5226 7.06696ZM16.8685 3.01721L16.9599 2.27279L16.9599 2.27279L16.8685 3.01721ZM16.2943 3.01721L16.203 2.27279L16.203 2.27279L16.2943 3.01721ZM16.5814 13.5879H15.8314V2.99966H16.5814H17.3314V13.5879H16.5814ZM21.1629 6.52905L20.6402 7.06696L19.0392 5.51141L19.5618 4.9735L20.0845 4.43558L21.6855 5.99113L21.1629 6.52905ZM13.601 4.9735L14.1237 5.51141L12.5226 7.06696L12 6.52905L11.4774 5.99113L13.0784 4.43558L13.601 4.9735ZM19.5618 4.9735L19.0392 5.51141C18.3883 4.879 17.9445 4.44933 17.5694 4.15925C17.2071 3.87909 16.9791 3.7864 16.7772 3.76162L16.8685 3.01721L16.9599 2.27279C17.5361 2.34351 18.0163 2.60871 18.487 2.97268C18.9448 3.32674 19.4586 3.82747 20.0845 4.43558L19.5618 4.9735ZM13.601 4.9735L13.0784 4.43558C13.7043 3.82747 14.2181 3.32674 14.6759 2.97268C15.1465 2.60871 15.6268 2.34351 16.203 2.27279L16.2943 3.01721L16.3857 3.76162C16.1838 3.7864 15.9558 3.87909 15.5935 4.15926C15.2184 4.44933 14.7746 4.879 14.1237 5.51141L13.601 4.9735ZM16.8685 3.01721L16.7772 3.76162C16.6472 3.74567 16.5157 3.74567 16.3857 3.76162L16.2943 3.01721L16.203 2.27279C16.4543 2.24194 16.7086 2.24194 16.9599 2.27279L16.8685 3.01721Z" fill="#FAFAFA"/>
<path d="M4.53809 17.7812C4.53809 17.5762 4.54264 17.3688 4.55176 17.1592C4.56087 16.9495 4.59505 16.7604 4.6543 16.5918C4.71354 16.4186 4.80469 16.2796 4.92773 16.1748C5.05534 16.0654 5.23307 16.0107 5.46094 16.0107C5.67057 16.0107 5.84603 16.0745 5.9873 16.2021C6.12858 16.3298 6.19922 16.5007 6.19922 16.7148C6.19922 16.8242 6.19238 16.9268 6.17871 17.0225C6.16504 17.1136 6.14909 17.2048 6.13086 17.2959C6.11263 17.3825 6.09668 17.4645 6.08301 17.542C6.06934 17.6195 6.0625 17.6969 6.0625 17.7744C6.0625 17.9749 6.11947 18.1436 6.2334 18.2803C6.34733 18.4124 6.49316 18.5218 6.6709 18.6084C6.84863 18.6904 7.04688 18.7497 7.26562 18.7861C7.48438 18.8226 7.70085 18.8408 7.91504 18.8408C8.15658 18.8408 8.39355 18.8158 8.62598 18.7656C8.86296 18.7155 9.07259 18.6335 9.25488 18.5195C9.44173 18.401 9.59212 18.2438 9.70605 18.0479C9.81999 17.8519 9.87695 17.6104 9.87695 17.3232C9.87695 17.027 9.80859 16.7718 9.67188 16.5576C9.53971 16.3389 9.36882 16.1497 9.15918 15.9902C8.94954 15.8262 8.71484 15.6849 8.45508 15.5664C8.19987 15.4479 7.9515 15.3408 7.70996 15.2451C7.50033 15.1585 7.28613 15.0674 7.06738 14.9717C6.85319 14.876 6.64355 14.7666 6.43848 14.6436C6.23796 14.5205 6.04883 14.3792 5.87109 14.2197C5.69792 14.0602 5.54525 13.8779 5.41309 13.6729C5.28092 13.4678 5.17611 13.2331 5.09863 12.9688C5.02572 12.7044 4.98926 12.4036 4.98926 12.0664C4.98926 11.7337 5.05306 11.4284 5.18066 11.1504C5.31283 10.8724 5.486 10.6263 5.7002 10.4121C5.91895 10.1979 6.1696 10.0179 6.45215 9.87207C6.7347 9.72624 7.02865 9.61686 7.33398 9.54395V8.94238C7.33398 8.79655 7.3431 8.66439 7.36133 8.5459C7.37956 8.42285 7.41374 8.31803 7.46387 8.23145C7.51855 8.14486 7.59375 8.07878 7.68945 8.0332C7.78516 7.98307 7.91276 7.95801 8.07227 7.95801C8.17708 7.95801 8.27279 7.96712 8.35938 7.98535C8.45052 8.00358 8.52572 8.03548 8.58496 8.08105C8.64876 8.12207 8.69661 8.18132 8.72852 8.25879C8.76497 8.33626 8.7832 8.43424 8.7832 8.55273C8.7832 8.67578 8.7832 8.82389 8.7832 8.99707C8.7832 9.16569 8.78092 9.32975 8.77637 9.48926C9.04069 9.53027 9.31413 9.60091 9.59668 9.70117C9.87923 9.79688 10.1367 9.92676 10.3691 10.0908C10.6061 10.2503 10.7998 10.4463 10.9502 10.6787C11.1006 10.9066 11.1758 11.1755 11.1758 11.4854C11.1758 11.6084 11.1553 11.7201 11.1143 11.8203C11.0732 11.916 11.0186 11.9958 10.9502 12.0596C10.8818 12.1234 10.8021 12.1735 10.7109 12.21C10.6243 12.2419 10.5332 12.2578 10.4375 12.2578C10.3464 12.2578 10.2529 12.2396 10.1572 12.2031C10.0661 12.1667 9.98177 12.1188 9.9043 12.0596C9.82682 11.9958 9.76074 11.9206 9.70605 11.834C9.65592 11.7474 9.6263 11.6517 9.61719 11.5469C9.54883 11.4102 9.45768 11.3008 9.34375 11.2188C9.23438 11.1367 9.11133 11.0752 8.97461 11.0342C8.83789 10.9886 8.69434 10.959 8.54395 10.9453C8.39355 10.9316 8.24772 10.9248 8.10645 10.9248C7.95605 10.9248 7.78743 10.9499 7.60059 11C7.41829 11.0456 7.24512 11.1185 7.08105 11.2188C6.92155 11.3145 6.78711 11.4375 6.67773 11.5879C6.57292 11.7383 6.52051 11.9137 6.52051 12.1143C6.52051 12.3604 6.57747 12.5791 6.69141 12.7705C6.8099 12.9574 6.96257 13.126 7.14941 13.2764C7.34082 13.4268 7.55957 13.5658 7.80566 13.6934C8.05176 13.8164 8.30469 13.9372 8.56445 14.0557C8.77865 14.1514 8.9974 14.2562 9.2207 14.3701C9.44857 14.4795 9.66732 14.6025 9.87695 14.7393C10.0911 14.8714 10.2894 15.0218 10.4717 15.1904C10.6585 15.3545 10.8203 15.5413 10.957 15.751C11.0983 15.9606 11.2077 16.1953 11.2852 16.4551C11.3672 16.7103 11.4082 16.9974 11.4082 17.3164C11.4082 17.7493 11.3307 18.1344 11.1758 18.4717C11.0254 18.8089 10.8226 19.1006 10.5674 19.3467C10.3122 19.5882 10.0182 19.7865 9.68555 19.9414C9.35742 20.0918 9.01335 20.1966 8.65332 20.2559V21.1035C8.65332 21.2493 8.64421 21.3838 8.62598 21.5068C8.60775 21.6299 8.57129 21.7347 8.5166 21.8213C8.46647 21.9124 8.39128 21.9808 8.29102 22.0264C8.19531 22.0765 8.06999 22.1016 7.91504 22.1016C7.69629 22.1016 7.52083 22.0605 7.38867 21.9785C7.25651 21.8965 7.19043 21.737 7.19043 21.5C7.19043 21.4316 7.19043 21.3473 7.19043 21.2471C7.19043 21.1514 7.19043 21.0488 7.19043 20.9395C7.19043 20.8301 7.19043 20.7161 7.19043 20.5977C7.19499 20.4837 7.19954 20.3743 7.2041 20.2695C6.85775 20.2194 6.52279 20.1305 6.19922 20.0029C5.88021 19.8799 5.59766 19.7158 5.35156 19.5107C5.10547 19.3057 4.90723 19.0596 4.75684 18.7725C4.611 18.4854 4.53809 18.1549 4.53809 17.7812Z" fill="#FAFAFA"/>
</svg>
