<svg width="24" height="24" viewBox="0 0 24 24" fill="none" xmlns="http://www.w3.org/2000/svg">
<path d="M17.1686 10.4121C17.1686 9.9979 16.8328 9.66211 16.4186 9.66211C16.0044 9.66211 15.6686 9.9979 15.6686 10.4121H16.4186H17.1686ZM15.6686 21.0003C15.6686 21.4146 16.0044 21.7503 16.4186 21.7503C16.8328 21.7503 17.1686 21.4146 17.1686 21.0003H16.4186H15.6686ZM21.5227 18.0089C21.8197 17.7202 21.8266 17.2454 21.5379 16.9483C21.2493 16.6512 20.7745 16.6444 20.4774 16.933L21 17.471L21.5227 18.0089ZM19.399 19.0265L18.8764 18.4886L19.399 19.0265ZM13.4382 19.0265L13.9608 18.4886L13.9608 18.4886L13.4382 19.0265ZM12.3598 16.933C12.0627 16.6444 11.5879 16.6512 11.2992 16.9483C11.0106 17.2454 11.0174 17.7202 11.3145 18.0089L11.8372 17.471L12.3598 16.933ZM16.7057 20.9828L16.7971 21.7272L16.7971 21.7272L16.7057 20.9828ZM16.1315 20.9828L16.0401 21.7272L16.0401 21.7272L16.1315 20.9828ZM16.4186 10.4121H15.6686V21.0003H16.4186H17.1686V10.4121H16.4186ZM21 17.471L20.4774 16.933L18.8764 18.4886L19.399 19.0265L19.9216 19.5644L21.5227 18.0089L21 17.471ZM13.4382 19.0265L13.9608 18.4886L12.3598 16.933L11.8372 17.471L11.3145 18.0089L12.9156 19.5644L13.4382 19.0265ZM19.399 19.0265L18.8764 18.4886C18.2255 19.121 17.7816 19.5507 17.4065 19.8407C17.0442 20.1209 16.8162 20.2136 16.6143 20.2384L16.7057 20.9828L16.7971 21.7272C17.3732 21.6565 17.8535 21.3913 18.3242 21.0273C18.782 20.6733 19.2957 20.1725 19.9216 19.5644L19.399 19.0265ZM13.4382 19.0265L12.9156 19.5644C13.5415 20.1725 14.0552 20.6733 14.513 21.0273C14.9837 21.3913 15.4639 21.6565 16.0401 21.7272L16.1315 20.9828L16.2229 20.2384C16.0209 20.2136 15.7929 20.1209 15.4307 19.8407C15.0556 19.5507 14.6117 19.121 13.9608 18.4886L13.4382 19.0265ZM16.7057 20.9828L16.6143 20.2384C16.4844 20.2543 16.3528 20.2543 16.2229 20.2384L16.1315 20.9828L16.0401 21.7272C16.2914 21.7581 16.5457 21.7581 16.7971 21.7272L16.7057 20.9828Z" fill="#FAFAFA"/>
<path d="M4.53809 11.7783C4.53809 11.5732 4.54264 11.3659 4.55176 11.1562C4.56087 10.9466 4.59505 10.7575 4.6543 10.5889C4.71354 10.4157 4.80469 10.2767 4.92773 10.1719C5.05534 10.0625 5.23307 10.0078 5.46094 10.0078C5.67057 10.0078 5.84603 10.0716 5.9873 10.1992C6.12858 10.3268 6.19922 10.4977 6.19922 10.7119C6.19922 10.8213 6.19238 10.9238 6.17871 11.0195C6.16504 11.1107 6.14909 11.2018 6.13086 11.293C6.11263 11.3796 6.09668 11.4616 6.08301 11.5391C6.06934 11.6165 6.0625 11.694 6.0625 11.7715C6.0625 11.972 6.11947 12.1406 6.2334 12.2773C6.34733 12.4095 6.49316 12.5189 6.6709 12.6055C6.84863 12.6875 7.04688 12.7467 7.26562 12.7832C7.48438 12.8197 7.70085 12.8379 7.91504 12.8379C8.15658 12.8379 8.39355 12.8128 8.62598 12.7627C8.86296 12.7126 9.07259 12.6305 9.25488 12.5166C9.44173 12.3981 9.59212 12.2409 9.70605 12.0449C9.81999 11.849 9.87695 11.6074 9.87695 11.3203C9.87695 11.0241 9.80859 10.7689 9.67188 10.5547C9.53971 10.3359 9.36882 10.1468 9.15918 9.9873C8.94954 9.82324 8.71484 9.68197 8.45508 9.56348C8.19987 9.44499 7.9515 9.33789 7.70996 9.24219C7.50033 9.1556 7.28613 9.06445 7.06738 8.96875C6.85319 8.87305 6.64355 8.76367 6.43848 8.64062C6.23796 8.51758 6.04883 8.3763 5.87109 8.2168C5.69792 8.05729 5.54525 7.875 5.41309 7.66992C5.28092 7.46484 5.17611 7.23014 5.09863 6.96582C5.02572 6.7015 4.98926 6.40072 4.98926 6.06348C4.98926 5.73079 5.05306 5.42546 5.18066 5.14746C5.31283 4.86947 5.486 4.62337 5.7002 4.40918C5.91895 4.19499 6.1696 4.01497 6.45215 3.86914C6.7347 3.72331 7.02865 3.61393 7.33398 3.54102V2.93945C7.33398 2.79362 7.3431 2.66146 7.36133 2.54297C7.37956 2.41992 7.41374 2.3151 7.46387 2.22852C7.51855 2.14193 7.59375 2.07585 7.68945 2.03027C7.78516 1.98014 7.91276 1.95508 8.07227 1.95508C8.17708 1.95508 8.27279 1.96419 8.35938 1.98242C8.45052 2.00065 8.52572 2.03255 8.58496 2.07812C8.64876 2.11914 8.69661 2.17839 8.72852 2.25586C8.76497 2.33333 8.7832 2.43132 8.7832 2.5498C8.7832 2.67285 8.7832 2.82096 8.7832 2.99414C8.7832 3.16276 8.78092 3.32682 8.77637 3.48633C9.04069 3.52734 9.31413 3.59798 9.59668 3.69824C9.87923 3.79395 10.1367 3.92383 10.3691 4.08789C10.6061 4.2474 10.7998 4.44336 10.9502 4.67578C11.1006 4.90365 11.1758 5.17253 11.1758 5.48242C11.1758 5.60547 11.1553 5.71712 11.1143 5.81738C11.0732 5.91309 11.0186 5.99284 10.9502 6.05664C10.8818 6.12044 10.8021 6.17057 10.7109 6.20703C10.6243 6.23893 10.5332 6.25488 10.4375 6.25488C10.3464 6.25488 10.2529 6.23665 10.1572 6.2002C10.0661 6.16374 9.98177 6.11589 9.9043 6.05664C9.82682 5.99284 9.76074 5.91764 9.70605 5.83105C9.65592 5.74447 9.6263 5.64876 9.61719 5.54395C9.54883 5.40723 9.45768 5.29785 9.34375 5.21582C9.23438 5.13379 9.11133 5.07227 8.97461 5.03125C8.83789 4.98568 8.69434 4.95605 8.54395 4.94238C8.39355 4.92871 8.24772 4.92188 8.10645 4.92188C7.95605 4.92188 7.78743 4.94694 7.60059 4.99707C7.41829 5.04264 7.24512 5.11556 7.08105 5.21582C6.92155 5.31152 6.78711 5.43457 6.67773 5.58496C6.57292 5.73535 6.52051 5.91081 6.52051 6.11133C6.52051 6.35742 6.57747 6.57617 6.69141 6.76758C6.8099 6.95443 6.96257 7.12305 7.14941 7.27344C7.34082 7.42383 7.55957 7.56283 7.80566 7.69043C8.05176 7.81348 8.30469 7.93424 8.56445 8.05273C8.77865 8.14844 8.9974 8.25326 9.2207 8.36719C9.44857 8.47656 9.66732 8.59961 9.87695 8.73633C10.0911 8.86849 10.2894 9.01888 10.4717 9.1875C10.6585 9.35156 10.8203 9.53841 10.957 9.74805C11.0983 9.95768 11.2077 10.1924 11.2852 10.4521C11.3672 10.7074 11.4082 10.9945 11.4082 11.3135C11.4082 11.7464 11.3307 12.1315 11.1758 12.4688C11.0254 12.806 10.8226 13.0977 10.5674 13.3438C10.3122 13.5853 10.0182 13.7835 9.68555 13.9385C9.35742 14.0889 9.01335 14.1937 8.65332 14.2529V15.1006C8.65332 15.2464 8.64421 15.3809 8.62598 15.5039C8.60775 15.627 8.57129 15.7318 8.5166 15.8184C8.46647 15.9095 8.39128 15.9779 8.29102 16.0234C8.19531 16.0736 8.06999 16.0986 7.91504 16.0986C7.69629 16.0986 7.52083 16.0576 7.38867 15.9756C7.25651 15.8936 7.19043 15.734 7.19043 15.4971C7.19043 15.4287 7.19043 15.3444 7.19043 15.2441C7.19043 15.1484 7.19043 15.0459 7.19043 14.9365C7.19043 14.8271 7.19043 14.7132 7.19043 14.5947C7.19499 14.4808 7.19954 14.3714 7.2041 14.2666C6.85775 14.2165 6.52279 14.1276 6.19922 14C5.88021 13.877 5.59766 13.7129 5.35156 13.5078C5.10547 13.3027 4.90723 13.0566 4.75684 12.7695C4.611 12.4824 4.53809 12.152 4.53809 11.7783Z" fill="#FAFAFA"/>
</svg>
