<svg width="24" height="24" viewBox="0 0 24 24" fill="none" xmlns="http://www.w3.org/2000/svg">
<path d="M17.9166 11C17.9166 10.5858 17.5809 10.25 17.1666 10.25C16.7524 10.25 16.4166 10.5858 16.4166 11H17.1666H17.9166ZM16.4166 21C16.4166 21.4142 16.7524 21.75 17.1666 21.75C17.5809 21.75 17.9166 21.4142 17.9166 21H17.1666H16.4166ZM21.866 18.1946C22.1576 17.9004 22.1554 17.4256 21.8612 17.134C21.567 16.8424 21.0922 16.8445 20.8006 17.1387L21.3333 17.6667L21.866 18.1946ZM19.8772 19.1358L19.3445 18.6079L19.8772 19.1358ZM14.4561 19.1358L14.9888 18.6079L14.4561 19.1358ZM13.5327 17.1387C13.2411 16.8445 12.7662 16.8424 12.472 17.134C12.1778 17.4256 12.1757 17.9004 12.4673 18.1946L13 17.6667L13.5327 17.1387ZM17.4278 20.9834L17.5226 21.7274L17.5226 21.7274L17.4278 20.9834ZM16.9055 20.9834L16.8107 21.7274L16.8107 21.7274L16.9055 20.9834ZM17.1666 11H16.4166V21H17.1666H17.9166V11H17.1666ZM21.3333 17.6667L20.8006 17.1387L19.3445 18.6079L19.8772 19.1358L20.4099 19.6638L21.866 18.1946L21.3333 17.6667ZM14.4561 19.1358L14.9888 18.6079L13.5327 17.1387L13 17.6667L12.4673 18.1946L13.9234 19.6638L14.4561 19.1358ZM19.8772 19.1358L19.3445 18.6079C18.7515 19.2062 18.3506 19.6091 18.0128 19.8804C17.6868 20.1421 17.4932 20.219 17.3329 20.2394L17.4278 20.9834L17.5226 21.7274C18.0699 21.6576 18.5205 21.3965 18.952 21.0499C19.3718 20.7128 19.8417 20.2371 20.4099 19.6638L19.8772 19.1358ZM14.4561 19.1358L13.9234 19.6638C14.4916 20.2371 14.9615 20.7128 15.3813 21.0499C15.8128 21.3965 16.2634 21.6576 16.8107 21.7274L16.9055 20.9834L17.0004 20.2394C16.8401 20.219 16.6465 20.1421 16.3205 19.8804C15.9827 19.6091 15.5818 19.2062 14.9888 18.6079L14.4561 19.1358ZM17.4278 20.9834L17.3329 20.2394C17.2225 20.2535 17.1108 20.2535 17.0004 20.2394L16.9055 20.9834L16.8107 21.7274C17.0471 21.7575 17.2862 21.7575 17.5226 21.7274L17.4278 20.9834Z" fill="#FAFAFA"/>
<path d="M8.00723 5.0805C8.40569 4.24547 9.59431 4.24547 9.99277 5.0805L10.759 6.68625C10.9194 7.02231 11.2388 7.25443 11.608 7.3031L13.3719 7.53561C14.2892 7.65653 14.6565 8.78697 13.9855 9.42397L12.6951 10.6489C12.4251 10.9053 12.303 11.2808 12.3708 11.647L12.6948 13.3964C12.8632 14.3062 11.9016 15.0048 11.0884 14.5635L9.52472 13.7148C9.19745 13.5372 8.80255 13.5372 8.47528 13.7148L6.91156 14.5635C6.09838 15.0048 5.13677 14.3062 5.30523 13.3964L5.62917 11.647C5.69697 11.2808 5.57494 10.9053 5.30488 10.6489L4.0145 9.42397C3.34346 8.78697 3.71077 7.65653 4.62806 7.53561L6.392 7.3031C6.76116 7.25443 7.08065 7.02231 7.24101 6.68625L8.00723 5.0805Z" stroke="white" stroke-width="1.5" stroke-linejoin="round"/>
</svg>
