<svg width="24" height="24" viewBox="0 0 24 24" fill="none" xmlns="http://www.w3.org/2000/svg">
<path d="M17.9166 15C17.9166 15.4142 17.5809 15.75 17.1666 15.75C16.7524 15.75 16.4166 15.4142 16.4166 15H17.1666H17.9166ZM16.4166 5C16.4166 4.58579 16.7524 4.25 17.1666 4.25C17.5809 4.25 17.9166 4.58579 17.9166 5H17.1666H16.4166ZM21.866 7.80536C22.1576 8.09955 22.1554 8.57442 21.8612 8.86601C21.567 9.15759 21.0922 9.15547 20.8006 8.86127L21.3333 8.33332L21.866 7.80536ZM19.8772 6.86418L19.3445 7.39214L19.8772 6.86418ZM14.4561 6.86418L14.9888 7.39214L14.4561 6.86418ZM13.5327 8.86127C13.2411 9.15547 12.7662 9.15759 12.472 8.86601C12.1778 8.57442 12.1757 8.09955 12.4673 7.80536L13 8.33332L13.5327 8.86127ZM17.4278 5.01657L17.5226 4.27259L17.5226 4.27259L17.4278 5.01657ZM16.9055 5.01658L16.8107 4.27259L16.8107 4.27259L16.9055 5.01658ZM17.1666 15H16.4166V5H17.1666H17.9166V15H17.1666ZM21.3333 8.33332L20.8006 8.86127L19.3445 7.39214L19.8772 6.86418L20.4099 6.33622L21.866 7.80536L21.3333 8.33332ZM14.4561 6.86418L14.9888 7.39214L13.5327 8.86127L13 8.33332L12.4673 7.80536L13.9234 6.33622L14.4561 6.86418ZM19.8772 6.86418L19.3445 7.39214C18.7515 6.79381 18.3506 6.39088 18.0128 6.11962C17.6868 5.85786 17.4932 5.78099 17.3329 5.76056L17.4278 5.01657L17.5226 4.27259C18.0699 4.34236 18.5205 4.60349 18.952 4.95008C19.3718 5.28717 19.8417 5.76295 20.4099 6.33622L19.8772 6.86418ZM14.4561 6.86418L13.9234 6.33622C14.4916 5.76295 14.9615 5.28717 15.3813 4.95008C15.8128 4.60349 16.2634 4.34236 16.8107 4.27259L16.9055 5.01658L17.0004 5.76056C16.8401 5.78099 16.6465 5.85786 16.3205 6.11962C15.9827 6.39088 15.5818 6.79381 14.9888 7.39214L14.4561 6.86418ZM17.4278 5.01657L17.3329 5.76056C17.2225 5.74648 17.1108 5.74648 17.0004 5.76056L16.9055 5.01658L16.8107 4.27259C17.0471 4.24247 17.2862 4.24247 17.5226 4.27259L17.4278 5.01657Z" fill="#FAFAFA"/>
<path d="M8.00723 11.0805C8.40569 10.2455 9.59431 10.2455 9.99277 11.0805L10.759 12.6863C10.9194 13.0223 11.2388 13.2544 11.608 13.3031L13.3719 13.5356C14.2892 13.6565 14.6565 14.787 13.9855 15.424L12.6951 16.6489C12.4251 16.9053 12.303 17.2808 12.3708 17.647L12.6948 19.3964C12.8632 20.3062 11.9016 21.0048 11.0884 20.5635L9.52472 19.7148C9.19745 19.5372 8.80255 19.5372 8.47528 19.7148L6.91156 20.5635C6.09838 21.0048 5.13677 20.3062 5.30523 19.3964L5.62917 17.647C5.69697 17.2808 5.57494 16.9053 5.30488 16.6489L4.0145 15.424C3.34346 14.787 3.71077 13.6565 4.62806 13.5356L6.392 13.3031C6.76116 13.2544 7.08065 13.0223 7.24101 12.6863L8.00723 11.0805Z" stroke="white" stroke-width="1.5" stroke-linejoin="round"/>
</svg>
