<svg width="18" height="18" viewBox="0 0 18 18" fill="none" xmlns="http://www.w3.org/2000/svg">
<g clip-path="url(#clip0_399_5149)">
<path d="M9.86477 1.14774C9.45377 1.03337 9.10127 1.38662 9.07914 1.81262C9.02777 2.79774 8.83539 3.89949 8.30289 4.62324C8.04602 4.97274 7.54914 5.05749 7.24089 4.75224C6.89964 4.41474 6.63639 3.88899 6.43539 3.32462C6.25727 2.82512 5.65614 2.59262 5.24177 2.92412C3.21489 4.54674 1.12427 7.03187 1.12427 10.3791C1.12427 14.8641 4.65039 16.876 9.00002 16.876C13.35 16.876 16.8758 14.8641 16.8758 10.3791C16.8758 5.79587 12.9566 2.82924 10.6478 1.47924C10.4022 1.33531 10.139 1.22413 9.86477 1.14774Z" stroke="#FAFAFA" stroke-width="1.125" stroke-linecap="round" stroke-linejoin="round"/>
<path d="M8.72738 8.74928C8.81214 8.70736 8.90543 8.68555 9 8.68555C9.09457 8.68555 9.18786 8.70736 9.27262 8.74928C10.0117 9.11265 12 10.271 12 12.2248C12 13.8815 10.6568 14.6248 9 14.6248C7.34325 14.6248 6 13.8815 6 12.2248C6 10.271 7.98825 9.11228 8.72738 8.74928Z" stroke="#FAFAFA" stroke-width="1.125" stroke-linecap="round" stroke-linejoin="round"/>
</g>
<defs>
<clipPath id="clip0_399_5149">
<rect width="18" height="18" fill="white"/>
</clipPath>
</defs>
</svg>
