<svg width="24" height="24" viewBox="0 0 24 24" fill="none" xmlns="http://www.w3.org/2000/svg">
<path d="M4 16H7M4 4H18M4 10H10" stroke="#FAFAFA" stroke-width="1.5" stroke-linecap="round"/>
<path d="M15.9166 20C15.9166 20.4142 15.5809 20.75 15.1666 20.75C14.7524 20.75 14.4166 20.4142 14.4166 20H15.1666H15.9166ZM14.4166 10C14.4166 9.58579 14.7524 9.25 15.1666 9.25C15.5809 9.25 15.9166 9.58579 15.9166 10H15.1666H14.4166ZM19.866 12.8054C20.1576 13.0996 20.1554 13.5744 19.8612 13.866C19.567 14.1576 19.0922 14.1555 18.8006 13.8613L19.3333 13.3333L19.866 12.8054ZM17.8772 11.8642L17.3445 12.3921L17.8772 11.8642ZM12.4561 11.8642L12.9888 12.3921L12.4561 11.8642ZM11.5327 13.8613C11.2411 14.1555 10.7662 14.1576 10.472 13.866C10.1778 13.5744 10.1757 13.0996 10.4673 12.8054L11 13.3333L11.5327 13.8613ZM15.4278 10.0166L15.5226 9.27259L15.5226 9.27259L15.4278 10.0166ZM14.9055 10.0166L14.8107 9.27259L14.8107 9.27259L14.9055 10.0166ZM15.1666 20H14.4166V10H15.1666H15.9166V20H15.1666ZM19.3333 13.3333L18.8006 13.8613L17.3445 12.3921L17.8772 11.8642L18.4099 11.3362L19.866 12.8054L19.3333 13.3333ZM12.4561 11.8642L12.9888 12.3921L11.5327 13.8613L11 13.3333L10.4673 12.8054L11.9234 11.3362L12.4561 11.8642ZM17.8772 11.8642L17.3445 12.3921C16.7515 11.7938 16.3506 11.3909 16.0128 11.1196C15.6868 10.8579 15.4932 10.781 15.3329 10.7606L15.4278 10.0166L15.5226 9.27259C16.0699 9.34236 16.5205 9.60349 16.952 9.95008C17.3718 10.2872 17.8417 10.7629 18.4099 11.3362L17.8772 11.8642ZM12.4561 11.8642L11.9234 11.3362C12.4916 10.7629 12.9615 10.2872 13.3813 9.95008C13.8128 9.60349 14.2634 9.34236 14.8107 9.27259L14.9055 10.0166L15.0004 10.7606C14.8401 10.781 14.6465 10.8579 14.3205 11.1196C13.9827 11.3909 13.5818 11.7938 12.9888 12.3921L12.4561 11.8642ZM15.4278 10.0166L15.3329 10.7606C15.2225 10.7465 15.1108 10.7465 15.0004 10.7606L14.9055 10.0166L14.8107 9.27259C15.0471 9.24247 15.2862 9.24247 15.5226 9.27259L15.4278 10.0166Z" fill="#FAFAFA"/>
</svg>
