<svg width="20" height="21" viewBox="0 0 20 21" fill="none" xmlns="http://www.w3.org/2000/svg">
<g clip-path="url(#clip0_74_8714)">
<path d="M10 20.7285C15.5228 20.7285 20 16.2514 20 10.7285C20 5.20567 15.5228 0.728516 10 0.728516C4.47715 0.728516 0 5.20567 0 10.7285C0 16.2514 4.47715 20.7285 10 20.7285Z" fill="#516372"/>
<path d="M7.80996 3.83651C6.65303 5.27748 6.13515 7.24248 7.51688 8.74248C9.76534 11.1831 14.029 9.16171 13.1446 5.77132C12.9598 5.06248 12.5355 4.49036 12.239 3.83594C16.2811 4.83863 19.173 8.85113 17.514 12.9877C16.2411 16.1615 12.1725 17.9988 8.89053 17.555C6.12284 17.1806 2.97669 15.1427 2.23688 12.3254C1.17015 8.26344 3.99149 4.79421 7.80976 3.83651H7.80996Z" fill="#090B0D"/>
</g>
<defs>
<clipPath id="clip0_74_8714">
<rect width="20" height="20" fill="white" transform="translate(0 0.728516)"/>
</clipPath>
</defs>
</svg>
