<svg width="20" height="21" viewBox="0 0 20 21" fill="none" xmlns="http://www.w3.org/2000/svg">
<g clip-path="url(#clip0_74_8720)">
<path d="M10 20.7285C15.5228 20.7285 20 16.2514 20 10.7285C20 5.20567 15.5228 0.728516 10 0.728516C4.47715 0.728516 0 5.20567 0 10.7285C0 16.2514 4.47715 20.7285 10 20.7285Z" fill="#B59A32"/>
<path d="M17.6725 15.4562L8.66075 7.19218L8.5696 7.43103L10.0279 13.1329C9.54691 13.0916 8.98998 12.7022 8.60152 12.4187C5.82595 10.3939 4.80018 5.50833 8.97883 4.48218C10.1944 4.18372 11.2388 4.28333 12.4071 4.70026C12.8906 4.87276 13.329 5.13026 13.7908 5.34564C13.6875 4.86237 13.2088 4.54564 12.825 4.28237C7.76114 0.811987 0.797292 3.89853 2.60998 10.5129C4.14864 16.1278 11.8863 21.7035 16.939 16.6139C17.1808 16.3704 17.7733 15.7866 17.6725 15.4562ZM13.3523 13.946C12.8917 13.8305 12.4313 13.7149 11.9708 13.5993C11.9106 13.5843 11.8629 13.5383 11.8456 13.4789C11.7198 13.0514 11.5942 12.6237 11.4684 12.1962C11.4575 12.1593 11.5023 12.1316 11.5306 12.1578C12.1494 12.7324 12.7684 13.307 13.3873 13.8814C13.4159 13.9081 13.3904 13.9555 13.3523 13.946Z" fill="#1A1A18"/>
</g>
<defs>
<clipPath id="clip0_74_8720">
<rect width="20" height="20" fill="white" transform="translate(0 0.728516)"/>
</clipPath>
</defs>
</svg>
