<svg width="20" height="21" viewBox="0 0 20 21" fill="none" xmlns="http://www.w3.org/2000/svg">
<g clip-path="url(#clip0_74_8726)">
<path d="M10 20.7285C15.5228 20.7285 20 16.2514 20 10.7285C20 5.20567 15.5228 0.728516 10 0.728516C4.47715 0.728516 0 5.20567 0 10.7285C0 16.2514 4.47715 20.7285 10 20.7285Z" fill="#F3E30C"/>
<path d="M10.7318 10.8601C8.56484 11.4676 6.39811 12.0749 4.23118 12.6824C4.18676 12.6949 4.15138 12.6443 4.1783 12.6068C6.55426 9.30373 8.93022 6.00046 11.3062 2.69739C11.3383 2.65258 11.4085 2.68719 11.3925 2.73989L9.58253 8.75969C9.57157 8.79642 9.60522 8.83104 9.64215 8.82085L15.7866 7.14027C15.8289 7.12873 15.8639 7.1745 15.8416 7.21219C13.5675 11.0587 11.2935 14.9053 9.01926 18.7516C8.9908 18.7999 8.91676 18.7699 8.92965 18.7155C9.55041 16.1164 10.1712 13.5174 10.792 10.9183C10.8006 10.8822 10.7671 10.8499 10.7312 10.8599L10.7318 10.8601Z" fill="#0B0C0C"/>
</g>
<defs>
<clipPath id="clip0_74_8726">
<rect width="20" height="20" fill="white" transform="translate(0 0.728516)"/>
</clipPath>
</defs>
</svg>
