<svg width="20" height="21" viewBox="0 0 20 21" fill="none" xmlns="http://www.w3.org/2000/svg">
<g clip-path="url(#clip0_74_8775)">
<path d="M9.27425 0.752191C11.6615 0.589366 14.1119 1.26844 16.0206 2.72634C22.6327 7.66297 20.642 18.113 12.7282 20.3509C6.35578 22.1453 -0.00467516 17.3134 -4.23582e-05 10.7063C-0.00641246 9.11372 0.369038 7.52001 1.11724 6.11285C2.70609 3.11218 5.86586 0.96093 9.27097 0.752384H9.27444L9.27425 0.752191Z" fill="#9AA1A8"/>
<path d="M14.1856 7.76465L9.99982 15.02L5.81409 7.76465H14.1856Z" fill="#0B0C0C"/>
<path d="M8.56481 16.8539C9.55488 16.8487 10.5449 16.8433 11.5352 16.8381C11.6093 16.8377 11.6771 16.7954 11.7099 16.7291C12.0506 16.0411 12.3915 15.3532 12.7322 14.6652C12.8007 14.5269 12.9949 14.5182 13.0754 14.65C13.3621 15.1191 13.6489 15.5883 13.9356 16.0575C13.9755 16.1229 13.9738 16.2057 13.9309 16.2691C13.4376 17.0013 12.9442 17.7334 12.4508 18.4653C12.4143 18.5194 12.3533 18.552 12.288 18.552L7.78399 18.5514C7.72009 18.5514 7.66025 18.5203 7.62338 18.468L6.0712 16.2587C6.02661 16.1952 6.02333 16.1115 6.06329 16.0452C6.34531 15.5767 6.64606 15.1078 6.93252 14.6392C7.01147 14.5097 7.20103 14.5145 7.27303 14.648C7.6508 15.3491 8.00964 16.0508 8.39127 16.7516C8.42582 16.8151 8.49261 16.8543 8.56481 16.8539Z" fill="#0B0C0C"/>
<path d="M5.13402 5.92493C4.59816 6.75699 4.0623 7.58925 3.52663 8.42131C3.48648 8.48362 3.48494 8.5633 3.52277 8.62716C3.91366 9.28791 4.30456 9.94866 4.69545 10.6094C4.77401 10.7423 4.67537 10.9096 4.52095 10.9052C3.971 10.8893 3.42124 10.8733 2.87128 10.8575C2.79465 10.8554 2.72632 10.8087 2.6964 10.7381C2.35183 9.92531 2.00707 9.11273 1.66251 8.29996C1.63703 8.23996 1.64321 8.17109 1.67872 8.1165L4.137 4.34472C4.17194 4.29128 4.23063 4.2581 4.29452 4.25578L6.99409 4.16125C7.0715 4.15855 7.1435 4.20157 7.17728 4.27122C7.41626 4.76297 7.64539 5.27093 7.88185 5.76635C7.9471 5.90313 7.83977 6.0592 7.68863 6.04666C6.89468 5.98049 6.11058 5.89811 5.31451 5.83541C5.24251 5.82982 5.17321 5.86416 5.13402 5.92493Z" fill="#0B0C0C"/>
<path d="M14.8658 5.92493C15.4017 6.75699 15.9375 7.58925 16.4732 8.42131C16.5134 8.48362 16.5149 8.5633 16.4771 8.62716C16.0862 9.28791 15.6953 9.94866 15.3044 10.6094C15.2258 10.7423 15.3245 10.9096 15.4789 10.9052C16.0288 10.8893 16.5786 10.8733 17.1286 10.8575C17.2052 10.8554 17.2735 10.8087 17.3034 10.7381C17.648 9.92531 17.9928 9.11273 18.3373 8.29996C18.3628 8.23996 18.3566 8.17109 18.3211 8.1165L15.8628 4.34472C15.8279 4.29128 15.7692 4.2581 15.7053 4.25578L13.0057 4.16125C12.9283 4.15855 12.8563 4.20157 12.8226 4.27122C12.5836 4.76297 12.3545 5.27093 12.118 5.76635C12.0527 5.90313 12.1601 6.0592 12.3112 6.04666C13.1052 5.98049 13.8893 5.89811 14.6853 5.83541C14.7573 5.82982 14.8266 5.86416 14.8658 5.92493Z" fill="#0B0C0C"/>
</g>
<defs>
<clipPath id="clip0_74_8775">
<rect width="20" height="20" fill="white" transform="translate(0 0.728516)"/>
</clipPath>
</defs>
</svg>
