<svg width="20" height="21" viewBox="0 0 20 21" fill="none" xmlns="http://www.w3.org/2000/svg">
<g clip-path="url(#clip0_74_8800)">
<path d="M10 20.7285C15.5228 20.7285 20 16.2514 20 10.7285C20 5.20567 15.5228 0.728516 10 0.728516C4.47715 0.728516 0 5.20567 0 10.7285C0 16.2514 4.47715 20.7285 10 20.7285Z" fill="#91549F"/>
<path d="M18.0075 9.25722C16.1292 6.17741 12.9086 3.81761 9.11229 4.28472C7.50613 4.44588 5.95113 5.10914 4.76344 6.07588C3.38459 7.17876 2.35094 8.63626 1.49459 10.187C1.40959 10.3409 1.31882 10.5111 1.25344 10.6666C1.16652 10.8751 1.1394 11.0332 1.17209 11.1982C1.22729 11.4597 1.43306 11.7468 1.60075 11.9997C5.79248 18.3763 13.1798 19.1907 17.9754 12.7422C18.3263 12.2847 18.6088 11.8436 18.7652 11.4697C19.0682 10.752 18.3729 9.86338 18.0096 9.2603L18.0077 9.25741L18.0075 9.25722ZM9.58979 8.23164C11.2311 7.96184 12.4063 9.55587 11.7256 11.0755C11.6056 11.3555 11.4132 11.6209 11.1857 11.8086C10.4844 12.4009 9.40786 12.3865 8.69229 11.8276C8.39652 11.5984 8.15806 11.277 8.02748 10.8715C8.00825 10.8107 8.04979 10.8163 8.09863 10.8293C9.07902 11.0724 9.80267 10.5461 9.99094 9.81203C10.1146 9.33799 10.0059 8.76626 9.60729 8.27588C9.59421 8.25876 9.58632 8.24395 9.58921 8.23376L9.58979 8.23184V8.23164ZM16.9888 11.0993C13.6675 16.6884 7.26229 16.9318 3.41786 11.6599C3.27152 11.4595 3.16671 11.3109 3.11402 11.1822C3.05998 11.0393 3.08382 10.8966 3.13806 10.7216C3.26594 10.3415 3.5494 9.93068 3.78902 9.59838C4.67652 8.33857 5.99959 7.03895 7.48652 6.6078C7.29613 6.79395 6.97517 7.0978 6.77325 7.29395C3.68056 10.6013 7.14402 16.0691 11.4434 14.499C13.7163 13.7343 14.8421 11.1668 14.1292 8.93607C13.8581 8.05741 13.3129 7.24145 12.499 6.63761C12.4756 6.61876 12.4679 6.60511 12.4834 6.59991C12.5979 6.58761 12.7144 6.61876 12.8275 6.65434C12.9096 6.68222 12.9909 6.71818 13.0709 6.75876C14.4109 7.46434 15.5482 8.56088 16.3981 9.80934C16.6113 10.1288 17.0602 10.7343 16.9898 11.0974L16.9892 11.0993H16.9888Z" fill="#090B0D"/>
</g>
<defs>
<clipPath id="clip0_74_8800">
<rect width="20" height="20" fill="white" transform="translate(0 0.728516)"/>
</clipPath>
</defs>
</svg>
