<svg width="20" height="21" viewBox="0 0 20 21" fill="none" xmlns="http://www.w3.org/2000/svg">
<g clip-path="url(#clip0_74_8817)">
<path d="M10 20.7285C15.5228 20.7285 20 16.2514 20 10.7285C20 5.20567 15.5228 0.728516 10 0.728516C4.47715 0.728516 0 5.20567 0 10.7285C0 16.2514 4.47715 20.7285 10 20.7285Z" fill="#2A8CC9"/>
<path d="M14.0038 5.33171C14.5459 5.04691 15.2232 4.79498 15.7755 4.52287C15.8242 4.49575 15.848 4.47537 15.8459 4.46095C15.8448 4.45248 15.8349 4.44595 15.8173 4.44095C15.7028 4.41825 15.553 4.42748 15.4226 4.42845C14.3221 4.4546 13.2265 4.63883 12.1498 4.85921C9.37321 5.47614 6.15629 6.55383 4.62956 9.10575C4.24129 9.77883 4.01494 10.5723 3.99091 11.3723C3.73417 15.6917 9.44783 17.8813 13.103 16.7319C13.5813 16.5829 14.0642 16.3563 14.4574 16.0421C15.9623 14.8494 15.5409 12.8196 14.4784 11.4371C13.7724 10.4671 12.7057 9.39922 12.3594 8.40133C11.884 7.10864 12.7794 6.1096 14.0015 5.33345L14.0038 5.3321V5.33171ZM10.6369 16.0286C10.2482 16.3996 9.13129 16.1211 8.64706 15.9773C8.2461 15.8496 7.87437 15.6354 7.52841 15.3892C7.21667 15.1504 6.87494 14.8881 6.93475 14.4915C7.10994 13.8177 8.29206 14.09 8.92167 14.2629C9.50917 14.4069 11.2476 15.3615 10.639 16.0267L10.6369 16.0288V16.0286Z" fill="#090B0D"/>
</g>
<defs>
<clipPath id="clip0_74_8817">
<rect width="20" height="20" fill="white" transform="translate(0 0.728516)"/>
</clipPath>
</defs>
</svg>
