<svg width="23" height="20" viewBox="0 0 23 20" fill="none" xmlns="http://www.w3.org/2000/svg">
<mask id="path-1-outside-1_76_3514" maskUnits="userSpaceOnUse" x="0.666748" y="4.84766" width="22" height="11" fill="black">
<rect fill="white" x="0.666748" y="4.84766" width="22" height="11"/>
<path d="M3.56057 13.8477H2.3958L5.01298 6.57493H6.28074L8.89793 13.8477H7.73315L5.67705 7.89595H5.62023L3.56057 13.8477ZM3.75588 10.9996H7.53429V11.9229H3.75588V10.9996ZM15.6469 8.93999H14.5389C14.4963 8.70324 14.417 8.49491 14.301 8.31499C14.185 8.13506 14.0429 7.98236 13.8748 7.85689C13.7068 7.73142 13.5185 7.63672 13.3102 7.5728C13.1042 7.50888 12.8853 7.47692 12.6533 7.47692C12.2342 7.47692 11.859 7.58227 11.5275 7.79297C11.1985 8.00367 10.9381 8.31262 10.7463 8.71982C10.5569 9.12701 10.4622 9.62417 10.4622 10.2113C10.4622 10.8031 10.5569 11.3027 10.7463 11.7099C10.9381 12.1171 11.1997 12.4248 11.5311 12.6332C11.8625 12.8415 12.2354 12.9457 12.6497 12.9457C12.8793 12.9457 13.0971 12.9149 13.3031 12.8533C13.5114 12.7894 13.6997 12.6959 13.8677 12.5728C14.0358 12.4497 14.1779 12.2994 14.2939 12.1218C14.4122 11.9419 14.4939 11.7359 14.5389 11.5039L15.6469 11.5075C15.5877 11.8649 15.4729 12.194 15.3024 12.4947C15.1343 12.793 14.9177 13.051 14.6525 13.2688C14.3898 13.4843 14.0891 13.6512 13.7506 13.7695C13.412 13.8879 13.0427 13.9471 12.6426 13.9471C12.0129 13.9471 11.4518 13.7979 10.9594 13.4996C10.4669 13.199 10.0787 12.7693 9.79459 12.2106C9.51287 11.6519 9.372 10.9854 9.372 10.2113C9.372 9.43478 9.51405 8.76835 9.79814 8.212C10.0822 7.65329 10.4705 7.22479 10.9629 6.92649C11.4553 6.62583 12.0152 6.4755 12.6426 6.4755C13.0285 6.4755 13.3883 6.53113 13.7221 6.6424C14.0583 6.7513 14.3602 6.91229 14.6277 7.12536C14.8952 7.33606 15.1166 7.59411 15.2917 7.8995C15.4669 8.20253 15.5853 8.54936 15.6469 8.93999ZM16.9599 13.8477V6.57493H21.5196V7.51953H18.0572V9.73544H21.2816V10.6765H18.0572V12.9031H21.5622V13.8477H16.9599Z"/>
</mask>
<path d="M3.56057 13.8477H2.3958L5.01298 6.57493H6.28074L8.89793 13.8477H7.73315L5.67705 7.89595H5.62023L3.56057 13.8477ZM3.75588 10.9996H7.53429V11.9229H3.75588V10.9996ZM15.6469 8.93999H14.5389C14.4963 8.70324 14.417 8.49491 14.301 8.31499C14.185 8.13506 14.0429 7.98236 13.8748 7.85689C13.7068 7.73142 13.5185 7.63672 13.3102 7.5728C13.1042 7.50888 12.8853 7.47692 12.6533 7.47692C12.2342 7.47692 11.859 7.58227 11.5275 7.79297C11.1985 8.00367 10.9381 8.31262 10.7463 8.71982C10.5569 9.12701 10.4622 9.62417 10.4622 10.2113C10.4622 10.8031 10.5569 11.3027 10.7463 11.7099C10.9381 12.1171 11.1997 12.4248 11.5311 12.6332C11.8625 12.8415 12.2354 12.9457 12.6497 12.9457C12.8793 12.9457 13.0971 12.9149 13.3031 12.8533C13.5114 12.7894 13.6997 12.6959 13.8677 12.5728C14.0358 12.4497 14.1779 12.2994 14.2939 12.1218C14.4122 11.9419 14.4939 11.7359 14.5389 11.5039L15.6469 11.5075C15.5877 11.8649 15.4729 12.194 15.3024 12.4947C15.1343 12.793 14.9177 13.051 14.6525 13.2688C14.3898 13.4843 14.0891 13.6512 13.7506 13.7695C13.412 13.8879 13.0427 13.9471 12.6426 13.9471C12.0129 13.9471 11.4518 13.7979 10.9594 13.4996C10.4669 13.199 10.0787 12.7693 9.79459 12.2106C9.51287 11.6519 9.372 10.9854 9.372 10.2113C9.372 9.43478 9.51405 8.76835 9.79814 8.212C10.0822 7.65329 10.4705 7.22479 10.9629 6.92649C11.4553 6.62583 12.0152 6.4755 12.6426 6.4755C13.0285 6.4755 13.3883 6.53113 13.7221 6.6424C14.0583 6.7513 14.3602 6.91229 14.6277 7.12536C14.8952 7.33606 15.1166 7.59411 15.2917 7.8995C15.4669 8.20253 15.5853 8.54936 15.6469 8.93999ZM16.9599 13.8477V6.57493H21.5196V7.51953H18.0572V9.73544H21.2816V10.6765H18.0572V12.9031H21.5622V13.8477H16.9599Z" fill="#CA016B"/>
<path d="M3.56057 13.8477V14.8477H4.27269L4.50558 14.1747L3.56057 13.8477ZM2.3958 13.8477L1.45487 13.5091L0.973153 14.8477H2.3958V13.8477ZM5.01298 6.57493V5.57493H4.31007L4.07206 6.23632L5.01298 6.57493ZM6.28074 6.57493L7.22167 6.23632L6.98366 5.57493H6.28074V6.57493ZM8.89793 13.8477V14.8477H10.3206L9.83886 13.5091L8.89793 13.8477ZM7.73315 13.8477L6.78797 14.1742L7.02063 14.8477H7.73315V13.8477ZM5.67705 7.89595L6.62223 7.56942L6.38957 6.89595H5.67705V7.89595ZM5.62023 7.89595V6.89595H4.9081L4.67522 7.56892L5.62023 7.89595ZM3.75588 10.9996V9.99964H2.75588V10.9996H3.75588ZM7.53429 10.9996H8.53429V9.99964H7.53429V10.9996ZM7.53429 11.9229V12.9229H8.53429V11.9229H7.53429ZM3.75588 11.9229H2.75588V12.9229H3.75588V11.9229ZM3.56057 13.8477V12.8477H2.3958V13.8477V14.8477H3.56057V13.8477ZM2.3958 13.8477L3.33672 14.1863L5.95391 6.91353L5.01298 6.57493L4.07206 6.23632L1.45487 13.5091L2.3958 13.8477ZM5.01298 6.57493V7.57493H6.28074V6.57493V5.57493H5.01298V6.57493ZM6.28074 6.57493L5.33981 6.91353L7.957 14.1863L8.89793 13.8477L9.83886 13.5091L7.22167 6.23632L6.28074 6.57493ZM8.89793 13.8477V12.8477H7.73315V13.8477V14.8477H8.89793V13.8477ZM7.73315 13.8477L8.67834 13.5211L6.62223 7.56942L5.67705 7.89595L4.73186 8.22248L6.78797 14.1742L7.73315 13.8477ZM5.67705 7.89595V6.89595H5.62023V7.89595V8.89595H5.67705V7.89595ZM5.62023 7.89595L4.67522 7.56892L2.61556 13.5206L3.56057 13.8477L4.50558 14.1747L6.56524 8.22298L5.62023 7.89595ZM3.75588 10.9996V11.9996H7.53429V10.9996V9.99964H3.75588V10.9996ZM7.53429 10.9996H6.53429V11.9229H7.53429H8.53429V10.9996H7.53429ZM7.53429 11.9229V10.9229H3.75588V11.9229V12.9229H7.53429V11.9229ZM3.75588 11.9229H4.75588V10.9996H3.75588H2.75588V11.9229H3.75588ZM15.6469 8.93999V9.93999H16.8168L16.6347 8.78433L15.6469 8.93999ZM14.5389 8.93999L13.5547 9.11714L13.7028 9.93999H14.5389V8.93999ZM13.8748 7.85689L14.473 7.05554L14.473 7.05554L13.8748 7.85689ZM13.3102 7.5728L13.0138 8.52787L13.0169 8.52881L13.3102 7.5728ZM11.5275 7.79297L10.9911 6.94905L10.9883 6.95081L11.5275 7.79297ZM10.7463 8.71982L9.84158 8.29376L9.83957 8.29808L10.7463 8.71982ZM10.7463 11.7099L9.83956 12.1316L9.84159 12.1359L10.7463 11.7099ZM11.5311 12.6332L10.9989 13.4798L11.5311 12.6332ZM13.3031 12.8533L13.5895 13.8115L13.5964 13.8094L13.3031 12.8533ZM13.8677 12.5728L13.2769 11.766L13.8677 12.5728ZM14.2939 12.1218L13.4585 11.5722L13.4567 11.5749L14.2939 12.1218ZM14.5389 11.5039L14.5421 10.5039L13.7147 10.5013L13.5572 11.3136L14.5389 11.5039ZM15.6469 11.5075L16.6334 11.6708L16.8254 10.5112L15.6501 10.5075L15.6469 11.5075ZM15.3024 12.4947L14.4325 12.0015L14.4312 12.0038L15.3024 12.4947ZM14.6525 13.2688L15.2865 14.0422L15.2873 14.0415L14.6525 13.2688ZM13.7506 13.7695L14.0806 14.7135L13.7506 13.7695ZM10.9594 13.4996L10.4382 14.3531L10.4412 14.355L10.9594 13.4996ZM9.79459 12.2106L8.90168 12.6608L8.9032 12.6638L9.79459 12.2106ZM9.79814 8.212L10.6887 8.66678L10.6895 8.66525L9.79814 8.212ZM10.9629 6.92649L11.481 7.7818L11.484 7.77998L10.9629 6.92649ZM13.7221 6.6424L13.4059 7.59112L13.414 7.59373L13.7221 6.6424ZM14.6277 7.12536L14.0047 7.90758L14.0089 7.91095L14.6277 7.12536ZM15.2917 7.8995L14.4243 8.39709L14.426 8.40001L15.2917 7.8995ZM15.6469 8.93999V7.93999H14.5389V8.93999V9.93999H15.6469V8.93999ZM14.5389 8.93999L15.5231 8.76283C15.46 8.41225 15.3373 8.07685 15.1414 7.77311L14.301 8.31499L13.4605 8.85686C13.4967 8.91297 13.5326 8.99424 13.5547 9.11714L14.5389 8.93999ZM14.301 8.31499L15.1414 7.77311C14.9622 7.49504 14.7387 7.25385 14.473 7.05554L13.8748 7.85689L13.2767 8.65824C13.3472 8.71088 13.4078 8.77508 13.4605 8.85686L14.301 8.31499ZM13.8748 7.85689L14.473 7.05554C14.2094 6.85874 13.9173 6.71305 13.6035 6.61678L13.3102 7.5728L13.0169 8.52881C13.1198 8.56039 13.2041 8.60409 13.2767 8.65824L13.8748 7.85689ZM13.3102 7.5728L13.6066 6.61773C13.2977 6.52185 12.9782 6.47692 12.6533 6.47692V7.47692V8.47692C12.7924 8.47692 12.9108 8.4959 13.0138 8.52786L13.3102 7.5728ZM12.6533 7.47692V6.47692C12.0575 6.47692 11.4937 6.62951 10.9911 6.94906L11.5275 7.79297L12.064 8.63688C12.2242 8.53503 12.411 8.47692 12.6533 8.47692V7.47692ZM11.5275 7.79297L10.9883 6.95081C10.4778 7.27772 10.1011 7.74265 9.84159 8.29376L10.7463 8.71982L11.651 9.14587C11.775 8.88259 11.9192 8.72962 12.0668 8.63513L11.5275 7.79297ZM10.7463 8.71982L9.83957 8.29808C9.5729 8.87142 9.4622 9.52137 9.4622 10.2113H10.4622H11.4622C11.4622 9.72697 11.5409 9.3826 11.653 9.14155L10.7463 8.71982ZM10.4622 10.2113H9.4622C9.4622 10.9046 9.57247 11.5573 9.83957 12.1316L10.7463 11.7099L11.653 11.2881C11.5413 11.048 11.4622 10.7017 11.4622 10.2113H10.4622ZM10.7463 11.7099L9.84159 12.1359C10.1023 12.6895 10.4825 13.1552 10.9989 13.4798L11.5311 12.6332L12.0633 11.7865C11.9168 11.6945 11.7738 11.5446 11.651 11.2838L10.7463 11.7099ZM11.5311 12.6332L10.9989 13.4798C11.4992 13.7943 12.0586 13.9457 12.6497 13.9457V12.9457V11.9457C12.4122 11.9457 12.2258 11.8887 12.0633 11.7865L11.5311 12.6332ZM12.6497 12.9457V13.9457C12.9697 13.9457 13.2844 13.9026 13.5894 13.8115L13.3031 12.8533L13.0168 11.8952C12.9098 11.9272 12.789 11.9457 12.6497 11.9457V12.9457ZM13.3031 12.8533L13.5964 13.8094C13.9066 13.7142 14.1963 13.5717 14.4586 13.3796L13.8677 12.5728L13.2769 11.766C13.203 11.8201 13.1163 11.8647 13.0098 11.8973L13.3031 12.8533ZM13.8677 12.5728L14.4586 13.3796C14.7255 13.1841 14.9504 12.9452 15.131 12.6688L14.2939 12.1218L13.4567 11.5749C13.4053 11.6535 13.3461 11.7153 13.2769 11.766L13.8677 12.5728ZM14.2939 12.1218L15.1293 12.6714C15.3261 12.3723 15.4532 12.0419 15.5206 11.6942L14.5389 11.5039L13.5572 11.3136C13.5346 11.4299 13.4984 11.5115 13.4585 11.5722L14.2939 12.1218ZM14.5389 11.5039L14.5357 12.5039L15.6437 12.5075L15.6469 11.5075L15.6501 10.5075L14.5421 10.5039L14.5389 11.5039ZM15.6469 11.5075L14.6603 11.3441C14.6194 11.5913 14.5422 11.808 14.4325 12.0015L15.3024 12.4947L16.1723 12.9879C16.4035 12.5801 16.556 12.1386 16.6334 11.6708L15.6469 11.5075ZM15.3024 12.4947L14.4312 12.0038C14.324 12.1941 14.1876 12.3566 14.0178 12.4961L14.6525 13.2688L15.2873 14.0415C15.6478 13.7454 15.9447 13.3919 16.1736 12.9856L15.3024 12.4947ZM14.6525 13.2688L14.0185 12.4955C13.8512 12.6326 13.6547 12.7437 13.4205 12.8256L13.7506 13.7695L14.0806 14.7135C14.5235 14.5586 14.9283 14.3359 15.2865 14.0422L14.6525 13.2688ZM13.7506 13.7695L13.4205 12.8256C13.1996 12.9028 12.9432 12.9471 12.6426 12.9471V13.9471V14.9471C13.1422 14.9471 13.6245 14.873 14.0806 14.7135L13.7506 13.7695ZM12.6426 13.9471V12.9471C12.1778 12.9471 11.7992 12.8392 11.4775 12.6443L10.9594 13.4996L10.4412 14.355C11.1044 14.7567 11.8479 14.9471 12.6426 14.9471V13.9471ZM10.9594 13.4996L11.4805 12.6462C11.1598 12.4503 10.8936 12.1657 10.686 11.7573L9.79459 12.2106L8.9032 12.6638C9.26374 13.3729 9.77412 13.9476 10.4382 14.3531L10.9594 13.4996ZM9.79459 12.2106L10.6875 11.7603C10.4909 11.3705 10.372 10.8654 10.372 10.2113H9.372H8.372C8.372 11.1054 8.53481 11.9332 8.90168 12.6608L9.79459 12.2106ZM9.372 10.2113H10.372C10.372 9.55522 10.4919 9.05221 10.6887 8.66678L9.79814 8.212L8.90754 7.75723C8.53617 8.48448 8.372 9.31434 8.372 10.2113H9.372ZM9.79814 8.212L10.6895 8.66525C10.8969 8.25745 11.1621 7.97498 11.481 7.7818L10.9629 6.92649L10.4448 6.07118C9.77884 6.4746 9.26758 7.04913 8.90675 7.75876L9.79814 8.212ZM10.9629 6.92649L11.484 7.77998C11.8059 7.58345 12.1825 7.4755 12.6426 7.4755V6.4755V5.4755C11.848 5.4755 11.1048 5.66821 10.4418 6.07301L10.9629 6.92649ZM12.6426 6.4755V7.4755C12.9314 7.4755 13.1834 7.51693 13.4059 7.59108L13.7221 6.6424L14.0384 5.69372C13.5932 5.54534 13.1256 5.4755 12.6426 5.4755V6.4755ZM13.7221 6.6424L13.414 7.59373C13.6398 7.66687 13.8342 7.77181 14.0047 7.90757L14.6277 7.12536L15.2507 6.34314C14.8861 6.05276 14.4769 5.83573 14.0303 5.69107L13.7221 6.6424ZM14.6277 7.12536L14.0089 7.91095C14.1725 8.03976 14.3106 8.19889 14.4243 8.39709L15.2917 7.8995L16.1592 7.40192C15.9225 6.98932 15.6179 6.63236 15.2464 6.33976L14.6277 7.12536ZM15.2917 7.8995L14.426 8.40001C14.5322 8.58367 14.6142 8.81085 14.659 9.09564L15.6469 8.93999L16.6347 8.78433C16.5564 8.28787 16.4017 7.8214 16.1575 7.399L15.2917 7.8995ZM16.9599 13.8477H15.9599V14.8477H16.9599V13.8477ZM16.9599 6.57493V5.57493H15.9599V6.57493H16.9599ZM21.5196 6.57493H22.5196V5.57493H21.5196V6.57493ZM21.5196 7.51953V8.51953H22.5196V7.51953H21.5196ZM18.0572 7.51953V6.51953H17.0572V7.51953H18.0572ZM18.0572 9.73544H17.0572V10.7354H18.0572V9.73544ZM21.2816 9.73544H22.2816V8.73544H21.2816V9.73544ZM21.2816 10.6765V11.6765H22.2816V10.6765H21.2816ZM18.0572 10.6765V9.67649H17.0572V10.6765H18.0572ZM18.0572 12.9031H17.0572V13.9031H18.0572V12.9031ZM21.5622 12.9031H22.5622V11.9031H21.5622V12.9031ZM21.5622 13.8477V14.8477H22.5622V13.8477H21.5622ZM16.9599 13.8477H17.9599V6.57493H16.9599H15.9599V13.8477H16.9599ZM16.9599 6.57493V7.57493H21.5196V6.57493V5.57493H16.9599V6.57493ZM21.5196 6.57493H20.5196V7.51953H21.5196H22.5196V6.57493H21.5196ZM21.5196 7.51953V6.51953H18.0572V7.51953V8.51953H21.5196V7.51953ZM18.0572 7.51953H17.0572V9.73544H18.0572H19.0572V7.51953H18.0572ZM18.0572 9.73544V10.7354H21.2816V9.73544V8.73544H18.0572V9.73544ZM21.2816 9.73544H20.2816V10.6765H21.2816H22.2816V9.73544H21.2816ZM21.2816 10.6765V9.67649H18.0572V10.6765V11.6765H21.2816V10.6765ZM18.0572 10.6765H17.0572V12.9031H18.0572H19.0572V10.6765H18.0572ZM18.0572 12.9031V13.9031H21.5622V12.9031V11.9031H18.0572V12.9031ZM21.5622 12.9031H20.5622V13.8477H21.5622H22.5622V12.9031H21.5622ZM21.5622 13.8477V12.8477H16.9599V13.8477V14.8477H21.5622V13.8477Z" fill="white" mask="url(#path-1-outside-1_76_3514)"/>
</svg>
