<svg width="21" height="20" viewBox="0 0 21 20" fill="none" xmlns="http://www.w3.org/2000/svg">
<mask id="path-1-outside-1_76_3511" maskUnits="userSpaceOnUse" x="1" y="3" width="20" height="13" fill="black">
<rect fill="white" x="1" y="3" width="20" height="13"/>
<path d="M2.59517 15V4.81818H6.22443C7.01326 4.81818 7.66785 4.95407 8.18821 5.22585C8.71188 5.49763 9.10298 5.87382 9.36151 6.3544C9.62003 6.83168 9.74929 7.38352 9.74929 8.00994C9.74929 8.63305 9.61837 9.18158 9.35653 9.65554C9.09801 10.1262 8.70691 10.4924 8.18324 10.7543C7.66288 11.0161 7.00829 11.147 6.21946 11.147H3.47017V9.82457H6.08026C6.57741 9.82457 6.98177 9.75331 7.29332 9.6108C7.60819 9.46828 7.83854 9.26113 7.98438 8.98935C8.13021 8.71757 8.20312 8.3911 8.20312 8.00994C8.20312 7.62547 8.12855 7.29238 7.9794 7.01065C7.83357 6.72893 7.60322 6.51349 7.28835 6.36435C6.9768 6.21188 6.56747 6.13565 6.06037 6.13565H4.13139V15H2.59517ZM7.62145 10.4062L10.1371 15H8.38707L5.92116 10.4062H7.62145ZM11.6186 15V4.81818H15.2479C16.0367 4.81818 16.6913 4.95407 17.2116 5.22585C17.7353 5.49763 18.1264 5.87382 18.3849 6.3544C18.6435 6.83168 18.7727 7.38352 18.7727 8.00994C18.7727 8.63305 18.6418 9.18158 18.38 9.65554C18.1214 10.1262 17.7304 10.4924 17.2067 10.7543C16.6863 11.0161 16.0317 11.147 15.2429 11.147H12.4936V9.82457H15.1037C15.6009 9.82457 16.0052 9.75331 16.3168 9.6108C16.6316 9.46828 16.862 9.26113 17.0078 8.98935C17.1536 8.71757 17.2266 8.3911 17.2266 8.00994C17.2266 7.62547 17.152 7.29238 17.0028 7.01065C16.857 6.72893 16.6267 6.51349 16.3118 6.36435C16.0002 6.21188 15.5909 6.13565 15.0838 6.13565H13.1548V15H11.6186ZM16.6449 10.4062L19.1605 15H17.4105L14.9446 10.4062H16.6449Z"/>
</mask>
<path d="M2.59517 15V4.81818H6.22443C7.01326 4.81818 7.66785 4.95407 8.18821 5.22585C8.71188 5.49763 9.10298 5.87382 9.36151 6.3544C9.62003 6.83168 9.74929 7.38352 9.74929 8.00994C9.74929 8.63305 9.61837 9.18158 9.35653 9.65554C9.09801 10.1262 8.70691 10.4924 8.18324 10.7543C7.66288 11.0161 7.00829 11.147 6.21946 11.147H3.47017V9.82457H6.08026C6.57741 9.82457 6.98177 9.75331 7.29332 9.6108C7.60819 9.46828 7.83854 9.26113 7.98438 8.98935C8.13021 8.71757 8.20312 8.3911 8.20312 8.00994C8.20312 7.62547 8.12855 7.29238 7.9794 7.01065C7.83357 6.72893 7.60322 6.51349 7.28835 6.36435C6.9768 6.21188 6.56747 6.13565 6.06037 6.13565H4.13139V15H2.59517ZM7.62145 10.4062L10.1371 15H8.38707L5.92116 10.4062H7.62145ZM11.6186 15V4.81818H15.2479C16.0367 4.81818 16.6913 4.95407 17.2116 5.22585C17.7353 5.49763 18.1264 5.87382 18.3849 6.3544C18.6435 6.83168 18.7727 7.38352 18.7727 8.00994C18.7727 8.63305 18.6418 9.18158 18.38 9.65554C18.1214 10.1262 17.7304 10.4924 17.2067 10.7543C16.6863 11.0161 16.0317 11.147 15.2429 11.147H12.4936V9.82457H15.1037C15.6009 9.82457 16.0052 9.75331 16.3168 9.6108C16.6316 9.46828 16.862 9.26113 17.0078 8.98935C17.1536 8.71757 17.2266 8.3911 17.2266 8.00994C17.2266 7.62547 17.152 7.29238 17.0028 7.01065C16.857 6.72893 16.6267 6.51349 16.3118 6.36435C16.0002 6.21188 15.5909 6.13565 15.0838 6.13565H13.1548V15H11.6186ZM16.6449 10.4062L19.1605 15H17.4105L14.9446 10.4062H16.6449Z" fill="black"/>
<path d="M2.59517 15H1.59517V16H2.59517V15ZM2.59517 4.81818V3.81818H1.59517V4.81818H2.59517ZM8.18821 5.22585L7.72526 6.11224L7.72757 6.11344L8.18821 5.22585ZM9.36151 6.3544L8.48084 6.82814L8.48221 6.83069L9.36151 6.3544ZM9.35653 9.65554L8.48122 9.17198L8.48006 9.17409L9.35653 9.65554ZM8.18324 10.7543L7.73602 9.85983L7.73375 9.86097L8.18324 10.7543ZM3.47017 11.147H2.47017V12.147H3.47017V11.147ZM3.47017 9.82457V8.82457H2.47017V9.82457H3.47017ZM7.29332 9.6108L6.88096 8.69977L6.87734 8.70143L7.29332 9.6108ZM7.9794 7.01065L7.0913 7.47038L7.09562 7.47854L7.9794 7.01065ZM7.28835 6.36435L6.84876 7.26264L6.86027 7.26809L7.28835 6.36435ZM4.13139 6.13565V5.13565H3.13139V6.13565H4.13139ZM4.13139 15V16H5.13139V15H4.13139ZM7.62145 10.4062L8.49855 9.92594L8.21396 9.40625H7.62145V10.4062ZM10.1371 15V16H11.8248L11.0142 14.5197L10.1371 15ZM8.38707 15L7.50599 15.473L7.7889 16H8.38707V15ZM5.92116 10.4062V9.40625H4.2494L5.04008 10.8792L5.92116 10.4062ZM2.59517 15H3.59517V4.81818H2.59517H1.59517V15H2.59517ZM2.59517 4.81818V5.81818H6.22443V4.81818V3.81818H2.59517V4.81818ZM6.22443 4.81818V5.81818C6.90504 5.81818 7.38836 5.93628 7.72526 6.11224L8.18821 5.22585L8.65116 4.33947C7.94734 3.97187 7.12148 3.81818 6.22443 3.81818V4.81818ZM8.18821 5.22585L7.72757 6.11344C8.08801 6.3005 8.32534 6.53908 8.48084 6.82814L9.36151 6.3544L10.2422 5.88067C9.88062 5.20855 9.33576 4.69476 8.64886 4.33827L8.18821 5.22585ZM9.36151 6.3544L8.48221 6.83069C8.65007 7.14057 8.74929 7.52403 8.74929 8.00994H9.74929H10.7493C10.7493 7.24301 10.59 6.52278 10.2408 5.87812L9.36151 6.3544ZM9.74929 8.00994H8.74929C8.74929 8.48967 8.64966 8.86708 8.48122 9.17198L9.35653 9.65554L10.2318 10.1391C10.5871 9.49608 10.7493 8.77643 10.7493 8.00994H9.74929ZM9.35653 9.65554L8.48006 9.17409C8.32822 9.45052 8.09519 9.68025 7.73603 9.85983L8.18324 10.7543L8.63045 11.6487C9.31864 11.3046 9.8678 10.8018 10.233 10.137L9.35653 9.65554ZM8.18324 10.7543L7.73375 9.86097C7.39325 10.0323 6.90477 10.147 6.21946 10.147V11.147V12.147C7.1118 12.147 7.93251 11.9999 8.63273 11.6475L8.18324 10.7543ZM6.21946 11.147V10.147H3.47017V11.147V12.147H6.21946V11.147ZM3.47017 11.147H4.47017V9.82457H3.47017H2.47017V11.147H3.47017ZM3.47017 9.82457V10.8246H6.08026V9.82457V8.82457H3.47017V9.82457ZM6.08026 9.82457V10.8246C6.66127 10.8246 7.22206 10.7431 7.70931 10.5202L7.29332 9.6108L6.87734 8.70143C6.74148 8.76357 6.49356 8.82457 6.08026 8.82457V9.82457ZM7.29332 9.6108L7.70568 10.5218C8.19531 10.3002 8.60336 9.95076 8.86554 9.46216L7.98438 8.98935L7.10321 8.51653C7.07372 8.5715 7.02107 8.63636 6.88097 8.69977L7.29332 9.6108ZM7.98438 8.98935L8.86554 9.46216C9.1057 9.01459 9.20312 8.51775 9.20312 8.00994H8.20312H7.20312C7.20312 8.26445 7.15472 8.42054 7.10321 8.51653L7.98438 8.98935ZM8.20312 8.00994H9.20312C9.20312 7.49573 9.10287 6.99549 8.86319 6.54277L7.9794 7.01065L7.09562 7.47854C7.15423 7.58926 7.20312 7.75522 7.20312 8.00994H8.20312ZM7.9794 7.01065L8.86747 6.55095C8.61105 6.05558 8.20853 5.6937 7.71644 5.46061L7.28835 6.36435L6.86027 7.26809C6.99791 7.33328 7.05609 7.40227 7.09133 7.47036L7.9794 7.01065ZM7.28835 6.36435L7.72791 5.46613C7.23114 5.22303 6.65484 5.13565 6.06037 5.13565V6.13565V7.13565C6.4801 7.13565 6.72246 7.20074 6.8488 7.26256L7.28835 6.36435ZM6.06037 6.13565V5.13565H4.13139V6.13565V7.13565H6.06037V6.13565ZM4.13139 6.13565H3.13139V15H4.13139H5.13139V6.13565H4.13139ZM4.13139 15V14H2.59517V15V16H4.13139V15ZM7.62145 10.4062L6.74435 10.8866L9.25998 15.4803L10.1371 15L11.0142 14.5197L8.49855 9.92594L7.62145 10.4062ZM10.1371 15V14H8.38707V15V16H10.1371V15ZM8.38707 15L9.26816 14.527L6.80225 9.93329L5.92116 10.4062L5.04008 10.8792L7.50599 15.473L8.38707 15ZM5.92116 10.4062V11.4062H7.62145V10.4062V9.40625H5.92116V10.4062ZM11.6186 15H10.6186V16H11.6186V15ZM11.6186 4.81818V3.81818H10.6186V4.81818H11.6186ZM17.2116 5.22585L16.7487 6.11224L16.751 6.11344L17.2116 5.22585ZM18.3849 6.3544L17.5043 6.82814L17.5057 6.83069L18.3849 6.3544ZM18.38 9.65554L17.5047 9.17198L17.5035 9.17409L18.38 9.65554ZM17.2067 10.7543L16.7595 9.85983L16.7572 9.86097L17.2067 10.7543ZM12.4936 11.147H11.4936V12.147H12.4936V11.147ZM12.4936 9.82457V8.82457H11.4936V9.82457H12.4936ZM16.3168 9.6108L15.9044 8.69977L15.9008 8.70143L16.3168 9.6108ZM17.0028 7.01065L16.1147 7.47038L16.1191 7.47854L17.0028 7.01065ZM16.3118 6.36435L15.8722 7.26264L15.8837 7.26809L16.3118 6.36435ZM13.1548 6.13565V5.13565H12.1548V6.13565H13.1548ZM13.1548 15V16H14.1548V15H13.1548ZM16.6449 10.4062L17.522 9.92594L17.2374 9.40625H16.6449V10.4062ZM19.1605 15V16H20.8483L20.0376 14.5197L19.1605 15ZM17.4105 15L16.5294 15.473L16.8123 16H17.4105V15ZM14.9446 10.4062V9.40625H13.2728L14.0635 10.8792L14.9446 10.4062ZM11.6186 15H12.6186V4.81818H11.6186H10.6186V15H11.6186ZM11.6186 4.81818V5.81818H15.2479V4.81818V3.81818H11.6186V4.81818ZM15.2479 4.81818V5.81818C15.9285 5.81818 16.4118 5.93628 16.7487 6.11224L17.2116 5.22585L17.6746 4.33947C16.9708 3.97187 16.1449 3.81818 15.2479 3.81818V4.81818ZM17.2116 5.22585L16.751 6.11344C17.1114 6.3005 17.3488 6.53908 17.5043 6.82814L18.3849 6.3544L19.2656 5.88067C18.9041 5.20855 18.3592 4.69476 17.6723 4.33827L17.2116 5.22585ZM18.3849 6.3544L17.5057 6.83069C17.6735 7.14057 17.7727 7.52403 17.7727 8.00994H18.7727H19.7727C19.7727 7.24301 19.6134 6.52278 19.2642 5.87812L18.3849 6.3544ZM18.7727 8.00994H17.7727C17.7727 8.48967 17.6731 8.86708 17.5047 9.17198L18.38 9.65554L19.2553 10.1391C19.6105 9.49608 19.7727 8.77643 19.7727 8.00994H18.7727ZM18.38 9.65554L17.5035 9.17409C17.3517 9.45052 17.1186 9.68025 16.7595 9.85983L17.2067 10.7543L17.6539 11.6487C18.3421 11.3046 18.8912 10.8018 19.2564 10.137L18.38 9.65554ZM17.2067 10.7543L16.7572 9.86097C16.4167 10.0323 15.9282 10.147 15.2429 10.147V11.147V12.147C16.1352 12.147 16.956 11.9999 17.6562 11.6475L17.2067 10.7543ZM15.2429 11.147V10.147H12.4936V11.147V12.147H15.2429V11.147ZM12.4936 11.147H13.4936V9.82457H12.4936H11.4936V11.147H12.4936ZM12.4936 9.82457V10.8246H15.1037V9.82457V8.82457H12.4936V9.82457ZM15.1037 9.82457V10.8246C15.6847 10.8246 16.2455 10.7431 16.7327 10.5202L16.3168 9.6108L15.9008 8.70143C15.7649 8.76357 15.517 8.82457 15.1037 8.82457V9.82457ZM16.3168 9.6108L16.7291 10.5218C17.2188 10.3002 17.6268 9.95076 17.889 9.46216L17.0078 8.98935L16.1267 8.51653C16.0972 8.5715 16.0445 8.63636 15.9044 8.69977L16.3168 9.6108ZM17.0078 8.98935L17.889 9.46216C18.1291 9.01459 18.2266 8.51775 18.2266 8.00994H17.2266H16.2266C16.2266 8.26445 16.1782 8.42054 16.1267 8.51653L17.0078 8.98935ZM17.2266 8.00994H18.2266C18.2266 7.49573 18.1263 6.99549 17.8866 6.54277L17.0028 7.01065L16.1191 7.47854C16.1777 7.58926 16.2266 7.75522 16.2266 8.00994H17.2266ZM17.0028 7.01065L17.8909 6.55095C17.6345 6.05558 17.232 5.6937 16.7399 5.46061L16.3118 6.36435L15.8837 7.26809C16.0213 7.33328 16.0795 7.40227 16.1148 7.47036L17.0028 7.01065ZM16.3118 6.36435L16.7513 5.46613C16.2546 5.22303 15.6783 5.13565 15.0838 5.13565V6.13565V7.13565C15.5035 7.13565 15.7459 7.20074 15.8722 7.26256L16.3118 6.36435ZM15.0838 6.13565V5.13565H13.1548V6.13565V7.13565H15.0838V6.13565ZM13.1548 6.13565H12.1548V15H13.1548H14.1548V6.13565H13.1548ZM13.1548 15V14H11.6186V15V16H13.1548V15ZM16.6449 10.4062L15.7678 10.8866L18.2834 15.4803L19.1605 15L20.0376 14.5197L17.522 9.92594L16.6449 10.4062ZM19.1605 15V14H17.4105V15V16H19.1605V15ZM17.4105 15L18.2916 14.527L15.8257 9.93329L14.9446 10.4062L14.0635 10.8792L16.5294 15.473L17.4105 15ZM14.9446 10.4062V11.4062H16.6449V10.4062V9.40625H14.9446V10.4062Z" fill="white" mask="url(#path-1-outside-1_76_3511)"/>
</svg>
