<svg width="21" height="20" viewBox="0 0 21 20" fill="none" xmlns="http://www.w3.org/2000/svg">
<mask id="path-1-outside-1_76_3526" maskUnits="userSpaceOnUse" x="-0.444336" y="3" width="21" height="14" fill="black">
<rect fill="white" x="-0.444336" y="3" width="21" height="14"/>
<path d="M7.54901 4.81818H9.0902V11.5149C9.0902 12.2275 8.92282 12.8589 8.58807 13.4091C8.25331 13.956 7.78267 14.3868 7.17614 14.7017C6.5696 15.0133 5.85867 15.169 5.04332 15.169C4.2313 15.169 3.52202 15.0133 2.91548 14.7017C2.30895 14.3868 1.83831 13.956 1.50355 13.4091C1.1688 12.8589 1.00142 12.2275 1.00142 11.5149V4.81818H2.53764V11.3906C2.53764 11.8513 2.63873 12.2607 2.84091 12.6186C3.0464 12.9766 3.33641 13.2583 3.71094 13.4638C4.08546 13.666 4.52959 13.767 5.04332 13.767C5.56037 13.767 6.00616 13.666 6.38068 13.4638C6.75852 13.2583 7.04688 12.9766 7.24574 12.6186C7.44792 12.2607 7.54901 11.8513 7.54901 11.3906V4.81818ZM11.3237 15V4.81818H14.9529C15.7418 4.81818 16.3964 4.95407 16.9167 5.22585C17.4404 5.49763 17.8315 5.87382 18.09 6.3544C18.3485 6.83168 18.4778 7.38352 18.4778 8.00994C18.4778 8.63305 18.3469 9.18158 18.085 9.65554C17.8265 10.1262 17.4354 10.4924 16.9118 10.7543C16.3914 11.0161 15.7368 11.147 14.948 11.147H12.1987V9.82457H14.8088C15.3059 9.82457 15.7103 9.75331 16.0218 9.6108C16.3367 9.46828 16.5671 9.26113 16.7129 8.98935C16.8587 8.71757 16.9316 8.3911 16.9316 8.00994C16.9316 7.62547 16.8571 7.29238 16.7079 7.01065C16.5621 6.72893 16.3317 6.51349 16.0169 6.36435C15.7053 6.21188 15.296 6.13565 14.7889 6.13565H12.8599V15H11.3237ZM16.35 10.4062L18.8656 15H17.1156L14.6497 10.4062H16.35Z"/>
</mask>
<path d="M7.54901 4.81818H9.0902V11.5149C9.0902 12.2275 8.92282 12.8589 8.58807 13.4091C8.25331 13.956 7.78267 14.3868 7.17614 14.7017C6.5696 15.0133 5.85867 15.169 5.04332 15.169C4.2313 15.169 3.52202 15.0133 2.91548 14.7017C2.30895 14.3868 1.83831 13.956 1.50355 13.4091C1.1688 12.8589 1.00142 12.2275 1.00142 11.5149V4.81818H2.53764V11.3906C2.53764 11.8513 2.63873 12.2607 2.84091 12.6186C3.0464 12.9766 3.33641 13.2583 3.71094 13.4638C4.08546 13.666 4.52959 13.767 5.04332 13.767C5.56037 13.767 6.00616 13.666 6.38068 13.4638C6.75852 13.2583 7.04688 12.9766 7.24574 12.6186C7.44792 12.2607 7.54901 11.8513 7.54901 11.3906V4.81818ZM11.3237 15V4.81818H14.9529C15.7418 4.81818 16.3964 4.95407 16.9167 5.22585C17.4404 5.49763 17.8315 5.87382 18.09 6.3544C18.3485 6.83168 18.4778 7.38352 18.4778 8.00994C18.4778 8.63305 18.3469 9.18158 18.085 9.65554C17.8265 10.1262 17.4354 10.4924 16.9118 10.7543C16.3914 11.0161 15.7368 11.147 14.948 11.147H12.1987V9.82457H14.8088C15.3059 9.82457 15.7103 9.75331 16.0218 9.6108C16.3367 9.46828 16.5671 9.26113 16.7129 8.98935C16.8587 8.71757 16.9316 8.3911 16.9316 8.00994C16.9316 7.62547 16.8571 7.29238 16.7079 7.01065C16.5621 6.72893 16.3317 6.51349 16.0169 6.36435C15.7053 6.21188 15.296 6.13565 14.7889 6.13565H12.8599V15H11.3237ZM16.35 10.4062L18.8656 15H17.1156L14.6497 10.4062H16.35Z" fill="black"/>
<path d="M7.54901 4.81818V3.81818H6.54901V4.81818H7.54901ZM9.0902 4.81818H10.0902V3.81818H9.0902V4.81818ZM8.58807 13.4091L9.44097 13.9312L9.44237 13.9289L8.58807 13.4091ZM7.17614 14.7017L7.63305 15.5912L7.63688 15.5892L7.17614 14.7017ZM2.91548 14.7017L2.45474 15.5892L2.45857 15.5912L2.91548 14.7017ZM1.50355 13.4091L0.64925 13.9289L0.650653 13.9312L1.50355 13.4091ZM1.00142 4.81818V3.81818H0.0014205V4.81818H1.00142ZM2.53764 4.81818H3.53764V3.81818H2.53764V4.81818ZM2.84091 12.6186L1.97018 13.1104L1.97366 13.1165L2.84091 12.6186ZM3.71094 13.4638L3.2299 14.3405L3.23591 14.3437L3.71094 13.4638ZM6.38068 13.4638L6.85571 14.3438L6.85845 14.3423L6.38068 13.4638ZM7.24574 12.6186L6.375 12.1268L6.37158 12.133L7.24574 12.6186ZM7.54901 4.81818V5.81818H9.0902V4.81818V3.81818H7.54901V4.81818ZM9.0902 4.81818H8.0902V11.5149H9.0902H10.0902V4.81818H9.0902ZM9.0902 11.5149H8.0902C8.0902 12.0643 7.96329 12.5121 7.73377 12.8893L8.58807 13.4091L9.44237 13.9289C9.88236 13.2057 10.0902 12.3907 10.0902 11.5149H9.0902ZM8.58807 13.4091L7.73517 12.887C7.50174 13.2684 7.17145 13.5774 6.71539 13.8142L7.17614 14.7017L7.63688 15.5892C8.3939 15.1963 9.00489 14.6436 9.44097 13.9312L8.58807 13.4091ZM7.17614 14.7017L6.71923 13.8122C6.27918 14.0382 5.73063 14.169 5.04332 14.169V15.169V16.169C5.9867 16.169 6.86003 15.9883 7.63305 15.5912L7.17614 14.7017ZM5.04332 15.169V14.169C4.36006 14.169 3.81298 14.0385 3.37239 13.8122L2.91548 14.7017L2.45857 15.5912C3.23105 15.988 4.10253 16.169 5.04332 16.169V15.169ZM2.91548 14.7017L3.37622 13.8142C2.92017 13.5774 2.58988 13.2684 2.35645 12.887L1.50355 13.4091L0.650653 13.9312C1.08673 14.6436 1.69772 15.1963 2.45474 15.5892L2.91548 14.7017ZM1.50355 13.4091L2.35785 12.8893C2.12833 12.5121 2.00142 12.0643 2.00142 11.5149H1.00142H0.0014205C0.0014205 12.3907 0.209262 13.2057 0.649253 13.9289L1.50355 13.4091ZM1.00142 11.5149H2.00142V4.81818H1.00142H0.0014205V11.5149H1.00142ZM1.00142 4.81818V5.81818H2.53764V4.81818V3.81818H1.00142V4.81818ZM2.53764 4.81818H1.53764V11.3906H2.53764H3.53764V4.81818H2.53764ZM2.53764 11.3906H1.53764C1.53764 12.0025 1.67342 12.585 1.9702 13.1104L2.84091 12.6186L3.71162 12.1268C3.60405 11.9364 3.53764 11.7002 3.53764 11.3906H2.53764ZM2.84091 12.6186L1.97366 13.1165C2.27394 13.6396 2.7002 14.0498 3.22991 14.3405L3.71094 13.4638L4.19196 12.5871C3.97262 12.4667 3.81886 12.3136 3.70816 12.1207L2.84091 12.6186ZM3.71094 13.4638L3.23591 14.3437C3.78371 14.6395 4.39786 14.767 5.04332 14.767V13.767V12.767C4.66132 12.767 4.38722 12.6924 4.18597 12.5838L3.71094 13.4638ZM5.04332 13.767V14.767C5.69089 14.767 6.30703 14.6399 6.85571 14.3437L6.38068 13.4638L5.90565 12.5838C5.70528 12.692 5.42985 12.767 5.04332 12.767V13.767ZM6.38068 13.4638L6.85845 14.3423C7.39421 14.0509 7.82411 13.6367 8.1199 13.1043L7.24574 12.6186L6.37158 12.133C6.26964 12.3165 6.12283 12.4657 5.90291 12.5853L6.38068 13.4638ZM7.24574 12.6186L8.11645 13.1104C8.41323 12.585 8.54901 12.0025 8.54901 11.3906H7.54901H6.54901C6.54901 11.7002 6.4826 11.9364 6.37503 12.1268L7.24574 12.6186ZM7.54901 11.3906H8.54901V4.81818H7.54901H6.54901V11.3906H7.54901ZM11.3237 15H10.3237V16H11.3237V15ZM11.3237 4.81818V3.81818H10.3237V4.81818H11.3237ZM16.9167 5.22585L16.4538 6.11224L16.4561 6.11344L16.9167 5.22585ZM18.09 6.3544L17.2094 6.82814L17.2107 6.83069L18.09 6.3544ZM18.0851 9.65554L17.2097 9.17198L17.2086 9.17409L18.0851 9.65554ZM16.9118 10.7543L16.4645 9.85983L16.4623 9.86097L16.9118 10.7543ZM12.1987 11.147H11.1987V12.147H12.1987V11.147ZM12.1987 9.82457V8.82457H11.1987V9.82457H12.1987ZM16.0218 9.6108L15.6095 8.69977L15.6059 8.70143L16.0218 9.6108ZM16.7079 7.01065L15.8198 7.47038L15.8241 7.47854L16.7079 7.01065ZM16.0169 6.36435L15.5773 7.26264L15.5888 7.26809L16.0169 6.36435ZM12.8599 6.13565V5.13565H11.8599V6.13565H12.8599ZM12.8599 15V16H13.8599V15H12.8599ZM16.35 10.4062L17.2271 9.92594L16.9425 9.40625H16.35V10.4062ZM18.8656 15V16H20.5533L19.7427 14.5197L18.8656 15ZM17.1156 15L16.2345 15.473L16.5174 16H17.1156V15ZM14.6497 10.4062V9.40625H12.9779L13.7686 10.8792L14.6497 10.4062ZM11.3237 15H12.3237V4.81818H11.3237H10.3237V15H11.3237ZM11.3237 4.81818V5.81818H14.9529V4.81818V3.81818H11.3237V4.81818ZM14.9529 4.81818V5.81818C15.6336 5.81818 16.1169 5.93628 16.4538 6.11224L16.9167 5.22585L17.3797 4.33947C16.6759 3.97187 15.85 3.81818 14.9529 3.81818V4.81818ZM16.9167 5.22585L16.4561 6.11344C16.8165 6.3005 17.0539 6.53908 17.2094 6.82814L18.09 6.3544L18.9707 5.88067C18.6091 5.20855 18.0643 4.69476 17.3774 4.33827L16.9167 5.22585ZM18.09 6.3544L17.2107 6.83069C17.3786 7.14057 17.4778 7.52403 17.4778 8.00994H18.4778H19.4778C19.4778 7.24301 19.3185 6.52278 18.9693 5.87812L18.09 6.3544ZM18.4778 8.00994H17.4778C17.4778 8.48967 17.3782 8.86708 17.2097 9.17198L18.0851 9.65554L18.9604 10.1391C19.3156 9.49608 19.4778 8.77643 19.4778 8.00994H18.4778ZM18.0851 9.65554L17.2086 9.17409C17.0567 9.45052 16.8237 9.68025 16.4645 9.85983L16.9118 10.7543L17.359 11.6487C18.0472 11.3046 18.5963 10.8018 18.9615 10.137L18.0851 9.65554ZM16.9118 10.7543L16.4623 9.86097C16.1218 10.0323 15.6333 10.147 14.948 10.147V11.147V12.147C15.8403 12.147 16.661 11.9999 17.3612 11.6475L16.9118 10.7543ZM14.948 11.147V10.147H12.1987V11.147V12.147H14.948V11.147ZM12.1987 11.147H13.1987V9.82457H12.1987H11.1987V11.147H12.1987ZM12.1987 9.82457V10.8246H14.8088V9.82457V8.82457H12.1987V9.82457ZM14.8088 9.82457V10.8246C15.3898 10.8246 15.9506 10.7431 16.4378 10.5202L16.0218 9.6108L15.6059 8.70143C15.47 8.76357 15.2221 8.82457 14.8088 8.82457V9.82457ZM16.0218 9.6108L16.4342 10.5218C16.9238 10.3002 17.3319 9.95076 17.5941 9.46216L16.7129 8.98935L15.8317 8.51653C15.8022 8.5715 15.7496 8.63636 15.6095 8.69977L16.0218 9.6108ZM16.7129 8.98935L17.5941 9.46216C17.8342 9.01459 17.9316 8.51775 17.9316 8.00994H16.9316H15.9316C15.9316 8.26445 15.8832 8.42054 15.8317 8.51653L16.7129 8.98935ZM16.9316 8.00994H17.9316C17.9316 7.49573 17.8314 6.99549 17.5917 6.54277L16.7079 7.01065L15.8241 7.47854C15.8827 7.58926 15.9316 7.75522 15.9316 8.00994H16.9316ZM16.7079 7.01065L17.596 6.55095C17.3396 6.05558 16.937 5.6937 16.445 5.46061L16.0169 6.36435L15.5888 7.26809C15.7264 7.33328 15.7846 7.40227 15.8198 7.47036L16.7079 7.01065ZM16.0169 6.36435L16.4564 5.46613C15.9597 5.22303 15.3834 5.13565 14.7889 5.13565V6.13565V7.13565C15.2086 7.13565 15.451 7.20074 15.5773 7.26256L16.0169 6.36435ZM14.7889 6.13565V5.13565H12.8599V6.13565V7.13565H14.7889V6.13565ZM12.8599 6.13565H11.8599V15H12.8599H13.8599V6.13565H12.8599ZM12.8599 15V14H11.3237V15V16H12.8599V15ZM16.35 10.4062L15.4729 10.8866L17.9885 15.4803L18.8656 15L19.7427 14.5197L17.2271 9.92594L16.35 10.4062ZM18.8656 15V14H17.1156V15V16H18.8656V15ZM17.1156 15L17.9967 14.527L15.5308 9.93329L14.6497 10.4062L13.7686 10.8792L16.2345 15.473L17.1156 15ZM14.6497 10.4062V11.4062H16.35V10.4062V9.40625H14.6497V10.4062Z" fill="white" mask="url(#path-1-outside-1_76_3526)"/>
</svg>
