<svg width="24" height="20" viewBox="0 0 24 20" fill="none" xmlns="http://www.w3.org/2000/svg">
<rect x="1.28052" y="5.28027" width="21.439" height="9.43902" rx="1.71951" fill="black"/>
<rect x="1.28052" y="5.28027" width="21.439" height="9.43902" rx="1.71951" stroke="white"/>
<mask id="path-2-outside-1_76_3535" maskUnits="userSpaceOnUse" x="3" y="7" width="18" height="7" fill="black">
<rect fill="white" x="3" y="7" width="18" height="7"/>
<path d="M3.87548 7.48361H4.85442C5.32603 7.48361 5.66902 7.60271 5.88338 7.84089C6.09775 8.08146 6.20494 8.46256 6.20494 8.98418C6.20494 9.7178 5.98938 10.1918 5.55826 10.4062C5.34151 10.5038 5.0283 10.5526 4.61862 10.5526V13H3.87548V7.48361ZM4.61862 9.91668C4.92588 9.91668 5.13786 9.85475 5.25457 9.7309C5.37367 9.60466 5.43321 9.38076 5.43321 9.05921C5.43321 8.73052 5.37605 8.48995 5.26172 8.33751C5.14739 8.18507 4.96756 8.10885 4.72223 8.10885H4.61862V9.91668ZM6.77658 7.48361H7.75553C8.16044 7.48361 8.46175 7.58008 8.65944 7.77301C8.90954 8.0231 9.03458 8.40539 9.03458 8.91987C9.03458 9.31526 8.96789 9.63324 8.83451 9.87381C8.70351 10.112 8.51534 10.2597 8.27001 10.3168L9.28468 13H8.53082L7.51972 10.299V13H6.77658V7.48361ZM7.51972 9.9274C7.80793 9.9274 8.01158 9.86071 8.13067 9.72732C8.24976 9.59394 8.30931 9.36885 8.30931 9.05207C8.30931 8.88057 8.29621 8.73409 8.27001 8.61261C8.24619 8.49114 8.20689 8.39229 8.15211 8.31607C8.0997 8.23985 8.03063 8.18388 7.94488 8.14815C7.86152 8.11242 7.76148 8.09456 7.64477 8.09456H7.51972V9.9274ZM12.5609 10.3776C12.5609 11.3518 12.4526 12.0437 12.2358 12.4534C12.0191 12.863 11.6558 13.0679 11.1461 13.0679C10.6102 13.0679 10.2327 12.8476 10.0135 12.4069C9.79678 11.9758 9.68841 11.21 9.68841 10.1096C9.68841 9.12829 9.79559 8.43398 10.01 8.02668C10.2267 7.617 10.5935 7.41216 11.1104 7.41216C11.5725 7.41216 11.9154 7.57055 12.1393 7.88734C12.287 8.09932 12.3942 8.40063 12.4609 8.79125C12.5276 9.1533 12.5609 9.68207 12.5609 10.3776ZM11.7821 10.4562C11.7821 9.50105 11.7392 8.86747 11.6534 8.55545C11.5677 8.24104 11.3926 8.08384 11.1282 8.08384C10.8639 8.08384 10.6876 8.22794 10.5995 8.51615C10.5137 8.80674 10.4708 9.39029 10.4708 10.2668C10.4708 11.0743 10.5161 11.634 10.6066 11.946C10.6995 12.2414 10.8734 12.3891 11.1282 12.3891C11.3783 12.3891 11.5498 12.2509 11.6427 11.9746C11.7356 11.7007 11.7821 11.1946 11.7821 10.4562ZM13.5613 7.48361H14.1973L14.6832 9.73447C14.7427 10.0155 14.7963 10.2978 14.8439 10.5812C14.894 10.8623 14.9392 11.1576 14.9797 11.4673C14.9845 11.4268 14.988 11.3958 14.9904 11.3744C14.9928 11.3506 14.9952 11.3339 14.9976 11.3244L15.1012 10.692L15.1941 10.0917L15.2762 9.69517L15.7086 7.48361H16.3517L16.859 13H16.148L16.023 11.1279C16.0182 11.0326 16.0134 10.9504 16.0087 10.8813C16.0063 10.8123 16.0051 10.7551 16.0051 10.7098L15.9729 9.97027L15.9551 9.29144C15.9551 9.28668 15.9539 9.27715 15.9515 9.26286C15.9515 9.24619 15.9503 9.22475 15.9479 9.19855L15.9301 9.30931C15.911 9.44031 15.8931 9.55464 15.8765 9.6523C15.8622 9.74995 15.8491 9.83213 15.8372 9.89882L15.7443 10.4026L15.7086 10.5919L15.2441 13H14.7439L14.308 10.9206C14.2485 10.6467 14.1949 10.3692 14.1472 10.0882C14.102 9.80474 14.0603 9.50819 14.0222 9.19855L13.8078 13H13.1076L13.5613 7.48361ZM20.2353 10.3776C20.2353 11.3518 20.1269 12.0437 19.9102 12.4534C19.6934 12.863 19.3302 13.0679 18.8205 13.0679C18.2845 13.0679 17.907 12.8476 17.6879 12.4069C17.4711 11.9758 17.3628 11.21 17.3628 10.1096C17.3628 9.12829 17.4699 8.43398 17.6843 8.02668C17.9011 7.617 18.2679 7.41216 18.7847 7.41216C19.2468 7.41216 19.5898 7.57055 19.8137 7.88734C19.9614 8.09932 20.0685 8.40063 20.1352 8.79125C20.2019 9.1533 20.2353 9.68207 20.2353 10.3776ZM19.4564 10.4562C19.4564 9.50105 19.4135 8.86747 19.3278 8.55545C19.242 8.24104 19.067 8.08384 18.8026 8.08384C18.5382 8.08384 18.3619 8.22794 18.2738 8.51615C18.1881 8.80674 18.1452 9.39029 18.1452 10.2668C18.1452 11.0743 18.1905 11.634 18.281 11.946C18.3739 12.2414 18.5477 12.3891 18.8026 12.3891C19.0527 12.3891 19.2242 12.2509 19.3171 11.9746C19.41 11.7007 19.4564 11.1946 19.4564 10.4562Z"/>
</mask>
<path d="M3.87548 7.48361H4.85442C5.32603 7.48361 5.66902 7.60271 5.88338 7.84089C6.09775 8.08146 6.20494 8.46256 6.20494 8.98418C6.20494 9.7178 5.98938 10.1918 5.55826 10.4062C5.34151 10.5038 5.0283 10.5526 4.61862 10.5526V13H3.87548V7.48361ZM4.61862 9.91668C4.92588 9.91668 5.13786 9.85475 5.25457 9.7309C5.37367 9.60466 5.43321 9.38076 5.43321 9.05921C5.43321 8.73052 5.37605 8.48995 5.26172 8.33751C5.14739 8.18507 4.96756 8.10885 4.72223 8.10885H4.61862V9.91668ZM6.77658 7.48361H7.75553C8.16044 7.48361 8.46175 7.58008 8.65944 7.77301C8.90954 8.0231 9.03458 8.40539 9.03458 8.91987C9.03458 9.31526 8.96789 9.63324 8.83451 9.87381C8.70351 10.112 8.51534 10.2597 8.27001 10.3168L9.28468 13H8.53082L7.51972 10.299V13H6.77658V7.48361ZM7.51972 9.9274C7.80793 9.9274 8.01158 9.86071 8.13067 9.72732C8.24976 9.59394 8.30931 9.36885 8.30931 9.05207C8.30931 8.88057 8.29621 8.73409 8.27001 8.61261C8.24619 8.49114 8.20689 8.39229 8.15211 8.31607C8.0997 8.23985 8.03063 8.18388 7.94488 8.14815C7.86152 8.11242 7.76148 8.09456 7.64477 8.09456H7.51972V9.9274ZM12.5609 10.3776C12.5609 11.3518 12.4526 12.0437 12.2358 12.4534C12.0191 12.863 11.6558 13.0679 11.1461 13.0679C10.6102 13.0679 10.2327 12.8476 10.0135 12.4069C9.79678 11.9758 9.68841 11.21 9.68841 10.1096C9.68841 9.12829 9.79559 8.43398 10.01 8.02668C10.2267 7.617 10.5935 7.41216 11.1104 7.41216C11.5725 7.41216 11.9154 7.57055 12.1393 7.88734C12.287 8.09932 12.3942 8.40063 12.4609 8.79125C12.5276 9.1533 12.5609 9.68207 12.5609 10.3776ZM11.7821 10.4562C11.7821 9.50105 11.7392 8.86747 11.6534 8.55545C11.5677 8.24104 11.3926 8.08384 11.1282 8.08384C10.8639 8.08384 10.6876 8.22794 10.5995 8.51615C10.5137 8.80674 10.4708 9.39029 10.4708 10.2668C10.4708 11.0743 10.5161 11.634 10.6066 11.946C10.6995 12.2414 10.8734 12.3891 11.1282 12.3891C11.3783 12.3891 11.5498 12.2509 11.6427 11.9746C11.7356 11.7007 11.7821 11.1946 11.7821 10.4562ZM13.5613 7.48361H14.1973L14.6832 9.73447C14.7427 10.0155 14.7963 10.2978 14.8439 10.5812C14.894 10.8623 14.9392 11.1576 14.9797 11.4673C14.9845 11.4268 14.988 11.3958 14.9904 11.3744C14.9928 11.3506 14.9952 11.3339 14.9976 11.3244L15.1012 10.692L15.1941 10.0917L15.2762 9.69517L15.7086 7.48361H16.3517L16.859 13H16.148L16.023 11.1279C16.0182 11.0326 16.0134 10.9504 16.0087 10.8813C16.0063 10.8123 16.0051 10.7551 16.0051 10.7098L15.9729 9.97027L15.9551 9.29144C15.9551 9.28668 15.9539 9.27715 15.9515 9.26286C15.9515 9.24619 15.9503 9.22475 15.9479 9.19855L15.9301 9.30931C15.911 9.44031 15.8931 9.55464 15.8765 9.6523C15.8622 9.74995 15.8491 9.83213 15.8372 9.89882L15.7443 10.4026L15.7086 10.5919L15.2441 13H14.7439L14.308 10.9206C14.2485 10.6467 14.1949 10.3692 14.1472 10.0882C14.102 9.80474 14.0603 9.50819 14.0222 9.19855L13.8078 13H13.1076L13.5613 7.48361ZM20.2353 10.3776C20.2353 11.3518 20.1269 12.0437 19.9102 12.4534C19.6934 12.863 19.3302 13.0679 18.8205 13.0679C18.2845 13.0679 17.907 12.8476 17.6879 12.4069C17.4711 11.9758 17.3628 11.21 17.3628 10.1096C17.3628 9.12829 17.4699 8.43398 17.6843 8.02668C17.9011 7.617 18.2679 7.41216 18.7847 7.41216C19.2468 7.41216 19.5898 7.57055 19.8137 7.88734C19.9614 8.09932 20.0685 8.40063 20.1352 8.79125C20.2019 9.1533 20.2353 9.68207 20.2353 10.3776ZM19.4564 10.4562C19.4564 9.50105 19.4135 8.86747 19.3278 8.55545C19.242 8.24104 19.067 8.08384 18.8026 8.08384C18.5382 8.08384 18.3619 8.22794 18.2738 8.51615C18.1881 8.80674 18.1452 9.39029 18.1452 10.2668C18.1452 11.0743 18.1905 11.634 18.281 11.946C18.3739 12.2414 18.5477 12.3891 18.8026 12.3891C19.0527 12.3891 19.2242 12.2509 19.3171 11.9746C19.41 11.7007 19.4564 11.1946 19.4564 10.4562Z" fill="white"/>
<path d="M3.87548 7.48361V7.36361H3.75548V7.48361H3.87548ZM5.88338 7.84089L5.97298 7.76106L5.97258 7.76062L5.88338 7.84089ZM5.55826 10.4062L5.60759 10.5156L5.61169 10.5136L5.55826 10.4062ZM4.61862 10.5526V10.4326H4.49862V10.5526H4.61862ZM4.61862 13V13.12H4.73862V13H4.61862ZM3.87548 13H3.75548V13.12H3.87548V13ZM4.61862 9.91668H4.49862V10.0367H4.61862V9.91668ZM5.25457 9.7309L5.16729 9.64855L5.16724 9.6486L5.25457 9.7309ZM4.61862 8.10885V7.98885H4.49862V8.10885H4.61862ZM3.87548 7.48361V7.60361H4.85442V7.48361V7.36361H3.87548V7.48361ZM4.85442 7.48361V7.60361C5.30826 7.60361 5.61156 7.71824 5.79419 7.92117L5.88338 7.84089L5.97258 7.76062C5.72648 7.48717 5.3438 7.36361 4.85442 7.36361V7.48361ZM5.88338 7.84089L5.79379 7.92073C5.97957 8.12921 6.08494 8.47484 6.08494 8.98418H6.20494H6.32494C6.32494 8.45028 6.21594 8.03371 5.97298 7.76106L5.88338 7.84089ZM6.20494 8.98418H6.08494C6.08494 9.69873 5.87589 10.1142 5.50483 10.2987L5.55826 10.4062L5.61169 10.5136C6.10286 10.2694 6.32494 9.73686 6.32494 8.98418H6.20494ZM5.55826 10.4062L5.50897 10.2967C5.31509 10.3841 5.02186 10.4326 4.61862 10.4326V10.5526V10.6726C5.03473 10.6726 5.36794 10.6235 5.60755 10.5156L5.55826 10.4062ZM4.61862 10.5526H4.49862V13H4.61862H4.73862V10.5526H4.61862ZM4.61862 13V12.88H3.87548V13V13.12H4.61862V13ZM3.87548 13H3.99548V7.48361H3.87548H3.75548V13H3.87548ZM4.61862 9.91668V10.0367C4.93444 10.0367 5.18992 9.97448 5.34191 9.81319L5.25457 9.7309L5.16724 9.6486C5.0858 9.73503 4.91732 9.79668 4.61862 9.79668V9.91668ZM5.25457 9.7309L5.34186 9.81324C5.49382 9.65217 5.55321 9.38806 5.55321 9.05921H5.43321H5.31321C5.31321 9.37347 5.25351 9.55715 5.16729 9.64855L5.25457 9.7309ZM5.43321 9.05921H5.55321C5.55321 8.72143 5.49538 8.44906 5.35772 8.26551L5.26172 8.33751L5.16572 8.40951C5.25672 8.53084 5.31321 8.7396 5.31321 9.05921H5.43321ZM5.26172 8.33751L5.35772 8.26551C5.21442 8.07444 4.99341 7.98885 4.72223 7.98885V8.10885V8.22885C4.94171 8.22885 5.08036 8.2957 5.16572 8.40951L5.26172 8.33751ZM4.72223 8.10885V7.98885H4.61862V8.10885V8.22885H4.72223V8.10885ZM4.61862 8.10885H4.49862V9.91668H4.61862H4.73862V8.10885H4.61862ZM6.77658 7.48361V7.36361H6.65658V7.48361H6.77658ZM8.65944 7.77301L8.7443 7.68815L8.74325 7.68713L8.65944 7.77301ZM8.83451 9.87381L8.72956 9.81562L8.72936 9.81598L8.83451 9.87381ZM8.27001 10.3168L8.24278 10.2L8.10928 10.2311L8.15777 10.3593L8.27001 10.3168ZM9.28468 13V13.12H9.45835L9.39692 12.9576L9.28468 13ZM8.53082 13L8.41844 13.0421L8.44761 13.12H8.53082V13ZM7.51972 10.299L7.63211 10.2569L7.39972 10.299H7.51972ZM7.51972 13V13.12H7.63972V13H7.51972ZM6.77658 13H6.65658V13.12H6.77658V13ZM7.51972 9.9274H7.39972V10.0474H7.51972V9.9274ZM8.13067 9.72732L8.04116 9.6474L8.13067 9.72732ZM8.27001 8.61261L8.15223 8.63571L8.15271 8.63792L8.27001 8.61261ZM8.15211 8.31607L8.0532 8.38407L8.05466 8.38611L8.15211 8.31607ZM7.94488 8.14815L7.89761 8.25845L7.89873 8.25892L7.94488 8.14815ZM7.51972 8.09456V7.97456H7.39972V8.09456H7.51972ZM6.77658 7.48361V7.60361H7.75553V7.48361V7.36361H6.77658V7.48361ZM7.75553 7.48361V7.60361C8.14362 7.60361 8.40894 7.69621 8.57563 7.85889L8.65944 7.77301L8.74325 7.68713C8.51456 7.46394 8.17727 7.36361 7.75553 7.36361V7.48361ZM8.65944 7.77301L8.57459 7.85786C8.79368 8.07695 8.91458 8.42275 8.91458 8.91987H9.03458H9.15458C9.15458 8.38804 9.02539 7.96926 8.74429 7.68816L8.65944 7.77301ZM9.03458 8.91987H8.91458C8.91458 9.30325 8.84969 9.59896 8.72956 9.81562L8.83451 9.87381L8.93946 9.932C9.0861 9.66752 9.15458 9.32727 9.15458 8.91987H9.03458ZM8.83451 9.87381L8.72936 9.81598C8.61332 10.027 8.45209 10.1512 8.24278 10.2L8.27001 10.3168L8.29724 10.4337C8.57858 10.3681 8.7937 10.197 8.93965 9.93164L8.83451 9.87381ZM8.27001 10.3168L8.15777 10.3593L9.17244 13.0424L9.28468 13L9.39692 12.9576L8.38225 10.2744L8.27001 10.3168ZM9.28468 13V12.88H8.53082V13V13.12H9.28468V13ZM8.53082 13L8.64321 12.9579L7.63211 10.2569L7.51972 10.299L7.40734 10.341L8.41844 13.0421L8.53082 13ZM7.51972 10.299H7.39972V13H7.51972H7.63972V10.299H7.51972ZM7.51972 13V12.88H6.77658V13V13.12H7.51972V13ZM6.77658 13H6.89658V7.48361H6.77658H6.65658V13H6.77658ZM7.51972 9.9274V10.0474C7.82169 10.0474 8.06757 9.97818 8.22018 9.80725L8.13067 9.72732L8.04116 9.6474C7.95559 9.74324 7.79416 9.8074 7.51972 9.8074V9.9274ZM8.13067 9.72732L8.22018 9.80725C8.36928 9.64025 8.42931 9.37774 8.42931 9.05207H8.30931H8.18931C8.18931 9.35997 8.13024 9.54763 8.04116 9.6474L8.13067 9.72732ZM8.30931 9.05207H8.42931C8.42931 8.87503 8.41584 8.71957 8.38731 8.58731L8.27001 8.61261L8.15271 8.63792C8.17658 8.74861 8.18931 8.88612 8.18931 9.05207H8.30931ZM8.27001 8.61261L8.38777 8.58952C8.36164 8.45627 8.31707 8.33998 8.24955 8.24604L8.15211 8.31607L8.05466 8.38611C8.09671 8.44461 8.13074 8.52601 8.15225 8.6357L8.27001 8.61261ZM8.15211 8.31607L8.25099 8.24809C8.18544 8.15274 8.09802 8.08196 7.99104 8.03738L7.94488 8.14815L7.89873 8.25892C7.96324 8.2858 8.01397 8.32697 8.05322 8.38406L8.15211 8.31607ZM7.94488 8.14815L7.99215 8.03785C7.89023 7.99417 7.77326 7.97456 7.64477 7.97456V8.09456V8.21456C7.7497 8.21456 7.83281 8.23067 7.89761 8.25845L7.94488 8.14815ZM7.64477 8.09456V7.97456H7.51972V8.09456V8.21456H7.64477V8.09456ZM7.51972 8.09456H7.39972V9.9274H7.51972H7.63972V8.09456H7.51972ZM10.0135 12.4069L10.121 12.3535L10.1207 12.353L10.0135 12.4069ZM10.01 8.02668L9.90389 7.97056L9.90377 7.97079L10.01 8.02668ZM12.1393 7.88734L12.2378 7.81874L12.2373 7.81808L12.1393 7.88734ZM12.4609 8.79125L12.3426 8.81145L12.3429 8.81299L12.4609 8.79125ZM11.6534 8.55545L11.5377 8.58702L11.5377 8.58725L11.6534 8.55545ZM10.5995 8.51615L10.4847 8.48106L10.4844 8.48219L10.5995 8.51615ZM10.6066 11.946L10.4913 11.9795L10.4921 11.982L10.6066 11.946ZM11.6427 11.9746L11.5291 11.9361L11.529 11.9364L11.6427 11.9746ZM12.5609 10.3776H12.4409C12.4409 11.3492 12.3318 12.0154 12.1297 12.3972L12.2358 12.4534L12.3419 12.5095C12.5733 12.072 12.6809 11.3543 12.6809 10.3776H12.5609ZM12.2358 12.4534L12.1297 12.3972C12.0309 12.5841 11.9013 12.7198 11.7419 12.8097C11.5818 12.9 11.3849 12.9479 11.1461 12.9479V13.0679V13.1879C11.4171 13.1879 11.6566 13.1334 11.8598 13.0188C12.0636 12.9038 12.224 12.7323 12.3419 12.5095L12.2358 12.4534ZM11.1461 13.0679V12.9479C10.8946 12.9479 10.6882 12.8963 10.5215 12.799C10.3554 12.7021 10.2215 12.5556 10.121 12.3535L10.0135 12.4069L9.90608 12.4604C10.0247 12.6989 10.1891 12.8829 10.4005 13.0063C10.6114 13.1293 10.8617 13.1879 11.1461 13.1879V13.0679ZM10.0135 12.4069L10.1207 12.353C9.91788 11.9495 9.8084 11.2094 9.8084 10.1096H9.68841H9.56841C9.56841 11.2106 9.67567 12.0021 9.90632 12.4608L10.0135 12.4069ZM9.68841 10.1096H9.8084C9.8084 9.13046 9.91645 8.462 10.1161 8.08257L10.01 8.02668L9.90377 7.97079C9.67473 8.40595 9.56841 9.12612 9.56841 10.1096H9.68841ZM10.01 8.02668L10.116 8.0828C10.2147 7.89623 10.345 7.76054 10.5061 7.67056C10.668 7.58018 10.8678 7.53216 11.1104 7.53216V7.41216V7.29216C10.8361 7.29216 10.5941 7.34656 10.3891 7.46102C10.1834 7.57588 10.0219 7.74744 9.90389 7.97056L10.01 8.02668ZM11.1104 7.41216V7.53216C11.542 7.53216 11.8444 7.67798 12.0413 7.9566L12.1393 7.88734L12.2373 7.81808C11.9865 7.46312 11.6029 7.29216 11.1104 7.29216V7.41216ZM12.1393 7.88734L12.0409 7.95593C12.1745 8.14778 12.2774 8.42982 12.3426 8.81145L12.4609 8.79125L12.5792 8.77106C12.5109 8.37143 12.3995 8.05087 12.2378 7.81875L12.1393 7.88734ZM12.4609 8.79125L12.3429 8.81299C12.4076 9.16411 12.4409 9.68415 12.4409 10.3776H12.5609H12.6809C12.6809 9.67999 12.6476 9.14249 12.5789 8.76951L12.4609 8.79125ZM11.7821 10.4562H11.9021C11.9021 9.50368 11.8599 8.85383 11.7691 8.52365L11.6534 8.55545L11.5377 8.58725C11.6185 8.88112 11.6621 9.49841 11.6621 10.4562H11.7821ZM11.6534 8.55545L11.7692 8.52388C11.7225 8.35267 11.6481 8.21134 11.538 8.11246C11.4257 8.0116 11.2861 7.96384 11.1282 7.96384V8.08384V8.20384C11.2348 8.20384 11.3149 8.23468 11.3777 8.29103C11.4426 8.34935 11.4986 8.44382 11.5377 8.58702L11.6534 8.55545ZM11.1282 8.08384V7.96384C10.973 7.96384 10.8347 8.00669 10.7218 8.09902C10.6102 8.19023 10.5335 8.32149 10.4847 8.48106L10.5995 8.51615L10.7142 8.55124C10.7536 8.4226 10.809 8.33771 10.8737 8.28482C10.937 8.23305 11.019 8.20384 11.1282 8.20384V8.08384ZM10.5995 8.51615L10.4844 8.48219C10.3929 8.79203 10.3508 9.39287 10.3508 10.2668H10.4708H10.5908C10.5908 9.38771 10.6345 8.82144 10.7146 8.55011L10.5995 8.51615ZM10.4708 10.2668H10.3508C10.3508 11.0737 10.3956 11.6492 10.4914 11.9795L10.6066 11.946L10.7219 11.9126C10.6366 11.6188 10.5908 11.0748 10.5908 10.2668H10.4708ZM10.6066 11.946L10.4921 11.982C10.543 12.1438 10.6197 12.2769 10.729 12.3698C10.8402 12.4642 10.9759 12.5091 11.1282 12.5091V12.3891V12.2691C11.0257 12.2691 10.947 12.2401 10.8844 12.1868C10.8198 12.132 10.7631 12.0436 10.7211 11.91L10.6066 11.946ZM11.1282 12.3891V12.5091C11.2768 12.5091 11.4098 12.4675 11.5197 12.3789C11.6282 12.2915 11.705 12.1658 11.7565 12.0129L11.6427 11.9746L11.529 11.9364C11.4875 12.0597 11.4322 12.1412 11.3692 12.192C11.3076 12.2416 11.2298 12.2691 11.1282 12.2691V12.3891ZM11.6427 11.9746L11.7564 12.0131C11.8564 11.7182 11.9021 11.1935 11.9021 10.4562H11.7821H11.6621C11.6621 11.1956 11.6148 11.6832 11.5291 11.9361L11.6427 11.9746ZM13.5613 7.48361V7.36361H13.4508L13.4417 7.47378L13.5613 7.48361ZM14.1973 7.48361L14.3146 7.45829L14.2941 7.36361H14.1973V7.48361ZM14.6832 9.73447L14.8006 9.7096L14.8005 9.70915L14.6832 9.73447ZM14.8439 10.5812L14.7256 10.6011L14.7258 10.6022L14.8439 10.5812ZM14.9797 11.4673L14.8607 11.4828L15.0989 11.4813L14.9797 11.4673ZM14.9904 11.3744L15.1097 11.3876L15.1098 11.3863L14.9904 11.3744ZM14.9976 11.3244L15.1144 11.3536L15.116 11.3438L14.9976 11.3244ZM15.1012 10.692L15.2196 10.7114L15.2198 10.7103L15.1012 10.692ZM15.1941 10.0917L15.0764 10.0674L15.0755 10.0734L15.1941 10.0917ZM15.2762 9.69517L15.3938 9.71952L15.394 9.71819L15.2762 9.69517ZM15.7086 7.48361V7.36361H15.6097L15.5908 7.46059L15.7086 7.48361ZM16.3517 7.48361L16.4712 7.47262L16.4611 7.36361H16.3517V7.48361ZM16.859 13V13.12H16.9905L16.9785 12.989L16.859 13ZM16.148 13L16.0283 13.008L16.0358 13.12H16.148V13ZM16.023 11.1279L15.9031 11.1339L15.9032 11.1359L16.023 11.1279ZM16.0087 10.8813L15.8887 10.8855L15.889 10.8896L16.0087 10.8813ZM16.0051 10.7098H16.1252L16.125 10.7046L16.0051 10.7098ZM15.9729 9.97027L15.853 9.97343L15.8531 9.97549L15.9729 9.97027ZM15.9551 9.29144H15.835L15.8351 9.2946L15.9551 9.29144ZM15.9515 9.26286H15.8315V9.27279L15.8331 9.28259L15.9515 9.26286ZM15.9479 9.19855L16.0674 9.18769L15.8295 9.17944L15.9479 9.19855ZM15.9301 9.30931L15.8116 9.2902L15.8113 9.29204L15.9301 9.30931ZM15.8765 9.6523L15.7582 9.63209L15.7577 9.63492L15.8765 9.6523ZM15.8372 9.89882L15.9552 9.92058L15.9553 9.91991L15.8372 9.89882ZM15.7443 10.4026L15.8622 10.4248L15.8623 10.4243L15.7443 10.4026ZM15.7086 10.5919L15.8264 10.6147L15.8265 10.6142L15.7086 10.5919ZM15.2441 13V13.12H15.3432L15.3619 13.0227L15.2441 13ZM14.7439 13L14.6265 13.0246L14.6464 13.12H14.7439V13ZM14.308 10.9206L14.4255 10.896L14.4253 10.8951L14.308 10.9206ZM14.1472 10.0882L14.0287 10.1071L14.0289 10.1082L14.1472 10.0882ZM14.0222 9.19855L14.1413 9.18389L13.9024 9.1918L14.0222 9.19855ZM13.8078 13V13.12H13.9213L13.9276 13.0068L13.8078 13ZM13.1076 13L12.988 12.9902L12.9773 13.12H13.1076V13ZM13.5613 7.48361V7.60361H14.1973V7.48361V7.36361H13.5613V7.48361ZM14.1973 7.48361L14.08 7.50893L14.5659 9.75979L14.6832 9.73447L14.8005 9.70915L14.3146 7.45829L14.1973 7.48361ZM14.6832 9.73447L14.5658 9.75934C14.625 10.0387 14.6782 10.3193 14.7256 10.6011L14.8439 10.5812L14.9623 10.5613C14.9144 10.2762 14.8605 9.99231 14.8006 9.7096L14.6832 9.73447ZM14.8439 10.5812L14.7258 10.6022C14.7755 10.8813 14.8204 11.1749 14.8607 11.4828L14.9797 11.4673L15.0987 11.4517C15.058 11.1404 15.0125 10.8432 14.9621 10.5602L14.8439 10.5812ZM14.9797 11.4673L15.0989 11.4813C15.1037 11.4407 15.1073 11.4095 15.1097 11.3876L14.9904 11.3744L14.8712 11.3611C14.8688 11.3822 14.8653 11.4128 14.8605 11.4533L14.9797 11.4673ZM14.9904 11.3744L15.1098 11.3863C15.1109 11.3755 15.1119 11.3671 15.1128 11.361C15.1137 11.3543 15.1143 11.3524 15.114 11.3535L14.9976 11.3244L14.8812 11.2953C14.8764 11.3142 14.8734 11.3387 14.871 11.3624L14.9904 11.3744ZM14.9976 11.3244L15.116 11.3438L15.2196 10.7114L15.1012 10.692L14.9828 10.6726L14.8791 11.305L14.9976 11.3244ZM15.1012 10.692L15.2198 10.7103L15.3127 10.1101L15.1941 10.0917L15.0755 10.0734L14.9826 10.6736L15.1012 10.692ZM15.1941 10.0917L15.3116 10.1161L15.3938 9.71952L15.2762 9.69517L15.1587 9.67082L15.0766 10.0674L15.1941 10.0917ZM15.2762 9.69517L15.394 9.71819L15.8263 7.50663L15.7086 7.48361L15.5908 7.46059L15.1585 9.67215L15.2762 9.69517ZM15.7086 7.48361V7.60361H16.3517V7.48361V7.36361H15.7086V7.48361ZM16.3517 7.48361L16.2322 7.4946L16.7395 13.011L16.859 13L16.9785 12.989L16.4712 7.47262L16.3517 7.48361ZM16.859 13V12.88H16.148V13V13.12H16.859V13ZM16.148 13L16.2677 12.992L16.1427 11.1199L16.023 11.1279L15.9032 11.1359L16.0283 13.008L16.148 13ZM16.023 11.1279L16.1428 11.1219C16.138 11.0261 16.1332 10.9431 16.1284 10.8731L16.0087 10.8813L15.889 10.8896C15.8937 10.9577 15.8984 11.0391 15.9031 11.1339L16.023 11.1279ZM16.0087 10.8813L16.1286 10.8772C16.1262 10.8089 16.1251 10.7532 16.1251 10.7098H16.0051H15.8851C15.8851 10.757 15.8863 10.8157 15.8887 10.8855L16.0087 10.8813ZM16.0051 10.7098L16.125 10.7046L16.0928 9.96506L15.9729 9.97027L15.8531 9.97549L15.8852 10.7151L16.0051 10.7098ZM15.9729 9.97027L16.0929 9.96712L16.075 9.28829L15.9551 9.29144L15.8351 9.2946L15.853 9.97343L15.9729 9.97027ZM15.9551 9.29144H16.0751C16.0751 9.27506 16.072 9.25566 16.0699 9.24313L15.9515 9.26286L15.8331 9.28259C15.8342 9.28885 15.8348 9.29306 15.8351 9.29561C15.8353 9.29686 15.8353 9.29724 15.8353 9.29694C15.8353 9.29689 15.8351 9.29479 15.8351 9.29144H15.9551ZM15.9515 9.26286H16.0715C16.0715 9.24112 16.07 9.2157 16.0674 9.18769L15.9479 9.19855L15.8284 9.20942C15.8306 9.23381 15.8315 9.25126 15.8315 9.26286H15.9515ZM15.9479 9.19855L15.8295 9.17944L15.8116 9.2902L15.9301 9.30931L16.0485 9.32842L16.0664 9.21766L15.9479 9.19855ZM15.9301 9.30931L15.8113 9.29204C15.7924 9.42236 15.7747 9.53568 15.7582 9.6321L15.8765 9.6523L15.9948 9.67249C16.0116 9.5736 16.0297 9.45826 16.0488 9.32658L15.9301 9.30931ZM15.8765 9.6523L15.7577 9.63492C15.7436 9.73184 15.7307 9.81269 15.719 9.87772L15.8372 9.89882L15.9553 9.91991C15.9675 9.85157 15.9808 9.76807 15.9952 9.66967L15.8765 9.6523ZM15.8372 9.89882L15.7192 9.87706L15.6263 10.3808L15.7443 10.4026L15.8623 10.4243L15.9552 9.92058L15.8372 9.89882ZM15.7443 10.4026L15.6264 10.3803L15.5906 10.5697L15.7086 10.5919L15.8265 10.6142L15.8622 10.4248L15.7443 10.4026ZM15.7086 10.5919L15.5907 10.5692L15.1263 12.9773L15.2441 13L15.3619 13.0227L15.8264 10.6147L15.7086 10.5919ZM15.2441 13V12.88H14.7439V13V13.12H15.2441V13ZM14.7439 13L14.8613 12.9754L14.4255 10.896L14.308 10.9206L14.1906 10.9453L14.6265 13.0246L14.7439 13ZM14.308 10.9206L14.4253 10.8951C14.3661 10.6231 14.3129 10.3474 14.2656 10.0681L14.1472 10.0882L14.0289 10.1082C14.0769 10.3911 14.1308 10.6704 14.1908 10.9461L14.308 10.9206ZM14.1472 10.0882L14.2657 10.0693C14.2207 9.78735 14.1792 9.49223 14.1413 9.18389L14.0222 9.19855L13.9031 9.21321C13.9414 9.52416 13.9832 9.82212 14.0287 10.1071L14.1472 10.0882ZM14.0222 9.19855L13.9024 9.1918L13.688 12.9932L13.8078 13L13.9276 13.0068L14.142 9.20531L14.0222 9.19855ZM13.8078 13V12.88H13.1076V13V13.12H13.8078V13ZM13.1076 13L13.2272 13.0098L13.6809 7.49345L13.5613 7.48361L13.4417 7.47378L12.988 12.9902L13.1076 13ZM17.6879 12.4069L17.7953 12.3535L17.7951 12.353L17.6879 12.4069ZM17.6843 8.02668L17.5782 7.97056L17.5781 7.97079L17.6843 8.02668ZM19.8137 7.88734L19.9122 7.81874L19.9117 7.81808L19.8137 7.88734ZM20.1352 8.79125L20.0169 8.81145L20.0172 8.81299L20.1352 8.79125ZM19.3278 8.55545L19.212 8.58702L19.2121 8.58725L19.3278 8.55545ZM18.2738 8.51615L18.1591 8.48106L18.1587 8.48219L18.2738 8.51615ZM18.281 11.946L18.1657 11.9795L18.1665 11.982L18.281 11.946ZM19.3171 11.9746L19.2034 11.9361L19.2033 11.9364L19.3171 11.9746ZM20.2353 10.3776H20.1153C20.1153 11.3492 20.0061 12.0154 19.8041 12.3972L19.9102 12.4534L20.0162 12.5095C20.2477 12.072 20.3553 11.3543 20.3553 10.3776H20.2353ZM19.9102 12.4534L19.8041 12.3972C19.7052 12.5841 19.5756 12.7198 19.4162 12.8097C19.2562 12.9 19.0592 12.9479 18.8205 12.9479V13.0679V13.1879C19.0914 13.1879 19.3309 13.1334 19.5341 13.0188C19.7379 12.9038 19.8983 12.7323 20.0162 12.5095L19.9102 12.4534ZM18.8205 13.0679V12.9479C18.569 12.9479 18.3625 12.8963 18.1959 12.799C18.0298 12.7021 17.8958 12.5556 17.7953 12.3535L17.6879 12.4069L17.5804 12.4604C17.6991 12.6989 17.8634 12.8829 18.0749 13.0063C18.2857 13.1293 18.536 13.1879 18.8205 13.1879V13.0679ZM17.6879 12.4069L17.7951 12.353C17.5922 11.9495 17.4828 11.2094 17.4828 10.1096H17.3628H17.2428C17.2428 11.2106 17.35 12.0021 17.5807 12.4608L17.6879 12.4069ZM17.3628 10.1096H17.4828C17.4828 9.13046 17.5908 8.462 17.7905 8.08257L17.6843 8.02668L17.5781 7.97079C17.3491 8.40595 17.2428 9.12612 17.2428 10.1096H17.3628ZM17.6843 8.02668L17.7904 8.0828C17.8891 7.89623 18.0194 7.76054 18.1805 7.67056C18.3423 7.58018 18.5421 7.53216 18.7847 7.53216V7.41216V7.29216C18.5105 7.29216 18.2684 7.34656 18.0635 7.46102C17.8578 7.57588 17.6963 7.74744 17.5782 7.97056L17.6843 8.02668ZM18.7847 7.41216V7.53216C19.2163 7.53216 19.5188 7.67798 19.7157 7.9566L19.8137 7.88734L19.9117 7.81808C19.6608 7.46312 19.2773 7.29216 18.7847 7.29216V7.41216ZM19.8137 7.88734L19.7152 7.95593C19.8489 8.14778 19.9518 8.42982 20.017 8.81145L20.1352 8.79125L20.2535 8.77106C20.1853 8.37143 20.0739 8.05087 19.9122 7.81875L19.8137 7.88734ZM20.1352 8.79125L20.0172 8.81299C20.0819 9.16411 20.1153 9.68415 20.1153 10.3776H20.2353H20.3553C20.3553 9.67999 20.322 9.14249 20.2533 8.76951L20.1352 8.79125ZM19.4564 10.4562H19.5764C19.5764 9.50368 19.5342 8.85383 19.4435 8.52365L19.3278 8.55545L19.2121 8.58725C19.2928 8.88112 19.3364 9.49841 19.3364 10.4562H19.4564ZM19.3278 8.55545L19.4436 8.52388C19.3969 8.35267 19.3225 8.21134 19.2124 8.11246C19.1 8.0116 18.9605 7.96384 18.8026 7.96384V8.08384V8.20384C18.9091 8.20384 18.9893 8.23468 19.052 8.29103C19.117 8.34935 19.173 8.44382 19.212 8.58702L19.3278 8.55545ZM18.8026 8.08384V7.96384C18.6474 7.96384 18.5091 8.00669 18.3962 8.09902C18.2846 8.19023 18.2079 8.32149 18.1591 8.48106L18.2738 8.51615L18.3886 8.55124C18.4279 8.4226 18.4834 8.33771 18.5481 8.28482C18.6114 8.23305 18.6934 8.20384 18.8026 8.20384V8.08384ZM18.2738 8.51615L18.1587 8.48219C18.0673 8.79203 18.0252 9.39287 18.0252 10.2668H18.1452H18.2652C18.2652 9.38771 18.3088 8.82144 18.3889 8.55011L18.2738 8.51615ZM18.1452 10.2668H18.0252C18.0252 11.0737 18.0699 11.6492 18.1657 11.9795L18.281 11.946L18.3962 11.9126C18.311 11.6188 18.2652 11.0748 18.2652 10.2668H18.1452ZM18.281 11.946L18.1665 11.982C18.2174 12.1438 18.294 12.2769 18.4034 12.3698C18.5146 12.4642 18.6503 12.5091 18.8026 12.5091V12.3891V12.2691C18.7001 12.2691 18.6214 12.2401 18.5587 12.1868C18.4942 12.132 18.4374 12.0436 18.3954 11.91L18.281 11.946ZM18.8026 12.3891V12.5091C18.9511 12.5091 19.0841 12.4675 19.1941 12.3789C19.3025 12.2915 19.3794 12.1658 19.4308 12.0129L19.3171 11.9746L19.2033 11.9364C19.1619 12.0597 19.1065 12.1412 19.0435 12.192C18.9819 12.2416 18.9042 12.2691 18.8026 12.2691V12.3891ZM19.3171 11.9746L19.4307 12.0131C19.5307 11.7182 19.5764 11.1935 19.5764 10.4562H19.4564H19.3364C19.3364 11.1956 19.2892 11.6832 19.2034 11.9361L19.3171 11.9746Z" fill="white" mask="url(#path-2-outside-1_76_3535)"/>
</svg>
