<svg width="23" height="20" viewBox="0 0 23 20" fill="none" xmlns="http://www.w3.org/2000/svg">
<mask id="path-1-outside-1_76_3453" maskUnits="userSpaceOnUse" x="0" y="5" width="23" height="11" fill="black">
<rect fill="white" y="5" width="23" height="11"/>
<path d="M6.10742 8.63778C6.06954 8.30161 5.91329 8.04119 5.63867 7.85653C5.36405 7.66951 5.01841 7.57599 4.60174 7.57599C4.30344 7.57599 4.0454 7.62334 3.82759 7.71804C3.60979 7.81037 3.44052 7.93821 3.31978 8.10156C3.20141 8.26255 3.14222 8.44602 3.14222 8.65199C3.14222 8.82481 3.18247 8.97396 3.26296 9.09943C3.34582 9.22491 3.45354 9.33026 3.58612 9.41548C3.72106 9.49834 3.86547 9.56818 4.01935 9.625C4.17324 9.67945 4.3212 9.72443 4.46325 9.75994L5.17347 9.9446C5.40548 10.0014 5.64341 10.0784 5.88725 10.1754C6.1311 10.2725 6.35719 10.4003 6.56552 10.5589C6.77385 10.7176 6.94194 10.9141 7.06978 11.1484C7.19999 11.3828 7.26509 11.6634 7.26509 11.9901C7.26509 12.402 7.15856 12.7678 6.94549 13.0874C6.73479 13.407 6.42821 13.6591 6.02575 13.8438C5.62565 14.0284 5.14151 14.1207 4.57333 14.1207C4.02882 14.1207 3.55771 14.0343 3.15998 13.8615C2.76225 13.6887 2.45094 13.4437 2.22603 13.1264C2.00112 12.8068 1.87683 12.428 1.85316 11.9901H2.95401C2.97532 12.2528 3.06055 12.4718 3.20969 12.647C3.36121 12.8198 3.55415 12.9489 3.78853 13.0341C4.02527 13.117 4.28451 13.1584 4.56623 13.1584C4.87636 13.1584 5.15217 13.1098 5.39364 13.0128C5.63749 12.9134 5.82925 12.776 5.96893 12.6009C6.10861 12.4233 6.17844 12.2161 6.17844 11.9794C6.17844 11.764 6.11689 11.5876 5.99379 11.4503C5.87305 11.313 5.70851 11.1993 5.50018 11.1094C5.29421 11.0194 5.06102 10.9401 4.8006 10.8714L3.94123 10.6371C3.35884 10.4785 2.89719 10.2453 2.55629 9.9375C2.21774 9.62973 2.04847 9.22254 2.04847 8.71591C2.04847 8.29687 2.16211 7.93111 2.38938 7.61861C2.61665 7.30611 2.92442 7.06345 3.31268 6.89062C3.70094 6.71544 4.13891 6.62784 4.6266 6.62784C5.11902 6.62784 5.55344 6.71425 5.92987 6.88707C6.30865 7.0599 6.60695 7.29782 6.82475 7.60085C7.04255 7.90151 7.15619 8.24716 7.16566 8.63778H6.10742ZM12.543 8.63778C12.5051 8.30161 12.3488 8.04119 12.0742 7.85653C11.7996 7.66951 11.454 7.57599 11.0373 7.57599C10.739 7.57599 10.4809 7.62334 10.2631 7.71804C10.0453 7.81037 9.87607 7.93821 9.75533 8.10156C9.63696 8.26255 9.57777 8.44602 9.57777 8.65199C9.57777 8.82481 9.61802 8.97396 9.69851 9.09943C9.78137 9.22491 9.88909 9.33026 10.0217 9.41548C10.1566 9.49834 10.301 9.56818 10.4549 9.625C10.6088 9.67945 10.7567 9.72443 10.8988 9.75994L11.609 9.9446C11.841 10.0014 12.079 10.0784 12.3228 10.1754C12.5666 10.2725 12.7927 10.4003 13.0011 10.5589C13.2094 10.7176 13.3775 10.9141 13.5053 11.1484C13.6355 11.3828 13.7006 11.6634 13.7006 11.9901C13.7006 12.402 13.5941 12.7678 13.381 13.0874C13.1703 13.407 12.8638 13.6591 12.4613 13.8438C12.0612 14.0284 11.5771 14.1207 11.0089 14.1207C10.4644 14.1207 9.99325 14.0343 9.59553 13.8615C9.1978 13.6887 8.88648 13.4437 8.66158 13.1264C8.43667 12.8068 8.31238 12.428 8.28871 11.9901H9.38956C9.41087 12.2528 9.49609 12.4718 9.64524 12.647C9.79676 12.8198 9.9897 12.9489 10.2241 13.0341C10.4608 13.117 10.7201 13.1584 11.0018 13.1584C11.3119 13.1584 11.5877 13.1098 11.8292 13.0128C12.073 12.9134 12.2648 12.776 12.4045 12.6009C12.5442 12.4233 12.614 12.2161 12.614 11.9794C12.614 11.764 12.5524 11.5876 12.4293 11.4503C12.3086 11.313 12.1441 11.1993 11.9357 11.1094C11.7298 11.0194 11.4966 10.9401 11.2362 10.8714L10.3768 10.6371C9.79439 10.4785 9.33274 10.2453 8.99183 9.9375C8.65329 9.62973 8.48402 9.22254 8.48402 8.71591C8.48402 8.29687 8.59766 7.93111 8.82493 7.61861C9.0522 7.30611 9.35997 7.06345 9.74822 6.89062C10.1365 6.71544 10.5745 6.62784 11.0621 6.62784C11.5546 6.62784 11.989 6.71425 12.3654 6.88707C12.7442 7.0599 13.0425 7.29782 13.2603 7.60085C13.4781 7.90151 13.5917 8.24716 13.6012 8.63778H12.543ZM15.0119 14V6.72727H17.6042C18.1677 6.72727 18.6352 6.82434 19.0069 7.01847C19.381 7.21259 19.6603 7.4813 19.845 7.82457C20.0297 8.16548 20.122 8.55966 20.122 9.0071C20.122 9.45218 20.0285 9.84399 19.8414 10.1825C19.6568 10.5187 19.3774 10.7803 19.0034 10.9673C18.6317 11.1544 18.1641 11.2479 17.6007 11.2479H15.6369V10.3033H17.5012C17.8564 10.3033 18.1452 10.2524 18.3677 10.1506C18.5926 10.0488 18.7572 9.9008 18.8613 9.70668C18.9655 9.51255 19.0176 9.27936 19.0176 9.0071C19.0176 8.73248 18.9643 8.49455 18.8578 8.29332C18.7536 8.09209 18.5891 7.93821 18.3642 7.83168C18.1416 7.72277 17.8493 7.66832 17.487 7.66832H16.1092V14H15.0119ZM18.6021 10.7188L20.399 14H19.149L17.3876 10.7188H18.6021Z"/>
</mask>
<path d="M6.10742 8.63778C6.06954 8.30161 5.91329 8.04119 5.63867 7.85653C5.36405 7.66951 5.01841 7.57599 4.60174 7.57599C4.30344 7.57599 4.0454 7.62334 3.82759 7.71804C3.60979 7.81037 3.44052 7.93821 3.31978 8.10156C3.20141 8.26255 3.14222 8.44602 3.14222 8.65199C3.14222 8.82481 3.18247 8.97396 3.26296 9.09943C3.34582 9.22491 3.45354 9.33026 3.58612 9.41548C3.72106 9.49834 3.86547 9.56818 4.01935 9.625C4.17324 9.67945 4.3212 9.72443 4.46325 9.75994L5.17347 9.9446C5.40548 10.0014 5.64341 10.0784 5.88725 10.1754C6.1311 10.2725 6.35719 10.4003 6.56552 10.5589C6.77385 10.7176 6.94194 10.9141 7.06978 11.1484C7.19999 11.3828 7.26509 11.6634 7.26509 11.9901C7.26509 12.402 7.15856 12.7678 6.94549 13.0874C6.73479 13.407 6.42821 13.6591 6.02575 13.8438C5.62565 14.0284 5.14151 14.1207 4.57333 14.1207C4.02882 14.1207 3.55771 14.0343 3.15998 13.8615C2.76225 13.6887 2.45094 13.4437 2.22603 13.1264C2.00112 12.8068 1.87683 12.428 1.85316 11.9901H2.95401C2.97532 12.2528 3.06055 12.4718 3.20969 12.647C3.36121 12.8198 3.55415 12.9489 3.78853 13.0341C4.02527 13.117 4.28451 13.1584 4.56623 13.1584C4.87636 13.1584 5.15217 13.1098 5.39364 13.0128C5.63749 12.9134 5.82925 12.776 5.96893 12.6009C6.10861 12.4233 6.17844 12.2161 6.17844 11.9794C6.17844 11.764 6.11689 11.5876 5.99379 11.4503C5.87305 11.313 5.70851 11.1993 5.50018 11.1094C5.29421 11.0194 5.06102 10.9401 4.8006 10.8714L3.94123 10.6371C3.35884 10.4785 2.89719 10.2453 2.55629 9.9375C2.21774 9.62973 2.04847 9.22254 2.04847 8.71591C2.04847 8.29687 2.16211 7.93111 2.38938 7.61861C2.61665 7.30611 2.92442 7.06345 3.31268 6.89062C3.70094 6.71544 4.13891 6.62784 4.6266 6.62784C5.11902 6.62784 5.55344 6.71425 5.92987 6.88707C6.30865 7.0599 6.60695 7.29782 6.82475 7.60085C7.04255 7.90151 7.15619 8.24716 7.16566 8.63778H6.10742ZM12.543 8.63778C12.5051 8.30161 12.3488 8.04119 12.0742 7.85653C11.7996 7.66951 11.454 7.57599 11.0373 7.57599C10.739 7.57599 10.4809 7.62334 10.2631 7.71804C10.0453 7.81037 9.87607 7.93821 9.75533 8.10156C9.63696 8.26255 9.57777 8.44602 9.57777 8.65199C9.57777 8.82481 9.61802 8.97396 9.69851 9.09943C9.78137 9.22491 9.88909 9.33026 10.0217 9.41548C10.1566 9.49834 10.301 9.56818 10.4549 9.625C10.6088 9.67945 10.7567 9.72443 10.8988 9.75994L11.609 9.9446C11.841 10.0014 12.079 10.0784 12.3228 10.1754C12.5666 10.2725 12.7927 10.4003 13.0011 10.5589C13.2094 10.7176 13.3775 10.9141 13.5053 11.1484C13.6355 11.3828 13.7006 11.6634 13.7006 11.9901C13.7006 12.402 13.5941 12.7678 13.381 13.0874C13.1703 13.407 12.8638 13.6591 12.4613 13.8438C12.0612 14.0284 11.5771 14.1207 11.0089 14.1207C10.4644 14.1207 9.99325 14.0343 9.59553 13.8615C9.1978 13.6887 8.88648 13.4437 8.66158 13.1264C8.43667 12.8068 8.31238 12.428 8.28871 11.9901H9.38956C9.41087 12.2528 9.49609 12.4718 9.64524 12.647C9.79676 12.8198 9.9897 12.9489 10.2241 13.0341C10.4608 13.117 10.7201 13.1584 11.0018 13.1584C11.3119 13.1584 11.5877 13.1098 11.8292 13.0128C12.073 12.9134 12.2648 12.776 12.4045 12.6009C12.5442 12.4233 12.614 12.2161 12.614 11.9794C12.614 11.764 12.5524 11.5876 12.4293 11.4503C12.3086 11.313 12.1441 11.1993 11.9357 11.1094C11.7298 11.0194 11.4966 10.9401 11.2362 10.8714L10.3768 10.6371C9.79439 10.4785 9.33274 10.2453 8.99183 9.9375C8.65329 9.62973 8.48402 9.22254 8.48402 8.71591C8.48402 8.29687 8.59766 7.93111 8.82493 7.61861C9.0522 7.30611 9.35997 7.06345 9.74822 6.89062C10.1365 6.71544 10.5745 6.62784 11.0621 6.62784C11.5546 6.62784 11.989 6.71425 12.3654 6.88707C12.7442 7.0599 13.0425 7.29782 13.2603 7.60085C13.4781 7.90151 13.5917 8.24716 13.6012 8.63778H12.543ZM15.0119 14V6.72727H17.6042C18.1677 6.72727 18.6352 6.82434 19.0069 7.01847C19.381 7.21259 19.6603 7.4813 19.845 7.82457C20.0297 8.16548 20.122 8.55966 20.122 9.0071C20.122 9.45218 20.0285 9.84399 19.8414 10.1825C19.6568 10.5187 19.3774 10.7803 19.0034 10.9673C18.6317 11.1544 18.1641 11.2479 17.6007 11.2479H15.6369V10.3033H17.5012C17.8564 10.3033 18.1452 10.2524 18.3677 10.1506C18.5926 10.0488 18.7572 9.9008 18.8613 9.70668C18.9655 9.51255 19.0176 9.27936 19.0176 9.0071C19.0176 8.73248 18.9643 8.49455 18.8578 8.29332C18.7536 8.09209 18.5891 7.93821 18.3642 7.83168C18.1416 7.72277 17.8493 7.66832 17.487 7.66832H16.1092V14H15.0119ZM18.6021 10.7188L20.399 14H19.149L17.3876 10.7188H18.6021Z" fill="black"/>
<path d="M6.10742 8.63778L5.11371 8.74975L5.21377 9.63778H6.10742V8.63778ZM5.63867 7.85653L5.07577 8.68308L5.08067 8.68638L5.63867 7.85653ZM3.82759 7.71804L4.2179 8.63877L4.22632 8.63511L3.82759 7.71804ZM3.31978 8.10156L2.5156 7.50717L2.51413 7.50917L3.31978 8.10156ZM3.26296 9.09943L2.42119 9.63943L2.4285 9.65049L3.26296 9.09943ZM3.58612 9.41548L3.04536 10.2567L3.05405 10.2622L3.06285 10.2677L3.58612 9.41548ZM4.01935 9.625L3.67295 10.5632L3.68578 10.5677L4.01935 9.625ZM4.46325 9.75994L4.71489 8.79208L4.70578 8.7898L4.46325 9.75994ZM5.17347 9.9446L4.92184 10.9124L4.92871 10.9142L4.9356 10.9159L5.17347 9.9446ZM7.06978 11.1484L6.19186 11.6273L6.19562 11.6341L7.06978 11.1484ZM6.94549 13.0874L6.11343 12.5326L6.1106 12.5369L6.94549 13.0874ZM6.02575 13.8438L5.60872 12.9349L5.60669 12.9358L6.02575 13.8438ZM3.15998 13.8615L3.55851 12.9443L3.15998 13.8615ZM2.22603 13.1264L1.40822 13.7019L1.41024 13.7048L2.22603 13.1264ZM1.85316 11.9901V10.9901H0.797647L0.854618 12.044L1.85316 11.9901ZM2.95401 11.9901L3.95074 11.9092L3.87621 10.9901H2.95401V11.9901ZM3.20969 12.647L2.44826 13.2953L2.45297 13.3008L2.45776 13.3063L3.20969 12.647ZM3.78853 13.0341L3.44676 13.974L3.45818 13.9779L3.78853 13.0341ZM5.39364 13.0128L5.76661 13.9406L5.77123 13.9388L5.39364 13.0128ZM5.96893 12.6009L6.75084 13.2243L6.75488 13.2191L5.96893 12.6009ZM5.99379 11.4503L5.24278 12.1107L5.24922 12.1178L5.99379 11.4503ZM5.50018 11.1094L5.09991 12.0258L5.10374 12.0274L5.50018 11.1094ZM4.8006 10.8714L4.53748 11.8362L4.54568 11.8384L4.8006 10.8714ZM3.94123 10.6371L4.20435 9.67231L4.20401 9.67222L3.94123 10.6371ZM2.55629 9.9375L1.88361 10.6774L1.88618 10.6798L2.55629 9.9375ZM2.38938 7.61861L1.58065 7.03044L1.58065 7.03044L2.38938 7.61861ZM3.31268 6.89062L3.71934 7.80422L3.72397 7.80213L3.31268 6.89062ZM5.92987 6.88707L5.51262 7.79587L5.51478 7.79685L5.92987 6.88707ZM6.82475 7.60085L6.01273 8.18449L6.01491 8.18751L6.82475 7.60085ZM7.16566 8.63778V9.63778H8.1902L8.16537 8.61355L7.16566 8.63778ZM6.10742 8.63778L7.10113 8.52582C7.03124 7.90549 6.72101 7.37927 6.19667 7.02669L5.63867 7.85653L5.08067 8.68638C5.09522 8.69616 5.10195 8.7027 5.10396 8.70478C5.10579 8.70666 5.10532 8.70649 5.10433 8.70484C5.10337 8.70323 5.10418 8.70401 5.1059 8.70929C5.10771 8.71486 5.11121 8.7276 5.11371 8.74975L6.10742 8.63778ZM5.63867 7.85653L6.20157 7.03C5.72321 6.70423 5.16804 6.57599 4.60174 6.57599V7.57599V8.57599C4.86877 8.57599 5.00489 8.63479 5.07578 8.68306L5.63867 7.85653ZM4.60174 7.57599V6.57599C4.20021 6.57599 3.80028 6.63949 3.42887 6.80097L3.82759 7.71804L4.22632 8.63511C4.29051 8.6072 4.40668 8.57599 4.60174 8.57599V7.57599ZM3.82759 7.71804L3.4373 6.79735C3.08227 6.94785 2.75906 7.17779 2.5156 7.50717L3.31978 8.10156L4.12396 8.69595C4.12479 8.69482 4.12851 8.6898 4.13996 8.68115C4.15209 8.672 4.17599 8.65649 4.21789 8.63873L3.82759 7.71804ZM3.31978 8.10156L2.51413 7.50917C2.2654 7.84744 2.14222 8.23992 2.14222 8.65199H3.14222H4.14222C4.14222 8.6461 4.14284 8.65289 4.13832 8.66691C4.13625 8.67333 4.13368 8.67941 4.13096 8.68469C4.12826 8.68994 4.1261 8.69305 4.12543 8.69395L3.31978 8.10156ZM3.14222 8.65199H2.14222C2.14222 8.98508 2.22179 9.32843 2.42127 9.63939L3.26296 9.09943L4.10466 8.55948C4.12173 8.58609 4.13228 8.6122 4.13788 8.63294C4.1432 8.65269 4.14222 8.66069 4.14222 8.65199H3.14222ZM3.26296 9.09943L2.4285 9.65049C2.5917 9.89762 2.80152 10.0999 3.04536 10.2567L3.58612 9.41548L4.12687 8.5743C4.10556 8.5606 4.09995 8.55219 4.09743 8.54837L3.26296 9.09943ZM3.58612 9.41548L3.06285 10.2677C3.25576 10.3861 3.45966 10.4843 3.67298 10.5631L4.01935 9.625L4.36573 8.6869C4.27128 8.65203 4.18635 8.61058 4.10938 8.56331L3.58612 9.41548ZM4.01935 9.625L3.68578 10.5677C3.86621 10.6316 4.04464 10.6861 4.22071 10.7301L4.46325 9.75994L4.70578 8.7898C4.59776 8.76279 4.48026 8.72733 4.35293 8.68228L4.01935 9.625ZM4.46325 9.75994L4.21161 10.7278L4.92184 10.9124L5.17347 9.9446L5.42511 8.97678L4.71488 8.79212L4.46325 9.75994ZM5.17347 9.9446L4.9356 10.9159C5.11856 10.9607 5.31238 11.0229 5.51742 11.1045L5.88725 10.1754L6.25709 9.24633C5.97443 9.13382 5.6924 9.04214 5.41134 8.9733L5.17347 9.9446ZM5.88725 10.1754L5.51742 11.1045C5.67712 11.1681 5.82381 11.2511 5.95975 11.3546L6.56552 10.5589L7.17129 9.76331C6.89056 9.54957 6.58507 9.37689 6.25709 9.24633L5.88725 10.1754ZM6.56552 10.5589L5.95975 11.3546C6.05385 11.4262 6.13009 11.514 6.19188 11.6273L7.06978 11.1484L7.94768 10.6696C7.75379 10.3141 7.49385 10.0089 7.17129 9.76331L6.56552 10.5589ZM7.06978 11.1484L6.19562 11.6341C6.22707 11.6907 6.26509 11.7964 6.26509 11.9901H7.26509H8.26509C8.26509 11.5303 8.1729 11.0749 7.94394 10.6628L7.06978 11.1484ZM7.26509 11.9901H6.26509C6.26509 12.2196 6.20896 12.3894 6.11344 12.5327L6.94549 13.0874L7.77754 13.6421C8.10815 13.1461 8.26509 12.5844 8.26509 11.9901H7.26509ZM6.94549 13.0874L6.1106 12.5369C6.0182 12.6771 5.86827 12.8158 5.60872 12.9349L6.02575 13.8438L6.44277 14.7526C6.98814 14.5024 7.45138 14.1368 7.78038 13.6378L6.94549 13.0874ZM6.02575 13.8438L5.60669 12.9358C5.3702 13.0449 5.03709 13.1207 4.57333 13.1207V14.1207V15.1207C5.24593 15.1207 5.8811 15.0119 6.4448 14.7517L6.02575 13.8438ZM4.57333 14.1207V13.1207C4.13205 13.1207 3.80272 13.0505 3.55851 12.9443L3.15998 13.8615L2.76145 14.7787C3.31269 15.0182 3.9256 15.1207 4.57333 15.1207V14.1207ZM3.15998 13.8615L3.55851 12.9443C3.30837 12.8357 3.14933 12.6997 3.04182 12.5481L2.22603 13.1264L1.41024 13.7048C1.75254 14.1876 2.21613 14.5417 2.76145 14.7787L3.15998 13.8615ZM2.22603 13.1264L3.04384 12.5509C2.93974 12.403 2.86652 12.2103 2.8517 11.9361L1.85316 11.9901L0.854618 12.044C0.887145 12.6458 1.06251 13.2106 1.40822 13.7019L2.22603 13.1264ZM1.85316 11.9901V12.9901H2.95401V11.9901V10.9901H1.85316V11.9901ZM2.95401 11.9901L1.95728 12.0709C1.99298 12.5111 2.14385 12.9377 2.44826 13.2953L3.20969 12.647L3.97113 11.9988C3.97047 11.998 3.96883 11.9964 3.96582 11.9887C3.96235 11.9798 3.9545 11.9556 3.95074 11.9092L2.95401 11.9901ZM3.20969 12.647L2.45776 13.3063C2.72952 13.6162 3.06807 13.8362 3.44679 13.9739L3.78853 13.0341L4.13027 12.0943C4.04024 12.0616 3.9929 12.0234 3.96163 11.9878L3.20969 12.647ZM3.78853 13.0341L3.45818 13.9779C3.81332 14.1022 4.18574 14.1584 4.56623 14.1584V13.1584V12.1584C4.38327 12.1584 4.23723 12.1317 4.11888 12.0902L3.78853 13.0341ZM4.56623 13.1584V14.1584C4.98017 14.1584 5.38618 14.0935 5.7666 13.9406L5.39364 13.0128L5.02068 12.0849C4.91816 12.1261 4.77255 12.1584 4.56623 12.1584V13.1584ZM5.39364 13.0128L5.77123 13.9388C6.1456 13.7861 6.48715 13.555 6.75083 13.2243L5.96893 12.6009L5.18703 11.9774C5.17135 11.9971 5.12938 12.0406 5.01606 12.0868L5.39364 13.0128ZM5.96893 12.6009L6.75488 13.2191C7.04021 12.8564 7.17844 12.4288 7.17844 11.9794H6.17844H5.17844C5.17844 11.9893 5.17772 11.9946 5.1775 11.996C5.1773 11.9973 5.17742 11.996 5.17847 11.9928C5.17954 11.9897 5.18095 11.9865 5.18239 11.9839C5.1838 11.9813 5.18436 11.9808 5.18297 11.9826L5.96893 12.6009ZM6.17844 11.9794H7.17844C7.17844 11.5616 7.05311 11.1338 6.73836 10.7827L5.99379 11.4503L5.24922 12.1178C5.22139 12.0868 5.20031 12.05 5.18813 12.0151C5.17675 11.9825 5.17844 11.967 5.17844 11.9794H6.17844ZM5.99379 11.4503L6.74476 10.7899C6.50573 10.5181 6.20879 10.3261 5.89661 10.1913L5.50018 11.1094L5.10374 12.0274C5.20823 12.0726 5.24037 12.1078 5.24282 12.1106L5.99379 11.4503ZM5.50018 11.1094L5.90044 10.193C5.63926 10.0789 5.35621 9.98376 5.05553 9.90449L4.8006 10.8714L4.54568 11.8384C4.76583 11.8964 4.94917 11.9599 5.09991 12.0258L5.50018 11.1094ZM4.8006 10.8714L5.06372 9.90668L4.20435 9.67231L3.94123 10.6371L3.67811 11.6018L4.53749 11.8362L4.8006 10.8714ZM3.94123 10.6371L4.20401 9.67222C3.72725 9.54237 3.42015 9.37016 3.22639 9.19523L2.55629 9.9375L1.88618 10.6798C2.37424 11.1204 2.99044 11.4145 3.67844 11.6019L3.94123 10.6371ZM2.55629 9.9375L3.22896 9.19756C3.12257 9.10084 3.04847 8.97447 3.04847 8.71591H2.04847H1.04847C1.04847 9.47061 1.31292 10.1586 1.88361 10.6774L2.55629 9.9375ZM2.04847 8.71591H3.04847C3.04847 8.48937 3.10579 8.33373 3.19812 8.20678L2.38938 7.61861L1.58065 7.03044C1.21843 7.52849 1.04847 8.10437 1.04847 8.71591H2.04847ZM2.38938 7.61861L3.19812 8.20678C3.31213 8.05001 3.47489 7.91301 3.71933 7.80421L3.31268 6.89062L2.90602 5.97704C2.37395 6.21388 1.92118 6.56221 1.58065 7.03044L2.38938 7.61861ZM3.31268 6.89062L3.72397 7.80213C3.96549 7.69315 4.26023 7.62784 4.6266 7.62784V6.62784V5.62784C4.01759 5.62784 3.43638 5.73772 2.90139 5.97912L3.31268 6.89062ZM4.6266 6.62784V7.62784C5.00184 7.62784 5.28947 7.69342 5.51262 7.79587L5.92987 6.88707L6.34711 5.97828C5.81742 5.73509 5.2362 5.62784 4.6266 5.62784V6.62784ZM5.92987 6.88707L5.51478 7.79685C5.75385 7.90593 5.90796 8.03872 6.01274 8.18449L6.82475 7.60085L7.63677 7.01721C7.30593 6.55693 6.86346 6.21386 6.34495 5.97729L5.92987 6.88707ZM6.82475 7.60085L6.01491 8.18751C6.10754 8.31537 6.16112 8.46253 6.16595 8.66202L7.16566 8.63778L8.16537 8.61355C8.15126 8.03178 7.97757 7.48766 7.63459 7.0142L6.82475 7.60085ZM7.16566 8.63778V7.63778H6.10742V8.63778V9.63778H7.16566V8.63778ZM12.543 8.63778L11.5493 8.74975L11.6493 9.63778H12.543V8.63778ZM12.0742 7.85653L11.5113 8.68308L11.5162 8.68638L12.0742 7.85653ZM10.2631 7.71804L10.6534 8.63877L10.6619 8.63511L10.2631 7.71804ZM9.75533 8.10156L8.95115 7.50717L8.94968 7.50917L9.75533 8.10156ZM9.69851 9.09943L8.85674 9.63943L8.86404 9.65049L9.69851 9.09943ZM10.0217 9.41548L9.4809 10.2567L9.48959 10.2622L9.4984 10.2677L10.0217 9.41548ZM10.4549 9.625L10.1085 10.5632L10.1213 10.5677L10.4549 9.625ZM10.8988 9.75994L11.1504 8.79208L11.1413 8.7898L10.8988 9.75994ZM11.609 9.9446L11.3574 10.9124L11.3643 10.9142L11.3712 10.9159L11.609 9.9446ZM13.5053 11.1484L12.6274 11.6273L12.6312 11.6341L13.5053 11.1484ZM13.381 13.0874L12.549 12.5326L12.5461 12.5369L13.381 13.0874ZM12.4613 13.8438L12.0443 12.9349L12.0422 12.9358L12.4613 13.8438ZM9.59553 13.8615L9.99405 12.9443L9.59553 13.8615ZM8.66158 13.1264L7.84377 13.7019L7.84579 13.7048L8.66158 13.1264ZM8.28871 11.9901V10.9901H7.23319L7.29016 12.044L8.28871 11.9901ZM9.38956 11.9901L10.3863 11.9092L10.3118 10.9901H9.38956V11.9901ZM9.64524 12.647L8.88381 13.2953L8.88852 13.3008L8.8933 13.3063L9.64524 12.647ZM10.2241 13.0341L9.88231 13.974L9.89373 13.9779L10.2241 13.0341ZM11.8292 13.0128L12.2022 13.9406L12.2068 13.9388L11.8292 13.0128ZM12.4045 12.6009L13.1864 13.2243L13.1904 13.2191L12.4045 12.6009ZM12.4293 11.4503L11.6783 12.1107L11.6848 12.1178L12.4293 11.4503ZM11.9357 11.1094L11.5355 12.0258L11.5393 12.0274L11.9357 11.1094ZM11.2362 10.8714L10.973 11.8362L10.9812 11.8384L11.2362 10.8714ZM10.3768 10.6371L10.6399 9.67231L10.6396 9.67222L10.3768 10.6371ZM8.99183 9.9375L8.31916 10.6774L8.32173 10.6798L8.99183 9.9375ZM8.82493 7.61861L8.01619 7.03044V7.03044L8.82493 7.61861ZM9.74822 6.89062L10.1549 7.80422L10.1595 7.80213L9.74822 6.89062ZM12.3654 6.88707L11.9482 7.79587L11.9503 7.79685L12.3654 6.88707ZM13.2603 7.60085L12.4483 8.18449L12.4505 8.18751L13.2603 7.60085ZM13.6012 8.63778V9.63778H14.6257L14.6009 8.61355L13.6012 8.63778ZM12.543 8.63778L13.5367 8.52582C13.4668 7.90549 13.1566 7.37927 12.6322 7.02669L12.0742 7.85653L11.5162 8.68638C11.5308 8.69616 11.5375 8.7027 11.5395 8.70478C11.5413 8.70666 11.5409 8.70649 11.5399 8.70484C11.5389 8.70323 11.5397 8.70401 11.5414 8.70929C11.5433 8.71486 11.5468 8.7276 11.5493 8.74975L12.543 8.63778ZM12.0742 7.85653L12.6371 7.03C12.1588 6.70423 11.6036 6.57599 11.0373 6.57599V7.57599V8.57599C11.3043 8.57599 11.4404 8.63479 11.5113 8.68306L12.0742 7.85653ZM11.0373 7.57599V6.57599C10.6358 6.57599 10.2358 6.63949 9.86441 6.80097L10.2631 7.71804L10.6619 8.63511C10.7261 8.6072 10.8422 8.57599 11.0373 8.57599V7.57599ZM10.2631 7.71804L9.87285 6.79735C9.51782 6.94785 9.1946 7.17779 8.95115 7.50717L9.75533 8.10156L10.5595 8.69595C10.5603 8.69482 10.5641 8.6898 10.5755 8.68115C10.5876 8.672 10.6115 8.65649 10.6534 8.63873L10.2631 7.71804ZM9.75533 8.10156L8.94968 7.50917C8.70095 7.84744 8.57777 8.23992 8.57777 8.65199H9.57777H10.5778C10.5778 8.6461 10.5784 8.65289 10.5739 8.66691C10.5718 8.67333 10.5692 8.67941 10.5665 8.68469C10.5638 8.68994 10.5616 8.69305 10.561 8.69395L9.75533 8.10156ZM9.57777 8.65199H8.57777C8.57777 8.98508 8.65733 9.32843 8.85681 9.63939L9.69851 9.09943L10.5402 8.55948C10.5573 8.58609 10.5678 8.6122 10.5734 8.63294C10.5787 8.65269 10.5778 8.66069 10.5778 8.65199H9.57777ZM9.69851 9.09943L8.86404 9.65049C9.02724 9.89762 9.23707 10.0999 9.4809 10.2567L10.0217 9.41548L10.5624 8.5743C10.5411 8.5606 10.5355 8.55219 10.533 8.54837L9.69851 9.09943ZM10.0217 9.41548L9.4984 10.2677C9.69131 10.3861 9.89521 10.4843 10.1085 10.5631L10.4549 9.625L10.8013 8.6869C10.7068 8.65203 10.6219 8.61058 10.5449 8.56331L10.0217 9.41548ZM10.4549 9.625L10.1213 10.5677C10.3018 10.6316 10.4802 10.6861 10.6563 10.7301L10.8988 9.75994L11.1413 8.7898C11.0333 8.76279 10.9158 8.72733 10.7885 8.68228L10.4549 9.625ZM10.8988 9.75994L10.6472 10.7278L11.3574 10.9124L11.609 9.9446L11.8607 8.97678L11.1504 8.79212L10.8988 9.75994ZM11.609 9.9446L11.3712 10.9159C11.5541 10.9607 11.7479 11.0229 11.953 11.1045L12.3228 10.1754L12.6926 9.24633C12.41 9.13382 12.1279 9.04214 11.8469 8.9733L11.609 9.9446ZM12.3228 10.1754L11.953 11.1045C12.1127 11.1681 12.2594 11.2511 12.3953 11.3546L13.0011 10.5589L13.6068 9.76331C13.3261 9.54957 13.0206 9.37689 12.6926 9.24633L12.3228 10.1754ZM13.0011 10.5589L12.3953 11.3546C12.4894 11.4262 12.5656 11.514 12.6274 11.6273L13.5053 11.1484L14.3832 10.6696C14.1893 10.3141 13.9294 10.0089 13.6068 9.76331L13.0011 10.5589ZM13.5053 11.1484L12.6312 11.6341C12.6626 11.6907 12.7006 11.7964 12.7006 11.9901H13.7006H14.7006C14.7006 11.5303 14.6085 11.0749 14.3795 10.6628L13.5053 11.1484ZM13.7006 11.9901H12.7006C12.7006 12.2196 12.6445 12.3894 12.549 12.5327L13.381 13.0874L14.2131 13.6421C14.5437 13.1461 14.7006 12.5844 14.7006 11.9901H13.7006ZM13.381 13.0874L12.5461 12.5369C12.4538 12.6771 12.3038 12.8158 12.0443 12.9349L12.4613 13.8438L12.8783 14.7526C13.4237 14.5024 13.8869 14.1368 14.2159 13.6378L13.381 13.0874ZM12.4613 13.8438L12.0422 12.9358C11.8057 13.0449 11.4726 13.1207 11.0089 13.1207V14.1207V15.1207C11.6815 15.1207 12.3166 15.0119 12.8804 14.7517L12.4613 13.8438ZM11.0089 14.1207V13.1207C10.5676 13.1207 10.2383 13.0505 9.99405 12.9443L9.59553 13.8615L9.197 14.7787C9.74823 15.0182 10.3611 15.1207 11.0089 15.1207V14.1207ZM9.59553 13.8615L9.99405 12.9443C9.74392 12.8357 9.58488 12.6997 9.47736 12.5481L8.66158 13.1264L7.84579 13.7048C8.18809 14.1876 8.65168 14.5417 9.197 14.7787L9.59553 13.8615ZM8.66158 13.1264L9.47938 12.5509C9.37529 12.403 9.30207 12.2103 9.28725 11.9361L8.28871 11.9901L7.29016 12.044C7.32269 12.6458 7.49806 13.2106 7.84377 13.7019L8.66158 13.1264ZM8.28871 11.9901V12.9901H9.38956V11.9901V10.9901H8.28871V11.9901ZM9.38956 11.9901L8.39283 12.0709C8.42853 12.5111 8.57939 12.9377 8.88381 13.2953L9.64524 12.647L10.4067 11.9988C10.406 11.998 10.4044 11.9964 10.4014 11.9887C10.3979 11.9798 10.3901 11.9556 10.3863 11.9092L9.38956 11.9901ZM9.64524 12.647L8.8933 13.3063C9.16507 13.6162 9.50361 13.8362 9.88233 13.9739L10.2241 13.0341L10.5658 12.0943C10.4758 12.0616 10.4284 12.0234 10.3972 11.9878L9.64524 12.647ZM10.2241 13.0341L9.89373 13.9779C10.2489 14.1022 10.6213 14.1584 11.0018 14.1584V13.1584V12.1584C10.8188 12.1584 10.6728 12.1317 10.5544 12.0902L10.2241 13.0341ZM11.0018 13.1584V14.1584C11.4157 14.1584 11.8217 14.0935 12.2021 13.9406L11.8292 13.0128L11.4562 12.0849C11.3537 12.1261 11.2081 12.1584 11.0018 12.1584V13.1584ZM11.8292 13.0128L12.2068 13.9388C12.5811 13.7861 12.9227 13.555 13.1864 13.2243L12.4045 12.6009L11.6226 11.9774C11.6069 11.9971 11.5649 12.0406 11.4516 12.0868L11.8292 13.0128ZM12.4045 12.6009L13.1904 13.2191C13.4758 12.8564 13.614 12.4288 13.614 11.9794H12.614H11.614C11.614 11.9893 11.6133 11.9946 11.613 11.996C11.6128 11.9973 11.613 11.996 11.614 11.9928C11.6151 11.9897 11.6165 11.9865 11.6179 11.9839C11.6193 11.9813 11.6199 11.9808 11.6185 11.9826L12.4045 12.6009ZM12.614 11.9794H13.614C13.614 11.5616 13.4887 11.1338 13.1739 10.7827L12.4293 11.4503L11.6848 12.1178C11.6569 12.0868 11.6359 12.05 11.6237 12.0151C11.6123 11.9825 11.614 11.967 11.614 11.9794H12.614ZM12.4293 11.4503L13.1803 10.7899C12.9413 10.5181 12.6443 10.3261 12.3322 10.1913L11.9357 11.1094L11.5393 12.0274C11.6438 12.0726 11.6759 12.1078 11.6784 12.1106L12.4293 11.4503ZM11.9357 11.1094L12.336 10.193C12.0748 10.0789 11.7918 9.98376 11.4911 9.90449L11.2362 10.8714L10.9812 11.8384C11.2014 11.8964 11.3847 11.9599 11.5355 12.0258L11.9357 11.1094ZM11.2362 10.8714L11.4993 9.90668L10.6399 9.67231L10.3768 10.6371L10.1137 11.6018L10.973 11.8362L11.2362 10.8714ZM10.3768 10.6371L10.6396 9.67222C10.1628 9.54237 9.8557 9.37016 9.66193 9.19523L8.99183 9.9375L8.32173 10.6798C8.80978 11.1204 9.42599 11.4145 10.114 11.6019L10.3768 10.6371ZM8.99183 9.9375L9.66451 9.19756C9.55812 9.10084 9.48402 8.97447 9.48402 8.71591H8.48402H7.48402C7.48402 9.47061 7.74846 10.1586 8.31916 10.6774L8.99183 9.9375ZM8.48402 8.71591H9.48402C9.48402 8.48937 9.54134 8.33373 9.63367 8.20678L8.82493 7.61861L8.01619 7.03044C7.65397 7.52849 7.48402 8.10437 7.48402 8.71591H8.48402ZM8.82493 7.61861L9.63367 8.20678C9.74768 8.05001 9.91044 7.91301 10.1549 7.80421L9.74822 6.89062L9.34157 5.97704C8.8095 6.21388 8.35672 6.56221 8.01619 7.03044L8.82493 7.61861ZM9.74822 6.89062L10.1595 7.80213C10.401 7.69315 10.6958 7.62784 11.0621 7.62784V6.62784V5.62784C10.4531 5.62784 9.87193 5.73772 9.33694 5.97912L9.74822 6.89062ZM11.0621 6.62784V7.62784C11.4374 7.62784 11.725 7.69342 11.9482 7.79587L12.3654 6.88707L12.7827 5.97828C12.253 5.73509 11.6717 5.62784 11.0621 5.62784V6.62784ZM12.3654 6.88707L11.9503 7.79685C12.1894 7.90593 12.3435 8.03872 12.4483 8.18449L13.2603 7.60085L14.0723 7.01721C13.7415 6.55693 13.299 6.21386 12.7805 5.97729L12.3654 6.88707ZM13.2603 7.60085L12.4505 8.18751C12.5431 8.31537 12.5967 8.46253 12.6015 8.66202L13.6012 8.63778L14.6009 8.61355C14.5868 8.03178 14.4131 7.48766 14.0701 7.0142L13.2603 7.60085ZM13.6012 8.63778V7.63778H12.543V8.63778V9.63778H13.6012V8.63778ZM15.0119 14H14.0119V15H15.0119V14ZM15.0119 6.72727V5.72727H14.0119V6.72727H15.0119ZM19.0069 7.01847L18.544 7.90485L18.5463 7.90605L19.0069 7.01847ZM19.845 7.82457L18.9643 8.29831L18.9657 8.30086L19.845 7.82457ZM19.8414 10.1825L18.9661 9.69896L18.965 9.70108L19.8414 10.1825ZM19.0034 10.9673L18.5562 10.0729L18.5539 10.074L19.0034 10.9673ZM15.6369 11.2479H14.6369V12.2479H15.6369V11.2479ZM15.6369 10.3033V9.30327H14.6369V10.3033H15.6369ZM18.3677 10.1506L17.9554 9.23954L17.9517 9.2412L18.3677 10.1506ZM18.8578 8.29332L17.9697 8.75305L17.974 8.76121L18.8578 8.29332ZM18.3642 7.83168L17.9246 8.72997L17.9361 8.73541L18.3642 7.83168ZM16.1092 7.66832V6.66832H15.1092V7.66832H16.1092ZM16.1092 14V15H17.1092V14H16.1092ZM18.6021 10.7188L19.4792 10.2384L19.1946 9.71875H18.6021V10.7188ZM20.399 14V15H22.0867L21.2761 13.5197L20.399 14ZM19.149 14L18.2679 14.473L18.5508 15H19.149V14ZM17.3876 10.7188V9.71875H15.7158L16.5065 11.1917L17.3876 10.7188ZM15.0119 14H16.0119V6.72727H15.0119H14.0119V14H15.0119ZM15.0119 6.72727V7.72727H17.6042V6.72727V5.72727H15.0119V6.72727ZM17.6042 6.72727V7.72727C18.0595 7.72727 18.3557 7.80654 18.544 7.90485L19.0069 7.01847L19.4699 6.13208C18.9147 5.84213 18.2759 5.72727 17.6042 5.72727V6.72727ZM19.0069 7.01847L18.5463 7.90605C18.7571 8.01547 18.8827 8.14656 18.9643 8.29831L19.845 7.82457L20.7257 7.35084C20.438 6.81603 20.0049 6.40972 19.4676 6.13088L19.0069 7.01847ZM19.845 7.82457L18.9657 8.30086C19.0597 8.47438 19.122 8.70017 19.122 9.0071H20.122H21.122C21.122 8.41915 20.9996 7.85659 20.7243 7.34829L19.845 7.82457ZM20.122 9.0071H19.122C19.122 9.30879 19.0598 9.52949 18.9661 9.69897L19.8414 10.1825L20.7168 10.6661C20.9972 10.1585 21.122 9.59556 21.122 9.0071H20.122ZM19.8414 10.1825L18.965 9.70108C18.887 9.84304 18.7657 9.96813 18.5562 10.0729L19.0034 10.9673L19.4506 11.8618C19.9891 11.5925 20.4266 11.1944 20.7179 10.664L19.8414 10.1825ZM19.0034 10.9673L18.5539 10.074C18.3621 10.1706 18.0606 10.2479 17.6007 10.2479V11.2479V12.2479C18.2676 12.2479 18.9013 12.1381 19.4529 11.8606L19.0034 10.9673ZM17.6007 11.2479V10.2479H15.6369V11.2479V12.2479H17.6007V11.2479ZM15.6369 11.2479H16.6369V10.3033H15.6369H14.6369V11.2479H15.6369ZM15.6369 10.3033V11.3033H17.5012V10.3033V9.30327H15.6369V10.3033ZM17.5012 10.3033V11.3033C17.9402 11.3033 18.3855 11.2421 18.7837 11.0599L18.3677 10.1506L17.9517 9.2412C17.9049 9.26263 17.7725 9.30327 17.5012 9.30327V10.3033ZM18.3677 10.1506L18.7801 11.0616C19.1797 10.8807 19.522 10.5904 19.7425 10.1795L18.8613 9.70668L17.9802 9.23386C17.9811 9.23211 17.9829 9.2292 17.9855 9.22592C17.988 9.22263 17.9902 9.22051 17.9911 9.21969C17.9935 9.21759 17.985 9.22614 17.9554 9.23955L18.3677 10.1506ZM18.8613 9.70668L19.7425 10.1795C19.941 9.80957 20.0176 9.40601 20.0176 9.0071H19.0176H18.0176C18.0176 9.15271 17.99 9.21552 17.9802 9.23386L18.8613 9.70668ZM19.0176 9.0071H20.0176C20.0176 8.60274 19.9386 8.19767 19.7416 7.82544L18.8578 8.29332L17.974 8.76121C17.99 8.79144 18.0176 8.86223 18.0176 9.0071H19.0176ZM18.8578 8.29332L19.7458 7.83362C19.5311 7.41875 19.1944 7.11842 18.7923 6.92794L18.3642 7.83168L17.9361 8.73541C17.9507 8.74235 17.9602 8.74806 17.9657 8.75173C17.9711 8.75534 17.9732 8.75734 17.9732 8.75734C17.9732 8.7574 17.973 8.75715 17.9725 8.75661C17.972 8.75607 17.9714 8.75541 17.9709 8.75468C17.9696 8.75303 17.9693 8.75221 17.9697 8.75303L18.8578 8.29332ZM18.3642 7.83168L18.8037 6.93346C18.396 6.73392 17.9366 6.66832 17.487 6.66832V7.66832V8.66832C17.7619 8.66832 17.8873 8.71163 17.9246 8.72989L18.3642 7.83168ZM17.487 7.66832V6.66832H16.1092V7.66832V8.66832H17.487V7.66832ZM16.1092 7.66832H15.1092V14H16.1092H17.1092V7.66832H16.1092ZM16.1092 14V13H15.0119V14V15H16.1092V14ZM18.6021 10.7188L17.725 11.1991L19.5219 14.4803L20.399 14L21.2761 13.5197L19.4792 10.2384L18.6021 10.7188ZM20.399 14V13H19.149V14V15H20.399V14ZM19.149 14L20.0301 13.527L18.2687 10.2458L17.3876 10.7188L16.5065 11.1917L18.2679 14.473L19.149 14ZM17.3876 10.7188V11.7188H18.6021V10.7188V9.71875H17.3876V10.7188Z" fill="white" mask="url(#path-1-outside-1_76_3453)"/>
</svg>
