<svg width="22" height="20" viewBox="0 0 22 20" fill="none" xmlns="http://www.w3.org/2000/svg">
<mask id="path-1-outside-1_76_3523" maskUnits="userSpaceOnUse" x="-0.333252" y="4.84766" width="23" height="11" fill="black">
<rect fill="white" x="-0.333252" y="4.84766" width="23" height="11"/>
<path d="M5.52026 8.48544C5.48238 8.14927 5.32613 7.88885 5.05151 7.70419C4.77689 7.51716 4.43125 7.42365 4.01458 7.42365C3.71629 7.42365 3.45824 7.471 3.24043 7.5657C3.02263 7.65803 2.85336 7.78587 2.73262 7.94922C2.61425 8.1102 2.55506 8.29368 2.55506 8.49964C2.55506 8.67247 2.59531 8.82161 2.6758 8.94709C2.75866 9.07256 2.86638 9.17791 2.99896 9.26314C3.1339 9.346 3.27831 9.41584 3.4322 9.47266C3.58608 9.52711 3.73404 9.57209 3.87609 9.6076L4.58631 9.79226C4.81832 9.84908 5.05625 9.92602 5.30009 10.0231C5.54394 10.1201 5.77003 10.248 5.97836 10.4066C6.18669 10.5652 6.35478 10.7617 6.48262 10.9961C6.61283 11.2305 6.67793 11.511 6.67793 11.8377C6.67793 12.2496 6.5714 12.6154 6.35833 12.935C6.14763 13.2546 5.84105 13.5067 5.43859 13.6914C5.03849 13.8761 4.55435 13.9684 3.98617 13.9684C3.44167 13.9684 2.97055 13.882 2.57282 13.7092C2.17509 13.5363 1.86378 13.2913 1.63887 12.9741C1.41397 12.6545 1.28968 12.2757 1.266 11.8377H2.36685C2.38816 12.1005 2.47339 12.3195 2.62254 12.4947C2.77405 12.6675 2.967 12.7965 3.20137 12.8817C3.43811 12.9646 3.69735 13.006 3.97907 13.006C4.2892 13.006 4.56501 12.9575 4.80649 12.8604C5.05033 12.761 5.24209 12.6237 5.38177 12.4485C5.52145 12.271 5.59129 12.0638 5.59129 11.8271C5.59129 11.6116 5.52973 11.4353 5.40663 11.2979C5.28589 11.1606 5.12135 11.047 4.91302 10.957C4.70705 10.8671 4.47386 10.7878 4.21345 10.7191L3.35407 10.4847C2.77168 10.3261 2.31004 10.0929 1.96913 9.78516C1.63059 9.47739 1.46131 9.07019 1.46131 8.56357C1.46131 8.14453 1.57495 7.77876 1.80222 7.46626C2.0295 7.15376 2.33726 6.9111 2.72552 6.73828C3.11378 6.56309 3.55175 6.4755 4.03944 6.4755C4.53186 6.4755 4.96629 6.56191 5.34271 6.73473C5.72149 6.90755 6.01979 7.14548 6.23759 7.44851C6.4554 7.74917 6.56903 8.09482 6.5785 8.48544H5.52026ZM8.54494 13.8477H7.38017L9.99736 6.57493H11.2651L13.8823 13.8477H12.7175L10.6614 7.89595H10.6046L8.54494 13.8477ZM8.74026 10.9996H12.5187V11.9229H8.74026V10.9996ZM14.9326 13.8477V6.57493H17.5249C18.0883 6.57493 18.5559 6.67199 18.9276 6.86612C19.3016 7.06025 19.581 7.32895 19.7656 7.67223C19.9503 8.01314 20.0426 8.40732 20.0426 8.85476C20.0426 9.29983 19.9491 9.69164 19.7621 10.0302C19.5774 10.3664 19.2981 10.628 18.924 10.815C18.5523 11.002 18.0848 11.0955 17.5213 11.0955H15.5576V10.1509H17.4219C17.777 10.1509 18.0658 10.1 18.2884 9.99822C18.5133 9.89643 18.6778 9.74846 18.782 9.55433C18.8861 9.3602 18.9382 9.12701 18.9382 8.85476C18.9382 8.58014 18.885 8.34221 18.7784 8.14098C18.6743 7.93975 18.5097 7.78587 18.2848 7.67933C18.0623 7.57043 17.7699 7.51598 17.4077 7.51598H16.0299V13.8477H14.9326ZM18.5227 10.5664L20.3196 13.8477H19.0696L17.3083 10.5664H18.5227Z"/>
</mask>
<path d="M5.52026 8.48544C5.48238 8.14927 5.32613 7.88885 5.05151 7.70419C4.77689 7.51716 4.43125 7.42365 4.01458 7.42365C3.71629 7.42365 3.45824 7.471 3.24043 7.5657C3.02263 7.65803 2.85336 7.78587 2.73262 7.94922C2.61425 8.1102 2.55506 8.29368 2.55506 8.49964C2.55506 8.67247 2.59531 8.82161 2.6758 8.94709C2.75866 9.07256 2.86638 9.17791 2.99896 9.26314C3.1339 9.346 3.27831 9.41584 3.4322 9.47266C3.58608 9.52711 3.73404 9.57209 3.87609 9.6076L4.58631 9.79226C4.81832 9.84908 5.05625 9.92602 5.30009 10.0231C5.54394 10.1201 5.77003 10.248 5.97836 10.4066C6.18669 10.5652 6.35478 10.7617 6.48262 10.9961C6.61283 11.2305 6.67793 11.511 6.67793 11.8377C6.67793 12.2496 6.5714 12.6154 6.35833 12.935C6.14763 13.2546 5.84105 13.5067 5.43859 13.6914C5.03849 13.8761 4.55435 13.9684 3.98617 13.9684C3.44167 13.9684 2.97055 13.882 2.57282 13.7092C2.17509 13.5363 1.86378 13.2913 1.63887 12.9741C1.41397 12.6545 1.28968 12.2757 1.266 11.8377H2.36685C2.38816 12.1005 2.47339 12.3195 2.62254 12.4947C2.77405 12.6675 2.967 12.7965 3.20137 12.8817C3.43811 12.9646 3.69735 13.006 3.97907 13.006C4.2892 13.006 4.56501 12.9575 4.80649 12.8604C5.05033 12.761 5.24209 12.6237 5.38177 12.4485C5.52145 12.271 5.59129 12.0638 5.59129 11.8271C5.59129 11.6116 5.52973 11.4353 5.40663 11.2979C5.28589 11.1606 5.12135 11.047 4.91302 10.957C4.70705 10.8671 4.47386 10.7878 4.21345 10.7191L3.35407 10.4847C2.77168 10.3261 2.31004 10.0929 1.96913 9.78516C1.63059 9.47739 1.46131 9.07019 1.46131 8.56357C1.46131 8.14453 1.57495 7.77876 1.80222 7.46626C2.0295 7.15376 2.33726 6.9111 2.72552 6.73828C3.11378 6.56309 3.55175 6.4755 4.03944 6.4755C4.53186 6.4755 4.96629 6.56191 5.34271 6.73473C5.72149 6.90755 6.01979 7.14548 6.23759 7.44851C6.4554 7.74917 6.56903 8.09482 6.5785 8.48544H5.52026ZM8.54494 13.8477H7.38017L9.99736 6.57493H11.2651L13.8823 13.8477H12.7175L10.6614 7.89595H10.6046L8.54494 13.8477ZM8.74026 10.9996H12.5187V11.9229H8.74026V10.9996ZM14.9326 13.8477V6.57493H17.5249C18.0883 6.57493 18.5559 6.67199 18.9276 6.86612C19.3016 7.06025 19.581 7.32895 19.7656 7.67223C19.9503 8.01314 20.0426 8.40732 20.0426 8.85476C20.0426 9.29983 19.9491 9.69164 19.7621 10.0302C19.5774 10.3664 19.2981 10.628 18.924 10.815C18.5523 11.002 18.0848 11.0955 17.5213 11.0955H15.5576V10.1509H17.4219C17.777 10.1509 18.0658 10.1 18.2884 9.99822C18.5133 9.89643 18.6778 9.74846 18.782 9.55433C18.8861 9.3602 18.9382 9.12701 18.9382 8.85476C18.9382 8.58014 18.885 8.34221 18.7784 8.14098C18.6743 7.93975 18.5097 7.78587 18.2848 7.67933C18.0623 7.57043 17.7699 7.51598 17.4077 7.51598H16.0299V13.8477H14.9326ZM18.5227 10.5664L20.3196 13.8477H19.0696L17.3083 10.5664H18.5227Z" fill="black"/>
<path d="M5.52026 8.48544L4.52655 8.59741L4.62661 9.48544H5.52026V8.48544ZM5.05151 7.70419L4.48861 8.53073L4.49352 8.53403L5.05151 7.70419ZM3.24043 7.5657L3.63074 8.48643L3.63916 8.48277L3.24043 7.5657ZM2.73262 7.94922L1.92844 7.35483L1.92697 7.35683L2.73262 7.94922ZM2.6758 8.94709L1.83404 9.48709L1.84134 9.49815L2.6758 8.94709ZM2.99896 9.26314L2.4582 10.1043L2.46689 10.1099L2.47569 10.1153L2.99896 9.26314ZM3.4322 9.47266L3.08579 10.4108L3.09862 10.4154L3.4322 9.47266ZM3.87609 9.6076L4.12773 8.63973L4.11862 8.63746L3.87609 9.6076ZM4.58631 9.79226L4.33468 10.7601L4.34155 10.7619L4.34845 10.7636L4.58631 9.79226ZM6.48262 10.9961L5.6047 11.475L5.60846 11.4817L6.48262 10.9961ZM6.35833 12.935L5.52627 12.3803L5.52344 12.3846L6.35833 12.935ZM5.43859 13.6914L5.02156 12.7825L5.01953 12.7834L5.43859 13.6914ZM2.57282 13.7092L2.97135 12.792L2.57282 13.7092ZM1.63887 12.9741L0.82106 13.5496L0.823087 13.5524L1.63887 12.9741ZM1.266 11.8377V10.8377H0.210488L0.26746 11.8917L1.266 11.8377ZM2.36685 11.8377L3.36358 11.7569L3.28906 10.8377H2.36685V11.8377ZM2.62254 12.4947L1.86111 13.1429L1.86581 13.1484L1.8706 13.1539L2.62254 12.4947ZM3.20137 12.8817L2.8596 13.8216L2.87102 13.8256L3.20137 12.8817ZM4.80649 12.8604L5.17945 13.7883L5.18407 13.7864L4.80649 12.8604ZM5.38177 12.4485L6.16368 13.0719L6.16772 13.0668L5.38177 12.4485ZM5.40663 11.2979L4.65562 11.9583L4.66206 11.9655L5.40663 11.2979ZM4.91302 10.957L4.51275 11.8734L4.51658 11.8751L4.91302 10.957ZM4.21345 10.7191L3.95032 11.6839L3.95852 11.6861L4.21345 10.7191ZM3.35407 10.4847L3.61719 9.51997L3.61686 9.51988L3.35407 10.4847ZM1.96913 9.78516L1.29645 10.5251L1.29902 10.5274L1.96913 9.78516ZM1.80222 7.46626L0.993488 6.87809L0.993488 6.87809L1.80222 7.46626ZM2.72552 6.73828L3.13218 7.65187L3.13681 7.64979L2.72552 6.73828ZM5.34271 6.73473L4.92546 7.64353L4.92762 7.64451L5.34271 6.73473ZM6.23759 7.44851L5.42557 8.03215L5.42776 8.03516L6.23759 7.44851ZM6.5785 8.48544V9.48544H7.60304L7.57821 8.46121L6.5785 8.48544ZM5.52026 8.48544L6.51398 8.37347C6.44408 7.75314 6.13385 7.22692 5.60951 6.87435L5.05151 7.70419L4.49352 8.53403C4.50806 8.54382 4.51479 8.55035 4.51681 8.55244C4.51863 8.55432 4.51816 8.55414 4.51717 8.55249C4.51621 8.55088 4.51702 8.55166 4.51874 8.55694C4.52055 8.56252 4.52406 8.57526 4.52655 8.59741L5.52026 8.48544ZM5.05151 7.70419L5.61441 6.87766C5.13605 6.55188 4.58088 6.42365 4.01458 6.42365V7.42365V8.42365C4.28162 8.42365 4.41773 8.48244 4.48862 8.53072L5.05151 7.70419ZM4.01458 7.42365V6.42365C3.61305 6.42365 3.21312 6.48714 2.84171 6.64863L3.24043 7.5657L3.63916 8.48277C3.70335 8.45486 3.81952 8.42365 4.01458 8.42365V7.42365ZM3.24043 7.5657L2.85014 6.645C2.49511 6.79551 2.1719 7.02545 1.92845 7.35483L2.73262 7.94922L3.5368 8.54361C3.53764 8.54247 3.54135 8.53746 3.5528 8.52881C3.56493 8.51965 3.58883 8.50415 3.63073 8.48639L3.24043 7.5657ZM2.73262 7.94922L1.92697 7.35683C1.67824 7.6951 1.55506 8.08758 1.55506 8.49964H2.55506H3.55506C3.55506 8.49375 3.55569 8.50054 3.55116 8.51457C3.54909 8.52099 3.54653 8.52707 3.5438 8.53235C3.5411 8.53759 3.53894 8.5407 3.53827 8.54161L2.73262 7.94922ZM2.55506 8.49964H1.55506C1.55506 8.83274 1.63463 9.17609 1.83411 9.48704L2.6758 8.94709L3.5175 8.40713C3.53457 8.43375 3.54512 8.45986 3.55072 8.4806C3.55604 8.50034 3.55506 8.50834 3.55506 8.49964H2.55506ZM2.6758 8.94709L1.84134 9.49815C2.00454 9.74528 2.21436 9.94756 2.4582 10.1043L2.99896 9.26314L3.53971 8.42196C3.5184 8.40826 3.51279 8.39984 3.51027 8.39603L2.6758 8.94709ZM2.99896 9.26314L2.47569 10.1153C2.66861 10.2338 2.8725 10.332 3.08582 10.4108L3.4322 9.47266L3.77857 8.53456C3.68412 8.49969 3.59919 8.45823 3.52222 8.41097L2.99896 9.26314ZM3.4322 9.47266L3.09862 10.4154C3.27905 10.4792 3.45749 10.5337 3.63355 10.5777L3.87609 9.6076L4.11862 8.63746C4.0106 8.61045 3.8931 8.57499 3.76577 8.52993L3.4322 9.47266ZM3.87609 9.6076L3.62445 10.5754L4.33468 10.7601L4.58631 9.79226L4.83795 8.82444L4.12772 8.63978L3.87609 9.6076ZM4.58631 9.79226L4.34845 10.7636C4.5314 10.8084 4.72522 10.8706 4.93026 10.9522L5.30009 10.0231L5.66993 9.09398C5.38728 8.98147 5.10524 8.88979 4.82418 8.82096L4.58631 9.79226ZM5.30009 10.0231L4.93026 10.9522C5.08996 11.0158 5.23665 11.0987 5.37259 11.2022L5.97836 10.4066L6.58413 9.61097C6.3034 9.39723 5.99791 9.22454 5.66993 9.09398L5.30009 10.0231ZM5.97836 10.4066L5.37259 11.2022C5.46669 11.2739 5.54293 11.3617 5.60473 11.4749L6.48262 10.9961L7.36052 10.5172C7.16663 10.1618 6.90669 9.85655 6.58413 9.61097L5.97836 10.4066ZM6.48262 10.9961L5.60846 11.4817C5.63991 11.5383 5.67793 11.6441 5.67793 11.8377H6.67793H7.67793C7.67793 11.3779 7.58575 10.9226 7.35678 10.5105L6.48262 10.9961ZM6.67793 11.8377H5.67793C5.67793 12.0672 5.62181 12.237 5.52628 12.3803L6.35833 12.935L7.19038 13.4897C7.52099 12.9938 7.67793 12.4321 7.67793 11.8377H6.67793ZM6.35833 12.935L5.52344 12.3846C5.43105 12.5247 5.28112 12.6634 5.02156 12.7825L5.43859 13.6914L5.85561 14.6003C6.40098 14.3501 6.86422 13.9845 7.19323 13.4854L6.35833 12.935ZM5.43859 13.6914L5.01953 12.7834C4.78304 12.8926 4.44994 12.9684 3.98617 12.9684V13.9684V14.9684C4.65877 14.9684 5.29394 14.8595 5.85765 14.5994L5.43859 13.6914ZM3.98617 13.9684V12.9684C3.54489 12.9684 3.21557 12.8981 2.97135 12.792L2.57282 13.7092L2.17429 14.6263C2.72553 14.8658 3.33844 14.9684 3.98617 14.9684V13.9684ZM2.57282 13.7092L2.97135 12.792C2.72121 12.6833 2.56217 12.5474 2.45466 12.3957L1.63887 12.9741L0.823087 13.5524C1.16538 14.0352 1.62898 14.3894 2.17429 14.6263L2.57282 13.7092ZM1.63887 12.9741L2.45668 12.3986C2.35258 12.2507 2.27937 12.0579 2.26454 11.7837L1.266 11.8377L0.26746 11.8917C0.299987 12.4934 0.475352 13.0583 0.821065 13.5496L1.63887 12.9741ZM1.266 11.8377V12.8377H2.36685V11.8377V10.8377H1.266V11.8377ZM2.36685 11.8377L1.37013 11.9185C1.40582 12.3588 1.55669 12.7853 1.86111 13.1429L2.62254 12.4947L3.38397 11.8464C3.38331 11.8457 3.38167 11.8441 3.37867 11.8364C3.37519 11.8274 3.36735 11.8033 3.36358 11.7569L2.36685 11.8377ZM2.62254 12.4947L1.8706 13.1539C2.14236 13.4639 2.48091 13.6838 2.85963 13.8215L3.20137 12.8817L3.54311 11.942C3.45308 11.9092 3.40574 11.8711 3.37447 11.8354L2.62254 12.4947ZM3.20137 12.8817L2.87102 13.8256C3.22616 13.9499 3.59858 14.006 3.97907 14.006V13.006V12.006C3.79612 12.006 3.65007 11.9793 3.53172 11.9379L3.20137 12.8817ZM3.97907 13.006V14.006C4.39302 14.006 4.79902 13.9412 5.17944 13.7883L4.80649 12.8604L4.43353 11.9326C4.331 11.9738 4.18539 12.006 3.97907 12.006V13.006ZM4.80649 12.8604L5.18407 13.7864C5.55844 13.6338 5.89999 13.4026 6.16367 13.0719L5.38177 12.4485L4.59987 11.8251C4.5842 11.8448 4.54222 11.8883 4.4289 11.9345L4.80649 12.8604ZM5.38177 12.4485L6.16772 13.0668C6.45305 12.7041 6.59129 12.2765 6.59129 11.8271H5.59129H4.59129C4.59129 11.837 4.59056 11.8422 4.59034 11.8436C4.59014 11.845 4.59026 11.8436 4.59131 11.8405C4.59238 11.8373 4.59379 11.8341 4.59523 11.8315C4.59664 11.8289 4.5972 11.8285 4.59581 11.8302L5.38177 12.4485ZM5.59129 11.8271H6.59129C6.59129 11.4092 6.46596 10.9815 6.1512 10.6304L5.40663 11.2979L4.66206 11.9655C4.63424 11.9345 4.61315 11.8976 4.60097 11.8627C4.58959 11.8301 4.59129 11.8146 4.59129 11.8271H5.59129ZM5.40663 11.2979L6.1576 10.6376C5.91857 10.3658 5.62163 10.1738 5.30946 10.039L4.91302 10.957L4.51658 11.8751C4.62107 11.9202 4.65321 11.9555 4.65566 11.9583L5.40663 11.2979ZM4.91302 10.957L5.31329 10.0406C5.0521 9.92655 4.76906 9.83142 4.46837 9.75214L4.21345 10.7191L3.95852 11.6861C4.17867 11.7441 4.36201 11.8076 4.51275 11.8734L4.91302 10.957ZM4.21345 10.7191L4.47656 9.75434L3.61719 9.51997L3.35407 10.4847L3.09095 11.4495L3.95033 11.6839L4.21345 10.7191ZM3.35407 10.4847L3.61686 9.51988C3.14009 9.39002 2.83299 9.21781 2.63923 9.04289L1.96913 9.78516L1.29902 10.5274C1.78708 10.968 2.40328 11.2622 3.09128 11.4496L3.35407 10.4847ZM1.96913 9.78516L2.6418 9.04522C2.53541 8.9485 2.46131 8.82212 2.46131 8.56357H1.46131H0.461315C0.461315 9.31826 0.725758 10.0063 1.29645 10.5251L1.96913 9.78516ZM1.46131 8.56357H2.46131C2.46131 8.33703 2.51864 8.18138 2.61096 8.05444L1.80222 7.46626L0.993488 6.87809C0.631267 7.37615 0.461315 7.95203 0.461315 8.56357H1.46131ZM1.80222 7.46626L2.61096 8.05444C2.72498 7.89766 2.88773 7.76067 3.13217 7.65186L2.72552 6.73828L2.31886 5.8247C1.78679 6.06154 1.33402 6.40986 0.993488 6.87809L1.80222 7.46626ZM2.72552 6.73828L3.13681 7.64979C3.37833 7.54081 3.67307 7.4755 4.03944 7.4755V6.4755V5.4755C3.43043 5.4755 2.84922 5.58538 2.31423 5.82678L2.72552 6.73828ZM4.03944 6.4755V7.4755C4.41468 7.4755 4.70231 7.54107 4.92546 7.64352L5.34271 6.73473L5.75995 5.82594C5.23026 5.58274 4.64904 5.4755 4.03944 5.4755V6.4755ZM5.34271 6.73473L4.92762 7.64451C5.16669 7.75359 5.32081 7.88637 5.42558 8.03215L6.23759 7.44851L7.04961 6.86487C6.71878 6.40458 6.2763 6.06152 5.7578 5.82495L5.34271 6.73473ZM6.23759 7.44851L5.42776 8.03516C5.52038 8.16302 5.57396 8.31019 5.5788 8.50968L6.5785 8.48544L7.57821 8.46121C7.56411 7.87944 7.39041 7.33532 7.04743 6.86185L6.23759 7.44851ZM6.5785 8.48544V7.48544H5.52026V8.48544V9.48544H6.5785V8.48544ZM8.54494 13.8477V14.8477H9.25707L9.48996 14.1747L8.54494 13.8477ZM7.38017 13.8477L6.43924 13.5091L5.95753 14.8477H7.38017V13.8477ZM9.99736 6.57493V5.57493H9.29444L9.05643 6.23632L9.99736 6.57493ZM11.2651 6.57493L12.206 6.23632L11.968 5.57493H11.2651V6.57493ZM13.8823 13.8477V14.8477H15.3049L14.8232 13.5091L13.8823 13.8477ZM12.7175 13.8477L11.7723 14.1742L12.005 14.8477H12.7175V13.8477ZM10.6614 7.89595L11.6066 7.56942L11.3739 6.89595H10.6614V7.89595ZM10.6046 7.89595V6.89595H9.89248L9.65959 7.56892L10.6046 7.89595ZM8.74026 10.9996V9.99964H7.74026V10.9996H8.74026ZM12.5187 10.9996H13.5187V9.99964H12.5187V10.9996ZM12.5187 11.9229V12.9229H13.5187V11.9229H12.5187ZM8.74026 11.9229H7.74026V12.9229H8.74026V11.9229ZM8.54494 13.8477V12.8477H7.38017V13.8477V14.8477H8.54494V13.8477ZM7.38017 13.8477L8.3211 14.1863L10.9383 6.91353L9.99736 6.57493L9.05643 6.23632L6.43924 13.5091L7.38017 13.8477ZM9.99736 6.57493V7.57493H11.2651V6.57493V5.57493H9.99736V6.57493ZM11.2651 6.57493L10.3242 6.91353L12.9414 14.1863L13.8823 13.8477L14.8232 13.5091L12.206 6.23632L11.2651 6.57493ZM13.8823 13.8477V12.8477H12.7175V13.8477V14.8477H13.8823V13.8477ZM12.7175 13.8477L13.6627 13.5211L11.6066 7.56942L10.6614 7.89595L9.71623 8.22248L11.7723 14.1742L12.7175 13.8477ZM10.6614 7.89595V6.89595H10.6046V7.89595V8.89595H10.6614V7.89595ZM10.6046 7.89595L9.65959 7.56892L7.59993 13.5206L8.54494 13.8477L9.48996 14.1747L11.5496 8.22298L10.6046 7.89595ZM8.74026 10.9996V11.9996H12.5187V10.9996V9.99964H8.74026V10.9996ZM12.5187 10.9996H11.5187V11.9229H12.5187H13.5187V10.9996H12.5187ZM12.5187 11.9229V10.9229H8.74026V11.9229V12.9229H12.5187V11.9229ZM8.74026 11.9229H9.74026V10.9996H8.74026H7.74026V11.9229H8.74026ZM14.9326 13.8477H13.9326V14.8477H14.9326V13.8477ZM14.9326 6.57493V5.57493H13.9326V6.57493H14.9326ZM18.9276 6.86612L18.4646 7.75251L18.4669 7.75371L18.9276 6.86612ZM19.7656 7.67223L18.885 8.14597L18.8864 8.14851L19.7656 7.67223ZM19.7621 10.0302L18.8868 9.54662L18.8856 9.54874L19.7621 10.0302ZM18.924 10.815L18.4768 9.92056L18.4745 9.9217L18.924 10.815ZM15.5576 11.0955H14.5576V12.0955H15.5576V11.0955ZM15.5576 10.1509V9.15092H14.5576V10.1509H15.5576ZM18.2884 9.99822L17.876 9.0872L17.8724 9.08885L18.2884 9.99822ZM18.7784 8.14098L17.8903 8.60071L17.8946 8.60887L18.7784 8.14098ZM18.2848 7.67933L17.8452 8.57762L17.8567 8.58307L18.2848 7.67933ZM16.0299 7.51598V6.51598H15.0299V7.51598H16.0299ZM16.0299 13.8477V14.8477H17.0299V13.8477H16.0299ZM18.5227 10.5664L19.3998 10.0861L19.1153 9.56641H18.5227V10.5664ZM20.3196 13.8477V14.8477H22.0074L21.1967 13.3673L20.3196 13.8477ZM19.0696 13.8477L18.1885 14.3206L18.4715 14.8477H19.0696V13.8477ZM17.3083 10.5664V9.56641H15.6365L16.4272 11.0394L17.3083 10.5664ZM14.9326 13.8477H15.9326V6.57493H14.9326H13.9326V13.8477H14.9326ZM14.9326 6.57493V7.57493H17.5249V6.57493V5.57493H14.9326V6.57493ZM17.5249 6.57493V7.57493C17.9801 7.57493 18.2764 7.6542 18.4646 7.75251L18.9276 6.86612L19.3905 5.97974C18.8354 5.68979 18.1966 5.57493 17.5249 5.57493V6.57493ZM18.9276 6.86612L18.4669 7.75371C18.6778 7.86312 18.8034 7.99422 18.885 8.14597L19.7656 7.67223L20.6463 7.19849C20.3586 6.66369 19.9255 6.25738 19.3882 5.97854L18.9276 6.86612ZM19.7656 7.67223L18.8864 8.14851C18.9803 8.32203 19.0426 8.54782 19.0426 8.85476H20.0426H21.0426C21.0426 8.26681 20.9203 7.70424 20.6449 7.19595L19.7656 7.67223ZM20.0426 8.85476H19.0426C19.0426 9.15645 18.9804 9.37715 18.8868 9.54662L19.7621 10.0302L20.6374 10.5137C20.9178 10.0061 21.0426 9.44322 21.0426 8.85476H20.0426ZM19.7621 10.0302L18.8856 9.54874C18.8076 9.69069 18.6864 9.81579 18.4768 9.92056L18.924 10.815L19.3712 11.7094C19.9098 11.4401 20.3472 11.042 20.6386 10.5116L19.7621 10.0302ZM18.924 10.815L18.4745 9.9217C18.2827 10.0182 17.9813 10.0955 17.5213 10.0955V11.0955V12.0955C18.1883 12.0955 18.822 11.9858 19.3735 11.7083L18.924 10.815ZM17.5213 11.0955V10.0955H15.5576V11.0955V12.0955H17.5213V11.0955ZM15.5576 11.0955H16.5576V10.1509H15.5576H14.5576V11.0955H15.5576ZM15.5576 10.1509V11.1509H17.4219V10.1509V9.15092H15.5576V10.1509ZM17.4219 10.1509V11.1509C17.8609 11.1509 18.3061 11.0898 18.7044 10.9076L18.2884 9.99822L17.8724 9.08885C17.8255 9.11028 17.6932 9.15092 17.4219 9.15092V10.1509ZM18.2884 9.99822L18.7007 10.9092C19.1004 10.7283 19.4426 10.4381 19.6631 10.0271L18.782 9.55433L17.9008 9.08151C17.9018 9.07976 17.9035 9.07686 17.9061 9.07357C17.9087 9.07029 17.9109 9.06817 17.9118 9.06734C17.9141 9.06525 17.9056 9.0738 17.876 9.0872L18.2884 9.99822ZM18.782 9.55433L19.6631 10.0271C19.8616 9.65723 19.9382 9.25366 19.9382 8.85476H18.9382H17.9382C17.9382 9.00036 17.9107 9.06318 17.9008 9.08151L18.782 9.55433ZM18.9382 8.85476H19.9382C19.9382 8.45039 19.8593 8.04533 19.6622 7.67309L18.7784 8.14098L17.8946 8.60887C17.9106 8.63909 17.9382 8.70988 17.9382 8.85476H18.9382ZM18.7784 8.14098L19.6665 7.68127C19.4517 7.2664 19.115 6.96608 18.7129 6.77559L18.2848 7.67933L17.8567 8.58307C17.8714 8.59001 17.8808 8.59572 17.8863 8.59938C17.8917 8.60299 17.8938 8.605 17.8938 8.605C17.8939 8.60505 17.8936 8.60481 17.8931 8.60427C17.8927 8.60373 17.8921 8.60306 17.8915 8.60233C17.8903 8.60069 17.8899 8.59987 17.8904 8.60069L18.7784 8.14098ZM18.2848 7.67933L18.7244 6.78112C18.3166 6.58158 17.8573 6.51598 17.4077 6.51598V7.51598V8.51598C17.6825 8.51598 17.8079 8.55928 17.8453 8.57755L18.2848 7.67933ZM17.4077 7.51598V6.51598H16.0299V7.51598V8.51598H17.4077V7.51598ZM16.0299 7.51598H15.0299V13.8477H16.0299H17.0299V7.51598H16.0299ZM16.0299 13.8477V12.8477H14.9326V13.8477V14.8477H16.0299V13.8477ZM18.5227 10.5664L17.6457 11.0467L19.4425 14.328L20.3196 13.8477L21.1967 13.3673L19.3998 10.0861L18.5227 10.5664ZM20.3196 13.8477V12.8477H19.0696V13.8477V14.8477H20.3196V13.8477ZM19.0696 13.8477L19.9507 13.3747L18.1893 10.0934L17.3083 10.5664L16.4272 11.0394L18.1885 14.3206L19.0696 13.8477ZM17.3083 10.5664V11.5664H18.5227V10.5664V9.56641H17.3083V10.5664Z" fill="white" mask="url(#path-1-outside-1_76_3523)"/>
</svg>
