<svg width="25" height="24" viewBox="0 0 25 24" fill="none" xmlns="http://www.w3.org/2000/svg">
<g clip-path="url(#clip0_248_3253)">
<path fill-rule="evenodd" clip-rule="evenodd" d="M11.3334 21.3351C11.3334 22.8081 10.1393 24.0022 8.6663 24.0022C7.1933 24.0022 5.99921 22.8081 5.99921 21.3351C5.99921 19.8621 7.1933 18.668 8.6663 18.668C10.1393 18.668 11.3334 19.8621 11.3334 21.3351ZM22.0018 21.3351C22.0018 22.8081 20.8077 24.0022 19.3347 24.0022C17.8617 24.0022 16.6676 22.8081 16.6676 21.3351C16.6676 19.8621 17.8617 18.668 19.3347 18.668C20.8077 18.668 22.0018 19.8621 22.0018 21.3351Z" fill="#8F8F94"/>
<path fill-rule="evenodd" clip-rule="evenodd" d="M0.665039 1.33159C0.665039 0.595096 1.26209 -0.00195312 1.99859 -0.00195312H2.47918C4.38621 -0.00195312 6.02813 1.3441 6.40213 3.2141L6.55905 3.99868H21.3308C23.5421 3.99868 25.1407 6.11215 24.5388 8.23995L23.1673 13.0888C22.68 14.8114 21.1078 16.0006 19.3177 16.0006H9.51926C7.61223 16.0006 5.97031 14.6545 5.59631 12.7846L3.78683 3.73716C3.66217 3.11382 3.11486 2.66514 2.47918 2.66514H1.99859C1.26209 2.66514 0.665039 2.06809 0.665039 1.33159ZM7.09247 6.66578L8.21161 12.2615C8.33628 12.8848 8.88359 13.3335 9.51926 13.3335H19.3177C19.9144 13.3335 20.4385 12.9371 20.6009 12.3629L21.9724 7.51403C22.0928 7.08847 21.7731 6.66578 21.3308 6.66578H7.09247Z" fill="#8F8F94"/>
</g>
<defs>
<clipPath id="clip0_248_3253">
<rect width="24" height="24" fill="white" transform="translate(0.666687)"/>
</clipPath>
</defs>
</svg>
