<svg width="20" height="20" viewBox="0 0 20 20" fill="none" xmlns="http://www.w3.org/2000/svg">
<path d="M5.31665 8.36719C5.48122 8.36722 5.63086 8.46167 5.70142 8.61035L6.84497 11.0215L9.47778 11.3711C9.64017 11.3927 9.7755 11.5054 9.82642 11.6611C9.87724 11.817 9.83455 11.9883 9.71606 12.1016L7.78833 13.9414L8.27271 16.5713C8.30246 16.733 8.23692 16.8978 8.10376 16.9941C7.97065 17.0905 7.7939 17.1011 7.64966 17.0225L5.31665 15.749L2.98364 17.0225C2.83942 17.1012 2.66268 17.0904 2.52954 16.9941C2.39638 16.8978 2.33084 16.733 2.3606 16.5713L2.84399 13.9414L0.917236 12.1016C0.79868 11.9883 0.755068 11.817 0.805908 11.6611C0.856779 11.5053 0.992994 11.3926 1.15552 11.3711L3.78735 11.0215L4.93188 8.61035L4.96118 8.55762C5.03935 8.43953 5.1724 8.36719 5.31665 8.36719Z" fill="#FCB912" stroke="white" stroke-width="0.852438" stroke-linejoin="round"/>
<path d="M10.001 2.0957C10.1656 2.09574 10.3152 2.19018 10.3857 2.33887L11.5293 4.75L14.1621 5.09961C14.3245 5.1212 14.4598 5.23397 14.5107 5.38965C14.5616 5.54549 14.5189 5.71682 14.4004 5.83008L12.4727 7.66992L12.957 10.2998C12.9868 10.4615 12.9213 10.6263 12.7881 10.7227C12.655 10.819 12.4782 10.8297 12.334 10.751L10.001 9.47754L7.66797 10.751C7.52374 10.8297 7.34701 10.8189 7.21387 10.7227C7.0807 10.6263 7.01517 10.4615 7.04492 10.2998L7.52832 7.66992L5.60156 5.83008C5.48301 5.71682 5.43939 5.54553 5.49023 5.38965C5.54111 5.2338 5.67732 5.12116 5.83984 5.09961L8.47168 4.75L9.61621 2.33887L9.64551 2.28613C9.72367 2.16805 9.85673 2.0957 10.001 2.0957Z" fill="#FCB912" stroke="white" stroke-width="0.852438" stroke-linejoin="round"/>
<path d="M14.6837 8.36719C14.8483 8.36722 14.9979 8.46167 15.0685 8.61035L16.212 11.0215L18.8448 11.3711C19.0072 11.3927 19.1426 11.5054 19.1935 11.6611C19.2443 11.817 19.2016 11.9883 19.0831 12.1016L17.1554 13.9414L17.6398 16.5713C17.6695 16.733 17.604 16.8978 17.4708 16.9941C17.3377 17.0905 17.161 17.1011 17.0167 17.0225L14.6837 15.749L12.3507 17.0225C12.2065 17.1012 12.0297 17.0904 11.8966 16.9941C11.7634 16.8978 11.6979 16.733 11.7277 16.5713L12.2111 13.9414L10.2843 12.1016C10.1657 11.9883 10.1221 11.817 10.173 11.6611C10.2238 11.5053 10.3601 11.3926 10.5226 11.3711L13.1544 11.0215L14.299 8.61035L14.3282 8.55762C14.4064 8.43953 14.5395 8.36719 14.6837 8.36719Z" fill="#FCB912" stroke="white" stroke-width="0.852438" stroke-linejoin="round"/>
</svg>
