<svg width="20" height="21" viewBox="0 0 20 21" fill="none" xmlns="http://www.w3.org/2000/svg">
<path d="M10 1.29688C10.271 1.29688 10.5181 1.45269 10.6348 1.69727L13.0615 6.78516L18.6514 7.52148C18.92 7.5569 19.1448 7.74422 19.2285 8.00195C19.312 8.25943 19.2401 8.54204 19.0439 8.72852L14.9551 12.6104L15.9814 18.1533C16.0307 18.4197 15.9223 18.6904 15.7031 18.8496C15.484 19.0088 15.1932 19.0284 14.9551 18.8994L10 16.21L5.04492 18.8994C4.80683 19.0284 4.51598 19.0088 4.29688 18.8496C4.07771 18.6904 3.9693 18.4197 4.01855 18.1533L5.04395 12.6104L0.956055 8.72852C0.759868 8.54204 0.688009 8.25943 0.771484 8.00195C0.855227 7.74422 1.07996 7.5569 1.34863 7.52148L6.9375 6.78516L9.36523 1.69727C9.48194 1.45269 9.729 1.29688 10 1.29688Z" fill="#FCB912" stroke="white" stroke-width="1.40625" stroke-linejoin="round"/>
</svg>
