<svg width="20" height="20" viewBox="0 0 20 20" fill="none" xmlns="http://www.w3.org/2000/svg">
<g clip-path="url(#clip0_96_8814)">
<path d="M4.26692 12.6278C4.8092 12.8167 4.51586 13.5657 4.51586 13.5657L3.39575 13.2301C3.458 13.0212 3.70467 12.43 4.26692 12.6278Z" fill="black"/>
<path d="M6.41278 10.3947C6.61945 10.6903 6.36168 10.8636 6.17277 11.0281L5.46826 10.2436C5.46826 10.2436 5.77496 9.868 6.10164 10.0459C6.10164 10.0459 6.20389 10.1036 6.41278 10.3947Z" fill="black"/>
<path d="M16.42 13.5438C16.4466 13.9772 16.1599 14.3016 15.7866 14.3261C15.411 14.3528 15.0777 14.0705 15.051 13.6349C15.0198 13.1971 15.3132 12.8726 15.6866 12.846C16.0644 12.8237 16.3911 13.106 16.42 13.5438Z" fill="black"/>
<path d="M10.4909 9.25417C10.5198 9.70756 10.222 10.0498 9.83091 10.0698C9.43755 10.0987 9.0975 9.8031 9.06416 9.35198C9.0353 8.89641 9.33752 8.55859 9.72867 8.53195C10.1176 8.50522 10.4621 8.80086 10.4909 9.25417Z" fill="black"/>
<path d="M17.6477 13.4602C17.681 13.9869 17.5054 14.5158 17.1632 14.907C16.8298 15.287 16.3676 15.5115 15.8631 15.547C15.6159 15.5639 15.3678 15.5316 15.1332 15.4518C14.8986 15.3721 14.6821 15.2466 14.4964 15.0826C14.1513 14.784 13.923 14.3638 13.8481 13.9147C13.8371 13.8488 13.8295 13.7824 13.8252 13.7158C13.8145 13.5583 13.8222 13.4002 13.8483 13.2446C13.8041 13.2567 13.7577 13.2587 13.7126 13.2503C13.6675 13.2419 13.6249 13.2234 13.588 13.1961L13.4294 13.0732L13.6758 13.7946L14.2938 15.6043L14.7123 16.8298C14.759 16.972 14.6968 17.0187 14.5768 16.9342L10.2587 13.9785C10.1342 13.8962 9.93423 13.8962 9.812 13.9785L5.42944 16.9342C5.30721 17.0187 5.24275 16.972 5.29168 16.8298L5.61005 15.8988L5.80105 15.3403C5.78725 15.3451 5.7737 15.3499 5.76083 15.3551C5.67194 15.3907 5.50967 15.3263 5.42078 15.2774L5.34526 15.2374L4.94448 15.1211L2.76508 14.4884C2.50948 14.4173 2.34281 14.2685 2.29611 14.0885C2.26277 13.944 2.31169 13.7995 2.36057 13.7284L2.38721 13.5217L2.48058 12.9327C2.75159 12.0048 3.49099 11.4979 4.32043 11.631H4.32047C4.39031 11.6423 4.45941 11.6577 4.52741 11.6771C5.16892 11.8631 5.59447 12.4058 5.65898 13.031C5.66431 13.0826 5.66714 13.1348 5.66746 13.1875V13.1875C5.66751 13.1908 5.66751 13.194 5.66751 13.1973C5.66751 13.3106 5.64304 13.4239 5.6208 13.5395C5.75639 13.5706 5.9164 13.6039 5.9164 13.6039C5.94575 13.6115 5.99356 13.6239 6.04244 13.6394C6.0598 13.6449 6.07734 13.6509 6.09421 13.6571C6.11162 13.6635 6.12831 13.6703 6.14345 13.6773C6.16535 13.6864 6.18552 13.6992 6.20308 13.7151C6.21535 13.7289 6.22663 13.7435 6.23682 13.7589H6.23686V13.7589C6.26463 13.8021 6.28381 13.8502 6.29338 13.9007L6.34755 13.7423L6.35416 13.7228L6.5342 13.1964L6.47475 13.2153C6.34582 13.262 6.23691 13.1331 6.15468 13.0264L6.15184 13.0229L5.86579 12.6775L5.80416 12.6065L4.52524 11.1336L4.24957 10.8161L4.10789 10.6529C4.03899 10.5707 4.07899 10.4529 4.10123 10.3596C4.12565 10.2551 4.2568 10.1596 4.35235 10.1173C4.35235 10.1173 4.43457 10.084 4.43457 10.0795L4.50086 10L4.08303 9.70422L2.54256 8.61368C2.42033 8.52915 2.44258 8.45584 2.59366 8.45584H7.8874C8.03631 8.45584 8.19854 8.34254 8.24742 8.20247L9.94533 3.40217C9.99647 3.26662 10.0742 3.26662 10.1231 3.40435L11.7588 8.20247C11.8077 8.33806 11.97 8.45584 12.1144 8.45584H17.4125C17.5614 8.45584 17.5859 8.52915 17.4614 8.61368L15.8498 9.75457L15.4016 10.0719L15.5904 10.216C15.6704 10.2782 15.6504 10.3915 15.6326 10.4893C15.6176 10.5857 15.4952 10.68 15.3948 10.7186C15.4067 10.7145 15.4237 10.7094 15.4237 10.7138C15.4237 10.7138 15.3637 10.8026 15.3593 10.8026L15.1958 11.0607H15.1958L15.0238 11.3322L14.6009 11.9998C14.8679 11.798 15.1842 11.6718 15.5167 11.6344C15.5453 11.6312 15.5741 11.6286 15.6031 11.6267C15.8512 11.6092 16.1004 11.6415 16.3358 11.7216C16.5713 11.8018 16.7884 11.9282 16.9743 12.0934C17.3677 12.4313 17.6144 12.9335 17.6477 13.4602ZM15.8489 15.2999C16.7889 15.2376 17.4601 14.4021 17.4001 13.4753C17.3357 12.5486 16.5667 11.8129 15.6222 11.8751C15.5257 11.8812 15.4299 11.8957 15.336 11.9186C14.8576 12.0349 14.4749 12.3587 14.26 12.781V12.781C14.08 13.1379 14.0254 13.545 14.1049 13.9367C14.2163 14.4841 14.5821 14.9412 15.0737 15.1617V15.1617C15.3168 15.2707 15.583 15.3181 15.8489 15.2999ZM15.338 10.408L15.1476 10.2517L14.8046 9.97017C14.6624 9.85238 14.4112 9.84572 14.2556 9.95241L13.8379 10.2369C13.6823 10.3458 13.5467 10.4302 13.5467 10.4302C13.5467 10.428 13.6045 10.2769 13.6756 10.0991L13.8645 9.63234C13.9379 9.45235 13.8801 9.20794 13.7401 9.09238L13.1956 8.6456C13.2134 8.73013 13.1845 8.79007 13.1334 8.85676L13.1022 8.8901C13.0578 8.93015 12.9111 9.07457 12.7711 9.20794L11.3332 10.5881L11.2332 10.6702C11.1066 10.7036 11.1199 10.8325 11.2666 10.9547L11.8733 11.4547C11.8511 11.368 11.8844 11.2947 11.9444 11.2258L12.0377 11.1103C12.1599 10.9947 12.371 10.7814 12.5 10.6391L12.7555 10.3747C12.8866 10.2324 12.9956 10.1191 12.9978 10.1213C13 10.1213 12.9467 10.2702 12.88 10.4525L12.4555 11.5926C12.3889 11.7748 12.4644 11.8414 12.6266 11.737L13.6601 11.0947C13.8245 10.9947 13.96 10.9125 13.9623 10.9169C13.9623 10.9169 13.8756 11.0458 13.7645 11.2081L13.7342 11.2523L13.7341 11.2523L13.3556 11.8037C13.2763 11.9184 13.2029 12.0507 13.1189 12.1639V12.164C13.1134 12.1714 13.1078 12.1787 13.1022 12.1859L13.0423 12.2526C12.9578 12.277 13.0111 12.3948 13.1578 12.5126L13.2695 12.605L13.4112 12.7222L13.7623 13.0127L13.7267 12.8793C13.7912 12.757 13.9201 12.5259 14.0223 12.3615L14.082 12.262L14.3548 11.8073L14.3548 11.8073L14.6945 11.2411L15.0557 10.6391C15.0791 10.5965 15.1066 10.5563 15.1379 10.5191C15.1935 10.448 15.2468 10.408 15.338 10.408ZM11.5048 9.49848C11.5157 9.39464 11.5177 9.29007 11.511 9.18588C11.4443 8.22804 10.6443 7.45241 9.65981 7.51909C8.6775 7.58582 7.98188 8.45478 8.0463 9.41701C8.06518 9.70406 8.15125 9.98265 8.29755 10.2303C8.51656 10.6006 8.86144 10.8843 9.27319 11.0141C9.52279 11.0928 9.78718 11.1127 10.0457 11.0723C10.3043 11.0319 10.55 10.9324 10.7638 10.7814C10.9786 10.6284 11.1564 10.4292 11.2841 10.1985C11.4041 9.98244 11.4792 9.74432 11.5048 9.49848ZM8.13074 11.6751L8.81522 11.0818C8.69748 11.0729 8.59301 10.9951 8.52637 10.9174C8.15742 10.4884 7.62851 10.3306 7.20846 10.4373C7.21512 10.164 7.1218 9.87285 6.94399 9.67061C6.42844 9.07723 5.70169 9.15502 5.13944 9.635C4.92193 9.82929 4.81112 10.0087 4.70221 10.1426C4.66816 10.1859 4.63 10.2258 4.58828 10.2617C4.50544 10.3382 4.39658 10.3804 4.2838 10.3796L5.15631 11.3838H5.15635L5.32506 11.578L5.92133 12.2643V12.2643L5.98157 12.3336V12.3337L6.10842 12.4797C6.2484 12.6463 6.39954 12.8286 6.43288 12.8797C6.45459 12.9145 6.53104 12.9464 6.62721 12.9244C6.68903 12.909 6.74599 12.8784 6.7929 12.8352L7.4796 12.2397L7.36181 12.2285C7.26626 12.1441 7.06847 11.9352 6.92844 11.7685L6.8864 11.721C6.86643 11.6889 6.84123 11.6604 6.81185 11.6367L6.81181 11.6366L6.74175 11.5574C7.07513 11.3685 7.52404 11.4174 7.70629 11.6263L7.77293 11.7062C7.80406 11.8352 7.96185 11.8218 8.13074 11.6751ZM6.00706 14.2971C6.06709 14.0882 6.06038 13.926 5.99818 13.9372C5.93371 13.9505 5.60481 13.8838 5.39592 13.8216L5.38935 13.8196L5.25589 13.7794C5.28479 13.7038 5.30921 13.6371 5.33146 13.5683C5.4057 13.3148 5.4048 13.0453 5.32888 12.7923V12.7922C5.27677 12.6197 5.18872 12.4601 5.07051 12.324C4.95231 12.1878 4.80664 12.0783 4.64307 12.0025L4.64302 12.0025C4.57894 11.9726 4.51265 11.9478 4.44474 11.9281C3.61135 11.6881 2.96465 12.2192 2.73796 12.9993C2.62905 13.3726 2.67127 13.626 2.61347 13.826L2.58017 13.946C2.49346 14.026 2.5957 14.1394 2.80686 14.2016L5.03856 14.8459L5.47815 14.9728C5.5804 15.0061 5.69148 15.0661 5.75368 15.1684L6.00706 14.2971Z" fill="black"/>
<path d="M19 8.14266V8.23017C18.99 8.40035 18.9212 8.56986 18.7902 8.66403C18.7902 8.66403 17.5865 9.51593 16.3743 10.3748C16.3707 10.3989 16.366 10.4228 16.3613 10.4459C16.3379 10.5737 16.1881 10.6871 16.0642 10.7394C16.0792 10.7336 16.0991 10.7271 16.0991 10.7327C16.0991 10.7327 16.0191 10.8482 16.0169 10.8482L15.9204 10.9998C16.4605 11.0348 16.9687 11.2431 17.3852 11.6037C17.8919 12.0527 18.2097 12.7017 18.2564 13.3839C18.303 14.0706 18.0719 14.7551 17.623 15.2663C17.1918 15.7574 16.5962 16.053 15.9407 16.0996C15.7552 16.1124 15.5689 16.104 15.3854 16.0746C15.6518 16.8551 15.85 17.4358 15.85 17.4358C15.8646 17.4787 15.8721 17.5237 15.8722 17.5691C15.8722 17.7602 15.7544 17.9691 15.6077 18.0869C15.4233 18.2225 15.1099 18.2758 14.9188 18.1447C14.9188 18.1447 10.5807 15.1711 10.0385 14.8022C9.82735 14.9467 5.08033 18.1492 5.08033 18.1492C4.8892 18.2758 4.57806 18.2225 4.39585 18.0847C4.24912 17.9691 4.13355 17.7602 4.13355 17.5691C4.134 17.5239 4.14074 17.4791 4.15357 17.4358C4.15357 17.4358 4.42782 16.633 4.76489 15.6467L2.38747 14.9378C2.04969 14.8356 1.83188 14.6422 1.77633 14.3933C1.73185 14.2044 1.79183 14.0089 1.86073 13.9177L1.89408 13.6377L2.01408 12.8465C2.30533 11.8255 3.00806 11.1813 3.85109 11.0905L3.4662 10.6473C3.3862 10.554 3.43286 10.414 3.46398 10.2939C3.46447 10.2916 3.465 10.2892 3.46558 10.2868C3.46612 10.2846 3.46669 10.2824 3.46736 10.2802C3.4674 10.2799 3.46746 10.2797 3.46754 10.2795C3.46816 10.2772 3.46887 10.2749 3.46963 10.2726C3.47029 10.2705 3.47105 10.2684 3.47184 10.2663C3.4719 10.266 3.47197 10.2658 3.47207 10.2656C2.31958 9.44978 1.20893 8.66403 1.20893 8.66403C1.07112 8.56174 1.00004 8.3706 1.00004 8.18622C0.999321 8.12064 1.00908 8.05537 1.02894 7.99287C1.10002 7.76835 1.32894 7.55057 1.56229 7.55057H7.53607C7.63383 7.27726 9.45397 2.13683 9.45397 2.13683C9.52549 1.92661 9.79583 1.78605 10.0215 1.7793H10.0569C10.2826 1.78605 10.5514 1.933 10.6251 2.14349C10.6251 2.14349 12.2141 6.80389 12.4697 7.55057H18.4391C18.6724 7.55057 18.9036 7.76835 18.9746 7.99287C18.989 8.04162 18.9975 8.0919 19 8.14266ZM17.1632 14.9069C17.5054 14.5158 17.681 13.9869 17.6477 13.4602C17.6144 12.9335 17.3677 12.4312 16.9743 12.0934C16.7884 11.9282 16.5713 11.8017 16.3358 11.7216C16.1004 11.6414 15.8512 11.6092 15.6031 11.6267C15.5741 11.6286 15.5453 11.6312 15.5167 11.6344C15.1842 11.6717 14.8678 11.7979 14.6009 11.9997L15.0238 11.3322L15.1958 11.0607H15.1958L15.3593 10.8026C15.3637 10.8026 15.4237 10.7137 15.4237 10.7137C15.4237 10.7093 15.4067 10.7145 15.3948 10.7186C15.4952 10.68 15.6176 10.5857 15.6326 10.4892C15.6504 10.3915 15.6704 10.2781 15.5904 10.2159L15.4016 10.0718L15.8498 9.75453L17.4614 8.61364C17.5859 8.5291 17.5614 8.4558 17.4125 8.4558H12.1144C11.9699 8.4558 11.8077 8.33801 11.7588 8.20242L10.1231 3.4043C10.0742 3.26658 9.99646 3.26658 9.94532 3.40213L8.24741 8.20242C8.19853 8.3425 8.0363 8.4558 7.88739 8.4558H2.59365C2.44257 8.4558 2.42032 8.5291 2.54255 8.61364L4.08302 9.70418L4.50086 9.99996L4.43457 10.0795C4.43457 10.0839 4.35235 10.1173 4.35235 10.1173C4.2568 10.1595 4.12565 10.2551 4.10123 10.3595C4.07899 10.4529 4.03899 10.5707 4.10789 10.6529L4.24956 10.816L4.52523 11.1335L5.80416 12.6065L5.86578 12.6775L6.15184 13.0229L6.15468 13.0263C6.23691 13.133 6.34581 13.262 6.47474 13.2153L6.53419 13.1963L6.35416 13.7228L6.34755 13.7423L6.29338 13.9006C6.28381 13.8502 6.26462 13.8021 6.23686 13.7589V13.7588H6.23682C6.22663 13.7434 6.21535 13.7288 6.20307 13.715C6.18551 13.6991 6.16534 13.6864 6.14345 13.6773C6.12831 13.6703 6.11161 13.6635 6.09421 13.6571C6.07734 13.6508 6.0598 13.6449 6.04244 13.6394C5.99356 13.6238 5.94574 13.6114 5.9164 13.6039C5.9164 13.6039 5.75639 13.5706 5.6208 13.5394C5.64304 13.4239 5.66751 13.3106 5.66751 13.1972C5.66751 13.194 5.66751 13.1907 5.66746 13.1875V13.1875C5.66715 13.1349 5.66432 13.0827 5.65898 13.031C5.59447 12.4058 5.16892 11.863 4.52741 11.6771C4.45941 11.6576 4.3903 11.6422 4.32047 11.631H4.32043C3.49099 11.4979 2.75158 12.0048 2.48058 12.9327L2.38721 13.5217L2.36057 13.7284C2.31168 13.7995 2.26276 13.944 2.2961 14.0884C2.34281 14.2684 2.50948 14.4173 2.76508 14.4884L4.94448 15.1211L5.34526 15.2374L5.42078 15.2774C5.50966 15.3263 5.67194 15.3907 5.76082 15.3551C5.7737 15.3499 5.78724 15.345 5.80104 15.3403L5.61005 15.8987L5.29167 16.8298C5.24274 16.972 5.30721 17.0186 5.42943 16.9342L9.81199 13.9784C9.93422 13.8962 10.1342 13.8962 10.2587 13.9784L14.5768 16.9342C14.6968 17.0186 14.759 16.972 14.7123 16.8298L14.2938 15.6043L13.6758 13.7946L13.4294 13.0732L13.588 13.1961C13.6249 13.2233 13.6675 13.2419 13.7126 13.2503C13.7577 13.2587 13.8041 13.2567 13.8483 13.2445C13.8222 13.4001 13.8144 13.5583 13.8252 13.7157C13.8295 13.7824 13.8371 13.8488 13.8481 13.9147C13.923 14.3638 14.1513 14.784 14.4964 15.0825C14.6821 15.2465 14.8986 15.3721 15.1332 15.4518C15.3678 15.5315 15.6159 15.5639 15.8631 15.547C16.3676 15.5114 16.8298 15.2869 17.1632 14.9069Z" fill="white"/>
<path d="M17.4 13.4749C17.46 14.4017 16.7888 15.2372 15.8488 15.2995C15.5829 15.3177 15.3167 15.2703 15.0736 15.1613V15.1613C14.582 14.9408 14.2162 14.4837 14.1048 13.9363C14.0253 13.5446 14.0799 13.1375 14.2599 12.7806V12.7806C14.4748 12.3583 14.8575 12.0346 15.3359 11.9182C15.4298 11.8954 15.5256 11.8808 15.6221 11.8748C16.5666 11.8126 17.3356 12.5482 17.4 13.4749ZM15.7866 14.3261C16.1599 14.3016 16.4466 13.9772 16.4199 13.5438C16.391 13.106 16.0644 12.8237 15.6865 12.846C15.3132 12.8727 15.0198 13.1971 15.0509 13.635C15.0776 14.0705 15.411 14.3528 15.7866 14.3261Z" fill="white"/>
<path d="M15.1476 10.2516L15.338 10.4079C15.2468 10.4079 15.1935 10.4479 15.1379 10.5191C15.1066 10.5562 15.0791 10.5964 15.0557 10.639L14.6945 11.241L14.3548 11.8072L14.3548 11.8072L14.082 12.2619L14.0223 12.3614C13.9201 12.5258 13.7911 12.7569 13.7267 12.8792L13.7622 13.0126L13.4111 12.7221L13.2695 12.6049L13.1578 12.5125C13.0111 12.3947 12.9577 12.2769 13.0422 12.2525L13.1022 12.1858C13.1078 12.1786 13.1133 12.1713 13.1189 12.1639V12.1638C13.2029 12.0506 13.2763 11.9183 13.3555 11.8036L13.7341 11.2522L13.7341 11.2522L13.7645 11.208C13.8756 11.0457 13.9623 10.9168 13.9623 10.9168C13.96 10.9124 13.8245 10.9946 13.66 11.0946L12.6266 11.7369C12.4643 11.8414 12.3888 11.7747 12.4555 11.5925L12.88 10.4524C12.9466 10.2701 13 10.1212 12.9977 10.1212C12.9956 10.119 12.8866 10.2323 12.7555 10.3746L12.4999 10.639C12.371 10.7813 12.1599 10.9946 12.0377 11.1102L11.9444 11.2257C11.8843 11.2946 11.851 11.3679 11.8732 11.4546L11.2665 10.9546C11.1198 10.8324 11.1065 10.7035 11.2332 10.6701L11.3332 10.588L12.771 9.20785C12.9111 9.07448 13.0578 8.93005 13.1022 8.89001L13.1333 8.85666C13.1844 8.78998 13.2133 8.73004 13.1955 8.64551L13.74 9.09228C13.8801 9.20785 13.9378 9.45226 13.8645 9.63225L13.6756 10.099C13.6044 10.2768 13.5467 10.4279 13.5467 10.4301C13.5467 10.4301 13.6822 10.3457 13.8378 10.2368L14.2556 9.95231C14.4112 9.84563 14.6623 9.85229 14.8045 9.97007L15.1476 10.2516Z" fill="white"/>
<path d="M11.511 9.18544C11.5177 9.28963 11.5156 9.3942 11.5048 9.49804C11.4791 9.74388 11.404 9.98199 11.284 10.1981C11.1563 10.4288 10.9785 10.628 10.7637 10.7809C10.6049 10.8936 10.4277 10.9778 10.2401 11.0297C9.92289 11.1172 9.58725 11.1116 9.27314 11.0137C8.86139 10.8838 8.51651 10.6002 8.29749 10.2299C8.15119 9.98221 8.06513 9.70362 8.04625 9.41657C7.98183 8.45433 8.67745 7.58538 9.65975 7.51865C10.6442 7.45197 11.4443 8.22759 11.511 9.18544ZM9.83086 10.07C10.222 10.05 10.5198 9.70773 10.4909 9.25434C10.462 8.80104 10.1175 8.50539 9.72861 8.53212C9.33747 8.55876 9.03525 8.89658 9.06411 9.35215C9.09745 9.80328 9.4375 10.0989 9.83086 10.07Z" fill="white"/>
<path d="M6.88631 11.721L6.81177 11.6367C6.84115 11.6605 6.86634 11.689 6.88631 11.721Z" fill="white"/>
<path d="M6.81187 11.6365L6.88641 11.7208L6.92846 11.7684C7.06849 11.935 7.26628 12.144 7.36182 12.2284L7.47961 12.2395L6.79291 12.8351C6.74601 12.8782 6.68904 12.9089 6.62722 12.9243C6.53106 12.9462 6.4546 12.9144 6.43289 12.8796C6.39955 12.8284 6.24842 12.6462 6.10843 12.4795L5.98159 12.3335V12.3335L5.92134 12.2642V12.2641L5.32508 11.5779L5.15636 11.3837H5.15632L4.28381 10.3794C4.39659 10.3802 4.50545 10.3381 4.58829 10.2616C4.63002 10.2256 4.66817 10.1857 4.70222 10.1424C4.81113 10.0085 4.92194 9.82915 5.13945 9.63486C5.7017 9.15488 6.42845 9.07709 6.944 9.67047C7.12181 9.8727 7.21514 10.1638 7.20848 10.4372C7.62853 10.3305 8.15744 10.4883 8.52638 10.9173C8.59302 10.995 8.69749 11.0727 8.81524 11.0816L8.13075 11.675C7.96186 11.8217 7.80408 11.835 7.77295 11.7061L7.70631 11.6262C7.52406 11.4172 7.07515 11.3683 6.74177 11.5572L6.81183 11.6365L6.81187 11.6365ZM6.17285 11.0283C6.36176 10.8638 6.61954 10.6905 6.41286 10.395C6.20397 10.1038 6.10172 10.0461 6.10172 10.0461C5.77504 9.86821 5.46834 10.2438 5.46834 10.2438L6.17285 11.0283Z" fill="white"/>
<path d="M5.99809 13.9373C6.0603 13.9262 6.067 14.0884 6.00697 14.2973L5.7536 15.1685C5.6914 15.0663 5.58031 15.0063 5.47806 14.973L5.03848 14.8461L2.80678 14.2018C2.59562 14.1396 2.49337 14.0262 2.58008 13.9462L2.61338 13.8262C2.67119 13.6262 2.62896 13.3728 2.73787 12.9995C2.96457 12.2194 3.61127 11.6883 4.44466 11.9283C4.51257 11.9479 4.57886 11.9728 4.64294 12.0027L4.64298 12.0027C4.80655 12.0785 4.95223 12.188 5.07043 12.3241C5.18863 12.4602 5.27668 12.6198 5.3288 12.7924V12.7925C5.40472 13.0454 5.40561 13.315 5.33137 13.5684C5.30913 13.6372 5.28471 13.7039 5.25581 13.7795L5.38927 13.8198L5.39584 13.8218C5.60473 13.884 5.93363 13.9507 5.99809 13.9373ZM4.51578 13.5662C4.51578 13.5662 4.80912 12.8172 4.26684 12.6283C3.70459 12.4305 3.45792 13.0217 3.39567 13.2306L4.51578 13.5662Z" fill="white"/>
</g>
<defs>
<clipPath id="clip0_96_8814">
<rect width="18" height="18" fill="white" transform="translate(1 1)"/>
</clipPath>
</defs>
</svg>
