<svg width="20" height="21" viewBox="0 0 20 21" fill="none" xmlns="http://www.w3.org/2000/svg">
<path d="M10 1.30566C10.2677 1.30566 10.5117 1.45961 10.627 1.70117L13.0566 6.79297L18.6504 7.53027C18.9156 7.56527 19.1369 7.74959 19.2197 8.00391C19.3024 8.25838 19.2321 8.53838 19.0381 8.72266L14.9453 12.6064L15.9727 18.1543C16.0214 18.4174 15.9147 18.6854 15.6982 18.8428C15.4818 19.0001 15.1942 19.0192 14.959 18.8916L10 16.1992L5.04102 18.8916C4.80581 19.0192 4.51824 19.0001 4.30176 18.8428C4.08528 18.6854 3.97862 18.4174 4.02734 18.1543L5.05371 12.6064L0.961914 8.72266C0.767926 8.53838 0.697589 8.25838 0.780273 8.00391C0.863068 7.74959 1.08444 7.56527 1.34961 7.53027L6.94238 6.79297L9.37305 1.70117C9.48831 1.45961 9.73235 1.30566 10 1.30566Z" stroke="#FCB912" stroke-width="1.38889" stroke-linejoin="round"/>
</svg>
